G04 EAGLE Gerber RS-274X export*
G75*
%MOMM*%
%FSLAX34Y34*%
%LPD*%
%INTop Copper*%
%IPPOS*%
%AMOC8*
5,1,8,0,0,1.08239X$1,22.5*%
G01*
%ADD10R,0.700000X1.500000*%
%ADD11R,1.000000X5.200000*%
%ADD12R,2.200000X3.100000*%
%ADD13R,1.550000X2.350000*%
%ADD14R,1.800000X2.700000*%
%ADD15R,2.700000X2.550000*%
%ADD16R,1.524000X1.524000*%
%ADD17R,1.100000X1.400000*%
%ADD18R,2.025000X2.025000*%
%ADD19C,2.025000*%
%ADD20R,1.400000X3.000000*%
%ADD21R,2.350000X1.550000*%
%ADD22R,3.000000X1.400000*%
%ADD23R,1.400000X1.100000*%
%ADD24R,1.000000X1.100000*%
%ADD25R,2.794000X2.286000*%
%ADD26C,0.300000*%
%ADD27R,1.100000X1.000000*%
%ADD28R,1.000000X0.900000*%
%ADD29R,0.900000X1.000000*%
%ADD30C,1.879600*%
%ADD31R,2.032000X2.032000*%
%ADD32C,2.032000*%
%ADD33R,0.711200X1.422400*%
%ADD34R,1.422400X0.711200*%
%ADD35C,1.275000*%
%ADD36C,0.200000*%
%ADD37C,0.756400*%
%ADD38C,0.706400*%
%ADD39C,0.254000*%
%ADD40C,0.508000*%
%ADD41C,0.406400*%

G36*
X525034Y2774D02*
X525034Y2774D01*
X525106Y2776D01*
X525155Y2794D01*
X525206Y2802D01*
X525269Y2836D01*
X525337Y2861D01*
X525377Y2893D01*
X525423Y2918D01*
X525473Y2970D01*
X525529Y3014D01*
X525557Y3058D01*
X525593Y3096D01*
X525623Y3161D01*
X525662Y3221D01*
X525674Y3272D01*
X525696Y3319D01*
X525704Y3390D01*
X525722Y3460D01*
X525718Y3512D01*
X525723Y3563D01*
X525708Y3634D01*
X525703Y3705D01*
X525682Y3753D01*
X525671Y3804D01*
X525634Y3865D01*
X525606Y3931D01*
X525561Y3987D01*
X525545Y4015D01*
X525527Y4030D01*
X525501Y4062D01*
X524715Y4848D01*
X524715Y15112D01*
X525608Y16005D01*
X527478Y16005D01*
X527498Y16008D01*
X527517Y16006D01*
X527619Y16028D01*
X527721Y16044D01*
X527738Y16054D01*
X527758Y16058D01*
X527847Y16111D01*
X527938Y16160D01*
X527952Y16174D01*
X527969Y16184D01*
X528036Y16263D01*
X528108Y16338D01*
X528116Y16356D01*
X528129Y16371D01*
X528168Y16467D01*
X528211Y16561D01*
X528213Y16581D01*
X528221Y16599D01*
X528239Y16766D01*
X528239Y44194D01*
X528236Y44214D01*
X528238Y44233D01*
X528216Y44335D01*
X528200Y44437D01*
X528190Y44454D01*
X528186Y44474D01*
X528133Y44563D01*
X528084Y44654D01*
X528070Y44668D01*
X528060Y44685D01*
X527981Y44752D01*
X527906Y44824D01*
X527888Y44832D01*
X527873Y44845D01*
X527777Y44884D01*
X527683Y44927D01*
X527663Y44929D01*
X527645Y44937D01*
X527478Y44955D01*
X525608Y44955D01*
X524715Y45848D01*
X524715Y56112D01*
X525012Y56408D01*
X525023Y56424D01*
X525039Y56437D01*
X525095Y56524D01*
X525155Y56608D01*
X525161Y56627D01*
X525172Y56644D01*
X525197Y56744D01*
X525228Y56843D01*
X525227Y56863D01*
X525232Y56882D01*
X525224Y56985D01*
X525221Y57089D01*
X525214Y57108D01*
X525213Y57127D01*
X525172Y57222D01*
X525137Y57320D01*
X525124Y57335D01*
X525117Y57354D01*
X525012Y57485D01*
X523490Y59006D01*
X523416Y59059D01*
X523347Y59119D01*
X523317Y59131D01*
X523290Y59150D01*
X523203Y59177D01*
X523118Y59211D01*
X523078Y59215D01*
X523055Y59222D01*
X523023Y59221D01*
X522952Y59229D01*
X502947Y59229D01*
X491703Y70474D01*
X491703Y73312D01*
X491700Y73331D01*
X491702Y73351D01*
X491680Y73452D01*
X491663Y73554D01*
X491654Y73572D01*
X491649Y73591D01*
X491596Y73680D01*
X491548Y73772D01*
X491534Y73785D01*
X491523Y73802D01*
X491445Y73870D01*
X491370Y73941D01*
X491352Y73949D01*
X491336Y73962D01*
X491240Y74001D01*
X491147Y74045D01*
X491127Y74047D01*
X491108Y74054D01*
X490942Y74073D01*
X490516Y74073D01*
X489623Y74966D01*
X489623Y90453D01*
X490516Y91346D01*
X498891Y91346D01*
X499784Y90453D01*
X499784Y74966D01*
X498891Y74073D01*
X498465Y74073D01*
X498446Y74070D01*
X498426Y74072D01*
X498325Y74050D01*
X498223Y74033D01*
X498205Y74024D01*
X498186Y74020D01*
X498097Y73966D01*
X498005Y73918D01*
X497992Y73904D01*
X497975Y73893D01*
X497907Y73815D01*
X497836Y73740D01*
X497828Y73722D01*
X497815Y73706D01*
X497776Y73610D01*
X497732Y73517D01*
X497730Y73497D01*
X497723Y73478D01*
X497708Y73341D01*
X497707Y73339D01*
X497707Y73337D01*
X497704Y73312D01*
X497704Y73275D01*
X497719Y73185D01*
X497726Y73094D01*
X497739Y73064D01*
X497744Y73032D01*
X497787Y72951D01*
X497822Y72867D01*
X497848Y72835D01*
X497859Y72815D01*
X497882Y72792D01*
X497927Y72736D01*
X505210Y65454D01*
X505284Y65401D01*
X505353Y65341D01*
X505384Y65329D01*
X505410Y65310D01*
X505497Y65283D01*
X505582Y65249D01*
X505622Y65245D01*
X505645Y65238D01*
X505677Y65239D01*
X505748Y65231D01*
X525753Y65231D01*
X532260Y58724D01*
X533756Y57228D01*
X533830Y57175D01*
X533899Y57115D01*
X533929Y57103D01*
X533956Y57084D01*
X534043Y57057D01*
X534128Y57023D01*
X534168Y57019D01*
X534191Y57012D01*
X534223Y57013D01*
X534294Y57005D01*
X536872Y57005D01*
X537765Y56112D01*
X537765Y45848D01*
X536872Y44955D01*
X535002Y44955D01*
X534982Y44952D01*
X534963Y44954D01*
X534861Y44932D01*
X534759Y44916D01*
X534742Y44906D01*
X534722Y44902D01*
X534633Y44849D01*
X534542Y44800D01*
X534528Y44786D01*
X534511Y44776D01*
X534444Y44697D01*
X534372Y44622D01*
X534364Y44604D01*
X534351Y44589D01*
X534312Y44493D01*
X534269Y44399D01*
X534267Y44379D01*
X534259Y44361D01*
X534241Y44194D01*
X534241Y16766D01*
X534244Y16746D01*
X534242Y16727D01*
X534264Y16625D01*
X534280Y16523D01*
X534290Y16506D01*
X534294Y16486D01*
X534347Y16397D01*
X534396Y16306D01*
X534410Y16292D01*
X534420Y16275D01*
X534499Y16208D01*
X534574Y16136D01*
X534592Y16128D01*
X534607Y16115D01*
X534703Y16076D01*
X534797Y16033D01*
X534817Y16031D01*
X534835Y16023D01*
X535002Y16005D01*
X536872Y16005D01*
X537765Y15112D01*
X537765Y4848D01*
X536979Y4062D01*
X536937Y4004D01*
X536887Y3952D01*
X536865Y3905D01*
X536835Y3863D01*
X536814Y3794D01*
X536784Y3729D01*
X536778Y3677D01*
X536763Y3627D01*
X536765Y3556D01*
X536757Y3485D01*
X536768Y3434D01*
X536769Y3382D01*
X536794Y3314D01*
X536809Y3244D01*
X536836Y3199D01*
X536853Y3151D01*
X536898Y3095D01*
X536935Y3033D01*
X536975Y2999D01*
X537007Y2959D01*
X537067Y2920D01*
X537122Y2873D01*
X537170Y2854D01*
X537214Y2826D01*
X537284Y2808D01*
X537350Y2781D01*
X537421Y2773D01*
X537453Y2765D01*
X537476Y2767D01*
X537517Y2763D01*
X665480Y2763D01*
X665500Y2766D01*
X665519Y2764D01*
X665621Y2786D01*
X665723Y2802D01*
X665740Y2812D01*
X665760Y2816D01*
X665849Y2869D01*
X665940Y2918D01*
X665954Y2932D01*
X665971Y2942D01*
X666038Y3021D01*
X666110Y3096D01*
X666118Y3114D01*
X666131Y3129D01*
X666170Y3225D01*
X666213Y3319D01*
X666215Y3339D01*
X666223Y3357D01*
X666241Y3524D01*
X666241Y10558D01*
X666240Y10568D01*
X666241Y10579D01*
X666220Y10690D01*
X666202Y10801D01*
X666197Y10810D01*
X666195Y10820D01*
X666139Y10919D01*
X666086Y11018D01*
X666079Y11025D01*
X666073Y11035D01*
X665955Y11153D01*
X663635Y13003D01*
X656812Y23010D01*
X653976Y32203D01*
X653940Y32276D01*
X653912Y32352D01*
X653886Y32385D01*
X653867Y32423D01*
X653809Y32481D01*
X653758Y32544D01*
X653723Y32567D01*
X653693Y32597D01*
X653620Y32633D01*
X653552Y32677D01*
X653510Y32687D01*
X653472Y32706D01*
X653392Y32717D01*
X653313Y32737D01*
X653271Y32734D01*
X653229Y32740D01*
X653149Y32724D01*
X653068Y32718D01*
X653029Y32701D01*
X652987Y32693D01*
X652916Y32653D01*
X652841Y32622D01*
X652798Y32587D01*
X652773Y32573D01*
X652754Y32551D01*
X652710Y32517D01*
X651260Y31066D01*
X646233Y26039D01*
X646165Y25944D01*
X646095Y25850D01*
X646093Y25844D01*
X646089Y25839D01*
X646055Y25728D01*
X646018Y25616D01*
X646018Y25610D01*
X646017Y25604D01*
X646020Y25487D01*
X646021Y25370D01*
X646023Y25363D01*
X646023Y25358D01*
X646029Y25341D01*
X646067Y25209D01*
X647193Y22493D01*
X647193Y18147D01*
X645530Y14133D01*
X642457Y11060D01*
X638443Y9397D01*
X634097Y9397D01*
X630083Y11060D01*
X627010Y14133D01*
X625347Y18147D01*
X625347Y22493D01*
X627010Y26507D01*
X630083Y29580D01*
X634097Y31243D01*
X638443Y31243D01*
X641159Y30117D01*
X641273Y30091D01*
X641386Y30062D01*
X641393Y30063D01*
X641399Y30061D01*
X641515Y30072D01*
X641632Y30081D01*
X641637Y30084D01*
X641644Y30084D01*
X641751Y30132D01*
X641858Y30178D01*
X641864Y30182D01*
X641868Y30184D01*
X641882Y30197D01*
X641989Y30283D01*
X647016Y35310D01*
X647069Y35384D01*
X647129Y35453D01*
X647141Y35483D01*
X647160Y35510D01*
X647187Y35597D01*
X647221Y35682D01*
X647225Y35722D01*
X647232Y35745D01*
X647231Y35777D01*
X647239Y35848D01*
X647239Y39833D01*
X647224Y39929D01*
X647214Y40026D01*
X647204Y40050D01*
X647200Y40075D01*
X647154Y40161D01*
X647114Y40250D01*
X647097Y40270D01*
X647084Y40293D01*
X647014Y40360D01*
X646948Y40432D01*
X646925Y40444D01*
X646906Y40462D01*
X646818Y40503D01*
X646732Y40550D01*
X646707Y40555D01*
X646683Y40566D01*
X646586Y40577D01*
X646490Y40594D01*
X646464Y40590D01*
X646439Y40593D01*
X646344Y40572D01*
X646247Y40558D01*
X646224Y40546D01*
X646198Y40541D01*
X646115Y40491D01*
X646028Y40447D01*
X646009Y40428D01*
X645987Y40414D01*
X645924Y40340D01*
X645856Y40271D01*
X645840Y40242D01*
X645827Y40228D01*
X645815Y40197D01*
X645775Y40124D01*
X645530Y39533D01*
X642457Y36460D01*
X638443Y34797D01*
X634097Y34797D01*
X630083Y36460D01*
X627870Y38673D01*
X627812Y38715D01*
X627760Y38764D01*
X627713Y38786D01*
X627671Y38816D01*
X627602Y38837D01*
X627537Y38868D01*
X627485Y38873D01*
X627435Y38889D01*
X627364Y38887D01*
X627293Y38895D01*
X627242Y38884D01*
X627190Y38882D01*
X627122Y38858D01*
X627052Y38842D01*
X627007Y38816D01*
X626959Y38798D01*
X626903Y38753D01*
X626841Y38716D01*
X626807Y38677D01*
X626767Y38644D01*
X626728Y38584D01*
X626681Y38529D01*
X626662Y38481D01*
X626634Y38437D01*
X626616Y38368D01*
X626589Y38301D01*
X626581Y38230D01*
X626573Y38199D01*
X626575Y38175D01*
X626571Y38134D01*
X626571Y31777D01*
X620833Y26039D01*
X620765Y25945D01*
X620695Y25850D01*
X620693Y25844D01*
X620689Y25839D01*
X620655Y25728D01*
X620618Y25616D01*
X620618Y25610D01*
X620617Y25604D01*
X620620Y25487D01*
X620621Y25370D01*
X620623Y25363D01*
X620623Y25358D01*
X620629Y25341D01*
X620667Y25209D01*
X621793Y22493D01*
X621793Y18147D01*
X620130Y14133D01*
X617057Y11060D01*
X613043Y9397D01*
X608697Y9397D01*
X604683Y11060D01*
X601610Y14133D01*
X599947Y18147D01*
X599947Y22493D01*
X601610Y26507D01*
X604683Y29580D01*
X608697Y31243D01*
X613043Y31243D01*
X615759Y30117D01*
X615873Y30091D01*
X615986Y30062D01*
X615993Y30063D01*
X615999Y30061D01*
X616115Y30072D01*
X616232Y30081D01*
X616237Y30084D01*
X616244Y30084D01*
X616351Y30132D01*
X616458Y30178D01*
X616464Y30182D01*
X616468Y30184D01*
X616482Y30197D01*
X616589Y30283D01*
X620346Y34040D01*
X620399Y34114D01*
X620459Y34183D01*
X620471Y34214D01*
X620490Y34240D01*
X620517Y34327D01*
X620551Y34412D01*
X620555Y34452D01*
X620562Y34475D01*
X620561Y34507D01*
X620569Y34578D01*
X620569Y38134D01*
X620558Y38205D01*
X620556Y38277D01*
X620538Y38326D01*
X620530Y38377D01*
X620496Y38440D01*
X620471Y38508D01*
X620439Y38548D01*
X620414Y38595D01*
X620362Y38644D01*
X620318Y38700D01*
X620274Y38728D01*
X620236Y38764D01*
X620171Y38794D01*
X620111Y38833D01*
X620060Y38846D01*
X620013Y38868D01*
X619942Y38875D01*
X619872Y38893D01*
X619820Y38889D01*
X619769Y38895D01*
X619698Y38879D01*
X619627Y38874D01*
X619579Y38853D01*
X619528Y38842D01*
X619467Y38806D01*
X619401Y38777D01*
X619345Y38733D01*
X619317Y38716D01*
X619302Y38698D01*
X619270Y38673D01*
X617057Y36460D01*
X613043Y34797D01*
X608697Y34797D01*
X604683Y36460D01*
X601610Y39533D01*
X599947Y43547D01*
X599947Y47893D01*
X601610Y51907D01*
X604683Y54980D01*
X608697Y56643D01*
X613043Y56643D01*
X617057Y54980D01*
X619270Y52767D01*
X619328Y52725D01*
X619380Y52676D01*
X619427Y52654D01*
X619469Y52624D01*
X619538Y52603D01*
X619603Y52572D01*
X619655Y52567D01*
X619705Y52551D01*
X619776Y52553D01*
X619847Y52545D01*
X619898Y52556D01*
X619950Y52558D01*
X620018Y52582D01*
X620088Y52598D01*
X620133Y52624D01*
X620181Y52642D01*
X620237Y52687D01*
X620299Y52724D01*
X620333Y52763D01*
X620373Y52796D01*
X620412Y52856D01*
X620459Y52911D01*
X620478Y52959D01*
X620506Y53003D01*
X620524Y53072D01*
X620551Y53139D01*
X620559Y53210D01*
X620567Y53241D01*
X620565Y53265D01*
X620569Y53306D01*
X620569Y66013D01*
X625910Y71354D01*
X625963Y71428D01*
X626023Y71497D01*
X626035Y71528D01*
X626054Y71554D01*
X626081Y71641D01*
X626115Y71726D01*
X626119Y71766D01*
X626126Y71789D01*
X626125Y71821D01*
X626133Y71892D01*
X626133Y74485D01*
X629095Y77447D01*
X633285Y77447D01*
X636247Y74485D01*
X636247Y70295D01*
X633285Y67333D01*
X630692Y67333D01*
X630602Y67319D01*
X630511Y67311D01*
X630481Y67299D01*
X630450Y67294D01*
X630369Y67251D01*
X630285Y67215D01*
X630253Y67189D01*
X630232Y67178D01*
X630210Y67155D01*
X630154Y67110D01*
X626794Y63750D01*
X626741Y63676D01*
X626681Y63607D01*
X626669Y63576D01*
X626650Y63550D01*
X626623Y63463D01*
X626589Y63378D01*
X626585Y63338D01*
X626578Y63315D01*
X626579Y63283D01*
X626571Y63212D01*
X626571Y53306D01*
X626582Y53235D01*
X626584Y53163D01*
X626602Y53114D01*
X626610Y53063D01*
X626644Y53000D01*
X626669Y52932D01*
X626701Y52892D01*
X626726Y52845D01*
X626778Y52796D01*
X626822Y52740D01*
X626866Y52712D01*
X626904Y52676D01*
X626969Y52646D01*
X627029Y52607D01*
X627080Y52594D01*
X627127Y52572D01*
X627198Y52565D01*
X627268Y52547D01*
X627320Y52551D01*
X627371Y52545D01*
X627442Y52561D01*
X627513Y52566D01*
X627561Y52587D01*
X627612Y52598D01*
X627673Y52634D01*
X627739Y52663D01*
X627795Y52707D01*
X627823Y52724D01*
X627838Y52742D01*
X627870Y52767D01*
X630083Y54980D01*
X634097Y56643D01*
X638443Y56643D01*
X642457Y54980D01*
X645530Y51907D01*
X645775Y51316D01*
X645826Y51233D01*
X645872Y51147D01*
X645891Y51129D01*
X645904Y51107D01*
X645979Y51045D01*
X646050Y50978D01*
X646074Y50967D01*
X646094Y50950D01*
X646185Y50915D01*
X646273Y50874D01*
X646299Y50871D01*
X646323Y50862D01*
X646421Y50858D01*
X646517Y50847D01*
X646543Y50853D01*
X646569Y50852D01*
X646663Y50879D01*
X646758Y50899D01*
X646780Y50913D01*
X646805Y50920D01*
X646885Y50976D01*
X646969Y51026D01*
X646986Y51045D01*
X647007Y51060D01*
X647065Y51138D01*
X647129Y51212D01*
X647139Y51237D01*
X647154Y51258D01*
X647184Y51350D01*
X647221Y51441D01*
X647224Y51473D01*
X647230Y51492D01*
X647230Y51525D01*
X647239Y51607D01*
X647239Y62844D01*
X647225Y62934D01*
X647217Y63025D01*
X647205Y63055D01*
X647200Y63087D01*
X647157Y63168D01*
X647121Y63251D01*
X647095Y63284D01*
X647084Y63304D01*
X647061Y63326D01*
X647016Y63382D01*
X643913Y66485D01*
X643913Y70675D01*
X646875Y73637D01*
X651065Y73637D01*
X654027Y70675D01*
X654027Y66485D01*
X653464Y65922D01*
X653411Y65848D01*
X653351Y65779D01*
X653339Y65749D01*
X653320Y65723D01*
X653293Y65636D01*
X653259Y65551D01*
X653255Y65510D01*
X653248Y65488D01*
X653249Y65455D01*
X653241Y65384D01*
X653241Y51743D01*
X653242Y51734D01*
X653241Y51724D01*
X653262Y51613D01*
X653280Y51501D01*
X653285Y51492D01*
X653287Y51482D01*
X653343Y51383D01*
X653396Y51283D01*
X653403Y51276D01*
X653407Y51268D01*
X653492Y51192D01*
X653574Y51114D01*
X653583Y51110D01*
X653590Y51103D01*
X653694Y51058D01*
X653797Y51010D01*
X653807Y51009D01*
X653816Y51005D01*
X653929Y50996D01*
X654041Y50983D01*
X654051Y50985D01*
X654061Y50984D01*
X654171Y51011D01*
X654282Y51035D01*
X654290Y51040D01*
X654300Y51043D01*
X654396Y51103D01*
X654493Y51161D01*
X654499Y51169D01*
X654508Y51174D01*
X654579Y51262D01*
X654653Y51348D01*
X654656Y51357D01*
X654663Y51365D01*
X654729Y51519D01*
X656812Y58270D01*
X657602Y59428D01*
X658640Y60951D01*
X659678Y62473D01*
X659678Y62474D01*
X660197Y63235D01*
X661235Y64757D01*
X662273Y66280D01*
X663635Y68277D01*
X665955Y70127D01*
X665962Y70135D01*
X665971Y70140D01*
X666044Y70226D01*
X666120Y70309D01*
X666124Y70319D01*
X666131Y70327D01*
X666173Y70433D01*
X666218Y70535D01*
X666219Y70546D01*
X666223Y70556D01*
X666241Y70722D01*
X666241Y79026D01*
X666238Y79046D01*
X666240Y79065D01*
X666218Y79167D01*
X666202Y79269D01*
X666192Y79286D01*
X666188Y79306D01*
X666135Y79395D01*
X666086Y79486D01*
X666072Y79500D01*
X666062Y79517D01*
X665983Y79584D01*
X665908Y79656D01*
X665890Y79664D01*
X665875Y79677D01*
X665779Y79716D01*
X665685Y79759D01*
X665665Y79761D01*
X665647Y79769D01*
X665480Y79787D01*
X663066Y79787D01*
X661447Y81406D01*
X661447Y256414D01*
X663066Y258033D01*
X665480Y258033D01*
X665500Y258036D01*
X665519Y258034D01*
X665621Y258056D01*
X665723Y258072D01*
X665740Y258082D01*
X665760Y258086D01*
X665849Y258139D01*
X665940Y258188D01*
X665954Y258202D01*
X665971Y258212D01*
X666038Y258291D01*
X666110Y258366D01*
X666118Y258384D01*
X666131Y258399D01*
X666170Y258495D01*
X666213Y258589D01*
X666215Y258609D01*
X666223Y258627D01*
X666241Y258794D01*
X666241Y279400D01*
X666238Y279420D01*
X666240Y279439D01*
X666218Y279541D01*
X666202Y279643D01*
X666192Y279660D01*
X666188Y279680D01*
X666135Y279769D01*
X666086Y279860D01*
X666072Y279874D01*
X666062Y279891D01*
X665983Y279958D01*
X665908Y280030D01*
X665890Y280038D01*
X665875Y280051D01*
X665779Y280090D01*
X665685Y280133D01*
X665665Y280135D01*
X665647Y280143D01*
X665480Y280161D01*
X652556Y280161D01*
X652536Y280158D01*
X652517Y280160D01*
X652415Y280138D01*
X652313Y280122D01*
X652296Y280112D01*
X652276Y280108D01*
X652187Y280055D01*
X652096Y280006D01*
X652082Y279992D01*
X652065Y279982D01*
X651998Y279903D01*
X651926Y279828D01*
X651918Y279810D01*
X651905Y279795D01*
X651866Y279699D01*
X651823Y279605D01*
X651821Y279585D01*
X651813Y279567D01*
X651795Y279400D01*
X651795Y273768D01*
X650902Y272875D01*
X638638Y272875D01*
X637745Y273768D01*
X637745Y279400D01*
X637742Y279420D01*
X637744Y279439D01*
X637722Y279541D01*
X637706Y279643D01*
X637696Y279660D01*
X637692Y279680D01*
X637639Y279769D01*
X637590Y279860D01*
X637576Y279874D01*
X637566Y279891D01*
X637487Y279958D01*
X637412Y280030D01*
X637394Y280038D01*
X637379Y280051D01*
X637283Y280090D01*
X637189Y280133D01*
X637169Y280135D01*
X637151Y280143D01*
X636984Y280161D01*
X635556Y280161D01*
X635536Y280158D01*
X635517Y280160D01*
X635415Y280138D01*
X635313Y280122D01*
X635296Y280112D01*
X635276Y280108D01*
X635187Y280055D01*
X635096Y280006D01*
X635082Y279992D01*
X635065Y279982D01*
X634998Y279903D01*
X634926Y279828D01*
X634918Y279810D01*
X634905Y279795D01*
X634866Y279699D01*
X634823Y279605D01*
X634821Y279585D01*
X634813Y279567D01*
X634795Y279400D01*
X634795Y273768D01*
X633902Y272875D01*
X625804Y272875D01*
X625714Y272861D01*
X625623Y272853D01*
X625593Y272841D01*
X625561Y272836D01*
X625481Y272793D01*
X625397Y272757D01*
X625365Y272731D01*
X625344Y272720D01*
X625322Y272697D01*
X625266Y272652D01*
X622104Y269490D01*
X620123Y267509D01*
X617508Y267509D01*
X617418Y267495D01*
X617327Y267487D01*
X617297Y267475D01*
X617266Y267470D01*
X617185Y267427D01*
X617101Y267391D01*
X617069Y267365D01*
X617048Y267354D01*
X617026Y267331D01*
X616970Y267286D01*
X614052Y264368D01*
X614040Y264352D01*
X614024Y264339D01*
X613968Y264252D01*
X613908Y264168D01*
X613902Y264149D01*
X613891Y264132D01*
X613866Y264032D01*
X613836Y263933D01*
X613836Y263913D01*
X613831Y263894D01*
X613839Y263791D01*
X613842Y263687D01*
X613849Y263668D01*
X613850Y263649D01*
X613891Y263554D01*
X613926Y263456D01*
X613939Y263441D01*
X613947Y263422D01*
X614052Y263291D01*
X614213Y263130D01*
X614213Y247642D01*
X613320Y246749D01*
X604945Y246749D01*
X604052Y247642D01*
X604052Y263130D01*
X604945Y264023D01*
X605371Y264023D01*
X605390Y264026D01*
X605410Y264024D01*
X605511Y264046D01*
X605613Y264062D01*
X605631Y264072D01*
X605650Y264076D01*
X605739Y264129D01*
X605831Y264178D01*
X605844Y264192D01*
X605862Y264202D01*
X605929Y264281D01*
X606000Y264356D01*
X606009Y264374D01*
X606021Y264389D01*
X606060Y264485D01*
X606104Y264579D01*
X606106Y264599D01*
X606113Y264617D01*
X606132Y264784D01*
X606132Y264936D01*
X609502Y268306D01*
X609544Y268364D01*
X609593Y268416D01*
X609615Y268463D01*
X609646Y268505D01*
X609667Y268574D01*
X609697Y268639D01*
X609703Y268691D01*
X609718Y268741D01*
X609716Y268812D01*
X609724Y268883D01*
X609713Y268934D01*
X609712Y268986D01*
X609687Y269054D01*
X609672Y269124D01*
X609645Y269169D01*
X609627Y269217D01*
X609582Y269273D01*
X609546Y269335D01*
X609506Y269369D01*
X609473Y269409D01*
X609413Y269448D01*
X609359Y269495D01*
X609310Y269514D01*
X609267Y269542D01*
X609197Y269560D01*
X609131Y269587D01*
X609059Y269595D01*
X609028Y269603D01*
X609005Y269601D01*
X608964Y269605D01*
X598228Y269605D01*
X597335Y270498D01*
X597335Y279400D01*
X597332Y279420D01*
X597334Y279439D01*
X597312Y279541D01*
X597296Y279643D01*
X597286Y279660D01*
X597282Y279680D01*
X597229Y279769D01*
X597180Y279860D01*
X597166Y279874D01*
X597156Y279891D01*
X597077Y279958D01*
X597002Y280030D01*
X596984Y280038D01*
X596969Y280051D01*
X596873Y280090D01*
X596779Y280133D01*
X596759Y280135D01*
X596741Y280143D01*
X596574Y280161D01*
X592146Y280161D01*
X592126Y280158D01*
X592107Y280160D01*
X592005Y280138D01*
X591903Y280122D01*
X591886Y280112D01*
X591866Y280108D01*
X591777Y280055D01*
X591686Y280006D01*
X591672Y279992D01*
X591655Y279982D01*
X591588Y279903D01*
X591516Y279828D01*
X591508Y279810D01*
X591495Y279795D01*
X591456Y279699D01*
X591413Y279605D01*
X591411Y279585D01*
X591403Y279567D01*
X591385Y279400D01*
X591385Y270498D01*
X590492Y269605D01*
X578228Y269605D01*
X577335Y270498D01*
X577335Y274368D01*
X577332Y274388D01*
X577334Y274407D01*
X577312Y274509D01*
X577296Y274611D01*
X577286Y274628D01*
X577282Y274648D01*
X577229Y274737D01*
X577180Y274828D01*
X577166Y274842D01*
X577156Y274859D01*
X577077Y274926D01*
X577002Y274998D01*
X576984Y275006D01*
X576969Y275019D01*
X576873Y275058D01*
X576779Y275101D01*
X576759Y275103D01*
X576741Y275111D01*
X576574Y275129D01*
X575966Y275129D01*
X575876Y275115D01*
X575785Y275107D01*
X575755Y275095D01*
X575723Y275090D01*
X575642Y275047D01*
X575559Y275011D01*
X575526Y274985D01*
X575506Y274974D01*
X575484Y274951D01*
X575428Y274906D01*
X573595Y273073D01*
X569405Y273073D01*
X566443Y276035D01*
X566443Y279400D01*
X566440Y279420D01*
X566442Y279439D01*
X566420Y279541D01*
X566404Y279643D01*
X566394Y279660D01*
X566390Y279680D01*
X566337Y279769D01*
X566288Y279860D01*
X566274Y279874D01*
X566264Y279891D01*
X566185Y279958D01*
X566110Y280030D01*
X566092Y280038D01*
X566077Y280051D01*
X565981Y280090D01*
X565887Y280133D01*
X565867Y280135D01*
X565849Y280143D01*
X565682Y280161D01*
X562078Y280161D01*
X562058Y280158D01*
X562039Y280160D01*
X561937Y280138D01*
X561835Y280122D01*
X561818Y280112D01*
X561798Y280108D01*
X561709Y280055D01*
X561618Y280006D01*
X561604Y279992D01*
X561587Y279982D01*
X561520Y279903D01*
X561448Y279828D01*
X561440Y279810D01*
X561427Y279795D01*
X561388Y279699D01*
X561345Y279605D01*
X561343Y279585D01*
X561335Y279567D01*
X561317Y279400D01*
X561317Y276035D01*
X558355Y273073D01*
X554165Y273073D01*
X552332Y274906D01*
X552258Y274959D01*
X552189Y275019D01*
X552159Y275031D01*
X552133Y275050D01*
X552046Y275077D01*
X551961Y275111D01*
X551920Y275115D01*
X551898Y275122D01*
X551865Y275121D01*
X551794Y275129D01*
X551186Y275129D01*
X551166Y275126D01*
X551147Y275128D01*
X551045Y275106D01*
X550943Y275090D01*
X550926Y275080D01*
X550906Y275076D01*
X550817Y275023D01*
X550726Y274974D01*
X550712Y274960D01*
X550695Y274950D01*
X550628Y274871D01*
X550556Y274796D01*
X550548Y274778D01*
X550535Y274763D01*
X550496Y274667D01*
X550453Y274573D01*
X550451Y274553D01*
X550443Y274535D01*
X550425Y274368D01*
X550425Y270498D01*
X549532Y269605D01*
X537268Y269605D01*
X536375Y270498D01*
X536375Y279400D01*
X536372Y279420D01*
X536374Y279439D01*
X536352Y279541D01*
X536336Y279643D01*
X536326Y279660D01*
X536322Y279680D01*
X536269Y279769D01*
X536220Y279860D01*
X536206Y279874D01*
X536196Y279891D01*
X536117Y279958D01*
X536042Y280030D01*
X536024Y280038D01*
X536009Y280051D01*
X535913Y280090D01*
X535819Y280133D01*
X535799Y280135D01*
X535781Y280143D01*
X535614Y280161D01*
X531186Y280161D01*
X531166Y280158D01*
X531147Y280160D01*
X531045Y280138D01*
X530943Y280122D01*
X530926Y280112D01*
X530906Y280108D01*
X530817Y280055D01*
X530726Y280006D01*
X530712Y279992D01*
X530695Y279982D01*
X530628Y279903D01*
X530556Y279828D01*
X530548Y279810D01*
X530535Y279795D01*
X530496Y279699D01*
X530453Y279605D01*
X530451Y279585D01*
X530443Y279567D01*
X530425Y279400D01*
X530425Y270498D01*
X529532Y269605D01*
X517268Y269605D01*
X516375Y270498D01*
X516375Y273706D01*
X516364Y273777D01*
X516362Y273849D01*
X516344Y273898D01*
X516336Y273949D01*
X516302Y274012D01*
X516277Y274080D01*
X516245Y274120D01*
X516220Y274166D01*
X516168Y274216D01*
X516124Y274272D01*
X516080Y274300D01*
X516042Y274336D01*
X515977Y274366D01*
X515917Y274405D01*
X515866Y274417D01*
X515819Y274439D01*
X515748Y274447D01*
X515678Y274465D01*
X515626Y274461D01*
X515575Y274466D01*
X515504Y274451D01*
X515433Y274446D01*
X515385Y274425D01*
X515334Y274414D01*
X515273Y274377D01*
X515207Y274349D01*
X515151Y274304D01*
X515123Y274288D01*
X515108Y274270D01*
X515076Y274244D01*
X513905Y273073D01*
X509715Y273073D01*
X506753Y276035D01*
X506753Y279400D01*
X506750Y279420D01*
X506752Y279439D01*
X506730Y279541D01*
X506714Y279643D01*
X506704Y279660D01*
X506700Y279680D01*
X506647Y279769D01*
X506598Y279860D01*
X506584Y279874D01*
X506574Y279891D01*
X506495Y279958D01*
X506420Y280030D01*
X506402Y280038D01*
X506387Y280051D01*
X506291Y280090D01*
X506197Y280133D01*
X506177Y280135D01*
X506159Y280143D01*
X505992Y280161D01*
X384816Y280161D01*
X384796Y280158D01*
X384777Y280160D01*
X384675Y280138D01*
X384573Y280122D01*
X384556Y280112D01*
X384536Y280108D01*
X384447Y280055D01*
X384356Y280006D01*
X384342Y279992D01*
X384325Y279982D01*
X384258Y279903D01*
X384186Y279828D01*
X384178Y279810D01*
X384165Y279795D01*
X384126Y279699D01*
X384083Y279605D01*
X384081Y279585D01*
X384073Y279567D01*
X384055Y279400D01*
X384055Y267958D01*
X383162Y267065D01*
X380792Y267065D01*
X380772Y267062D01*
X380753Y267064D01*
X380651Y267042D01*
X380549Y267026D01*
X380532Y267016D01*
X380512Y267012D01*
X380423Y266959D01*
X380332Y266910D01*
X380318Y266896D01*
X380301Y266886D01*
X380234Y266807D01*
X380162Y266732D01*
X380154Y266714D01*
X380141Y266699D01*
X380102Y266603D01*
X380059Y266509D01*
X380057Y266489D01*
X380049Y266471D01*
X380031Y266304D01*
X380031Y236668D01*
X380045Y236578D01*
X380053Y236487D01*
X380065Y236457D01*
X380070Y236426D01*
X380113Y236345D01*
X380149Y236261D01*
X380175Y236229D01*
X380186Y236208D01*
X380209Y236186D01*
X380254Y236130D01*
X381972Y234412D01*
X382046Y234359D01*
X382115Y234299D01*
X382146Y234287D01*
X382172Y234268D01*
X382259Y234241D01*
X382344Y234207D01*
X382384Y234203D01*
X382407Y234196D01*
X382439Y234197D01*
X382510Y234189D01*
X403099Y234189D01*
X403099Y213600D01*
X403100Y213592D01*
X403100Y213589D01*
X403103Y213576D01*
X403114Y213510D01*
X403121Y213419D01*
X403133Y213389D01*
X403139Y213357D01*
X403181Y213277D01*
X403217Y213193D01*
X403243Y213161D01*
X403254Y213140D01*
X403277Y213118D01*
X403322Y213062D01*
X437970Y178414D01*
X438044Y178361D01*
X438113Y178301D01*
X438144Y178289D01*
X438170Y178270D01*
X438257Y178243D01*
X438342Y178209D01*
X438382Y178205D01*
X438405Y178198D01*
X438437Y178199D01*
X438508Y178191D01*
X443913Y178191D01*
X443933Y178194D01*
X443953Y178192D01*
X444054Y178214D01*
X444156Y178230D01*
X444174Y178240D01*
X444193Y178244D01*
X444282Y178297D01*
X444373Y178346D01*
X444387Y178360D01*
X444404Y178370D01*
X444472Y178449D01*
X444543Y178524D01*
X444551Y178542D01*
X444564Y178557D01*
X444603Y178653D01*
X444646Y178747D01*
X444649Y178767D01*
X444656Y178785D01*
X444675Y178952D01*
X444675Y179378D01*
X445568Y180271D01*
X461055Y180271D01*
X461948Y179378D01*
X461948Y171002D01*
X461055Y170109D01*
X445568Y170109D01*
X444675Y171002D01*
X444675Y171428D01*
X444671Y171448D01*
X444673Y171467D01*
X444651Y171569D01*
X444635Y171671D01*
X444625Y171688D01*
X444621Y171708D01*
X444568Y171797D01*
X444520Y171888D01*
X444505Y171902D01*
X444495Y171919D01*
X444416Y171986D01*
X444341Y172058D01*
X444323Y172066D01*
X444308Y172079D01*
X444212Y172118D01*
X444118Y172161D01*
X444099Y172163D01*
X444080Y172171D01*
X443913Y172189D01*
X439682Y172189D01*
X439611Y172178D01*
X439540Y172176D01*
X439491Y172158D01*
X439439Y172150D01*
X439376Y172116D01*
X439309Y172091D01*
X439268Y172059D01*
X439222Y172034D01*
X439173Y171983D01*
X439117Y171938D01*
X439089Y171894D01*
X439053Y171856D01*
X439023Y171791D01*
X438984Y171731D01*
X438971Y171680D01*
X438949Y171633D01*
X438941Y171562D01*
X438924Y171492D01*
X438928Y171440D01*
X438922Y171389D01*
X438937Y171318D01*
X438943Y171247D01*
X438963Y171199D01*
X438974Y171148D01*
X439011Y171087D01*
X439039Y171021D01*
X439084Y170965D01*
X439100Y170937D01*
X439118Y170922D01*
X439144Y170890D01*
X443477Y166557D01*
X443493Y166545D01*
X443506Y166529D01*
X443593Y166473D01*
X443677Y166413D01*
X443696Y166407D01*
X443713Y166396D01*
X443813Y166371D01*
X443912Y166341D01*
X443932Y166341D01*
X443951Y166336D01*
X444054Y166344D01*
X444158Y166347D01*
X444177Y166354D01*
X444196Y166356D01*
X444291Y166396D01*
X444389Y166432D01*
X444404Y166444D01*
X444423Y166452D01*
X444554Y166557D01*
X445568Y167571D01*
X461055Y167571D01*
X461948Y166678D01*
X461948Y158302D01*
X461055Y157409D01*
X445568Y157409D01*
X444675Y158302D01*
X444675Y158728D01*
X444671Y158748D01*
X444673Y158767D01*
X444651Y158869D01*
X444635Y158971D01*
X444625Y158988D01*
X444621Y159008D01*
X444568Y159097D01*
X444520Y159188D01*
X444505Y159202D01*
X444495Y159219D01*
X444416Y159286D01*
X444341Y159358D01*
X444323Y159366D01*
X444308Y159379D01*
X444212Y159418D01*
X444118Y159461D01*
X444099Y159463D01*
X444080Y159471D01*
X443913Y159489D01*
X442057Y159489D01*
X404398Y197148D01*
X404340Y197190D01*
X404288Y197239D01*
X404241Y197261D01*
X404199Y197292D01*
X404130Y197313D01*
X404065Y197343D01*
X404013Y197349D01*
X403963Y197364D01*
X403892Y197362D01*
X403821Y197370D01*
X403770Y197359D01*
X403718Y197358D01*
X403650Y197333D01*
X403580Y197318D01*
X403536Y197291D01*
X403487Y197273D01*
X403431Y197228D01*
X403369Y197192D01*
X403335Y197152D01*
X403295Y197119D01*
X403256Y197059D01*
X403209Y197005D01*
X403190Y196956D01*
X403162Y196913D01*
X403144Y196843D01*
X403117Y196776D01*
X403109Y196705D01*
X403101Y196674D01*
X403103Y196651D01*
X403099Y196610D01*
X403099Y182371D01*
X370840Y182371D01*
X370820Y182368D01*
X370801Y182370D01*
X370699Y182348D01*
X370597Y182332D01*
X370580Y182322D01*
X370560Y182318D01*
X370471Y182265D01*
X370380Y182216D01*
X370366Y182202D01*
X370349Y182192D01*
X370282Y182113D01*
X370211Y182038D01*
X370202Y182020D01*
X370189Y182005D01*
X370150Y181909D01*
X370107Y181815D01*
X370105Y181795D01*
X370097Y181777D01*
X370079Y181610D01*
X370079Y160020D01*
X370094Y159930D01*
X370101Y159839D01*
X370113Y159809D01*
X370119Y159777D01*
X370138Y159741D01*
X370140Y159733D01*
X370161Y159696D01*
X370197Y159613D01*
X370223Y159581D01*
X370234Y159560D01*
X370255Y159540D01*
X370266Y159522D01*
X370279Y159510D01*
X370302Y159482D01*
X377922Y151862D01*
X377996Y151809D01*
X378065Y151749D01*
X378095Y151737D01*
X378121Y151718D01*
X378208Y151691D01*
X378293Y151657D01*
X378334Y151653D01*
X378357Y151646D01*
X378389Y151647D01*
X378460Y151639D01*
X403099Y151639D01*
X403099Y141884D01*
X403102Y141864D01*
X403100Y141845D01*
X403122Y141743D01*
X403139Y141641D01*
X403148Y141624D01*
X403152Y141604D01*
X403205Y141515D01*
X403254Y141424D01*
X403268Y141410D01*
X403278Y141393D01*
X403357Y141326D01*
X403432Y141254D01*
X403450Y141246D01*
X403465Y141233D01*
X403561Y141194D01*
X403655Y141151D01*
X403675Y141149D01*
X403693Y141141D01*
X403860Y141123D01*
X444204Y141123D01*
X444294Y141137D01*
X444385Y141145D01*
X444415Y141157D01*
X444447Y141162D01*
X444528Y141205D01*
X444612Y141241D01*
X444644Y141267D01*
X444664Y141278D01*
X444687Y141301D01*
X444743Y141346D01*
X445568Y142171D01*
X461055Y142171D01*
X461948Y141278D01*
X461948Y132902D01*
X461055Y132009D01*
X445568Y132009D01*
X444743Y132834D01*
X444669Y132887D01*
X444599Y132947D01*
X444569Y132959D01*
X444543Y132978D01*
X444456Y133005D01*
X444371Y133039D01*
X444330Y133043D01*
X444308Y133050D01*
X444276Y133049D01*
X444204Y133057D01*
X416274Y133057D01*
X416254Y133054D01*
X416235Y133056D01*
X416133Y133034D01*
X416031Y133018D01*
X416014Y133008D01*
X415994Y133004D01*
X415905Y132951D01*
X415814Y132902D01*
X415800Y132888D01*
X415783Y132878D01*
X415716Y132799D01*
X415644Y132724D01*
X415636Y132706D01*
X415623Y132691D01*
X415584Y132595D01*
X415541Y132501D01*
X415539Y132481D01*
X415531Y132463D01*
X415513Y132296D01*
X415513Y120426D01*
X415516Y120406D01*
X415514Y120387D01*
X415536Y120285D01*
X415552Y120183D01*
X415562Y120166D01*
X415566Y120146D01*
X415619Y120057D01*
X415668Y119966D01*
X415682Y119952D01*
X415692Y119935D01*
X415771Y119868D01*
X415846Y119796D01*
X415864Y119788D01*
X415879Y119775D01*
X415975Y119736D01*
X416069Y119693D01*
X416089Y119691D01*
X416107Y119683D01*
X416274Y119665D01*
X417112Y119665D01*
X418005Y118772D01*
X418005Y117824D01*
X418008Y117804D01*
X418006Y117785D01*
X418028Y117683D01*
X418044Y117581D01*
X418054Y117564D01*
X418058Y117544D01*
X418111Y117455D01*
X418160Y117364D01*
X418174Y117350D01*
X418184Y117333D01*
X418263Y117266D01*
X418338Y117194D01*
X418356Y117186D01*
X418371Y117173D01*
X418467Y117134D01*
X418561Y117091D01*
X418581Y117089D01*
X418599Y117081D01*
X418766Y117063D01*
X420746Y117063D01*
X420836Y117077D01*
X420927Y117085D01*
X420957Y117097D01*
X420989Y117102D01*
X421070Y117145D01*
X421153Y117181D01*
X421186Y117207D01*
X421206Y117218D01*
X421228Y117241D01*
X421284Y117286D01*
X422085Y118087D01*
X426275Y118087D01*
X429237Y115125D01*
X429237Y110935D01*
X426275Y107973D01*
X422085Y107973D01*
X421284Y108774D01*
X421210Y108827D01*
X421141Y108887D01*
X421111Y108899D01*
X421085Y108918D01*
X420998Y108945D01*
X420913Y108979D01*
X420872Y108983D01*
X420850Y108990D01*
X420817Y108989D01*
X420746Y108997D01*
X418766Y108997D01*
X418746Y108994D01*
X418727Y108996D01*
X418625Y108974D01*
X418523Y108958D01*
X418506Y108948D01*
X418486Y108944D01*
X418397Y108891D01*
X418306Y108842D01*
X418292Y108828D01*
X418275Y108818D01*
X418208Y108739D01*
X418136Y108664D01*
X418128Y108646D01*
X418115Y108631D01*
X418076Y108535D01*
X418033Y108441D01*
X418031Y108421D01*
X418023Y108403D01*
X418005Y108236D01*
X418005Y106508D01*
X417112Y105615D01*
X405848Y105615D01*
X404955Y106508D01*
X404955Y118772D01*
X405848Y119665D01*
X406686Y119665D01*
X406706Y119668D01*
X406725Y119666D01*
X406827Y119688D01*
X406929Y119704D01*
X406946Y119714D01*
X406966Y119718D01*
X407055Y119771D01*
X407146Y119820D01*
X407160Y119834D01*
X407177Y119844D01*
X407244Y119923D01*
X407316Y119998D01*
X407324Y120016D01*
X407337Y120031D01*
X407376Y120127D01*
X407419Y120221D01*
X407421Y120241D01*
X407429Y120259D01*
X407447Y120426D01*
X407447Y132296D01*
X407444Y132316D01*
X407446Y132335D01*
X407424Y132437D01*
X407408Y132539D01*
X407398Y132556D01*
X407394Y132576D01*
X407341Y132665D01*
X407292Y132756D01*
X407278Y132770D01*
X407268Y132787D01*
X407189Y132854D01*
X407114Y132926D01*
X407096Y132934D01*
X407081Y132947D01*
X406985Y132986D01*
X406891Y133029D01*
X406871Y133031D01*
X406853Y133039D01*
X406686Y133057D01*
X403860Y133057D01*
X403840Y133054D01*
X403821Y133056D01*
X403719Y133034D01*
X403617Y133018D01*
X403600Y133008D01*
X403580Y133004D01*
X403491Y132951D01*
X403400Y132902D01*
X403386Y132888D01*
X403369Y132878D01*
X403302Y132799D01*
X403231Y132724D01*
X403222Y132706D01*
X403209Y132691D01*
X403170Y132595D01*
X403127Y132501D01*
X403125Y132481D01*
X403117Y132463D01*
X403099Y132296D01*
X403099Y101091D01*
X373695Y101091D01*
X370108Y104678D01*
X370034Y104731D01*
X369965Y104791D01*
X369935Y104803D01*
X369909Y104822D01*
X369822Y104849D01*
X369737Y104883D01*
X369696Y104887D01*
X369673Y104894D01*
X369641Y104893D01*
X369570Y104901D01*
X334010Y104901D01*
X333990Y104898D01*
X333971Y104900D01*
X333869Y104878D01*
X333767Y104862D01*
X333750Y104852D01*
X333730Y104848D01*
X333641Y104795D01*
X333550Y104746D01*
X333536Y104732D01*
X333519Y104722D01*
X333452Y104643D01*
X333381Y104568D01*
X333372Y104550D01*
X333359Y104535D01*
X333320Y104439D01*
X333277Y104345D01*
X333275Y104325D01*
X333267Y104307D01*
X333249Y104140D01*
X333249Y71120D01*
X333252Y71100D01*
X333250Y71081D01*
X333272Y70979D01*
X333289Y70877D01*
X333298Y70860D01*
X333302Y70840D01*
X333355Y70751D01*
X333404Y70660D01*
X333418Y70646D01*
X333428Y70629D01*
X333507Y70562D01*
X333582Y70491D01*
X333600Y70482D01*
X333615Y70469D01*
X333630Y70463D01*
X333630Y65801D01*
X333641Y65751D01*
X333643Y65700D01*
X333661Y65668D01*
X333669Y65632D01*
X333702Y65593D01*
X333726Y65548D01*
X333756Y65527D01*
X333779Y65499D01*
X333826Y65478D01*
X333868Y65448D01*
X333910Y65440D01*
X333938Y65428D01*
X333968Y65429D01*
X334010Y65421D01*
X384593Y65421D01*
X388102Y61912D01*
X388166Y61872D01*
X388228Y61828D01*
X388240Y61826D01*
X388249Y61821D01*
X388286Y61817D01*
X388370Y61801D01*
X411846Y61801D01*
X411920Y61818D01*
X411995Y61831D01*
X412005Y61838D01*
X412015Y61840D01*
X412043Y61864D01*
X412115Y61912D01*
X413019Y62816D01*
X418353Y68151D01*
X447642Y68151D01*
X447732Y68165D01*
X447823Y68173D01*
X447853Y68185D01*
X447884Y68190D01*
X447965Y68233D01*
X448049Y68269D01*
X448081Y68295D01*
X448102Y68306D01*
X448124Y68329D01*
X448180Y68374D01*
X449406Y69600D01*
X449459Y69674D01*
X449519Y69743D01*
X449531Y69774D01*
X449550Y69800D01*
X449577Y69887D01*
X449611Y69972D01*
X449615Y70012D01*
X449622Y70035D01*
X449621Y70067D01*
X449629Y70138D01*
X449629Y95500D01*
X459665Y105536D01*
X459707Y105595D01*
X459756Y105647D01*
X459778Y105694D01*
X459809Y105736D01*
X459830Y105805D01*
X459860Y105870D01*
X459866Y105921D01*
X459881Y105971D01*
X459879Y106043D01*
X459887Y106114D01*
X459876Y106165D01*
X459875Y106217D01*
X459850Y106284D01*
X459835Y106354D01*
X459808Y106399D01*
X459790Y106448D01*
X459745Y106504D01*
X459709Y106566D01*
X459669Y106599D01*
X459637Y106640D01*
X459576Y106679D01*
X459522Y106725D01*
X459473Y106745D01*
X459430Y106773D01*
X459360Y106791D01*
X459294Y106817D01*
X459222Y106825D01*
X459191Y106833D01*
X459168Y106831D01*
X459127Y106836D01*
X445550Y106836D01*
X444657Y107729D01*
X444657Y116104D01*
X445550Y116997D01*
X461037Y116997D01*
X461930Y116104D01*
X461930Y109639D01*
X461942Y109568D01*
X461944Y109497D01*
X461962Y109448D01*
X461970Y109396D01*
X462003Y109333D01*
X462028Y109266D01*
X462061Y109225D01*
X462085Y109179D01*
X462137Y109130D01*
X462182Y109074D01*
X462226Y109046D01*
X462263Y109010D01*
X462328Y108979D01*
X462389Y108941D01*
X462439Y108928D01*
X462486Y108906D01*
X462558Y108898D01*
X462627Y108881D01*
X462679Y108885D01*
X462731Y108879D01*
X462801Y108894D01*
X462872Y108900D01*
X462920Y108920D01*
X462971Y108931D01*
X463033Y108968D01*
X463099Y108996D01*
X463155Y109041D01*
X463182Y109057D01*
X463198Y109075D01*
X463230Y109101D01*
X467669Y113540D01*
X469650Y115521D01*
X504662Y115521D01*
X504752Y115535D01*
X504843Y115543D01*
X504873Y115555D01*
X504904Y115560D01*
X504985Y115603D01*
X505069Y115639D01*
X505101Y115665D01*
X505122Y115676D01*
X505144Y115699D01*
X505200Y115744D01*
X517009Y127553D01*
X517062Y127627D01*
X517121Y127696D01*
X517134Y127726D01*
X517152Y127752D01*
X517179Y127839D01*
X517213Y127924D01*
X517218Y127965D01*
X517225Y127987D01*
X517224Y128020D01*
X517232Y128091D01*
X517232Y245988D01*
X517229Y246008D01*
X517231Y246027D01*
X517209Y246129D01*
X517192Y246231D01*
X517183Y246248D01*
X517179Y246268D01*
X517125Y246357D01*
X517077Y246448D01*
X517063Y246462D01*
X517052Y246479D01*
X516974Y246546D01*
X516899Y246617D01*
X516881Y246626D01*
X516866Y246639D01*
X516769Y246678D01*
X516676Y246721D01*
X516656Y246723D01*
X516637Y246731D01*
X516471Y246749D01*
X516045Y246749D01*
X515152Y247642D01*
X515152Y263130D01*
X516045Y264023D01*
X524420Y264023D01*
X525313Y263130D01*
X525313Y247642D01*
X524420Y246749D01*
X523995Y246749D01*
X523975Y246746D01*
X523955Y246748D01*
X523854Y246726D01*
X523752Y246709D01*
X523734Y246700D01*
X523715Y246696D01*
X523626Y246643D01*
X523534Y246594D01*
X523521Y246580D01*
X523504Y246570D01*
X523436Y246491D01*
X523365Y246416D01*
X523357Y246398D01*
X523344Y246383D01*
X523305Y246287D01*
X523261Y246193D01*
X523259Y246173D01*
X523252Y246155D01*
X523233Y245988D01*
X523233Y125290D01*
X510764Y112820D01*
X510722Y112762D01*
X510673Y112710D01*
X510651Y112663D01*
X510620Y112621D01*
X510599Y112552D01*
X510569Y112487D01*
X510563Y112435D01*
X510548Y112385D01*
X510550Y112314D01*
X510542Y112243D01*
X510553Y112192D01*
X510554Y112140D01*
X510579Y112072D01*
X510594Y112002D01*
X510621Y111957D01*
X510639Y111909D01*
X510684Y111853D01*
X510720Y111791D01*
X510760Y111757D01*
X510793Y111717D01*
X510853Y111678D01*
X510907Y111631D01*
X510956Y111612D01*
X510999Y111584D01*
X511069Y111566D01*
X511135Y111539D01*
X511207Y111531D01*
X511238Y111523D01*
X511261Y111525D01*
X511302Y111521D01*
X553541Y111521D01*
X553631Y111535D01*
X553722Y111543D01*
X553752Y111555D01*
X553784Y111560D01*
X553865Y111603D01*
X553948Y111639D01*
X553981Y111665D01*
X554001Y111676D01*
X554023Y111699D01*
X554079Y111744D01*
X581209Y138873D01*
X581262Y138947D01*
X581321Y139017D01*
X581334Y139047D01*
X581352Y139073D01*
X581379Y139160D01*
X581413Y139245D01*
X581418Y139286D01*
X581425Y139308D01*
X581424Y139340D01*
X581432Y139412D01*
X581432Y217919D01*
X581417Y218009D01*
X581410Y218100D01*
X581397Y218130D01*
X581392Y218162D01*
X581349Y218243D01*
X581314Y218326D01*
X581288Y218359D01*
X581277Y218379D01*
X581254Y218401D01*
X581209Y218457D01*
X555332Y244334D01*
X555332Y245988D01*
X555329Y246008D01*
X555331Y246027D01*
X555309Y246129D01*
X555292Y246231D01*
X555283Y246248D01*
X555279Y246268D01*
X555225Y246357D01*
X555177Y246448D01*
X555163Y246462D01*
X555152Y246479D01*
X555074Y246546D01*
X554999Y246617D01*
X554981Y246626D01*
X554966Y246639D01*
X554869Y246678D01*
X554776Y246721D01*
X554756Y246723D01*
X554737Y246731D01*
X554571Y246749D01*
X554145Y246749D01*
X553252Y247642D01*
X553252Y263130D01*
X554145Y264023D01*
X562520Y264023D01*
X563413Y263130D01*
X563413Y247642D01*
X562501Y246730D01*
X562489Y246713D01*
X562473Y246701D01*
X562417Y246614D01*
X562357Y246530D01*
X562351Y246511D01*
X562340Y246494D01*
X562315Y246394D01*
X562285Y246295D01*
X562285Y246275D01*
X562280Y246256D01*
X562288Y246153D01*
X562291Y246049D01*
X562298Y246030D01*
X562299Y246010D01*
X562340Y245916D01*
X562375Y245818D01*
X562388Y245802D01*
X562396Y245784D01*
X562501Y245653D01*
X566732Y241421D01*
X566791Y241379D01*
X566843Y241330D01*
X566890Y241308D01*
X566932Y241278D01*
X567001Y241257D01*
X567066Y241226D01*
X567117Y241221D01*
X567167Y241205D01*
X567239Y241207D01*
X567310Y241199D01*
X567361Y241210D01*
X567413Y241212D01*
X567480Y241236D01*
X567550Y241252D01*
X567595Y241278D01*
X567644Y241296D01*
X567700Y241341D01*
X567762Y241378D01*
X567795Y241417D01*
X567836Y241450D01*
X567875Y241510D01*
X567921Y241565D01*
X567941Y241613D01*
X567969Y241657D01*
X567987Y241726D01*
X568013Y241793D01*
X568021Y241864D01*
X568029Y241895D01*
X568027Y241919D01*
X568032Y241960D01*
X568032Y245988D01*
X568029Y246008D01*
X568031Y246027D01*
X568009Y246129D01*
X567992Y246231D01*
X567983Y246248D01*
X567979Y246268D01*
X567925Y246357D01*
X567877Y246448D01*
X567863Y246462D01*
X567852Y246479D01*
X567774Y246546D01*
X567699Y246617D01*
X567681Y246626D01*
X567666Y246639D01*
X567569Y246678D01*
X567476Y246721D01*
X567456Y246723D01*
X567437Y246731D01*
X567271Y246749D01*
X566845Y246749D01*
X565952Y247642D01*
X565952Y263130D01*
X566845Y264023D01*
X575220Y264023D01*
X576113Y263130D01*
X576113Y247642D01*
X575220Y246749D01*
X574795Y246749D01*
X574775Y246746D01*
X574755Y246748D01*
X574654Y246726D01*
X574552Y246709D01*
X574534Y246700D01*
X574515Y246696D01*
X574426Y246643D01*
X574334Y246594D01*
X574321Y246580D01*
X574304Y246570D01*
X574236Y246491D01*
X574165Y246416D01*
X574157Y246398D01*
X574144Y246383D01*
X574105Y246287D01*
X574061Y246193D01*
X574059Y246173D01*
X574052Y246155D01*
X574033Y245988D01*
X574033Y242749D01*
X574048Y242659D01*
X574055Y242568D01*
X574068Y242538D01*
X574073Y242506D01*
X574116Y242425D01*
X574152Y242341D01*
X574177Y242309D01*
X574188Y242289D01*
X574212Y242266D01*
X574256Y242210D01*
X579432Y237034D01*
X579491Y236993D01*
X579543Y236943D01*
X579590Y236921D01*
X579632Y236891D01*
X579701Y236870D01*
X579766Y236840D01*
X579817Y236834D01*
X579867Y236819D01*
X579939Y236820D01*
X580010Y236812D01*
X580061Y236824D01*
X580113Y236825D01*
X580180Y236850D01*
X580250Y236865D01*
X580295Y236891D01*
X580344Y236909D01*
X580400Y236954D01*
X580462Y236991D01*
X580495Y237030D01*
X580536Y237063D01*
X580575Y237123D01*
X580621Y237178D01*
X580641Y237226D01*
X580669Y237270D01*
X580687Y237339D01*
X580713Y237406D01*
X580721Y237477D01*
X580729Y237508D01*
X580727Y237532D01*
X580732Y237573D01*
X580732Y245988D01*
X580729Y246008D01*
X580731Y246027D01*
X580709Y246129D01*
X580692Y246231D01*
X580683Y246248D01*
X580679Y246268D01*
X580625Y246357D01*
X580577Y246448D01*
X580563Y246462D01*
X580552Y246479D01*
X580474Y246546D01*
X580399Y246617D01*
X580381Y246626D01*
X580366Y246639D01*
X580269Y246678D01*
X580176Y246721D01*
X580156Y246723D01*
X580137Y246731D01*
X579971Y246749D01*
X579545Y246749D01*
X578652Y247642D01*
X578652Y263130D01*
X579545Y264023D01*
X587920Y264023D01*
X588813Y263130D01*
X588813Y247642D01*
X587920Y246749D01*
X587495Y246749D01*
X587475Y246746D01*
X587455Y246748D01*
X587354Y246726D01*
X587252Y246709D01*
X587234Y246700D01*
X587215Y246696D01*
X587126Y246643D01*
X587034Y246594D01*
X587021Y246580D01*
X587004Y246570D01*
X586936Y246491D01*
X586865Y246416D01*
X586857Y246398D01*
X586844Y246383D01*
X586805Y246287D01*
X586761Y246193D01*
X586759Y246173D01*
X586752Y246155D01*
X586733Y245988D01*
X586733Y239516D01*
X586739Y239479D01*
X586739Y239472D01*
X586746Y239436D01*
X586748Y239426D01*
X586755Y239335D01*
X586768Y239305D01*
X586773Y239273D01*
X586788Y239245D01*
X586791Y239232D01*
X586819Y239184D01*
X586852Y239108D01*
X586877Y239076D01*
X586888Y239056D01*
X586906Y239038D01*
X586917Y239021D01*
X586932Y239008D01*
X586956Y238977D01*
X592132Y233801D01*
X592191Y233759D01*
X592243Y233710D01*
X592290Y233688D01*
X592332Y233658D01*
X592401Y233637D01*
X592466Y233606D01*
X592517Y233601D01*
X592567Y233585D01*
X592639Y233587D01*
X592710Y233579D01*
X592761Y233590D01*
X592813Y233592D01*
X592880Y233616D01*
X592950Y233632D01*
X592995Y233658D01*
X593044Y233676D01*
X593100Y233721D01*
X593162Y233758D01*
X593195Y233797D01*
X593236Y233830D01*
X593275Y233890D01*
X593321Y233945D01*
X593341Y233993D01*
X593369Y234037D01*
X593387Y234106D01*
X593413Y234173D01*
X593421Y234244D01*
X593429Y234275D01*
X593427Y234299D01*
X593432Y234340D01*
X593432Y245988D01*
X593429Y246008D01*
X593431Y246027D01*
X593409Y246129D01*
X593392Y246231D01*
X593383Y246248D01*
X593379Y246268D01*
X593325Y246357D01*
X593277Y246448D01*
X593263Y246462D01*
X593252Y246479D01*
X593174Y246546D01*
X593099Y246617D01*
X593081Y246626D01*
X593066Y246639D01*
X592969Y246678D01*
X592876Y246721D01*
X592856Y246723D01*
X592837Y246731D01*
X592671Y246749D01*
X592245Y246749D01*
X591352Y247642D01*
X591352Y263130D01*
X592245Y264023D01*
X600620Y264023D01*
X601513Y263130D01*
X601513Y247642D01*
X600620Y246749D01*
X600195Y246749D01*
X600175Y246746D01*
X600155Y246748D01*
X600054Y246726D01*
X599952Y246709D01*
X599934Y246700D01*
X599915Y246696D01*
X599826Y246643D01*
X599734Y246594D01*
X599721Y246580D01*
X599704Y246570D01*
X599636Y246491D01*
X599565Y246416D01*
X599557Y246398D01*
X599544Y246383D01*
X599505Y246287D01*
X599461Y246193D01*
X599459Y246173D01*
X599452Y246155D01*
X599433Y245988D01*
X599433Y131640D01*
X561313Y93519D01*
X480348Y93519D01*
X480258Y93505D01*
X480167Y93497D01*
X480137Y93485D01*
X480106Y93480D01*
X480025Y93437D01*
X479941Y93401D01*
X479909Y93375D01*
X479888Y93364D01*
X479866Y93341D01*
X479810Y93296D01*
X471854Y85340D01*
X471801Y85266D01*
X471741Y85197D01*
X471729Y85166D01*
X471710Y85140D01*
X471683Y85053D01*
X471649Y84968D01*
X471645Y84928D01*
X471638Y84905D01*
X471639Y84873D01*
X471631Y84802D01*
X471631Y61248D01*
X471645Y61158D01*
X471653Y61067D01*
X471665Y61037D01*
X471670Y61006D01*
X471713Y60925D01*
X471749Y60841D01*
X471775Y60809D01*
X471786Y60788D01*
X471809Y60766D01*
X471854Y60710D01*
X478540Y54024D01*
X478614Y53971D01*
X478683Y53911D01*
X478714Y53899D01*
X478740Y53880D01*
X478827Y53853D01*
X478912Y53819D01*
X478952Y53815D01*
X478975Y53808D01*
X479007Y53809D01*
X479078Y53801D01*
X488294Y53801D01*
X488384Y53815D01*
X488475Y53823D01*
X488505Y53835D01*
X488537Y53840D01*
X488618Y53883D01*
X488701Y53919D01*
X488734Y53945D01*
X488754Y53956D01*
X488776Y53979D01*
X488832Y54024D01*
X490665Y55857D01*
X494855Y55857D01*
X497817Y52895D01*
X497817Y48705D01*
X494855Y45743D01*
X490665Y45743D01*
X488832Y47576D01*
X488758Y47629D01*
X488689Y47689D01*
X488659Y47701D01*
X488633Y47720D01*
X488546Y47747D01*
X488461Y47781D01*
X488420Y47785D01*
X488398Y47792D01*
X488365Y47791D01*
X488294Y47799D01*
X476277Y47799D01*
X467610Y56466D01*
X467168Y56908D01*
X467152Y56920D01*
X467140Y56935D01*
X467053Y56991D01*
X466969Y57052D01*
X466950Y57057D01*
X466933Y57068D01*
X466832Y57094D01*
X466734Y57124D01*
X466714Y57123D01*
X466694Y57128D01*
X466591Y57120D01*
X466488Y57118D01*
X466469Y57111D01*
X466449Y57109D01*
X466354Y57069D01*
X466257Y57033D01*
X466241Y57021D01*
X466223Y57013D01*
X466092Y56908D01*
X456983Y47799D01*
X438806Y47799D01*
X438716Y47785D01*
X438625Y47777D01*
X438595Y47765D01*
X438563Y47760D01*
X438482Y47717D01*
X438399Y47681D01*
X438366Y47655D01*
X438346Y47644D01*
X438324Y47621D01*
X438268Y47576D01*
X436435Y45743D01*
X432245Y45743D01*
X429283Y48705D01*
X429283Y52911D01*
X429330Y52960D01*
X429352Y53007D01*
X429382Y53049D01*
X429403Y53118D01*
X429433Y53183D01*
X429439Y53235D01*
X429454Y53284D01*
X429452Y53356D01*
X429460Y53427D01*
X429449Y53478D01*
X429448Y53530D01*
X429423Y53598D01*
X429408Y53668D01*
X429381Y53713D01*
X429364Y53761D01*
X429319Y53817D01*
X429282Y53879D01*
X429242Y53913D01*
X429210Y53953D01*
X429149Y53992D01*
X429095Y54039D01*
X429047Y54058D01*
X429003Y54086D01*
X428933Y54104D01*
X428867Y54131D01*
X428796Y54139D01*
X428764Y54147D01*
X428741Y54145D01*
X428700Y54149D01*
X424468Y54149D01*
X424378Y54135D01*
X424287Y54127D01*
X424257Y54115D01*
X424226Y54110D01*
X424145Y54067D01*
X424061Y54031D01*
X424029Y54005D01*
X424008Y53994D01*
X423986Y53971D01*
X423930Y53926D01*
X417803Y47799D01*
X381498Y47799D01*
X381424Y47782D01*
X381349Y47769D01*
X381339Y47762D01*
X381329Y47760D01*
X381301Y47736D01*
X381229Y47688D01*
X379285Y45743D01*
X375095Y45743D01*
X372133Y48705D01*
X372133Y52895D01*
X374009Y54770D01*
X374022Y54792D01*
X374042Y54808D01*
X374068Y54865D01*
X374100Y54917D01*
X374103Y54943D01*
X374113Y54967D01*
X374111Y55028D01*
X374117Y55090D01*
X374108Y55114D01*
X374107Y55140D01*
X374077Y55194D01*
X374055Y55252D01*
X374036Y55269D01*
X374024Y55292D01*
X373973Y55327D01*
X373928Y55369D01*
X373903Y55377D01*
X373882Y55392D01*
X373798Y55408D01*
X373762Y55419D01*
X373752Y55417D01*
X373740Y55419D01*
X326520Y55419D01*
X326446Y55402D01*
X326372Y55389D01*
X326362Y55382D01*
X326352Y55380D01*
X326323Y55356D01*
X326252Y55308D01*
X322668Y51724D01*
X322628Y51660D01*
X322584Y51598D01*
X322582Y51586D01*
X322577Y51577D01*
X322573Y51540D01*
X322569Y51519D01*
X322564Y51507D01*
X322564Y51494D01*
X322557Y51456D01*
X322557Y48705D01*
X319595Y45743D01*
X315405Y45743D01*
X312443Y48705D01*
X312443Y50742D01*
X312437Y50767D01*
X312440Y50792D01*
X312418Y50850D01*
X312404Y50910D01*
X312387Y50930D01*
X312378Y50954D01*
X312333Y50996D01*
X312294Y51044D01*
X312270Y51055D01*
X312251Y51072D01*
X312192Y51090D01*
X312135Y51115D01*
X312110Y51114D01*
X312085Y51121D01*
X312024Y51111D01*
X311962Y51108D01*
X311940Y51096D01*
X311914Y51092D01*
X311843Y51043D01*
X311810Y51026D01*
X311804Y51017D01*
X311794Y51010D01*
X309853Y49069D01*
X264517Y49069D01*
X264467Y49058D01*
X264416Y49056D01*
X264384Y49038D01*
X264348Y49030D01*
X264309Y48997D01*
X264264Y48973D01*
X264243Y48943D01*
X264215Y48920D01*
X264194Y48873D01*
X264164Y48831D01*
X264156Y48789D01*
X264144Y48761D01*
X264145Y48731D01*
X264141Y48709D01*
X261175Y45743D01*
X256985Y45743D01*
X254023Y48705D01*
X254023Y52895D01*
X256985Y55857D01*
X261175Y55857D01*
X261849Y55182D01*
X261914Y55142D01*
X261976Y55098D01*
X261988Y55096D01*
X261996Y55091D01*
X262033Y55087D01*
X262118Y55071D01*
X307210Y55071D01*
X307284Y55088D01*
X307358Y55101D01*
X307368Y55108D01*
X307378Y55110D01*
X307407Y55134D01*
X307478Y55182D01*
X316797Y64501D01*
X316811Y64523D01*
X316831Y64539D01*
X316856Y64596D01*
X316889Y64648D01*
X316891Y64674D01*
X316902Y64698D01*
X316900Y64759D01*
X316905Y64821D01*
X316896Y64845D01*
X316895Y64871D01*
X316866Y64925D01*
X316844Y64983D01*
X316825Y65000D01*
X316813Y65023D01*
X316762Y65058D01*
X316717Y65100D01*
X316692Y65108D01*
X316671Y65123D01*
X316586Y65139D01*
X316551Y65150D01*
X316541Y65148D01*
X316529Y65150D01*
X96520Y65150D01*
X96470Y65139D01*
X96419Y65137D01*
X96387Y65119D01*
X96351Y65111D01*
X96312Y65078D01*
X96267Y65054D01*
X96246Y65024D01*
X96218Y65001D01*
X96197Y64954D01*
X96167Y64912D01*
X96159Y64870D01*
X96147Y64842D01*
X96148Y64818D01*
X96147Y64816D01*
X96147Y64808D01*
X96140Y64770D01*
X96140Y3143D01*
X96151Y3093D01*
X96153Y3042D01*
X96171Y3010D01*
X96179Y2974D01*
X96212Y2935D01*
X96236Y2890D01*
X96266Y2869D01*
X96289Y2841D01*
X96336Y2820D01*
X96378Y2790D01*
X96420Y2782D01*
X96448Y2770D01*
X96478Y2771D01*
X96520Y2763D01*
X524963Y2763D01*
X525034Y2774D01*
G37*
G36*
X115590Y262132D02*
X115590Y262132D01*
X115609Y262130D01*
X115711Y262152D01*
X115813Y262169D01*
X115830Y262178D01*
X115850Y262182D01*
X115939Y262235D01*
X116030Y262284D01*
X116044Y262298D01*
X116061Y262308D01*
X116128Y262387D01*
X116200Y262462D01*
X116208Y262480D01*
X116221Y262495D01*
X116260Y262591D01*
X116303Y262685D01*
X116305Y262705D01*
X116313Y262723D01*
X116331Y262890D01*
X116331Y287910D01*
X642919Y287910D01*
X642993Y287927D01*
X643067Y287940D01*
X643078Y287947D01*
X643087Y287949D01*
X643116Y287973D01*
X643187Y288021D01*
X646457Y291291D01*
X657305Y291291D01*
X657355Y291302D01*
X657406Y291304D01*
X657438Y291322D01*
X657474Y291330D01*
X657513Y291363D01*
X657558Y291387D01*
X657579Y291417D01*
X657607Y291440D01*
X657628Y291487D01*
X657658Y291529D01*
X657666Y291571D01*
X657678Y291599D01*
X657677Y291629D01*
X657685Y291671D01*
X657685Y292923D01*
X659457Y294695D01*
X668963Y294695D01*
X670735Y292923D01*
X670735Y288290D01*
X670746Y288240D01*
X670748Y288189D01*
X670766Y288157D01*
X670774Y288121D01*
X670807Y288082D01*
X670831Y288037D01*
X670861Y288016D01*
X670884Y287988D01*
X670931Y287967D01*
X670973Y287937D01*
X671015Y287929D01*
X671043Y287917D01*
X671073Y287918D01*
X671115Y287910D01*
X715010Y287910D01*
X715060Y287921D01*
X715111Y287923D01*
X715143Y287941D01*
X715179Y287949D01*
X715218Y287982D01*
X715263Y288006D01*
X715284Y288036D01*
X715312Y288059D01*
X715333Y288106D01*
X715363Y288148D01*
X715371Y288190D01*
X715383Y288218D01*
X715382Y288248D01*
X715390Y288290D01*
X715390Y367030D01*
X715379Y367080D01*
X715377Y367131D01*
X715359Y367163D01*
X715351Y367199D01*
X715318Y367238D01*
X715294Y367283D01*
X715264Y367304D01*
X715241Y367332D01*
X715194Y367353D01*
X715152Y367383D01*
X715110Y367391D01*
X715082Y367403D01*
X715052Y367402D01*
X715010Y367410D01*
X622300Y367410D01*
X622250Y367399D01*
X622199Y367397D01*
X622167Y367379D01*
X622131Y367371D01*
X622092Y367338D01*
X622047Y367314D01*
X622026Y367284D01*
X621998Y367261D01*
X621977Y367214D01*
X621947Y367172D01*
X621939Y367130D01*
X621927Y367102D01*
X621928Y367076D01*
X621927Y367074D01*
X621927Y367067D01*
X621920Y367030D01*
X621920Y351790D01*
X621931Y351740D01*
X621933Y351691D01*
X621945Y351669D01*
X621950Y351641D01*
X621957Y351631D01*
X621959Y351621D01*
X621983Y351592D01*
X622003Y351563D01*
X622016Y351539D01*
X622022Y351535D01*
X622031Y351521D01*
X637160Y336393D01*
X637160Y297560D01*
X583088Y297560D01*
X573150Y307498D01*
X573150Y367030D01*
X573139Y367080D01*
X573137Y367131D01*
X573119Y367163D01*
X573111Y367199D01*
X573078Y367238D01*
X573054Y367283D01*
X573024Y367304D01*
X573001Y367332D01*
X572954Y367353D01*
X572912Y367383D01*
X572870Y367391D01*
X572842Y367403D01*
X572812Y367402D01*
X572770Y367410D01*
X480060Y367410D01*
X480010Y367399D01*
X479959Y367397D01*
X479927Y367379D01*
X479891Y367371D01*
X479852Y367338D01*
X479807Y367314D01*
X479786Y367284D01*
X479758Y367261D01*
X479737Y367214D01*
X479707Y367172D01*
X479699Y367130D01*
X479687Y367102D01*
X479688Y367076D01*
X479687Y367074D01*
X479687Y367067D01*
X479680Y367030D01*
X479680Y353060D01*
X479697Y352986D01*
X479710Y352911D01*
X479717Y352901D01*
X479719Y352891D01*
X479743Y352862D01*
X479791Y352791D01*
X493650Y338933D01*
X493650Y297560D01*
X442118Y297560D01*
X433450Y306228D01*
X433450Y365760D01*
X433439Y365810D01*
X433437Y365861D01*
X433419Y365893D01*
X433411Y365929D01*
X433378Y365968D01*
X433354Y366013D01*
X433324Y366034D01*
X433301Y366062D01*
X433254Y366083D01*
X433212Y366113D01*
X433170Y366121D01*
X433142Y366133D01*
X433112Y366132D01*
X433070Y366140D01*
X339090Y366140D01*
X339040Y366129D01*
X338989Y366127D01*
X338957Y366109D01*
X338921Y366101D01*
X338882Y366068D01*
X338837Y366044D01*
X338816Y366014D01*
X338788Y365991D01*
X338767Y365944D01*
X338737Y365902D01*
X338729Y365860D01*
X338717Y365832D01*
X338718Y365802D01*
X338710Y365760D01*
X338710Y351790D01*
X338721Y351740D01*
X338723Y351691D01*
X338735Y351669D01*
X338740Y351641D01*
X338747Y351631D01*
X338749Y351621D01*
X338773Y351592D01*
X338793Y351563D01*
X338806Y351539D01*
X338812Y351535D01*
X338821Y351521D01*
X353950Y336393D01*
X353950Y297560D01*
X299878Y297560D01*
X292480Y304958D01*
X292480Y364490D01*
X292469Y364540D01*
X292467Y364591D01*
X292449Y364623D01*
X292441Y364659D01*
X292408Y364698D01*
X292384Y364743D01*
X292354Y364764D01*
X292331Y364792D01*
X292284Y364813D01*
X292242Y364843D01*
X292200Y364851D01*
X292172Y364863D01*
X292142Y364862D01*
X292100Y364870D01*
X200660Y364870D01*
X200610Y364859D01*
X200559Y364857D01*
X200527Y364839D01*
X200491Y364831D01*
X200452Y364798D01*
X200407Y364774D01*
X200386Y364744D01*
X200358Y364721D01*
X200337Y364674D01*
X200307Y364632D01*
X200299Y364590D01*
X200287Y364562D01*
X200288Y364532D01*
X200280Y364490D01*
X200280Y350520D01*
X200297Y350446D01*
X200310Y350371D01*
X200317Y350361D01*
X200319Y350351D01*
X200343Y350322D01*
X200391Y350251D01*
X214250Y336393D01*
X214250Y297560D01*
X162718Y297560D01*
X154050Y306228D01*
X154050Y364490D01*
X154039Y364540D01*
X154037Y364591D01*
X154019Y364623D01*
X154011Y364659D01*
X153978Y364698D01*
X153954Y364743D01*
X153924Y364764D01*
X153901Y364792D01*
X153854Y364813D01*
X153812Y364843D01*
X153770Y364851D01*
X153742Y364863D01*
X153712Y364862D01*
X153670Y364870D01*
X60960Y364870D01*
X60910Y364859D01*
X60859Y364857D01*
X60827Y364839D01*
X60791Y364831D01*
X60752Y364798D01*
X60707Y364774D01*
X60686Y364744D01*
X60658Y364721D01*
X60637Y364674D01*
X60607Y364632D01*
X60599Y364590D01*
X60587Y364562D01*
X60588Y364532D01*
X60580Y364490D01*
X60580Y349250D01*
X60597Y349176D01*
X60610Y349101D01*
X60617Y349091D01*
X60619Y349081D01*
X60643Y349052D01*
X60691Y348981D01*
X72010Y337663D01*
X72010Y288290D01*
X72021Y288240D01*
X72023Y288189D01*
X72041Y288157D01*
X72049Y288121D01*
X72082Y288082D01*
X72106Y288037D01*
X72136Y288016D01*
X72159Y287988D01*
X72206Y287967D01*
X72248Y287937D01*
X72290Y287929D01*
X72318Y287917D01*
X72348Y287918D01*
X72390Y287910D01*
X86869Y287910D01*
X86869Y262890D01*
X86872Y262870D01*
X86870Y262851D01*
X86892Y262749D01*
X86909Y262647D01*
X86918Y262630D01*
X86922Y262610D01*
X86975Y262521D01*
X87024Y262430D01*
X87038Y262416D01*
X87048Y262399D01*
X87127Y262332D01*
X87202Y262261D01*
X87220Y262252D01*
X87235Y262239D01*
X87331Y262200D01*
X87425Y262157D01*
X87445Y262155D01*
X87463Y262147D01*
X87630Y262129D01*
X115570Y262129D01*
X115590Y262132D01*
G37*
G36*
X189248Y361294D02*
X189248Y361294D01*
X189314Y361291D01*
X189359Y361306D01*
X189406Y361311D01*
X189465Y361340D01*
X189528Y361360D01*
X189572Y361393D01*
X189607Y361410D01*
X189634Y361439D01*
X189678Y361472D01*
X198286Y370079D01*
X319874Y370079D01*
X327212Y362742D01*
X327266Y362704D01*
X327313Y362659D01*
X327357Y362640D01*
X327396Y362613D01*
X327459Y362597D01*
X327520Y362571D01*
X327567Y362569D01*
X327613Y362558D01*
X327678Y362564D01*
X327744Y362561D01*
X327789Y362576D01*
X327836Y362581D01*
X327895Y362610D01*
X327958Y362630D01*
X328002Y362663D01*
X328037Y362680D01*
X328064Y362709D01*
X328108Y362742D01*
X335446Y370079D01*
X462114Y370079D01*
X468182Y364012D01*
X468236Y363974D01*
X468283Y363929D01*
X468327Y363910D01*
X468366Y363883D01*
X468429Y363867D01*
X468490Y363841D01*
X468537Y363839D01*
X468583Y363828D01*
X468648Y363834D01*
X468714Y363831D01*
X468759Y363846D01*
X468806Y363851D01*
X468865Y363880D01*
X468928Y363900D01*
X468972Y363933D01*
X469007Y363950D01*
X469034Y363979D01*
X469078Y364012D01*
X475146Y370079D01*
X505497Y370079D01*
X505587Y370094D01*
X505678Y370101D01*
X505708Y370113D01*
X505740Y370119D01*
X505821Y370161D01*
X505904Y370197D01*
X505937Y370223D01*
X505957Y370234D01*
X505958Y370235D01*
X522755Y370235D01*
X522808Y370189D01*
X522838Y370177D01*
X522864Y370158D01*
X522951Y370131D01*
X523036Y370097D01*
X523077Y370093D01*
X523099Y370086D01*
X523132Y370087D01*
X523203Y370079D01*
X604354Y370079D01*
X610422Y364012D01*
X610476Y363974D01*
X610523Y363929D01*
X610567Y363910D01*
X610606Y363883D01*
X610669Y363867D01*
X610730Y363841D01*
X610777Y363839D01*
X610823Y363828D01*
X610888Y363834D01*
X610954Y363831D01*
X610999Y363846D01*
X611046Y363851D01*
X611105Y363880D01*
X611168Y363900D01*
X611212Y363933D01*
X611247Y363950D01*
X611274Y363979D01*
X611318Y364012D01*
X617386Y370079D01*
X646467Y370079D01*
X646557Y370094D01*
X646648Y370101D01*
X646678Y370113D01*
X646710Y370119D01*
X646791Y370161D01*
X646874Y370197D01*
X646907Y370223D01*
X646927Y370234D01*
X646928Y370235D01*
X663725Y370235D01*
X663778Y370189D01*
X663808Y370177D01*
X663834Y370158D01*
X663921Y370131D01*
X664006Y370097D01*
X664047Y370093D01*
X664069Y370086D01*
X664102Y370087D01*
X664173Y370079D01*
X713740Y370079D01*
X713760Y370082D01*
X713779Y370080D01*
X713881Y370102D01*
X713983Y370119D01*
X714000Y370128D01*
X714020Y370132D01*
X714109Y370185D01*
X714200Y370234D01*
X714214Y370248D01*
X714231Y370258D01*
X714298Y370337D01*
X714370Y370412D01*
X714378Y370430D01*
X714391Y370445D01*
X714430Y370541D01*
X714473Y370635D01*
X714475Y370655D01*
X714483Y370673D01*
X714501Y370840D01*
X714501Y407670D01*
X714498Y407690D01*
X714500Y407709D01*
X714478Y407811D01*
X714462Y407913D01*
X714452Y407930D01*
X714448Y407950D01*
X714395Y408039D01*
X714346Y408130D01*
X714332Y408144D01*
X714322Y408161D01*
X714243Y408228D01*
X714168Y408300D01*
X714150Y408308D01*
X714135Y408321D01*
X714039Y408360D01*
X713945Y408403D01*
X713925Y408405D01*
X713907Y408413D01*
X713740Y408431D01*
X688340Y408431D01*
X688320Y408428D01*
X688301Y408430D01*
X688199Y408408D01*
X688097Y408392D01*
X688080Y408382D01*
X688060Y408378D01*
X687971Y408325D01*
X687880Y408276D01*
X687866Y408262D01*
X687849Y408252D01*
X687782Y408173D01*
X687711Y408098D01*
X687702Y408080D01*
X687689Y408065D01*
X687650Y407969D01*
X687607Y407875D01*
X687605Y407855D01*
X687597Y407837D01*
X687579Y407670D01*
X687579Y383031D01*
X621196Y383031D01*
X611318Y392908D01*
X611265Y392946D01*
X611217Y392991D01*
X611173Y393010D01*
X611134Y393037D01*
X611071Y393053D01*
X611010Y393079D01*
X610963Y393081D01*
X610917Y393093D01*
X610852Y393086D01*
X610786Y393089D01*
X610741Y393074D01*
X610694Y393069D01*
X610635Y393040D01*
X610572Y393020D01*
X610528Y392987D01*
X610493Y392970D01*
X610466Y392941D01*
X610422Y392908D01*
X600544Y383031D01*
X574801Y383031D01*
X574801Y407670D01*
X574798Y407690D01*
X574800Y407709D01*
X574778Y407811D01*
X574762Y407913D01*
X574752Y407930D01*
X574748Y407950D01*
X574695Y408039D01*
X574646Y408130D01*
X574632Y408144D01*
X574622Y408161D01*
X574543Y408228D01*
X574468Y408300D01*
X574450Y408308D01*
X574435Y408321D01*
X574339Y408360D01*
X574245Y408403D01*
X574225Y408405D01*
X574207Y408413D01*
X574040Y408431D01*
X546100Y408431D01*
X546080Y408428D01*
X546061Y408430D01*
X545959Y408408D01*
X545857Y408392D01*
X545840Y408382D01*
X545820Y408378D01*
X545731Y408325D01*
X545640Y408276D01*
X545626Y408262D01*
X545609Y408252D01*
X545542Y408173D01*
X545471Y408098D01*
X545462Y408080D01*
X545449Y408065D01*
X545410Y407969D01*
X545367Y407875D01*
X545365Y407855D01*
X545357Y407837D01*
X545339Y407670D01*
X545339Y383031D01*
X478956Y383031D01*
X469078Y392908D01*
X469025Y392946D01*
X468977Y392991D01*
X468933Y393010D01*
X468894Y393037D01*
X468831Y393053D01*
X468770Y393079D01*
X468723Y393081D01*
X468677Y393093D01*
X468612Y393086D01*
X468546Y393089D01*
X468501Y393074D01*
X468454Y393069D01*
X468395Y393040D01*
X468332Y393020D01*
X468288Y392987D01*
X468253Y392970D01*
X468226Y392941D01*
X468182Y392908D01*
X458304Y383031D01*
X433831Y383031D01*
X433831Y406400D01*
X433828Y406420D01*
X433830Y406439D01*
X433808Y406541D01*
X433792Y406643D01*
X433782Y406660D01*
X433778Y406680D01*
X433725Y406769D01*
X433676Y406860D01*
X433662Y406874D01*
X433652Y406891D01*
X433573Y406958D01*
X433498Y407030D01*
X433480Y407038D01*
X433465Y407051D01*
X433369Y407090D01*
X433275Y407133D01*
X433255Y407135D01*
X433237Y407143D01*
X433070Y407161D01*
X405130Y407161D01*
X405110Y407158D01*
X405091Y407160D01*
X404989Y407138D01*
X404887Y407122D01*
X404870Y407112D01*
X404850Y407108D01*
X404761Y407055D01*
X404670Y407006D01*
X404656Y406992D01*
X404639Y406982D01*
X404572Y406903D01*
X404501Y406828D01*
X404492Y406810D01*
X404479Y406795D01*
X404440Y406699D01*
X404397Y406605D01*
X404395Y406585D01*
X404387Y406567D01*
X404369Y406400D01*
X404369Y383031D01*
X336716Y383031D01*
X328108Y391638D01*
X328055Y391676D01*
X328007Y391721D01*
X327963Y391740D01*
X327924Y391767D01*
X327861Y391783D01*
X327800Y391809D01*
X327753Y391811D01*
X327707Y391823D01*
X327642Y391816D01*
X327576Y391819D01*
X327531Y391804D01*
X327484Y391799D01*
X327425Y391770D01*
X327362Y391750D01*
X327318Y391717D01*
X327283Y391700D01*
X327256Y391671D01*
X327212Y391638D01*
X318604Y383031D01*
X292861Y383031D01*
X292861Y406400D01*
X292858Y406420D01*
X292860Y406439D01*
X292838Y406541D01*
X292822Y406643D01*
X292812Y406660D01*
X292808Y406680D01*
X292755Y406769D01*
X292706Y406860D01*
X292692Y406874D01*
X292682Y406891D01*
X292603Y406958D01*
X292528Y407030D01*
X292510Y407038D01*
X292495Y407051D01*
X292399Y407090D01*
X292305Y407133D01*
X292285Y407135D01*
X292267Y407143D01*
X292100Y407161D01*
X264160Y407161D01*
X264140Y407158D01*
X264121Y407160D01*
X264019Y407138D01*
X263917Y407122D01*
X263900Y407112D01*
X263880Y407108D01*
X263791Y407055D01*
X263700Y407006D01*
X263686Y406992D01*
X263669Y406982D01*
X263602Y406903D01*
X263531Y406828D01*
X263522Y406810D01*
X263509Y406795D01*
X263470Y406699D01*
X263427Y406605D01*
X263425Y406585D01*
X263417Y406567D01*
X263399Y406400D01*
X263399Y383031D01*
X197016Y383031D01*
X189678Y390368D01*
X189625Y390406D01*
X189577Y390451D01*
X189533Y390470D01*
X189494Y390497D01*
X189431Y390513D01*
X189370Y390539D01*
X189323Y390541D01*
X189277Y390553D01*
X189212Y390546D01*
X189146Y390549D01*
X189101Y390534D01*
X189054Y390529D01*
X188995Y390500D01*
X188932Y390480D01*
X188888Y390447D01*
X188853Y390430D01*
X188826Y390401D01*
X188782Y390368D01*
X181444Y383031D01*
X154431Y383031D01*
X154431Y406400D01*
X154428Y406420D01*
X154430Y406439D01*
X154408Y406541D01*
X154392Y406643D01*
X154382Y406660D01*
X154378Y406680D01*
X154325Y406769D01*
X154276Y406860D01*
X154262Y406874D01*
X154252Y406891D01*
X154173Y406958D01*
X154098Y407030D01*
X154080Y407038D01*
X154065Y407051D01*
X153969Y407090D01*
X153875Y407133D01*
X153855Y407135D01*
X153837Y407143D01*
X153670Y407161D01*
X125730Y407161D01*
X125710Y407158D01*
X125691Y407160D01*
X125589Y407138D01*
X125487Y407122D01*
X125470Y407112D01*
X125450Y407108D01*
X125361Y407055D01*
X125270Y407006D01*
X125256Y406992D01*
X125239Y406982D01*
X125172Y406903D01*
X125101Y406828D01*
X125092Y406810D01*
X125079Y406795D01*
X125040Y406699D01*
X124997Y406605D01*
X124995Y406585D01*
X124987Y406567D01*
X124969Y406400D01*
X124969Y383031D01*
X57316Y383031D01*
X49978Y390368D01*
X49925Y390406D01*
X49877Y390451D01*
X49833Y390470D01*
X49794Y390497D01*
X49731Y390513D01*
X49670Y390539D01*
X49623Y390541D01*
X49577Y390553D01*
X49512Y390546D01*
X49446Y390549D01*
X49401Y390534D01*
X49354Y390529D01*
X49295Y390500D01*
X49232Y390480D01*
X49188Y390447D01*
X49153Y390430D01*
X49126Y390401D01*
X49082Y390368D01*
X41744Y383031D01*
X39370Y383031D01*
X39350Y383028D01*
X39331Y383030D01*
X39229Y383008D01*
X39127Y382992D01*
X39110Y382982D01*
X39090Y382978D01*
X39001Y382925D01*
X38910Y382876D01*
X38896Y382862D01*
X38879Y382852D01*
X38812Y382773D01*
X38741Y382698D01*
X38732Y382680D01*
X38719Y382665D01*
X38680Y382569D01*
X38637Y382475D01*
X38635Y382455D01*
X38627Y382437D01*
X38609Y382270D01*
X38609Y370840D01*
X38612Y370820D01*
X38610Y370801D01*
X38632Y370699D01*
X38649Y370597D01*
X38658Y370580D01*
X38662Y370560D01*
X38715Y370471D01*
X38764Y370380D01*
X38778Y370366D01*
X38788Y370349D01*
X38867Y370282D01*
X38942Y370211D01*
X38960Y370202D01*
X38975Y370189D01*
X39071Y370150D01*
X39165Y370107D01*
X39185Y370105D01*
X39203Y370097D01*
X39370Y370079D01*
X40474Y370079D01*
X49082Y361472D01*
X49136Y361434D01*
X49183Y361389D01*
X49227Y361370D01*
X49266Y361343D01*
X49329Y361327D01*
X49390Y361301D01*
X49437Y361299D01*
X49483Y361288D01*
X49548Y361294D01*
X49614Y361291D01*
X49659Y361306D01*
X49706Y361311D01*
X49765Y361340D01*
X49828Y361360D01*
X49872Y361393D01*
X49907Y361410D01*
X49934Y361439D01*
X49978Y361472D01*
X58586Y370079D01*
X180174Y370079D01*
X188782Y361472D01*
X188836Y361434D01*
X188883Y361389D01*
X188927Y361370D01*
X188966Y361343D01*
X189029Y361327D01*
X189090Y361301D01*
X189137Y361299D01*
X189183Y361288D01*
X189248Y361294D01*
G37*
G36*
X156230Y84332D02*
X156230Y84332D01*
X156249Y84330D01*
X156351Y84352D01*
X156453Y84369D01*
X156470Y84378D01*
X156490Y84382D01*
X156579Y84435D01*
X156670Y84484D01*
X156684Y84498D01*
X156701Y84508D01*
X156768Y84587D01*
X156840Y84662D01*
X156848Y84680D01*
X156861Y84695D01*
X156900Y84791D01*
X156943Y84885D01*
X156945Y84905D01*
X156953Y84923D01*
X156971Y85090D01*
X156971Y106680D01*
X156968Y106700D01*
X156970Y106719D01*
X156948Y106821D01*
X156932Y106923D01*
X156922Y106940D01*
X156918Y106960D01*
X156865Y107049D01*
X156816Y107140D01*
X156802Y107154D01*
X156792Y107171D01*
X156713Y107238D01*
X156638Y107310D01*
X156620Y107318D01*
X156605Y107331D01*
X156509Y107370D01*
X156415Y107413D01*
X156395Y107415D01*
X156377Y107423D01*
X156210Y107441D01*
X47751Y107441D01*
X47751Y221489D01*
X115570Y221489D01*
X115590Y221492D01*
X115609Y221490D01*
X115711Y221512D01*
X115813Y221529D01*
X115830Y221538D01*
X115850Y221542D01*
X115939Y221595D01*
X116030Y221644D01*
X116044Y221658D01*
X116061Y221668D01*
X116128Y221747D01*
X116200Y221822D01*
X116208Y221840D01*
X116221Y221855D01*
X116260Y221951D01*
X116303Y222045D01*
X116305Y222065D01*
X116313Y222083D01*
X116331Y222250D01*
X116331Y248920D01*
X116328Y248940D01*
X116330Y248959D01*
X116308Y249061D01*
X116292Y249163D01*
X116282Y249180D01*
X116278Y249200D01*
X116225Y249289D01*
X116176Y249380D01*
X116162Y249394D01*
X116152Y249411D01*
X116073Y249478D01*
X115998Y249550D01*
X115980Y249558D01*
X115965Y249571D01*
X115869Y249610D01*
X115775Y249653D01*
X115755Y249655D01*
X115737Y249663D01*
X115570Y249681D01*
X7620Y249681D01*
X7600Y249678D01*
X7581Y249680D01*
X7479Y249658D01*
X7377Y249642D01*
X7360Y249632D01*
X7340Y249628D01*
X7251Y249575D01*
X7160Y249526D01*
X7146Y249512D01*
X7129Y249502D01*
X7062Y249423D01*
X6991Y249348D01*
X6982Y249330D01*
X6969Y249315D01*
X6930Y249219D01*
X6887Y249125D01*
X6885Y249105D01*
X6877Y249087D01*
X6859Y248920D01*
X6859Y85090D01*
X6862Y85070D01*
X6860Y85051D01*
X6882Y84949D01*
X6899Y84847D01*
X6908Y84830D01*
X6912Y84810D01*
X6965Y84721D01*
X7014Y84630D01*
X7028Y84616D01*
X7038Y84599D01*
X7117Y84532D01*
X7192Y84461D01*
X7210Y84452D01*
X7225Y84439D01*
X7321Y84400D01*
X7415Y84357D01*
X7435Y84355D01*
X7453Y84347D01*
X7620Y84329D01*
X156210Y84329D01*
X156230Y84332D01*
G37*
G36*
X156230Y116082D02*
X156230Y116082D01*
X156249Y116080D01*
X156351Y116102D01*
X156453Y116119D01*
X156470Y116128D01*
X156490Y116132D01*
X156579Y116185D01*
X156670Y116234D01*
X156684Y116248D01*
X156701Y116258D01*
X156768Y116337D01*
X156840Y116412D01*
X156848Y116430D01*
X156861Y116445D01*
X156900Y116541D01*
X156943Y116635D01*
X156945Y116655D01*
X156953Y116673D01*
X156971Y116840D01*
X156971Y213360D01*
X156968Y213380D01*
X156970Y213399D01*
X156948Y213501D01*
X156932Y213603D01*
X156922Y213620D01*
X156918Y213640D01*
X156865Y213729D01*
X156816Y213820D01*
X156802Y213834D01*
X156792Y213851D01*
X156713Y213918D01*
X156638Y213990D01*
X156620Y213998D01*
X156605Y214011D01*
X156509Y214050D01*
X156415Y214093D01*
X156395Y214095D01*
X156377Y214103D01*
X156210Y214121D01*
X55880Y214121D01*
X55860Y214118D01*
X55841Y214120D01*
X55739Y214098D01*
X55637Y214082D01*
X55620Y214072D01*
X55600Y214068D01*
X55511Y214015D01*
X55420Y213966D01*
X55406Y213952D01*
X55389Y213942D01*
X55322Y213863D01*
X55251Y213788D01*
X55242Y213770D01*
X55229Y213755D01*
X55190Y213659D01*
X55147Y213565D01*
X55145Y213545D01*
X55137Y213527D01*
X55119Y213360D01*
X55119Y116840D01*
X55122Y116820D01*
X55120Y116801D01*
X55142Y116699D01*
X55159Y116597D01*
X55168Y116580D01*
X55172Y116560D01*
X55225Y116471D01*
X55274Y116380D01*
X55288Y116366D01*
X55298Y116349D01*
X55377Y116282D01*
X55452Y116211D01*
X55470Y116202D01*
X55485Y116189D01*
X55581Y116150D01*
X55675Y116107D01*
X55695Y116105D01*
X55713Y116097D01*
X55880Y116079D01*
X156210Y116079D01*
X156230Y116082D01*
G37*
G36*
X64844Y453027D02*
X64844Y453027D01*
X64919Y453040D01*
X64929Y453047D01*
X64939Y453049D01*
X64968Y453073D01*
X65039Y453121D01*
X165258Y553340D01*
X232410Y553340D01*
X232460Y553351D01*
X232511Y553353D01*
X232543Y553371D01*
X232579Y553379D01*
X232618Y553412D01*
X232663Y553436D01*
X232684Y553466D01*
X232712Y553489D01*
X232733Y553536D01*
X232763Y553578D01*
X232771Y553620D01*
X232783Y553648D01*
X232782Y553678D01*
X232790Y553720D01*
X232790Y579120D01*
X232779Y579170D01*
X232777Y579221D01*
X232759Y579253D01*
X232751Y579289D01*
X232718Y579328D01*
X232694Y579373D01*
X232664Y579394D01*
X232641Y579422D01*
X232594Y579443D01*
X232552Y579473D01*
X232510Y579481D01*
X232482Y579493D01*
X232452Y579492D01*
X232410Y579500D01*
X125730Y579500D01*
X125656Y579483D01*
X125581Y579470D01*
X125571Y579463D01*
X125561Y579461D01*
X125532Y579437D01*
X125461Y579389D01*
X31481Y485409D01*
X31441Y485344D01*
X31397Y485282D01*
X31395Y485270D01*
X31390Y485262D01*
X31386Y485225D01*
X31370Y485140D01*
X31370Y453390D01*
X31381Y453340D01*
X31383Y453289D01*
X31401Y453257D01*
X31409Y453221D01*
X31442Y453182D01*
X31466Y453137D01*
X31496Y453116D01*
X31519Y453088D01*
X31566Y453067D01*
X31608Y453037D01*
X31650Y453029D01*
X31678Y453017D01*
X31708Y453018D01*
X31750Y453010D01*
X64770Y453010D01*
X64844Y453027D01*
G37*
G36*
X323870Y75442D02*
X323870Y75442D01*
X323889Y75440D01*
X323991Y75462D01*
X324093Y75479D01*
X324110Y75488D01*
X324130Y75492D01*
X324219Y75545D01*
X324310Y75594D01*
X324324Y75608D01*
X324341Y75618D01*
X324408Y75697D01*
X324480Y75772D01*
X324488Y75790D01*
X324501Y75805D01*
X324540Y75901D01*
X324583Y75995D01*
X324585Y76015D01*
X324593Y76033D01*
X324611Y76200D01*
X324611Y112269D01*
X386080Y112269D01*
X386100Y112272D01*
X386119Y112270D01*
X386221Y112292D01*
X386323Y112309D01*
X386340Y112318D01*
X386360Y112322D01*
X386449Y112375D01*
X386540Y112424D01*
X386554Y112438D01*
X386571Y112448D01*
X386638Y112527D01*
X386710Y112602D01*
X386718Y112620D01*
X386731Y112635D01*
X386770Y112731D01*
X386813Y112825D01*
X386815Y112845D01*
X386823Y112863D01*
X386841Y113030D01*
X386841Y133350D01*
X386827Y133440D01*
X386819Y133531D01*
X386807Y133561D01*
X386802Y133593D01*
X386759Y133673D01*
X386723Y133757D01*
X386697Y133789D01*
X386686Y133810D01*
X386663Y133832D01*
X386618Y133888D01*
X365251Y155255D01*
X365251Y181610D01*
X365248Y181630D01*
X365250Y181649D01*
X365228Y181751D01*
X365212Y181853D01*
X365202Y181870D01*
X365198Y181890D01*
X365145Y181979D01*
X365096Y182070D01*
X365082Y182084D01*
X365072Y182101D01*
X364993Y182168D01*
X364918Y182240D01*
X364900Y182248D01*
X364885Y182261D01*
X364789Y182300D01*
X364695Y182343D01*
X364675Y182345D01*
X364657Y182353D01*
X364490Y182371D01*
X285750Y182371D01*
X285730Y182368D01*
X285711Y182370D01*
X285609Y182348D01*
X285507Y182332D01*
X285490Y182322D01*
X285470Y182318D01*
X285381Y182265D01*
X285290Y182216D01*
X285276Y182202D01*
X285259Y182192D01*
X285192Y182113D01*
X285121Y182038D01*
X285112Y182020D01*
X285099Y182005D01*
X285060Y181909D01*
X285017Y181815D01*
X285015Y181795D01*
X285007Y181777D01*
X284989Y181610D01*
X284989Y76200D01*
X284992Y76180D01*
X284990Y76161D01*
X285012Y76059D01*
X285029Y75957D01*
X285038Y75940D01*
X285042Y75920D01*
X285095Y75831D01*
X285144Y75740D01*
X285158Y75726D01*
X285168Y75709D01*
X285247Y75642D01*
X285322Y75571D01*
X285340Y75562D01*
X285355Y75549D01*
X285451Y75510D01*
X285545Y75467D01*
X285565Y75465D01*
X285583Y75457D01*
X285750Y75439D01*
X323850Y75439D01*
X323870Y75442D01*
G37*
G36*
X240050Y75442D02*
X240050Y75442D01*
X240069Y75440D01*
X240171Y75462D01*
X240273Y75479D01*
X240290Y75488D01*
X240310Y75492D01*
X240399Y75545D01*
X240490Y75594D01*
X240504Y75608D01*
X240521Y75618D01*
X240588Y75697D01*
X240660Y75772D01*
X240668Y75790D01*
X240681Y75805D01*
X240720Y75901D01*
X240763Y75995D01*
X240765Y76015D01*
X240773Y76033D01*
X240791Y76200D01*
X240791Y213360D01*
X240788Y213380D01*
X240790Y213399D01*
X240768Y213501D01*
X240752Y213603D01*
X240742Y213620D01*
X240738Y213640D01*
X240685Y213729D01*
X240636Y213820D01*
X240622Y213834D01*
X240612Y213851D01*
X240533Y213918D01*
X240458Y213990D01*
X240440Y213998D01*
X240425Y214011D01*
X240329Y214050D01*
X240235Y214093D01*
X240215Y214095D01*
X240197Y214103D01*
X240030Y214121D01*
X175260Y214121D01*
X175240Y214118D01*
X175221Y214120D01*
X175119Y214098D01*
X175017Y214082D01*
X175000Y214072D01*
X174980Y214068D01*
X174891Y214015D01*
X174800Y213966D01*
X174786Y213952D01*
X174769Y213942D01*
X174702Y213863D01*
X174631Y213788D01*
X174622Y213770D01*
X174609Y213755D01*
X174570Y213659D01*
X174527Y213565D01*
X174525Y213545D01*
X174517Y213527D01*
X174499Y213360D01*
X174499Y189230D01*
X174502Y189210D01*
X174500Y189191D01*
X174522Y189089D01*
X174539Y188987D01*
X174548Y188970D01*
X174552Y188950D01*
X174605Y188861D01*
X174654Y188770D01*
X174668Y188756D01*
X174678Y188739D01*
X174757Y188672D01*
X174832Y188601D01*
X174850Y188592D01*
X174865Y188579D01*
X174961Y188540D01*
X175055Y188497D01*
X175075Y188495D01*
X175093Y188487D01*
X175260Y188469D01*
X203709Y188469D01*
X203709Y125221D01*
X172720Y125221D01*
X172700Y125218D01*
X172681Y125220D01*
X172579Y125198D01*
X172477Y125182D01*
X172460Y125172D01*
X172440Y125168D01*
X172351Y125115D01*
X172260Y125066D01*
X172246Y125052D01*
X172229Y125042D01*
X172162Y124963D01*
X172091Y124888D01*
X172082Y124870D01*
X172069Y124855D01*
X172030Y124759D01*
X171987Y124665D01*
X171985Y124645D01*
X171977Y124627D01*
X171959Y124460D01*
X171959Y76200D01*
X171962Y76180D01*
X171960Y76161D01*
X171982Y76059D01*
X171999Y75957D01*
X172008Y75940D01*
X172012Y75920D01*
X172065Y75831D01*
X172114Y75740D01*
X172128Y75726D01*
X172138Y75709D01*
X172217Y75642D01*
X172292Y75571D01*
X172310Y75562D01*
X172325Y75549D01*
X172421Y75510D01*
X172515Y75467D01*
X172535Y75465D01*
X172553Y75457D01*
X172720Y75439D01*
X240030Y75439D01*
X240050Y75442D01*
G37*
G36*
X365590Y234200D02*
X365590Y234200D01*
X365662Y234202D01*
X365711Y234220D01*
X365763Y234229D01*
X365826Y234262D01*
X365893Y234287D01*
X365934Y234319D01*
X365980Y234344D01*
X366029Y234396D01*
X366085Y234440D01*
X366113Y234484D01*
X366149Y234522D01*
X366179Y234587D01*
X366218Y234647D01*
X366231Y234698D01*
X366253Y234745D01*
X366261Y234816D01*
X366278Y234886D01*
X366274Y234938D01*
X366280Y234989D01*
X366265Y235060D01*
X366259Y235131D01*
X366239Y235179D01*
X366228Y235230D01*
X366191Y235291D01*
X366163Y235357D01*
X366118Y235413D01*
X366102Y235441D01*
X366084Y235456D01*
X366058Y235488D01*
X330450Y271096D01*
X330376Y271149D01*
X330307Y271209D01*
X330276Y271221D01*
X330250Y271240D01*
X330163Y271267D01*
X330078Y271301D01*
X330038Y271305D01*
X330015Y271312D01*
X329983Y271311D01*
X329912Y271319D01*
X252736Y271319D01*
X252716Y271316D01*
X252697Y271318D01*
X252595Y271296D01*
X252493Y271280D01*
X252476Y271270D01*
X252456Y271266D01*
X252367Y271213D01*
X252276Y271164D01*
X252262Y271150D01*
X252245Y271140D01*
X252178Y271061D01*
X252106Y270986D01*
X252098Y270968D01*
X252085Y270953D01*
X252046Y270857D01*
X252003Y270763D01*
X252001Y270743D01*
X251993Y270725D01*
X251975Y270558D01*
X251975Y266688D01*
X251082Y265795D01*
X238818Y265795D01*
X237925Y266688D01*
X237925Y279400D01*
X237922Y279420D01*
X237924Y279439D01*
X237902Y279541D01*
X237886Y279643D01*
X237876Y279660D01*
X237872Y279680D01*
X237819Y279769D01*
X237770Y279860D01*
X237756Y279874D01*
X237746Y279891D01*
X237667Y279958D01*
X237592Y280030D01*
X237574Y280038D01*
X237559Y280051D01*
X237463Y280090D01*
X237369Y280133D01*
X237349Y280135D01*
X237331Y280143D01*
X237164Y280161D01*
X232736Y280161D01*
X232716Y280158D01*
X232697Y280160D01*
X232595Y280138D01*
X232493Y280122D01*
X232476Y280112D01*
X232456Y280108D01*
X232367Y280055D01*
X232276Y280006D01*
X232262Y279992D01*
X232245Y279982D01*
X232178Y279903D01*
X232106Y279828D01*
X232098Y279810D01*
X232085Y279795D01*
X232046Y279699D01*
X232003Y279605D01*
X232001Y279585D01*
X231993Y279567D01*
X231975Y279400D01*
X231975Y266688D01*
X231082Y265795D01*
X218818Y265795D01*
X217925Y266688D01*
X217925Y269896D01*
X217914Y269967D01*
X217912Y270039D01*
X217894Y270088D01*
X217886Y270139D01*
X217852Y270202D01*
X217827Y270270D01*
X217795Y270310D01*
X217770Y270356D01*
X217718Y270406D01*
X217674Y270462D01*
X217630Y270490D01*
X217592Y270526D01*
X217527Y270556D01*
X217467Y270595D01*
X217416Y270607D01*
X217369Y270629D01*
X217298Y270637D01*
X217228Y270655D01*
X217176Y270651D01*
X217125Y270656D01*
X217054Y270641D01*
X216983Y270636D01*
X216935Y270615D01*
X216884Y270604D01*
X216823Y270567D01*
X216757Y270539D01*
X216701Y270494D01*
X216673Y270478D01*
X216658Y270460D01*
X216626Y270434D01*
X215455Y269263D01*
X211265Y269263D01*
X208303Y272225D01*
X208303Y276415D01*
X210750Y278862D01*
X210792Y278920D01*
X210842Y278972D01*
X210864Y279019D01*
X210894Y279061D01*
X210915Y279130D01*
X210945Y279195D01*
X210951Y279247D01*
X210966Y279297D01*
X210964Y279368D01*
X210972Y279439D01*
X210961Y279490D01*
X210960Y279542D01*
X210935Y279610D01*
X210920Y279680D01*
X210893Y279724D01*
X210876Y279773D01*
X210831Y279829D01*
X210794Y279891D01*
X210754Y279925D01*
X210722Y279965D01*
X210662Y280004D01*
X210607Y280051D01*
X210559Y280070D01*
X210515Y280098D01*
X210445Y280116D01*
X210379Y280143D01*
X210308Y280151D01*
X210276Y280159D01*
X210253Y280157D01*
X210212Y280161D01*
X207016Y280161D01*
X206996Y280158D01*
X206977Y280160D01*
X206875Y280138D01*
X206773Y280122D01*
X206756Y280112D01*
X206736Y280108D01*
X206647Y280055D01*
X206556Y280006D01*
X206542Y279992D01*
X206525Y279982D01*
X206458Y279903D01*
X206386Y279828D01*
X206378Y279810D01*
X206365Y279795D01*
X206326Y279699D01*
X206283Y279605D01*
X206281Y279585D01*
X206273Y279567D01*
X206255Y279400D01*
X206255Y266688D01*
X205362Y265795D01*
X204422Y265795D01*
X204402Y265792D01*
X204383Y265794D01*
X204281Y265772D01*
X204179Y265756D01*
X204162Y265746D01*
X204142Y265742D01*
X204053Y265689D01*
X203962Y265640D01*
X203948Y265626D01*
X203931Y265616D01*
X203864Y265537D01*
X203792Y265462D01*
X203784Y265444D01*
X203771Y265429D01*
X203732Y265333D01*
X203689Y265239D01*
X203687Y265219D01*
X203679Y265201D01*
X203661Y265034D01*
X203661Y264816D01*
X203675Y264726D01*
X203683Y264635D01*
X203695Y264605D01*
X203700Y264573D01*
X203743Y264492D01*
X203779Y264409D01*
X203805Y264376D01*
X203816Y264356D01*
X203839Y264334D01*
X203884Y264278D01*
X205717Y262445D01*
X205717Y258255D01*
X202755Y255293D01*
X198565Y255293D01*
X195603Y258255D01*
X195603Y262445D01*
X197436Y264278D01*
X197489Y264352D01*
X197549Y264421D01*
X197561Y264451D01*
X197580Y264477D01*
X197607Y264564D01*
X197641Y264649D01*
X197645Y264690D01*
X197652Y264712D01*
X197651Y264744D01*
X197659Y264816D01*
X197659Y265034D01*
X197656Y265054D01*
X197658Y265073D01*
X197636Y265175D01*
X197620Y265277D01*
X197610Y265294D01*
X197606Y265314D01*
X197553Y265403D01*
X197504Y265494D01*
X197490Y265508D01*
X197480Y265525D01*
X197401Y265592D01*
X197326Y265664D01*
X197308Y265672D01*
X197293Y265685D01*
X197197Y265724D01*
X197103Y265767D01*
X197083Y265769D01*
X197065Y265777D01*
X196898Y265795D01*
X193098Y265795D01*
X192205Y266688D01*
X192205Y279400D01*
X192202Y279420D01*
X192204Y279439D01*
X192182Y279541D01*
X192166Y279643D01*
X192156Y279660D01*
X192152Y279680D01*
X192099Y279769D01*
X192050Y279860D01*
X192036Y279874D01*
X192026Y279891D01*
X191947Y279958D01*
X191872Y280030D01*
X191854Y280038D01*
X191839Y280051D01*
X191743Y280090D01*
X191649Y280133D01*
X191629Y280135D01*
X191611Y280143D01*
X191444Y280161D01*
X187016Y280161D01*
X186996Y280158D01*
X186977Y280160D01*
X186875Y280138D01*
X186773Y280122D01*
X186756Y280112D01*
X186736Y280108D01*
X186647Y280055D01*
X186556Y280006D01*
X186542Y279992D01*
X186525Y279982D01*
X186458Y279903D01*
X186386Y279828D01*
X186378Y279810D01*
X186365Y279795D01*
X186326Y279699D01*
X186283Y279605D01*
X186281Y279585D01*
X186273Y279567D01*
X186255Y279400D01*
X186255Y266688D01*
X185362Y265795D01*
X173098Y265795D01*
X172205Y266688D01*
X172205Y269896D01*
X172194Y269967D01*
X172192Y270039D01*
X172174Y270088D01*
X172166Y270139D01*
X172132Y270202D01*
X172107Y270270D01*
X172075Y270310D01*
X172050Y270356D01*
X171998Y270406D01*
X171954Y270462D01*
X171910Y270490D01*
X171872Y270526D01*
X171807Y270556D01*
X171747Y270595D01*
X171696Y270607D01*
X171649Y270629D01*
X171578Y270637D01*
X171508Y270655D01*
X171456Y270651D01*
X171405Y270656D01*
X171334Y270641D01*
X171263Y270636D01*
X171215Y270615D01*
X171164Y270604D01*
X171103Y270567D01*
X171037Y270539D01*
X170981Y270494D01*
X170953Y270478D01*
X170938Y270460D01*
X170906Y270434D01*
X169735Y269263D01*
X165545Y269263D01*
X162583Y272225D01*
X162583Y276415D01*
X165030Y278862D01*
X165072Y278920D01*
X165122Y278972D01*
X165144Y279019D01*
X165174Y279061D01*
X165195Y279130D01*
X165225Y279195D01*
X165231Y279247D01*
X165246Y279297D01*
X165244Y279368D01*
X165252Y279439D01*
X165241Y279490D01*
X165240Y279542D01*
X165215Y279610D01*
X165200Y279680D01*
X165173Y279724D01*
X165156Y279773D01*
X165111Y279829D01*
X165074Y279891D01*
X165034Y279925D01*
X165002Y279965D01*
X164942Y280004D01*
X164887Y280051D01*
X164839Y280070D01*
X164795Y280098D01*
X164725Y280116D01*
X164659Y280143D01*
X164588Y280151D01*
X164556Y280159D01*
X164533Y280157D01*
X164492Y280161D01*
X151130Y280161D01*
X151110Y280158D01*
X151091Y280160D01*
X150989Y280138D01*
X150887Y280122D01*
X150870Y280112D01*
X150850Y280108D01*
X150761Y280055D01*
X150670Y280006D01*
X150656Y279992D01*
X150639Y279982D01*
X150572Y279903D01*
X150501Y279828D01*
X150492Y279810D01*
X150479Y279795D01*
X150440Y279699D01*
X150397Y279605D01*
X150395Y279585D01*
X150387Y279567D01*
X150369Y279400D01*
X150369Y241300D01*
X150384Y241210D01*
X150391Y241119D01*
X150403Y241089D01*
X150409Y241057D01*
X150451Y240977D01*
X150487Y240893D01*
X150513Y240861D01*
X150524Y240840D01*
X150547Y240818D01*
X150592Y240762D01*
X156942Y234412D01*
X157016Y234359D01*
X157085Y234299D01*
X157115Y234287D01*
X157141Y234268D01*
X157228Y234241D01*
X157313Y234207D01*
X157354Y234203D01*
X157377Y234196D01*
X157409Y234197D01*
X157480Y234189D01*
X365520Y234189D01*
X365590Y234200D01*
G37*
G36*
X209624Y454297D02*
X209624Y454297D01*
X209699Y454310D01*
X209709Y454317D01*
X209719Y454319D01*
X209748Y454343D01*
X209819Y454391D01*
X292369Y536941D01*
X292409Y537006D01*
X292453Y537068D01*
X292455Y537080D01*
X292460Y537088D01*
X292464Y537125D01*
X292480Y537210D01*
X292480Y579120D01*
X292469Y579170D01*
X292467Y579221D01*
X292449Y579253D01*
X292441Y579289D01*
X292408Y579328D01*
X292384Y579373D01*
X292354Y579394D01*
X292331Y579422D01*
X292284Y579443D01*
X292242Y579473D01*
X292200Y579481D01*
X292172Y579493D01*
X292142Y579492D01*
X292100Y579500D01*
X270510Y579500D01*
X270460Y579489D01*
X270409Y579487D01*
X270377Y579469D01*
X270341Y579461D01*
X270302Y579428D01*
X270257Y579404D01*
X270236Y579374D01*
X270208Y579351D01*
X270187Y579304D01*
X270157Y579262D01*
X270149Y579220D01*
X270137Y579192D01*
X270138Y579162D01*
X270130Y579120D01*
X270130Y542670D01*
X228600Y542670D01*
X228526Y542653D01*
X228451Y542640D01*
X228441Y542633D01*
X228431Y542631D01*
X228402Y542607D01*
X228331Y542559D01*
X171181Y485409D01*
X171141Y485344D01*
X171097Y485282D01*
X171095Y485270D01*
X171090Y485262D01*
X171086Y485225D01*
X171070Y485140D01*
X171070Y454660D01*
X171081Y454610D01*
X171083Y454559D01*
X171101Y454527D01*
X171109Y454491D01*
X171142Y454452D01*
X171166Y454407D01*
X171196Y454386D01*
X171219Y454358D01*
X171266Y454337D01*
X171308Y454307D01*
X171350Y454299D01*
X171378Y454287D01*
X171408Y454288D01*
X171450Y454280D01*
X209550Y454280D01*
X209624Y454297D01*
G37*
G36*
X624890Y454291D02*
X624890Y454291D01*
X624941Y454293D01*
X624973Y454311D01*
X625009Y454319D01*
X625048Y454352D01*
X625093Y454376D01*
X625114Y454406D01*
X625142Y454429D01*
X625163Y454476D01*
X625193Y454518D01*
X625201Y454560D01*
X625213Y454588D01*
X625212Y454618D01*
X625220Y454660D01*
X625220Y502920D01*
X625203Y502994D01*
X625190Y503069D01*
X625183Y503079D01*
X625181Y503089D01*
X625157Y503118D01*
X625109Y503189D01*
X575579Y552719D01*
X575514Y552759D01*
X575452Y552803D01*
X575440Y552805D01*
X575432Y552810D01*
X575395Y552814D01*
X575310Y552830D01*
X485298Y552830D01*
X475360Y562768D01*
X475360Y579120D01*
X475349Y579170D01*
X475347Y579221D01*
X475329Y579253D01*
X475321Y579289D01*
X475288Y579328D01*
X475264Y579373D01*
X475234Y579394D01*
X475211Y579422D01*
X475164Y579443D01*
X475122Y579473D01*
X475080Y579481D01*
X475052Y579493D01*
X475022Y579492D01*
X474980Y579500D01*
X454660Y579500D01*
X454610Y579489D01*
X454559Y579487D01*
X454527Y579469D01*
X454491Y579461D01*
X454452Y579428D01*
X454407Y579404D01*
X454386Y579374D01*
X454358Y579351D01*
X454337Y579304D01*
X454307Y579262D01*
X454299Y579220D01*
X454287Y579192D01*
X454288Y579162D01*
X454280Y579120D01*
X454280Y534670D01*
X454291Y534620D01*
X454293Y534569D01*
X454311Y534537D01*
X454319Y534501D01*
X454352Y534462D01*
X454376Y534417D01*
X454406Y534396D01*
X454429Y534368D01*
X454476Y534347D01*
X454518Y534317D01*
X454560Y534309D01*
X454588Y534297D01*
X454618Y534298D01*
X454660Y534290D01*
X545943Y534290D01*
X586360Y493873D01*
X586360Y454660D01*
X586371Y454610D01*
X586373Y454559D01*
X586391Y454527D01*
X586399Y454491D01*
X586432Y454452D01*
X586456Y454407D01*
X586486Y454386D01*
X586509Y454358D01*
X586556Y454337D01*
X586598Y454307D01*
X586640Y454299D01*
X586668Y454287D01*
X586698Y454288D01*
X586740Y454280D01*
X624840Y454280D01*
X624890Y454291D01*
G37*
G36*
X351840Y454291D02*
X351840Y454291D01*
X351891Y454293D01*
X351923Y454311D01*
X351959Y454319D01*
X351998Y454352D01*
X352043Y454376D01*
X352064Y454406D01*
X352092Y454429D01*
X352113Y454476D01*
X352143Y454518D01*
X352151Y454560D01*
X352163Y454588D01*
X352162Y454618D01*
X352170Y454660D01*
X352170Y579120D01*
X352159Y579170D01*
X352157Y579221D01*
X352139Y579253D01*
X352131Y579289D01*
X352098Y579328D01*
X352074Y579373D01*
X352044Y579394D01*
X352021Y579422D01*
X351974Y579443D01*
X351932Y579473D01*
X351890Y579481D01*
X351862Y579493D01*
X351832Y579492D01*
X351790Y579500D01*
X328930Y579500D01*
X328880Y579489D01*
X328829Y579487D01*
X328797Y579469D01*
X328761Y579461D01*
X328722Y579428D01*
X328677Y579404D01*
X328656Y579374D01*
X328628Y579351D01*
X328607Y579304D01*
X328577Y579262D01*
X328569Y579220D01*
X328557Y579192D01*
X328558Y579162D01*
X328550Y579120D01*
X328550Y557688D01*
X312151Y541289D01*
X312111Y541224D01*
X312067Y541162D01*
X312065Y541150D01*
X312060Y541142D01*
X312056Y541105D01*
X312040Y541020D01*
X312040Y454660D01*
X312051Y454610D01*
X312053Y454559D01*
X312071Y454527D01*
X312079Y454491D01*
X312112Y454452D01*
X312136Y454407D01*
X312166Y454386D01*
X312189Y454358D01*
X312236Y454337D01*
X312278Y454307D01*
X312320Y454299D01*
X312348Y454287D01*
X312378Y454288D01*
X312420Y454280D01*
X351790Y454280D01*
X351840Y454291D01*
G37*
G36*
X486460Y454291D02*
X486460Y454291D01*
X486511Y454293D01*
X486543Y454311D01*
X486579Y454319D01*
X486618Y454352D01*
X486663Y454376D01*
X486684Y454406D01*
X486712Y454429D01*
X486733Y454476D01*
X486763Y454518D01*
X486771Y454560D01*
X486783Y454588D01*
X486782Y454618D01*
X486790Y454660D01*
X486790Y483870D01*
X486773Y483944D01*
X486760Y484019D01*
X486753Y484029D01*
X486751Y484039D01*
X486727Y484068D01*
X486679Y484139D01*
X415670Y555148D01*
X415670Y579120D01*
X415659Y579170D01*
X415657Y579221D01*
X415639Y579253D01*
X415631Y579289D01*
X415598Y579328D01*
X415574Y579373D01*
X415544Y579394D01*
X415521Y579422D01*
X415474Y579443D01*
X415432Y579473D01*
X415390Y579481D01*
X415362Y579493D01*
X415332Y579492D01*
X415290Y579500D01*
X392430Y579500D01*
X392380Y579489D01*
X392329Y579487D01*
X392297Y579469D01*
X392261Y579461D01*
X392222Y579428D01*
X392177Y579404D01*
X392156Y579374D01*
X392128Y579351D01*
X392107Y579304D01*
X392077Y579262D01*
X392069Y579220D01*
X392057Y579192D01*
X392058Y579162D01*
X392050Y579120D01*
X392050Y537210D01*
X392067Y537136D01*
X392080Y537061D01*
X392087Y537051D01*
X392089Y537041D01*
X392113Y537012D01*
X392161Y536941D01*
X451740Y477363D01*
X451740Y454660D01*
X451751Y454610D01*
X451753Y454559D01*
X451771Y454527D01*
X451779Y454491D01*
X451812Y454452D01*
X451836Y454407D01*
X451866Y454386D01*
X451889Y454358D01*
X451936Y454337D01*
X451978Y454307D01*
X452020Y454299D01*
X452048Y454287D01*
X452078Y454288D01*
X452120Y454280D01*
X486410Y454280D01*
X486460Y454291D01*
G37*
G36*
X240080Y385711D02*
X240080Y385711D01*
X240131Y385713D01*
X240163Y385731D01*
X240199Y385739D01*
X240238Y385772D01*
X240283Y385796D01*
X240304Y385826D01*
X240332Y385849D01*
X240353Y385896D01*
X240383Y385938D01*
X240391Y385980D01*
X240403Y386008D01*
X240402Y386038D01*
X240410Y386080D01*
X240410Y408783D01*
X286019Y454391D01*
X286059Y454456D01*
X286103Y454518D01*
X286105Y454530D01*
X286110Y454538D01*
X286114Y454575D01*
X286130Y454660D01*
X286130Y485140D01*
X286119Y485190D01*
X286117Y485241D01*
X286099Y485273D01*
X286091Y485309D01*
X286058Y485348D01*
X286034Y485393D01*
X286004Y485414D01*
X285981Y485442D01*
X285934Y485463D01*
X285892Y485493D01*
X285850Y485501D01*
X285822Y485513D01*
X285792Y485512D01*
X285750Y485520D01*
X264160Y485520D01*
X264086Y485503D01*
X264011Y485490D01*
X264001Y485483D01*
X263991Y485481D01*
X263962Y485457D01*
X263891Y485409D01*
X200391Y421909D01*
X200351Y421844D01*
X200307Y421782D01*
X200305Y421770D01*
X200300Y421762D01*
X200296Y421725D01*
X200280Y421640D01*
X200280Y386080D01*
X200291Y386030D01*
X200293Y385979D01*
X200311Y385947D01*
X200319Y385911D01*
X200352Y385872D01*
X200376Y385827D01*
X200406Y385806D01*
X200429Y385778D01*
X200476Y385757D01*
X200518Y385727D01*
X200560Y385719D01*
X200588Y385707D01*
X200618Y385708D01*
X200660Y385700D01*
X240030Y385700D01*
X240080Y385711D01*
G37*
G36*
X381050Y386981D02*
X381050Y386981D01*
X381101Y386983D01*
X381133Y387001D01*
X381169Y387009D01*
X381208Y387042D01*
X381253Y387066D01*
X381274Y387096D01*
X381302Y387119D01*
X381323Y387166D01*
X381353Y387208D01*
X381361Y387250D01*
X381373Y387278D01*
X381372Y387308D01*
X381380Y387350D01*
X381380Y410053D01*
X426989Y455661D01*
X427029Y455726D01*
X427073Y455788D01*
X427075Y455800D01*
X427080Y455808D01*
X427084Y455845D01*
X427100Y455930D01*
X427100Y485140D01*
X427089Y485190D01*
X427087Y485241D01*
X427069Y485273D01*
X427061Y485309D01*
X427028Y485348D01*
X427004Y485393D01*
X426974Y485414D01*
X426951Y485442D01*
X426904Y485463D01*
X426862Y485493D01*
X426820Y485501D01*
X426792Y485513D01*
X426762Y485512D01*
X426720Y485520D01*
X405130Y485520D01*
X405056Y485503D01*
X404981Y485490D01*
X404971Y485483D01*
X404961Y485481D01*
X404932Y485457D01*
X404861Y485409D01*
X338821Y419369D01*
X338781Y419304D01*
X338737Y419242D01*
X338735Y419230D01*
X338730Y419222D01*
X338726Y419185D01*
X338710Y419100D01*
X338710Y387350D01*
X338721Y387300D01*
X338723Y387249D01*
X338741Y387217D01*
X338749Y387181D01*
X338782Y387142D01*
X338806Y387097D01*
X338836Y387076D01*
X338859Y387048D01*
X338906Y387027D01*
X338948Y386997D01*
X338990Y386989D01*
X339018Y386977D01*
X339048Y386978D01*
X339090Y386970D01*
X381000Y386970D01*
X381050Y386981D01*
G37*
G36*
X100380Y385711D02*
X100380Y385711D01*
X100431Y385713D01*
X100463Y385731D01*
X100499Y385739D01*
X100538Y385772D01*
X100583Y385796D01*
X100604Y385826D01*
X100632Y385849D01*
X100653Y385896D01*
X100683Y385938D01*
X100691Y385980D01*
X100703Y386008D01*
X100702Y386038D01*
X100710Y386080D01*
X100710Y408783D01*
X146319Y454391D01*
X146359Y454456D01*
X146403Y454518D01*
X146405Y454530D01*
X146410Y454538D01*
X146414Y454575D01*
X146430Y454660D01*
X146430Y485140D01*
X146419Y485190D01*
X146417Y485241D01*
X146399Y485273D01*
X146391Y485309D01*
X146358Y485348D01*
X146334Y485393D01*
X146304Y485414D01*
X146281Y485442D01*
X146234Y485463D01*
X146192Y485493D01*
X146150Y485501D01*
X146122Y485513D01*
X146092Y485512D01*
X146050Y485520D01*
X125730Y485520D01*
X125656Y485503D01*
X125581Y485490D01*
X125571Y485483D01*
X125561Y485481D01*
X125532Y485457D01*
X125461Y485409D01*
X60691Y420639D01*
X60651Y420574D01*
X60607Y420512D01*
X60605Y420500D01*
X60600Y420492D01*
X60596Y420455D01*
X60580Y420370D01*
X60580Y386080D01*
X60591Y386030D01*
X60593Y385979D01*
X60611Y385947D01*
X60619Y385911D01*
X60652Y385872D01*
X60676Y385827D01*
X60706Y385806D01*
X60729Y385778D01*
X60776Y385757D01*
X60818Y385727D01*
X60860Y385719D01*
X60888Y385707D01*
X60918Y385708D01*
X60960Y385700D01*
X100330Y385700D01*
X100380Y385711D01*
G37*
G36*
X522020Y388251D02*
X522020Y388251D01*
X522071Y388253D01*
X522103Y388271D01*
X522139Y388279D01*
X522178Y388312D01*
X522223Y388336D01*
X522244Y388366D01*
X522272Y388389D01*
X522293Y388436D01*
X522323Y388478D01*
X522331Y388520D01*
X522343Y388548D01*
X522342Y388578D01*
X522350Y388620D01*
X522350Y411323D01*
X566689Y455661D01*
X566701Y455681D01*
X566717Y455694D01*
X566735Y455734D01*
X566773Y455788D01*
X566775Y455800D01*
X566780Y455808D01*
X566784Y455843D01*
X566788Y455852D01*
X566787Y455862D01*
X566800Y455930D01*
X566800Y485140D01*
X566789Y485190D01*
X566787Y485241D01*
X566769Y485273D01*
X566761Y485309D01*
X566728Y485348D01*
X566704Y485393D01*
X566674Y485414D01*
X566651Y485442D01*
X566604Y485463D01*
X566562Y485493D01*
X566520Y485501D01*
X566492Y485513D01*
X566462Y485512D01*
X566420Y485520D01*
X544830Y485520D01*
X544756Y485503D01*
X544681Y485490D01*
X544671Y485483D01*
X544661Y485481D01*
X544632Y485457D01*
X544561Y485409D01*
X479791Y420639D01*
X479751Y420574D01*
X479707Y420512D01*
X479705Y420500D01*
X479700Y420492D01*
X479696Y420455D01*
X479680Y420370D01*
X479680Y388620D01*
X479691Y388570D01*
X479693Y388519D01*
X479711Y388487D01*
X479719Y388451D01*
X479752Y388412D01*
X479776Y388367D01*
X479806Y388346D01*
X479829Y388318D01*
X479876Y388297D01*
X479918Y388267D01*
X479960Y388259D01*
X479988Y388247D01*
X480018Y388248D01*
X480060Y388240D01*
X521970Y388240D01*
X522020Y388251D01*
G37*
G36*
X662990Y388251D02*
X662990Y388251D01*
X663041Y388253D01*
X663073Y388271D01*
X663109Y388279D01*
X663148Y388312D01*
X663193Y388336D01*
X663214Y388366D01*
X663242Y388389D01*
X663263Y388436D01*
X663293Y388478D01*
X663301Y388520D01*
X663313Y388548D01*
X663312Y388578D01*
X663320Y388620D01*
X663320Y411323D01*
X710199Y458201D01*
X710239Y458266D01*
X710283Y458328D01*
X710285Y458340D01*
X710290Y458348D01*
X710294Y458385D01*
X710310Y458470D01*
X710310Y485140D01*
X710299Y485190D01*
X710297Y485241D01*
X710279Y485273D01*
X710271Y485309D01*
X710238Y485348D01*
X710214Y485393D01*
X710184Y485414D01*
X710161Y485442D01*
X710114Y485463D01*
X710072Y485493D01*
X710030Y485501D01*
X710002Y485513D01*
X709972Y485512D01*
X709930Y485520D01*
X688340Y485520D01*
X688266Y485503D01*
X688191Y485490D01*
X688181Y485483D01*
X688171Y485481D01*
X688142Y485457D01*
X688071Y485409D01*
X622031Y419369D01*
X621991Y419304D01*
X621947Y419242D01*
X621945Y419230D01*
X621940Y419222D01*
X621936Y419185D01*
X621920Y419100D01*
X621920Y388620D01*
X621931Y388570D01*
X621933Y388519D01*
X621951Y388487D01*
X621959Y388451D01*
X621992Y388412D01*
X622016Y388367D01*
X622046Y388346D01*
X622069Y388318D01*
X622116Y388297D01*
X622158Y388267D01*
X622200Y388259D01*
X622228Y388247D01*
X622258Y388248D01*
X622300Y388240D01*
X662940Y388240D01*
X662990Y388251D01*
G37*
G36*
X610920Y304431D02*
X610920Y304431D01*
X610971Y304433D01*
X611003Y304451D01*
X611039Y304459D01*
X611078Y304492D01*
X611123Y304516D01*
X611144Y304546D01*
X611172Y304569D01*
X611193Y304616D01*
X611223Y304658D01*
X611231Y304700D01*
X611243Y304728D01*
X611242Y304758D01*
X611250Y304800D01*
X611250Y334010D01*
X611233Y334084D01*
X611220Y334159D01*
X611213Y334169D01*
X611211Y334179D01*
X611187Y334208D01*
X611139Y334279D01*
X599820Y345598D01*
X599820Y367030D01*
X599809Y367080D01*
X599807Y367131D01*
X599789Y367163D01*
X599781Y367199D01*
X599748Y367238D01*
X599724Y367283D01*
X599694Y367304D01*
X599671Y367332D01*
X599624Y367353D01*
X599582Y367383D01*
X599540Y367391D01*
X599512Y367403D01*
X599482Y367402D01*
X599440Y367410D01*
X580390Y367410D01*
X580340Y367399D01*
X580289Y367397D01*
X580257Y367379D01*
X580221Y367371D01*
X580182Y367338D01*
X580137Y367314D01*
X580116Y367284D01*
X580088Y367261D01*
X580067Y367214D01*
X580037Y367172D01*
X580029Y367130D01*
X580017Y367102D01*
X580018Y367072D01*
X580010Y367030D01*
X580010Y304800D01*
X580021Y304750D01*
X580023Y304699D01*
X580041Y304667D01*
X580049Y304631D01*
X580082Y304592D01*
X580106Y304547D01*
X580136Y304526D01*
X580159Y304498D01*
X580206Y304477D01*
X580248Y304447D01*
X580290Y304439D01*
X580318Y304427D01*
X580348Y304428D01*
X580390Y304420D01*
X610870Y304420D01*
X610920Y304431D01*
G37*
G36*
X468680Y304431D02*
X468680Y304431D01*
X468731Y304433D01*
X468763Y304451D01*
X468799Y304459D01*
X468838Y304492D01*
X468883Y304516D01*
X468904Y304546D01*
X468932Y304569D01*
X468953Y304616D01*
X468983Y304658D01*
X468991Y304700D01*
X469003Y304728D01*
X469002Y304758D01*
X469010Y304800D01*
X469010Y334010D01*
X468993Y334084D01*
X468980Y334159D01*
X468973Y334169D01*
X468971Y334179D01*
X468947Y334208D01*
X468899Y334279D01*
X457580Y345598D01*
X457580Y367030D01*
X457569Y367080D01*
X457567Y367131D01*
X457549Y367163D01*
X457541Y367199D01*
X457508Y367238D01*
X457484Y367283D01*
X457454Y367304D01*
X457431Y367332D01*
X457384Y367353D01*
X457342Y367383D01*
X457300Y367391D01*
X457272Y367403D01*
X457242Y367402D01*
X457200Y367410D01*
X439420Y367410D01*
X439370Y367399D01*
X439319Y367397D01*
X439287Y367379D01*
X439251Y367371D01*
X439212Y367338D01*
X439167Y367314D01*
X439146Y367284D01*
X439118Y367261D01*
X439097Y367214D01*
X439067Y367172D01*
X439059Y367130D01*
X439047Y367102D01*
X439048Y367072D01*
X439040Y367030D01*
X439040Y304800D01*
X439051Y304750D01*
X439053Y304699D01*
X439071Y304667D01*
X439079Y304631D01*
X439112Y304592D01*
X439136Y304547D01*
X439166Y304526D01*
X439189Y304498D01*
X439236Y304477D01*
X439278Y304447D01*
X439320Y304439D01*
X439348Y304427D01*
X439378Y304428D01*
X439420Y304420D01*
X468630Y304420D01*
X468680Y304431D01*
G37*
G36*
X327710Y304431D02*
X327710Y304431D01*
X327761Y304433D01*
X327793Y304451D01*
X327829Y304459D01*
X327868Y304492D01*
X327913Y304516D01*
X327934Y304546D01*
X327962Y304569D01*
X327983Y304616D01*
X328013Y304658D01*
X328021Y304700D01*
X328033Y304728D01*
X328032Y304758D01*
X328040Y304800D01*
X328040Y334010D01*
X328023Y334084D01*
X328010Y334159D01*
X328003Y334169D01*
X328001Y334179D01*
X327977Y334208D01*
X327929Y334279D01*
X316610Y345598D01*
X316610Y365760D01*
X316599Y365810D01*
X316597Y365861D01*
X316579Y365893D01*
X316571Y365929D01*
X316538Y365968D01*
X316514Y366013D01*
X316484Y366034D01*
X316461Y366062D01*
X316414Y366083D01*
X316372Y366113D01*
X316330Y366121D01*
X316302Y366133D01*
X316272Y366132D01*
X316230Y366140D01*
X298450Y366140D01*
X298400Y366129D01*
X298349Y366127D01*
X298317Y366109D01*
X298281Y366101D01*
X298242Y366068D01*
X298197Y366044D01*
X298176Y366014D01*
X298148Y365991D01*
X298127Y365944D01*
X298097Y365902D01*
X298089Y365860D01*
X298077Y365832D01*
X298078Y365802D01*
X298070Y365760D01*
X298070Y304800D01*
X298081Y304750D01*
X298083Y304699D01*
X298101Y304667D01*
X298109Y304631D01*
X298142Y304592D01*
X298166Y304547D01*
X298196Y304526D01*
X298219Y304498D01*
X298266Y304477D01*
X298308Y304447D01*
X298350Y304439D01*
X298378Y304427D01*
X298408Y304428D01*
X298450Y304420D01*
X327660Y304420D01*
X327710Y304431D01*
G37*
G36*
X189280Y304431D02*
X189280Y304431D01*
X189331Y304433D01*
X189363Y304451D01*
X189399Y304459D01*
X189438Y304492D01*
X189483Y304516D01*
X189504Y304546D01*
X189532Y304569D01*
X189553Y304616D01*
X189583Y304658D01*
X189591Y304700D01*
X189603Y304728D01*
X189602Y304758D01*
X189610Y304800D01*
X189610Y334010D01*
X189593Y334084D01*
X189580Y334159D01*
X189573Y334169D01*
X189571Y334179D01*
X189547Y334208D01*
X189499Y334279D01*
X178180Y345598D01*
X178180Y364490D01*
X178169Y364540D01*
X178167Y364591D01*
X178149Y364623D01*
X178141Y364659D01*
X178108Y364698D01*
X178084Y364743D01*
X178054Y364764D01*
X178031Y364792D01*
X177984Y364813D01*
X177942Y364843D01*
X177900Y364851D01*
X177872Y364863D01*
X177842Y364862D01*
X177800Y364870D01*
X160020Y364870D01*
X159970Y364859D01*
X159919Y364857D01*
X159887Y364839D01*
X159851Y364831D01*
X159812Y364798D01*
X159767Y364774D01*
X159746Y364744D01*
X159718Y364721D01*
X159697Y364674D01*
X159667Y364632D01*
X159659Y364590D01*
X159647Y364562D01*
X159648Y364532D01*
X159640Y364490D01*
X159640Y304800D01*
X159651Y304750D01*
X159653Y304699D01*
X159671Y304667D01*
X159679Y304631D01*
X159712Y304592D01*
X159736Y304547D01*
X159766Y304526D01*
X159789Y304498D01*
X159836Y304477D01*
X159878Y304447D01*
X159920Y304439D01*
X159948Y304427D01*
X159978Y304428D01*
X160020Y304420D01*
X189230Y304420D01*
X189280Y304431D01*
G37*
G36*
X38150Y306971D02*
X38150Y306971D01*
X38201Y306973D01*
X38233Y306991D01*
X38269Y306999D01*
X38308Y307032D01*
X38353Y307056D01*
X38374Y307086D01*
X38402Y307109D01*
X38423Y307156D01*
X38453Y307198D01*
X38461Y307240D01*
X38473Y307268D01*
X38472Y307298D01*
X38480Y307340D01*
X38480Y365760D01*
X38469Y365810D01*
X38467Y365861D01*
X38449Y365893D01*
X38441Y365929D01*
X38408Y365968D01*
X38384Y366013D01*
X38354Y366034D01*
X38331Y366062D01*
X38284Y366083D01*
X38242Y366113D01*
X38200Y366121D01*
X38172Y366133D01*
X38142Y366132D01*
X38100Y366140D01*
X17780Y366140D01*
X17730Y366129D01*
X17679Y366127D01*
X17647Y366109D01*
X17611Y366101D01*
X17572Y366068D01*
X17527Y366044D01*
X17506Y366014D01*
X17478Y365991D01*
X17457Y365944D01*
X17427Y365902D01*
X17419Y365860D01*
X17407Y365832D01*
X17408Y365802D01*
X17400Y365760D01*
X17400Y307340D01*
X17411Y307290D01*
X17413Y307239D01*
X17431Y307207D01*
X17439Y307171D01*
X17472Y307132D01*
X17496Y307087D01*
X17526Y307066D01*
X17549Y307038D01*
X17596Y307017D01*
X17638Y306987D01*
X17680Y306979D01*
X17708Y306967D01*
X17738Y306968D01*
X17780Y306960D01*
X38100Y306960D01*
X38150Y306971D01*
G37*
%LPC*%
G36*
X464847Y238299D02*
X464847Y238299D01*
X462866Y240280D01*
X453260Y249886D01*
X453186Y249939D01*
X453117Y249999D01*
X453086Y250011D01*
X453060Y250030D01*
X452973Y250057D01*
X452888Y250091D01*
X452848Y250095D01*
X452825Y250102D01*
X452793Y250101D01*
X452722Y250109D01*
X443846Y250109D01*
X443826Y250106D01*
X443807Y250108D01*
X443705Y250086D01*
X443603Y250070D01*
X443586Y250060D01*
X443566Y250056D01*
X443477Y250003D01*
X443386Y249954D01*
X443372Y249940D01*
X443355Y249930D01*
X443288Y249851D01*
X443216Y249776D01*
X443208Y249758D01*
X443195Y249743D01*
X443156Y249647D01*
X443113Y249553D01*
X443111Y249533D01*
X443103Y249515D01*
X443085Y249348D01*
X443085Y247478D01*
X442192Y246585D01*
X431928Y246585D01*
X431035Y247478D01*
X431035Y249348D01*
X431032Y249368D01*
X431034Y249387D01*
X431012Y249489D01*
X430996Y249591D01*
X430986Y249608D01*
X430982Y249628D01*
X430929Y249717D01*
X430880Y249808D01*
X430866Y249822D01*
X430856Y249839D01*
X430777Y249906D01*
X430702Y249978D01*
X430684Y249986D01*
X430669Y249999D01*
X430573Y250038D01*
X430479Y250081D01*
X430459Y250083D01*
X430441Y250091D01*
X430274Y250109D01*
X402846Y250109D01*
X402826Y250106D01*
X402807Y250108D01*
X402705Y250086D01*
X402603Y250070D01*
X402586Y250060D01*
X402566Y250056D01*
X402477Y250003D01*
X402386Y249954D01*
X402372Y249940D01*
X402355Y249930D01*
X402288Y249851D01*
X402216Y249776D01*
X402208Y249758D01*
X402195Y249743D01*
X402156Y249647D01*
X402113Y249553D01*
X402111Y249533D01*
X402103Y249515D01*
X402085Y249348D01*
X402085Y247478D01*
X401192Y246585D01*
X390928Y246585D01*
X390035Y247478D01*
X390035Y258742D01*
X390928Y259635D01*
X401192Y259635D01*
X402085Y258742D01*
X402085Y256872D01*
X402088Y256852D01*
X402086Y256833D01*
X402108Y256731D01*
X402124Y256629D01*
X402134Y256612D01*
X402138Y256592D01*
X402191Y256503D01*
X402240Y256412D01*
X402254Y256398D01*
X402264Y256381D01*
X402343Y256314D01*
X402418Y256242D01*
X402436Y256234D01*
X402451Y256221D01*
X402547Y256182D01*
X402641Y256139D01*
X402661Y256137D01*
X402679Y256129D01*
X402846Y256111D01*
X430274Y256111D01*
X430294Y256114D01*
X430313Y256112D01*
X430415Y256134D01*
X430517Y256150D01*
X430534Y256160D01*
X430554Y256164D01*
X430643Y256217D01*
X430734Y256266D01*
X430748Y256280D01*
X430765Y256290D01*
X430832Y256369D01*
X430904Y256444D01*
X430912Y256462D01*
X430925Y256477D01*
X430964Y256573D01*
X431007Y256667D01*
X431009Y256687D01*
X431017Y256705D01*
X431035Y256872D01*
X431035Y258742D01*
X431928Y259635D01*
X442192Y259635D01*
X443085Y258742D01*
X443085Y256872D01*
X443088Y256852D01*
X443086Y256833D01*
X443108Y256731D01*
X443124Y256629D01*
X443134Y256612D01*
X443138Y256592D01*
X443191Y256503D01*
X443240Y256412D01*
X443254Y256398D01*
X443264Y256381D01*
X443343Y256314D01*
X443418Y256242D01*
X443436Y256234D01*
X443451Y256221D01*
X443547Y256182D01*
X443641Y256139D01*
X443661Y256137D01*
X443679Y256129D01*
X443846Y256111D01*
X455523Y256111D01*
X467110Y244524D01*
X467184Y244471D01*
X467253Y244411D01*
X467283Y244399D01*
X467310Y244380D01*
X467397Y244353D01*
X467482Y244319D01*
X467522Y244315D01*
X467545Y244308D01*
X467577Y244309D01*
X467648Y244301D01*
X501362Y244301D01*
X501452Y244315D01*
X501543Y244323D01*
X501573Y244335D01*
X501604Y244340D01*
X501685Y244383D01*
X501769Y244419D01*
X501801Y244445D01*
X501822Y244456D01*
X501844Y244479D01*
X501900Y244524D01*
X503197Y245821D01*
X503209Y245837D01*
X503224Y245849D01*
X503268Y245917D01*
X503285Y245935D01*
X503295Y245957D01*
X503341Y246020D01*
X503346Y246039D01*
X503357Y246056D01*
X503376Y246133D01*
X503388Y246158D01*
X503391Y246185D01*
X503413Y246256D01*
X503412Y246275D01*
X503417Y246295D01*
X503412Y246369D01*
X503415Y246402D01*
X503408Y246434D01*
X503407Y246501D01*
X503400Y246520D01*
X503398Y246540D01*
X503372Y246602D01*
X503363Y246643D01*
X503342Y246677D01*
X503322Y246732D01*
X503310Y246748D01*
X503302Y246766D01*
X503251Y246830D01*
X503237Y246854D01*
X503221Y246867D01*
X503197Y246897D01*
X502452Y247642D01*
X502452Y263130D01*
X503345Y264023D01*
X511720Y264023D01*
X512613Y263130D01*
X512613Y247642D01*
X511720Y246749D01*
X511295Y246749D01*
X511275Y246746D01*
X511255Y246748D01*
X511154Y246726D01*
X511052Y246709D01*
X511034Y246700D01*
X511015Y246696D01*
X510926Y246643D01*
X510834Y246594D01*
X510821Y246580D01*
X510804Y246570D01*
X510736Y246491D01*
X510665Y246416D01*
X510657Y246398D01*
X510644Y246383D01*
X510605Y246287D01*
X510561Y246193D01*
X510559Y246173D01*
X510552Y246155D01*
X510533Y245988D01*
X510533Y244670D01*
X504163Y238299D01*
X464847Y238299D01*
G37*
%LPD*%
%LPC*%
G36*
X445568Y182809D02*
X445568Y182809D01*
X444675Y183702D01*
X444675Y192078D01*
X445568Y192971D01*
X461055Y192971D01*
X462148Y191878D01*
X462164Y191866D01*
X462176Y191851D01*
X462264Y191795D01*
X462347Y191734D01*
X462366Y191729D01*
X462383Y191718D01*
X462484Y191692D01*
X462582Y191662D01*
X462602Y191663D01*
X462622Y191658D01*
X462725Y191666D01*
X462828Y191668D01*
X462847Y191675D01*
X462867Y191677D01*
X462962Y191717D01*
X463059Y191753D01*
X463075Y191765D01*
X463093Y191773D01*
X463224Y191878D01*
X465216Y193870D01*
X465753Y194407D01*
X465765Y194423D01*
X465780Y194435D01*
X465836Y194522D01*
X465897Y194606D01*
X465902Y194625D01*
X465913Y194642D01*
X465939Y194743D01*
X465969Y194841D01*
X465968Y194861D01*
X465973Y194881D01*
X465965Y194984D01*
X465963Y195087D01*
X465956Y195106D01*
X465954Y195126D01*
X465914Y195221D01*
X465878Y195318D01*
X465866Y195334D01*
X465858Y195352D01*
X465753Y195483D01*
X463870Y197366D01*
X463796Y197419D01*
X463727Y197479D01*
X463696Y197491D01*
X463670Y197510D01*
X463583Y197537D01*
X463498Y197571D01*
X463458Y197575D01*
X463435Y197582D01*
X463403Y197581D01*
X463332Y197589D01*
X462709Y197589D01*
X462690Y197586D01*
X462670Y197588D01*
X462569Y197566D01*
X462466Y197550D01*
X462449Y197540D01*
X462429Y197536D01*
X462340Y197483D01*
X462249Y197434D01*
X462235Y197420D01*
X462218Y197410D01*
X462151Y197331D01*
X462080Y197256D01*
X462071Y197238D01*
X462058Y197223D01*
X462020Y197127D01*
X461976Y197033D01*
X461974Y197013D01*
X461966Y196995D01*
X461948Y196828D01*
X461948Y196402D01*
X461055Y195509D01*
X445568Y195509D01*
X444675Y196402D01*
X444675Y204778D01*
X445568Y205671D01*
X461055Y205671D01*
X461948Y204778D01*
X461948Y204352D01*
X461951Y204332D01*
X461949Y204313D01*
X461971Y204211D01*
X461988Y204109D01*
X461997Y204092D01*
X462001Y204072D01*
X462054Y203983D01*
X462103Y203892D01*
X462117Y203878D01*
X462127Y203861D01*
X462206Y203794D01*
X462281Y203722D01*
X462299Y203714D01*
X462314Y203701D01*
X462411Y203662D01*
X462504Y203619D01*
X462524Y203617D01*
X462543Y203609D01*
X462709Y203591D01*
X466133Y203591D01*
X469650Y200074D01*
X469724Y200021D01*
X469793Y199961D01*
X469824Y199949D01*
X469850Y199930D01*
X469937Y199903D01*
X470022Y199869D01*
X470062Y199865D01*
X470085Y199858D01*
X470117Y199859D01*
X470188Y199851D01*
X493292Y199851D01*
X493312Y199854D01*
X493331Y199852D01*
X493433Y199874D01*
X493535Y199890D01*
X493552Y199900D01*
X493572Y199904D01*
X493661Y199957D01*
X493752Y200006D01*
X493766Y200020D01*
X493783Y200030D01*
X493850Y200109D01*
X493922Y200184D01*
X493930Y200202D01*
X493943Y200217D01*
X493982Y200313D01*
X494025Y200407D01*
X494027Y200427D01*
X494035Y200445D01*
X494053Y200612D01*
X494053Y202755D01*
X497015Y205717D01*
X501205Y205717D01*
X504167Y202755D01*
X504167Y198565D01*
X501205Y195603D01*
X498612Y195603D01*
X498522Y195589D01*
X498431Y195581D01*
X498401Y195569D01*
X498370Y195564D01*
X498289Y195521D01*
X498205Y195485D01*
X498173Y195459D01*
X498152Y195448D01*
X498130Y195425D01*
X498074Y195380D01*
X497542Y194848D01*
X497530Y194832D01*
X497515Y194820D01*
X497459Y194732D01*
X497398Y194649D01*
X497393Y194630D01*
X497382Y194613D01*
X497356Y194512D01*
X497326Y194413D01*
X497327Y194394D01*
X497322Y194374D01*
X497330Y194271D01*
X497332Y194168D01*
X497339Y194149D01*
X497341Y194129D01*
X497381Y194034D01*
X497417Y193937D01*
X497429Y193921D01*
X497437Y193903D01*
X497542Y193772D01*
X498930Y192384D01*
X499004Y192331D01*
X499073Y192271D01*
X499103Y192259D01*
X499130Y192240D01*
X499217Y192213D01*
X499302Y192179D01*
X499342Y192175D01*
X499365Y192168D01*
X499397Y192169D01*
X499468Y192161D01*
X503464Y192161D01*
X503554Y192175D01*
X503645Y192183D01*
X503675Y192195D01*
X503707Y192200D01*
X503788Y192243D01*
X503871Y192279D01*
X503904Y192305D01*
X503924Y192316D01*
X503946Y192339D01*
X504002Y192384D01*
X505905Y194287D01*
X510095Y194287D01*
X513057Y191325D01*
X513057Y187135D01*
X510095Y184173D01*
X505905Y184173D01*
X504142Y185936D01*
X504068Y185989D01*
X503999Y186049D01*
X503969Y186061D01*
X503943Y186080D01*
X503856Y186107D01*
X503771Y186141D01*
X503730Y186145D01*
X503708Y186152D01*
X503675Y186151D01*
X503604Y186159D01*
X496667Y186159D01*
X493200Y189626D01*
X493126Y189679D01*
X493057Y189739D01*
X493026Y189751D01*
X493000Y189770D01*
X492913Y189797D01*
X492828Y189831D01*
X492788Y189835D01*
X492765Y189842D01*
X492733Y189841D01*
X492662Y189849D01*
X469998Y189849D01*
X469908Y189835D01*
X469817Y189827D01*
X469787Y189815D01*
X469755Y189810D01*
X469675Y189767D01*
X469591Y189731D01*
X469559Y189705D01*
X469538Y189694D01*
X469516Y189671D01*
X469460Y189626D01*
X464723Y184889D01*
X462709Y184889D01*
X462690Y184886D01*
X462670Y184888D01*
X462569Y184866D01*
X462466Y184850D01*
X462449Y184840D01*
X462429Y184836D01*
X462340Y184783D01*
X462249Y184734D01*
X462235Y184720D01*
X462218Y184710D01*
X462151Y184631D01*
X462080Y184556D01*
X462071Y184538D01*
X462058Y184523D01*
X462020Y184427D01*
X461976Y184333D01*
X461974Y184313D01*
X461966Y184295D01*
X461948Y184128D01*
X461948Y183702D01*
X461055Y182809D01*
X445568Y182809D01*
G37*
%LPD*%
%LPC*%
G36*
X557897Y9397D02*
X557897Y9397D01*
X553883Y11060D01*
X550810Y14133D01*
X549147Y18147D01*
X549147Y22493D01*
X550810Y26507D01*
X553883Y29580D01*
X557897Y31243D01*
X562243Y31243D01*
X566257Y29580D01*
X569330Y26507D01*
X570993Y22493D01*
X570993Y18147D01*
X569330Y14133D01*
X566257Y11060D01*
X562243Y9397D01*
X557897Y9397D01*
G37*
%LPD*%
%LPC*%
G36*
X583297Y34797D02*
X583297Y34797D01*
X579283Y36460D01*
X576210Y39533D01*
X574547Y43547D01*
X574547Y47893D01*
X576210Y51907D01*
X579283Y54980D01*
X583297Y56643D01*
X587643Y56643D01*
X591657Y54980D01*
X594730Y51907D01*
X596393Y47893D01*
X596393Y43547D01*
X594730Y39533D01*
X591657Y36460D01*
X587643Y34797D01*
X583297Y34797D01*
G37*
%LPD*%
%LPC*%
G36*
X557897Y34797D02*
X557897Y34797D01*
X553883Y36460D01*
X550810Y39533D01*
X549147Y43547D01*
X549147Y47893D01*
X550810Y51907D01*
X553883Y54980D01*
X557897Y56643D01*
X562243Y56643D01*
X566257Y54980D01*
X569330Y51907D01*
X570993Y47893D01*
X570993Y43547D01*
X569330Y39533D01*
X566257Y36460D01*
X562243Y34797D01*
X557897Y34797D01*
G37*
%LPD*%
%LPC*%
G36*
X445568Y208209D02*
X445568Y208209D01*
X444675Y209102D01*
X444675Y217478D01*
X445568Y218371D01*
X461055Y218371D01*
X461948Y217478D01*
X461948Y217052D01*
X461951Y217032D01*
X461949Y217013D01*
X461971Y216911D01*
X461988Y216809D01*
X461997Y216792D01*
X462001Y216772D01*
X462054Y216683D01*
X462103Y216592D01*
X462117Y216578D01*
X462127Y216561D01*
X462206Y216494D01*
X462281Y216422D01*
X462299Y216414D01*
X462314Y216401D01*
X462411Y216362D01*
X462504Y216319D01*
X462524Y216317D01*
X462543Y216309D01*
X462709Y216291D01*
X476794Y216291D01*
X476884Y216305D01*
X476975Y216313D01*
X477005Y216325D01*
X477037Y216330D01*
X477118Y216373D01*
X477201Y216409D01*
X477234Y216435D01*
X477254Y216446D01*
X477276Y216469D01*
X477332Y216514D01*
X479235Y218417D01*
X483425Y218417D01*
X486387Y215455D01*
X486387Y211265D01*
X483425Y208303D01*
X479235Y208303D01*
X477472Y210066D01*
X477398Y210119D01*
X477329Y210179D01*
X477299Y210191D01*
X477273Y210210D01*
X477186Y210237D01*
X477101Y210271D01*
X477060Y210275D01*
X477038Y210282D01*
X477005Y210281D01*
X476934Y210289D01*
X462709Y210289D01*
X462690Y210286D01*
X462670Y210288D01*
X462569Y210266D01*
X462466Y210250D01*
X462449Y210240D01*
X462429Y210236D01*
X462340Y210183D01*
X462249Y210134D01*
X462235Y210120D01*
X462218Y210110D01*
X462151Y210031D01*
X462080Y209956D01*
X462071Y209938D01*
X462058Y209923D01*
X462020Y209827D01*
X461976Y209733D01*
X461974Y209713D01*
X461966Y209695D01*
X461948Y209528D01*
X461948Y209102D01*
X461055Y208209D01*
X445568Y208209D01*
G37*
%LPD*%
%LPC*%
G36*
X358778Y22605D02*
X358778Y22605D01*
X357885Y23498D01*
X357885Y40002D01*
X358778Y40895D01*
X375282Y40895D01*
X376175Y40002D01*
X376175Y23498D01*
X375282Y22605D01*
X358778Y22605D01*
G37*
%LPD*%
%LPC*%
G36*
X300358Y22605D02*
X300358Y22605D01*
X299465Y23498D01*
X299465Y40002D01*
X300358Y40895D01*
X316862Y40895D01*
X317755Y40002D01*
X317755Y23498D01*
X316862Y22605D01*
X300358Y22605D01*
G37*
%LPD*%
%LPC*%
G36*
X475618Y22605D02*
X475618Y22605D01*
X474725Y23498D01*
X474725Y40002D01*
X475618Y40895D01*
X492122Y40895D01*
X493015Y40002D01*
X493015Y23498D01*
X492122Y22605D01*
X475618Y22605D01*
G37*
%LPD*%
%LPC*%
G36*
X183518Y22605D02*
X183518Y22605D01*
X182625Y23498D01*
X182625Y40002D01*
X183518Y40895D01*
X200022Y40895D01*
X200915Y40002D01*
X200915Y23498D01*
X200022Y22605D01*
X183518Y22605D01*
G37*
%LPD*%
%LPC*%
G36*
X417198Y22605D02*
X417198Y22605D01*
X416305Y23498D01*
X416305Y40002D01*
X417198Y40895D01*
X433702Y40895D01*
X434595Y40002D01*
X434595Y23498D01*
X433702Y22605D01*
X417198Y22605D01*
G37*
%LPD*%
%LPC*%
G36*
X241938Y22605D02*
X241938Y22605D01*
X241045Y23498D01*
X241045Y40002D01*
X241938Y40895D01*
X258442Y40895D01*
X259335Y40002D01*
X259335Y23498D01*
X258442Y22605D01*
X241938Y22605D01*
G37*
%LPD*%
%LPC*%
G36*
X445568Y220909D02*
X445568Y220909D01*
X444675Y221802D01*
X444675Y230178D01*
X445568Y231071D01*
X461055Y231071D01*
X461948Y230178D01*
X461948Y229752D01*
X461951Y229732D01*
X461949Y229713D01*
X461971Y229611D01*
X461988Y229509D01*
X461997Y229492D01*
X462001Y229472D01*
X462054Y229383D01*
X462103Y229292D01*
X462117Y229278D01*
X462127Y229261D01*
X462206Y229194D01*
X462281Y229122D01*
X462299Y229114D01*
X462314Y229101D01*
X462411Y229062D01*
X462504Y229019D01*
X462524Y229017D01*
X462543Y229009D01*
X462709Y228991D01*
X469174Y228991D01*
X469264Y229005D01*
X469355Y229013D01*
X469385Y229025D01*
X469417Y229030D01*
X469498Y229073D01*
X469581Y229109D01*
X469614Y229135D01*
X469634Y229146D01*
X469656Y229169D01*
X469712Y229214D01*
X471615Y231117D01*
X475805Y231117D01*
X478767Y228155D01*
X478767Y223965D01*
X475805Y221003D01*
X471615Y221003D01*
X469852Y222766D01*
X469778Y222819D01*
X469709Y222879D01*
X469679Y222891D01*
X469653Y222910D01*
X469566Y222937D01*
X469481Y222971D01*
X469440Y222975D01*
X469418Y222982D01*
X469385Y222981D01*
X469314Y222989D01*
X462709Y222989D01*
X462690Y222986D01*
X462670Y222988D01*
X462569Y222966D01*
X462466Y222950D01*
X462449Y222940D01*
X462429Y222936D01*
X462340Y222883D01*
X462249Y222834D01*
X462235Y222820D01*
X462218Y222810D01*
X462151Y222731D01*
X462080Y222656D01*
X462071Y222638D01*
X462058Y222623D01*
X462020Y222527D01*
X461976Y222433D01*
X461974Y222413D01*
X461966Y222395D01*
X461948Y222228D01*
X461948Y221802D01*
X461055Y220909D01*
X445568Y220909D01*
G37*
%LPD*%
%LPC*%
G36*
X531305Y231163D02*
X531305Y231163D01*
X528343Y234125D01*
X528343Y238315D01*
X529709Y239680D01*
X529762Y239754D01*
X529821Y239824D01*
X529834Y239854D01*
X529852Y239880D01*
X529879Y239967D01*
X529913Y240052D01*
X529918Y240093D01*
X529925Y240115D01*
X529924Y240147D01*
X529932Y240219D01*
X529932Y245988D01*
X529929Y246008D01*
X529931Y246027D01*
X529909Y246129D01*
X529892Y246231D01*
X529883Y246248D01*
X529879Y246268D01*
X529825Y246357D01*
X529777Y246448D01*
X529763Y246462D01*
X529752Y246479D01*
X529674Y246546D01*
X529599Y246617D01*
X529581Y246626D01*
X529566Y246639D01*
X529469Y246678D01*
X529376Y246721D01*
X529356Y246723D01*
X529337Y246731D01*
X529171Y246749D01*
X528745Y246749D01*
X527852Y247642D01*
X527852Y263130D01*
X528745Y264023D01*
X537120Y264023D01*
X538013Y263130D01*
X538013Y247642D01*
X537120Y246749D01*
X536695Y246749D01*
X536675Y246746D01*
X536655Y246748D01*
X536554Y246726D01*
X536452Y246709D01*
X536434Y246700D01*
X536415Y246696D01*
X536326Y246643D01*
X536234Y246594D01*
X536221Y246580D01*
X536204Y246570D01*
X536136Y246491D01*
X536065Y246416D01*
X536057Y246398D01*
X536044Y246383D01*
X536005Y246287D01*
X535961Y246193D01*
X535959Y246173D01*
X535952Y246155D01*
X535933Y245988D01*
X535933Y241153D01*
X535948Y241063D01*
X535955Y240972D01*
X535968Y240942D01*
X535973Y240911D01*
X536016Y240830D01*
X536052Y240746D01*
X536077Y240714D01*
X536088Y240693D01*
X536112Y240671D01*
X536156Y240615D01*
X538457Y238315D01*
X538457Y234125D01*
X535495Y231163D01*
X531305Y231163D01*
G37*
%LPD*%
%LPC*%
G36*
X544005Y236243D02*
X544005Y236243D01*
X541043Y239205D01*
X541043Y243395D01*
X542409Y244760D01*
X542462Y244834D01*
X542521Y244904D01*
X542534Y244934D01*
X542552Y244960D01*
X542579Y245047D01*
X542613Y245132D01*
X542618Y245173D01*
X542625Y245195D01*
X542624Y245227D01*
X542632Y245299D01*
X542632Y245988D01*
X542629Y246008D01*
X542631Y246027D01*
X542609Y246129D01*
X542592Y246231D01*
X542583Y246248D01*
X542579Y246268D01*
X542525Y246357D01*
X542477Y246448D01*
X542463Y246462D01*
X542452Y246479D01*
X542374Y246546D01*
X542299Y246617D01*
X542281Y246626D01*
X542266Y246639D01*
X542169Y246678D01*
X542076Y246721D01*
X542056Y246723D01*
X542037Y246731D01*
X541871Y246749D01*
X541445Y246749D01*
X540552Y247642D01*
X540552Y263130D01*
X541445Y264023D01*
X549820Y264023D01*
X550713Y263130D01*
X550713Y247642D01*
X549820Y246749D01*
X549640Y246749D01*
X549569Y246738D01*
X549497Y246736D01*
X549448Y246718D01*
X549397Y246709D01*
X549334Y246676D01*
X549266Y246651D01*
X549226Y246619D01*
X549180Y246594D01*
X549130Y246542D01*
X549074Y246498D01*
X549046Y246454D01*
X549010Y246416D01*
X548980Y246351D01*
X548941Y246291D01*
X548929Y246240D01*
X548907Y246193D01*
X548899Y246122D01*
X548881Y246052D01*
X548885Y246000D01*
X548880Y245949D01*
X548895Y245878D01*
X548900Y245807D01*
X548921Y245759D01*
X548932Y245708D01*
X548969Y245647D01*
X548997Y245581D01*
X549042Y245525D01*
X549058Y245497D01*
X549076Y245482D01*
X549102Y245450D01*
X551157Y243395D01*
X551157Y239205D01*
X548195Y236243D01*
X544005Y236243D01*
G37*
%LPD*%
%LPC*%
G36*
X445568Y119309D02*
X445568Y119309D01*
X444675Y120202D01*
X444675Y120628D01*
X444671Y120648D01*
X444673Y120667D01*
X444651Y120769D01*
X444635Y120871D01*
X444625Y120888D01*
X444621Y120908D01*
X444568Y120997D01*
X444520Y121088D01*
X444505Y121102D01*
X444495Y121119D01*
X444416Y121186D01*
X444341Y121258D01*
X444323Y121266D01*
X444308Y121279D01*
X444212Y121318D01*
X444118Y121361D01*
X444099Y121363D01*
X444080Y121371D01*
X443913Y121389D01*
X443816Y121389D01*
X443726Y121375D01*
X443635Y121367D01*
X443605Y121355D01*
X443573Y121350D01*
X443492Y121307D01*
X443409Y121271D01*
X443376Y121245D01*
X443356Y121234D01*
X443334Y121211D01*
X443278Y121166D01*
X441515Y119403D01*
X437325Y119403D01*
X434363Y122365D01*
X434363Y126555D01*
X437325Y129517D01*
X441515Y129517D01*
X443375Y127656D01*
X443433Y127614D01*
X443485Y127565D01*
X443532Y127543D01*
X443575Y127513D01*
X443643Y127492D01*
X443708Y127461D01*
X443760Y127456D01*
X443810Y127440D01*
X443882Y127442D01*
X443953Y127434D01*
X444004Y127445D01*
X444056Y127447D01*
X444123Y127471D01*
X444193Y127487D01*
X444238Y127513D01*
X444287Y127531D01*
X444343Y127576D01*
X444404Y127613D01*
X444438Y127652D01*
X444479Y127685D01*
X444517Y127745D01*
X444564Y127800D01*
X444584Y127848D01*
X444612Y127892D01*
X444629Y127961D01*
X444656Y128028D01*
X444664Y128099D01*
X444672Y128130D01*
X444670Y128154D01*
X444675Y128195D01*
X444675Y128578D01*
X445568Y129471D01*
X461055Y129471D01*
X461948Y128578D01*
X461948Y120202D01*
X461055Y119309D01*
X445568Y119309D01*
G37*
%LPD*%
%LPC*%
G36*
X515916Y74073D02*
X515916Y74073D01*
X515023Y74966D01*
X515023Y90453D01*
X515916Y91346D01*
X524291Y91346D01*
X525184Y90453D01*
X525184Y74966D01*
X524291Y74073D01*
X515916Y74073D01*
G37*
%LPD*%
%LPC*%
G36*
X566716Y74073D02*
X566716Y74073D01*
X565823Y74966D01*
X565823Y90453D01*
X566716Y91346D01*
X575091Y91346D01*
X575984Y90453D01*
X575984Y74966D01*
X575091Y74073D01*
X566716Y74073D01*
G37*
%LPD*%
%LPC*%
G36*
X579416Y74073D02*
X579416Y74073D01*
X578523Y74966D01*
X578523Y90453D01*
X579416Y91346D01*
X587791Y91346D01*
X588684Y90453D01*
X588684Y74966D01*
X587791Y74073D01*
X579416Y74073D01*
G37*
%LPD*%
%LPC*%
G36*
X592116Y74073D02*
X592116Y74073D01*
X591223Y74966D01*
X591223Y90453D01*
X592116Y91346D01*
X600491Y91346D01*
X601384Y90453D01*
X601384Y74966D01*
X600491Y74073D01*
X592116Y74073D01*
G37*
%LPD*%
%LPC*%
G36*
X604816Y74073D02*
X604816Y74073D01*
X603923Y74966D01*
X603923Y90453D01*
X604816Y91346D01*
X613191Y91346D01*
X614084Y90453D01*
X614084Y74966D01*
X613191Y74073D01*
X604816Y74073D01*
G37*
%LPD*%
%LPC*%
G36*
X554016Y74073D02*
X554016Y74073D01*
X553123Y74966D01*
X553123Y90453D01*
X554016Y91346D01*
X562391Y91346D01*
X563284Y90453D01*
X563284Y74966D01*
X562391Y74073D01*
X554016Y74073D01*
G37*
%LPD*%
%LPC*%
G36*
X528616Y74073D02*
X528616Y74073D01*
X527723Y74966D01*
X527723Y90453D01*
X528616Y91346D01*
X536991Y91346D01*
X537884Y90453D01*
X537884Y74966D01*
X536991Y74073D01*
X528616Y74073D01*
G37*
%LPD*%
%LPC*%
G36*
X503216Y74073D02*
X503216Y74073D01*
X502323Y74966D01*
X502323Y90453D01*
X503216Y91346D01*
X511591Y91346D01*
X512484Y90453D01*
X512484Y74966D01*
X511591Y74073D01*
X503216Y74073D01*
G37*
%LPD*%
%LPC*%
G36*
X541316Y74073D02*
X541316Y74073D01*
X540423Y74966D01*
X540423Y90453D01*
X541316Y91346D01*
X549691Y91346D01*
X550584Y90453D01*
X550584Y74966D01*
X549691Y74073D01*
X541316Y74073D01*
G37*
%LPD*%
D10*
X64530Y394420D03*
X34530Y394420D03*
X64530Y357420D03*
X34530Y357420D03*
D11*
X49530Y375920D03*
D12*
X42400Y469900D03*
X135400Y469900D03*
D13*
X92710Y354420D03*
X92710Y397420D03*
D14*
X81690Y321310D03*
X37690Y321310D03*
D15*
X139700Y393650D03*
X139700Y330250D03*
D16*
X224790Y571500D03*
X250190Y571500D03*
D10*
X342660Y395690D03*
X312660Y395690D03*
X342660Y358690D03*
X312660Y358690D03*
D11*
X327660Y377190D03*
D12*
X323070Y469900D03*
X416070Y469900D03*
D13*
X373380Y355690D03*
X373380Y398690D03*
D14*
X362360Y320040D03*
X318360Y320040D03*
D15*
X419100Y393650D03*
X419100Y330250D03*
D16*
X344170Y571500D03*
X369570Y571500D03*
D10*
X204230Y394420D03*
X174230Y394420D03*
X204230Y357420D03*
X174230Y357420D03*
D11*
X189230Y375920D03*
D12*
X182100Y469900D03*
X275100Y469900D03*
D13*
X232410Y355690D03*
X232410Y398690D03*
D14*
X223930Y320040D03*
X179930Y320040D03*
D15*
X278130Y393650D03*
X278130Y330250D03*
D16*
X284480Y571500D03*
X309880Y571500D03*
D10*
X483630Y396960D03*
X453630Y396960D03*
X483630Y359960D03*
X453630Y359960D03*
D11*
X468630Y378460D03*
D12*
X462770Y469900D03*
X555770Y469900D03*
D13*
X514350Y356960D03*
X514350Y399960D03*
D14*
X503330Y320040D03*
X459330Y320040D03*
D15*
X560070Y394920D03*
X560070Y331520D03*
D16*
X403860Y571500D03*
X429260Y571500D03*
D10*
X625870Y396960D03*
X595870Y396960D03*
X625870Y359960D03*
X595870Y359960D03*
D11*
X610870Y378460D03*
D12*
X606280Y469900D03*
X699280Y469900D03*
D13*
X655320Y356960D03*
X655320Y399960D03*
D14*
X645570Y320040D03*
X601570Y320040D03*
D15*
X701040Y394920D03*
X701040Y331520D03*
D16*
X463550Y571500D03*
X488950Y571500D03*
D17*
X179230Y274320D03*
X199230Y274320D03*
X357030Y275590D03*
X377030Y275590D03*
X224950Y274320D03*
X244950Y274320D03*
X523400Y278130D03*
X543400Y278130D03*
X604360Y278130D03*
X584360Y278130D03*
D18*
X143510Y96520D03*
D19*
X183510Y113520D03*
X143510Y130520D03*
X183510Y147520D03*
X143510Y164520D03*
D12*
X216390Y128270D03*
X309390Y128270D03*
D20*
X363220Y134490D03*
X363220Y86490D03*
D21*
X186600Y205740D03*
X143600Y205740D03*
D22*
X22990Y124460D03*
X70990Y124460D03*
D23*
X341630Y192880D03*
X341630Y172880D03*
X377190Y172880D03*
X377190Y192880D03*
D24*
X359410Y192650D03*
X359410Y175650D03*
D25*
X101600Y274460D03*
X101600Y233540D03*
D24*
X411480Y112640D03*
X411480Y95640D03*
D26*
X660710Y274130D02*
X667710Y274130D01*
X667710Y267130D01*
X660710Y267130D01*
X660710Y274130D01*
X660710Y269980D02*
X667710Y269980D01*
X667710Y272830D02*
X660710Y272830D01*
X660710Y291670D02*
X667710Y291670D01*
X667710Y284670D01*
X660710Y284670D01*
X660710Y291670D01*
X660710Y287520D02*
X667710Y287520D01*
X667710Y290370D02*
X660710Y290370D01*
D27*
X644770Y279400D03*
X627770Y279400D03*
D28*
X515240Y50980D03*
X531240Y50980D03*
X531240Y9980D03*
X515240Y9980D03*
D29*
X437060Y253110D03*
X437060Y237110D03*
X396060Y237110D03*
X396060Y253110D03*
D30*
X560070Y20320D03*
X560070Y45720D03*
X585470Y20320D03*
X585470Y45720D03*
X610870Y20320D03*
X610870Y45720D03*
X636270Y20320D03*
X636270Y45720D03*
D31*
X34290Y265430D03*
D32*
X34290Y215430D03*
D16*
X483870Y31750D03*
X458470Y31750D03*
X425450Y31750D03*
X400050Y31750D03*
X367030Y31750D03*
X341630Y31750D03*
X308610Y31750D03*
X283210Y31750D03*
X250190Y31750D03*
X224790Y31750D03*
X191770Y31750D03*
X166370Y31750D03*
D33*
X482004Y82710D03*
X494704Y82710D03*
X507404Y82710D03*
X520104Y82710D03*
X532804Y82710D03*
X545504Y82710D03*
X558204Y82710D03*
X570904Y82710D03*
X583604Y82710D03*
X596304Y82710D03*
X609004Y82710D03*
X621704Y82710D03*
X482133Y255386D03*
X494833Y255386D03*
X507533Y255386D03*
X520233Y255386D03*
X532933Y255386D03*
X545633Y255386D03*
X558333Y255386D03*
X571033Y255386D03*
X583733Y255386D03*
X596433Y255386D03*
X609133Y255386D03*
X621833Y255386D03*
D34*
X453311Y124390D03*
X453311Y137090D03*
X453311Y149790D03*
X453311Y162490D03*
X453311Y175190D03*
X453311Y187890D03*
X453311Y200590D03*
X453311Y213290D03*
X453311Y225990D03*
X453293Y111917D03*
D35*
X22860Y124460D03*
D36*
X101600Y274460D02*
X101600Y293370D01*
D37*
X21590Y312420D03*
X21590Y322580D03*
X21590Y332740D03*
X21590Y342900D03*
X21590Y354330D03*
X30480Y342900D03*
D36*
X621833Y266233D02*
X621833Y255386D01*
X626230Y270630D02*
X664210Y270630D01*
X626230Y270630D02*
X621833Y266233D01*
D38*
X49530Y375920D03*
X49530Y384810D03*
X49530Y393700D03*
X49530Y367030D03*
X189230Y375920D03*
X189230Y384810D03*
X189230Y393700D03*
X189230Y367030D03*
X327660Y377190D03*
X327660Y386080D03*
X327660Y394970D03*
X327660Y368300D03*
X468630Y378460D03*
X468630Y387350D03*
X468630Y396240D03*
X468630Y369570D03*
X610870Y378460D03*
X610870Y387350D03*
X610870Y396240D03*
X610870Y369570D03*
X339090Y240030D03*
X311150Y240030D03*
X281940Y240030D03*
X248920Y240030D03*
X214630Y240030D03*
X177800Y240030D03*
D35*
X72390Y124460D03*
X363220Y85090D03*
D38*
X657860Y251460D03*
X657860Y238760D03*
X657860Y224790D03*
X657860Y209550D03*
X657860Y195580D03*
X657860Y180340D03*
X657860Y166370D03*
X657860Y151130D03*
X657860Y135890D03*
X657860Y119380D03*
X657860Y101600D03*
X657860Y85090D03*
D37*
X302260Y308610D03*
X302260Y332740D03*
X302260Y321310D03*
X302260Y344170D03*
X302260Y355600D03*
X311150Y344170D03*
X163830Y308610D03*
X163830Y332740D03*
X163830Y321310D03*
X163830Y344170D03*
X163830Y355600D03*
X172720Y344170D03*
X443230Y308610D03*
X443230Y332740D03*
X443230Y321310D03*
X443230Y344170D03*
X443230Y355600D03*
X452120Y344170D03*
X585470Y308610D03*
X585470Y332740D03*
X585470Y321310D03*
X585470Y344170D03*
X585470Y355600D03*
X594360Y344170D03*
D36*
X481260Y213290D02*
X453311Y213290D01*
X481260Y213290D02*
X481330Y213360D01*
D38*
X481330Y213360D03*
D36*
X473640Y225990D02*
X453311Y225990D01*
X473640Y225990D02*
X473710Y226060D01*
D38*
X473710Y226060D03*
X499110Y200660D03*
D36*
X464890Y200590D02*
X453311Y200590D01*
X464890Y200590D02*
X468630Y196850D01*
X495300Y196850D01*
X499110Y200660D01*
X571500Y278130D02*
X584360Y278130D01*
X571500Y278130D02*
X570230Y278130D01*
D38*
X571500Y278130D03*
D36*
X508000Y189230D02*
X507930Y189160D01*
D38*
X508000Y189230D03*
D36*
X463480Y187890D02*
X453311Y187890D01*
X463480Y187890D02*
X468440Y192850D01*
X497910Y189160D02*
X507930Y189160D01*
X494220Y192850D02*
X468440Y192850D01*
X494220Y192850D02*
X497910Y189160D01*
X543400Y278130D02*
X556260Y278130D01*
D38*
X556260Y278130D03*
D36*
X453311Y175190D02*
X436950Y175190D01*
X377030Y235110D02*
X377030Y275590D01*
X377030Y235110D02*
X436950Y175190D01*
X443300Y162490D02*
X453311Y162490D01*
X443300Y162490D02*
X331470Y274320D01*
X244950Y274320D01*
X439490Y124390D02*
X453311Y124390D01*
X439490Y124390D02*
X439420Y124460D01*
D38*
X439420Y124460D03*
D36*
X200660Y272890D02*
X199230Y274320D01*
X200660Y272890D02*
X200660Y260350D01*
D38*
X200660Y260350D03*
D39*
X179230Y274320D02*
X167640Y274320D01*
D38*
X167640Y274320D03*
D39*
X34530Y394420D02*
X34530Y408700D01*
X34290Y408940D01*
D38*
X34290Y408940D03*
D39*
X345440Y275590D02*
X357030Y275590D01*
D38*
X345440Y275590D03*
D39*
X312660Y395690D02*
X312660Y408700D01*
X312420Y408940D01*
D38*
X312420Y408940D03*
D39*
X224950Y274320D02*
X213360Y274320D01*
D38*
X213360Y274320D03*
D39*
X174230Y394420D02*
X174230Y407430D01*
X173990Y407670D01*
D38*
X173990Y407670D03*
X511810Y278130D03*
D39*
X453630Y396960D02*
X453630Y407910D01*
X455930Y410210D01*
D38*
X455930Y410210D03*
D39*
X511810Y278130D02*
X523400Y278130D01*
X595870Y396960D02*
X595870Y409970D01*
X595630Y410210D01*
D38*
X595630Y410210D03*
D36*
X604360Y278130D02*
X612140Y278130D01*
X614680Y280670D02*
X615950Y280670D01*
X614680Y280670D02*
X612140Y278130D01*
D38*
X615950Y280670D03*
D40*
X364555Y135825D02*
X363220Y134490D01*
X364555Y135825D02*
X365760Y137030D01*
X453241Y137160D02*
X453311Y137090D01*
X411480Y112640D02*
X411350Y112770D01*
D41*
X411480Y112640D02*
X411870Y113030D01*
X424180Y113030D01*
D38*
X424180Y113030D03*
D41*
X412750Y137090D02*
X453311Y137090D01*
X412750Y137090D02*
X365820Y137090D01*
X364555Y135825D01*
X411480Y135820D02*
X411480Y112640D01*
X411480Y135820D02*
X412750Y137090D01*
D35*
X363220Y134620D03*
D41*
X183510Y147520D02*
X165100Y165930D01*
X165100Y219710D01*
X170180Y224790D01*
X336550Y224790D01*
X341630Y219710D02*
X341630Y192880D01*
X341630Y219710D02*
X336550Y224790D01*
X341630Y192880D02*
X359180Y192880D01*
X359410Y192650D01*
X359640Y192880D01*
X377190Y192880D01*
D36*
X644770Y279400D02*
X644770Y285360D01*
X647700Y288290D01*
X664090Y288290D01*
X664210Y288170D01*
X531240Y50980D02*
X531240Y9980D01*
X494704Y71717D02*
X494704Y82710D01*
X504190Y62230D02*
X524510Y62230D01*
X531240Y55500D01*
X531240Y50980D01*
X504190Y62230D02*
X494704Y71717D01*
X609133Y255386D02*
X609133Y263693D01*
X618880Y270510D02*
X627770Y279400D01*
X615950Y270510D02*
X609133Y263693D01*
X615950Y270510D02*
X618880Y270510D01*
D38*
X492760Y50800D03*
D36*
X477520Y50800D01*
X468630Y59690D01*
X468630Y86360D01*
X596433Y132883D02*
X596433Y255386D01*
X478790Y96520D02*
X468630Y86360D01*
X478790Y96520D02*
X560070Y96520D01*
X596433Y132883D01*
D38*
X434340Y50800D03*
D36*
X455740Y50800D01*
X464630Y59690D01*
X464630Y89287D01*
X475863Y100520D01*
X583733Y237957D02*
X583733Y255386D01*
X558413Y100520D02*
X475863Y100520D01*
X558413Y100520D02*
X592433Y134540D01*
X592433Y229257D01*
X583733Y237957D01*
D38*
X377190Y50800D03*
D36*
X416560Y50800D01*
X422910Y57150D01*
X456433Y57150D01*
X460630Y61347D01*
X460630Y90944D01*
X474206Y104520D01*
X571033Y241191D02*
X571033Y255386D01*
X556756Y104520D02*
X474206Y104520D01*
X556756Y104520D02*
X588433Y136196D01*
X588433Y223791D01*
X571033Y241191D01*
D38*
X317500Y50800D03*
D36*
X325120Y58420D01*
X379730Y58420D01*
X383350Y54800D01*
X454280Y61150D02*
X456630Y63500D01*
X456630Y92601D01*
X414903Y54800D02*
X383350Y54800D01*
X414903Y54800D02*
X421253Y61150D01*
X454280Y61150D01*
X456630Y92601D02*
X472549Y108520D01*
X555099Y108520D01*
X584433Y137853D02*
X584433Y219477D01*
X558333Y245577D01*
X558333Y255386D01*
X584433Y137853D02*
X555099Y108520D01*
D38*
X259080Y50800D03*
D36*
X260350Y52070D01*
X383350Y62420D02*
X386970Y58800D01*
X413246Y58800D02*
X419596Y65150D01*
X449200Y65150D02*
X452630Y68580D01*
X452630Y94258D01*
X308610Y52070D02*
X260350Y52070D01*
X308610Y52070D02*
X318960Y62420D01*
X383350Y62420D01*
X386970Y58800D02*
X413246Y58800D01*
X419596Y65150D02*
X449200Y65150D01*
X452630Y94258D02*
X470893Y112520D01*
X506220Y112520D01*
X520233Y126533D02*
X520233Y255386D01*
X520233Y126533D02*
X506220Y112520D01*
X437060Y253110D02*
X396060Y253110D01*
X437060Y253110D02*
X454280Y253110D01*
X466090Y241300D01*
X507533Y245913D02*
X507533Y255386D01*
X502920Y241300D02*
X466090Y241300D01*
X502920Y241300D02*
X507533Y245913D01*
X650240Y34290D02*
X636270Y20320D01*
X650240Y67310D02*
X648970Y68580D01*
X650240Y67310D02*
X650240Y34290D01*
X545633Y241767D02*
X545633Y255386D01*
X545633Y241767D02*
X546100Y241300D01*
D38*
X546100Y241300D03*
X648970Y68580D03*
D36*
X623570Y33020D02*
X610870Y20320D01*
X623570Y64770D02*
X631190Y72390D01*
X623570Y64770D02*
X623570Y33020D01*
X532933Y236687D02*
X532933Y255386D01*
X532933Y236687D02*
X533400Y236220D01*
D38*
X533400Y236220D03*
X631190Y72390D03*
M02*
