G04 EAGLE Gerber RS-274X export*
G75*
%MOMM*%
%FSLAX34Y34*%
%LPD*%
%INBottom Copper*%
%IPPOS*%
%AMOC8*
5,1,8,0,0,1.08239X$1,22.5*%
G01*
%ADD10R,1.524000X1.524000*%
%ADD11R,2.025000X2.025000*%
%ADD12C,2.025000*%
%ADD13R,1.100000X1.400000*%
%ADD14C,1.879600*%
%ADD15R,2.032000X2.032000*%
%ADD16C,2.032000*%
%ADD17R,1.100000X1.000000*%
%ADD18C,1.275000*%
%ADD19C,0.756400*%
%ADD20C,0.706400*%
%ADD21C,0.200000*%
%ADD22C,0.254000*%
%ADD23C,0.406400*%

G36*
X715548Y355062D02*
X715548Y355062D01*
X715601Y355136D01*
X715661Y355205D01*
X715673Y355235D01*
X715692Y355261D01*
X715719Y355348D01*
X715753Y355433D01*
X715757Y355474D01*
X715764Y355497D01*
X715763Y355529D01*
X715771Y355600D01*
X715771Y412750D01*
X715768Y412770D01*
X715770Y412789D01*
X715748Y412891D01*
X715732Y412993D01*
X715722Y413010D01*
X715718Y413030D01*
X715665Y413119D01*
X715616Y413210D01*
X715602Y413224D01*
X715592Y413241D01*
X715513Y413308D01*
X715438Y413380D01*
X715420Y413388D01*
X715405Y413401D01*
X715309Y413440D01*
X715215Y413483D01*
X715195Y413485D01*
X715177Y413493D01*
X715010Y413511D01*
X607060Y413511D01*
X607040Y413508D01*
X607021Y413510D01*
X606919Y413488D01*
X606817Y413472D01*
X606800Y413462D01*
X606780Y413458D01*
X606691Y413405D01*
X606600Y413356D01*
X606586Y413342D01*
X606569Y413332D01*
X606502Y413253D01*
X606431Y413178D01*
X606422Y413160D01*
X606409Y413145D01*
X606370Y413049D01*
X606327Y412955D01*
X606325Y412935D01*
X606317Y412917D01*
X606299Y412750D01*
X606299Y367030D01*
X606314Y366940D01*
X606321Y366849D01*
X606333Y366819D01*
X606339Y366787D01*
X606381Y366707D01*
X606417Y366623D01*
X606443Y366591D01*
X606454Y366570D01*
X606477Y366548D01*
X606522Y366492D01*
X631699Y341315D01*
X631699Y286511D01*
X626732Y286511D01*
X626642Y286497D01*
X626551Y286489D01*
X626521Y286477D01*
X626489Y286472D01*
X626409Y286429D01*
X626325Y286393D01*
X626293Y286367D01*
X626272Y286356D01*
X626250Y286333D01*
X626194Y286288D01*
X621230Y281324D01*
X621177Y281250D01*
X621117Y281181D01*
X621105Y281151D01*
X621086Y281124D01*
X621059Y281037D01*
X621025Y280953D01*
X621021Y280912D01*
X621014Y280889D01*
X621015Y280857D01*
X621007Y280786D01*
X621007Y278575D01*
X618045Y275613D01*
X613855Y275613D01*
X610893Y278575D01*
X610893Y282765D01*
X613340Y285212D01*
X613382Y285270D01*
X613432Y285322D01*
X613454Y285369D01*
X613484Y285411D01*
X613505Y285480D01*
X613535Y285545D01*
X613541Y285597D01*
X613556Y285647D01*
X613554Y285718D01*
X613562Y285789D01*
X613551Y285840D01*
X613550Y285892D01*
X613525Y285960D01*
X613510Y286030D01*
X613483Y286074D01*
X613466Y286123D01*
X613421Y286179D01*
X613384Y286241D01*
X613344Y286275D01*
X613312Y286315D01*
X613252Y286354D01*
X613197Y286401D01*
X613149Y286420D01*
X613105Y286448D01*
X613035Y286466D01*
X612969Y286493D01*
X612898Y286501D01*
X612866Y286509D01*
X612843Y286507D01*
X612802Y286511D01*
X570470Y286511D01*
X570400Y286500D01*
X570328Y286498D01*
X570279Y286480D01*
X570227Y286472D01*
X570164Y286438D01*
X570097Y286413D01*
X570056Y286381D01*
X570010Y286356D01*
X569961Y286305D01*
X569905Y286260D01*
X569877Y286216D01*
X569841Y286178D01*
X569811Y286113D01*
X569772Y286053D01*
X569759Y286002D01*
X569737Y285955D01*
X569729Y285884D01*
X569712Y285814D01*
X569716Y285762D01*
X569710Y285711D01*
X569725Y285640D01*
X569731Y285569D01*
X569751Y285521D01*
X569762Y285470D01*
X569799Y285409D01*
X569827Y285343D01*
X569872Y285287D01*
X569888Y285259D01*
X569906Y285244D01*
X569932Y285212D01*
X571734Y283410D01*
X571808Y283357D01*
X571877Y283297D01*
X571908Y283285D01*
X571934Y283266D01*
X572021Y283239D01*
X572106Y283205D01*
X572146Y283201D01*
X572169Y283194D01*
X572201Y283195D01*
X572272Y283187D01*
X573595Y283187D01*
X576557Y280225D01*
X576557Y276035D01*
X573595Y273073D01*
X569405Y273073D01*
X566443Y276035D01*
X566443Y279898D01*
X566429Y279988D01*
X566421Y280079D01*
X566409Y280109D01*
X566404Y280140D01*
X566361Y280221D01*
X566325Y280305D01*
X566299Y280337D01*
X566288Y280358D01*
X566265Y280380D01*
X566220Y280436D01*
X565400Y281256D01*
X565326Y281309D01*
X565257Y281369D01*
X565226Y281381D01*
X565200Y281400D01*
X565113Y281427D01*
X565028Y281461D01*
X564988Y281465D01*
X564965Y281472D01*
X564933Y281471D01*
X564862Y281479D01*
X561900Y281479D01*
X561829Y281468D01*
X561757Y281466D01*
X561708Y281448D01*
X561657Y281440D01*
X561594Y281406D01*
X561526Y281381D01*
X561486Y281349D01*
X561440Y281324D01*
X561390Y281272D01*
X561334Y281228D01*
X561306Y281184D01*
X561270Y281146D01*
X561240Y281081D01*
X561201Y281021D01*
X561189Y280970D01*
X561167Y280923D01*
X561159Y280852D01*
X561141Y280782D01*
X561145Y280730D01*
X561140Y280679D01*
X561155Y280608D01*
X561160Y280537D01*
X561181Y280489D01*
X561192Y280438D01*
X561229Y280377D01*
X561257Y280311D01*
X561302Y280255D01*
X561317Y280229D01*
X561317Y276035D01*
X558355Y273073D01*
X554165Y273073D01*
X552332Y274906D01*
X552258Y274959D01*
X552189Y275019D01*
X552159Y275031D01*
X552133Y275050D01*
X552046Y275077D01*
X551961Y275111D01*
X551920Y275115D01*
X551898Y275122D01*
X551865Y275121D01*
X551794Y275129D01*
X547658Y275129D01*
X547568Y275115D01*
X547477Y275107D01*
X547447Y275095D01*
X547416Y275090D01*
X547335Y275047D01*
X547251Y275011D01*
X547219Y274985D01*
X547198Y274974D01*
X547176Y274951D01*
X547120Y274906D01*
X511224Y239010D01*
X511171Y238936D01*
X511111Y238867D01*
X511099Y238836D01*
X511080Y238810D01*
X511053Y238723D01*
X511019Y238638D01*
X511015Y238598D01*
X511008Y238575D01*
X511009Y238543D01*
X511001Y238472D01*
X511001Y193696D01*
X511015Y193606D01*
X511023Y193515D01*
X511035Y193485D01*
X511040Y193453D01*
X511083Y193372D01*
X511119Y193289D01*
X511145Y193256D01*
X511156Y193236D01*
X511179Y193214D01*
X511224Y193158D01*
X513057Y191325D01*
X513057Y187135D01*
X510095Y184173D01*
X507502Y184173D01*
X507412Y184159D01*
X507321Y184151D01*
X507291Y184139D01*
X507260Y184134D01*
X507179Y184091D01*
X507095Y184055D01*
X507063Y184029D01*
X507042Y184018D01*
X507020Y183995D01*
X506964Y183950D01*
X506334Y183320D01*
X506281Y183246D01*
X506221Y183177D01*
X506209Y183146D01*
X506190Y183120D01*
X506163Y183033D01*
X506129Y182948D01*
X506125Y182908D01*
X506118Y182885D01*
X506119Y182853D01*
X506111Y182782D01*
X506111Y130215D01*
X506125Y130125D01*
X506133Y130034D01*
X506145Y130004D01*
X506150Y129972D01*
X506193Y129892D01*
X506229Y129808D01*
X506255Y129776D01*
X506266Y129755D01*
X506289Y129733D01*
X506334Y129677D01*
X537347Y98664D01*
X537421Y98611D01*
X537490Y98551D01*
X537520Y98539D01*
X537547Y98520D01*
X537634Y98493D01*
X537718Y98459D01*
X537759Y98455D01*
X537782Y98448D01*
X537814Y98449D01*
X537885Y98441D01*
X538478Y98441D01*
X538549Y98452D01*
X538620Y98454D01*
X538669Y98472D01*
X538721Y98480D01*
X538784Y98514D01*
X538851Y98539D01*
X538892Y98571D01*
X538938Y98596D01*
X538987Y98648D01*
X539043Y98692D01*
X539071Y98736D01*
X539107Y98774D01*
X539137Y98839D01*
X539176Y98899D01*
X539189Y98950D01*
X539211Y98997D01*
X539219Y99068D01*
X539236Y99138D01*
X539232Y99190D01*
X539238Y99241D01*
X539223Y99312D01*
X539217Y99383D01*
X539197Y99431D01*
X539186Y99482D01*
X539149Y99543D01*
X539121Y99609D01*
X539076Y99665D01*
X539060Y99693D01*
X539042Y99708D01*
X539016Y99740D01*
X530399Y108357D01*
X530399Y231754D01*
X530385Y231844D01*
X530377Y231935D01*
X530365Y231965D01*
X530360Y231997D01*
X530317Y232078D01*
X530281Y232161D01*
X530255Y232194D01*
X530244Y232214D01*
X530221Y232236D01*
X530176Y232292D01*
X528343Y234125D01*
X528343Y238315D01*
X531305Y241277D01*
X535495Y241277D01*
X538457Y238315D01*
X538457Y234125D01*
X536624Y232292D01*
X536571Y232218D01*
X536511Y232149D01*
X536499Y232119D01*
X536480Y232093D01*
X536453Y232006D01*
X536419Y231921D01*
X536415Y231880D01*
X536408Y231858D01*
X536409Y231825D01*
X536401Y231754D01*
X536401Y228792D01*
X536412Y228721D01*
X536414Y228650D01*
X536432Y228601D01*
X536440Y228549D01*
X536474Y228486D01*
X536499Y228419D01*
X536531Y228378D01*
X536556Y228332D01*
X536608Y228283D01*
X536652Y228227D01*
X536696Y228199D01*
X536734Y228163D01*
X536799Y228133D01*
X536859Y228094D01*
X536910Y228081D01*
X536957Y228059D01*
X537028Y228051D01*
X537098Y228034D01*
X537150Y228038D01*
X537201Y228032D01*
X537272Y228047D01*
X537343Y228053D01*
X537391Y228073D01*
X537442Y228084D01*
X537503Y228121D01*
X537569Y228149D01*
X537625Y228194D01*
X537653Y228210D01*
X537668Y228228D01*
X537700Y228254D01*
X542876Y233430D01*
X542929Y233504D01*
X542989Y233573D01*
X543001Y233604D01*
X543020Y233630D01*
X543047Y233717D01*
X543081Y233802D01*
X543085Y233842D01*
X543092Y233865D01*
X543091Y233897D01*
X543099Y233968D01*
X543099Y236834D01*
X543085Y236924D01*
X543077Y237015D01*
X543065Y237045D01*
X543060Y237077D01*
X543017Y237158D01*
X542981Y237241D01*
X542955Y237274D01*
X542944Y237294D01*
X542921Y237316D01*
X542876Y237372D01*
X541043Y239205D01*
X541043Y243395D01*
X544005Y246357D01*
X548195Y246357D01*
X551157Y243395D01*
X551157Y239205D01*
X549324Y237372D01*
X549271Y237298D01*
X549211Y237229D01*
X549199Y237199D01*
X549180Y237173D01*
X549153Y237086D01*
X549119Y237001D01*
X549115Y236960D01*
X549108Y236938D01*
X549109Y236905D01*
X549101Y236834D01*
X549101Y231167D01*
X540624Y222690D01*
X540571Y222616D01*
X540511Y222547D01*
X540499Y222516D01*
X540480Y222490D01*
X540453Y222403D01*
X540419Y222318D01*
X540415Y222278D01*
X540408Y222255D01*
X540409Y222223D01*
X540401Y222152D01*
X540401Y113698D01*
X540415Y113608D01*
X540423Y113517D01*
X540435Y113487D01*
X540440Y113456D01*
X540483Y113375D01*
X540519Y113291D01*
X540545Y113259D01*
X540556Y113238D01*
X540579Y113216D01*
X540624Y113160D01*
X547120Y106664D01*
X547194Y106611D01*
X547263Y106551D01*
X547294Y106539D01*
X547320Y106520D01*
X547407Y106493D01*
X547492Y106459D01*
X547532Y106455D01*
X547555Y106448D01*
X547587Y106449D01*
X547658Y106441D01*
X591107Y106441D01*
X613044Y84504D01*
X613118Y84451D01*
X613187Y84391D01*
X613217Y84379D01*
X613243Y84360D01*
X613330Y84333D01*
X615180Y82484D01*
X615180Y82479D01*
X615223Y82399D01*
X615259Y82315D01*
X615285Y82283D01*
X615296Y82262D01*
X615319Y82240D01*
X615364Y82184D01*
X615878Y81670D01*
X615952Y81617D01*
X616021Y81557D01*
X616051Y81545D01*
X616077Y81526D01*
X616164Y81499D01*
X616249Y81465D01*
X616290Y81461D01*
X616313Y81454D01*
X616345Y81455D01*
X616416Y81447D01*
X640347Y81447D01*
X647934Y73860D01*
X648008Y73807D01*
X648077Y73747D01*
X648108Y73735D01*
X648134Y73716D01*
X648221Y73689D01*
X648306Y73655D01*
X648346Y73651D01*
X648369Y73644D01*
X648401Y73645D01*
X648472Y73637D01*
X651065Y73637D01*
X654027Y70675D01*
X654027Y66485D01*
X651065Y63523D01*
X646875Y63523D01*
X643913Y66485D01*
X643913Y69078D01*
X643899Y69168D01*
X643891Y69259D01*
X643879Y69289D01*
X643874Y69320D01*
X643831Y69401D01*
X643795Y69485D01*
X643769Y69517D01*
X643758Y69538D01*
X643735Y69560D01*
X643690Y69616D01*
X638084Y75222D01*
X638010Y75275D01*
X637941Y75335D01*
X637910Y75347D01*
X637884Y75366D01*
X637797Y75393D01*
X637712Y75427D01*
X637672Y75431D01*
X637649Y75438D01*
X637617Y75437D01*
X637546Y75445D01*
X637008Y75445D01*
X636988Y75442D01*
X636969Y75444D01*
X636867Y75422D01*
X636765Y75406D01*
X636748Y75396D01*
X636728Y75392D01*
X636639Y75339D01*
X636548Y75290D01*
X636534Y75276D01*
X636517Y75266D01*
X636450Y75187D01*
X636378Y75112D01*
X636370Y75094D01*
X636357Y75079D01*
X636318Y74983D01*
X636275Y74889D01*
X636273Y74869D01*
X636265Y74851D01*
X636247Y74684D01*
X636247Y70295D01*
X633285Y67333D01*
X629095Y67333D01*
X627262Y69166D01*
X627188Y69219D01*
X627119Y69279D01*
X627089Y69291D01*
X627063Y69310D01*
X626976Y69337D01*
X626891Y69371D01*
X626850Y69375D01*
X626828Y69382D01*
X626795Y69381D01*
X626724Y69389D01*
X618682Y69389D01*
X618611Y69378D01*
X618540Y69376D01*
X618491Y69358D01*
X618439Y69350D01*
X618376Y69316D01*
X618309Y69291D01*
X618268Y69259D01*
X618222Y69234D01*
X618173Y69182D01*
X618117Y69138D01*
X618089Y69094D01*
X618053Y69056D01*
X618023Y68991D01*
X617984Y68931D01*
X617971Y68880D01*
X617949Y68833D01*
X617941Y68762D01*
X617924Y68692D01*
X617928Y68640D01*
X617922Y68589D01*
X617937Y68518D01*
X617943Y68447D01*
X617963Y68399D01*
X617974Y68348D01*
X618011Y68287D01*
X618039Y68221D01*
X618084Y68165D01*
X618100Y68137D01*
X618118Y68122D01*
X618144Y68090D01*
X630551Y55683D01*
X630645Y55615D01*
X630740Y55545D01*
X630746Y55543D01*
X630751Y55539D01*
X630862Y55505D01*
X630974Y55468D01*
X630980Y55468D01*
X630986Y55467D01*
X631103Y55470D01*
X631220Y55471D01*
X631227Y55473D01*
X631232Y55473D01*
X631249Y55479D01*
X631381Y55517D01*
X634097Y56643D01*
X638443Y56643D01*
X642457Y54980D01*
X645530Y51907D01*
X647193Y47893D01*
X647193Y43547D01*
X645530Y39533D01*
X642457Y36460D01*
X638443Y34797D01*
X634097Y34797D01*
X630083Y36460D01*
X627010Y39533D01*
X625347Y43547D01*
X625347Y47893D01*
X626473Y50609D01*
X626499Y50723D01*
X626528Y50836D01*
X626527Y50843D01*
X626529Y50849D01*
X626518Y50965D01*
X626509Y51082D01*
X626506Y51087D01*
X626506Y51094D01*
X626458Y51201D01*
X626412Y51308D01*
X626408Y51314D01*
X626406Y51318D01*
X626393Y51332D01*
X626307Y51439D01*
X585530Y92216D01*
X585456Y92269D01*
X585387Y92329D01*
X585356Y92341D01*
X585330Y92360D01*
X585243Y92387D01*
X585158Y92421D01*
X585118Y92425D01*
X585095Y92432D01*
X585063Y92431D01*
X584992Y92439D01*
X584202Y92439D01*
X584131Y92428D01*
X584060Y92426D01*
X584011Y92408D01*
X583959Y92400D01*
X583896Y92366D01*
X583829Y92341D01*
X583788Y92309D01*
X583742Y92284D01*
X583693Y92232D01*
X583637Y92188D01*
X583609Y92144D01*
X583573Y92106D01*
X583543Y92041D01*
X583504Y91981D01*
X583491Y91930D01*
X583469Y91883D01*
X583461Y91812D01*
X583444Y91742D01*
X583448Y91690D01*
X583442Y91639D01*
X583457Y91568D01*
X583463Y91497D01*
X583483Y91449D01*
X583494Y91398D01*
X583531Y91337D01*
X583559Y91271D01*
X583604Y91215D01*
X583620Y91187D01*
X583638Y91172D01*
X583664Y91140D01*
X613871Y60933D01*
X613871Y56808D01*
X613874Y56790D01*
X613872Y56772D01*
X613891Y56683D01*
X613907Y56577D01*
X613909Y56572D01*
X613910Y56566D01*
X613921Y56546D01*
X613924Y56532D01*
X613963Y56466D01*
X613965Y56463D01*
X614018Y56358D01*
X614023Y56354D01*
X614026Y56348D01*
X614044Y56331D01*
X614050Y56321D01*
X614096Y56281D01*
X614110Y56268D01*
X614194Y56186D01*
X614200Y56182D01*
X614204Y56179D01*
X614221Y56171D01*
X614232Y56165D01*
X614237Y56161D01*
X614247Y56157D01*
X614341Y56105D01*
X617057Y54980D01*
X620130Y51907D01*
X621793Y47893D01*
X621793Y43547D01*
X620130Y39533D01*
X617057Y36460D01*
X613043Y34797D01*
X608697Y34797D01*
X604683Y36460D01*
X601610Y39533D01*
X599947Y43547D01*
X599947Y47893D01*
X601610Y51907D01*
X604683Y54980D01*
X607399Y56105D01*
X607499Y56167D01*
X607522Y56180D01*
X607568Y56205D01*
X607575Y56212D01*
X607599Y56227D01*
X607603Y56231D01*
X607608Y56235D01*
X607683Y56324D01*
X607693Y56336D01*
X607738Y56383D01*
X607743Y56395D01*
X607759Y56414D01*
X607761Y56419D01*
X607765Y56424D01*
X607807Y56532D01*
X607807Y56533D01*
X607841Y56606D01*
X607843Y56622D01*
X607851Y56642D01*
X607852Y56649D01*
X607853Y56654D01*
X607854Y56672D01*
X607869Y56808D01*
X607869Y58132D01*
X607855Y58222D01*
X607847Y58313D01*
X607835Y58343D01*
X607830Y58374D01*
X607787Y58455D01*
X607751Y58539D01*
X607725Y58571D01*
X607714Y58592D01*
X607691Y58614D01*
X607646Y58670D01*
X589770Y76546D01*
X589712Y76588D01*
X589660Y76637D01*
X589613Y76659D01*
X589571Y76690D01*
X589502Y76711D01*
X589437Y76741D01*
X589385Y76747D01*
X589335Y76762D01*
X589264Y76760D01*
X589193Y76768D01*
X589142Y76757D01*
X589090Y76756D01*
X589022Y76731D01*
X588952Y76716D01*
X588907Y76689D01*
X588859Y76671D01*
X588803Y76626D01*
X588741Y76590D01*
X588707Y76550D01*
X588667Y76517D01*
X588628Y76457D01*
X588581Y76403D01*
X588562Y76354D01*
X588534Y76311D01*
X588516Y76241D01*
X588489Y76175D01*
X588481Y76103D01*
X588473Y76072D01*
X588475Y76049D01*
X588471Y76008D01*
X588471Y56808D01*
X588474Y56790D01*
X588472Y56772D01*
X588491Y56683D01*
X588507Y56577D01*
X588509Y56572D01*
X588510Y56566D01*
X588521Y56546D01*
X588524Y56532D01*
X588563Y56466D01*
X588565Y56463D01*
X588618Y56358D01*
X588623Y56354D01*
X588626Y56348D01*
X588644Y56331D01*
X588650Y56321D01*
X588696Y56281D01*
X588710Y56268D01*
X588794Y56186D01*
X588800Y56182D01*
X588804Y56179D01*
X588821Y56171D01*
X588832Y56165D01*
X588837Y56161D01*
X588847Y56157D01*
X588941Y56105D01*
X591657Y54980D01*
X594730Y51907D01*
X596393Y47893D01*
X596393Y43547D01*
X594730Y39533D01*
X591657Y36460D01*
X587643Y34797D01*
X583297Y34797D01*
X579283Y36460D01*
X576210Y39533D01*
X574547Y43547D01*
X574547Y47893D01*
X576210Y51907D01*
X579283Y54980D01*
X581999Y56105D01*
X582099Y56167D01*
X582122Y56180D01*
X582168Y56205D01*
X582175Y56212D01*
X582199Y56227D01*
X582203Y56231D01*
X582208Y56235D01*
X582283Y56324D01*
X582293Y56336D01*
X582338Y56383D01*
X582343Y56395D01*
X582359Y56414D01*
X582361Y56419D01*
X582365Y56424D01*
X582407Y56532D01*
X582407Y56533D01*
X582441Y56606D01*
X582443Y56622D01*
X582451Y56642D01*
X582452Y56649D01*
X582453Y56654D01*
X582454Y56672D01*
X582469Y56808D01*
X582469Y73372D01*
X582455Y73462D01*
X582447Y73553D01*
X582435Y73583D01*
X582430Y73614D01*
X582387Y73695D01*
X582351Y73779D01*
X582325Y73811D01*
X582314Y73832D01*
X582291Y73854D01*
X582246Y73910D01*
X571940Y84216D01*
X571866Y84269D01*
X571797Y84329D01*
X571766Y84341D01*
X571740Y84360D01*
X571653Y84387D01*
X571568Y84421D01*
X571528Y84425D01*
X571505Y84432D01*
X571473Y84431D01*
X571402Y84439D01*
X554992Y84439D01*
X554921Y84428D01*
X554850Y84426D01*
X554801Y84408D01*
X554749Y84400D01*
X554686Y84366D01*
X554619Y84341D01*
X554578Y84309D01*
X554532Y84284D01*
X554483Y84232D01*
X554427Y84188D01*
X554399Y84144D01*
X554363Y84106D01*
X554333Y84041D01*
X554294Y83981D01*
X554281Y83930D01*
X554259Y83883D01*
X554251Y83812D01*
X554234Y83742D01*
X554238Y83690D01*
X554232Y83639D01*
X554247Y83568D01*
X554253Y83497D01*
X554273Y83449D01*
X554284Y83398D01*
X554321Y83337D01*
X554349Y83271D01*
X554394Y83215D01*
X554410Y83187D01*
X554428Y83172D01*
X554454Y83140D01*
X561090Y76504D01*
X563071Y74523D01*
X563071Y56808D01*
X563074Y56790D01*
X563072Y56772D01*
X563091Y56683D01*
X563107Y56577D01*
X563109Y56572D01*
X563110Y56566D01*
X563121Y56546D01*
X563124Y56532D01*
X563163Y56466D01*
X563165Y56463D01*
X563218Y56358D01*
X563223Y56354D01*
X563226Y56348D01*
X563244Y56331D01*
X563250Y56321D01*
X563296Y56281D01*
X563310Y56268D01*
X563394Y56186D01*
X563400Y56182D01*
X563404Y56179D01*
X563421Y56171D01*
X563432Y56165D01*
X563437Y56161D01*
X563447Y56157D01*
X563541Y56105D01*
X566257Y54980D01*
X569330Y51907D01*
X570993Y47893D01*
X570993Y43547D01*
X569330Y39533D01*
X566257Y36460D01*
X562243Y34797D01*
X557897Y34797D01*
X553883Y36460D01*
X550810Y39533D01*
X549147Y43547D01*
X549147Y47893D01*
X550810Y51907D01*
X553883Y54980D01*
X556599Y56105D01*
X556699Y56167D01*
X556722Y56180D01*
X556768Y56205D01*
X556775Y56212D01*
X556799Y56227D01*
X556803Y56231D01*
X556808Y56235D01*
X556883Y56324D01*
X556893Y56336D01*
X556938Y56383D01*
X556943Y56395D01*
X556959Y56414D01*
X556961Y56419D01*
X556965Y56424D01*
X557007Y56532D01*
X557007Y56533D01*
X557041Y56606D01*
X557043Y56622D01*
X557051Y56642D01*
X557052Y56649D01*
X557053Y56654D01*
X557054Y56672D01*
X557069Y56808D01*
X557069Y71722D01*
X557055Y71812D01*
X557047Y71903D01*
X557035Y71933D01*
X557030Y71964D01*
X556987Y72045D01*
X556951Y72129D01*
X556925Y72161D01*
X556914Y72182D01*
X556891Y72204D01*
X556846Y72260D01*
X548890Y80216D01*
X548816Y80269D01*
X548747Y80329D01*
X548716Y80341D01*
X548690Y80360D01*
X548603Y80387D01*
X548518Y80421D01*
X548478Y80425D01*
X548455Y80432D01*
X548423Y80431D01*
X548352Y80439D01*
X530113Y80439D01*
X488109Y122443D01*
X488109Y190015D01*
X488095Y190105D01*
X488087Y190196D01*
X488075Y190226D01*
X488070Y190258D01*
X488027Y190338D01*
X487991Y190422D01*
X487965Y190454D01*
X487954Y190475D01*
X487931Y190497D01*
X487922Y190509D01*
X487914Y190521D01*
X487906Y190528D01*
X487886Y190553D01*
X470709Y207730D01*
X470709Y221594D01*
X470695Y221684D01*
X470687Y221775D01*
X470675Y221805D01*
X470670Y221837D01*
X470627Y221918D01*
X470591Y222001D01*
X470565Y222034D01*
X470554Y222054D01*
X470531Y222076D01*
X470486Y222132D01*
X468653Y223965D01*
X468653Y228155D01*
X471615Y231117D01*
X475805Y231117D01*
X478767Y228155D01*
X478767Y223965D01*
X476934Y222132D01*
X476881Y222058D01*
X476821Y221989D01*
X476809Y221959D01*
X476790Y221933D01*
X476763Y221846D01*
X476729Y221761D01*
X476725Y221720D01*
X476718Y221698D01*
X476719Y221665D01*
X476711Y221594D01*
X476711Y217730D01*
X476722Y217659D01*
X476724Y217587D01*
X476742Y217538D01*
X476750Y217487D01*
X476784Y217424D01*
X476809Y217356D01*
X476841Y217316D01*
X476866Y217270D01*
X476918Y217220D01*
X476962Y217164D01*
X477006Y217136D01*
X477044Y217100D01*
X477109Y217070D01*
X477169Y217031D01*
X477220Y217019D01*
X477267Y216997D01*
X477338Y216989D01*
X477408Y216971D01*
X477460Y216975D01*
X477511Y216970D01*
X477582Y216985D01*
X477653Y216990D01*
X477701Y217011D01*
X477752Y217022D01*
X477813Y217059D01*
X477879Y217087D01*
X477935Y217132D01*
X477963Y217148D01*
X477978Y217166D01*
X478010Y217192D01*
X479235Y218417D01*
X483425Y218417D01*
X486387Y215455D01*
X486387Y211265D01*
X484554Y209432D01*
X484501Y209358D01*
X484441Y209289D01*
X484429Y209259D01*
X484410Y209233D01*
X484383Y209146D01*
X484349Y209061D01*
X484345Y209020D01*
X484338Y208998D01*
X484339Y208965D01*
X484331Y208894D01*
X484331Y208568D01*
X484345Y208478D01*
X484353Y208387D01*
X484365Y208357D01*
X484370Y208326D01*
X484413Y208245D01*
X484449Y208161D01*
X484475Y208129D01*
X484486Y208108D01*
X484509Y208086D01*
X484554Y208030D01*
X492754Y199830D01*
X492812Y199788D01*
X492864Y199739D01*
X492911Y199717D01*
X492953Y199686D01*
X493022Y199665D01*
X493087Y199635D01*
X493139Y199629D01*
X493189Y199614D01*
X493260Y199616D01*
X493331Y199608D01*
X493382Y199619D01*
X493434Y199620D01*
X493502Y199645D01*
X493572Y199660D01*
X493617Y199687D01*
X493665Y199705D01*
X493721Y199750D01*
X493783Y199786D01*
X493817Y199826D01*
X493857Y199859D01*
X493896Y199919D01*
X493943Y199973D01*
X493962Y200022D01*
X493990Y200065D01*
X494008Y200135D01*
X494035Y200201D01*
X494043Y200273D01*
X494051Y200304D01*
X494049Y200327D01*
X494053Y200368D01*
X494053Y202755D01*
X497015Y205717D01*
X499158Y205717D01*
X499178Y205720D01*
X499197Y205718D01*
X499299Y205740D01*
X499401Y205756D01*
X499418Y205766D01*
X499438Y205770D01*
X499527Y205823D01*
X499618Y205872D01*
X499632Y205886D01*
X499649Y205896D01*
X499716Y205975D01*
X499788Y206050D01*
X499796Y206068D01*
X499809Y206083D01*
X499848Y206179D01*
X499891Y206273D01*
X499893Y206293D01*
X499901Y206311D01*
X499919Y206478D01*
X499919Y241850D01*
X545550Y287481D01*
X560070Y287481D01*
X560090Y287484D01*
X560109Y287482D01*
X560211Y287504D01*
X560313Y287520D01*
X560330Y287530D01*
X560350Y287534D01*
X560439Y287587D01*
X560530Y287636D01*
X560544Y287650D01*
X560561Y287660D01*
X560628Y287739D01*
X560700Y287814D01*
X560708Y287832D01*
X560721Y287847D01*
X560760Y287943D01*
X560803Y288037D01*
X560805Y288057D01*
X560813Y288075D01*
X560831Y288242D01*
X560831Y412750D01*
X560828Y412770D01*
X560830Y412789D01*
X560808Y412891D01*
X560792Y412993D01*
X560782Y413010D01*
X560778Y413030D01*
X560725Y413119D01*
X560676Y413210D01*
X560662Y413224D01*
X560652Y413241D01*
X560573Y413308D01*
X560498Y413380D01*
X560480Y413388D01*
X560465Y413401D01*
X560369Y413440D01*
X560275Y413483D01*
X560255Y413485D01*
X560237Y413493D01*
X560070Y413511D01*
X464820Y413511D01*
X464800Y413508D01*
X464781Y413510D01*
X464679Y413488D01*
X464577Y413472D01*
X464560Y413462D01*
X464540Y413458D01*
X464451Y413405D01*
X464360Y413356D01*
X464346Y413342D01*
X464329Y413332D01*
X464262Y413253D01*
X464191Y413178D01*
X464182Y413160D01*
X464169Y413145D01*
X464130Y413049D01*
X464087Y412955D01*
X464085Y412935D01*
X464077Y412917D01*
X464059Y412750D01*
X464059Y367030D01*
X464074Y366940D01*
X464081Y366849D01*
X464093Y366819D01*
X464099Y366787D01*
X464141Y366707D01*
X464177Y366623D01*
X464203Y366591D01*
X464214Y366570D01*
X464237Y366548D01*
X464282Y366492D01*
X498349Y332425D01*
X498349Y286511D01*
X492112Y286511D01*
X492041Y286500D01*
X491970Y286498D01*
X491921Y286480D01*
X491869Y286472D01*
X491806Y286438D01*
X491739Y286413D01*
X491698Y286381D01*
X491652Y286356D01*
X491603Y286305D01*
X491547Y286260D01*
X491518Y286216D01*
X491483Y286178D01*
X491452Y286113D01*
X491414Y286053D01*
X491401Y286002D01*
X491379Y285955D01*
X491371Y285884D01*
X491354Y285814D01*
X491358Y285762D01*
X491352Y285711D01*
X491367Y285640D01*
X491373Y285569D01*
X491393Y285521D01*
X491404Y285470D01*
X491441Y285409D01*
X491469Y285343D01*
X491514Y285287D01*
X491530Y285259D01*
X491548Y285244D01*
X491574Y285212D01*
X495162Y281624D01*
X495236Y281571D01*
X495305Y281511D01*
X495335Y281499D01*
X495362Y281480D01*
X495449Y281453D01*
X495533Y281419D01*
X495574Y281415D01*
X495597Y281408D01*
X495629Y281409D01*
X495700Y281401D01*
X507614Y281401D01*
X507704Y281415D01*
X507795Y281423D01*
X507825Y281435D01*
X507857Y281440D01*
X507938Y281483D01*
X508021Y281519D01*
X508054Y281545D01*
X508074Y281556D01*
X508096Y281579D01*
X508152Y281624D01*
X509715Y283187D01*
X513905Y283187D01*
X516867Y280225D01*
X516867Y276035D01*
X513905Y273073D01*
X509715Y273073D01*
X508152Y274636D01*
X508078Y274689D01*
X508009Y274749D01*
X507979Y274761D01*
X507953Y274780D01*
X507866Y274807D01*
X507781Y274841D01*
X507740Y274845D01*
X507718Y274852D01*
X507685Y274851D01*
X507614Y274859D01*
X492675Y274859D01*
X490536Y276998D01*
X481246Y286288D01*
X481172Y286341D01*
X481103Y286401D01*
X481073Y286413D01*
X481046Y286432D01*
X480959Y286459D01*
X480875Y286493D01*
X480834Y286497D01*
X480811Y286504D01*
X480779Y286503D01*
X480708Y286511D01*
X418591Y286511D01*
X418591Y412750D01*
X418588Y412770D01*
X418590Y412789D01*
X418568Y412891D01*
X418552Y412993D01*
X418542Y413010D01*
X418538Y413030D01*
X418485Y413119D01*
X418436Y413210D01*
X418422Y413224D01*
X418412Y413241D01*
X418333Y413308D01*
X418258Y413380D01*
X418240Y413388D01*
X418225Y413401D01*
X418129Y413440D01*
X418035Y413483D01*
X418015Y413485D01*
X417997Y413493D01*
X417830Y413511D01*
X323850Y413511D01*
X323830Y413508D01*
X323811Y413510D01*
X323709Y413488D01*
X323607Y413472D01*
X323590Y413462D01*
X323570Y413458D01*
X323481Y413405D01*
X323390Y413356D01*
X323376Y413342D01*
X323359Y413332D01*
X323292Y413253D01*
X323221Y413178D01*
X323212Y413160D01*
X323199Y413145D01*
X323160Y413049D01*
X323117Y412955D01*
X323115Y412935D01*
X323107Y412917D01*
X323089Y412750D01*
X323089Y367030D01*
X323104Y366940D01*
X323111Y366849D01*
X323123Y366819D01*
X323129Y366787D01*
X323171Y366707D01*
X323207Y366623D01*
X323233Y366591D01*
X323244Y366570D01*
X323267Y366548D01*
X323312Y366492D01*
X356109Y333695D01*
X356109Y286511D01*
X349472Y286511D01*
X349452Y286508D01*
X349433Y286510D01*
X349331Y286488D01*
X349229Y286472D01*
X349212Y286462D01*
X349192Y286458D01*
X349103Y286405D01*
X349012Y286356D01*
X348998Y286342D01*
X348981Y286332D01*
X348914Y286253D01*
X348842Y286178D01*
X348834Y286160D01*
X348821Y286145D01*
X348782Y286049D01*
X348739Y285955D01*
X348737Y285935D01*
X348729Y285917D01*
X348711Y285750D01*
X348711Y279786D01*
X348725Y279696D01*
X348733Y279605D01*
X348745Y279575D01*
X348750Y279543D01*
X348793Y279462D01*
X348829Y279379D01*
X348855Y279346D01*
X348866Y279326D01*
X348889Y279304D01*
X348934Y279248D01*
X350497Y277685D01*
X350497Y273495D01*
X347535Y270533D01*
X343345Y270533D01*
X340383Y273495D01*
X340383Y277685D01*
X341946Y279248D01*
X341999Y279322D01*
X342059Y279391D01*
X342071Y279421D01*
X342090Y279447D01*
X342117Y279534D01*
X342151Y279619D01*
X342155Y279660D01*
X342162Y279682D01*
X342161Y279715D01*
X342169Y279786D01*
X342169Y285750D01*
X342166Y285770D01*
X342168Y285789D01*
X342146Y285891D01*
X342130Y285993D01*
X342120Y286010D01*
X342116Y286030D01*
X342063Y286119D01*
X342014Y286210D01*
X342000Y286224D01*
X341990Y286241D01*
X341911Y286308D01*
X341836Y286380D01*
X341818Y286388D01*
X341803Y286401D01*
X341707Y286440D01*
X341613Y286483D01*
X341593Y286485D01*
X341575Y286493D01*
X341408Y286511D01*
X276351Y286511D01*
X276351Y412750D01*
X276348Y412770D01*
X276350Y412789D01*
X276328Y412891D01*
X276312Y412993D01*
X276302Y413010D01*
X276298Y413030D01*
X276245Y413119D01*
X276196Y413210D01*
X276182Y413224D01*
X276172Y413241D01*
X276093Y413308D01*
X276018Y413380D01*
X276000Y413388D01*
X275985Y413401D01*
X275889Y413440D01*
X275795Y413483D01*
X275775Y413485D01*
X275757Y413493D01*
X275590Y413511D01*
X182880Y413511D01*
X182860Y413508D01*
X182841Y413510D01*
X182739Y413488D01*
X182637Y413472D01*
X182620Y413462D01*
X182600Y413458D01*
X182511Y413405D01*
X182420Y413356D01*
X182406Y413342D01*
X182389Y413332D01*
X182322Y413253D01*
X182251Y413178D01*
X182242Y413160D01*
X182229Y413145D01*
X182190Y413049D01*
X182147Y412955D01*
X182145Y412935D01*
X182137Y412917D01*
X182119Y412750D01*
X182119Y369570D01*
X182134Y369480D01*
X182141Y369389D01*
X182153Y369359D01*
X182159Y369327D01*
X182201Y369247D01*
X182237Y369163D01*
X182263Y369131D01*
X182274Y369110D01*
X182297Y369088D01*
X182342Y369032D01*
X237999Y313375D01*
X237999Y286511D01*
X209772Y286511D01*
X209752Y286508D01*
X209733Y286510D01*
X209631Y286488D01*
X209529Y286472D01*
X209512Y286462D01*
X209492Y286458D01*
X209403Y286405D01*
X209312Y286356D01*
X209298Y286342D01*
X209281Y286332D01*
X209214Y286253D01*
X209142Y286178D01*
X209134Y286160D01*
X209121Y286145D01*
X209082Y286049D01*
X209039Y285955D01*
X209037Y285935D01*
X209029Y285917D01*
X209011Y285750D01*
X209011Y283610D01*
X209025Y283520D01*
X209033Y283429D01*
X209045Y283399D01*
X209050Y283367D01*
X209093Y283287D01*
X209129Y283203D01*
X209155Y283171D01*
X209166Y283150D01*
X209189Y283128D01*
X209234Y283072D01*
X212706Y279600D01*
X212780Y279547D01*
X212849Y279487D01*
X212879Y279475D01*
X212906Y279456D01*
X212993Y279429D01*
X213077Y279395D01*
X213118Y279391D01*
X213141Y279384D01*
X213173Y279385D01*
X213244Y279377D01*
X215455Y279377D01*
X218417Y276415D01*
X218417Y272225D01*
X215455Y269263D01*
X211265Y269263D01*
X208303Y272225D01*
X208303Y274436D01*
X208289Y274526D01*
X208281Y274617D01*
X208269Y274647D01*
X208264Y274679D01*
X208221Y274759D01*
X208185Y274843D01*
X208159Y274875D01*
X208148Y274896D01*
X208125Y274918D01*
X208080Y274974D01*
X202469Y280585D01*
X202469Y285750D01*
X202466Y285770D01*
X202468Y285789D01*
X202446Y285891D01*
X202430Y285993D01*
X202420Y286010D01*
X202416Y286030D01*
X202363Y286119D01*
X202314Y286210D01*
X202300Y286224D01*
X202290Y286241D01*
X202211Y286308D01*
X202136Y286380D01*
X202118Y286388D01*
X202103Y286401D01*
X202007Y286440D01*
X201913Y286483D01*
X201893Y286485D01*
X201875Y286493D01*
X201708Y286511D01*
X161912Y286511D01*
X161841Y286500D01*
X161770Y286498D01*
X161721Y286480D01*
X161669Y286472D01*
X161606Y286438D01*
X161539Y286413D01*
X161498Y286381D01*
X161452Y286356D01*
X161403Y286305D01*
X161347Y286260D01*
X161318Y286216D01*
X161283Y286178D01*
X161252Y286113D01*
X161214Y286053D01*
X161201Y286002D01*
X161179Y285955D01*
X161171Y285884D01*
X161154Y285814D01*
X161158Y285762D01*
X161152Y285711D01*
X161167Y285640D01*
X161173Y285569D01*
X161193Y285521D01*
X161204Y285470D01*
X161241Y285409D01*
X161269Y285343D01*
X161314Y285287D01*
X161330Y285259D01*
X161348Y285244D01*
X161374Y285212D01*
X166986Y279600D01*
X167060Y279547D01*
X167129Y279487D01*
X167159Y279475D01*
X167186Y279456D01*
X167273Y279429D01*
X167357Y279395D01*
X167398Y279391D01*
X167421Y279384D01*
X167453Y279385D01*
X167524Y279377D01*
X169735Y279377D01*
X172697Y276415D01*
X172697Y272225D01*
X169735Y269263D01*
X165545Y269263D01*
X162583Y272225D01*
X162583Y274436D01*
X162569Y274526D01*
X162561Y274617D01*
X162549Y274647D01*
X162544Y274679D01*
X162501Y274759D01*
X162465Y274843D01*
X162439Y274875D01*
X162428Y274896D01*
X162405Y274918D01*
X162360Y274974D01*
X151046Y286288D01*
X150972Y286341D01*
X150903Y286401D01*
X150873Y286413D01*
X150846Y286432D01*
X150759Y286459D01*
X150675Y286493D01*
X150634Y286497D01*
X150611Y286504D01*
X150579Y286503D01*
X150508Y286511D01*
X122412Y286511D01*
X122392Y286508D01*
X122373Y286510D01*
X122271Y286488D01*
X122169Y286472D01*
X122152Y286462D01*
X122132Y286458D01*
X122043Y286405D01*
X121952Y286356D01*
X121938Y286342D01*
X121921Y286332D01*
X121854Y286253D01*
X121782Y286178D01*
X121774Y286160D01*
X121761Y286145D01*
X121722Y286049D01*
X121679Y285955D01*
X121677Y285935D01*
X121669Y285917D01*
X121651Y285750D01*
X121651Y221835D01*
X121065Y221249D01*
X82135Y221249D01*
X81549Y221835D01*
X81549Y285750D01*
X81546Y285770D01*
X81548Y285789D01*
X81526Y285891D01*
X81510Y285993D01*
X81500Y286010D01*
X81496Y286030D01*
X81443Y286119D01*
X81394Y286210D01*
X81380Y286224D01*
X81370Y286241D01*
X81291Y286308D01*
X81216Y286380D01*
X81198Y286388D01*
X81183Y286401D01*
X81087Y286440D01*
X80993Y286483D01*
X80973Y286485D01*
X80955Y286493D01*
X80788Y286511D01*
X3524Y286511D01*
X3504Y286508D01*
X3485Y286510D01*
X3383Y286488D01*
X3281Y286472D01*
X3264Y286462D01*
X3244Y286458D01*
X3155Y286405D01*
X3064Y286356D01*
X3050Y286342D01*
X3033Y286332D01*
X2966Y286253D01*
X2894Y286178D01*
X2886Y286160D01*
X2873Y286145D01*
X2834Y286049D01*
X2791Y285955D01*
X2789Y285935D01*
X2781Y285917D01*
X2763Y285750D01*
X2763Y52242D01*
X2764Y52232D01*
X2763Y52222D01*
X2765Y52213D01*
X2764Y52204D01*
X2784Y52110D01*
X2802Y51999D01*
X2807Y51990D01*
X2809Y51981D01*
X2815Y51970D01*
X2816Y51964D01*
X2853Y51903D01*
X2865Y51882D01*
X2918Y51782D01*
X2925Y51775D01*
X2929Y51766D01*
X2940Y51757D01*
X2942Y51753D01*
X2980Y51721D01*
X3014Y51690D01*
X3096Y51612D01*
X3105Y51608D01*
X3112Y51602D01*
X3127Y51595D01*
X3129Y51593D01*
X3162Y51580D01*
X3216Y51556D01*
X3319Y51509D01*
X3329Y51508D01*
X3338Y51504D01*
X3355Y51502D01*
X3357Y51501D01*
X3524Y51483D01*
X3525Y51483D01*
X3536Y51485D01*
X3563Y51481D01*
X3573Y51484D01*
X3583Y51483D01*
X3693Y51510D01*
X3704Y51512D01*
X3767Y51522D01*
X3778Y51528D01*
X3804Y51534D01*
X3812Y51539D01*
X3822Y51541D01*
X3918Y51602D01*
X3920Y51603D01*
X3985Y51638D01*
X3995Y51648D01*
X4015Y51660D01*
X4021Y51667D01*
X4030Y51673D01*
X4097Y51756D01*
X4154Y51816D01*
X4161Y51831D01*
X4175Y51847D01*
X4178Y51856D01*
X4185Y51863D01*
X4251Y52017D01*
X6572Y59540D01*
X7534Y60951D01*
X8572Y62473D01*
X8572Y62474D01*
X10129Y64757D01*
X11167Y66280D01*
X12205Y67802D01*
X12724Y68563D01*
X13395Y69547D01*
X22864Y77098D01*
X34138Y81523D01*
X46216Y82429D01*
X48308Y81951D01*
X51643Y81190D01*
X54978Y80429D01*
X58025Y79733D01*
X68514Y73677D01*
X76752Y64799D01*
X82007Y53887D01*
X83812Y41910D01*
X82007Y29933D01*
X76752Y19021D01*
X68514Y10143D01*
X58192Y4183D01*
X58155Y4153D01*
X58112Y4130D01*
X58060Y4075D01*
X58002Y4027D01*
X57976Y3987D01*
X57943Y3952D01*
X57911Y3883D01*
X57871Y3819D01*
X57860Y3772D01*
X57839Y3729D01*
X57831Y3654D01*
X57813Y3580D01*
X57818Y3532D01*
X57812Y3485D01*
X57828Y3410D01*
X57835Y3335D01*
X57854Y3291D01*
X57865Y3244D01*
X57903Y3179D01*
X57934Y3110D01*
X57966Y3074D01*
X57991Y3033D01*
X58048Y2984D01*
X58099Y2928D01*
X58141Y2904D01*
X58178Y2873D01*
X58248Y2845D01*
X58314Y2808D01*
X58361Y2799D01*
X58406Y2781D01*
X58534Y2767D01*
X58556Y2763D01*
X58563Y2764D01*
X58573Y2763D01*
X664210Y2763D01*
X664230Y2766D01*
X664249Y2764D01*
X664351Y2786D01*
X664453Y2802D01*
X664470Y2812D01*
X664490Y2816D01*
X664579Y2869D01*
X664670Y2918D01*
X664684Y2932D01*
X664701Y2942D01*
X664768Y3021D01*
X664840Y3096D01*
X664848Y3114D01*
X664861Y3129D01*
X664900Y3225D01*
X664943Y3319D01*
X664945Y3339D01*
X664953Y3357D01*
X664971Y3524D01*
X664971Y11571D01*
X664970Y11581D01*
X664971Y11592D01*
X664950Y11703D01*
X664932Y11813D01*
X664927Y11823D01*
X664925Y11833D01*
X664869Y11932D01*
X664816Y12031D01*
X664809Y12038D01*
X664803Y12047D01*
X664685Y12166D01*
X663635Y13003D01*
X656812Y23010D01*
X653242Y34584D01*
X653242Y46696D01*
X656812Y58270D01*
X657602Y59428D01*
X658640Y60951D01*
X659678Y62473D01*
X659678Y62474D01*
X660197Y63235D01*
X661235Y64757D01*
X662273Y66280D01*
X663635Y68277D01*
X664685Y69114D01*
X664692Y69122D01*
X664701Y69128D01*
X664774Y69213D01*
X664850Y69297D01*
X664854Y69306D01*
X664861Y69315D01*
X664903Y69420D01*
X664948Y69522D01*
X664949Y69533D01*
X664953Y69543D01*
X664971Y69709D01*
X664971Y79026D01*
X664968Y79046D01*
X664970Y79065D01*
X664948Y79167D01*
X664932Y79269D01*
X664922Y79286D01*
X664918Y79306D01*
X664865Y79395D01*
X664816Y79486D01*
X664802Y79500D01*
X664792Y79517D01*
X664713Y79584D01*
X664638Y79656D01*
X664620Y79664D01*
X664605Y79677D01*
X664509Y79716D01*
X664415Y79759D01*
X664395Y79761D01*
X664377Y79769D01*
X664210Y79787D01*
X663066Y79787D01*
X661447Y81406D01*
X661447Y256414D01*
X663066Y258033D01*
X664210Y258033D01*
X664230Y258036D01*
X664249Y258034D01*
X664351Y258056D01*
X664453Y258072D01*
X664470Y258082D01*
X664490Y258086D01*
X664579Y258139D01*
X664670Y258188D01*
X664684Y258202D01*
X664701Y258212D01*
X664768Y258291D01*
X664840Y258366D01*
X664848Y258384D01*
X664861Y258399D01*
X664900Y258495D01*
X664943Y258589D01*
X664945Y258609D01*
X664953Y258627D01*
X664971Y258794D01*
X664971Y304485D01*
X715548Y355062D01*
G37*
G36*
X47040Y306971D02*
X47040Y306971D01*
X47091Y306973D01*
X47123Y306991D01*
X47159Y306999D01*
X47198Y307032D01*
X47243Y307056D01*
X47264Y307086D01*
X47292Y307109D01*
X47313Y307156D01*
X47343Y307198D01*
X47351Y307240D01*
X47363Y307268D01*
X47362Y307298D01*
X47370Y307340D01*
X47370Y335280D01*
X47353Y335354D01*
X47340Y335429D01*
X47333Y335439D01*
X47331Y335449D01*
X47307Y335478D01*
X47259Y335549D01*
X21970Y360838D01*
X21970Y422753D01*
X56038Y456820D01*
X109220Y456820D01*
X109294Y456837D01*
X109369Y456850D01*
X109379Y456857D01*
X109389Y456859D01*
X109418Y456883D01*
X109489Y456931D01*
X170338Y517780D01*
X243840Y517780D01*
X243914Y517797D01*
X243989Y517810D01*
X243999Y517817D01*
X244009Y517819D01*
X244038Y517843D01*
X244109Y517891D01*
X258079Y531861D01*
X258119Y531926D01*
X258163Y531988D01*
X258165Y532000D01*
X258170Y532008D01*
X258174Y532045D01*
X258190Y532130D01*
X258190Y579120D01*
X258179Y579170D01*
X258177Y579221D01*
X258159Y579253D01*
X258151Y579289D01*
X258118Y579328D01*
X258094Y579373D01*
X258064Y579394D01*
X258041Y579422D01*
X257994Y579443D01*
X257952Y579473D01*
X257910Y579481D01*
X257882Y579493D01*
X257852Y579492D01*
X257810Y579500D01*
X242570Y579500D01*
X242520Y579489D01*
X242469Y579487D01*
X242437Y579469D01*
X242401Y579461D01*
X242362Y579428D01*
X242317Y579404D01*
X242296Y579374D01*
X242268Y579351D01*
X242247Y579304D01*
X242217Y579262D01*
X242209Y579220D01*
X242197Y579192D01*
X242198Y579162D01*
X242190Y579120D01*
X242190Y542448D01*
X237333Y537590D01*
X157480Y537590D01*
X157406Y537573D01*
X157331Y537560D01*
X157321Y537553D01*
X157311Y537551D01*
X157282Y537527D01*
X157211Y537479D01*
X98903Y479170D01*
X48260Y479170D01*
X48186Y479153D01*
X48111Y479140D01*
X48101Y479133D01*
X48091Y479131D01*
X48062Y479107D01*
X47991Y479059D01*
X6081Y437149D01*
X6041Y437084D01*
X5997Y437022D01*
X5995Y437010D01*
X5990Y437002D01*
X5986Y436965D01*
X5970Y436880D01*
X5970Y307340D01*
X5981Y307290D01*
X5983Y307239D01*
X6001Y307207D01*
X6009Y307171D01*
X6042Y307132D01*
X6066Y307087D01*
X6096Y307066D01*
X6119Y307038D01*
X6166Y307017D01*
X6208Y306987D01*
X6250Y306979D01*
X6278Y306967D01*
X6308Y306968D01*
X6350Y306960D01*
X46990Y306960D01*
X47040Y306971D01*
G37*
G36*
X137180Y295374D02*
X137180Y295374D01*
X137199Y295372D01*
X137301Y295394D01*
X137403Y295410D01*
X137420Y295420D01*
X137440Y295424D01*
X137529Y295477D01*
X137620Y295526D01*
X137634Y295540D01*
X137651Y295550D01*
X137718Y295629D01*
X137790Y295704D01*
X137798Y295722D01*
X137811Y295737D01*
X137850Y295833D01*
X137893Y295927D01*
X137895Y295947D01*
X137903Y295965D01*
X137921Y296132D01*
X137921Y414020D01*
X137918Y414040D01*
X137920Y414059D01*
X137898Y414161D01*
X137882Y414263D01*
X137872Y414280D01*
X137868Y414300D01*
X137815Y414389D01*
X137766Y414480D01*
X137752Y414494D01*
X137742Y414511D01*
X137663Y414578D01*
X137588Y414650D01*
X137570Y414658D01*
X137555Y414671D01*
X137459Y414710D01*
X137365Y414753D01*
X137345Y414755D01*
X137327Y414763D01*
X137160Y414781D01*
X43180Y414781D01*
X43160Y414778D01*
X43141Y414780D01*
X43039Y414758D01*
X42937Y414742D01*
X42920Y414732D01*
X42900Y414728D01*
X42811Y414675D01*
X42720Y414626D01*
X42706Y414612D01*
X42689Y414602D01*
X42622Y414523D01*
X42551Y414448D01*
X42542Y414430D01*
X42529Y414415D01*
X42490Y414319D01*
X42447Y414225D01*
X42445Y414205D01*
X42437Y414187D01*
X42419Y414020D01*
X42419Y365760D01*
X42434Y365670D01*
X42441Y365579D01*
X42453Y365549D01*
X42459Y365517D01*
X42501Y365437D01*
X42537Y365353D01*
X42563Y365321D01*
X42574Y365300D01*
X42597Y365278D01*
X42642Y365222D01*
X72899Y334965D01*
X72899Y296532D01*
X72914Y296442D01*
X72921Y296351D01*
X72933Y296321D01*
X72939Y296289D01*
X72981Y296209D01*
X73017Y296125D01*
X73043Y296093D01*
X73054Y296072D01*
X73077Y296050D01*
X73122Y295994D01*
X73522Y295594D01*
X73596Y295541D01*
X73665Y295481D01*
X73695Y295469D01*
X73722Y295450D01*
X73809Y295423D01*
X73893Y295389D01*
X73934Y295385D01*
X73957Y295378D01*
X73989Y295379D01*
X74060Y295371D01*
X137160Y295371D01*
X137180Y295374D01*
G37*
G36*
X189280Y304431D02*
X189280Y304431D01*
X189331Y304433D01*
X189363Y304451D01*
X189399Y304459D01*
X189438Y304492D01*
X189483Y304516D01*
X189504Y304546D01*
X189532Y304569D01*
X189553Y304616D01*
X189583Y304658D01*
X189591Y304700D01*
X189603Y304728D01*
X189602Y304758D01*
X189610Y304800D01*
X189610Y335280D01*
X189593Y335354D01*
X189580Y335429D01*
X189573Y335439D01*
X189571Y335449D01*
X189547Y335478D01*
X189499Y335549D01*
X165480Y359568D01*
X165480Y424023D01*
X221138Y479680D01*
X260350Y479680D01*
X260424Y479697D01*
X260499Y479710D01*
X260509Y479717D01*
X260519Y479719D01*
X260548Y479743D01*
X260619Y479791D01*
X317769Y536941D01*
X317809Y537006D01*
X317853Y537068D01*
X317855Y537080D01*
X317860Y537088D01*
X317864Y537125D01*
X317880Y537210D01*
X317880Y579120D01*
X317869Y579170D01*
X317867Y579221D01*
X317849Y579253D01*
X317841Y579289D01*
X317808Y579328D01*
X317784Y579373D01*
X317754Y579394D01*
X317731Y579422D01*
X317684Y579443D01*
X317642Y579473D01*
X317600Y579481D01*
X317572Y579493D01*
X317542Y579492D01*
X317500Y579500D01*
X302260Y579500D01*
X302210Y579489D01*
X302159Y579487D01*
X302127Y579469D01*
X302091Y579461D01*
X302052Y579428D01*
X302007Y579404D01*
X301986Y579374D01*
X301958Y579351D01*
X301937Y579304D01*
X301907Y579262D01*
X301899Y579220D01*
X301887Y579192D01*
X301888Y579162D01*
X301880Y579120D01*
X301880Y548798D01*
X252573Y499490D01*
X209550Y499490D01*
X209476Y499473D01*
X209401Y499460D01*
X209391Y499453D01*
X209381Y499451D01*
X209352Y499427D01*
X209281Y499379D01*
X148321Y438419D01*
X148281Y438354D01*
X148237Y438292D01*
X148235Y438280D01*
X148230Y438272D01*
X148226Y438235D01*
X148210Y438150D01*
X148210Y304800D01*
X148221Y304750D01*
X148223Y304699D01*
X148241Y304667D01*
X148249Y304631D01*
X148282Y304592D01*
X148306Y304547D01*
X148336Y304526D01*
X148359Y304498D01*
X148406Y304477D01*
X148448Y304447D01*
X148490Y304439D01*
X148518Y304427D01*
X148548Y304428D01*
X148590Y304420D01*
X189230Y304420D01*
X189280Y304431D01*
G37*
G36*
X610920Y304431D02*
X610920Y304431D01*
X610971Y304433D01*
X611003Y304451D01*
X611039Y304459D01*
X611078Y304492D01*
X611123Y304516D01*
X611144Y304546D01*
X611172Y304569D01*
X611193Y304616D01*
X611223Y304658D01*
X611231Y304700D01*
X611243Y304728D01*
X611242Y304758D01*
X611250Y304800D01*
X611250Y334010D01*
X611233Y334084D01*
X611220Y334159D01*
X611213Y334169D01*
X611211Y334179D01*
X611187Y334208D01*
X611139Y334279D01*
X585850Y359568D01*
X585850Y474980D01*
X585833Y475054D01*
X585820Y475129D01*
X585813Y475139D01*
X585811Y475149D01*
X585787Y475178D01*
X585739Y475249D01*
X496950Y564038D01*
X496950Y579120D01*
X496939Y579170D01*
X496937Y579221D01*
X496919Y579253D01*
X496911Y579289D01*
X496878Y579328D01*
X496854Y579373D01*
X496824Y579394D01*
X496801Y579422D01*
X496754Y579443D01*
X496712Y579473D01*
X496670Y579481D01*
X496642Y579493D01*
X496612Y579492D01*
X496570Y579500D01*
X481330Y579500D01*
X481280Y579489D01*
X481229Y579487D01*
X481197Y579469D01*
X481161Y579461D01*
X481122Y579428D01*
X481077Y579404D01*
X481056Y579374D01*
X481028Y579351D01*
X481007Y579304D01*
X480977Y579262D01*
X480969Y579220D01*
X480957Y579192D01*
X480958Y579162D01*
X480950Y579120D01*
X480950Y543560D01*
X480963Y543503D01*
X480963Y543496D01*
X480966Y543492D01*
X480967Y543486D01*
X480980Y543411D01*
X480987Y543401D01*
X480989Y543391D01*
X481013Y543362D01*
X481061Y543291D01*
X568580Y455773D01*
X568580Y304800D01*
X568591Y304750D01*
X568593Y304699D01*
X568611Y304667D01*
X568619Y304631D01*
X568652Y304592D01*
X568676Y304547D01*
X568706Y304526D01*
X568729Y304498D01*
X568776Y304477D01*
X568818Y304447D01*
X568860Y304439D01*
X568888Y304427D01*
X568918Y304428D01*
X568960Y304420D01*
X610870Y304420D01*
X610920Y304431D01*
G37*
G36*
X327710Y304431D02*
X327710Y304431D01*
X327761Y304433D01*
X327793Y304451D01*
X327829Y304459D01*
X327868Y304492D01*
X327913Y304516D01*
X327934Y304546D01*
X327962Y304569D01*
X327983Y304616D01*
X328013Y304658D01*
X328021Y304700D01*
X328033Y304728D01*
X328032Y304758D01*
X328040Y304800D01*
X328040Y335280D01*
X328023Y335354D01*
X328010Y335429D01*
X328003Y335439D01*
X328001Y335449D01*
X327977Y335478D01*
X327929Y335549D01*
X303910Y359568D01*
X303910Y440533D01*
X377459Y514081D01*
X377499Y514146D01*
X377543Y514208D01*
X377545Y514220D01*
X377550Y514228D01*
X377554Y514265D01*
X377570Y514350D01*
X377570Y579120D01*
X377559Y579170D01*
X377557Y579221D01*
X377539Y579253D01*
X377531Y579289D01*
X377498Y579328D01*
X377474Y579373D01*
X377444Y579394D01*
X377421Y579422D01*
X377374Y579443D01*
X377332Y579473D01*
X377290Y579481D01*
X377262Y579493D01*
X377232Y579492D01*
X377190Y579500D01*
X361950Y579500D01*
X361900Y579489D01*
X361849Y579487D01*
X361817Y579469D01*
X361781Y579461D01*
X361742Y579428D01*
X361697Y579404D01*
X361676Y579374D01*
X361648Y579351D01*
X361627Y579304D01*
X361597Y579262D01*
X361589Y579220D01*
X361577Y579192D01*
X361578Y579162D01*
X361570Y579120D01*
X361570Y529748D01*
X285481Y453659D01*
X285441Y453594D01*
X285397Y453532D01*
X285395Y453520D01*
X285390Y453512D01*
X285386Y453475D01*
X285370Y453390D01*
X285370Y304800D01*
X285381Y304750D01*
X285383Y304699D01*
X285401Y304667D01*
X285409Y304631D01*
X285442Y304592D01*
X285466Y304547D01*
X285496Y304526D01*
X285519Y304498D01*
X285566Y304477D01*
X285608Y304447D01*
X285650Y304439D01*
X285678Y304427D01*
X285708Y304428D01*
X285750Y304420D01*
X327660Y304420D01*
X327710Y304431D01*
G37*
G36*
X468680Y304431D02*
X468680Y304431D01*
X468731Y304433D01*
X468763Y304451D01*
X468799Y304459D01*
X468838Y304492D01*
X468883Y304516D01*
X468904Y304546D01*
X468932Y304569D01*
X468953Y304616D01*
X468983Y304658D01*
X468991Y304700D01*
X469003Y304728D01*
X469002Y304758D01*
X469010Y304800D01*
X469010Y334010D01*
X468993Y334084D01*
X468980Y334159D01*
X468973Y334169D01*
X468971Y334179D01*
X468947Y334208D01*
X468899Y334279D01*
X446150Y357028D01*
X446150Y554990D01*
X446133Y555064D01*
X446120Y555139D01*
X446113Y555149D01*
X446111Y555159D01*
X446087Y555188D01*
X446039Y555259D01*
X437260Y564038D01*
X437260Y579120D01*
X437249Y579170D01*
X437247Y579221D01*
X437229Y579253D01*
X437221Y579289D01*
X437188Y579328D01*
X437164Y579373D01*
X437134Y579394D01*
X437111Y579422D01*
X437064Y579443D01*
X437022Y579473D01*
X436980Y579481D01*
X436952Y579493D01*
X436922Y579492D01*
X436880Y579500D01*
X421640Y579500D01*
X421590Y579489D01*
X421539Y579487D01*
X421507Y579469D01*
X421471Y579461D01*
X421432Y579428D01*
X421387Y579404D01*
X421366Y579374D01*
X421338Y579351D01*
X421317Y579304D01*
X421287Y579262D01*
X421279Y579220D01*
X421267Y579192D01*
X421268Y579162D01*
X421260Y579120D01*
X421260Y553720D01*
X421277Y553646D01*
X421290Y553571D01*
X421297Y553561D01*
X421299Y553551D01*
X421323Y553522D01*
X421371Y553451D01*
X427610Y547213D01*
X427610Y304800D01*
X427621Y304750D01*
X427623Y304699D01*
X427641Y304667D01*
X427649Y304631D01*
X427682Y304592D01*
X427706Y304547D01*
X427736Y304526D01*
X427759Y304498D01*
X427806Y304477D01*
X427848Y304447D01*
X427890Y304439D01*
X427918Y304427D01*
X427948Y304428D01*
X427990Y304420D01*
X468630Y304420D01*
X468680Y304431D01*
G37*
%LPC*%
G36*
X557897Y9397D02*
X557897Y9397D01*
X553883Y11060D01*
X550810Y14133D01*
X550112Y15817D01*
X550051Y15917D01*
X549991Y16017D01*
X549986Y16021D01*
X549983Y16026D01*
X549893Y16101D01*
X549804Y16177D01*
X549798Y16179D01*
X549793Y16183D01*
X549685Y16225D01*
X549576Y16269D01*
X549568Y16270D01*
X549564Y16271D01*
X549545Y16272D01*
X549409Y16287D01*
X548240Y16287D01*
X536987Y27540D01*
X536987Y50084D01*
X536973Y50174D01*
X536965Y50265D01*
X536953Y50295D01*
X536948Y50327D01*
X536905Y50408D01*
X536869Y50492D01*
X536843Y50524D01*
X536832Y50544D01*
X536809Y50567D01*
X536764Y50623D01*
X523063Y64324D01*
X522989Y64377D01*
X522919Y64437D01*
X522889Y64449D01*
X522863Y64468D01*
X522776Y64495D01*
X522691Y64529D01*
X522650Y64533D01*
X522628Y64540D01*
X522596Y64539D01*
X522524Y64547D01*
X465964Y64547D01*
X465944Y64544D01*
X465925Y64546D01*
X465823Y64524D01*
X465721Y64508D01*
X465704Y64498D01*
X465684Y64494D01*
X465595Y64441D01*
X465504Y64392D01*
X465490Y64378D01*
X465473Y64368D01*
X465406Y64289D01*
X465334Y64214D01*
X465326Y64196D01*
X465313Y64181D01*
X465274Y64085D01*
X465231Y63991D01*
X465229Y63971D01*
X465221Y63953D01*
X465203Y63786D01*
X465203Y60086D01*
X465206Y60066D01*
X465204Y60047D01*
X465226Y59945D01*
X465242Y59843D01*
X465252Y59826D01*
X465256Y59806D01*
X465309Y59717D01*
X465358Y59626D01*
X465372Y59612D01*
X465382Y59595D01*
X465461Y59528D01*
X465536Y59456D01*
X465554Y59448D01*
X465569Y59435D01*
X465665Y59396D01*
X465759Y59353D01*
X465779Y59351D01*
X465797Y59343D01*
X465964Y59325D01*
X467302Y59325D01*
X468195Y58432D01*
X468195Y43168D01*
X467302Y42275D01*
X455038Y42275D01*
X454145Y43168D01*
X454145Y58432D01*
X455038Y59325D01*
X456376Y59325D01*
X456396Y59328D01*
X456415Y59326D01*
X456517Y59348D01*
X456619Y59364D01*
X456636Y59374D01*
X456656Y59378D01*
X456745Y59431D01*
X456836Y59480D01*
X456850Y59494D01*
X456867Y59504D01*
X456934Y59583D01*
X457006Y59658D01*
X457014Y59676D01*
X457027Y59691D01*
X457066Y59787D01*
X457109Y59881D01*
X457111Y59901D01*
X457119Y59919D01*
X457137Y60086D01*
X457137Y63786D01*
X457134Y63806D01*
X457136Y63825D01*
X457114Y63927D01*
X457098Y64029D01*
X457088Y64046D01*
X457084Y64066D01*
X457031Y64155D01*
X456982Y64246D01*
X456968Y64260D01*
X456958Y64277D01*
X456879Y64344D01*
X456804Y64416D01*
X456786Y64424D01*
X456771Y64437D01*
X456675Y64476D01*
X456581Y64519D01*
X456561Y64521D01*
X456543Y64529D01*
X456376Y64547D01*
X406274Y64547D01*
X406254Y64544D01*
X406235Y64546D01*
X406133Y64524D01*
X406031Y64508D01*
X406014Y64498D01*
X405994Y64494D01*
X405905Y64441D01*
X405814Y64392D01*
X405800Y64378D01*
X405783Y64368D01*
X405716Y64289D01*
X405644Y64214D01*
X405636Y64196D01*
X405623Y64181D01*
X405584Y64085D01*
X405541Y63991D01*
X405539Y63971D01*
X405531Y63953D01*
X405513Y63786D01*
X405513Y60086D01*
X405516Y60066D01*
X405514Y60047D01*
X405536Y59945D01*
X405552Y59843D01*
X405562Y59826D01*
X405566Y59806D01*
X405619Y59717D01*
X405668Y59626D01*
X405682Y59612D01*
X405692Y59595D01*
X405771Y59528D01*
X405846Y59456D01*
X405864Y59448D01*
X405879Y59435D01*
X405975Y59396D01*
X406069Y59353D01*
X406089Y59351D01*
X406107Y59343D01*
X406274Y59325D01*
X407612Y59325D01*
X408505Y58432D01*
X408505Y43168D01*
X407612Y42275D01*
X395348Y42275D01*
X394455Y43168D01*
X394455Y58432D01*
X395348Y59325D01*
X396686Y59325D01*
X396706Y59328D01*
X396725Y59326D01*
X396827Y59348D01*
X396929Y59364D01*
X396946Y59374D01*
X396966Y59378D01*
X397055Y59431D01*
X397146Y59480D01*
X397160Y59494D01*
X397177Y59504D01*
X397244Y59583D01*
X397316Y59658D01*
X397324Y59676D01*
X397337Y59691D01*
X397376Y59787D01*
X397419Y59881D01*
X397421Y59901D01*
X397429Y59919D01*
X397447Y60086D01*
X397447Y63786D01*
X397444Y63806D01*
X397446Y63825D01*
X397424Y63927D01*
X397408Y64029D01*
X397398Y64046D01*
X397394Y64066D01*
X397341Y64155D01*
X397292Y64246D01*
X397278Y64260D01*
X397268Y64277D01*
X397189Y64344D01*
X397114Y64416D01*
X397096Y64424D01*
X397081Y64437D01*
X396985Y64476D01*
X396891Y64519D01*
X396871Y64521D01*
X396853Y64529D01*
X396686Y64547D01*
X349124Y64547D01*
X349104Y64544D01*
X349085Y64546D01*
X348983Y64524D01*
X348881Y64508D01*
X348864Y64498D01*
X348844Y64494D01*
X348755Y64441D01*
X348664Y64392D01*
X348650Y64378D01*
X348633Y64368D01*
X348566Y64289D01*
X348494Y64214D01*
X348486Y64196D01*
X348473Y64181D01*
X348434Y64085D01*
X348391Y63991D01*
X348389Y63971D01*
X348381Y63953D01*
X348363Y63786D01*
X348363Y60086D01*
X348366Y60066D01*
X348364Y60047D01*
X348386Y59945D01*
X348402Y59843D01*
X348412Y59826D01*
X348416Y59806D01*
X348469Y59717D01*
X348518Y59626D01*
X348532Y59612D01*
X348542Y59595D01*
X348621Y59528D01*
X348696Y59456D01*
X348714Y59448D01*
X348729Y59435D01*
X348825Y59396D01*
X348919Y59353D01*
X348939Y59351D01*
X348957Y59343D01*
X349124Y59325D01*
X350462Y59325D01*
X351355Y58432D01*
X351355Y43168D01*
X350462Y42275D01*
X338198Y42275D01*
X337305Y43168D01*
X337305Y58432D01*
X338198Y59325D01*
X339536Y59325D01*
X339556Y59328D01*
X339575Y59326D01*
X339677Y59348D01*
X339779Y59364D01*
X339796Y59374D01*
X339816Y59378D01*
X339905Y59431D01*
X339996Y59480D01*
X340010Y59494D01*
X340027Y59504D01*
X340094Y59583D01*
X340166Y59658D01*
X340174Y59676D01*
X340187Y59691D01*
X340226Y59787D01*
X340269Y59881D01*
X340271Y59901D01*
X340279Y59919D01*
X340297Y60086D01*
X340297Y63786D01*
X340294Y63806D01*
X340296Y63825D01*
X340274Y63927D01*
X340258Y64029D01*
X340248Y64046D01*
X340244Y64066D01*
X340191Y64155D01*
X340142Y64246D01*
X340128Y64260D01*
X340118Y64277D01*
X340039Y64344D01*
X339964Y64416D01*
X339946Y64424D01*
X339931Y64437D01*
X339835Y64476D01*
X339741Y64519D01*
X339721Y64521D01*
X339703Y64529D01*
X339536Y64547D01*
X290704Y64547D01*
X290684Y64544D01*
X290665Y64546D01*
X290563Y64524D01*
X290461Y64508D01*
X290444Y64498D01*
X290424Y64494D01*
X290335Y64441D01*
X290244Y64392D01*
X290230Y64378D01*
X290213Y64368D01*
X290146Y64289D01*
X290074Y64214D01*
X290066Y64196D01*
X290053Y64181D01*
X290014Y64085D01*
X289971Y63991D01*
X289969Y63971D01*
X289961Y63953D01*
X289943Y63786D01*
X289943Y60086D01*
X289946Y60066D01*
X289944Y60047D01*
X289966Y59945D01*
X289982Y59843D01*
X289992Y59826D01*
X289996Y59806D01*
X290049Y59717D01*
X290098Y59626D01*
X290112Y59612D01*
X290122Y59595D01*
X290201Y59528D01*
X290276Y59456D01*
X290294Y59448D01*
X290309Y59435D01*
X290405Y59396D01*
X290499Y59353D01*
X290519Y59351D01*
X290537Y59343D01*
X290704Y59325D01*
X292042Y59325D01*
X292935Y58432D01*
X292935Y43168D01*
X292042Y42275D01*
X279778Y42275D01*
X278885Y43168D01*
X278885Y58432D01*
X279778Y59325D01*
X281116Y59325D01*
X281136Y59328D01*
X281155Y59326D01*
X281257Y59348D01*
X281359Y59364D01*
X281376Y59374D01*
X281396Y59378D01*
X281485Y59431D01*
X281576Y59480D01*
X281590Y59494D01*
X281607Y59504D01*
X281674Y59583D01*
X281746Y59658D01*
X281754Y59676D01*
X281767Y59691D01*
X281806Y59787D01*
X281849Y59881D01*
X281851Y59901D01*
X281859Y59919D01*
X281877Y60086D01*
X281877Y63786D01*
X281874Y63806D01*
X281876Y63825D01*
X281854Y63927D01*
X281838Y64029D01*
X281828Y64046D01*
X281824Y64066D01*
X281771Y64155D01*
X281722Y64246D01*
X281708Y64260D01*
X281698Y64277D01*
X281619Y64344D01*
X281544Y64416D01*
X281526Y64424D01*
X281511Y64437D01*
X281415Y64476D01*
X281321Y64519D01*
X281301Y64521D01*
X281283Y64529D01*
X281116Y64547D01*
X233126Y64547D01*
X233036Y64533D01*
X232945Y64525D01*
X232915Y64513D01*
X232883Y64508D01*
X232802Y64465D01*
X232718Y64429D01*
X232686Y64403D01*
X232666Y64392D01*
X232643Y64369D01*
X232587Y64324D01*
X231746Y63483D01*
X231693Y63409D01*
X231633Y63339D01*
X231621Y63309D01*
X231602Y63283D01*
X231575Y63196D01*
X231541Y63111D01*
X231537Y63070D01*
X231530Y63048D01*
X231531Y63016D01*
X231523Y62944D01*
X231523Y60086D01*
X231526Y60066D01*
X231524Y60047D01*
X231546Y59945D01*
X231562Y59843D01*
X231572Y59826D01*
X231576Y59806D01*
X231629Y59717D01*
X231678Y59626D01*
X231692Y59612D01*
X231702Y59595D01*
X231781Y59528D01*
X231856Y59456D01*
X231874Y59448D01*
X231889Y59435D01*
X231985Y59396D01*
X232079Y59353D01*
X232099Y59351D01*
X232117Y59343D01*
X232284Y59325D01*
X233622Y59325D01*
X234515Y58432D01*
X234515Y43168D01*
X233622Y42275D01*
X221358Y42275D01*
X220465Y43168D01*
X220465Y46006D01*
X220462Y46026D01*
X220464Y46045D01*
X220442Y46147D01*
X220426Y46249D01*
X220416Y46266D01*
X220412Y46286D01*
X220359Y46375D01*
X220310Y46466D01*
X220296Y46480D01*
X220286Y46497D01*
X220207Y46564D01*
X220132Y46636D01*
X220114Y46644D01*
X220099Y46657D01*
X220003Y46696D01*
X219909Y46739D01*
X219889Y46741D01*
X219871Y46749D01*
X219704Y46767D01*
X200106Y46767D01*
X200016Y46753D01*
X199925Y46745D01*
X199895Y46733D01*
X199863Y46728D01*
X199782Y46685D01*
X199698Y46649D01*
X199666Y46623D01*
X199646Y46612D01*
X199623Y46589D01*
X199567Y46544D01*
X196026Y43003D01*
X195973Y42929D01*
X195913Y42859D01*
X195901Y42829D01*
X195882Y42803D01*
X195855Y42716D01*
X195821Y42631D01*
X195817Y42590D01*
X195810Y42568D01*
X195811Y42536D01*
X195803Y42464D01*
X195803Y41656D01*
X195806Y41636D01*
X195804Y41617D01*
X195826Y41515D01*
X195842Y41413D01*
X195852Y41396D01*
X195856Y41376D01*
X195909Y41287D01*
X195958Y41196D01*
X195972Y41182D01*
X195982Y41165D01*
X196061Y41098D01*
X196136Y41026D01*
X196154Y41018D01*
X196169Y41005D01*
X196265Y40966D01*
X196359Y40923D01*
X196379Y40921D01*
X196397Y40913D01*
X196564Y40895D01*
X200022Y40895D01*
X200915Y40002D01*
X200915Y23498D01*
X200022Y22605D01*
X183518Y22605D01*
X182625Y23498D01*
X182625Y40002D01*
X183518Y40895D01*
X186976Y40895D01*
X186996Y40898D01*
X187015Y40896D01*
X187117Y40918D01*
X187219Y40934D01*
X187236Y40944D01*
X187256Y40948D01*
X187345Y41001D01*
X187436Y41050D01*
X187450Y41064D01*
X187467Y41074D01*
X187534Y41153D01*
X187606Y41228D01*
X187614Y41246D01*
X187627Y41261D01*
X187666Y41357D01*
X187709Y41451D01*
X187711Y41471D01*
X187719Y41489D01*
X187737Y41656D01*
X187737Y46120D01*
X196450Y54833D01*
X219704Y54833D01*
X219724Y54836D01*
X219743Y54834D01*
X219845Y54856D01*
X219947Y54872D01*
X219964Y54882D01*
X219984Y54886D01*
X220073Y54939D01*
X220164Y54988D01*
X220178Y55002D01*
X220195Y55012D01*
X220262Y55091D01*
X220334Y55166D01*
X220342Y55184D01*
X220355Y55199D01*
X220394Y55295D01*
X220437Y55389D01*
X220439Y55409D01*
X220447Y55427D01*
X220465Y55594D01*
X220465Y58432D01*
X221358Y59325D01*
X222696Y59325D01*
X222716Y59328D01*
X222735Y59326D01*
X222837Y59348D01*
X222939Y59364D01*
X222956Y59374D01*
X222976Y59378D01*
X223065Y59431D01*
X223156Y59480D01*
X223170Y59494D01*
X223187Y59504D01*
X223254Y59583D01*
X223326Y59658D01*
X223334Y59676D01*
X223347Y59691D01*
X223386Y59787D01*
X223429Y59881D01*
X223431Y59901D01*
X223439Y59919D01*
X223457Y60086D01*
X223457Y66600D01*
X229470Y72613D01*
X427006Y72613D01*
X427026Y72616D01*
X427045Y72614D01*
X427147Y72636D01*
X427249Y72652D01*
X427266Y72662D01*
X427286Y72666D01*
X427375Y72719D01*
X427466Y72768D01*
X427480Y72782D01*
X427497Y72792D01*
X427564Y72871D01*
X427636Y72946D01*
X427644Y72964D01*
X427657Y72979D01*
X427696Y73075D01*
X427739Y73169D01*
X427741Y73189D01*
X427749Y73207D01*
X427767Y73374D01*
X427767Y103424D01*
X427753Y103514D01*
X427745Y103605D01*
X427733Y103635D01*
X427728Y103667D01*
X427685Y103748D01*
X427649Y103832D01*
X427623Y103864D01*
X427612Y103884D01*
X427589Y103907D01*
X427544Y103963D01*
X423757Y107750D01*
X423683Y107803D01*
X423613Y107863D01*
X423583Y107875D01*
X423557Y107894D01*
X423470Y107921D01*
X423385Y107955D01*
X423344Y107959D01*
X423322Y107966D01*
X423290Y107965D01*
X423218Y107973D01*
X422085Y107973D01*
X419123Y110935D01*
X419123Y115125D01*
X422085Y118087D01*
X426275Y118087D01*
X429237Y115125D01*
X429237Y113992D01*
X429251Y113902D01*
X429259Y113811D01*
X429271Y113781D01*
X429276Y113749D01*
X429319Y113668D01*
X429355Y113584D01*
X429381Y113552D01*
X429392Y113532D01*
X429415Y113509D01*
X429460Y113453D01*
X435833Y107080D01*
X435833Y73374D01*
X435836Y73354D01*
X435834Y73335D01*
X435856Y73233D01*
X435872Y73131D01*
X435882Y73114D01*
X435886Y73094D01*
X435939Y73005D01*
X435988Y72914D01*
X436002Y72900D01*
X436012Y72883D01*
X436091Y72816D01*
X436166Y72744D01*
X436184Y72736D01*
X436199Y72723D01*
X436295Y72684D01*
X436389Y72641D01*
X436409Y72639D01*
X436427Y72631D01*
X436594Y72613D01*
X526180Y72613D01*
X545053Y53740D01*
X545053Y31196D01*
X545067Y31106D01*
X545075Y31015D01*
X545087Y30985D01*
X545092Y30953D01*
X545135Y30872D01*
X545171Y30788D01*
X545197Y30756D01*
X545208Y30736D01*
X545231Y30713D01*
X545276Y30657D01*
X549599Y26334D01*
X549636Y26307D01*
X549667Y26273D01*
X549736Y26236D01*
X549799Y26190D01*
X549843Y26177D01*
X549883Y26155D01*
X549959Y26141D01*
X550034Y26118D01*
X550080Y26119D01*
X550125Y26111D01*
X550202Y26122D01*
X550280Y26124D01*
X550323Y26140D01*
X550368Y26147D01*
X550438Y26182D01*
X550511Y26209D01*
X550547Y26238D01*
X550588Y26258D01*
X550642Y26314D01*
X550703Y26363D01*
X550728Y26401D01*
X550760Y26434D01*
X550788Y26485D01*
X553883Y29580D01*
X557897Y31243D01*
X562243Y31243D01*
X566257Y29580D01*
X569330Y26507D01*
X570993Y22493D01*
X570993Y18147D01*
X569330Y14133D01*
X566257Y11060D01*
X562243Y9397D01*
X557897Y9397D01*
G37*
%LPD*%
%LPC*%
G36*
X437325Y119403D02*
X437325Y119403D01*
X434363Y122365D01*
X434363Y126555D01*
X436196Y128388D01*
X436249Y128462D01*
X436309Y128531D01*
X436321Y128561D01*
X436340Y128587D01*
X436367Y128674D01*
X436401Y128759D01*
X436405Y128800D01*
X436412Y128822D01*
X436411Y128855D01*
X436419Y128926D01*
X436419Y159732D01*
X436405Y159822D01*
X436397Y159913D01*
X436385Y159943D01*
X436380Y159974D01*
X436337Y160055D01*
X436301Y160139D01*
X436275Y160171D01*
X436264Y160192D01*
X436241Y160214D01*
X436196Y160270D01*
X327910Y268556D01*
X327836Y268609D01*
X327767Y268669D01*
X327736Y268681D01*
X327710Y268700D01*
X327623Y268727D01*
X327538Y268761D01*
X327498Y268765D01*
X327475Y268772D01*
X327443Y268771D01*
X327372Y268779D01*
X249208Y268779D01*
X249118Y268765D01*
X249027Y268757D01*
X248997Y268745D01*
X248966Y268740D01*
X248885Y268697D01*
X248801Y268661D01*
X248769Y268635D01*
X248748Y268624D01*
X248726Y268601D01*
X248670Y268556D01*
X237463Y257349D01*
X205126Y257349D01*
X205036Y257335D01*
X204945Y257327D01*
X204915Y257315D01*
X204883Y257310D01*
X204802Y257267D01*
X204719Y257231D01*
X204686Y257205D01*
X204666Y257194D01*
X204644Y257171D01*
X204588Y257126D01*
X202755Y255293D01*
X198565Y255293D01*
X195603Y258255D01*
X195603Y262445D01*
X198565Y265407D01*
X202755Y265407D01*
X204588Y263574D01*
X204662Y263521D01*
X204731Y263461D01*
X204761Y263449D01*
X204787Y263430D01*
X204874Y263403D01*
X204959Y263369D01*
X205000Y263365D01*
X205022Y263358D01*
X205055Y263359D01*
X205126Y263351D01*
X234662Y263351D01*
X234752Y263365D01*
X234843Y263373D01*
X234873Y263385D01*
X234904Y263390D01*
X234985Y263433D01*
X235069Y263469D01*
X235101Y263495D01*
X235122Y263506D01*
X235144Y263529D01*
X235200Y263574D01*
X246407Y274781D01*
X330173Y274781D01*
X442421Y162533D01*
X442421Y128926D01*
X442435Y128836D01*
X442443Y128745D01*
X442455Y128715D01*
X442460Y128683D01*
X442503Y128602D01*
X442539Y128519D01*
X442565Y128486D01*
X442576Y128466D01*
X442599Y128444D01*
X442644Y128388D01*
X444477Y126555D01*
X444477Y122365D01*
X441515Y119403D01*
X437325Y119403D01*
G37*
%LPD*%
%LPC*%
G36*
X356698Y6175D02*
X356698Y6175D01*
X355805Y7068D01*
X355805Y18332D01*
X356698Y19225D01*
X359724Y19225D01*
X359814Y19239D01*
X359905Y19247D01*
X359935Y19259D01*
X359967Y19264D01*
X360047Y19307D01*
X360131Y19343D01*
X360163Y19369D01*
X360184Y19380D01*
X360206Y19403D01*
X360262Y19448D01*
X362120Y21306D01*
X362162Y21364D01*
X362211Y21416D01*
X362233Y21463D01*
X362264Y21505D01*
X362285Y21574D01*
X362315Y21639D01*
X362321Y21691D01*
X362336Y21741D01*
X362334Y21812D01*
X362342Y21883D01*
X362331Y21934D01*
X362330Y21986D01*
X362305Y22054D01*
X362290Y22124D01*
X362263Y22169D01*
X362245Y22217D01*
X362200Y22273D01*
X362164Y22335D01*
X362124Y22369D01*
X362092Y22409D01*
X362031Y22448D01*
X361977Y22495D01*
X361928Y22514D01*
X361885Y22542D01*
X361815Y22560D01*
X361749Y22587D01*
X361677Y22595D01*
X361646Y22603D01*
X361623Y22601D01*
X361582Y22605D01*
X358778Y22605D01*
X357885Y23498D01*
X357885Y40002D01*
X358859Y40976D01*
X358901Y41034D01*
X358951Y41086D01*
X358973Y41133D01*
X359003Y41175D01*
X359024Y41244D01*
X359054Y41309D01*
X359060Y41361D01*
X359075Y41411D01*
X359073Y41482D01*
X359081Y41553D01*
X359070Y41604D01*
X359069Y41656D01*
X359044Y41724D01*
X359029Y41794D01*
X359002Y41839D01*
X358985Y41887D01*
X358940Y41943D01*
X358903Y42005D01*
X358863Y42039D01*
X358831Y42079D01*
X358771Y42118D01*
X358716Y42165D01*
X358668Y42184D01*
X358624Y42212D01*
X358554Y42230D01*
X358488Y42257D01*
X358417Y42265D01*
X358385Y42273D01*
X358362Y42271D01*
X358321Y42275D01*
X358198Y42275D01*
X357305Y43168D01*
X357305Y58432D01*
X358198Y59325D01*
X370462Y59325D01*
X371355Y58432D01*
X371355Y54562D01*
X371358Y54542D01*
X371356Y54523D01*
X371378Y54421D01*
X371394Y54319D01*
X371404Y54302D01*
X371408Y54282D01*
X371461Y54193D01*
X371510Y54102D01*
X371524Y54088D01*
X371534Y54071D01*
X371613Y54004D01*
X371688Y53932D01*
X371706Y53924D01*
X371721Y53911D01*
X371817Y53872D01*
X371911Y53829D01*
X371931Y53827D01*
X371949Y53819D01*
X372116Y53801D01*
X372724Y53801D01*
X372814Y53815D01*
X372905Y53823D01*
X372935Y53835D01*
X372967Y53840D01*
X373048Y53883D01*
X373131Y53919D01*
X373164Y53945D01*
X373184Y53956D01*
X373206Y53979D01*
X373262Y54024D01*
X375095Y55857D01*
X379285Y55857D01*
X382247Y52895D01*
X382247Y48705D01*
X379285Y45743D01*
X375095Y45743D01*
X373262Y47576D01*
X373188Y47629D01*
X373119Y47689D01*
X373089Y47701D01*
X373063Y47720D01*
X372976Y47747D01*
X372891Y47781D01*
X372850Y47785D01*
X372828Y47792D01*
X372795Y47791D01*
X372724Y47799D01*
X372116Y47799D01*
X372096Y47796D01*
X372077Y47798D01*
X371975Y47776D01*
X371873Y47760D01*
X371856Y47750D01*
X371836Y47746D01*
X371747Y47693D01*
X371656Y47644D01*
X371642Y47630D01*
X371625Y47620D01*
X371558Y47541D01*
X371486Y47466D01*
X371478Y47448D01*
X371465Y47433D01*
X371426Y47337D01*
X371383Y47243D01*
X371381Y47223D01*
X371373Y47205D01*
X371355Y47038D01*
X371355Y43168D01*
X370381Y42194D01*
X370339Y42136D01*
X370289Y42084D01*
X370267Y42037D01*
X370237Y41995D01*
X370216Y41926D01*
X370186Y41861D01*
X370180Y41809D01*
X370165Y41759D01*
X370167Y41688D01*
X370159Y41617D01*
X370170Y41566D01*
X370171Y41514D01*
X370196Y41446D01*
X370211Y41376D01*
X370238Y41331D01*
X370255Y41283D01*
X370300Y41227D01*
X370337Y41165D01*
X370377Y41131D01*
X370409Y41091D01*
X370469Y41052D01*
X370524Y41005D01*
X370572Y40986D01*
X370616Y40958D01*
X370686Y40940D01*
X370752Y40913D01*
X370823Y40905D01*
X370855Y40897D01*
X370878Y40899D01*
X370919Y40895D01*
X375282Y40895D01*
X376175Y40002D01*
X376175Y23498D01*
X375282Y22605D01*
X371062Y22605D01*
X371042Y22602D01*
X371023Y22604D01*
X370921Y22582D01*
X370819Y22566D01*
X370802Y22556D01*
X370782Y22552D01*
X370693Y22499D01*
X370602Y22450D01*
X370588Y22436D01*
X370571Y22426D01*
X370504Y22347D01*
X370432Y22272D01*
X370424Y22254D01*
X370411Y22239D01*
X370372Y22143D01*
X370329Y22049D01*
X370327Y22029D01*
X370319Y22011D01*
X370301Y21844D01*
X370301Y20235D01*
X369664Y19599D01*
X369653Y19583D01*
X369637Y19570D01*
X369581Y19483D01*
X369521Y19399D01*
X369515Y19380D01*
X369504Y19363D01*
X369479Y19263D01*
X369448Y19164D01*
X369449Y19144D01*
X369444Y19125D01*
X369452Y19022D01*
X369455Y18918D01*
X369461Y18899D01*
X369463Y18879D01*
X369503Y18784D01*
X369539Y18687D01*
X369552Y18671D01*
X369559Y18653D01*
X369664Y18522D01*
X369855Y18332D01*
X369855Y7068D01*
X368962Y6175D01*
X356698Y6175D01*
G37*
%LPD*%
%LPC*%
G36*
X416388Y6175D02*
X416388Y6175D01*
X415495Y7068D01*
X415495Y18332D01*
X416388Y19225D01*
X418488Y19225D01*
X418508Y19228D01*
X418527Y19226D01*
X418629Y19248D01*
X418731Y19264D01*
X418748Y19274D01*
X418768Y19278D01*
X418857Y19331D01*
X418948Y19380D01*
X418962Y19394D01*
X418979Y19404D01*
X419046Y19483D01*
X419118Y19558D01*
X419126Y19576D01*
X419139Y19591D01*
X419177Y19687D01*
X419221Y19781D01*
X419223Y19801D01*
X419231Y19819D01*
X419249Y19986D01*
X419249Y21844D01*
X419246Y21864D01*
X419248Y21883D01*
X419226Y21985D01*
X419210Y22087D01*
X419200Y22104D01*
X419196Y22124D01*
X419143Y22213D01*
X419094Y22304D01*
X419080Y22318D01*
X419070Y22335D01*
X418991Y22402D01*
X418916Y22474D01*
X418898Y22482D01*
X418883Y22495D01*
X418787Y22534D01*
X418693Y22577D01*
X418673Y22579D01*
X418655Y22587D01*
X418488Y22605D01*
X417198Y22605D01*
X416305Y23498D01*
X416305Y40002D01*
X417279Y40976D01*
X417321Y41034D01*
X417371Y41086D01*
X417393Y41133D01*
X417423Y41175D01*
X417444Y41244D01*
X417474Y41309D01*
X417480Y41361D01*
X417495Y41411D01*
X417493Y41482D01*
X417501Y41553D01*
X417490Y41604D01*
X417489Y41656D01*
X417464Y41724D01*
X417449Y41794D01*
X417422Y41839D01*
X417405Y41887D01*
X417360Y41943D01*
X417323Y42005D01*
X417283Y42039D01*
X417251Y42079D01*
X417191Y42118D01*
X417136Y42165D01*
X417088Y42184D01*
X417044Y42212D01*
X416974Y42230D01*
X416908Y42257D01*
X416837Y42265D01*
X416805Y42273D01*
X416782Y42271D01*
X416741Y42275D01*
X415348Y42275D01*
X414455Y43168D01*
X414455Y58432D01*
X415348Y59325D01*
X427612Y59325D01*
X428505Y58432D01*
X428505Y54562D01*
X428508Y54542D01*
X428506Y54523D01*
X428528Y54421D01*
X428544Y54319D01*
X428554Y54302D01*
X428558Y54282D01*
X428611Y54193D01*
X428660Y54102D01*
X428674Y54088D01*
X428684Y54071D01*
X428763Y54004D01*
X428838Y53932D01*
X428856Y53924D01*
X428871Y53911D01*
X428967Y53872D01*
X429061Y53829D01*
X429081Y53827D01*
X429099Y53819D01*
X429266Y53801D01*
X429874Y53801D01*
X429964Y53815D01*
X430055Y53823D01*
X430085Y53835D01*
X430117Y53840D01*
X430198Y53883D01*
X430281Y53919D01*
X430314Y53945D01*
X430334Y53956D01*
X430356Y53979D01*
X430412Y54024D01*
X432245Y55857D01*
X436435Y55857D01*
X439397Y52895D01*
X439397Y48705D01*
X436435Y45743D01*
X432245Y45743D01*
X430412Y47576D01*
X430338Y47629D01*
X430269Y47689D01*
X430239Y47701D01*
X430213Y47720D01*
X430126Y47747D01*
X430041Y47781D01*
X430000Y47785D01*
X429978Y47792D01*
X429945Y47791D01*
X429874Y47799D01*
X429266Y47799D01*
X429246Y47796D01*
X429227Y47798D01*
X429125Y47776D01*
X429023Y47760D01*
X429006Y47750D01*
X428986Y47746D01*
X428897Y47693D01*
X428806Y47644D01*
X428792Y47630D01*
X428775Y47620D01*
X428708Y47541D01*
X428636Y47466D01*
X428628Y47448D01*
X428615Y47433D01*
X428576Y47337D01*
X428533Y47243D01*
X428531Y47223D01*
X428523Y47205D01*
X428505Y47038D01*
X428505Y43168D01*
X427531Y42194D01*
X427489Y42136D01*
X427439Y42084D01*
X427417Y42037D01*
X427387Y41995D01*
X427366Y41926D01*
X427336Y41861D01*
X427330Y41809D01*
X427315Y41759D01*
X427317Y41688D01*
X427309Y41617D01*
X427320Y41566D01*
X427321Y41514D01*
X427346Y41446D01*
X427361Y41376D01*
X427388Y41331D01*
X427405Y41283D01*
X427450Y41227D01*
X427487Y41165D01*
X427527Y41131D01*
X427559Y41091D01*
X427619Y41052D01*
X427674Y41005D01*
X427722Y40986D01*
X427766Y40958D01*
X427836Y40940D01*
X427902Y40913D01*
X427973Y40905D01*
X428005Y40897D01*
X428028Y40899D01*
X428069Y40895D01*
X433702Y40895D01*
X434595Y40002D01*
X434595Y23498D01*
X433702Y22605D01*
X428866Y22605D01*
X428776Y22591D01*
X428685Y22583D01*
X428655Y22571D01*
X428623Y22566D01*
X428543Y22523D01*
X428459Y22487D01*
X428427Y22461D01*
X428406Y22450D01*
X428384Y22427D01*
X428328Y22382D01*
X426582Y20637D01*
X426582Y20636D01*
X426470Y20524D01*
X426428Y20466D01*
X426379Y20414D01*
X426357Y20367D01*
X426326Y20325D01*
X426305Y20256D01*
X426275Y20191D01*
X426269Y20139D01*
X426254Y20090D01*
X426256Y20018D01*
X426248Y19947D01*
X426259Y19896D01*
X426260Y19844D01*
X426285Y19776D01*
X426300Y19706D01*
X426327Y19661D01*
X426345Y19613D01*
X426389Y19557D01*
X426426Y19495D01*
X426466Y19461D01*
X426498Y19421D01*
X426559Y19382D01*
X426613Y19335D01*
X426662Y19316D01*
X426705Y19288D01*
X426775Y19270D01*
X426841Y19243D01*
X426913Y19235D01*
X426944Y19227D01*
X426967Y19229D01*
X427008Y19225D01*
X428652Y19225D01*
X429545Y18332D01*
X429545Y7068D01*
X428652Y6175D01*
X416388Y6175D01*
G37*
%LPD*%
%LPC*%
G36*
X473538Y6175D02*
X473538Y6175D01*
X472645Y7068D01*
X472645Y18332D01*
X473538Y19225D01*
X476564Y19225D01*
X476654Y19239D01*
X476745Y19247D01*
X476775Y19259D01*
X476807Y19264D01*
X476887Y19307D01*
X476971Y19343D01*
X477003Y19369D01*
X477024Y19380D01*
X477046Y19403D01*
X477102Y19448D01*
X478960Y21306D01*
X479002Y21364D01*
X479051Y21416D01*
X479073Y21463D01*
X479104Y21505D01*
X479125Y21574D01*
X479155Y21639D01*
X479161Y21691D01*
X479176Y21741D01*
X479174Y21812D01*
X479182Y21883D01*
X479171Y21934D01*
X479170Y21986D01*
X479145Y22054D01*
X479130Y22124D01*
X479103Y22169D01*
X479085Y22217D01*
X479040Y22273D01*
X479004Y22335D01*
X478964Y22369D01*
X478932Y22409D01*
X478871Y22448D01*
X478817Y22495D01*
X478768Y22514D01*
X478725Y22542D01*
X478655Y22560D01*
X478589Y22587D01*
X478517Y22595D01*
X478486Y22603D01*
X478463Y22601D01*
X478422Y22605D01*
X475618Y22605D01*
X474725Y23498D01*
X474725Y40002D01*
X475699Y40976D01*
X475741Y41034D01*
X475791Y41086D01*
X475813Y41133D01*
X475843Y41175D01*
X475864Y41244D01*
X475894Y41309D01*
X475900Y41361D01*
X475915Y41411D01*
X475913Y41482D01*
X475921Y41553D01*
X475910Y41604D01*
X475909Y41656D01*
X475884Y41724D01*
X475869Y41794D01*
X475842Y41839D01*
X475825Y41887D01*
X475780Y41943D01*
X475743Y42005D01*
X475703Y42039D01*
X475671Y42079D01*
X475611Y42118D01*
X475556Y42165D01*
X475508Y42184D01*
X475464Y42212D01*
X475394Y42230D01*
X475328Y42257D01*
X475257Y42265D01*
X475225Y42273D01*
X475202Y42271D01*
X475161Y42275D01*
X475038Y42275D01*
X474145Y43168D01*
X474145Y58432D01*
X475038Y59325D01*
X487302Y59325D01*
X488195Y58432D01*
X488195Y55224D01*
X488206Y55153D01*
X488208Y55081D01*
X488226Y55032D01*
X488234Y54981D01*
X488268Y54918D01*
X488293Y54850D01*
X488325Y54810D01*
X488350Y54764D01*
X488402Y54714D01*
X488446Y54658D01*
X488490Y54630D01*
X488528Y54594D01*
X488593Y54564D01*
X488653Y54525D01*
X488704Y54513D01*
X488751Y54491D01*
X488822Y54483D01*
X488892Y54465D01*
X488944Y54469D01*
X488995Y54464D01*
X489066Y54479D01*
X489137Y54484D01*
X489185Y54505D01*
X489236Y54516D01*
X489297Y54553D01*
X489363Y54581D01*
X489419Y54626D01*
X489447Y54642D01*
X489462Y54660D01*
X489494Y54686D01*
X490665Y55857D01*
X494855Y55857D01*
X497817Y52895D01*
X497817Y48705D01*
X494855Y45743D01*
X490665Y45743D01*
X489494Y46914D01*
X489436Y46956D01*
X489384Y47006D01*
X489337Y47028D01*
X489295Y47058D01*
X489226Y47079D01*
X489161Y47109D01*
X489109Y47115D01*
X489059Y47130D01*
X488988Y47128D01*
X488917Y47136D01*
X488866Y47125D01*
X488814Y47124D01*
X488746Y47099D01*
X488676Y47084D01*
X488631Y47057D01*
X488583Y47040D01*
X488527Y46995D01*
X488465Y46958D01*
X488431Y46918D01*
X488391Y46886D01*
X488352Y46826D01*
X488305Y46771D01*
X488286Y46723D01*
X488258Y46679D01*
X488240Y46609D01*
X488213Y46543D01*
X488205Y46472D01*
X488197Y46440D01*
X488199Y46417D01*
X488195Y46376D01*
X488195Y43168D01*
X487221Y42194D01*
X487179Y42136D01*
X487129Y42084D01*
X487107Y42037D01*
X487077Y41995D01*
X487056Y41926D01*
X487026Y41861D01*
X487020Y41809D01*
X487005Y41759D01*
X487007Y41688D01*
X486999Y41617D01*
X487010Y41566D01*
X487011Y41514D01*
X487036Y41446D01*
X487051Y41376D01*
X487078Y41331D01*
X487095Y41283D01*
X487140Y41227D01*
X487177Y41165D01*
X487217Y41131D01*
X487249Y41091D01*
X487309Y41052D01*
X487364Y41005D01*
X487412Y40986D01*
X487456Y40958D01*
X487526Y40940D01*
X487592Y40913D01*
X487663Y40905D01*
X487695Y40897D01*
X487718Y40899D01*
X487759Y40895D01*
X492122Y40895D01*
X493015Y40002D01*
X493015Y23498D01*
X492122Y22605D01*
X487902Y22605D01*
X487882Y22602D01*
X487863Y22604D01*
X487761Y22582D01*
X487659Y22566D01*
X487642Y22556D01*
X487622Y22552D01*
X487533Y22499D01*
X487442Y22450D01*
X487428Y22436D01*
X487411Y22426D01*
X487344Y22347D01*
X487272Y22272D01*
X487264Y22254D01*
X487251Y22239D01*
X487212Y22143D01*
X487169Y22049D01*
X487167Y22029D01*
X487159Y22011D01*
X487141Y21844D01*
X487141Y20235D01*
X486504Y19599D01*
X486493Y19583D01*
X486477Y19570D01*
X486421Y19483D01*
X486361Y19399D01*
X486355Y19380D01*
X486344Y19363D01*
X486319Y19263D01*
X486288Y19164D01*
X486289Y19144D01*
X486284Y19125D01*
X486292Y19022D01*
X486295Y18918D01*
X486301Y18899D01*
X486303Y18879D01*
X486343Y18784D01*
X486379Y18687D01*
X486392Y18671D01*
X486399Y18653D01*
X486504Y18522D01*
X486695Y18332D01*
X486695Y7068D01*
X485802Y6175D01*
X473538Y6175D01*
G37*
%LPD*%
%LPC*%
G36*
X298278Y6175D02*
X298278Y6175D01*
X297385Y7068D01*
X297385Y18332D01*
X298278Y19225D01*
X301304Y19225D01*
X301394Y19239D01*
X301485Y19247D01*
X301515Y19259D01*
X301547Y19264D01*
X301627Y19307D01*
X301711Y19343D01*
X301743Y19369D01*
X301764Y19380D01*
X301786Y19403D01*
X301842Y19448D01*
X303700Y21306D01*
X303742Y21364D01*
X303791Y21416D01*
X303813Y21463D01*
X303844Y21505D01*
X303865Y21574D01*
X303895Y21639D01*
X303901Y21691D01*
X303916Y21741D01*
X303914Y21812D01*
X303922Y21883D01*
X303911Y21934D01*
X303910Y21986D01*
X303885Y22054D01*
X303870Y22124D01*
X303843Y22168D01*
X303825Y22217D01*
X303780Y22273D01*
X303744Y22335D01*
X303704Y22369D01*
X303672Y22409D01*
X303611Y22448D01*
X303557Y22495D01*
X303508Y22514D01*
X303465Y22542D01*
X303395Y22560D01*
X303329Y22587D01*
X303257Y22595D01*
X303226Y22603D01*
X303203Y22601D01*
X303162Y22605D01*
X300358Y22605D01*
X299465Y23498D01*
X299465Y40002D01*
X300439Y40976D01*
X300481Y41034D01*
X300531Y41086D01*
X300553Y41133D01*
X300583Y41175D01*
X300604Y41244D01*
X300634Y41309D01*
X300640Y41361D01*
X300655Y41411D01*
X300653Y41482D01*
X300661Y41553D01*
X300650Y41604D01*
X300649Y41656D01*
X300624Y41724D01*
X300609Y41794D01*
X300582Y41839D01*
X300565Y41887D01*
X300520Y41943D01*
X300483Y42005D01*
X300443Y42039D01*
X300411Y42079D01*
X300351Y42118D01*
X300296Y42165D01*
X300248Y42184D01*
X300204Y42212D01*
X300134Y42230D01*
X300068Y42257D01*
X299997Y42265D01*
X299965Y42273D01*
X299942Y42271D01*
X299901Y42275D01*
X299778Y42275D01*
X298885Y43168D01*
X298885Y58432D01*
X299778Y59325D01*
X312042Y59325D01*
X312935Y58432D01*
X312935Y55224D01*
X312946Y55153D01*
X312948Y55081D01*
X312966Y55032D01*
X312974Y54981D01*
X313008Y54918D01*
X313033Y54850D01*
X313065Y54810D01*
X313090Y54764D01*
X313142Y54714D01*
X313186Y54658D01*
X313230Y54630D01*
X313268Y54594D01*
X313333Y54564D01*
X313393Y54525D01*
X313444Y54513D01*
X313491Y54491D01*
X313562Y54483D01*
X313632Y54465D01*
X313684Y54469D01*
X313735Y54464D01*
X313806Y54479D01*
X313877Y54484D01*
X313925Y54505D01*
X313976Y54516D01*
X314037Y54553D01*
X314103Y54581D01*
X314159Y54626D01*
X314187Y54642D01*
X314202Y54660D01*
X314234Y54686D01*
X315405Y55857D01*
X319595Y55857D01*
X322557Y52895D01*
X322557Y48705D01*
X319595Y45743D01*
X315405Y45743D01*
X314234Y46914D01*
X314176Y46956D01*
X314124Y47006D01*
X314077Y47028D01*
X314035Y47058D01*
X313966Y47079D01*
X313901Y47109D01*
X313849Y47115D01*
X313799Y47130D01*
X313728Y47128D01*
X313657Y47136D01*
X313606Y47125D01*
X313554Y47124D01*
X313486Y47099D01*
X313416Y47084D01*
X313371Y47057D01*
X313323Y47040D01*
X313267Y46995D01*
X313205Y46958D01*
X313171Y46918D01*
X313131Y46886D01*
X313092Y46826D01*
X313045Y46771D01*
X313026Y46723D01*
X312998Y46679D01*
X312980Y46609D01*
X312953Y46543D01*
X312945Y46472D01*
X312937Y46440D01*
X312939Y46417D01*
X312935Y46376D01*
X312935Y43168D01*
X311961Y42194D01*
X311919Y42136D01*
X311869Y42084D01*
X311847Y42037D01*
X311817Y41995D01*
X311796Y41926D01*
X311766Y41861D01*
X311760Y41809D01*
X311745Y41759D01*
X311747Y41688D01*
X311739Y41617D01*
X311750Y41566D01*
X311751Y41514D01*
X311776Y41446D01*
X311791Y41376D01*
X311818Y41331D01*
X311835Y41283D01*
X311880Y41227D01*
X311917Y41165D01*
X311957Y41131D01*
X311989Y41091D01*
X312049Y41052D01*
X312104Y41005D01*
X312152Y40986D01*
X312196Y40958D01*
X312266Y40940D01*
X312332Y40913D01*
X312403Y40905D01*
X312435Y40897D01*
X312458Y40899D01*
X312499Y40895D01*
X316862Y40895D01*
X317755Y40002D01*
X317755Y23498D01*
X316862Y22605D01*
X312642Y22605D01*
X312622Y22602D01*
X312603Y22604D01*
X312501Y22582D01*
X312399Y22566D01*
X312382Y22556D01*
X312362Y22552D01*
X312273Y22499D01*
X312182Y22450D01*
X312168Y22436D01*
X312151Y22426D01*
X312084Y22347D01*
X312012Y22272D01*
X312004Y22254D01*
X311991Y22239D01*
X311952Y22143D01*
X311909Y22049D01*
X311907Y22029D01*
X311899Y22011D01*
X311881Y21844D01*
X311881Y20235D01*
X311244Y19599D01*
X311233Y19583D01*
X311217Y19570D01*
X311161Y19483D01*
X311101Y19399D01*
X311095Y19380D01*
X311084Y19363D01*
X311059Y19263D01*
X311028Y19164D01*
X311029Y19144D01*
X311024Y19125D01*
X311032Y19022D01*
X311035Y18918D01*
X311041Y18899D01*
X311043Y18879D01*
X311083Y18784D01*
X311119Y18687D01*
X311132Y18671D01*
X311139Y18653D01*
X311244Y18522D01*
X311435Y18332D01*
X311435Y7068D01*
X310542Y6175D01*
X298278Y6175D01*
G37*
%LPD*%
%LPC*%
G36*
X241128Y6175D02*
X241128Y6175D01*
X240235Y7068D01*
X240235Y18332D01*
X241128Y19225D01*
X243228Y19225D01*
X243248Y19228D01*
X243267Y19226D01*
X243369Y19248D01*
X243471Y19264D01*
X243488Y19274D01*
X243508Y19278D01*
X243597Y19331D01*
X243688Y19380D01*
X243702Y19394D01*
X243719Y19404D01*
X243786Y19483D01*
X243858Y19558D01*
X243866Y19576D01*
X243879Y19591D01*
X243917Y19687D01*
X243961Y19781D01*
X243963Y19801D01*
X243971Y19819D01*
X243989Y19986D01*
X243989Y20015D01*
X245280Y21306D01*
X245322Y21364D01*
X245371Y21416D01*
X245393Y21463D01*
X245424Y21505D01*
X245445Y21574D01*
X245475Y21639D01*
X245481Y21691D01*
X245496Y21741D01*
X245494Y21812D01*
X245502Y21883D01*
X245491Y21934D01*
X245490Y21986D01*
X245465Y22054D01*
X245450Y22124D01*
X245423Y22169D01*
X245405Y22217D01*
X245360Y22273D01*
X245324Y22335D01*
X245284Y22369D01*
X245252Y22409D01*
X245191Y22448D01*
X245137Y22495D01*
X245088Y22514D01*
X245045Y22542D01*
X244975Y22560D01*
X244909Y22587D01*
X244837Y22595D01*
X244806Y22603D01*
X244783Y22601D01*
X244742Y22605D01*
X241938Y22605D01*
X241045Y23498D01*
X241045Y40002D01*
X242019Y40976D01*
X242061Y41034D01*
X242111Y41086D01*
X242133Y41133D01*
X242163Y41175D01*
X242184Y41244D01*
X242214Y41309D01*
X242220Y41361D01*
X242235Y41411D01*
X242233Y41482D01*
X242241Y41553D01*
X242230Y41604D01*
X242229Y41656D01*
X242204Y41724D01*
X242189Y41794D01*
X242162Y41839D01*
X242145Y41887D01*
X242100Y41943D01*
X242063Y42005D01*
X242023Y42039D01*
X241991Y42079D01*
X241931Y42118D01*
X241876Y42165D01*
X241828Y42184D01*
X241784Y42212D01*
X241714Y42230D01*
X241648Y42257D01*
X241577Y42265D01*
X241545Y42273D01*
X241522Y42271D01*
X241481Y42275D01*
X241358Y42275D01*
X240465Y43168D01*
X240465Y58432D01*
X241358Y59325D01*
X253622Y59325D01*
X254515Y58432D01*
X254515Y55224D01*
X254526Y55153D01*
X254528Y55081D01*
X254546Y55032D01*
X254554Y54981D01*
X254588Y54918D01*
X254613Y54850D01*
X254645Y54810D01*
X254670Y54764D01*
X254722Y54714D01*
X254766Y54658D01*
X254810Y54630D01*
X254848Y54594D01*
X254913Y54564D01*
X254973Y54525D01*
X255024Y54513D01*
X255071Y54491D01*
X255142Y54483D01*
X255212Y54465D01*
X255264Y54469D01*
X255315Y54464D01*
X255386Y54479D01*
X255457Y54484D01*
X255505Y54505D01*
X255556Y54516D01*
X255617Y54553D01*
X255683Y54581D01*
X255739Y54626D01*
X255767Y54642D01*
X255782Y54660D01*
X255814Y54686D01*
X256985Y55857D01*
X261175Y55857D01*
X264137Y52895D01*
X264137Y48705D01*
X261175Y45743D01*
X256985Y45743D01*
X255814Y46914D01*
X255756Y46956D01*
X255704Y47006D01*
X255657Y47028D01*
X255615Y47058D01*
X255546Y47079D01*
X255481Y47109D01*
X255429Y47115D01*
X255379Y47130D01*
X255308Y47128D01*
X255237Y47136D01*
X255186Y47125D01*
X255134Y47124D01*
X255066Y47099D01*
X254996Y47084D01*
X254951Y47057D01*
X254903Y47040D01*
X254847Y46995D01*
X254785Y46958D01*
X254751Y46918D01*
X254711Y46886D01*
X254672Y46826D01*
X254625Y46771D01*
X254606Y46723D01*
X254578Y46679D01*
X254560Y46609D01*
X254533Y46543D01*
X254525Y46472D01*
X254517Y46440D01*
X254519Y46417D01*
X254515Y46376D01*
X254515Y43168D01*
X253541Y42194D01*
X253499Y42136D01*
X253449Y42084D01*
X253427Y42037D01*
X253397Y41995D01*
X253376Y41926D01*
X253346Y41861D01*
X253340Y41809D01*
X253325Y41759D01*
X253327Y41688D01*
X253319Y41617D01*
X253330Y41566D01*
X253331Y41514D01*
X253356Y41446D01*
X253371Y41376D01*
X253398Y41331D01*
X253415Y41283D01*
X253460Y41227D01*
X253497Y41165D01*
X253537Y41131D01*
X253569Y41091D01*
X253629Y41052D01*
X253684Y41005D01*
X253732Y40986D01*
X253776Y40958D01*
X253846Y40940D01*
X253912Y40913D01*
X253983Y40905D01*
X254015Y40897D01*
X254038Y40899D01*
X254079Y40895D01*
X258442Y40895D01*
X259335Y40002D01*
X259335Y23498D01*
X258442Y22605D01*
X254222Y22605D01*
X254202Y22602D01*
X254183Y22604D01*
X254081Y22582D01*
X253979Y22566D01*
X253962Y22556D01*
X253942Y22552D01*
X253853Y22499D01*
X253762Y22450D01*
X253748Y22436D01*
X253731Y22426D01*
X253664Y22347D01*
X253592Y22272D01*
X253584Y22254D01*
X253571Y22239D01*
X253532Y22143D01*
X253489Y22049D01*
X253487Y22029D01*
X253479Y22011D01*
X253461Y21844D01*
X253461Y20235D01*
X253459Y20234D01*
X253448Y20218D01*
X253432Y20205D01*
X253376Y20118D01*
X253316Y20034D01*
X253310Y20015D01*
X253299Y19998D01*
X253274Y19898D01*
X253243Y19799D01*
X253244Y19779D01*
X253239Y19760D01*
X253247Y19657D01*
X253250Y19553D01*
X253256Y19534D01*
X253258Y19514D01*
X253299Y19419D01*
X253334Y19322D01*
X253347Y19306D01*
X253354Y19288D01*
X253459Y19157D01*
X254285Y18332D01*
X254285Y7068D01*
X253392Y6175D01*
X241128Y6175D01*
G37*
%LPD*%
%LPC*%
G36*
X132753Y84870D02*
X132753Y84870D01*
X131860Y85763D01*
X131860Y107277D01*
X132753Y108170D01*
X154267Y108170D01*
X155160Y107277D01*
X155160Y85763D01*
X154267Y84870D01*
X132753Y84870D01*
G37*
%LPD*%
%LPC*%
G36*
X31966Y203745D02*
X31966Y203745D01*
X27671Y205524D01*
X24384Y208811D01*
X22605Y213106D01*
X22605Y217754D01*
X24384Y222049D01*
X27671Y225336D01*
X31966Y227115D01*
X36614Y227115D01*
X40909Y225336D01*
X44196Y222049D01*
X45975Y217754D01*
X45975Y213106D01*
X44196Y208811D01*
X40909Y205524D01*
X36614Y203745D01*
X31966Y203745D01*
G37*
%LPD*%
%LPC*%
G36*
X181193Y135870D02*
X181193Y135870D01*
X176911Y137644D01*
X173634Y140921D01*
X171860Y145203D01*
X171860Y149837D01*
X173634Y154119D01*
X176911Y157396D01*
X181193Y159170D01*
X185827Y159170D01*
X190109Y157396D01*
X193386Y154119D01*
X195160Y149837D01*
X195160Y145203D01*
X193386Y140921D01*
X190109Y137644D01*
X185827Y135870D01*
X181193Y135870D01*
G37*
%LPD*%
%LPC*%
G36*
X181193Y101870D02*
X181193Y101870D01*
X176911Y103644D01*
X173634Y106921D01*
X171860Y111203D01*
X171860Y115837D01*
X173634Y120119D01*
X176911Y123396D01*
X181193Y125170D01*
X185827Y125170D01*
X190109Y123396D01*
X193386Y120119D01*
X195160Y115837D01*
X195160Y111203D01*
X193386Y106921D01*
X190109Y103644D01*
X185827Y101870D01*
X181193Y101870D01*
G37*
%LPD*%
%LPC*%
G36*
X608697Y9397D02*
X608697Y9397D01*
X604683Y11060D01*
X601610Y14133D01*
X599947Y18147D01*
X599947Y22493D01*
X601610Y26507D01*
X604683Y29580D01*
X608697Y31243D01*
X613043Y31243D01*
X617057Y29580D01*
X620130Y26507D01*
X621793Y22493D01*
X621793Y18147D01*
X620130Y14133D01*
X617057Y11060D01*
X613043Y9397D01*
X608697Y9397D01*
G37*
%LPD*%
%LPC*%
G36*
X634097Y9397D02*
X634097Y9397D01*
X630083Y11060D01*
X627010Y14133D01*
X625347Y18147D01*
X625347Y22493D01*
X627010Y26507D01*
X630083Y29580D01*
X634097Y31243D01*
X638443Y31243D01*
X642457Y29580D01*
X645530Y26507D01*
X647193Y22493D01*
X647193Y18147D01*
X645530Y14133D01*
X642457Y11060D01*
X638443Y9397D01*
X634097Y9397D01*
G37*
%LPD*%
%LPC*%
G36*
X361649Y126720D02*
X361649Y126720D01*
X358745Y127923D01*
X356523Y130145D01*
X355320Y133049D01*
X355320Y136191D01*
X356523Y139095D01*
X358745Y141317D01*
X361649Y142520D01*
X364791Y142520D01*
X367695Y141317D01*
X369917Y139095D01*
X371120Y136191D01*
X371120Y133049D01*
X369917Y130145D01*
X367695Y127923D01*
X364791Y126720D01*
X361649Y126720D01*
G37*
%LPD*%
%LPC*%
G36*
X21289Y116560D02*
X21289Y116560D01*
X18385Y117763D01*
X16163Y119985D01*
X14960Y122889D01*
X14960Y126031D01*
X16163Y128935D01*
X18385Y131157D01*
X21289Y132360D01*
X24431Y132360D01*
X27335Y131157D01*
X29557Y128935D01*
X30760Y126031D01*
X30760Y122889D01*
X29557Y119985D01*
X27335Y117763D01*
X24431Y116560D01*
X21289Y116560D01*
G37*
%LPD*%
D10*
X224790Y571500D03*
X250190Y571500D03*
X344170Y571500D03*
X369570Y571500D03*
X284480Y571500D03*
X309880Y571500D03*
X403860Y571500D03*
X429260Y571500D03*
X463550Y571500D03*
X488950Y571500D03*
D11*
X143510Y96520D03*
D12*
X183510Y113520D03*
X143510Y130520D03*
X183510Y147520D03*
X143510Y164520D03*
D13*
X68420Y424180D03*
X48420Y424180D03*
X341470Y422910D03*
X321470Y422910D03*
X208120Y422910D03*
X188120Y422910D03*
X491330Y422910D03*
X471330Y422910D03*
X627220Y424180D03*
X607220Y424180D03*
D14*
X560070Y20320D03*
X560070Y45720D03*
X585470Y20320D03*
X585470Y45720D03*
X610870Y20320D03*
X610870Y45720D03*
X636270Y20320D03*
X636270Y45720D03*
D15*
X34290Y265430D03*
D16*
X34290Y215430D03*
D10*
X483870Y31750D03*
X458470Y31750D03*
X425450Y31750D03*
X400050Y31750D03*
X367030Y31750D03*
X341630Y31750D03*
X308610Y31750D03*
X283210Y31750D03*
X250190Y31750D03*
X224790Y31750D03*
D13*
X481170Y50800D03*
X461170Y50800D03*
X421480Y50800D03*
X401480Y50800D03*
X364330Y50800D03*
X344330Y50800D03*
X305910Y50800D03*
X285910Y50800D03*
X247490Y50800D03*
X227490Y50800D03*
D17*
X479670Y12700D03*
X462670Y12700D03*
X422520Y12700D03*
X405520Y12700D03*
X362830Y12700D03*
X345830Y12700D03*
X304410Y12700D03*
X287410Y12700D03*
X247260Y12700D03*
X230260Y12700D03*
D10*
X191770Y31750D03*
X166370Y31750D03*
D18*
X22860Y124460D03*
D19*
X21590Y312420D03*
X21590Y322580D03*
X21590Y332740D03*
X21590Y342900D03*
X21590Y354330D03*
X30480Y342900D03*
D20*
X49530Y375920D03*
X49530Y384810D03*
X49530Y393700D03*
X49530Y367030D03*
X189230Y375920D03*
X189230Y384810D03*
X189230Y393700D03*
X189230Y367030D03*
X327660Y377190D03*
X327660Y386080D03*
X327660Y394970D03*
X327660Y368300D03*
X468630Y378460D03*
X468630Y387350D03*
X468630Y396240D03*
X468630Y369570D03*
X610870Y378460D03*
X610870Y387350D03*
X610870Y396240D03*
X610870Y369570D03*
D21*
X59690Y393700D02*
X49530Y393700D01*
X59690Y393700D02*
X68420Y402430D01*
X68420Y424180D01*
X189230Y393700D02*
X201930Y393700D01*
X208120Y399890D01*
X208120Y422910D01*
X327660Y394970D02*
X332740Y394970D01*
X341630Y403860D01*
X341630Y422750D01*
X341470Y422910D01*
X468630Y396240D02*
X482600Y396240D01*
X491490Y405130D01*
X491490Y422750D01*
X491330Y422910D01*
X610870Y396240D02*
X619760Y396240D01*
X627380Y403860D01*
X627380Y424020D01*
X627220Y424180D01*
D20*
X339090Y240030D03*
X311150Y240030D03*
X281940Y240030D03*
X248920Y240030D03*
X214630Y240030D03*
X177800Y240030D03*
D18*
X72390Y124460D03*
X363220Y85090D03*
D20*
X657860Y251460D03*
X657860Y238760D03*
X657860Y224790D03*
X657860Y209550D03*
X657860Y195580D03*
X657860Y180340D03*
X657860Y166370D03*
X657860Y151130D03*
X657860Y135890D03*
X657860Y119380D03*
X657860Y101600D03*
X657860Y85090D03*
D19*
X302260Y308610D03*
X302260Y332740D03*
X302260Y321310D03*
X302260Y344170D03*
X302260Y355600D03*
X311150Y344170D03*
X163830Y308610D03*
X163830Y332740D03*
X163830Y321310D03*
X163830Y344170D03*
X163830Y355600D03*
X172720Y344170D03*
X443230Y308610D03*
X443230Y332740D03*
X443230Y321310D03*
X443230Y344170D03*
X443230Y355600D03*
X452120Y344170D03*
X585470Y308610D03*
X585470Y332740D03*
X585470Y321310D03*
X585470Y344170D03*
X585470Y355600D03*
X594360Y344170D03*
D20*
X481330Y213360D03*
D21*
X481330Y207010D01*
X495110Y193230D01*
X585470Y74930D02*
X585470Y45720D01*
X495110Y125343D02*
X495110Y193230D01*
X495110Y125343D02*
X533013Y87440D01*
X572960Y87440D01*
X585470Y74930D01*
D20*
X473710Y226060D03*
D21*
X473710Y208973D01*
X491110Y191573D01*
X491110Y123686D02*
X531356Y83440D01*
X549910Y83440D01*
X560070Y73280D01*
X560070Y45720D01*
X491110Y123686D02*
X491110Y191573D01*
D20*
X499110Y200660D03*
D21*
X499110Y127000D01*
X610870Y59690D02*
X610870Y45720D01*
X534670Y91440D02*
X499110Y127000D01*
X534670Y91440D02*
X579120Y91440D01*
X610870Y59690D01*
D20*
X571500Y278130D03*
D21*
X502920Y204470D02*
X499110Y200660D01*
X502920Y204470D02*
X502920Y240607D01*
X546793Y284480D02*
X566420Y284480D01*
X571500Y279400D01*
X571500Y278130D01*
X546793Y284480D02*
X502920Y240607D01*
D20*
X508000Y189230D03*
D21*
X503110Y184340D01*
X586550Y95440D02*
X636270Y45720D01*
X503110Y128657D02*
X503110Y184340D01*
X503110Y128657D02*
X536327Y95440D01*
X586550Y95440D01*
X508000Y189230D02*
X508000Y240030D01*
X546100Y278130D01*
X556260Y278130D01*
D20*
X556260Y278130D03*
X439420Y124460D03*
D21*
X439420Y161290D01*
X236220Y260350D02*
X200660Y260350D01*
X328930Y271780D02*
X439420Y161290D01*
X328930Y271780D02*
X247650Y271780D01*
X236220Y260350D01*
D20*
X200660Y260350D03*
X167640Y274320D03*
D22*
X48420Y424180D02*
X39370Y424180D01*
X34290Y419100D01*
D20*
X34290Y408940D03*
D22*
X34290Y419100D01*
X60960Y331470D02*
X60960Y303530D01*
X72390Y292100D01*
X34290Y358140D02*
X34290Y408940D01*
X34290Y358140D02*
X60960Y331470D01*
X149860Y292100D02*
X167640Y274320D01*
X149860Y292100D02*
X72390Y292100D01*
D20*
X345440Y275590D03*
X312420Y408940D03*
D22*
X312420Y364490D01*
X345440Y331470D01*
X345440Y275590D01*
X312420Y408940D02*
X312420Y419100D01*
X316230Y422910D01*
X321470Y422910D01*
D20*
X213360Y274320D03*
X173990Y407670D03*
D22*
X173990Y363220D01*
X205740Y331470D02*
X205740Y281940D01*
X213360Y274320D01*
X205740Y331470D02*
X173990Y363220D01*
X173990Y407670D02*
X173990Y417830D01*
X179070Y422910D01*
X188120Y422910D01*
D20*
X511810Y278130D03*
X455930Y410210D03*
D22*
X455930Y416560D02*
X462280Y422910D01*
X455930Y416560D02*
X455930Y410210D01*
X462280Y422910D02*
X471330Y422910D01*
X455930Y360680D02*
X483870Y332740D01*
X483870Y288290D01*
X494030Y278130D01*
X511810Y278130D01*
X455930Y360680D02*
X455930Y410210D01*
D20*
X595630Y410210D03*
D22*
X595630Y361950D01*
X623570Y334010D01*
X595630Y410210D02*
X595630Y419100D01*
X600710Y424180D01*
X607220Y424180D01*
D20*
X615950Y280670D03*
D22*
X623570Y288290D02*
X623570Y334010D01*
X623570Y288290D02*
X615950Y280670D01*
D23*
X191770Y44450D02*
X191770Y31750D01*
X191770Y44450D02*
X198120Y50800D01*
X227490Y50800D01*
X227490Y64930D01*
X231140Y68580D01*
X285750Y68580D01*
X344170Y68580D01*
X402590Y68580D01*
X431800Y68580D01*
X461010Y68580D01*
X285910Y68420D02*
X285910Y50800D01*
X285910Y68420D02*
X285750Y68580D01*
X344330Y68420D02*
X344330Y50800D01*
X344330Y68420D02*
X344170Y68580D01*
X401480Y67470D02*
X401480Y50800D01*
X401480Y67470D02*
X402590Y68580D01*
X461010Y68580D02*
X524510Y68580D01*
X541020Y52070D01*
X541020Y29210D01*
X549910Y20320D01*
X560070Y20320D01*
X461170Y50800D02*
X461170Y68420D01*
X461010Y68580D01*
X431800Y68580D02*
X431800Y105410D01*
X424180Y113030D01*
D20*
X424180Y113030D03*
D18*
X363220Y134620D03*
D22*
X479670Y17390D02*
X479670Y12700D01*
X479670Y17390D02*
X483870Y21590D01*
X483870Y31750D01*
X481170Y39530D02*
X481170Y50800D01*
X483870Y36830D02*
X483870Y31750D01*
X483870Y36830D02*
X481170Y39530D01*
D21*
X481170Y50800D02*
X492760Y50800D01*
D20*
X492760Y50800D03*
D22*
X422520Y21200D02*
X422520Y12700D01*
X422520Y21200D02*
X425450Y24130D01*
X425450Y31750D01*
X421480Y35720D02*
X421480Y50800D01*
X421480Y35720D02*
X425450Y31750D01*
D21*
X421480Y50800D02*
X434340Y50800D01*
D20*
X434340Y50800D03*
D22*
X362830Y17390D02*
X362830Y12700D01*
X362830Y17390D02*
X367030Y21590D01*
X367030Y31750D01*
X364330Y34450D02*
X364330Y50800D01*
X364330Y34450D02*
X367030Y31750D01*
D21*
X364330Y50800D02*
X377190Y50800D01*
D20*
X377190Y50800D03*
D22*
X304410Y17390D02*
X304410Y12700D01*
X304410Y17390D02*
X308610Y21590D01*
X308610Y31750D01*
X305910Y34450D02*
X305910Y50800D01*
X305910Y34450D02*
X308610Y31750D01*
D21*
X305910Y50800D02*
X317500Y50800D01*
D20*
X317500Y50800D03*
D22*
X247490Y50800D02*
X247490Y34450D01*
X250190Y31750D01*
X247260Y18660D02*
X247260Y12700D01*
X247260Y18660D02*
X250190Y21590D01*
X250190Y31750D01*
D21*
X247490Y50800D02*
X259080Y50800D01*
D20*
X259080Y50800D03*
X546100Y241300D03*
X648970Y68580D03*
D21*
X546100Y232410D02*
X546100Y241300D01*
X546100Y232410D02*
X537400Y223710D01*
X537400Y112140D02*
X546100Y103440D01*
X589864Y103440D01*
X612024Y81280D02*
X612140Y81280D01*
X612024Y81280D02*
X589864Y103440D01*
X537400Y112140D02*
X537400Y223710D01*
X639104Y78446D02*
X648970Y68580D01*
X639104Y78446D02*
X614858Y78446D01*
X612024Y81280D01*
D20*
X533400Y236220D03*
X631190Y72390D03*
D21*
X533400Y109600D02*
X533400Y236220D01*
X533400Y109600D02*
X543560Y99440D01*
X588207Y99440D01*
X615257Y72390D02*
X631190Y72390D01*
X615257Y72390D02*
X588207Y99440D01*
M02*
