G04 EAGLE Gerber RS-274X export*
G75*
%MOMM*%
%FSLAX34Y34*%
%LPD*%
%IN*%
%IPPOS*%
%AMOC8*
5,1,8,0,0,1.08239X$1,22.5*%
G01*
%ADD10C,0.254000*%


D10*
X0Y50800D02*
X-129Y49821D01*
X-427Y45915D01*
X-384Y41998D01*
X0Y38100D01*
X723Y34250D01*
X1778Y30478D01*
X3158Y26812D01*
X4853Y23280D01*
X6848Y19910D01*
X9130Y16726D01*
X11681Y13753D01*
X14481Y11014D01*
X17509Y8529D01*
X20743Y6318D01*
X24156Y4396D01*
X27724Y2780D01*
X31420Y1481D01*
X35214Y509D01*
X39079Y-129D01*
X42985Y-427D01*
X46902Y-384D01*
X50800Y0D01*
X693420Y0D01*
X694689Y-36D01*
X698512Y77D01*
X702310Y522D01*
X706055Y1298D01*
X709718Y2396D01*
X713272Y3810D01*
X716689Y5528D01*
X719943Y7537D01*
X723009Y9822D01*
X725865Y12366D01*
X728488Y15149D01*
X730859Y18150D01*
X732959Y21346D01*
X734772Y24713D01*
X736285Y28225D01*
X737487Y31856D01*
X738367Y35578D01*
X738919Y39362D01*
X739140Y43180D01*
X739140Y82550D01*
X664210Y82550D01*
X664210Y255270D01*
X739140Y255270D01*
X739140Y558800D01*
X739409Y562804D01*
X739328Y566816D01*
X738897Y570806D01*
X738120Y574744D01*
X737003Y578598D01*
X735555Y582341D01*
X733785Y585943D01*
X731709Y589377D01*
X729341Y592617D01*
X726700Y595638D01*
X723805Y598418D01*
X720679Y600935D01*
X717346Y603170D01*
X713831Y605105D01*
X710160Y606727D01*
X706362Y608023D01*
X702465Y608983D01*
X698500Y609600D01*
X50800Y609600D01*
X49821Y609729D01*
X45915Y610027D01*
X41998Y609984D01*
X38100Y609600D01*
X34250Y608877D01*
X30478Y607822D01*
X26812Y606442D01*
X23280Y604747D01*
X19910Y602752D01*
X16726Y600470D01*
X13753Y597919D01*
X11014Y595119D01*
X8529Y592091D01*
X6318Y588858D01*
X4396Y585444D01*
X2780Y581876D01*
X1481Y578180D01*
X509Y574386D01*
X-129Y570521D01*
X-427Y566615D01*
X-384Y562698D01*
X0Y558800D01*
X0Y50800D01*
X58180Y41374D02*
X58104Y40306D01*
X57951Y39245D01*
X57723Y38198D01*
X57421Y37170D01*
X57047Y36166D01*
X56602Y35191D01*
X56088Y34251D01*
X55509Y33350D01*
X54867Y32492D01*
X54165Y31682D01*
X53408Y30925D01*
X52598Y30223D01*
X51740Y29581D01*
X50839Y29002D01*
X49899Y28488D01*
X48924Y28043D01*
X47920Y27669D01*
X46892Y27367D01*
X45845Y27139D01*
X44784Y26986D01*
X43716Y26910D01*
X42644Y26910D01*
X41576Y26986D01*
X40515Y27139D01*
X39468Y27367D01*
X38440Y27669D01*
X37436Y28043D01*
X36461Y28488D01*
X35521Y29002D01*
X34620Y29581D01*
X33762Y30223D01*
X32952Y30925D01*
X32195Y31682D01*
X31493Y32492D01*
X30851Y33350D01*
X30272Y34251D01*
X29758Y35191D01*
X29313Y36166D01*
X28939Y37170D01*
X28637Y38198D01*
X28409Y39245D01*
X28256Y40306D01*
X28180Y41374D01*
X28180Y42446D01*
X28256Y43514D01*
X28409Y44575D01*
X28637Y45622D01*
X28939Y46650D01*
X29313Y47654D01*
X29758Y48629D01*
X30272Y49569D01*
X30851Y50470D01*
X31493Y51328D01*
X32195Y52138D01*
X32952Y52895D01*
X33762Y53597D01*
X34620Y54239D01*
X35521Y54818D01*
X36461Y55332D01*
X37436Y55777D01*
X38440Y56151D01*
X39468Y56453D01*
X40515Y56681D01*
X41576Y56834D01*
X42644Y56910D01*
X43716Y56910D01*
X44784Y56834D01*
X45845Y56681D01*
X46892Y56453D01*
X47920Y56151D01*
X48924Y55777D01*
X49899Y55332D01*
X50839Y54818D01*
X51740Y54239D01*
X52598Y53597D01*
X53408Y52895D01*
X54165Y52138D01*
X54867Y51328D01*
X55509Y50470D01*
X56088Y49569D01*
X56602Y48629D01*
X57047Y47654D01*
X57421Y46650D01*
X57723Y45622D01*
X57951Y44575D01*
X58104Y43514D01*
X58180Y42446D01*
X58180Y41374D01*
X708420Y40104D02*
X708344Y39036D01*
X708191Y37975D01*
X707963Y36928D01*
X707661Y35900D01*
X707287Y34896D01*
X706842Y33921D01*
X706328Y32981D01*
X705749Y32080D01*
X705107Y31222D01*
X704405Y30412D01*
X703648Y29655D01*
X702838Y28953D01*
X701980Y28311D01*
X701079Y27732D01*
X700139Y27218D01*
X699164Y26773D01*
X698160Y26399D01*
X697132Y26097D01*
X696085Y25869D01*
X695024Y25716D01*
X693956Y25640D01*
X692884Y25640D01*
X691816Y25716D01*
X690755Y25869D01*
X689708Y26097D01*
X688680Y26399D01*
X687676Y26773D01*
X686701Y27218D01*
X685761Y27732D01*
X684860Y28311D01*
X684002Y28953D01*
X683192Y29655D01*
X682435Y30412D01*
X681733Y31222D01*
X681091Y32080D01*
X680512Y32981D01*
X679998Y33921D01*
X679553Y34896D01*
X679179Y35900D01*
X678877Y36928D01*
X678649Y37975D01*
X678496Y39036D01*
X678420Y40104D01*
X678420Y41176D01*
X678496Y42244D01*
X678649Y43305D01*
X678877Y44352D01*
X679179Y45380D01*
X679553Y46384D01*
X679998Y47359D01*
X680512Y48299D01*
X681091Y49200D01*
X681733Y50058D01*
X682435Y50868D01*
X683192Y51625D01*
X684002Y52327D01*
X684860Y52969D01*
X685761Y53548D01*
X686701Y54062D01*
X687676Y54507D01*
X688680Y54881D01*
X689708Y55183D01*
X690755Y55411D01*
X691816Y55564D01*
X692884Y55640D01*
X693956Y55640D01*
X695024Y55564D01*
X696085Y55411D01*
X697132Y55183D01*
X698160Y54881D01*
X699164Y54507D01*
X700139Y54062D01*
X701079Y53548D01*
X701980Y52969D01*
X702838Y52327D01*
X703648Y51625D01*
X704405Y50868D01*
X705107Y50058D01*
X705749Y49200D01*
X706328Y48299D01*
X706842Y47359D01*
X707287Y46384D01*
X707661Y45380D01*
X707963Y44352D01*
X708191Y43305D01*
X708344Y42244D01*
X708420Y41176D01*
X708420Y40104D01*
X56910Y567154D02*
X56834Y566086D01*
X56681Y565025D01*
X56453Y563978D01*
X56151Y562950D01*
X55777Y561946D01*
X55332Y560971D01*
X54818Y560031D01*
X54239Y559130D01*
X53597Y558272D01*
X52895Y557462D01*
X52138Y556705D01*
X51328Y556003D01*
X50470Y555361D01*
X49569Y554782D01*
X48629Y554268D01*
X47654Y553823D01*
X46650Y553449D01*
X45622Y553147D01*
X44575Y552919D01*
X43514Y552766D01*
X42446Y552690D01*
X41374Y552690D01*
X40306Y552766D01*
X39245Y552919D01*
X38198Y553147D01*
X37170Y553449D01*
X36166Y553823D01*
X35191Y554268D01*
X34251Y554782D01*
X33350Y555361D01*
X32492Y556003D01*
X31682Y556705D01*
X30925Y557462D01*
X30223Y558272D01*
X29581Y559130D01*
X29002Y560031D01*
X28488Y560971D01*
X28043Y561946D01*
X27669Y562950D01*
X27367Y563978D01*
X27139Y565025D01*
X26986Y566086D01*
X26910Y567154D01*
X26910Y568226D01*
X26986Y569294D01*
X27139Y570355D01*
X27367Y571402D01*
X27669Y572430D01*
X28043Y573434D01*
X28488Y574409D01*
X29002Y575349D01*
X29581Y576250D01*
X30223Y577108D01*
X30925Y577918D01*
X31682Y578675D01*
X32492Y579377D01*
X33350Y580019D01*
X34251Y580598D01*
X35191Y581112D01*
X36166Y581557D01*
X37170Y581931D01*
X38198Y582233D01*
X39245Y582461D01*
X40306Y582614D01*
X41374Y582690D01*
X42446Y582690D01*
X43514Y582614D01*
X44575Y582461D01*
X45622Y582233D01*
X46650Y581931D01*
X47654Y581557D01*
X48629Y581112D01*
X49569Y580598D01*
X50470Y580019D01*
X51328Y579377D01*
X52138Y578675D01*
X52895Y577918D01*
X53597Y577108D01*
X54239Y576250D01*
X54818Y575349D01*
X55332Y574409D01*
X55777Y573434D01*
X56151Y572430D01*
X56453Y571402D01*
X56681Y570355D01*
X56834Y569294D01*
X56910Y568226D01*
X56910Y567154D01*
X709690Y565884D02*
X709614Y564816D01*
X709461Y563755D01*
X709233Y562708D01*
X708931Y561680D01*
X708557Y560676D01*
X708112Y559701D01*
X707598Y558761D01*
X707019Y557860D01*
X706377Y557002D01*
X705675Y556192D01*
X704918Y555435D01*
X704108Y554733D01*
X703250Y554091D01*
X702349Y553512D01*
X701409Y552998D01*
X700434Y552553D01*
X699430Y552179D01*
X698402Y551877D01*
X697355Y551649D01*
X696294Y551496D01*
X695226Y551420D01*
X694154Y551420D01*
X693086Y551496D01*
X692025Y551649D01*
X690978Y551877D01*
X689950Y552179D01*
X688946Y552553D01*
X687971Y552998D01*
X687031Y553512D01*
X686130Y554091D01*
X685272Y554733D01*
X684462Y555435D01*
X683705Y556192D01*
X683003Y557002D01*
X682361Y557860D01*
X681782Y558761D01*
X681268Y559701D01*
X680823Y560676D01*
X680449Y561680D01*
X680147Y562708D01*
X679919Y563755D01*
X679766Y564816D01*
X679690Y565884D01*
X679690Y566956D01*
X679766Y568024D01*
X679919Y569085D01*
X680147Y570132D01*
X680449Y571160D01*
X680823Y572164D01*
X681268Y573139D01*
X681782Y574079D01*
X682361Y574980D01*
X683003Y575838D01*
X683705Y576648D01*
X684462Y577405D01*
X685272Y578107D01*
X686130Y578749D01*
X687031Y579328D01*
X687971Y579842D01*
X688946Y580287D01*
X689950Y580661D01*
X690978Y580963D01*
X692025Y581191D01*
X693086Y581344D01*
X694154Y581420D01*
X695226Y581420D01*
X696294Y581344D01*
X697355Y581191D01*
X698402Y580963D01*
X699430Y580661D01*
X700434Y580287D01*
X701409Y579842D01*
X702349Y579328D01*
X703250Y578749D01*
X704108Y578107D01*
X704918Y577405D01*
X705675Y576648D01*
X706377Y575838D01*
X707019Y574980D01*
X707598Y574079D01*
X708112Y573139D01*
X708557Y572164D01*
X708931Y571160D01*
X709233Y570132D01*
X709461Y569085D01*
X709614Y568024D01*
X709690Y566956D01*
X709690Y565884D01*
M02*
