G04 EAGLE Gerber RS-274X export*
G75*
%MOMM*%
%FSLAX34Y34*%
%LPD*%
%INSilkscreen Bottom*%
%IPPOS*%
%AMOC8*
5,1,8,0,0,1.08239X$1,22.5*%
G01*
%ADD10C,0.076200*%
%ADD11R,0.650000X1.400000*%
%ADD12C,0.203200*%
%ADD13C,0.152400*%


D10*
X563640Y67691D02*
X565277Y69737D01*
X557911Y69737D01*
X557911Y67691D02*
X557911Y71783D01*
X557911Y74653D02*
X558320Y74653D01*
X558320Y75062D01*
X557911Y75062D01*
X557911Y74653D01*
X557911Y81834D02*
X557911Y83880D01*
X557913Y83969D01*
X557919Y84058D01*
X557929Y84147D01*
X557942Y84235D01*
X557959Y84323D01*
X557981Y84410D01*
X558006Y84495D01*
X558034Y84580D01*
X558067Y84663D01*
X558103Y84745D01*
X558142Y84825D01*
X558185Y84903D01*
X558231Y84979D01*
X558281Y85054D01*
X558334Y85126D01*
X558390Y85195D01*
X558449Y85262D01*
X558510Y85327D01*
X558575Y85388D01*
X558642Y85447D01*
X558711Y85503D01*
X558783Y85556D01*
X558858Y85606D01*
X558934Y85652D01*
X559012Y85695D01*
X559092Y85734D01*
X559174Y85770D01*
X559257Y85803D01*
X559342Y85831D01*
X559427Y85856D01*
X559514Y85878D01*
X559602Y85895D01*
X559690Y85908D01*
X559779Y85918D01*
X559868Y85924D01*
X559957Y85926D01*
X560046Y85924D01*
X560135Y85918D01*
X560224Y85908D01*
X560312Y85895D01*
X560400Y85878D01*
X560487Y85856D01*
X560572Y85831D01*
X560657Y85803D01*
X560740Y85770D01*
X560822Y85734D01*
X560902Y85695D01*
X560980Y85652D01*
X561056Y85606D01*
X561131Y85556D01*
X561203Y85503D01*
X561272Y85447D01*
X561339Y85388D01*
X561404Y85327D01*
X561465Y85262D01*
X561524Y85195D01*
X561580Y85126D01*
X561633Y85054D01*
X561683Y84979D01*
X561729Y84903D01*
X561772Y84825D01*
X561811Y84745D01*
X561847Y84663D01*
X561880Y84580D01*
X561908Y84495D01*
X561933Y84410D01*
X561955Y84323D01*
X561972Y84235D01*
X561985Y84147D01*
X561995Y84058D01*
X562001Y83969D01*
X562003Y83880D01*
X565277Y84289D02*
X565277Y81834D01*
X565277Y84289D02*
X565275Y84368D01*
X565269Y84447D01*
X565260Y84526D01*
X565247Y84604D01*
X565229Y84681D01*
X565209Y84757D01*
X565184Y84832D01*
X565156Y84906D01*
X565125Y84979D01*
X565089Y85050D01*
X565051Y85119D01*
X565009Y85186D01*
X564964Y85251D01*
X564916Y85314D01*
X564865Y85375D01*
X564811Y85432D01*
X564755Y85488D01*
X564696Y85540D01*
X564634Y85590D01*
X564570Y85636D01*
X564504Y85680D01*
X564436Y85720D01*
X564366Y85756D01*
X564294Y85790D01*
X564220Y85820D01*
X564146Y85846D01*
X564070Y85869D01*
X563993Y85887D01*
X563916Y85903D01*
X563837Y85914D01*
X563759Y85922D01*
X563680Y85926D01*
X563600Y85926D01*
X563521Y85922D01*
X563443Y85914D01*
X563364Y85903D01*
X563287Y85887D01*
X563210Y85869D01*
X563134Y85846D01*
X563060Y85820D01*
X562986Y85790D01*
X562914Y85756D01*
X562844Y85720D01*
X562776Y85680D01*
X562710Y85636D01*
X562646Y85590D01*
X562584Y85540D01*
X562525Y85488D01*
X562469Y85432D01*
X562415Y85375D01*
X562364Y85314D01*
X562316Y85251D01*
X562271Y85186D01*
X562229Y85119D01*
X562191Y85050D01*
X562155Y84979D01*
X562124Y84906D01*
X562096Y84832D01*
X562071Y84757D01*
X562051Y84681D01*
X562033Y84604D01*
X562020Y84526D01*
X562011Y84447D01*
X562005Y84368D01*
X562003Y84289D01*
X562003Y82652D01*
X565277Y88740D02*
X557911Y91195D01*
X565277Y93650D01*
X557911Y96464D02*
X557911Y98510D01*
X557913Y98599D01*
X557919Y98688D01*
X557929Y98777D01*
X557942Y98865D01*
X557959Y98953D01*
X557981Y99040D01*
X558006Y99125D01*
X558034Y99210D01*
X558067Y99293D01*
X558103Y99375D01*
X558142Y99455D01*
X558185Y99533D01*
X558231Y99609D01*
X558281Y99684D01*
X558334Y99756D01*
X558390Y99825D01*
X558449Y99892D01*
X558510Y99957D01*
X558575Y100018D01*
X558642Y100077D01*
X558711Y100133D01*
X558783Y100186D01*
X558858Y100236D01*
X558934Y100282D01*
X559012Y100325D01*
X559092Y100364D01*
X559174Y100400D01*
X559257Y100433D01*
X559342Y100461D01*
X559427Y100486D01*
X559514Y100508D01*
X559602Y100525D01*
X559690Y100538D01*
X559779Y100548D01*
X559868Y100554D01*
X559957Y100556D01*
X560046Y100554D01*
X560135Y100548D01*
X560224Y100538D01*
X560312Y100525D01*
X560400Y100508D01*
X560487Y100486D01*
X560572Y100461D01*
X560657Y100433D01*
X560740Y100400D01*
X560822Y100364D01*
X560902Y100325D01*
X560980Y100282D01*
X561056Y100236D01*
X561131Y100186D01*
X561203Y100133D01*
X561272Y100077D01*
X561339Y100018D01*
X561404Y99957D01*
X561465Y99892D01*
X561524Y99825D01*
X561580Y99756D01*
X561633Y99684D01*
X561683Y99609D01*
X561729Y99533D01*
X561772Y99455D01*
X561811Y99375D01*
X561847Y99293D01*
X561880Y99210D01*
X561908Y99125D01*
X561933Y99040D01*
X561955Y98953D01*
X561972Y98865D01*
X561985Y98777D01*
X561995Y98688D01*
X562001Y98599D01*
X562003Y98510D01*
X565277Y98919D02*
X565277Y96464D01*
X565277Y98919D02*
X565275Y98998D01*
X565269Y99077D01*
X565260Y99156D01*
X565247Y99234D01*
X565229Y99311D01*
X565209Y99387D01*
X565184Y99462D01*
X565156Y99536D01*
X565125Y99609D01*
X565089Y99680D01*
X565051Y99749D01*
X565009Y99816D01*
X564964Y99881D01*
X564916Y99944D01*
X564865Y100005D01*
X564811Y100062D01*
X564755Y100118D01*
X564696Y100170D01*
X564634Y100220D01*
X564570Y100266D01*
X564504Y100310D01*
X564436Y100350D01*
X564366Y100386D01*
X564294Y100420D01*
X564220Y100450D01*
X564146Y100476D01*
X564070Y100499D01*
X563993Y100517D01*
X563916Y100533D01*
X563837Y100544D01*
X563759Y100552D01*
X563680Y100556D01*
X563600Y100556D01*
X563521Y100552D01*
X563443Y100544D01*
X563364Y100533D01*
X563287Y100517D01*
X563210Y100499D01*
X563134Y100476D01*
X563060Y100450D01*
X562986Y100420D01*
X562914Y100386D01*
X562844Y100350D01*
X562776Y100310D01*
X562710Y100266D01*
X562646Y100220D01*
X562584Y100170D01*
X562525Y100118D01*
X562469Y100062D01*
X562415Y100005D01*
X562364Y99944D01*
X562316Y99881D01*
X562271Y99816D01*
X562229Y99749D01*
X562191Y99680D01*
X562155Y99609D01*
X562124Y99536D01*
X562096Y99462D01*
X562071Y99387D01*
X562051Y99311D01*
X562033Y99234D01*
X562020Y99156D01*
X562011Y99077D01*
X562005Y98998D01*
X562003Y98919D01*
X562003Y97283D01*
X566548Y110582D02*
X566546Y110667D01*
X566540Y110752D01*
X566530Y110836D01*
X566517Y110920D01*
X566499Y111004D01*
X566478Y111086D01*
X566453Y111167D01*
X566424Y111247D01*
X566391Y111326D01*
X566355Y111403D01*
X566315Y111478D01*
X566272Y111552D01*
X566226Y111623D01*
X566176Y111692D01*
X566123Y111759D01*
X566067Y111823D01*
X566008Y111884D01*
X565947Y111943D01*
X565883Y111999D01*
X565816Y112052D01*
X565747Y112102D01*
X565676Y112148D01*
X565602Y112191D01*
X565527Y112231D01*
X565450Y112267D01*
X565371Y112300D01*
X565291Y112329D01*
X565210Y112354D01*
X565128Y112375D01*
X565044Y112393D01*
X564960Y112406D01*
X564876Y112416D01*
X564791Y112422D01*
X564706Y112424D01*
X566547Y110582D02*
X566545Y110486D01*
X566539Y110390D01*
X566529Y110295D01*
X566516Y110200D01*
X566498Y110105D01*
X566477Y110012D01*
X566452Y109919D01*
X566423Y109828D01*
X566391Y109737D01*
X566355Y109648D01*
X566315Y109561D01*
X566272Y109475D01*
X566226Y109391D01*
X566176Y109309D01*
X566122Y109229D01*
X566066Y109152D01*
X566006Y109077D01*
X565944Y109004D01*
X565878Y108934D01*
X565810Y108866D01*
X565739Y108801D01*
X565666Y108740D01*
X565590Y108681D01*
X565511Y108625D01*
X565431Y108573D01*
X565348Y108524D01*
X565264Y108478D01*
X565178Y108436D01*
X565090Y108398D01*
X565001Y108363D01*
X564910Y108331D01*
X563274Y111809D02*
X563333Y111869D01*
X563395Y111926D01*
X563459Y111981D01*
X563526Y112032D01*
X563595Y112081D01*
X563665Y112127D01*
X563738Y112170D01*
X563812Y112210D01*
X563888Y112246D01*
X563966Y112279D01*
X564045Y112309D01*
X564125Y112336D01*
X564206Y112359D01*
X564288Y112378D01*
X564370Y112394D01*
X564454Y112407D01*
X564538Y112416D01*
X564622Y112421D01*
X564706Y112423D01*
X563273Y111809D02*
X559181Y108331D01*
X559181Y112423D01*
X559181Y115293D02*
X559590Y115293D01*
X559590Y115702D01*
X559181Y115702D01*
X559181Y115293D01*
X559181Y124032D02*
X566547Y124032D01*
X566547Y121986D02*
X566547Y126078D01*
X566547Y129136D02*
X559181Y129136D01*
X562455Y131591D02*
X566547Y129136D01*
X562455Y131591D02*
X566547Y134046D01*
X559181Y134046D01*
X559181Y139803D02*
X559183Y139881D01*
X559188Y139959D01*
X559198Y140036D01*
X559211Y140113D01*
X559227Y140189D01*
X559247Y140264D01*
X559271Y140338D01*
X559298Y140411D01*
X559329Y140483D01*
X559363Y140553D01*
X559400Y140622D01*
X559441Y140688D01*
X559485Y140753D01*
X559531Y140815D01*
X559581Y140875D01*
X559633Y140933D01*
X559688Y140988D01*
X559746Y141040D01*
X559806Y141090D01*
X559868Y141136D01*
X559933Y141180D01*
X560000Y141221D01*
X560068Y141258D01*
X560138Y141292D01*
X560210Y141323D01*
X560283Y141350D01*
X560357Y141374D01*
X560432Y141394D01*
X560508Y141410D01*
X560585Y141423D01*
X560662Y141433D01*
X560740Y141438D01*
X560818Y141440D01*
X559181Y139803D02*
X559183Y139689D01*
X559188Y139576D01*
X559198Y139462D01*
X559211Y139349D01*
X559228Y139237D01*
X559248Y139125D01*
X559272Y139014D01*
X559300Y138903D01*
X559331Y138794D01*
X559366Y138686D01*
X559405Y138579D01*
X559447Y138473D01*
X559492Y138369D01*
X559541Y138266D01*
X559594Y138165D01*
X559649Y138066D01*
X559708Y137968D01*
X559770Y137873D01*
X559835Y137780D01*
X559903Y137688D01*
X559974Y137600D01*
X560048Y137513D01*
X560125Y137429D01*
X560204Y137348D01*
X564910Y137552D02*
X564988Y137554D01*
X565066Y137559D01*
X565143Y137569D01*
X565220Y137582D01*
X565296Y137598D01*
X565371Y137618D01*
X565445Y137642D01*
X565518Y137669D01*
X565590Y137700D01*
X565660Y137734D01*
X565729Y137771D01*
X565795Y137812D01*
X565860Y137856D01*
X565922Y137902D01*
X565982Y137952D01*
X566040Y138004D01*
X566095Y138059D01*
X566147Y138117D01*
X566197Y138177D01*
X566243Y138239D01*
X566287Y138304D01*
X566328Y138371D01*
X566365Y138439D01*
X566399Y138509D01*
X566430Y138581D01*
X566457Y138654D01*
X566481Y138728D01*
X566501Y138803D01*
X566517Y138879D01*
X566530Y138956D01*
X566540Y139033D01*
X566545Y139111D01*
X566547Y139189D01*
X566545Y139299D01*
X566539Y139408D01*
X566529Y139518D01*
X566516Y139626D01*
X566498Y139735D01*
X566477Y139842D01*
X566451Y139949D01*
X566422Y140055D01*
X566390Y140160D01*
X566353Y140263D01*
X566313Y140365D01*
X566269Y140466D01*
X566221Y140565D01*
X566171Y140662D01*
X566116Y140757D01*
X566058Y140850D01*
X565997Y140941D01*
X565933Y141030D01*
X563477Y138371D02*
X563519Y138304D01*
X563563Y138239D01*
X563611Y138177D01*
X563661Y138117D01*
X563714Y138059D01*
X563770Y138004D01*
X563829Y137952D01*
X563889Y137902D01*
X563953Y137855D01*
X564018Y137812D01*
X564085Y137771D01*
X564154Y137734D01*
X564225Y137700D01*
X564297Y137669D01*
X564371Y137642D01*
X564445Y137618D01*
X564521Y137598D01*
X564598Y137582D01*
X564675Y137569D01*
X564753Y137559D01*
X564832Y137554D01*
X564910Y137552D01*
X562250Y140622D02*
X562208Y140688D01*
X562164Y140753D01*
X562117Y140815D01*
X562066Y140875D01*
X562013Y140933D01*
X561957Y140988D01*
X561899Y141041D01*
X561838Y141090D01*
X561775Y141137D01*
X561710Y141180D01*
X561643Y141221D01*
X561574Y141258D01*
X561503Y141292D01*
X561431Y141323D01*
X561357Y141350D01*
X561282Y141374D01*
X561207Y141394D01*
X561130Y141410D01*
X561053Y141423D01*
X560975Y141433D01*
X560896Y141438D01*
X560818Y141440D01*
X562250Y140622D02*
X563478Y138371D01*
X583311Y69737D02*
X583311Y67691D01*
X583311Y69737D02*
X583313Y69826D01*
X583319Y69915D01*
X583329Y70004D01*
X583342Y70092D01*
X583359Y70180D01*
X583381Y70267D01*
X583406Y70352D01*
X583434Y70437D01*
X583467Y70520D01*
X583503Y70602D01*
X583542Y70682D01*
X583585Y70760D01*
X583631Y70836D01*
X583681Y70911D01*
X583734Y70983D01*
X583790Y71052D01*
X583849Y71119D01*
X583910Y71184D01*
X583975Y71245D01*
X584042Y71304D01*
X584111Y71360D01*
X584183Y71413D01*
X584258Y71463D01*
X584334Y71509D01*
X584412Y71552D01*
X584492Y71591D01*
X584574Y71627D01*
X584657Y71660D01*
X584742Y71688D01*
X584827Y71713D01*
X584914Y71735D01*
X585002Y71752D01*
X585090Y71765D01*
X585179Y71775D01*
X585268Y71781D01*
X585357Y71783D01*
X585446Y71781D01*
X585535Y71775D01*
X585624Y71765D01*
X585712Y71752D01*
X585800Y71735D01*
X585887Y71713D01*
X585972Y71688D01*
X586057Y71660D01*
X586140Y71627D01*
X586222Y71591D01*
X586302Y71552D01*
X586380Y71509D01*
X586456Y71463D01*
X586531Y71413D01*
X586603Y71360D01*
X586672Y71304D01*
X586739Y71245D01*
X586804Y71184D01*
X586865Y71119D01*
X586924Y71052D01*
X586980Y70983D01*
X587033Y70911D01*
X587083Y70836D01*
X587129Y70760D01*
X587172Y70682D01*
X587211Y70602D01*
X587247Y70520D01*
X587280Y70437D01*
X587308Y70352D01*
X587333Y70267D01*
X587355Y70180D01*
X587372Y70092D01*
X587385Y70004D01*
X587395Y69915D01*
X587401Y69826D01*
X587403Y69737D01*
X590677Y70146D02*
X590677Y67691D01*
X590677Y70146D02*
X590675Y70225D01*
X590669Y70304D01*
X590660Y70383D01*
X590647Y70461D01*
X590629Y70538D01*
X590609Y70614D01*
X590584Y70689D01*
X590556Y70763D01*
X590525Y70836D01*
X590489Y70907D01*
X590451Y70976D01*
X590409Y71043D01*
X590364Y71108D01*
X590316Y71171D01*
X590265Y71232D01*
X590211Y71289D01*
X590155Y71345D01*
X590096Y71397D01*
X590034Y71447D01*
X589970Y71493D01*
X589904Y71537D01*
X589836Y71577D01*
X589766Y71613D01*
X589694Y71647D01*
X589620Y71677D01*
X589546Y71703D01*
X589470Y71726D01*
X589393Y71744D01*
X589316Y71760D01*
X589237Y71771D01*
X589159Y71779D01*
X589080Y71783D01*
X589000Y71783D01*
X588921Y71779D01*
X588843Y71771D01*
X588764Y71760D01*
X588687Y71744D01*
X588610Y71726D01*
X588534Y71703D01*
X588460Y71677D01*
X588386Y71647D01*
X588314Y71613D01*
X588244Y71577D01*
X588176Y71537D01*
X588110Y71493D01*
X588046Y71447D01*
X587984Y71397D01*
X587925Y71345D01*
X587869Y71289D01*
X587815Y71232D01*
X587764Y71171D01*
X587716Y71108D01*
X587671Y71043D01*
X587629Y70976D01*
X587591Y70907D01*
X587555Y70836D01*
X587524Y70763D01*
X587496Y70689D01*
X587471Y70614D01*
X587451Y70538D01*
X587433Y70461D01*
X587420Y70383D01*
X587411Y70304D01*
X587405Y70225D01*
X587403Y70146D01*
X587403Y68509D01*
X583720Y74653D02*
X583311Y74653D01*
X583720Y74653D02*
X583720Y75062D01*
X583311Y75062D01*
X583311Y74653D01*
X587403Y84942D02*
X587403Y86170D01*
X583311Y86170D01*
X583311Y83714D01*
X583313Y83636D01*
X583318Y83558D01*
X583328Y83481D01*
X583341Y83404D01*
X583357Y83328D01*
X583377Y83253D01*
X583401Y83179D01*
X583428Y83106D01*
X583459Y83034D01*
X583493Y82964D01*
X583530Y82896D01*
X583571Y82829D01*
X583615Y82764D01*
X583661Y82702D01*
X583711Y82642D01*
X583763Y82584D01*
X583818Y82529D01*
X583876Y82477D01*
X583936Y82427D01*
X583998Y82381D01*
X584063Y82337D01*
X584130Y82296D01*
X584198Y82259D01*
X584268Y82225D01*
X584340Y82194D01*
X584413Y82167D01*
X584487Y82143D01*
X584562Y82123D01*
X584638Y82107D01*
X584715Y82094D01*
X584792Y82084D01*
X584870Y82079D01*
X584948Y82077D01*
X584948Y82078D02*
X589040Y82078D01*
X589040Y82077D02*
X589118Y82079D01*
X589196Y82084D01*
X589273Y82094D01*
X589350Y82107D01*
X589426Y82123D01*
X589501Y82143D01*
X589575Y82167D01*
X589648Y82194D01*
X589720Y82225D01*
X589790Y82259D01*
X589859Y82296D01*
X589925Y82337D01*
X589990Y82381D01*
X590052Y82427D01*
X590112Y82477D01*
X590170Y82529D01*
X590225Y82584D01*
X590277Y82642D01*
X590327Y82702D01*
X590373Y82764D01*
X590417Y82829D01*
X590458Y82896D01*
X590495Y82964D01*
X590529Y83034D01*
X590560Y83106D01*
X590587Y83179D01*
X590611Y83253D01*
X590631Y83328D01*
X590647Y83404D01*
X590660Y83481D01*
X590670Y83558D01*
X590675Y83636D01*
X590677Y83714D01*
X590677Y86170D01*
X590677Y89880D02*
X583311Y89880D01*
X583311Y93973D02*
X590677Y89880D01*
X590677Y93973D02*
X583311Y93973D01*
X583311Y97683D02*
X590677Y97683D01*
X590677Y99729D01*
X590675Y99818D01*
X590669Y99907D01*
X590659Y99996D01*
X590646Y100084D01*
X590629Y100172D01*
X590607Y100259D01*
X590582Y100344D01*
X590554Y100429D01*
X590521Y100512D01*
X590485Y100594D01*
X590446Y100674D01*
X590403Y100752D01*
X590357Y100828D01*
X590307Y100903D01*
X590254Y100975D01*
X590198Y101044D01*
X590139Y101111D01*
X590078Y101176D01*
X590013Y101237D01*
X589946Y101296D01*
X589877Y101352D01*
X589805Y101405D01*
X589730Y101455D01*
X589654Y101501D01*
X589576Y101544D01*
X589496Y101583D01*
X589414Y101619D01*
X589331Y101652D01*
X589246Y101680D01*
X589161Y101705D01*
X589074Y101727D01*
X588986Y101744D01*
X588898Y101757D01*
X588809Y101767D01*
X588720Y101773D01*
X588631Y101775D01*
X585357Y101775D01*
X585268Y101773D01*
X585179Y101767D01*
X585090Y101757D01*
X585002Y101744D01*
X584914Y101727D01*
X584827Y101705D01*
X584742Y101680D01*
X584657Y101652D01*
X584574Y101619D01*
X584492Y101583D01*
X584412Y101544D01*
X584334Y101501D01*
X584258Y101455D01*
X584183Y101405D01*
X584111Y101352D01*
X584042Y101296D01*
X583975Y101237D01*
X583910Y101176D01*
X583849Y101111D01*
X583790Y101044D01*
X583734Y100975D01*
X583681Y100903D01*
X583631Y100828D01*
X583585Y100752D01*
X583542Y100674D01*
X583503Y100594D01*
X583467Y100512D01*
X583434Y100429D01*
X583406Y100344D01*
X583381Y100259D01*
X583359Y100172D01*
X583342Y100084D01*
X583329Y99996D01*
X583319Y99907D01*
X583313Y99818D01*
X583311Y99729D01*
X583311Y97683D01*
X607441Y70146D02*
X607441Y67691D01*
X607441Y70146D02*
X607443Y70226D01*
X607449Y70306D01*
X607459Y70386D01*
X607472Y70465D01*
X607490Y70544D01*
X607511Y70621D01*
X607537Y70697D01*
X607566Y70772D01*
X607598Y70846D01*
X607634Y70918D01*
X607674Y70988D01*
X607717Y71055D01*
X607763Y71121D01*
X607813Y71184D01*
X607865Y71245D01*
X607920Y71304D01*
X607979Y71359D01*
X608039Y71411D01*
X608103Y71461D01*
X608169Y71507D01*
X608236Y71550D01*
X608306Y71590D01*
X608378Y71626D01*
X608452Y71658D01*
X608526Y71687D01*
X608603Y71713D01*
X608680Y71734D01*
X608759Y71752D01*
X608838Y71765D01*
X608918Y71775D01*
X608998Y71781D01*
X609078Y71783D01*
X609896Y71783D01*
X609974Y71781D01*
X610052Y71776D01*
X610129Y71766D01*
X610206Y71753D01*
X610282Y71737D01*
X610357Y71717D01*
X610431Y71693D01*
X610504Y71666D01*
X610576Y71635D01*
X610646Y71601D01*
X610715Y71564D01*
X610781Y71523D01*
X610846Y71479D01*
X610908Y71433D01*
X610968Y71383D01*
X611026Y71331D01*
X611081Y71276D01*
X611133Y71218D01*
X611183Y71158D01*
X611229Y71096D01*
X611273Y71031D01*
X611314Y70965D01*
X611351Y70896D01*
X611385Y70826D01*
X611416Y70754D01*
X611443Y70681D01*
X611467Y70607D01*
X611487Y70532D01*
X611503Y70456D01*
X611516Y70379D01*
X611526Y70302D01*
X611531Y70224D01*
X611533Y70146D01*
X611533Y67691D01*
X614807Y67691D01*
X614807Y71783D01*
X607850Y74653D02*
X607441Y74653D01*
X607850Y74653D02*
X607850Y75062D01*
X607441Y75062D01*
X607441Y74653D01*
X607441Y83392D02*
X614807Y83392D01*
X614807Y81346D02*
X614807Y85438D01*
X614807Y92675D02*
X607441Y87764D01*
X607441Y92675D02*
X614807Y87764D01*
X639389Y67691D02*
X640207Y67691D01*
X640207Y71783D01*
X632841Y69737D01*
X632841Y74653D02*
X633250Y74653D01*
X633250Y75062D01*
X632841Y75062D01*
X632841Y74653D01*
X632841Y82129D02*
X640207Y82129D01*
X640207Y84175D01*
X640205Y84264D01*
X640199Y84353D01*
X640189Y84442D01*
X640176Y84530D01*
X640159Y84618D01*
X640137Y84705D01*
X640112Y84790D01*
X640084Y84875D01*
X640051Y84958D01*
X640015Y85040D01*
X639976Y85120D01*
X639933Y85198D01*
X639887Y85274D01*
X639837Y85349D01*
X639784Y85421D01*
X639728Y85490D01*
X639669Y85557D01*
X639608Y85622D01*
X639543Y85683D01*
X639476Y85742D01*
X639407Y85798D01*
X639335Y85851D01*
X639260Y85901D01*
X639184Y85947D01*
X639106Y85990D01*
X639026Y86029D01*
X638944Y86065D01*
X638861Y86098D01*
X638776Y86126D01*
X638691Y86151D01*
X638604Y86173D01*
X638516Y86190D01*
X638428Y86203D01*
X638339Y86213D01*
X638250Y86219D01*
X638161Y86221D01*
X638072Y86219D01*
X637983Y86213D01*
X637894Y86203D01*
X637806Y86190D01*
X637718Y86173D01*
X637631Y86151D01*
X637546Y86126D01*
X637461Y86098D01*
X637378Y86065D01*
X637296Y86029D01*
X637216Y85990D01*
X637138Y85947D01*
X637062Y85901D01*
X636987Y85851D01*
X636915Y85798D01*
X636846Y85742D01*
X636779Y85683D01*
X636714Y85622D01*
X636653Y85557D01*
X636594Y85490D01*
X636538Y85421D01*
X636485Y85349D01*
X636435Y85274D01*
X636389Y85198D01*
X636346Y85120D01*
X636307Y85040D01*
X636271Y84958D01*
X636238Y84875D01*
X636210Y84790D01*
X636185Y84705D01*
X636163Y84618D01*
X636146Y84530D01*
X636133Y84442D01*
X636123Y84353D01*
X636117Y84264D01*
X636115Y84175D01*
X636115Y82129D01*
X636115Y84584D02*
X632841Y86221D01*
X632841Y88983D02*
X640207Y93894D01*
X640207Y88983D02*
X632841Y93894D01*
X590677Y109968D02*
X584948Y108331D01*
X584948Y112423D01*
X586585Y111196D02*
X583311Y111196D01*
X583311Y115293D02*
X583720Y115293D01*
X583720Y115702D01*
X583311Y115702D01*
X583311Y115293D01*
X583311Y124032D02*
X590677Y124032D01*
X590677Y121986D02*
X590677Y126078D01*
X583311Y130427D02*
X583311Y132064D01*
X583311Y130427D02*
X583313Y130349D01*
X583318Y130271D01*
X583328Y130194D01*
X583341Y130117D01*
X583357Y130041D01*
X583377Y129966D01*
X583401Y129892D01*
X583428Y129819D01*
X583459Y129747D01*
X583493Y129677D01*
X583530Y129609D01*
X583571Y129542D01*
X583615Y129477D01*
X583661Y129415D01*
X583711Y129355D01*
X583763Y129297D01*
X583818Y129242D01*
X583876Y129190D01*
X583936Y129140D01*
X583998Y129094D01*
X584063Y129050D01*
X584130Y129009D01*
X584198Y128972D01*
X584268Y128938D01*
X584340Y128907D01*
X584413Y128880D01*
X584487Y128856D01*
X584562Y128836D01*
X584638Y128820D01*
X584715Y128807D01*
X584792Y128797D01*
X584870Y128792D01*
X584948Y128790D01*
X589040Y128790D01*
X589118Y128792D01*
X589196Y128797D01*
X589273Y128807D01*
X589350Y128820D01*
X589426Y128836D01*
X589501Y128856D01*
X589575Y128880D01*
X589648Y128907D01*
X589720Y128938D01*
X589790Y128972D01*
X589859Y129009D01*
X589925Y129050D01*
X589990Y129094D01*
X590052Y129140D01*
X590112Y129190D01*
X590170Y129242D01*
X590225Y129297D01*
X590277Y129355D01*
X590327Y129415D01*
X590373Y129477D01*
X590417Y129542D01*
X590458Y129609D01*
X590495Y129677D01*
X590529Y129747D01*
X590560Y129819D01*
X590587Y129892D01*
X590611Y129966D01*
X590631Y130041D01*
X590647Y130117D01*
X590660Y130194D01*
X590670Y130271D01*
X590675Y130349D01*
X590677Y130427D01*
X590677Y132064D01*
X590677Y135271D02*
X583311Y135271D01*
X586176Y135271D02*
X590677Y139363D01*
X587812Y136908D02*
X583311Y139363D01*
X612803Y110786D02*
X612803Y108331D01*
X612803Y110786D02*
X612801Y110864D01*
X612796Y110942D01*
X612786Y111019D01*
X612773Y111096D01*
X612757Y111172D01*
X612737Y111247D01*
X612713Y111321D01*
X612686Y111394D01*
X612655Y111466D01*
X612621Y111536D01*
X612584Y111605D01*
X612543Y111671D01*
X612499Y111736D01*
X612453Y111798D01*
X612403Y111858D01*
X612351Y111916D01*
X612296Y111971D01*
X612238Y112023D01*
X612178Y112073D01*
X612116Y112119D01*
X612051Y112163D01*
X611985Y112204D01*
X611916Y112241D01*
X611846Y112275D01*
X611774Y112306D01*
X611701Y112333D01*
X611627Y112357D01*
X611552Y112377D01*
X611476Y112393D01*
X611399Y112406D01*
X611322Y112416D01*
X611244Y112421D01*
X611166Y112423D01*
X610757Y112423D01*
X610668Y112421D01*
X610579Y112415D01*
X610490Y112405D01*
X610402Y112392D01*
X610314Y112375D01*
X610227Y112353D01*
X610142Y112328D01*
X610057Y112300D01*
X609974Y112267D01*
X609892Y112231D01*
X609812Y112192D01*
X609734Y112149D01*
X609658Y112103D01*
X609583Y112053D01*
X609511Y112000D01*
X609442Y111944D01*
X609375Y111885D01*
X609310Y111824D01*
X609249Y111759D01*
X609190Y111692D01*
X609134Y111623D01*
X609081Y111551D01*
X609031Y111476D01*
X608985Y111400D01*
X608942Y111322D01*
X608903Y111242D01*
X608867Y111160D01*
X608834Y111077D01*
X608806Y110992D01*
X608781Y110907D01*
X608759Y110820D01*
X608742Y110732D01*
X608729Y110644D01*
X608719Y110555D01*
X608713Y110466D01*
X608711Y110377D01*
X608713Y110288D01*
X608719Y110199D01*
X608729Y110110D01*
X608742Y110022D01*
X608759Y109934D01*
X608781Y109847D01*
X608806Y109762D01*
X608834Y109677D01*
X608867Y109594D01*
X608903Y109512D01*
X608942Y109432D01*
X608985Y109354D01*
X609031Y109278D01*
X609081Y109203D01*
X609134Y109131D01*
X609190Y109062D01*
X609249Y108995D01*
X609310Y108930D01*
X609375Y108869D01*
X609442Y108810D01*
X609511Y108754D01*
X609583Y108701D01*
X609658Y108651D01*
X609734Y108605D01*
X609812Y108562D01*
X609892Y108523D01*
X609974Y108487D01*
X610057Y108454D01*
X610142Y108426D01*
X610227Y108401D01*
X610314Y108379D01*
X610402Y108362D01*
X610490Y108349D01*
X610579Y108339D01*
X610668Y108333D01*
X610757Y108331D01*
X612803Y108331D01*
X612917Y108333D01*
X613031Y108339D01*
X613145Y108349D01*
X613259Y108363D01*
X613372Y108381D01*
X613484Y108403D01*
X613595Y108428D01*
X613705Y108458D01*
X613815Y108491D01*
X613923Y108528D01*
X614029Y108569D01*
X614135Y108614D01*
X614238Y108662D01*
X614340Y108714D01*
X614440Y108770D01*
X614538Y108828D01*
X614634Y108891D01*
X614727Y108956D01*
X614819Y109025D01*
X614907Y109097D01*
X614994Y109172D01*
X615077Y109250D01*
X615158Y109331D01*
X615236Y109414D01*
X615311Y109501D01*
X615383Y109589D01*
X615452Y109681D01*
X615517Y109774D01*
X615579Y109870D01*
X615638Y109968D01*
X615694Y110068D01*
X615746Y110170D01*
X615794Y110273D01*
X615839Y110379D01*
X615880Y110485D01*
X615917Y110593D01*
X615950Y110703D01*
X615980Y110813D01*
X616005Y110924D01*
X616027Y111036D01*
X616045Y111149D01*
X616059Y111263D01*
X616069Y111377D01*
X616075Y111491D01*
X616077Y111605D01*
X609120Y115293D02*
X608711Y115293D01*
X609120Y115293D02*
X609120Y115702D01*
X608711Y115702D01*
X608711Y115293D01*
X608711Y124032D02*
X616077Y124032D01*
X616077Y121986D02*
X616077Y126078D01*
X616077Y129057D02*
X608711Y129057D01*
X616077Y129057D02*
X616077Y131103D01*
X616075Y131192D01*
X616069Y131281D01*
X616059Y131370D01*
X616046Y131458D01*
X616029Y131546D01*
X616007Y131633D01*
X615982Y131718D01*
X615954Y131803D01*
X615921Y131886D01*
X615885Y131968D01*
X615846Y132048D01*
X615803Y132126D01*
X615757Y132202D01*
X615707Y132277D01*
X615654Y132349D01*
X615598Y132418D01*
X615539Y132485D01*
X615478Y132550D01*
X615413Y132611D01*
X615346Y132670D01*
X615277Y132726D01*
X615205Y132779D01*
X615130Y132829D01*
X615054Y132875D01*
X614976Y132918D01*
X614896Y132957D01*
X614814Y132993D01*
X614731Y133026D01*
X614646Y133054D01*
X614561Y133079D01*
X614474Y133101D01*
X614386Y133118D01*
X614298Y133131D01*
X614209Y133141D01*
X614120Y133147D01*
X614031Y133149D01*
X614031Y133150D02*
X610757Y133150D01*
X610757Y133149D02*
X610668Y133147D01*
X610579Y133141D01*
X610490Y133131D01*
X610402Y133118D01*
X610314Y133101D01*
X610227Y133079D01*
X610142Y133054D01*
X610057Y133026D01*
X609974Y132993D01*
X609892Y132957D01*
X609812Y132918D01*
X609734Y132875D01*
X609658Y132829D01*
X609583Y132779D01*
X609511Y132726D01*
X609442Y132670D01*
X609375Y132611D01*
X609310Y132550D01*
X609249Y132485D01*
X609190Y132418D01*
X609134Y132349D01*
X609081Y132277D01*
X609031Y132202D01*
X608985Y132126D01*
X608942Y132048D01*
X608903Y131968D01*
X608867Y131886D01*
X608834Y131803D01*
X608806Y131718D01*
X608781Y131633D01*
X608759Y131546D01*
X608742Y131458D01*
X608729Y131370D01*
X608719Y131281D01*
X608713Y131192D01*
X608711Y131103D01*
X608711Y129057D01*
X610757Y136616D02*
X614031Y136616D01*
X614120Y136618D01*
X614209Y136624D01*
X614298Y136634D01*
X614386Y136647D01*
X614474Y136664D01*
X614561Y136686D01*
X614646Y136711D01*
X614731Y136739D01*
X614814Y136772D01*
X614896Y136808D01*
X614976Y136847D01*
X615054Y136890D01*
X615130Y136936D01*
X615205Y136986D01*
X615277Y137039D01*
X615346Y137095D01*
X615413Y137154D01*
X615478Y137215D01*
X615539Y137280D01*
X615598Y137347D01*
X615654Y137416D01*
X615707Y137488D01*
X615757Y137563D01*
X615803Y137639D01*
X615846Y137717D01*
X615885Y137797D01*
X615921Y137879D01*
X615954Y137962D01*
X615982Y138047D01*
X616007Y138132D01*
X616029Y138219D01*
X616046Y138307D01*
X616059Y138395D01*
X616069Y138484D01*
X616075Y138573D01*
X616077Y138662D01*
X616075Y138751D01*
X616069Y138840D01*
X616059Y138929D01*
X616046Y139017D01*
X616029Y139105D01*
X616007Y139192D01*
X615982Y139277D01*
X615954Y139362D01*
X615921Y139445D01*
X615885Y139527D01*
X615846Y139607D01*
X615803Y139685D01*
X615757Y139761D01*
X615707Y139836D01*
X615654Y139908D01*
X615598Y139977D01*
X615539Y140044D01*
X615478Y140109D01*
X615413Y140170D01*
X615346Y140229D01*
X615277Y140285D01*
X615205Y140338D01*
X615130Y140388D01*
X615054Y140434D01*
X614976Y140477D01*
X614896Y140516D01*
X614814Y140552D01*
X614731Y140585D01*
X614646Y140613D01*
X614561Y140638D01*
X614474Y140660D01*
X614386Y140677D01*
X614298Y140690D01*
X614209Y140700D01*
X614120Y140706D01*
X614031Y140708D01*
X614031Y140709D02*
X610757Y140709D01*
X610757Y140708D02*
X610668Y140706D01*
X610579Y140700D01*
X610490Y140690D01*
X610402Y140677D01*
X610314Y140660D01*
X610227Y140638D01*
X610142Y140613D01*
X610057Y140585D01*
X609974Y140552D01*
X609892Y140516D01*
X609812Y140477D01*
X609734Y140434D01*
X609658Y140388D01*
X609583Y140338D01*
X609511Y140285D01*
X609442Y140229D01*
X609375Y140170D01*
X609310Y140109D01*
X609249Y140044D01*
X609190Y139977D01*
X609134Y139908D01*
X609081Y139836D01*
X609031Y139761D01*
X608985Y139685D01*
X608942Y139607D01*
X608903Y139527D01*
X608867Y139445D01*
X608834Y139362D01*
X608806Y139277D01*
X608781Y139192D01*
X608759Y139105D01*
X608742Y139017D01*
X608729Y138929D01*
X608719Y138840D01*
X608713Y138751D01*
X608711Y138662D01*
X608713Y138573D01*
X608719Y138484D01*
X608729Y138395D01*
X608742Y138307D01*
X608759Y138219D01*
X608781Y138132D01*
X608806Y138047D01*
X608834Y137962D01*
X608867Y137879D01*
X608903Y137797D01*
X608942Y137717D01*
X608985Y137639D01*
X609031Y137563D01*
X609081Y137488D01*
X609134Y137416D01*
X609190Y137347D01*
X609249Y137280D01*
X609310Y137215D01*
X609375Y137154D01*
X609442Y137095D01*
X609511Y137039D01*
X609583Y136986D01*
X609658Y136936D01*
X609734Y136890D01*
X609812Y136847D01*
X609892Y136808D01*
X609974Y136772D01*
X610057Y136739D01*
X610142Y136711D01*
X610227Y136686D01*
X610314Y136664D01*
X610402Y136647D01*
X610490Y136634D01*
X610579Y136624D01*
X610668Y136618D01*
X610757Y136616D01*
X637427Y112423D02*
X637516Y112421D01*
X637605Y112415D01*
X637694Y112405D01*
X637782Y112392D01*
X637870Y112375D01*
X637957Y112353D01*
X638042Y112328D01*
X638127Y112300D01*
X638210Y112267D01*
X638292Y112231D01*
X638372Y112192D01*
X638450Y112149D01*
X638526Y112103D01*
X638601Y112053D01*
X638673Y112000D01*
X638742Y111944D01*
X638809Y111885D01*
X638874Y111824D01*
X638935Y111759D01*
X638994Y111692D01*
X639050Y111623D01*
X639103Y111551D01*
X639153Y111476D01*
X639199Y111400D01*
X639242Y111322D01*
X639281Y111242D01*
X639317Y111160D01*
X639350Y111077D01*
X639378Y110992D01*
X639403Y110907D01*
X639425Y110820D01*
X639442Y110732D01*
X639455Y110644D01*
X639465Y110555D01*
X639471Y110466D01*
X639473Y110377D01*
X639471Y110288D01*
X639465Y110199D01*
X639455Y110110D01*
X639442Y110022D01*
X639425Y109934D01*
X639403Y109847D01*
X639378Y109762D01*
X639350Y109677D01*
X639317Y109594D01*
X639281Y109512D01*
X639242Y109432D01*
X639199Y109354D01*
X639153Y109278D01*
X639103Y109203D01*
X639050Y109131D01*
X638994Y109062D01*
X638935Y108995D01*
X638874Y108930D01*
X638809Y108869D01*
X638742Y108810D01*
X638673Y108754D01*
X638601Y108701D01*
X638526Y108651D01*
X638450Y108605D01*
X638372Y108562D01*
X638292Y108523D01*
X638210Y108487D01*
X638127Y108454D01*
X638042Y108426D01*
X637957Y108401D01*
X637870Y108379D01*
X637782Y108362D01*
X637694Y108349D01*
X637605Y108339D01*
X637516Y108333D01*
X637427Y108331D01*
X637338Y108333D01*
X637249Y108339D01*
X637160Y108349D01*
X637072Y108362D01*
X636984Y108379D01*
X636897Y108401D01*
X636812Y108426D01*
X636727Y108454D01*
X636644Y108487D01*
X636562Y108523D01*
X636482Y108562D01*
X636404Y108605D01*
X636328Y108651D01*
X636253Y108701D01*
X636181Y108754D01*
X636112Y108810D01*
X636045Y108869D01*
X635980Y108930D01*
X635919Y108995D01*
X635860Y109062D01*
X635804Y109131D01*
X635751Y109203D01*
X635701Y109278D01*
X635655Y109354D01*
X635612Y109432D01*
X635573Y109512D01*
X635537Y109594D01*
X635504Y109677D01*
X635476Y109762D01*
X635451Y109847D01*
X635429Y109934D01*
X635412Y110022D01*
X635399Y110110D01*
X635389Y110199D01*
X635383Y110288D01*
X635381Y110377D01*
X635383Y110466D01*
X635389Y110555D01*
X635399Y110644D01*
X635412Y110732D01*
X635429Y110820D01*
X635451Y110907D01*
X635476Y110992D01*
X635504Y111077D01*
X635537Y111160D01*
X635573Y111242D01*
X635612Y111322D01*
X635655Y111400D01*
X635701Y111476D01*
X635751Y111551D01*
X635804Y111623D01*
X635860Y111692D01*
X635919Y111759D01*
X635980Y111824D01*
X636045Y111885D01*
X636112Y111944D01*
X636181Y112000D01*
X636253Y112053D01*
X636328Y112103D01*
X636404Y112149D01*
X636482Y112192D01*
X636562Y112231D01*
X636644Y112267D01*
X636727Y112300D01*
X636812Y112328D01*
X636897Y112353D01*
X636984Y112375D01*
X637072Y112392D01*
X637160Y112405D01*
X637249Y112415D01*
X637338Y112421D01*
X637427Y112423D01*
X641110Y112014D02*
X641189Y112012D01*
X641268Y112006D01*
X641347Y111997D01*
X641425Y111984D01*
X641502Y111966D01*
X641578Y111946D01*
X641653Y111921D01*
X641727Y111893D01*
X641800Y111862D01*
X641871Y111826D01*
X641940Y111788D01*
X642007Y111746D01*
X642072Y111701D01*
X642135Y111653D01*
X642196Y111602D01*
X642253Y111548D01*
X642309Y111492D01*
X642361Y111433D01*
X642411Y111371D01*
X642457Y111307D01*
X642501Y111241D01*
X642541Y111173D01*
X642577Y111103D01*
X642611Y111031D01*
X642641Y110957D01*
X642667Y110883D01*
X642690Y110807D01*
X642708Y110730D01*
X642724Y110653D01*
X642735Y110574D01*
X642743Y110496D01*
X642747Y110417D01*
X642747Y110337D01*
X642743Y110258D01*
X642735Y110180D01*
X642724Y110101D01*
X642708Y110024D01*
X642690Y109947D01*
X642667Y109871D01*
X642641Y109797D01*
X642611Y109723D01*
X642577Y109651D01*
X642541Y109581D01*
X642501Y109513D01*
X642457Y109447D01*
X642411Y109383D01*
X642361Y109321D01*
X642309Y109262D01*
X642253Y109206D01*
X642196Y109152D01*
X642135Y109101D01*
X642072Y109053D01*
X642007Y109008D01*
X641940Y108966D01*
X641871Y108928D01*
X641800Y108892D01*
X641727Y108861D01*
X641653Y108833D01*
X641578Y108808D01*
X641502Y108788D01*
X641425Y108770D01*
X641347Y108757D01*
X641268Y108748D01*
X641189Y108742D01*
X641110Y108740D01*
X641031Y108742D01*
X640952Y108748D01*
X640873Y108757D01*
X640795Y108770D01*
X640718Y108788D01*
X640642Y108808D01*
X640567Y108833D01*
X640493Y108861D01*
X640420Y108892D01*
X640349Y108928D01*
X640280Y108966D01*
X640213Y109008D01*
X640148Y109053D01*
X640085Y109101D01*
X640024Y109152D01*
X639967Y109206D01*
X639911Y109262D01*
X639859Y109321D01*
X639809Y109383D01*
X639763Y109447D01*
X639719Y109513D01*
X639679Y109581D01*
X639643Y109651D01*
X639609Y109723D01*
X639579Y109797D01*
X639553Y109871D01*
X639530Y109947D01*
X639512Y110024D01*
X639496Y110101D01*
X639485Y110180D01*
X639477Y110258D01*
X639473Y110337D01*
X639473Y110417D01*
X639477Y110496D01*
X639485Y110574D01*
X639496Y110653D01*
X639512Y110730D01*
X639530Y110807D01*
X639553Y110883D01*
X639579Y110957D01*
X639609Y111031D01*
X639643Y111103D01*
X639679Y111173D01*
X639719Y111241D01*
X639763Y111307D01*
X639809Y111371D01*
X639859Y111433D01*
X639911Y111492D01*
X639967Y111548D01*
X640024Y111602D01*
X640085Y111653D01*
X640148Y111701D01*
X640213Y111746D01*
X640280Y111788D01*
X640349Y111826D01*
X640420Y111862D01*
X640493Y111893D01*
X640567Y111921D01*
X640642Y111946D01*
X640718Y111966D01*
X640795Y111984D01*
X640873Y111997D01*
X640952Y112006D01*
X641031Y112012D01*
X641110Y112014D01*
X635790Y115293D02*
X635381Y115293D01*
X635790Y115293D02*
X635790Y115702D01*
X635381Y115702D01*
X635381Y115293D01*
X635381Y124032D02*
X642747Y124032D01*
X642747Y121986D02*
X642747Y126078D01*
X642747Y129057D02*
X635381Y129057D01*
X642747Y129057D02*
X642747Y131103D01*
X642745Y131192D01*
X642739Y131281D01*
X642729Y131370D01*
X642716Y131458D01*
X642699Y131546D01*
X642677Y131633D01*
X642652Y131718D01*
X642624Y131803D01*
X642591Y131886D01*
X642555Y131968D01*
X642516Y132048D01*
X642473Y132126D01*
X642427Y132202D01*
X642377Y132277D01*
X642324Y132349D01*
X642268Y132418D01*
X642209Y132485D01*
X642148Y132550D01*
X642083Y132611D01*
X642016Y132670D01*
X641947Y132726D01*
X641875Y132779D01*
X641800Y132829D01*
X641724Y132875D01*
X641646Y132918D01*
X641566Y132957D01*
X641484Y132993D01*
X641401Y133026D01*
X641316Y133054D01*
X641231Y133079D01*
X641144Y133101D01*
X641056Y133118D01*
X640968Y133131D01*
X640879Y133141D01*
X640790Y133147D01*
X640701Y133149D01*
X640701Y133150D02*
X637427Y133150D01*
X637427Y133149D02*
X637338Y133147D01*
X637249Y133141D01*
X637160Y133131D01*
X637072Y133118D01*
X636984Y133101D01*
X636897Y133079D01*
X636812Y133054D01*
X636727Y133026D01*
X636644Y132993D01*
X636562Y132957D01*
X636482Y132918D01*
X636404Y132875D01*
X636328Y132829D01*
X636253Y132779D01*
X636181Y132726D01*
X636112Y132670D01*
X636045Y132611D01*
X635980Y132550D01*
X635919Y132485D01*
X635860Y132418D01*
X635804Y132349D01*
X635751Y132277D01*
X635701Y132202D01*
X635655Y132126D01*
X635612Y132048D01*
X635573Y131968D01*
X635537Y131886D01*
X635504Y131803D01*
X635476Y131718D01*
X635451Y131633D01*
X635429Y131546D01*
X635412Y131458D01*
X635399Y131370D01*
X635389Y131281D01*
X635383Y131192D01*
X635381Y131103D01*
X635381Y129057D01*
X635381Y137199D02*
X642747Y137199D01*
X635381Y136381D02*
X635381Y138018D01*
X642747Y138018D02*
X642747Y136381D01*
D11*
X51106Y424195D03*
X65838Y424195D03*
D12*
X69770Y436626D02*
X69770Y444754D01*
X67512Y444754D01*
X67419Y444752D01*
X67326Y444746D01*
X67233Y444737D01*
X67140Y444723D01*
X67049Y444706D01*
X66958Y444685D01*
X66868Y444660D01*
X66779Y444632D01*
X66691Y444600D01*
X66605Y444564D01*
X66520Y444525D01*
X66437Y444482D01*
X66356Y444436D01*
X66277Y444386D01*
X66200Y444334D01*
X66125Y444278D01*
X66053Y444219D01*
X65983Y444157D01*
X65915Y444093D01*
X65851Y444025D01*
X65789Y443955D01*
X65730Y443883D01*
X65674Y443808D01*
X65622Y443731D01*
X65572Y443652D01*
X65526Y443571D01*
X65483Y443488D01*
X65444Y443403D01*
X65408Y443317D01*
X65376Y443229D01*
X65348Y443140D01*
X65323Y443050D01*
X65302Y442959D01*
X65285Y442868D01*
X65271Y442775D01*
X65262Y442682D01*
X65256Y442589D01*
X65254Y442496D01*
X65256Y442403D01*
X65262Y442310D01*
X65271Y442217D01*
X65285Y442124D01*
X65302Y442033D01*
X65323Y441942D01*
X65348Y441852D01*
X65376Y441763D01*
X65408Y441675D01*
X65444Y441589D01*
X65483Y441504D01*
X65526Y441421D01*
X65572Y441340D01*
X65622Y441261D01*
X65674Y441184D01*
X65730Y441109D01*
X65789Y441037D01*
X65851Y440967D01*
X65915Y440899D01*
X65983Y440835D01*
X66053Y440773D01*
X66125Y440714D01*
X66200Y440658D01*
X66277Y440606D01*
X66356Y440556D01*
X66437Y440510D01*
X66520Y440467D01*
X66605Y440428D01*
X66691Y440392D01*
X66779Y440360D01*
X66868Y440332D01*
X66958Y440307D01*
X67049Y440286D01*
X67140Y440269D01*
X67233Y440255D01*
X67326Y440246D01*
X67419Y440240D01*
X67512Y440238D01*
X69770Y440238D01*
X67061Y440238D02*
X65255Y436626D01*
X58246Y444754D02*
X58157Y444752D01*
X58069Y444746D01*
X57981Y444737D01*
X57893Y444723D01*
X57806Y444706D01*
X57720Y444685D01*
X57635Y444660D01*
X57551Y444631D01*
X57468Y444599D01*
X57387Y444564D01*
X57308Y444524D01*
X57230Y444482D01*
X57154Y444436D01*
X57080Y444387D01*
X57009Y444334D01*
X56940Y444279D01*
X56873Y444220D01*
X56809Y444159D01*
X56748Y444095D01*
X56689Y444028D01*
X56634Y443959D01*
X56581Y443888D01*
X56532Y443814D01*
X56486Y443738D01*
X56444Y443660D01*
X56404Y443581D01*
X56369Y443500D01*
X56337Y443417D01*
X56308Y443333D01*
X56283Y443248D01*
X56262Y443162D01*
X56245Y443075D01*
X56231Y442987D01*
X56222Y442899D01*
X56216Y442811D01*
X56214Y442722D01*
X58246Y444755D02*
X58345Y444753D01*
X58445Y444747D01*
X58544Y444738D01*
X58642Y444725D01*
X58741Y444708D01*
X58838Y444687D01*
X58934Y444663D01*
X59030Y444635D01*
X59124Y444603D01*
X59217Y444568D01*
X59309Y444529D01*
X59399Y444487D01*
X59487Y444441D01*
X59574Y444392D01*
X59659Y444340D01*
X59741Y444284D01*
X59822Y444226D01*
X59900Y444164D01*
X59976Y444100D01*
X60049Y444033D01*
X60120Y443963D01*
X60187Y443890D01*
X60253Y443815D01*
X60315Y443737D01*
X60374Y443657D01*
X60430Y443575D01*
X60483Y443491D01*
X60533Y443404D01*
X60579Y443316D01*
X60622Y443227D01*
X60662Y443135D01*
X60698Y443042D01*
X60730Y442948D01*
X56890Y441141D02*
X56824Y441207D01*
X56761Y441275D01*
X56701Y441346D01*
X56644Y441420D01*
X56590Y441495D01*
X56540Y441573D01*
X56492Y441654D01*
X56449Y441736D01*
X56408Y441820D01*
X56372Y441905D01*
X56339Y441992D01*
X56309Y442080D01*
X56284Y442170D01*
X56262Y442260D01*
X56245Y442352D01*
X56231Y442444D01*
X56221Y442536D01*
X56215Y442629D01*
X56213Y442722D01*
X56891Y441142D02*
X60729Y436626D01*
X56214Y436626D01*
X51585Y440690D02*
X51583Y440850D01*
X51577Y441010D01*
X51568Y441169D01*
X51554Y441329D01*
X51537Y441488D01*
X51516Y441646D01*
X51492Y441804D01*
X51463Y441961D01*
X51431Y442118D01*
X51395Y442274D01*
X51355Y442429D01*
X51312Y442583D01*
X51265Y442736D01*
X51214Y442887D01*
X51160Y443038D01*
X51102Y443187D01*
X51041Y443334D01*
X50976Y443480D01*
X50908Y443625D01*
X50909Y443625D02*
X50881Y443700D01*
X50850Y443773D01*
X50815Y443845D01*
X50777Y443915D01*
X50736Y443983D01*
X50691Y444049D01*
X50644Y444113D01*
X50593Y444175D01*
X50540Y444234D01*
X50483Y444290D01*
X50424Y444344D01*
X50363Y444395D01*
X50299Y444443D01*
X50233Y444488D01*
X50165Y444529D01*
X50095Y444567D01*
X50024Y444602D01*
X49950Y444634D01*
X49876Y444662D01*
X49800Y444686D01*
X49723Y444707D01*
X49645Y444724D01*
X49566Y444737D01*
X49487Y444746D01*
X49408Y444752D01*
X49328Y444754D01*
X49248Y444752D01*
X49169Y444746D01*
X49090Y444737D01*
X49011Y444724D01*
X48933Y444707D01*
X48856Y444686D01*
X48780Y444662D01*
X48706Y444634D01*
X48632Y444602D01*
X48561Y444567D01*
X48491Y444529D01*
X48423Y444488D01*
X48357Y444443D01*
X48293Y444395D01*
X48232Y444344D01*
X48173Y444290D01*
X48116Y444234D01*
X48063Y444175D01*
X48012Y444113D01*
X47965Y444049D01*
X47920Y443983D01*
X47879Y443915D01*
X47841Y443845D01*
X47806Y443773D01*
X47775Y443700D01*
X47747Y443625D01*
X47679Y443480D01*
X47614Y443334D01*
X47553Y443187D01*
X47495Y443038D01*
X47441Y442887D01*
X47390Y442736D01*
X47343Y442583D01*
X47300Y442429D01*
X47260Y442274D01*
X47224Y442118D01*
X47192Y441961D01*
X47163Y441804D01*
X47139Y441646D01*
X47118Y441488D01*
X47101Y441329D01*
X47087Y441169D01*
X47078Y441010D01*
X47072Y440850D01*
X47070Y440690D01*
X51585Y440690D02*
X51583Y440530D01*
X51577Y440370D01*
X51568Y440211D01*
X51554Y440051D01*
X51537Y439892D01*
X51516Y439734D01*
X51492Y439576D01*
X51463Y439419D01*
X51431Y439262D01*
X51395Y439106D01*
X51355Y438951D01*
X51312Y438797D01*
X51265Y438645D01*
X51214Y438493D01*
X51160Y438342D01*
X51102Y438193D01*
X51041Y438046D01*
X50976Y437900D01*
X50908Y437755D01*
X50909Y437755D02*
X50881Y437680D01*
X50850Y437607D01*
X50815Y437535D01*
X50777Y437465D01*
X50736Y437397D01*
X50691Y437331D01*
X50644Y437267D01*
X50593Y437205D01*
X50540Y437146D01*
X50483Y437090D01*
X50424Y437036D01*
X50363Y436985D01*
X50299Y436937D01*
X50233Y436892D01*
X50165Y436851D01*
X50095Y436813D01*
X50024Y436778D01*
X49950Y436746D01*
X49876Y436718D01*
X49800Y436694D01*
X49723Y436673D01*
X49645Y436656D01*
X49566Y436643D01*
X49487Y436634D01*
X49408Y436628D01*
X49328Y436626D01*
X47747Y437755D02*
X47679Y437900D01*
X47614Y438046D01*
X47553Y438193D01*
X47495Y438342D01*
X47441Y438493D01*
X47390Y438645D01*
X47343Y438797D01*
X47300Y438951D01*
X47260Y439106D01*
X47224Y439262D01*
X47192Y439419D01*
X47163Y439576D01*
X47139Y439734D01*
X47118Y439892D01*
X47101Y440051D01*
X47087Y440211D01*
X47078Y440370D01*
X47072Y440530D01*
X47070Y440690D01*
X47747Y437755D02*
X47775Y437680D01*
X47806Y437607D01*
X47841Y437535D01*
X47879Y437465D01*
X47920Y437397D01*
X47965Y437331D01*
X48012Y437267D01*
X48063Y437205D01*
X48116Y437146D01*
X48173Y437090D01*
X48232Y437036D01*
X48293Y436985D01*
X48357Y436937D01*
X48423Y436892D01*
X48491Y436851D01*
X48561Y436813D01*
X48632Y436778D01*
X48706Y436746D01*
X48780Y436718D01*
X48856Y436694D01*
X48933Y436673D01*
X49011Y436656D01*
X49090Y436643D01*
X49169Y436634D01*
X49248Y436628D01*
X49328Y436626D01*
X51134Y438432D02*
X47521Y442948D01*
D11*
X324156Y422925D03*
X338888Y422925D03*
D12*
X342820Y434086D02*
X342820Y442214D01*
X340562Y442214D01*
X340469Y442212D01*
X340376Y442206D01*
X340283Y442197D01*
X340190Y442183D01*
X340099Y442166D01*
X340008Y442145D01*
X339918Y442120D01*
X339829Y442092D01*
X339741Y442060D01*
X339655Y442024D01*
X339570Y441985D01*
X339487Y441942D01*
X339406Y441896D01*
X339327Y441846D01*
X339250Y441794D01*
X339175Y441738D01*
X339103Y441679D01*
X339033Y441617D01*
X338965Y441553D01*
X338901Y441485D01*
X338839Y441415D01*
X338780Y441343D01*
X338724Y441268D01*
X338672Y441191D01*
X338622Y441112D01*
X338576Y441031D01*
X338533Y440948D01*
X338494Y440863D01*
X338458Y440777D01*
X338426Y440689D01*
X338398Y440600D01*
X338373Y440510D01*
X338352Y440419D01*
X338335Y440328D01*
X338321Y440235D01*
X338312Y440142D01*
X338306Y440049D01*
X338304Y439956D01*
X338306Y439863D01*
X338312Y439770D01*
X338321Y439677D01*
X338335Y439584D01*
X338352Y439493D01*
X338373Y439402D01*
X338398Y439312D01*
X338426Y439223D01*
X338458Y439135D01*
X338494Y439049D01*
X338533Y438964D01*
X338576Y438881D01*
X338622Y438800D01*
X338672Y438721D01*
X338724Y438644D01*
X338780Y438569D01*
X338839Y438497D01*
X338901Y438427D01*
X338965Y438359D01*
X339033Y438295D01*
X339103Y438233D01*
X339175Y438174D01*
X339250Y438118D01*
X339327Y438066D01*
X339406Y438016D01*
X339487Y437970D01*
X339570Y437927D01*
X339655Y437888D01*
X339741Y437852D01*
X339829Y437820D01*
X339918Y437792D01*
X340008Y437767D01*
X340099Y437746D01*
X340190Y437729D01*
X340283Y437715D01*
X340376Y437706D01*
X340469Y437700D01*
X340562Y437698D01*
X342820Y437698D01*
X340111Y437698D02*
X338305Y434086D01*
X331296Y442214D02*
X331207Y442212D01*
X331119Y442206D01*
X331031Y442197D01*
X330943Y442183D01*
X330856Y442166D01*
X330770Y442145D01*
X330685Y442120D01*
X330601Y442091D01*
X330518Y442059D01*
X330437Y442024D01*
X330358Y441984D01*
X330280Y441942D01*
X330204Y441896D01*
X330130Y441847D01*
X330059Y441794D01*
X329990Y441739D01*
X329923Y441680D01*
X329859Y441619D01*
X329798Y441555D01*
X329739Y441488D01*
X329684Y441419D01*
X329631Y441348D01*
X329582Y441274D01*
X329536Y441198D01*
X329494Y441120D01*
X329454Y441041D01*
X329419Y440960D01*
X329387Y440877D01*
X329358Y440793D01*
X329333Y440708D01*
X329312Y440622D01*
X329295Y440535D01*
X329281Y440447D01*
X329272Y440359D01*
X329266Y440271D01*
X329264Y440182D01*
X331296Y442215D02*
X331395Y442213D01*
X331495Y442207D01*
X331594Y442198D01*
X331692Y442185D01*
X331791Y442168D01*
X331888Y442147D01*
X331984Y442123D01*
X332080Y442095D01*
X332174Y442063D01*
X332267Y442028D01*
X332359Y441989D01*
X332449Y441947D01*
X332537Y441901D01*
X332624Y441852D01*
X332709Y441800D01*
X332791Y441744D01*
X332872Y441686D01*
X332950Y441624D01*
X333026Y441560D01*
X333099Y441493D01*
X333170Y441423D01*
X333237Y441350D01*
X333303Y441275D01*
X333365Y441197D01*
X333424Y441117D01*
X333480Y441035D01*
X333533Y440951D01*
X333583Y440864D01*
X333629Y440776D01*
X333672Y440687D01*
X333712Y440595D01*
X333748Y440502D01*
X333780Y440408D01*
X329940Y438601D02*
X329874Y438667D01*
X329811Y438735D01*
X329751Y438806D01*
X329694Y438880D01*
X329640Y438955D01*
X329590Y439033D01*
X329542Y439114D01*
X329499Y439196D01*
X329458Y439280D01*
X329422Y439365D01*
X329389Y439452D01*
X329359Y439540D01*
X329334Y439630D01*
X329312Y439720D01*
X329295Y439812D01*
X329281Y439904D01*
X329271Y439996D01*
X329265Y440089D01*
X329263Y440182D01*
X329941Y438602D02*
X333779Y434086D01*
X329264Y434086D01*
X324635Y440408D02*
X322378Y442214D01*
X322378Y434086D01*
X324635Y434086D02*
X320120Y434086D01*
D11*
X190806Y422925D03*
X205538Y422925D03*
D12*
X209470Y434086D02*
X209470Y442214D01*
X207212Y442214D01*
X207119Y442212D01*
X207026Y442206D01*
X206933Y442197D01*
X206840Y442183D01*
X206749Y442166D01*
X206658Y442145D01*
X206568Y442120D01*
X206479Y442092D01*
X206391Y442060D01*
X206305Y442024D01*
X206220Y441985D01*
X206137Y441942D01*
X206056Y441896D01*
X205977Y441846D01*
X205900Y441794D01*
X205825Y441738D01*
X205753Y441679D01*
X205683Y441617D01*
X205615Y441553D01*
X205551Y441485D01*
X205489Y441415D01*
X205430Y441343D01*
X205374Y441268D01*
X205322Y441191D01*
X205272Y441112D01*
X205226Y441031D01*
X205183Y440948D01*
X205144Y440863D01*
X205108Y440777D01*
X205076Y440689D01*
X205048Y440600D01*
X205023Y440510D01*
X205002Y440419D01*
X204985Y440328D01*
X204971Y440235D01*
X204962Y440142D01*
X204956Y440049D01*
X204954Y439956D01*
X204956Y439863D01*
X204962Y439770D01*
X204971Y439677D01*
X204985Y439584D01*
X205002Y439493D01*
X205023Y439402D01*
X205048Y439312D01*
X205076Y439223D01*
X205108Y439135D01*
X205144Y439049D01*
X205183Y438964D01*
X205226Y438881D01*
X205272Y438800D01*
X205322Y438721D01*
X205374Y438644D01*
X205430Y438569D01*
X205489Y438497D01*
X205551Y438427D01*
X205615Y438359D01*
X205683Y438295D01*
X205753Y438233D01*
X205825Y438174D01*
X205900Y438118D01*
X205977Y438066D01*
X206056Y438016D01*
X206137Y437970D01*
X206220Y437927D01*
X206305Y437888D01*
X206391Y437852D01*
X206479Y437820D01*
X206568Y437792D01*
X206658Y437767D01*
X206749Y437746D01*
X206840Y437729D01*
X206933Y437715D01*
X207026Y437706D01*
X207119Y437700D01*
X207212Y437698D01*
X209470Y437698D01*
X206761Y437698D02*
X204955Y434086D01*
X197946Y442214D02*
X197857Y442212D01*
X197769Y442206D01*
X197681Y442197D01*
X197593Y442183D01*
X197506Y442166D01*
X197420Y442145D01*
X197335Y442120D01*
X197251Y442091D01*
X197168Y442059D01*
X197087Y442024D01*
X197008Y441984D01*
X196930Y441942D01*
X196854Y441896D01*
X196780Y441847D01*
X196709Y441794D01*
X196640Y441739D01*
X196573Y441680D01*
X196509Y441619D01*
X196448Y441555D01*
X196389Y441488D01*
X196334Y441419D01*
X196281Y441348D01*
X196232Y441274D01*
X196186Y441198D01*
X196144Y441120D01*
X196104Y441041D01*
X196069Y440960D01*
X196037Y440877D01*
X196008Y440793D01*
X195983Y440708D01*
X195962Y440622D01*
X195945Y440535D01*
X195931Y440447D01*
X195922Y440359D01*
X195916Y440271D01*
X195914Y440182D01*
X197946Y442215D02*
X198045Y442213D01*
X198145Y442207D01*
X198244Y442198D01*
X198342Y442185D01*
X198441Y442168D01*
X198538Y442147D01*
X198634Y442123D01*
X198730Y442095D01*
X198824Y442063D01*
X198917Y442028D01*
X199009Y441989D01*
X199099Y441947D01*
X199187Y441901D01*
X199274Y441852D01*
X199359Y441800D01*
X199441Y441744D01*
X199522Y441686D01*
X199600Y441624D01*
X199676Y441560D01*
X199749Y441493D01*
X199820Y441423D01*
X199887Y441350D01*
X199953Y441275D01*
X200015Y441197D01*
X200074Y441117D01*
X200130Y441035D01*
X200183Y440951D01*
X200233Y440864D01*
X200279Y440776D01*
X200322Y440687D01*
X200362Y440595D01*
X200398Y440502D01*
X200430Y440408D01*
X196590Y438601D02*
X196524Y438667D01*
X196461Y438735D01*
X196401Y438806D01*
X196344Y438880D01*
X196290Y438955D01*
X196240Y439033D01*
X196192Y439114D01*
X196149Y439196D01*
X196108Y439280D01*
X196072Y439365D01*
X196039Y439452D01*
X196009Y439540D01*
X195984Y439630D01*
X195962Y439720D01*
X195945Y439812D01*
X195931Y439904D01*
X195921Y439996D01*
X195915Y440089D01*
X195913Y440182D01*
X196591Y438602D02*
X200429Y434086D01*
X195914Y434086D01*
X188802Y442214D02*
X188713Y442212D01*
X188625Y442206D01*
X188537Y442197D01*
X188449Y442183D01*
X188362Y442166D01*
X188276Y442145D01*
X188191Y442120D01*
X188107Y442091D01*
X188024Y442059D01*
X187943Y442024D01*
X187864Y441984D01*
X187786Y441942D01*
X187710Y441896D01*
X187636Y441847D01*
X187565Y441794D01*
X187496Y441739D01*
X187429Y441680D01*
X187365Y441619D01*
X187304Y441555D01*
X187245Y441488D01*
X187190Y441419D01*
X187137Y441348D01*
X187088Y441274D01*
X187042Y441198D01*
X187000Y441120D01*
X186960Y441041D01*
X186925Y440960D01*
X186893Y440877D01*
X186864Y440793D01*
X186839Y440708D01*
X186818Y440622D01*
X186801Y440535D01*
X186787Y440447D01*
X186778Y440359D01*
X186772Y440271D01*
X186770Y440182D01*
X188802Y442215D02*
X188901Y442213D01*
X189001Y442207D01*
X189100Y442198D01*
X189198Y442185D01*
X189297Y442168D01*
X189394Y442147D01*
X189490Y442123D01*
X189586Y442095D01*
X189680Y442063D01*
X189773Y442028D01*
X189865Y441989D01*
X189955Y441947D01*
X190043Y441901D01*
X190130Y441852D01*
X190215Y441800D01*
X190297Y441744D01*
X190378Y441686D01*
X190456Y441624D01*
X190532Y441560D01*
X190605Y441493D01*
X190676Y441423D01*
X190743Y441350D01*
X190809Y441275D01*
X190871Y441197D01*
X190930Y441117D01*
X190986Y441035D01*
X191039Y440951D01*
X191089Y440864D01*
X191135Y440776D01*
X191178Y440687D01*
X191218Y440595D01*
X191254Y440502D01*
X191286Y440408D01*
X187446Y438601D02*
X187380Y438667D01*
X187317Y438735D01*
X187257Y438806D01*
X187200Y438880D01*
X187146Y438955D01*
X187096Y439033D01*
X187048Y439114D01*
X187005Y439196D01*
X186964Y439280D01*
X186928Y439365D01*
X186895Y439452D01*
X186865Y439540D01*
X186840Y439630D01*
X186818Y439720D01*
X186801Y439812D01*
X186787Y439904D01*
X186777Y439996D01*
X186771Y440089D01*
X186769Y440182D01*
X187447Y438602D02*
X191285Y434086D01*
X186770Y434086D01*
D11*
X474016Y422925D03*
X488748Y422925D03*
D12*
X492680Y434086D02*
X492680Y442214D01*
X490422Y442214D01*
X490329Y442212D01*
X490236Y442206D01*
X490143Y442197D01*
X490050Y442183D01*
X489959Y442166D01*
X489868Y442145D01*
X489778Y442120D01*
X489689Y442092D01*
X489601Y442060D01*
X489515Y442024D01*
X489430Y441985D01*
X489347Y441942D01*
X489266Y441896D01*
X489187Y441846D01*
X489110Y441794D01*
X489035Y441738D01*
X488963Y441679D01*
X488893Y441617D01*
X488825Y441553D01*
X488761Y441485D01*
X488699Y441415D01*
X488640Y441343D01*
X488584Y441268D01*
X488532Y441191D01*
X488482Y441112D01*
X488436Y441031D01*
X488393Y440948D01*
X488354Y440863D01*
X488318Y440777D01*
X488286Y440689D01*
X488258Y440600D01*
X488233Y440510D01*
X488212Y440419D01*
X488195Y440328D01*
X488181Y440235D01*
X488172Y440142D01*
X488166Y440049D01*
X488164Y439956D01*
X488166Y439863D01*
X488172Y439770D01*
X488181Y439677D01*
X488195Y439584D01*
X488212Y439493D01*
X488233Y439402D01*
X488258Y439312D01*
X488286Y439223D01*
X488318Y439135D01*
X488354Y439049D01*
X488393Y438964D01*
X488436Y438881D01*
X488482Y438800D01*
X488532Y438721D01*
X488584Y438644D01*
X488640Y438569D01*
X488699Y438497D01*
X488761Y438427D01*
X488825Y438359D01*
X488893Y438295D01*
X488963Y438233D01*
X489035Y438174D01*
X489110Y438118D01*
X489187Y438066D01*
X489266Y438016D01*
X489347Y437970D01*
X489430Y437927D01*
X489515Y437888D01*
X489601Y437852D01*
X489689Y437820D01*
X489778Y437792D01*
X489868Y437767D01*
X489959Y437746D01*
X490050Y437729D01*
X490143Y437715D01*
X490236Y437706D01*
X490329Y437700D01*
X490422Y437698D01*
X492680Y437698D01*
X489971Y437698D02*
X488165Y434086D01*
X481156Y442214D02*
X481067Y442212D01*
X480979Y442206D01*
X480891Y442197D01*
X480803Y442183D01*
X480716Y442166D01*
X480630Y442145D01*
X480545Y442120D01*
X480461Y442091D01*
X480378Y442059D01*
X480297Y442024D01*
X480218Y441984D01*
X480140Y441942D01*
X480064Y441896D01*
X479990Y441847D01*
X479919Y441794D01*
X479850Y441739D01*
X479783Y441680D01*
X479719Y441619D01*
X479658Y441555D01*
X479599Y441488D01*
X479544Y441419D01*
X479491Y441348D01*
X479442Y441274D01*
X479396Y441198D01*
X479354Y441120D01*
X479314Y441041D01*
X479279Y440960D01*
X479247Y440877D01*
X479218Y440793D01*
X479193Y440708D01*
X479172Y440622D01*
X479155Y440535D01*
X479141Y440447D01*
X479132Y440359D01*
X479126Y440271D01*
X479124Y440182D01*
X481156Y442215D02*
X481255Y442213D01*
X481355Y442207D01*
X481454Y442198D01*
X481552Y442185D01*
X481651Y442168D01*
X481748Y442147D01*
X481844Y442123D01*
X481940Y442095D01*
X482034Y442063D01*
X482127Y442028D01*
X482219Y441989D01*
X482309Y441947D01*
X482397Y441901D01*
X482484Y441852D01*
X482569Y441800D01*
X482651Y441744D01*
X482732Y441686D01*
X482810Y441624D01*
X482886Y441560D01*
X482959Y441493D01*
X483030Y441423D01*
X483097Y441350D01*
X483163Y441275D01*
X483225Y441197D01*
X483284Y441117D01*
X483340Y441035D01*
X483393Y440951D01*
X483443Y440864D01*
X483489Y440776D01*
X483532Y440687D01*
X483572Y440595D01*
X483608Y440502D01*
X483640Y440408D01*
X479800Y438601D02*
X479734Y438667D01*
X479671Y438735D01*
X479611Y438806D01*
X479554Y438880D01*
X479500Y438955D01*
X479450Y439033D01*
X479402Y439114D01*
X479359Y439196D01*
X479318Y439280D01*
X479282Y439365D01*
X479249Y439452D01*
X479219Y439540D01*
X479194Y439630D01*
X479172Y439720D01*
X479155Y439812D01*
X479141Y439904D01*
X479131Y439996D01*
X479125Y440089D01*
X479123Y440182D01*
X479801Y438602D02*
X483639Y434086D01*
X479124Y434086D01*
X474495Y434086D02*
X472238Y434086D01*
X472145Y434088D01*
X472052Y434094D01*
X471959Y434103D01*
X471866Y434117D01*
X471775Y434134D01*
X471684Y434155D01*
X471594Y434180D01*
X471505Y434208D01*
X471417Y434240D01*
X471331Y434276D01*
X471246Y434315D01*
X471163Y434358D01*
X471082Y434404D01*
X471003Y434454D01*
X470926Y434506D01*
X470851Y434562D01*
X470779Y434621D01*
X470709Y434683D01*
X470641Y434747D01*
X470577Y434815D01*
X470515Y434885D01*
X470456Y434957D01*
X470400Y435032D01*
X470348Y435109D01*
X470298Y435188D01*
X470252Y435269D01*
X470209Y435352D01*
X470170Y435437D01*
X470134Y435523D01*
X470102Y435611D01*
X470074Y435700D01*
X470049Y435790D01*
X470028Y435881D01*
X470011Y435972D01*
X469997Y436065D01*
X469988Y436158D01*
X469982Y436251D01*
X469980Y436344D01*
X469982Y436437D01*
X469988Y436530D01*
X469997Y436623D01*
X470011Y436716D01*
X470028Y436807D01*
X470049Y436898D01*
X470074Y436988D01*
X470102Y437077D01*
X470134Y437165D01*
X470170Y437251D01*
X470209Y437336D01*
X470252Y437419D01*
X470298Y437500D01*
X470348Y437579D01*
X470400Y437656D01*
X470456Y437731D01*
X470515Y437803D01*
X470577Y437873D01*
X470641Y437941D01*
X470709Y438005D01*
X470779Y438067D01*
X470851Y438126D01*
X470926Y438182D01*
X471003Y438234D01*
X471082Y438284D01*
X471163Y438330D01*
X471246Y438373D01*
X471331Y438412D01*
X471417Y438448D01*
X471505Y438480D01*
X471594Y438508D01*
X471684Y438533D01*
X471775Y438554D01*
X471866Y438571D01*
X471959Y438585D01*
X472052Y438594D01*
X472145Y438600D01*
X472238Y438602D01*
X471786Y442214D02*
X474495Y442214D01*
X471786Y442214D02*
X471703Y442212D01*
X471619Y442206D01*
X471536Y442197D01*
X471454Y442183D01*
X471373Y442166D01*
X471292Y442145D01*
X471212Y442120D01*
X471134Y442092D01*
X471057Y442060D01*
X470981Y442025D01*
X470907Y441986D01*
X470835Y441943D01*
X470765Y441898D01*
X470698Y441849D01*
X470632Y441797D01*
X470569Y441743D01*
X470509Y441685D01*
X470451Y441625D01*
X470397Y441562D01*
X470345Y441496D01*
X470296Y441429D01*
X470251Y441359D01*
X470208Y441287D01*
X470169Y441213D01*
X470134Y441137D01*
X470102Y441060D01*
X470074Y440982D01*
X470049Y440902D01*
X470028Y440821D01*
X470011Y440740D01*
X469997Y440658D01*
X469988Y440575D01*
X469982Y440491D01*
X469980Y440408D01*
X469982Y440325D01*
X469988Y440241D01*
X469997Y440158D01*
X470011Y440076D01*
X470028Y439995D01*
X470049Y439914D01*
X470074Y439834D01*
X470102Y439756D01*
X470134Y439679D01*
X470169Y439603D01*
X470208Y439529D01*
X470251Y439457D01*
X470296Y439387D01*
X470345Y439320D01*
X470397Y439254D01*
X470451Y439191D01*
X470509Y439131D01*
X470569Y439073D01*
X470632Y439019D01*
X470698Y438967D01*
X470765Y438918D01*
X470835Y438873D01*
X470907Y438830D01*
X470981Y438791D01*
X471057Y438756D01*
X471134Y438724D01*
X471212Y438696D01*
X471292Y438671D01*
X471373Y438650D01*
X471454Y438633D01*
X471536Y438619D01*
X471619Y438610D01*
X471703Y438604D01*
X471786Y438602D01*
X473592Y438602D01*
D11*
X609906Y424195D03*
X624638Y424195D03*
D12*
X628570Y435356D02*
X628570Y443484D01*
X626312Y443484D01*
X626219Y443482D01*
X626126Y443476D01*
X626033Y443467D01*
X625940Y443453D01*
X625849Y443436D01*
X625758Y443415D01*
X625668Y443390D01*
X625579Y443362D01*
X625491Y443330D01*
X625405Y443294D01*
X625320Y443255D01*
X625237Y443212D01*
X625156Y443166D01*
X625077Y443116D01*
X625000Y443064D01*
X624925Y443008D01*
X624853Y442949D01*
X624783Y442887D01*
X624715Y442823D01*
X624651Y442755D01*
X624589Y442685D01*
X624530Y442613D01*
X624474Y442538D01*
X624422Y442461D01*
X624372Y442382D01*
X624326Y442301D01*
X624283Y442218D01*
X624244Y442133D01*
X624208Y442047D01*
X624176Y441959D01*
X624148Y441870D01*
X624123Y441780D01*
X624102Y441689D01*
X624085Y441598D01*
X624071Y441505D01*
X624062Y441412D01*
X624056Y441319D01*
X624054Y441226D01*
X624056Y441133D01*
X624062Y441040D01*
X624071Y440947D01*
X624085Y440854D01*
X624102Y440763D01*
X624123Y440672D01*
X624148Y440582D01*
X624176Y440493D01*
X624208Y440405D01*
X624244Y440319D01*
X624283Y440234D01*
X624326Y440151D01*
X624372Y440070D01*
X624422Y439991D01*
X624474Y439914D01*
X624530Y439839D01*
X624589Y439767D01*
X624651Y439697D01*
X624715Y439629D01*
X624783Y439565D01*
X624853Y439503D01*
X624925Y439444D01*
X625000Y439388D01*
X625077Y439336D01*
X625156Y439286D01*
X625237Y439240D01*
X625320Y439197D01*
X625405Y439158D01*
X625491Y439122D01*
X625579Y439090D01*
X625668Y439062D01*
X625758Y439037D01*
X625849Y439016D01*
X625940Y438999D01*
X626033Y438985D01*
X626126Y438976D01*
X626219Y438970D01*
X626312Y438968D01*
X628570Y438968D01*
X625861Y438968D02*
X624055Y435356D01*
X617046Y443484D02*
X616957Y443482D01*
X616869Y443476D01*
X616781Y443467D01*
X616693Y443453D01*
X616606Y443436D01*
X616520Y443415D01*
X616435Y443390D01*
X616351Y443361D01*
X616268Y443329D01*
X616187Y443294D01*
X616108Y443254D01*
X616030Y443212D01*
X615954Y443166D01*
X615880Y443117D01*
X615809Y443064D01*
X615740Y443009D01*
X615673Y442950D01*
X615609Y442889D01*
X615548Y442825D01*
X615489Y442758D01*
X615434Y442689D01*
X615381Y442618D01*
X615332Y442544D01*
X615286Y442468D01*
X615244Y442390D01*
X615204Y442311D01*
X615169Y442230D01*
X615137Y442147D01*
X615108Y442063D01*
X615083Y441978D01*
X615062Y441892D01*
X615045Y441805D01*
X615031Y441717D01*
X615022Y441629D01*
X615016Y441541D01*
X615014Y441452D01*
X617046Y443485D02*
X617145Y443483D01*
X617245Y443477D01*
X617344Y443468D01*
X617442Y443455D01*
X617541Y443438D01*
X617638Y443417D01*
X617734Y443393D01*
X617830Y443365D01*
X617924Y443333D01*
X618017Y443298D01*
X618109Y443259D01*
X618199Y443217D01*
X618287Y443171D01*
X618374Y443122D01*
X618459Y443070D01*
X618541Y443014D01*
X618622Y442956D01*
X618700Y442894D01*
X618776Y442830D01*
X618849Y442763D01*
X618920Y442693D01*
X618987Y442620D01*
X619053Y442545D01*
X619115Y442467D01*
X619174Y442387D01*
X619230Y442305D01*
X619283Y442221D01*
X619333Y442134D01*
X619379Y442046D01*
X619422Y441957D01*
X619462Y441865D01*
X619498Y441772D01*
X619530Y441678D01*
X615690Y439871D02*
X615624Y439937D01*
X615561Y440005D01*
X615501Y440076D01*
X615444Y440150D01*
X615390Y440225D01*
X615340Y440303D01*
X615292Y440384D01*
X615249Y440466D01*
X615208Y440550D01*
X615172Y440635D01*
X615139Y440722D01*
X615109Y440810D01*
X615084Y440900D01*
X615062Y440990D01*
X615045Y441082D01*
X615031Y441174D01*
X615021Y441266D01*
X615015Y441359D01*
X615013Y441452D01*
X615691Y439872D02*
X619529Y435356D01*
X615014Y435356D01*
X610385Y437162D02*
X608579Y443484D01*
X610385Y437162D02*
X605870Y437162D01*
X607224Y438968D02*
X607224Y435356D01*
X566420Y5080D02*
X553720Y5080D01*
D11*
X463856Y50815D03*
X478588Y50815D03*
D10*
X451739Y47371D02*
X451739Y54737D01*
X449693Y54737D01*
X449604Y54735D01*
X449515Y54729D01*
X449426Y54719D01*
X449338Y54706D01*
X449250Y54689D01*
X449163Y54667D01*
X449078Y54642D01*
X448993Y54614D01*
X448910Y54581D01*
X448828Y54545D01*
X448748Y54506D01*
X448670Y54463D01*
X448594Y54417D01*
X448519Y54367D01*
X448447Y54314D01*
X448378Y54258D01*
X448311Y54199D01*
X448246Y54138D01*
X448185Y54073D01*
X448126Y54006D01*
X448070Y53937D01*
X448017Y53865D01*
X447967Y53790D01*
X447921Y53714D01*
X447878Y53636D01*
X447839Y53556D01*
X447803Y53474D01*
X447770Y53391D01*
X447742Y53306D01*
X447717Y53221D01*
X447695Y53134D01*
X447678Y53046D01*
X447665Y52958D01*
X447655Y52869D01*
X447649Y52780D01*
X447647Y52691D01*
X447649Y52602D01*
X447655Y52513D01*
X447665Y52424D01*
X447678Y52336D01*
X447695Y52248D01*
X447717Y52161D01*
X447742Y52076D01*
X447770Y51991D01*
X447803Y51908D01*
X447839Y51826D01*
X447878Y51746D01*
X447921Y51668D01*
X447967Y51592D01*
X448017Y51517D01*
X448070Y51445D01*
X448126Y51376D01*
X448185Y51309D01*
X448246Y51244D01*
X448311Y51183D01*
X448378Y51124D01*
X448447Y51068D01*
X448519Y51015D01*
X448594Y50965D01*
X448670Y50919D01*
X448748Y50876D01*
X448828Y50837D01*
X448910Y50801D01*
X448993Y50768D01*
X449078Y50740D01*
X449163Y50715D01*
X449250Y50693D01*
X449338Y50676D01*
X449426Y50663D01*
X449515Y50653D01*
X449604Y50647D01*
X449693Y50645D01*
X451739Y50645D01*
X449284Y50645D02*
X447647Y47371D01*
X444475Y53100D02*
X442429Y54737D01*
X442429Y47371D01*
X444475Y47371D02*
X440383Y47371D01*
X437160Y47371D02*
X434704Y47371D01*
X434624Y47373D01*
X434544Y47379D01*
X434464Y47389D01*
X434385Y47402D01*
X434306Y47420D01*
X434229Y47441D01*
X434153Y47467D01*
X434078Y47496D01*
X434004Y47528D01*
X433932Y47564D01*
X433862Y47604D01*
X433795Y47647D01*
X433729Y47693D01*
X433666Y47743D01*
X433605Y47795D01*
X433546Y47850D01*
X433491Y47909D01*
X433439Y47969D01*
X433389Y48033D01*
X433343Y48098D01*
X433300Y48166D01*
X433260Y48236D01*
X433224Y48308D01*
X433192Y48382D01*
X433163Y48456D01*
X433138Y48533D01*
X433116Y48610D01*
X433098Y48689D01*
X433085Y48768D01*
X433075Y48847D01*
X433069Y48928D01*
X433067Y49008D01*
X433068Y49008D02*
X433068Y49826D01*
X433067Y49826D02*
X433069Y49904D01*
X433074Y49982D01*
X433084Y50059D01*
X433097Y50136D01*
X433113Y50212D01*
X433133Y50287D01*
X433157Y50361D01*
X433184Y50434D01*
X433215Y50506D01*
X433249Y50576D01*
X433286Y50645D01*
X433327Y50711D01*
X433371Y50776D01*
X433417Y50838D01*
X433467Y50898D01*
X433519Y50956D01*
X433574Y51011D01*
X433632Y51063D01*
X433692Y51113D01*
X433754Y51159D01*
X433819Y51203D01*
X433886Y51244D01*
X433954Y51281D01*
X434024Y51315D01*
X434096Y51346D01*
X434169Y51373D01*
X434243Y51397D01*
X434318Y51417D01*
X434394Y51433D01*
X434471Y51446D01*
X434548Y51456D01*
X434626Y51461D01*
X434704Y51463D01*
X437160Y51463D01*
X437160Y54737D01*
X433068Y54737D01*
D11*
X404166Y50815D03*
X418898Y50815D03*
D10*
X393319Y53467D02*
X393319Y46101D01*
X393319Y53467D02*
X391273Y53467D01*
X391184Y53465D01*
X391095Y53459D01*
X391006Y53449D01*
X390918Y53436D01*
X390830Y53419D01*
X390743Y53397D01*
X390658Y53372D01*
X390573Y53344D01*
X390490Y53311D01*
X390408Y53275D01*
X390328Y53236D01*
X390250Y53193D01*
X390174Y53147D01*
X390099Y53097D01*
X390027Y53044D01*
X389958Y52988D01*
X389891Y52929D01*
X389826Y52868D01*
X389765Y52803D01*
X389706Y52736D01*
X389650Y52667D01*
X389597Y52595D01*
X389547Y52520D01*
X389501Y52444D01*
X389458Y52366D01*
X389419Y52286D01*
X389383Y52204D01*
X389350Y52121D01*
X389322Y52036D01*
X389297Y51951D01*
X389275Y51864D01*
X389258Y51776D01*
X389245Y51688D01*
X389235Y51599D01*
X389229Y51510D01*
X389227Y51421D01*
X389229Y51332D01*
X389235Y51243D01*
X389245Y51154D01*
X389258Y51066D01*
X389275Y50978D01*
X389297Y50891D01*
X389322Y50806D01*
X389350Y50721D01*
X389383Y50638D01*
X389419Y50556D01*
X389458Y50476D01*
X389501Y50398D01*
X389547Y50322D01*
X389597Y50247D01*
X389650Y50175D01*
X389706Y50106D01*
X389765Y50039D01*
X389826Y49974D01*
X389891Y49913D01*
X389958Y49854D01*
X390027Y49798D01*
X390099Y49745D01*
X390174Y49695D01*
X390250Y49649D01*
X390328Y49606D01*
X390408Y49567D01*
X390490Y49531D01*
X390573Y49498D01*
X390658Y49470D01*
X390743Y49445D01*
X390830Y49423D01*
X390918Y49406D01*
X391006Y49393D01*
X391095Y49383D01*
X391184Y49377D01*
X391273Y49375D01*
X393319Y49375D01*
X390864Y49375D02*
X389227Y46101D01*
X386055Y51830D02*
X384009Y53467D01*
X384009Y46101D01*
X386055Y46101D02*
X381963Y46101D01*
X378740Y50193D02*
X376284Y50193D01*
X376204Y50191D01*
X376124Y50185D01*
X376044Y50175D01*
X375965Y50162D01*
X375886Y50144D01*
X375809Y50123D01*
X375733Y50097D01*
X375658Y50068D01*
X375584Y50036D01*
X375512Y50000D01*
X375442Y49960D01*
X375375Y49917D01*
X375309Y49871D01*
X375246Y49821D01*
X375185Y49769D01*
X375126Y49714D01*
X375071Y49655D01*
X375019Y49595D01*
X374969Y49531D01*
X374923Y49465D01*
X374880Y49398D01*
X374840Y49328D01*
X374804Y49256D01*
X374772Y49182D01*
X374743Y49108D01*
X374717Y49031D01*
X374696Y48954D01*
X374678Y48875D01*
X374665Y48796D01*
X374655Y48716D01*
X374649Y48636D01*
X374647Y48556D01*
X374648Y48556D02*
X374648Y48147D01*
X374650Y48058D01*
X374656Y47969D01*
X374666Y47880D01*
X374679Y47792D01*
X374696Y47704D01*
X374718Y47617D01*
X374743Y47532D01*
X374771Y47447D01*
X374804Y47364D01*
X374840Y47282D01*
X374879Y47202D01*
X374922Y47124D01*
X374968Y47048D01*
X375018Y46973D01*
X375071Y46901D01*
X375127Y46832D01*
X375186Y46765D01*
X375247Y46700D01*
X375312Y46639D01*
X375379Y46580D01*
X375448Y46524D01*
X375520Y46471D01*
X375595Y46421D01*
X375671Y46375D01*
X375749Y46332D01*
X375829Y46293D01*
X375911Y46257D01*
X375994Y46224D01*
X376079Y46196D01*
X376164Y46171D01*
X376251Y46149D01*
X376339Y46132D01*
X376427Y46119D01*
X376516Y46109D01*
X376605Y46103D01*
X376694Y46101D01*
X376783Y46103D01*
X376872Y46109D01*
X376961Y46119D01*
X377049Y46132D01*
X377137Y46149D01*
X377224Y46171D01*
X377309Y46196D01*
X377394Y46224D01*
X377477Y46257D01*
X377559Y46293D01*
X377639Y46332D01*
X377717Y46375D01*
X377793Y46421D01*
X377868Y46471D01*
X377940Y46524D01*
X378009Y46580D01*
X378076Y46639D01*
X378141Y46700D01*
X378202Y46765D01*
X378261Y46832D01*
X378317Y46901D01*
X378370Y46973D01*
X378420Y47048D01*
X378466Y47124D01*
X378509Y47202D01*
X378548Y47282D01*
X378584Y47364D01*
X378617Y47447D01*
X378645Y47532D01*
X378670Y47617D01*
X378692Y47704D01*
X378709Y47792D01*
X378722Y47880D01*
X378732Y47969D01*
X378738Y48058D01*
X378740Y48147D01*
X378740Y50193D01*
X378738Y50305D01*
X378732Y50416D01*
X378723Y50528D01*
X378710Y50639D01*
X378692Y50749D01*
X378672Y50859D01*
X378647Y50968D01*
X378619Y51076D01*
X378587Y51183D01*
X378551Y51289D01*
X378512Y51394D01*
X378469Y51497D01*
X378423Y51599D01*
X378373Y51699D01*
X378320Y51798D01*
X378263Y51894D01*
X378204Y51989D01*
X378141Y52081D01*
X378075Y52171D01*
X378006Y52259D01*
X377934Y52345D01*
X377859Y52428D01*
X377781Y52508D01*
X377701Y52586D01*
X377618Y52661D01*
X377532Y52733D01*
X377444Y52802D01*
X377354Y52868D01*
X377262Y52931D01*
X377167Y52990D01*
X377071Y53047D01*
X376972Y53100D01*
X376872Y53150D01*
X376770Y53196D01*
X376667Y53239D01*
X376562Y53278D01*
X376456Y53314D01*
X376349Y53346D01*
X376241Y53374D01*
X376132Y53399D01*
X376022Y53419D01*
X375912Y53437D01*
X375801Y53450D01*
X375689Y53459D01*
X375578Y53465D01*
X375466Y53467D01*
D11*
X347016Y50815D03*
X361748Y50815D03*
D10*
X333629Y47371D02*
X333629Y54737D01*
X331583Y54737D01*
X331494Y54735D01*
X331405Y54729D01*
X331316Y54719D01*
X331228Y54706D01*
X331140Y54689D01*
X331053Y54667D01*
X330968Y54642D01*
X330883Y54614D01*
X330800Y54581D01*
X330718Y54545D01*
X330638Y54506D01*
X330560Y54463D01*
X330484Y54417D01*
X330409Y54367D01*
X330337Y54314D01*
X330268Y54258D01*
X330201Y54199D01*
X330136Y54138D01*
X330075Y54073D01*
X330016Y54006D01*
X329960Y53937D01*
X329907Y53865D01*
X329857Y53790D01*
X329811Y53714D01*
X329768Y53636D01*
X329729Y53556D01*
X329693Y53474D01*
X329660Y53391D01*
X329632Y53306D01*
X329607Y53221D01*
X329585Y53134D01*
X329568Y53046D01*
X329555Y52958D01*
X329545Y52869D01*
X329539Y52780D01*
X329537Y52691D01*
X329539Y52602D01*
X329545Y52513D01*
X329555Y52424D01*
X329568Y52336D01*
X329585Y52248D01*
X329607Y52161D01*
X329632Y52076D01*
X329660Y51991D01*
X329693Y51908D01*
X329729Y51826D01*
X329768Y51746D01*
X329811Y51668D01*
X329857Y51592D01*
X329907Y51517D01*
X329960Y51445D01*
X330016Y51376D01*
X330075Y51309D01*
X330136Y51244D01*
X330201Y51183D01*
X330268Y51124D01*
X330337Y51068D01*
X330409Y51015D01*
X330484Y50965D01*
X330560Y50919D01*
X330638Y50876D01*
X330718Y50837D01*
X330800Y50801D01*
X330883Y50768D01*
X330968Y50740D01*
X331053Y50715D01*
X331140Y50693D01*
X331228Y50676D01*
X331316Y50663D01*
X331405Y50653D01*
X331494Y50647D01*
X331583Y50645D01*
X333629Y50645D01*
X331174Y50645D02*
X329537Y47371D01*
X326365Y53100D02*
X324319Y54737D01*
X324319Y47371D01*
X326365Y47371D02*
X322273Y47371D01*
X319050Y53919D02*
X319050Y54737D01*
X314958Y54737D01*
X317004Y47371D01*
D11*
X288596Y50815D03*
X303328Y50815D03*
D10*
X276479Y47371D02*
X276479Y54737D01*
X274433Y54737D01*
X274344Y54735D01*
X274255Y54729D01*
X274166Y54719D01*
X274078Y54706D01*
X273990Y54689D01*
X273903Y54667D01*
X273818Y54642D01*
X273733Y54614D01*
X273650Y54581D01*
X273568Y54545D01*
X273488Y54506D01*
X273410Y54463D01*
X273334Y54417D01*
X273259Y54367D01*
X273187Y54314D01*
X273118Y54258D01*
X273051Y54199D01*
X272986Y54138D01*
X272925Y54073D01*
X272866Y54006D01*
X272810Y53937D01*
X272757Y53865D01*
X272707Y53790D01*
X272661Y53714D01*
X272618Y53636D01*
X272579Y53556D01*
X272543Y53474D01*
X272510Y53391D01*
X272482Y53306D01*
X272457Y53221D01*
X272435Y53134D01*
X272418Y53046D01*
X272405Y52958D01*
X272395Y52869D01*
X272389Y52780D01*
X272387Y52691D01*
X272389Y52602D01*
X272395Y52513D01*
X272405Y52424D01*
X272418Y52336D01*
X272435Y52248D01*
X272457Y52161D01*
X272482Y52076D01*
X272510Y51991D01*
X272543Y51908D01*
X272579Y51826D01*
X272618Y51746D01*
X272661Y51668D01*
X272707Y51592D01*
X272757Y51517D01*
X272810Y51445D01*
X272866Y51376D01*
X272925Y51309D01*
X272986Y51244D01*
X273051Y51183D01*
X273118Y51124D01*
X273187Y51068D01*
X273259Y51015D01*
X273334Y50965D01*
X273410Y50919D01*
X273488Y50876D01*
X273568Y50837D01*
X273650Y50801D01*
X273733Y50768D01*
X273818Y50740D01*
X273903Y50715D01*
X273990Y50693D01*
X274078Y50676D01*
X274166Y50663D01*
X274255Y50653D01*
X274344Y50647D01*
X274433Y50645D01*
X276479Y50645D01*
X274024Y50645D02*
X272387Y47371D01*
X269215Y53100D02*
X267169Y54737D01*
X267169Y47371D01*
X269215Y47371D02*
X265123Y47371D01*
X261900Y49417D02*
X261898Y49506D01*
X261892Y49595D01*
X261882Y49684D01*
X261869Y49772D01*
X261852Y49860D01*
X261830Y49947D01*
X261805Y50032D01*
X261777Y50117D01*
X261744Y50200D01*
X261708Y50282D01*
X261669Y50362D01*
X261626Y50440D01*
X261580Y50516D01*
X261530Y50591D01*
X261477Y50663D01*
X261421Y50732D01*
X261362Y50799D01*
X261301Y50864D01*
X261236Y50925D01*
X261169Y50984D01*
X261100Y51040D01*
X261028Y51093D01*
X260953Y51143D01*
X260877Y51189D01*
X260799Y51232D01*
X260719Y51271D01*
X260637Y51307D01*
X260554Y51340D01*
X260469Y51368D01*
X260384Y51393D01*
X260297Y51415D01*
X260209Y51432D01*
X260121Y51445D01*
X260032Y51455D01*
X259943Y51461D01*
X259854Y51463D01*
X259765Y51461D01*
X259676Y51455D01*
X259587Y51445D01*
X259499Y51432D01*
X259411Y51415D01*
X259324Y51393D01*
X259239Y51368D01*
X259154Y51340D01*
X259071Y51307D01*
X258989Y51271D01*
X258909Y51232D01*
X258831Y51189D01*
X258755Y51143D01*
X258680Y51093D01*
X258608Y51040D01*
X258539Y50984D01*
X258472Y50925D01*
X258407Y50864D01*
X258346Y50799D01*
X258287Y50732D01*
X258231Y50663D01*
X258178Y50591D01*
X258128Y50516D01*
X258082Y50440D01*
X258039Y50362D01*
X258000Y50282D01*
X257964Y50200D01*
X257931Y50117D01*
X257903Y50032D01*
X257878Y49947D01*
X257856Y49860D01*
X257839Y49772D01*
X257826Y49684D01*
X257816Y49595D01*
X257810Y49506D01*
X257808Y49417D01*
X257810Y49328D01*
X257816Y49239D01*
X257826Y49150D01*
X257839Y49062D01*
X257856Y48974D01*
X257878Y48887D01*
X257903Y48802D01*
X257931Y48717D01*
X257964Y48634D01*
X258000Y48552D01*
X258039Y48472D01*
X258082Y48394D01*
X258128Y48318D01*
X258178Y48243D01*
X258231Y48171D01*
X258287Y48102D01*
X258346Y48035D01*
X258407Y47970D01*
X258472Y47909D01*
X258539Y47850D01*
X258608Y47794D01*
X258680Y47741D01*
X258755Y47691D01*
X258831Y47645D01*
X258909Y47602D01*
X258989Y47563D01*
X259071Y47527D01*
X259154Y47494D01*
X259239Y47466D01*
X259324Y47441D01*
X259411Y47419D01*
X259499Y47402D01*
X259587Y47389D01*
X259676Y47379D01*
X259765Y47373D01*
X259854Y47371D01*
X259943Y47373D01*
X260032Y47379D01*
X260121Y47389D01*
X260209Y47402D01*
X260297Y47419D01*
X260384Y47441D01*
X260469Y47466D01*
X260554Y47494D01*
X260637Y47527D01*
X260719Y47563D01*
X260799Y47602D01*
X260877Y47645D01*
X260953Y47691D01*
X261028Y47741D01*
X261100Y47794D01*
X261169Y47850D01*
X261236Y47909D01*
X261301Y47970D01*
X261362Y48035D01*
X261421Y48102D01*
X261477Y48171D01*
X261530Y48243D01*
X261580Y48318D01*
X261626Y48394D01*
X261669Y48472D01*
X261708Y48552D01*
X261744Y48634D01*
X261777Y48717D01*
X261805Y48802D01*
X261830Y48887D01*
X261852Y48974D01*
X261869Y49062D01*
X261882Y49150D01*
X261892Y49239D01*
X261898Y49328D01*
X261900Y49417D01*
X261491Y53100D02*
X261489Y53179D01*
X261483Y53258D01*
X261474Y53337D01*
X261461Y53415D01*
X261443Y53492D01*
X261423Y53568D01*
X261398Y53643D01*
X261370Y53717D01*
X261339Y53790D01*
X261303Y53861D01*
X261265Y53930D01*
X261223Y53997D01*
X261178Y54062D01*
X261130Y54125D01*
X261079Y54186D01*
X261025Y54243D01*
X260969Y54299D01*
X260910Y54351D01*
X260848Y54401D01*
X260784Y54447D01*
X260718Y54491D01*
X260650Y54531D01*
X260580Y54567D01*
X260508Y54601D01*
X260434Y54631D01*
X260360Y54657D01*
X260284Y54680D01*
X260207Y54698D01*
X260130Y54714D01*
X260051Y54725D01*
X259973Y54733D01*
X259894Y54737D01*
X259814Y54737D01*
X259735Y54733D01*
X259657Y54725D01*
X259578Y54714D01*
X259501Y54698D01*
X259424Y54680D01*
X259348Y54657D01*
X259274Y54631D01*
X259200Y54601D01*
X259128Y54567D01*
X259058Y54531D01*
X258990Y54491D01*
X258924Y54447D01*
X258860Y54401D01*
X258798Y54351D01*
X258739Y54299D01*
X258683Y54243D01*
X258629Y54186D01*
X258578Y54125D01*
X258530Y54062D01*
X258485Y53997D01*
X258443Y53930D01*
X258405Y53861D01*
X258369Y53790D01*
X258338Y53717D01*
X258310Y53643D01*
X258285Y53568D01*
X258265Y53492D01*
X258247Y53415D01*
X258234Y53337D01*
X258225Y53258D01*
X258219Y53179D01*
X258217Y53100D01*
X258219Y53021D01*
X258225Y52942D01*
X258234Y52863D01*
X258247Y52785D01*
X258265Y52708D01*
X258285Y52632D01*
X258310Y52557D01*
X258338Y52483D01*
X258369Y52410D01*
X258405Y52339D01*
X258443Y52270D01*
X258485Y52203D01*
X258530Y52138D01*
X258578Y52075D01*
X258629Y52014D01*
X258683Y51957D01*
X258739Y51901D01*
X258798Y51849D01*
X258860Y51799D01*
X258924Y51753D01*
X258990Y51709D01*
X259058Y51669D01*
X259128Y51633D01*
X259200Y51599D01*
X259274Y51569D01*
X259348Y51543D01*
X259424Y51520D01*
X259501Y51502D01*
X259578Y51486D01*
X259657Y51475D01*
X259735Y51467D01*
X259814Y51463D01*
X259894Y51463D01*
X259973Y51467D01*
X260051Y51475D01*
X260130Y51486D01*
X260207Y51502D01*
X260284Y51520D01*
X260360Y51543D01*
X260434Y51569D01*
X260508Y51599D01*
X260580Y51633D01*
X260650Y51669D01*
X260718Y51709D01*
X260784Y51753D01*
X260848Y51799D01*
X260910Y51849D01*
X260969Y51901D01*
X261025Y51957D01*
X261079Y52014D01*
X261130Y52075D01*
X261178Y52138D01*
X261223Y52203D01*
X261265Y52270D01*
X261303Y52339D01*
X261339Y52410D01*
X261370Y52483D01*
X261398Y52557D01*
X261423Y52632D01*
X261443Y52708D01*
X261461Y52785D01*
X261474Y52863D01*
X261483Y52942D01*
X261489Y53021D01*
X261491Y53100D01*
D11*
X230176Y50815D03*
X244908Y50815D03*
D10*
X215519Y47371D02*
X215519Y54737D01*
X213473Y54737D01*
X213384Y54735D01*
X213295Y54729D01*
X213206Y54719D01*
X213118Y54706D01*
X213030Y54689D01*
X212943Y54667D01*
X212858Y54642D01*
X212773Y54614D01*
X212690Y54581D01*
X212608Y54545D01*
X212528Y54506D01*
X212450Y54463D01*
X212374Y54417D01*
X212299Y54367D01*
X212227Y54314D01*
X212158Y54258D01*
X212091Y54199D01*
X212026Y54138D01*
X211965Y54073D01*
X211906Y54006D01*
X211850Y53937D01*
X211797Y53865D01*
X211747Y53790D01*
X211701Y53714D01*
X211658Y53636D01*
X211619Y53556D01*
X211583Y53474D01*
X211550Y53391D01*
X211522Y53306D01*
X211497Y53221D01*
X211475Y53134D01*
X211458Y53046D01*
X211445Y52958D01*
X211435Y52869D01*
X211429Y52780D01*
X211427Y52691D01*
X211429Y52602D01*
X211435Y52513D01*
X211445Y52424D01*
X211458Y52336D01*
X211475Y52248D01*
X211497Y52161D01*
X211522Y52076D01*
X211550Y51991D01*
X211583Y51908D01*
X211619Y51826D01*
X211658Y51746D01*
X211701Y51668D01*
X211747Y51592D01*
X211797Y51517D01*
X211850Y51445D01*
X211906Y51376D01*
X211965Y51309D01*
X212026Y51244D01*
X212091Y51183D01*
X212158Y51124D01*
X212227Y51068D01*
X212299Y51015D01*
X212374Y50965D01*
X212450Y50919D01*
X212528Y50876D01*
X212608Y50837D01*
X212690Y50801D01*
X212773Y50768D01*
X212858Y50740D01*
X212943Y50715D01*
X213030Y50693D01*
X213118Y50676D01*
X213206Y50663D01*
X213295Y50653D01*
X213384Y50647D01*
X213473Y50645D01*
X215519Y50645D01*
X213064Y50645D02*
X211427Y47371D01*
X208255Y53100D02*
X206209Y54737D01*
X206209Y47371D01*
X208255Y47371D02*
X204163Y47371D01*
X199303Y50645D02*
X196848Y50645D01*
X199303Y50645D02*
X199381Y50647D01*
X199459Y50652D01*
X199536Y50662D01*
X199613Y50675D01*
X199689Y50691D01*
X199764Y50711D01*
X199838Y50735D01*
X199911Y50762D01*
X199983Y50793D01*
X200053Y50827D01*
X200122Y50864D01*
X200188Y50905D01*
X200253Y50949D01*
X200315Y50995D01*
X200375Y51045D01*
X200433Y51097D01*
X200488Y51152D01*
X200540Y51210D01*
X200590Y51270D01*
X200636Y51332D01*
X200680Y51397D01*
X200721Y51464D01*
X200758Y51532D01*
X200792Y51602D01*
X200823Y51674D01*
X200850Y51747D01*
X200874Y51821D01*
X200894Y51896D01*
X200910Y51972D01*
X200923Y52049D01*
X200933Y52126D01*
X200938Y52204D01*
X200940Y52282D01*
X200940Y52691D01*
X200938Y52780D01*
X200932Y52869D01*
X200922Y52958D01*
X200909Y53046D01*
X200892Y53134D01*
X200870Y53221D01*
X200845Y53306D01*
X200817Y53391D01*
X200784Y53474D01*
X200748Y53556D01*
X200709Y53636D01*
X200666Y53714D01*
X200620Y53790D01*
X200570Y53865D01*
X200517Y53937D01*
X200461Y54006D01*
X200402Y54073D01*
X200341Y54138D01*
X200276Y54199D01*
X200209Y54258D01*
X200140Y54314D01*
X200068Y54367D01*
X199993Y54417D01*
X199917Y54463D01*
X199839Y54506D01*
X199759Y54545D01*
X199677Y54581D01*
X199594Y54614D01*
X199509Y54642D01*
X199424Y54667D01*
X199337Y54689D01*
X199249Y54706D01*
X199161Y54719D01*
X199072Y54729D01*
X198983Y54735D01*
X198894Y54737D01*
X198805Y54735D01*
X198716Y54729D01*
X198627Y54719D01*
X198539Y54706D01*
X198451Y54689D01*
X198364Y54667D01*
X198279Y54642D01*
X198194Y54614D01*
X198111Y54581D01*
X198029Y54545D01*
X197949Y54506D01*
X197871Y54463D01*
X197795Y54417D01*
X197720Y54367D01*
X197648Y54314D01*
X197579Y54258D01*
X197512Y54199D01*
X197447Y54138D01*
X197386Y54073D01*
X197327Y54006D01*
X197271Y53937D01*
X197218Y53865D01*
X197168Y53790D01*
X197122Y53714D01*
X197079Y53636D01*
X197040Y53556D01*
X197004Y53474D01*
X196971Y53391D01*
X196943Y53306D01*
X196918Y53221D01*
X196896Y53134D01*
X196879Y53046D01*
X196866Y52958D01*
X196856Y52869D01*
X196850Y52780D01*
X196848Y52691D01*
X196848Y50645D01*
X196847Y50645D02*
X196849Y50533D01*
X196855Y50422D01*
X196864Y50310D01*
X196877Y50199D01*
X196895Y50089D01*
X196915Y49979D01*
X196940Y49870D01*
X196968Y49762D01*
X197000Y49655D01*
X197036Y49549D01*
X197075Y49444D01*
X197118Y49341D01*
X197164Y49239D01*
X197214Y49139D01*
X197267Y49040D01*
X197324Y48944D01*
X197383Y48849D01*
X197446Y48757D01*
X197512Y48667D01*
X197581Y48579D01*
X197653Y48493D01*
X197728Y48410D01*
X197806Y48330D01*
X197886Y48252D01*
X197969Y48177D01*
X198055Y48105D01*
X198143Y48036D01*
X198233Y47970D01*
X198325Y47907D01*
X198420Y47848D01*
X198516Y47791D01*
X198615Y47738D01*
X198715Y47688D01*
X198817Y47642D01*
X198920Y47599D01*
X199025Y47560D01*
X199131Y47524D01*
X199238Y47492D01*
X199346Y47464D01*
X199455Y47439D01*
X199565Y47419D01*
X199675Y47401D01*
X199786Y47388D01*
X199898Y47379D01*
X200009Y47373D01*
X200121Y47371D01*
D13*
X451393Y9652D02*
X452860Y9652D01*
X452934Y9654D01*
X453009Y9660D01*
X453082Y9669D01*
X453156Y9682D01*
X453228Y9699D01*
X453299Y9719D01*
X453370Y9743D01*
X453439Y9771D01*
X453507Y9802D01*
X453572Y9836D01*
X453637Y9874D01*
X453699Y9915D01*
X453759Y9959D01*
X453816Y10006D01*
X453871Y10056D01*
X453924Y10109D01*
X453974Y10164D01*
X454021Y10221D01*
X454065Y10281D01*
X454106Y10343D01*
X454144Y10408D01*
X454178Y10474D01*
X454209Y10541D01*
X454237Y10610D01*
X454261Y10681D01*
X454281Y10752D01*
X454298Y10825D01*
X454311Y10898D01*
X454320Y10972D01*
X454326Y11046D01*
X454328Y11120D01*
X454328Y14788D01*
X454326Y14862D01*
X454320Y14937D01*
X454311Y15010D01*
X454298Y15083D01*
X454281Y15156D01*
X454261Y15227D01*
X454237Y15298D01*
X454209Y15367D01*
X454178Y15434D01*
X454144Y15500D01*
X454106Y15565D01*
X454065Y15627D01*
X454021Y15687D01*
X453974Y15744D01*
X453924Y15799D01*
X453871Y15852D01*
X453816Y15902D01*
X453759Y15949D01*
X453699Y15993D01*
X453637Y16034D01*
X453572Y16072D01*
X453507Y16106D01*
X453439Y16137D01*
X453370Y16165D01*
X453300Y16189D01*
X453228Y16209D01*
X453156Y16226D01*
X453082Y16239D01*
X453009Y16248D01*
X452934Y16254D01*
X452860Y16256D01*
X451393Y16256D01*
X448196Y14788D02*
X446362Y16256D01*
X446362Y9652D01*
X448196Y9652D02*
X444527Y9652D01*
X440881Y13321D02*
X438680Y13321D01*
X438606Y13319D01*
X438531Y13313D01*
X438458Y13304D01*
X438384Y13291D01*
X438312Y13274D01*
X438241Y13254D01*
X438170Y13230D01*
X438101Y13202D01*
X438034Y13171D01*
X437968Y13137D01*
X437903Y13099D01*
X437841Y13058D01*
X437781Y13014D01*
X437724Y12967D01*
X437669Y12917D01*
X437616Y12864D01*
X437566Y12809D01*
X437519Y12752D01*
X437475Y12692D01*
X437434Y12630D01*
X437396Y12565D01*
X437362Y12499D01*
X437331Y12432D01*
X437303Y12363D01*
X437279Y12292D01*
X437259Y12221D01*
X437242Y12149D01*
X437229Y12075D01*
X437220Y12002D01*
X437214Y11927D01*
X437212Y11853D01*
X437212Y11486D01*
X437213Y11486D02*
X437215Y11401D01*
X437221Y11317D01*
X437231Y11233D01*
X437244Y11149D01*
X437262Y11066D01*
X437283Y10984D01*
X437308Y10903D01*
X437337Y10823D01*
X437369Y10745D01*
X437405Y10669D01*
X437445Y10594D01*
X437488Y10521D01*
X437534Y10450D01*
X437583Y10381D01*
X437636Y10314D01*
X437692Y10250D01*
X437750Y10189D01*
X437811Y10131D01*
X437875Y10075D01*
X437942Y10022D01*
X438011Y9973D01*
X438082Y9927D01*
X438155Y9884D01*
X438230Y9844D01*
X438306Y9808D01*
X438384Y9776D01*
X438464Y9747D01*
X438545Y9722D01*
X438627Y9701D01*
X438710Y9683D01*
X438794Y9670D01*
X438878Y9660D01*
X438962Y9654D01*
X439047Y9652D01*
X439132Y9654D01*
X439216Y9660D01*
X439300Y9670D01*
X439384Y9683D01*
X439467Y9701D01*
X439549Y9722D01*
X439630Y9747D01*
X439710Y9776D01*
X439788Y9808D01*
X439864Y9844D01*
X439939Y9884D01*
X440012Y9927D01*
X440083Y9973D01*
X440152Y10022D01*
X440219Y10075D01*
X440283Y10131D01*
X440344Y10189D01*
X440402Y10250D01*
X440458Y10314D01*
X440511Y10381D01*
X440560Y10450D01*
X440606Y10521D01*
X440649Y10594D01*
X440689Y10669D01*
X440725Y10745D01*
X440757Y10823D01*
X440786Y10903D01*
X440811Y10984D01*
X440832Y11066D01*
X440850Y11149D01*
X440863Y11233D01*
X440873Y11317D01*
X440879Y11401D01*
X440881Y11486D01*
X440881Y13321D01*
X440879Y13428D01*
X440873Y13535D01*
X440863Y13642D01*
X440850Y13748D01*
X440832Y13854D01*
X440811Y13959D01*
X440786Y14063D01*
X440757Y14167D01*
X440724Y14269D01*
X440687Y14369D01*
X440647Y14469D01*
X440603Y14567D01*
X440556Y14663D01*
X440505Y14757D01*
X440451Y14850D01*
X440394Y14940D01*
X440333Y15029D01*
X440269Y15115D01*
X440202Y15198D01*
X440132Y15280D01*
X440059Y15358D01*
X439983Y15434D01*
X439905Y15507D01*
X439823Y15577D01*
X439740Y15644D01*
X439654Y15708D01*
X439565Y15769D01*
X439475Y15826D01*
X439382Y15880D01*
X439288Y15931D01*
X439192Y15978D01*
X439094Y16022D01*
X438995Y16062D01*
X438894Y16099D01*
X438792Y16132D01*
X438688Y16161D01*
X438584Y16186D01*
X438479Y16207D01*
X438373Y16225D01*
X438267Y16238D01*
X438160Y16248D01*
X438053Y16254D01*
X437946Y16256D01*
X394440Y9652D02*
X392973Y9652D01*
X394440Y9652D02*
X394514Y9654D01*
X394589Y9660D01*
X394662Y9669D01*
X394736Y9682D01*
X394808Y9699D01*
X394879Y9719D01*
X394950Y9743D01*
X395019Y9771D01*
X395087Y9802D01*
X395152Y9836D01*
X395217Y9874D01*
X395279Y9915D01*
X395339Y9959D01*
X395396Y10006D01*
X395451Y10056D01*
X395504Y10109D01*
X395554Y10164D01*
X395601Y10221D01*
X395645Y10281D01*
X395686Y10343D01*
X395724Y10408D01*
X395758Y10474D01*
X395789Y10541D01*
X395817Y10610D01*
X395841Y10681D01*
X395861Y10752D01*
X395878Y10825D01*
X395891Y10898D01*
X395900Y10972D01*
X395906Y11046D01*
X395908Y11120D01*
X395908Y14788D01*
X395906Y14862D01*
X395900Y14937D01*
X395891Y15010D01*
X395878Y15083D01*
X395861Y15156D01*
X395841Y15227D01*
X395817Y15298D01*
X395789Y15367D01*
X395758Y15434D01*
X395724Y15500D01*
X395686Y15565D01*
X395645Y15627D01*
X395601Y15687D01*
X395554Y15744D01*
X395504Y15799D01*
X395451Y15852D01*
X395396Y15902D01*
X395339Y15949D01*
X395279Y15993D01*
X395217Y16034D01*
X395152Y16072D01*
X395087Y16106D01*
X395019Y16137D01*
X394950Y16165D01*
X394880Y16189D01*
X394808Y16209D01*
X394736Y16226D01*
X394662Y16239D01*
X394589Y16248D01*
X394514Y16254D01*
X394440Y16256D01*
X392973Y16256D01*
X389776Y14788D02*
X387942Y16256D01*
X387942Y9652D01*
X389776Y9652D02*
X386107Y9652D01*
X382461Y15522D02*
X382461Y16256D01*
X378792Y16256D01*
X380627Y9652D01*
X336020Y10922D02*
X334553Y10922D01*
X336020Y10922D02*
X336094Y10924D01*
X336169Y10930D01*
X336242Y10939D01*
X336316Y10952D01*
X336388Y10969D01*
X336459Y10989D01*
X336530Y11013D01*
X336599Y11041D01*
X336667Y11072D01*
X336732Y11106D01*
X336797Y11144D01*
X336859Y11185D01*
X336919Y11229D01*
X336976Y11276D01*
X337031Y11326D01*
X337084Y11379D01*
X337134Y11434D01*
X337181Y11491D01*
X337225Y11551D01*
X337266Y11613D01*
X337304Y11678D01*
X337338Y11744D01*
X337369Y11811D01*
X337397Y11880D01*
X337421Y11951D01*
X337441Y12022D01*
X337458Y12095D01*
X337471Y12168D01*
X337480Y12242D01*
X337486Y12316D01*
X337488Y12390D01*
X337488Y16058D01*
X337486Y16132D01*
X337480Y16207D01*
X337471Y16280D01*
X337458Y16353D01*
X337441Y16426D01*
X337421Y16497D01*
X337397Y16568D01*
X337369Y16637D01*
X337338Y16704D01*
X337304Y16770D01*
X337266Y16835D01*
X337225Y16897D01*
X337181Y16957D01*
X337134Y17014D01*
X337084Y17069D01*
X337031Y17122D01*
X336976Y17172D01*
X336919Y17219D01*
X336859Y17263D01*
X336797Y17304D01*
X336732Y17342D01*
X336667Y17376D01*
X336599Y17407D01*
X336530Y17435D01*
X336460Y17459D01*
X336388Y17479D01*
X336316Y17496D01*
X336242Y17509D01*
X336169Y17518D01*
X336094Y17524D01*
X336020Y17526D01*
X334553Y17526D01*
X331356Y16058D02*
X329522Y17526D01*
X329522Y10922D01*
X331356Y10922D02*
X327687Y10922D01*
X324041Y12756D02*
X324039Y12841D01*
X324033Y12925D01*
X324023Y13009D01*
X324010Y13093D01*
X323992Y13176D01*
X323971Y13258D01*
X323946Y13339D01*
X323917Y13419D01*
X323885Y13497D01*
X323849Y13573D01*
X323809Y13648D01*
X323766Y13721D01*
X323720Y13792D01*
X323671Y13861D01*
X323618Y13928D01*
X323562Y13992D01*
X323504Y14053D01*
X323443Y14111D01*
X323379Y14167D01*
X323312Y14220D01*
X323243Y14269D01*
X323172Y14315D01*
X323099Y14358D01*
X323024Y14398D01*
X322948Y14434D01*
X322870Y14466D01*
X322790Y14495D01*
X322709Y14520D01*
X322627Y14541D01*
X322544Y14559D01*
X322460Y14572D01*
X322376Y14582D01*
X322292Y14588D01*
X322207Y14590D01*
X322122Y14588D01*
X322038Y14582D01*
X321954Y14572D01*
X321870Y14559D01*
X321787Y14541D01*
X321705Y14520D01*
X321624Y14495D01*
X321544Y14466D01*
X321466Y14434D01*
X321390Y14398D01*
X321315Y14358D01*
X321242Y14315D01*
X321171Y14269D01*
X321102Y14220D01*
X321035Y14167D01*
X320971Y14111D01*
X320910Y14053D01*
X320852Y13992D01*
X320796Y13928D01*
X320743Y13861D01*
X320694Y13792D01*
X320648Y13721D01*
X320605Y13648D01*
X320565Y13573D01*
X320529Y13497D01*
X320497Y13419D01*
X320468Y13339D01*
X320443Y13258D01*
X320422Y13176D01*
X320404Y13093D01*
X320391Y13009D01*
X320381Y12925D01*
X320375Y12841D01*
X320373Y12756D01*
X320375Y12671D01*
X320381Y12587D01*
X320391Y12503D01*
X320404Y12419D01*
X320422Y12336D01*
X320443Y12254D01*
X320468Y12173D01*
X320497Y12093D01*
X320529Y12015D01*
X320565Y11939D01*
X320605Y11864D01*
X320648Y11791D01*
X320694Y11720D01*
X320743Y11651D01*
X320796Y11584D01*
X320852Y11520D01*
X320910Y11459D01*
X320971Y11401D01*
X321035Y11345D01*
X321102Y11292D01*
X321171Y11243D01*
X321242Y11197D01*
X321315Y11154D01*
X321390Y11114D01*
X321466Y11078D01*
X321544Y11046D01*
X321624Y11017D01*
X321705Y10992D01*
X321787Y10971D01*
X321870Y10953D01*
X321954Y10940D01*
X322038Y10930D01*
X322122Y10924D01*
X322207Y10922D01*
X322292Y10924D01*
X322376Y10930D01*
X322460Y10940D01*
X322544Y10953D01*
X322627Y10971D01*
X322709Y10992D01*
X322790Y11017D01*
X322870Y11046D01*
X322948Y11078D01*
X323024Y11114D01*
X323099Y11154D01*
X323172Y11197D01*
X323243Y11243D01*
X323312Y11292D01*
X323379Y11345D01*
X323443Y11401D01*
X323504Y11459D01*
X323562Y11520D01*
X323618Y11584D01*
X323671Y11651D01*
X323720Y11720D01*
X323766Y11791D01*
X323809Y11864D01*
X323849Y11939D01*
X323885Y12015D01*
X323917Y12093D01*
X323946Y12173D01*
X323971Y12254D01*
X323992Y12336D01*
X324010Y12419D01*
X324023Y12503D01*
X324033Y12587D01*
X324039Y12671D01*
X324041Y12756D01*
X323675Y16058D02*
X323673Y16134D01*
X323667Y16209D01*
X323658Y16284D01*
X323644Y16358D01*
X323627Y16432D01*
X323605Y16504D01*
X323581Y16576D01*
X323552Y16646D01*
X323520Y16714D01*
X323485Y16781D01*
X323446Y16846D01*
X323403Y16909D01*
X323358Y16969D01*
X323310Y17027D01*
X323258Y17083D01*
X323204Y17135D01*
X323147Y17185D01*
X323088Y17232D01*
X323027Y17276D01*
X322963Y17317D01*
X322897Y17354D01*
X322829Y17388D01*
X322760Y17418D01*
X322689Y17445D01*
X322617Y17468D01*
X322544Y17487D01*
X322470Y17502D01*
X322395Y17514D01*
X322320Y17522D01*
X322245Y17526D01*
X322169Y17526D01*
X322094Y17522D01*
X322019Y17514D01*
X321944Y17502D01*
X321870Y17487D01*
X321797Y17468D01*
X321725Y17445D01*
X321654Y17418D01*
X321585Y17388D01*
X321517Y17354D01*
X321451Y17317D01*
X321387Y17276D01*
X321326Y17232D01*
X321267Y17185D01*
X321210Y17135D01*
X321156Y17083D01*
X321104Y17027D01*
X321056Y16969D01*
X321011Y16909D01*
X320968Y16846D01*
X320929Y16781D01*
X320894Y16714D01*
X320862Y16646D01*
X320833Y16576D01*
X320809Y16504D01*
X320787Y16432D01*
X320770Y16358D01*
X320756Y16284D01*
X320747Y16209D01*
X320741Y16134D01*
X320739Y16058D01*
X320741Y15982D01*
X320747Y15907D01*
X320756Y15832D01*
X320770Y15758D01*
X320787Y15684D01*
X320809Y15612D01*
X320833Y15540D01*
X320862Y15470D01*
X320894Y15402D01*
X320929Y15335D01*
X320968Y15270D01*
X321011Y15207D01*
X321056Y15147D01*
X321104Y15089D01*
X321156Y15033D01*
X321210Y14981D01*
X321267Y14931D01*
X321326Y14884D01*
X321387Y14840D01*
X321451Y14799D01*
X321517Y14762D01*
X321585Y14728D01*
X321654Y14698D01*
X321725Y14671D01*
X321797Y14648D01*
X321870Y14629D01*
X321944Y14614D01*
X322019Y14602D01*
X322094Y14594D01*
X322169Y14590D01*
X322245Y14590D01*
X322320Y14594D01*
X322395Y14602D01*
X322470Y14614D01*
X322544Y14629D01*
X322617Y14648D01*
X322689Y14671D01*
X322760Y14698D01*
X322829Y14728D01*
X322897Y14762D01*
X322963Y14799D01*
X323027Y14840D01*
X323088Y14884D01*
X323147Y14931D01*
X323204Y14981D01*
X323258Y15033D01*
X323310Y15089D01*
X323358Y15147D01*
X323403Y15207D01*
X323446Y15270D01*
X323485Y15335D01*
X323520Y15402D01*
X323552Y15470D01*
X323581Y15540D01*
X323605Y15612D01*
X323627Y15684D01*
X323644Y15758D01*
X323658Y15832D01*
X323667Y15907D01*
X323673Y15982D01*
X323675Y16058D01*
X276330Y9652D02*
X274863Y9652D01*
X276330Y9652D02*
X276404Y9654D01*
X276479Y9660D01*
X276552Y9669D01*
X276626Y9682D01*
X276698Y9699D01*
X276769Y9719D01*
X276840Y9743D01*
X276909Y9771D01*
X276977Y9802D01*
X277042Y9836D01*
X277107Y9874D01*
X277169Y9915D01*
X277229Y9959D01*
X277286Y10006D01*
X277341Y10056D01*
X277394Y10109D01*
X277444Y10164D01*
X277491Y10221D01*
X277535Y10281D01*
X277576Y10343D01*
X277614Y10408D01*
X277648Y10474D01*
X277679Y10541D01*
X277707Y10610D01*
X277731Y10681D01*
X277751Y10752D01*
X277768Y10825D01*
X277781Y10898D01*
X277790Y10972D01*
X277796Y11046D01*
X277798Y11120D01*
X277798Y14788D01*
X277796Y14862D01*
X277790Y14937D01*
X277781Y15010D01*
X277768Y15083D01*
X277751Y15156D01*
X277731Y15227D01*
X277707Y15298D01*
X277679Y15367D01*
X277648Y15434D01*
X277614Y15500D01*
X277576Y15565D01*
X277535Y15627D01*
X277491Y15687D01*
X277444Y15744D01*
X277394Y15799D01*
X277341Y15852D01*
X277286Y15902D01*
X277229Y15949D01*
X277169Y15993D01*
X277107Y16034D01*
X277042Y16072D01*
X276977Y16106D01*
X276909Y16137D01*
X276840Y16165D01*
X276770Y16189D01*
X276698Y16209D01*
X276626Y16226D01*
X276552Y16239D01*
X276479Y16248D01*
X276404Y16254D01*
X276330Y16256D01*
X274863Y16256D01*
X271666Y14788D02*
X269832Y16256D01*
X269832Y9652D01*
X271666Y9652D02*
X267997Y9652D01*
X262884Y12587D02*
X260682Y12587D01*
X262884Y12587D02*
X262958Y12589D01*
X263033Y12595D01*
X263106Y12604D01*
X263180Y12617D01*
X263252Y12634D01*
X263323Y12654D01*
X263394Y12678D01*
X263463Y12706D01*
X263531Y12737D01*
X263596Y12771D01*
X263661Y12809D01*
X263723Y12850D01*
X263783Y12894D01*
X263840Y12941D01*
X263895Y12991D01*
X263948Y13044D01*
X263998Y13099D01*
X264045Y13156D01*
X264089Y13216D01*
X264130Y13278D01*
X264168Y13343D01*
X264202Y13409D01*
X264233Y13476D01*
X264261Y13545D01*
X264285Y13616D01*
X264305Y13687D01*
X264322Y13760D01*
X264335Y13833D01*
X264344Y13907D01*
X264350Y13981D01*
X264352Y14055D01*
X264351Y14055D02*
X264351Y14422D01*
X264349Y14507D01*
X264343Y14591D01*
X264333Y14675D01*
X264320Y14759D01*
X264302Y14842D01*
X264281Y14924D01*
X264256Y15005D01*
X264227Y15085D01*
X264195Y15163D01*
X264159Y15239D01*
X264119Y15314D01*
X264076Y15387D01*
X264030Y15458D01*
X263981Y15527D01*
X263928Y15594D01*
X263872Y15658D01*
X263814Y15719D01*
X263753Y15777D01*
X263689Y15833D01*
X263622Y15886D01*
X263553Y15935D01*
X263482Y15981D01*
X263409Y16024D01*
X263334Y16064D01*
X263258Y16100D01*
X263180Y16132D01*
X263100Y16161D01*
X263019Y16186D01*
X262937Y16207D01*
X262854Y16225D01*
X262770Y16238D01*
X262686Y16248D01*
X262602Y16254D01*
X262517Y16256D01*
X262432Y16254D01*
X262348Y16248D01*
X262264Y16238D01*
X262180Y16225D01*
X262097Y16207D01*
X262015Y16186D01*
X261934Y16161D01*
X261854Y16132D01*
X261776Y16100D01*
X261700Y16064D01*
X261625Y16024D01*
X261552Y15981D01*
X261481Y15935D01*
X261412Y15886D01*
X261345Y15833D01*
X261281Y15777D01*
X261220Y15719D01*
X261162Y15658D01*
X261106Y15594D01*
X261053Y15527D01*
X261004Y15458D01*
X260958Y15387D01*
X260915Y15314D01*
X260875Y15239D01*
X260839Y15163D01*
X260807Y15085D01*
X260778Y15005D01*
X260753Y14924D01*
X260732Y14842D01*
X260714Y14759D01*
X260701Y14675D01*
X260691Y14591D01*
X260685Y14507D01*
X260683Y14422D01*
X260682Y14422D02*
X260682Y12587D01*
X260684Y12480D01*
X260690Y12373D01*
X260700Y12266D01*
X260713Y12160D01*
X260731Y12054D01*
X260752Y11949D01*
X260777Y11845D01*
X260806Y11741D01*
X260839Y11639D01*
X260876Y11539D01*
X260916Y11439D01*
X260960Y11341D01*
X261007Y11245D01*
X261058Y11151D01*
X261112Y11058D01*
X261169Y10968D01*
X261230Y10879D01*
X261294Y10793D01*
X261361Y10710D01*
X261431Y10628D01*
X261504Y10550D01*
X261580Y10474D01*
X261658Y10401D01*
X261740Y10331D01*
X261823Y10264D01*
X261909Y10200D01*
X261998Y10139D01*
X262088Y10082D01*
X262181Y10028D01*
X262275Y9977D01*
X262371Y9930D01*
X262469Y9886D01*
X262569Y9846D01*
X262669Y9809D01*
X262771Y9776D01*
X262875Y9747D01*
X262979Y9722D01*
X263084Y9701D01*
X263190Y9683D01*
X263296Y9670D01*
X263403Y9660D01*
X263510Y9654D01*
X263617Y9652D01*
X219180Y9652D02*
X217713Y9652D01*
X219180Y9652D02*
X219254Y9654D01*
X219329Y9660D01*
X219402Y9669D01*
X219476Y9682D01*
X219548Y9699D01*
X219619Y9719D01*
X219690Y9743D01*
X219759Y9771D01*
X219827Y9802D01*
X219892Y9836D01*
X219957Y9874D01*
X220019Y9915D01*
X220079Y9959D01*
X220136Y10006D01*
X220191Y10056D01*
X220244Y10109D01*
X220294Y10164D01*
X220341Y10221D01*
X220385Y10281D01*
X220426Y10343D01*
X220464Y10408D01*
X220498Y10474D01*
X220529Y10541D01*
X220557Y10610D01*
X220581Y10681D01*
X220601Y10752D01*
X220618Y10825D01*
X220631Y10898D01*
X220640Y10972D01*
X220646Y11046D01*
X220648Y11120D01*
X220648Y14788D01*
X220646Y14862D01*
X220640Y14937D01*
X220631Y15010D01*
X220618Y15083D01*
X220601Y15156D01*
X220581Y15227D01*
X220557Y15298D01*
X220529Y15367D01*
X220498Y15434D01*
X220464Y15500D01*
X220426Y15565D01*
X220385Y15627D01*
X220341Y15687D01*
X220294Y15744D01*
X220244Y15799D01*
X220191Y15852D01*
X220136Y15902D01*
X220079Y15949D01*
X220019Y15993D01*
X219957Y16034D01*
X219892Y16072D01*
X219827Y16106D01*
X219759Y16137D01*
X219690Y16165D01*
X219620Y16189D01*
X219548Y16209D01*
X219476Y16226D01*
X219402Y16239D01*
X219329Y16248D01*
X219254Y16254D01*
X219180Y16256D01*
X217713Y16256D01*
X212498Y16256D02*
X212419Y16254D01*
X212341Y16249D01*
X212263Y16239D01*
X212186Y16226D01*
X212109Y16209D01*
X212033Y16189D01*
X211958Y16165D01*
X211884Y16138D01*
X211812Y16107D01*
X211741Y16072D01*
X211673Y16035D01*
X211605Y15994D01*
X211540Y15950D01*
X211477Y15903D01*
X211417Y15853D01*
X211359Y15800D01*
X211303Y15744D01*
X211250Y15686D01*
X211200Y15626D01*
X211153Y15563D01*
X211109Y15498D01*
X211068Y15431D01*
X211031Y15362D01*
X210996Y15291D01*
X210965Y15219D01*
X210938Y15145D01*
X210914Y15070D01*
X210894Y14994D01*
X210877Y14917D01*
X210864Y14840D01*
X210854Y14762D01*
X210849Y14684D01*
X210847Y14605D01*
X212498Y16256D02*
X212587Y16254D01*
X212676Y16249D01*
X212764Y16239D01*
X212852Y16226D01*
X212939Y16210D01*
X213026Y16189D01*
X213111Y16165D01*
X213196Y16138D01*
X213279Y16107D01*
X213361Y16072D01*
X213442Y16034D01*
X213521Y15993D01*
X213597Y15949D01*
X213673Y15901D01*
X213746Y15850D01*
X213816Y15797D01*
X213885Y15740D01*
X213951Y15680D01*
X214014Y15618D01*
X214075Y15553D01*
X214133Y15486D01*
X214188Y15416D01*
X214241Y15344D01*
X214290Y15270D01*
X214336Y15194D01*
X214378Y15116D01*
X214418Y15036D01*
X214454Y14955D01*
X214487Y14872D01*
X214516Y14788D01*
X211398Y13321D02*
X211342Y13377D01*
X211288Y13436D01*
X211237Y13497D01*
X211188Y13561D01*
X211143Y13626D01*
X211100Y13694D01*
X211061Y13763D01*
X211024Y13834D01*
X210991Y13907D01*
X210962Y13981D01*
X210935Y14056D01*
X210912Y14132D01*
X210893Y14210D01*
X210877Y14288D01*
X210864Y14366D01*
X210855Y14446D01*
X210850Y14525D01*
X210848Y14605D01*
X211398Y13321D02*
X214516Y9652D01*
X210847Y9652D01*
X207201Y12954D02*
X207199Y13099D01*
X207193Y13244D01*
X207184Y13389D01*
X207170Y13534D01*
X207153Y13678D01*
X207131Y13821D01*
X207106Y13965D01*
X207077Y14107D01*
X207045Y14248D01*
X207008Y14389D01*
X206968Y14528D01*
X206924Y14667D01*
X206877Y14804D01*
X206826Y14940D01*
X206771Y15074D01*
X206713Y15207D01*
X206651Y15339D01*
X206652Y15339D02*
X206626Y15408D01*
X206597Y15475D01*
X206564Y15541D01*
X206528Y15604D01*
X206488Y15666D01*
X206445Y15725D01*
X206399Y15782D01*
X206350Y15836D01*
X206298Y15888D01*
X206243Y15937D01*
X206186Y15982D01*
X206126Y16025D01*
X206064Y16064D01*
X206001Y16100D01*
X205935Y16133D01*
X205868Y16161D01*
X205799Y16187D01*
X205729Y16208D01*
X205658Y16226D01*
X205586Y16239D01*
X205513Y16249D01*
X205440Y16255D01*
X205367Y16257D01*
X205367Y16256D02*
X205294Y16254D01*
X205221Y16248D01*
X205148Y16238D01*
X205077Y16225D01*
X205005Y16207D01*
X204935Y16186D01*
X204867Y16160D01*
X204799Y16132D01*
X204734Y16099D01*
X204670Y16063D01*
X204608Y16024D01*
X204549Y15982D01*
X204492Y15936D01*
X204437Y15887D01*
X204385Y15836D01*
X204336Y15781D01*
X204290Y15724D01*
X204247Y15665D01*
X204207Y15604D01*
X204171Y15540D01*
X204138Y15475D01*
X204109Y15408D01*
X204083Y15339D01*
X204082Y15339D02*
X204020Y15207D01*
X203962Y15074D01*
X203907Y14940D01*
X203856Y14804D01*
X203809Y14667D01*
X203765Y14528D01*
X203725Y14389D01*
X203688Y14248D01*
X203656Y14107D01*
X203627Y13965D01*
X203602Y13822D01*
X203580Y13678D01*
X203563Y13534D01*
X203549Y13389D01*
X203540Y13244D01*
X203534Y13099D01*
X203532Y12954D01*
X207201Y12954D02*
X207199Y12809D01*
X207193Y12664D01*
X207184Y12519D01*
X207170Y12374D01*
X207153Y12230D01*
X207131Y12087D01*
X207106Y11944D01*
X207078Y11801D01*
X207045Y11660D01*
X207008Y11519D01*
X206968Y11380D01*
X206924Y11241D01*
X206877Y11104D01*
X206826Y10968D01*
X206771Y10834D01*
X206713Y10701D01*
X206651Y10569D01*
X206652Y10570D02*
X206626Y10501D01*
X206597Y10434D01*
X206564Y10368D01*
X206528Y10305D01*
X206488Y10243D01*
X206445Y10184D01*
X206399Y10127D01*
X206350Y10073D01*
X206298Y10021D01*
X206243Y9972D01*
X206186Y9927D01*
X206126Y9884D01*
X206064Y9845D01*
X206001Y9809D01*
X205935Y9776D01*
X205868Y9748D01*
X205799Y9722D01*
X205729Y9701D01*
X205658Y9683D01*
X205586Y9670D01*
X205513Y9660D01*
X205440Y9654D01*
X205367Y9652D01*
X204082Y10569D02*
X204020Y10701D01*
X203962Y10834D01*
X203907Y10968D01*
X203856Y11104D01*
X203809Y11241D01*
X203765Y11380D01*
X203725Y11519D01*
X203688Y11660D01*
X203656Y11801D01*
X203627Y11943D01*
X203602Y12086D01*
X203580Y12230D01*
X203563Y12374D01*
X203549Y12519D01*
X203540Y12664D01*
X203534Y12809D01*
X203532Y12954D01*
X204083Y10569D02*
X204109Y10500D01*
X204138Y10433D01*
X204171Y10368D01*
X204207Y10304D01*
X204247Y10243D01*
X204290Y10184D01*
X204336Y10127D01*
X204385Y10072D01*
X204437Y10021D01*
X204492Y9972D01*
X204549Y9926D01*
X204608Y9884D01*
X204670Y9845D01*
X204734Y9809D01*
X204799Y9776D01*
X204867Y9748D01*
X204935Y9722D01*
X205005Y9701D01*
X205077Y9683D01*
X205148Y9670D01*
X205221Y9660D01*
X205294Y9654D01*
X205367Y9652D01*
X206834Y11120D02*
X203899Y14788D01*
M02*
