G04 EAGLE Gerber RS-274X export*
G75*
%MOMM*%
%FSLAX34Y34*%
%LPD*%
%INSoldermask Bottom*%
%IPPOS*%
%AMOC8*
5,1,8,0,0,1.08239X$1,22.5*%
G01*
%ADD10R,1.625600X1.625600*%
%ADD11R,2.126600X2.126600*%
%ADD12C,2.126600*%
%ADD13C,3.101600*%
%ADD14R,1.201600X1.501600*%
%ADD15C,1.981200*%
%ADD16R,2.133600X2.133600*%
%ADD17C,2.133600*%
%ADD18R,1.201600X1.101600*%
%ADD19C,1.376600*%


D10*
X224790Y571500D03*
X250190Y571500D03*
X344170Y571500D03*
X369570Y571500D03*
X284480Y571500D03*
X309880Y571500D03*
X403860Y571500D03*
X429260Y571500D03*
X463550Y571500D03*
X488950Y571500D03*
D11*
X143510Y96520D03*
D12*
X183510Y113520D03*
X143510Y130520D03*
X183510Y147520D03*
X143510Y164520D03*
D13*
X43180Y41910D03*
X693420Y40640D03*
X41910Y567690D03*
X694690Y566420D03*
D14*
X68420Y424180D03*
X48420Y424180D03*
X341470Y422910D03*
X321470Y422910D03*
X208120Y422910D03*
X188120Y422910D03*
X491330Y422910D03*
X471330Y422910D03*
X627220Y424180D03*
X607220Y424180D03*
D15*
X560070Y20320D03*
X560070Y45720D03*
X585470Y20320D03*
X585470Y45720D03*
X610870Y20320D03*
X610870Y45720D03*
X636270Y20320D03*
X636270Y45720D03*
D16*
X34290Y265430D03*
D17*
X34290Y215430D03*
D10*
X483870Y31750D03*
X458470Y31750D03*
X425450Y31750D03*
X400050Y31750D03*
X367030Y31750D03*
X341630Y31750D03*
X308610Y31750D03*
X283210Y31750D03*
X250190Y31750D03*
X224790Y31750D03*
D14*
X481170Y50800D03*
X461170Y50800D03*
X421480Y50800D03*
X401480Y50800D03*
X364330Y50800D03*
X344330Y50800D03*
X305910Y50800D03*
X285910Y50800D03*
X247490Y50800D03*
X227490Y50800D03*
D18*
X479670Y12700D03*
X462670Y12700D03*
X422520Y12700D03*
X405520Y12700D03*
X362830Y12700D03*
X345830Y12700D03*
X304410Y12700D03*
X287410Y12700D03*
X247260Y12700D03*
X230260Y12700D03*
D10*
X191770Y31750D03*
X166370Y31750D03*
D19*
X22860Y124460D03*
X72390Y124460D03*
X363220Y85090D03*
X363220Y134620D03*
M02*
