M48
;GenerationSoftware,Autodesk,EAGLE,9.6.2*%
;CreationDate,2021-11-29T19:17:36Z*%
FMAT,2
ICI,OFF
METRIC,TZ,000.000
T7C0.300
T6C0.350
T5C0.850
T4C1.016
T3C1.300
T2C1.350
T1C3.000
%
G90
M71
T1
X4191Y56769
X4318Y4191
X69469Y56642
X69342Y4064
T2
X14351Y16452
X18351Y14752
X14351Y13052
X18351Y11352
X14351Y9652
T3
X3429Y26543
X3429Y21543
T4
X62611Y1778
X60071Y4318
X60071Y1778
X48895Y57150
X57531Y4318
X57531Y1778
X54991Y4318
X46355Y57150
X42926Y57150
X40386Y57150
X25019Y3175
X30988Y57150
X28448Y57150
X36957Y57150
X34417Y57150
X25019Y57150
X22479Y3175
X22479Y57150
X54991Y1778
X28321Y3175
X30861Y3175
X34163Y3175
X36703Y3175
X42545Y3175
X45847Y3175
X48387Y3175
X62611Y4318
X40005Y3175
T5
X36322Y13335
X36322Y8763
X2286Y12446
X7112Y12446
T6
X2159Y31242
X2159Y32258
X2159Y33274
X2159Y34290
X2159Y35433
X3048Y34290
X4953Y37592
X9271Y37592
X18923Y37719
X23368Y37719
X32766Y37719
X37338Y37719
X51435Y37846
X61087Y37846
X65532Y37846
X46863Y37846
X10541Y37592
X11811Y37592
X8001Y37592
X6731Y37592
X20701Y37719
X22098Y37719
X24638Y37719
X25908Y37719
X34417Y37719
X35814Y37719
X38608Y37719
X40005Y37719
X49911Y37846
X52705Y37846
X54229Y37846
X62738Y37846
X64135Y37846
X66929Y37846
X68326Y37846
X4953Y38608
X4953Y39751
X18923Y38735
X18923Y39751
X32766Y38735
X32766Y39878
X46863Y38862
X46863Y40005
X61087Y38862
X61087Y40005
X30226Y30861
X30226Y33274
X30226Y32131
X30226Y34417
X30226Y35560
X31115Y34417
X16383Y30861
X16383Y33274
X16383Y32131
X16383Y34417
X16383Y35560
X17272Y34417
X44323Y30861
X44323Y33274
X44323Y32131
X44323Y34417
X44323Y35560
X45212Y34417
X58547Y30861
X58547Y33274
X58547Y32131
X58547Y34417
X58547Y35560
X59436Y34417
X4953Y36576
X18923Y36703
X32766Y36703
X46863Y36830
X61087Y36830
X48514Y37846
T7
X6223Y20701
X7239Y20701
X8255Y20701
X9271Y20701
X10414Y20701
X11557Y20701
X6223Y19558
X6223Y18415
X6223Y17272
X6223Y16129
X40132Y9525
X40132Y8509
X41148Y8509
X41148Y9525
X39116Y17653
X39116Y16637
X39116Y15621
X7239Y16129
X7239Y17272
X7239Y18415
X7239Y19558
X8255Y19558
X9271Y19558
X10414Y19558
X43434Y18034
X50800Y5461
X50927Y3175
X51054Y1143
X51308Y21717
X52324Y3175
X11684Y3175
X19304Y3175
X43434Y21463
X42164Y8509
X42164Y9525
X56515Y23241
X58166Y23241
X59182Y9525
X51689Y9525
X51689Y13335
X51562Y16383
X59182Y13335
X59182Y16383
X61214Y19431
X10414Y5715
X10414Y1016
X10414Y3302
X19304Y4445
X52197Y5461
X52451Y1143
X45212Y16383
X43434Y14478
X45212Y14478
X57912Y19558
X56896Y19558
X56769Y20447
X55880Y20447
X59690Y23114
X61214Y9525
X61976Y23114
X16764Y27432
X3429Y40894
X34544Y27559
X31242Y40894
X21336Y27432
X17399Y40767
X52197Y27940
X45593Y41021
X61468Y27305
X59563Y41021
X57404Y9525
X20701Y4699
X26924Y4699
X32893Y4699
X38608Y4699
X44069Y4572
X54229Y23241
X49911Y23241
X53594Y9525
X53594Y16383
X49784Y13335
X53594Y13335
X52070Y23241
X57404Y16383
X61214Y16383
X57404Y13335
X61214Y13335
X43434Y16383
X62611Y6477
X35687Y24257
X25019Y24384
X19304Y24892
X16510Y24892
X32512Y26797
X27686Y26797
X40005Y15621
X40005Y16637
X40005Y17653
X65024Y13335
X65024Y16383
X65024Y19431
X65024Y22606
X65786Y25781
X11557Y16129
X10414Y16129
X9271Y16129
X8255Y16129
X11557Y17272
X10414Y17272
X9271Y17272
X8255Y17272
X11557Y18415
X10414Y18415
X9271Y18415
X8255Y18415
X11557Y19558
X60960Y23114
M30