M48
;GenerationSoftware,Autodesk,EAGLE,9.6.2*%
;CreationDate,2022-07-24T20:21:06Z*%
FMAT,2
ICI,OFF
METRIC,TZ,000.000
T7C0.300
T6C0.350
T5C0.850
T4C1.016
T3C1.300
T2C1.350
T1C3.000
%
G90
M71
T1
X69469Y56642
X4191Y56769
X69342Y4064
X4318Y4191
T2
X14351Y13052
X18351Y11352
X14351Y9652
X14351Y16452
X18351Y14752
T3
X3429Y21543
X3429Y26543
T4
X58547Y4572
X58547Y2032
X56007Y4572
X56007Y2032
X48895Y57150
X46355Y57150
X61087Y2032
X42926Y57150
X40386Y57150
X30988Y57150
X28448Y57150
X36957Y57150
X34417Y57150
X25019Y57150
X22479Y57150
X48387Y3175
X63627Y4572
X63627Y2032
X16637Y3175
X19177Y3175
X22479Y3175
X25019Y3175
X61087Y4572
X28321Y3175
X30861Y3175
X34163Y3175
X36703Y3175
X40005Y3175
X42545Y3175
X45847Y3175
T5
X2286Y12446
X7239Y12446
X36322Y8509
X36322Y13462
T6
X2159Y31242
X2159Y32258
X2159Y33274
X2159Y34290
X2159Y35433
X3048Y34290
X45212Y34417
X58547Y35560
X58547Y34417
X58547Y32131
X58547Y33274
X58547Y30861
X44323Y35560
X44323Y34417
X44323Y32131
X44323Y33274
X44323Y30861
X17272Y34417
X16383Y35560
X16383Y34417
X16383Y32131
X16383Y33274
X16383Y30861
X31115Y34417
X30226Y35560
X30226Y34417
X30226Y32131
X30226Y33274
X30226Y30861
X59436Y34417
T7
X57150Y27813
X50800Y18923
X55626Y27813
X43942Y12446
X20066Y26035
X16764Y27432
X3429Y40894
X31242Y40894
X21336Y27432
X17399Y40767
X51181Y27813
X45593Y41021
X59563Y41021
X61595Y28067
X42418Y11303
X48133Y21336
X49276Y5080
X43434Y5080
X34544Y27559
X31750Y5080
X25908Y5080
X54610Y24130
X64897Y6858
X53340Y23622
X63119Y7239
X4953Y37592
X4953Y38481
X4953Y39370
X4953Y36703
X18923Y37592
X37719Y5080
X18923Y38481
X18923Y39370
X18923Y36703
X32766Y37719
X32766Y38608
X32766Y36830
X46863Y37846
X46863Y38735
X46863Y39624
X46863Y36957
X61087Y37846
X61087Y38735
X61087Y39624
X61087Y36957
X33909Y24003
X31115Y24003
X47371Y22606
X49911Y20066
X65786Y8509
X65786Y10160
X65786Y11938
X65786Y13589
X65786Y15113
X65786Y16637
X65786Y18034
X65786Y19558
X65786Y20955
X65786Y22479
X65786Y23876
X65786Y25146
X32766Y39497
X17780Y24003
X21463Y24003
X24892Y24003
X28194Y24003
M30