G04 EAGLE Gerber RS-274X export*
G75*
%MOMM*%
%FSLAX34Y34*%
%LPD*%
%INBottom Copper*%
%IPPOS*%
%AMOC8*
5,1,8,0,0,1.08239X$1,22.5*%
G01*
%ADD10R,1.524000X1.524000*%
%ADD11R,2.025000X2.025000*%
%ADD12C,2.025000*%
%ADD13R,1.100000X1.000000*%
%ADD14C,1.879600*%
%ADD15R,2.032000X2.032000*%
%ADD16C,2.032000*%
%ADD17C,1.275000*%
%ADD18C,0.756400*%
%ADD19C,0.706400*%
%ADD20C,0.254000*%
%ADD21C,0.200000*%

G36*
X715548Y355062D02*
X715548Y355062D01*
X715601Y355136D01*
X715661Y355205D01*
X715673Y355235D01*
X715692Y355261D01*
X715719Y355348D01*
X715753Y355433D01*
X715757Y355474D01*
X715764Y355497D01*
X715763Y355529D01*
X715771Y355600D01*
X715771Y412750D01*
X715768Y412770D01*
X715770Y412789D01*
X715748Y412891D01*
X715732Y412993D01*
X715722Y413010D01*
X715718Y413030D01*
X715665Y413119D01*
X715616Y413210D01*
X715602Y413224D01*
X715592Y413241D01*
X715513Y413308D01*
X715438Y413380D01*
X715420Y413388D01*
X715405Y413401D01*
X715309Y413440D01*
X715215Y413483D01*
X715195Y413485D01*
X715177Y413493D01*
X715010Y413511D01*
X607060Y413511D01*
X607040Y413508D01*
X607021Y413510D01*
X606919Y413488D01*
X606817Y413472D01*
X606800Y413462D01*
X606780Y413458D01*
X606691Y413405D01*
X606600Y413356D01*
X606586Y413342D01*
X606569Y413332D01*
X606502Y413253D01*
X606431Y413178D01*
X606422Y413160D01*
X606409Y413145D01*
X606370Y413049D01*
X606327Y412955D01*
X606325Y412935D01*
X606317Y412917D01*
X606299Y412750D01*
X606299Y367030D01*
X606314Y366940D01*
X606321Y366849D01*
X606333Y366819D01*
X606339Y366787D01*
X606381Y366707D01*
X606417Y366623D01*
X606443Y366591D01*
X606454Y366570D01*
X606477Y366548D01*
X606522Y366492D01*
X631699Y341315D01*
X631699Y285241D01*
X627602Y285241D01*
X627582Y285238D01*
X627563Y285240D01*
X627461Y285218D01*
X627359Y285202D01*
X627342Y285192D01*
X627322Y285188D01*
X627233Y285135D01*
X627142Y285086D01*
X627128Y285072D01*
X627111Y285062D01*
X627044Y284983D01*
X626972Y284908D01*
X626964Y284890D01*
X626951Y284875D01*
X626912Y284779D01*
X626869Y284685D01*
X626867Y284665D01*
X626859Y284647D01*
X626841Y284480D01*
X626841Y280585D01*
X619960Y273704D01*
X619907Y273630D01*
X619847Y273561D01*
X619835Y273531D01*
X619816Y273504D01*
X619789Y273417D01*
X619755Y273333D01*
X619751Y273292D01*
X619744Y273269D01*
X619745Y273237D01*
X619737Y273166D01*
X619737Y270955D01*
X616775Y267993D01*
X612585Y267993D01*
X609623Y270955D01*
X609623Y275145D01*
X612585Y278107D01*
X614796Y278107D01*
X614886Y278121D01*
X614977Y278129D01*
X615007Y278141D01*
X615039Y278146D01*
X615119Y278189D01*
X615203Y278225D01*
X615235Y278251D01*
X615256Y278262D01*
X615278Y278285D01*
X615334Y278330D01*
X620076Y283072D01*
X620129Y283146D01*
X620189Y283215D01*
X620201Y283245D01*
X620220Y283272D01*
X620247Y283359D01*
X620281Y283443D01*
X620285Y283484D01*
X620292Y283507D01*
X620291Y283539D01*
X620299Y283610D01*
X620299Y284480D01*
X620296Y284500D01*
X620298Y284519D01*
X620276Y284621D01*
X620260Y284723D01*
X620250Y284740D01*
X620246Y284760D01*
X620193Y284849D01*
X620144Y284940D01*
X620130Y284954D01*
X620120Y284971D01*
X620041Y285038D01*
X619966Y285110D01*
X619948Y285118D01*
X619933Y285131D01*
X619837Y285170D01*
X619743Y285213D01*
X619723Y285215D01*
X619705Y285223D01*
X619538Y285241D01*
X560831Y285241D01*
X560831Y412750D01*
X560828Y412770D01*
X560830Y412789D01*
X560808Y412891D01*
X560792Y412993D01*
X560782Y413010D01*
X560778Y413030D01*
X560725Y413119D01*
X560676Y413210D01*
X560662Y413224D01*
X560652Y413241D01*
X560573Y413308D01*
X560498Y413380D01*
X560480Y413388D01*
X560465Y413401D01*
X560369Y413440D01*
X560275Y413483D01*
X560255Y413485D01*
X560237Y413493D01*
X560070Y413511D01*
X464820Y413511D01*
X464800Y413508D01*
X464781Y413510D01*
X464679Y413488D01*
X464577Y413472D01*
X464560Y413462D01*
X464540Y413458D01*
X464451Y413405D01*
X464360Y413356D01*
X464346Y413342D01*
X464329Y413332D01*
X464262Y413253D01*
X464191Y413178D01*
X464182Y413160D01*
X464169Y413145D01*
X464130Y413049D01*
X464087Y412955D01*
X464085Y412935D01*
X464077Y412917D01*
X464059Y412750D01*
X464059Y367030D01*
X464074Y366940D01*
X464081Y366849D01*
X464093Y366819D01*
X464099Y366787D01*
X464141Y366707D01*
X464177Y366623D01*
X464203Y366591D01*
X464214Y366570D01*
X464237Y366548D01*
X464282Y366492D01*
X498349Y332425D01*
X498349Y283432D01*
X498352Y283412D01*
X498350Y283393D01*
X498372Y283291D01*
X498389Y283189D01*
X498398Y283172D01*
X498402Y283152D01*
X498455Y283063D01*
X498504Y282972D01*
X498518Y282958D01*
X498528Y282941D01*
X498607Y282874D01*
X498682Y282802D01*
X498700Y282794D01*
X498715Y282781D01*
X498811Y282742D01*
X498905Y282699D01*
X498925Y282697D01*
X498943Y282689D01*
X499110Y282671D01*
X517774Y282671D01*
X517864Y282685D01*
X517955Y282693D01*
X517985Y282705D01*
X518017Y282710D01*
X518098Y282753D01*
X518181Y282789D01*
X518214Y282815D01*
X518234Y282826D01*
X518256Y282849D01*
X518312Y282894D01*
X519875Y284457D01*
X524065Y284457D01*
X527027Y281495D01*
X527027Y277305D01*
X524065Y274343D01*
X519875Y274343D01*
X518312Y275906D01*
X518238Y275959D01*
X518169Y276019D01*
X518139Y276031D01*
X518113Y276050D01*
X518026Y276077D01*
X517941Y276111D01*
X517900Y276115D01*
X517878Y276122D01*
X517845Y276121D01*
X517774Y276129D01*
X491405Y276129D01*
X489266Y278268D01*
X482516Y285018D01*
X482442Y285071D01*
X482373Y285131D01*
X482343Y285143D01*
X482316Y285162D01*
X482229Y285189D01*
X482145Y285223D01*
X482104Y285227D01*
X482081Y285234D01*
X482049Y285233D01*
X481978Y285241D01*
X418591Y285241D01*
X418591Y412750D01*
X418588Y412770D01*
X418590Y412789D01*
X418568Y412891D01*
X418552Y412993D01*
X418542Y413010D01*
X418538Y413030D01*
X418485Y413119D01*
X418436Y413210D01*
X418422Y413224D01*
X418412Y413241D01*
X418333Y413308D01*
X418258Y413380D01*
X418240Y413388D01*
X418225Y413401D01*
X418129Y413440D01*
X418035Y413483D01*
X418015Y413485D01*
X417997Y413493D01*
X417830Y413511D01*
X323850Y413511D01*
X323830Y413508D01*
X323811Y413510D01*
X323709Y413488D01*
X323607Y413472D01*
X323590Y413462D01*
X323570Y413458D01*
X323481Y413405D01*
X323390Y413356D01*
X323376Y413342D01*
X323359Y413332D01*
X323292Y413253D01*
X323221Y413178D01*
X323212Y413160D01*
X323199Y413145D01*
X323160Y413049D01*
X323117Y412955D01*
X323115Y412935D01*
X323107Y412917D01*
X323089Y412750D01*
X323089Y367030D01*
X323104Y366940D01*
X323111Y366849D01*
X323123Y366819D01*
X323129Y366787D01*
X323171Y366707D01*
X323207Y366623D01*
X323233Y366591D01*
X323244Y366570D01*
X323267Y366548D01*
X323312Y366492D01*
X356109Y333695D01*
X356109Y285241D01*
X349472Y285241D01*
X349452Y285238D01*
X349433Y285240D01*
X349331Y285218D01*
X349229Y285202D01*
X349212Y285192D01*
X349192Y285188D01*
X349103Y285135D01*
X349012Y285086D01*
X348998Y285072D01*
X348981Y285062D01*
X348914Y284983D01*
X348842Y284908D01*
X348834Y284890D01*
X348821Y284875D01*
X348782Y284779D01*
X348739Y284685D01*
X348737Y284665D01*
X348729Y284647D01*
X348711Y284480D01*
X348711Y279786D01*
X348725Y279696D01*
X348733Y279605D01*
X348745Y279575D01*
X348750Y279543D01*
X348793Y279462D01*
X348829Y279379D01*
X348855Y279346D01*
X348866Y279326D01*
X348889Y279304D01*
X348934Y279248D01*
X350497Y277685D01*
X350497Y273495D01*
X347535Y270533D01*
X343345Y270533D01*
X340383Y273495D01*
X340383Y277685D01*
X341946Y279248D01*
X341999Y279322D01*
X342059Y279391D01*
X342071Y279421D01*
X342090Y279447D01*
X342117Y279534D01*
X342151Y279619D01*
X342155Y279660D01*
X342162Y279682D01*
X342161Y279715D01*
X342169Y279786D01*
X342169Y284480D01*
X342166Y284500D01*
X342168Y284519D01*
X342146Y284621D01*
X342130Y284723D01*
X342120Y284740D01*
X342116Y284760D01*
X342063Y284849D01*
X342014Y284940D01*
X342000Y284954D01*
X341990Y284971D01*
X341911Y285038D01*
X341836Y285110D01*
X341818Y285118D01*
X341803Y285131D01*
X341707Y285170D01*
X341613Y285213D01*
X341593Y285215D01*
X341575Y285223D01*
X341408Y285241D01*
X276351Y285241D01*
X276351Y412750D01*
X276348Y412770D01*
X276350Y412789D01*
X276328Y412891D01*
X276312Y412993D01*
X276302Y413010D01*
X276298Y413030D01*
X276245Y413119D01*
X276196Y413210D01*
X276182Y413224D01*
X276172Y413241D01*
X276093Y413308D01*
X276018Y413380D01*
X276000Y413388D01*
X275985Y413401D01*
X275889Y413440D01*
X275795Y413483D01*
X275775Y413485D01*
X275757Y413493D01*
X275590Y413511D01*
X182880Y413511D01*
X182860Y413508D01*
X182841Y413510D01*
X182739Y413488D01*
X182637Y413472D01*
X182620Y413462D01*
X182600Y413458D01*
X182511Y413405D01*
X182420Y413356D01*
X182406Y413342D01*
X182389Y413332D01*
X182322Y413253D01*
X182251Y413178D01*
X182242Y413160D01*
X182229Y413145D01*
X182190Y413049D01*
X182147Y412955D01*
X182145Y412935D01*
X182137Y412917D01*
X182119Y412750D01*
X182119Y369570D01*
X182134Y369480D01*
X182141Y369389D01*
X182153Y369359D01*
X182159Y369327D01*
X182201Y369247D01*
X182237Y369163D01*
X182263Y369131D01*
X182274Y369110D01*
X182297Y369088D01*
X182342Y369032D01*
X237999Y313375D01*
X237999Y285241D01*
X209772Y285241D01*
X209752Y285238D01*
X209733Y285240D01*
X209631Y285218D01*
X209529Y285202D01*
X209512Y285192D01*
X209492Y285188D01*
X209403Y285135D01*
X209312Y285086D01*
X209298Y285072D01*
X209281Y285062D01*
X209214Y284983D01*
X209142Y284908D01*
X209134Y284890D01*
X209121Y284875D01*
X209082Y284779D01*
X209039Y284685D01*
X209037Y284665D01*
X209029Y284647D01*
X209011Y284480D01*
X209011Y283610D01*
X209025Y283520D01*
X209033Y283429D01*
X209045Y283399D01*
X209050Y283367D01*
X209093Y283287D01*
X209129Y283203D01*
X209155Y283171D01*
X209166Y283150D01*
X209189Y283128D01*
X209234Y283072D01*
X212706Y279600D01*
X212780Y279547D01*
X212849Y279487D01*
X212879Y279475D01*
X212906Y279456D01*
X212993Y279429D01*
X213077Y279395D01*
X213118Y279391D01*
X213141Y279384D01*
X213173Y279385D01*
X213244Y279377D01*
X215455Y279377D01*
X218417Y276415D01*
X218417Y272225D01*
X215455Y269263D01*
X211265Y269263D01*
X208303Y272225D01*
X208303Y274436D01*
X208289Y274526D01*
X208281Y274617D01*
X208269Y274647D01*
X208264Y274679D01*
X208221Y274759D01*
X208185Y274843D01*
X208159Y274875D01*
X208148Y274896D01*
X208125Y274918D01*
X208080Y274974D01*
X202469Y280585D01*
X202469Y284480D01*
X202466Y284500D01*
X202468Y284519D01*
X202446Y284621D01*
X202430Y284723D01*
X202420Y284740D01*
X202416Y284760D01*
X202363Y284849D01*
X202314Y284940D01*
X202300Y284954D01*
X202290Y284971D01*
X202211Y285038D01*
X202136Y285110D01*
X202118Y285118D01*
X202103Y285131D01*
X202007Y285170D01*
X201913Y285213D01*
X201893Y285215D01*
X201875Y285223D01*
X201708Y285241D01*
X137921Y285241D01*
X137921Y414020D01*
X137918Y414040D01*
X137920Y414059D01*
X137898Y414161D01*
X137882Y414263D01*
X137872Y414280D01*
X137868Y414300D01*
X137815Y414389D01*
X137766Y414480D01*
X137752Y414494D01*
X137742Y414511D01*
X137663Y414578D01*
X137588Y414650D01*
X137570Y414658D01*
X137555Y414671D01*
X137459Y414710D01*
X137365Y414753D01*
X137345Y414755D01*
X137327Y414763D01*
X137160Y414781D01*
X43180Y414781D01*
X43160Y414778D01*
X43141Y414780D01*
X43039Y414758D01*
X42937Y414742D01*
X42920Y414732D01*
X42900Y414728D01*
X42811Y414675D01*
X42720Y414626D01*
X42706Y414612D01*
X42689Y414602D01*
X42622Y414523D01*
X42551Y414448D01*
X42542Y414430D01*
X42529Y414415D01*
X42490Y414319D01*
X42447Y414225D01*
X42445Y414205D01*
X42437Y414187D01*
X42419Y414020D01*
X42419Y365760D01*
X42434Y365670D01*
X42441Y365579D01*
X42453Y365549D01*
X42459Y365517D01*
X42501Y365437D01*
X42537Y365353D01*
X42563Y365321D01*
X42574Y365300D01*
X42597Y365278D01*
X42642Y365222D01*
X72899Y334965D01*
X72899Y292100D01*
X72914Y292010D01*
X72921Y291919D01*
X72933Y291889D01*
X72939Y291857D01*
X72981Y291777D01*
X73017Y291693D01*
X73043Y291661D01*
X73054Y291640D01*
X73077Y291618D01*
X73122Y291562D01*
X79927Y284756D01*
X79921Y284732D01*
X79899Y284685D01*
X79891Y284614D01*
X79874Y284544D01*
X79878Y284492D01*
X79872Y284441D01*
X79887Y284370D01*
X79893Y284299D01*
X79913Y284251D01*
X79924Y284200D01*
X79961Y284139D01*
X79989Y284073D01*
X80034Y284017D01*
X80050Y283989D01*
X80068Y283974D01*
X80094Y283942D01*
X86222Y277814D01*
X86296Y277761D01*
X86365Y277701D01*
X86395Y277689D01*
X86422Y277670D01*
X86509Y277643D01*
X86593Y277609D01*
X86634Y277605D01*
X86657Y277598D01*
X86689Y277599D01*
X86760Y277591D01*
X163444Y277591D01*
X163534Y277605D01*
X163625Y277613D01*
X163655Y277625D01*
X163687Y277630D01*
X163768Y277673D01*
X163851Y277709D01*
X163884Y277735D01*
X163904Y277746D01*
X163926Y277769D01*
X163982Y277814D01*
X165545Y279377D01*
X169735Y279377D01*
X172697Y276415D01*
X172697Y272225D01*
X169735Y269263D01*
X165545Y269263D01*
X163982Y270826D01*
X163908Y270879D01*
X163839Y270939D01*
X163809Y270951D01*
X163783Y270970D01*
X163696Y270997D01*
X163611Y271031D01*
X163570Y271035D01*
X163548Y271042D01*
X163515Y271041D01*
X163444Y271049D01*
X83735Y271049D01*
X81596Y273188D01*
X69766Y285018D01*
X69692Y285071D01*
X69623Y285131D01*
X69593Y285143D01*
X69566Y285162D01*
X69479Y285189D01*
X69395Y285223D01*
X69354Y285227D01*
X69331Y285234D01*
X69299Y285233D01*
X69228Y285241D01*
X3524Y285241D01*
X3504Y285238D01*
X3485Y285240D01*
X3383Y285218D01*
X3281Y285202D01*
X3264Y285192D01*
X3244Y285188D01*
X3155Y285135D01*
X3064Y285086D01*
X3050Y285072D01*
X3033Y285062D01*
X2966Y284983D01*
X2894Y284908D01*
X2886Y284890D01*
X2873Y284875D01*
X2834Y284779D01*
X2791Y284685D01*
X2789Y284665D01*
X2781Y284647D01*
X2763Y284480D01*
X2763Y52242D01*
X2764Y52232D01*
X2763Y52222D01*
X2765Y52213D01*
X2764Y52204D01*
X2784Y52110D01*
X2802Y51999D01*
X2807Y51990D01*
X2809Y51981D01*
X2815Y51970D01*
X2816Y51964D01*
X2853Y51903D01*
X2865Y51882D01*
X2918Y51782D01*
X2925Y51775D01*
X2929Y51766D01*
X2940Y51757D01*
X2942Y51753D01*
X2980Y51721D01*
X3014Y51690D01*
X3096Y51612D01*
X3105Y51608D01*
X3112Y51602D01*
X3127Y51595D01*
X3129Y51593D01*
X3162Y51580D01*
X3216Y51556D01*
X3319Y51509D01*
X3329Y51508D01*
X3338Y51504D01*
X3355Y51502D01*
X3357Y51501D01*
X3524Y51483D01*
X3525Y51483D01*
X3536Y51485D01*
X3563Y51481D01*
X3573Y51484D01*
X3583Y51483D01*
X3693Y51510D01*
X3704Y51512D01*
X3767Y51522D01*
X3778Y51528D01*
X3804Y51534D01*
X3812Y51539D01*
X3822Y51541D01*
X3918Y51602D01*
X3920Y51603D01*
X3985Y51638D01*
X3995Y51648D01*
X4015Y51660D01*
X4021Y51667D01*
X4030Y51673D01*
X4097Y51756D01*
X4154Y51816D01*
X4161Y51831D01*
X4175Y51847D01*
X4178Y51856D01*
X4185Y51863D01*
X4251Y52017D01*
X6572Y59540D01*
X7015Y60189D01*
X7015Y60190D01*
X7534Y60951D01*
X8053Y61712D01*
X8572Y62473D01*
X8572Y62474D01*
X9091Y63235D01*
X9610Y63996D01*
X10129Y64757D01*
X10648Y65518D01*
X10648Y65519D01*
X11167Y66279D01*
X11167Y66280D01*
X11686Y67041D01*
X12205Y67802D01*
X12724Y68563D01*
X12724Y68564D01*
X13243Y69325D01*
X13395Y69547D01*
X22864Y77098D01*
X34138Y81523D01*
X46216Y82429D01*
X48308Y81951D01*
X51643Y81190D01*
X54978Y80429D01*
X58025Y79733D01*
X68514Y73677D01*
X76752Y64799D01*
X82007Y53887D01*
X83812Y41910D01*
X82007Y29933D01*
X76752Y19021D01*
X68514Y10143D01*
X58192Y4183D01*
X58155Y4153D01*
X58112Y4130D01*
X58060Y4075D01*
X58002Y4027D01*
X57976Y3987D01*
X57943Y3952D01*
X57911Y3883D01*
X57871Y3819D01*
X57860Y3772D01*
X57839Y3729D01*
X57831Y3654D01*
X57813Y3580D01*
X57818Y3532D01*
X57812Y3485D01*
X57828Y3410D01*
X57835Y3335D01*
X57854Y3291D01*
X57865Y3244D01*
X57903Y3179D01*
X57934Y3110D01*
X57966Y3074D01*
X57991Y3033D01*
X58048Y2984D01*
X58099Y2928D01*
X58141Y2904D01*
X58178Y2873D01*
X58248Y2845D01*
X58314Y2808D01*
X58361Y2799D01*
X58406Y2781D01*
X58534Y2767D01*
X58556Y2763D01*
X58563Y2764D01*
X58573Y2763D01*
X664210Y2763D01*
X664230Y2766D01*
X664249Y2764D01*
X664351Y2786D01*
X664453Y2802D01*
X664470Y2812D01*
X664490Y2816D01*
X664579Y2869D01*
X664670Y2918D01*
X664684Y2932D01*
X664701Y2942D01*
X664768Y3021D01*
X664840Y3096D01*
X664848Y3114D01*
X664861Y3129D01*
X664900Y3225D01*
X664943Y3319D01*
X664945Y3339D01*
X664953Y3357D01*
X664971Y3524D01*
X664971Y11571D01*
X664970Y11581D01*
X664971Y11592D01*
X664950Y11703D01*
X664932Y11813D01*
X664927Y11823D01*
X664925Y11833D01*
X664869Y11932D01*
X664816Y12031D01*
X664809Y12038D01*
X664803Y12047D01*
X664685Y12166D01*
X663635Y13003D01*
X656812Y23010D01*
X653242Y34584D01*
X653242Y46696D01*
X656812Y58270D01*
X657602Y59428D01*
X658640Y60951D01*
X659678Y62473D01*
X659678Y62474D01*
X660197Y63235D01*
X661235Y64757D01*
X662273Y66280D01*
X663635Y68277D01*
X664685Y69114D01*
X664692Y69122D01*
X664701Y69128D01*
X664774Y69213D01*
X664850Y69297D01*
X664854Y69306D01*
X664861Y69315D01*
X664903Y69420D01*
X664948Y69522D01*
X664949Y69533D01*
X664953Y69543D01*
X664971Y69709D01*
X664971Y304485D01*
X715548Y355062D01*
G37*
G36*
X47040Y306971D02*
X47040Y306971D01*
X47091Y306973D01*
X47123Y306991D01*
X47159Y306999D01*
X47198Y307032D01*
X47243Y307056D01*
X47264Y307086D01*
X47292Y307109D01*
X47313Y307156D01*
X47343Y307198D01*
X47351Y307240D01*
X47363Y307268D01*
X47362Y307298D01*
X47370Y307340D01*
X47370Y335280D01*
X47353Y335354D01*
X47340Y335429D01*
X47333Y335439D01*
X47331Y335449D01*
X47307Y335478D01*
X47259Y335549D01*
X21970Y360838D01*
X21970Y422753D01*
X56038Y456820D01*
X109220Y456820D01*
X109294Y456837D01*
X109369Y456850D01*
X109379Y456857D01*
X109389Y456859D01*
X109418Y456883D01*
X109489Y456931D01*
X170338Y517780D01*
X243840Y517780D01*
X243914Y517797D01*
X243989Y517810D01*
X243999Y517817D01*
X244009Y517819D01*
X244038Y517843D01*
X244109Y517891D01*
X258079Y531861D01*
X258119Y531926D01*
X258163Y531988D01*
X258165Y532000D01*
X258170Y532008D01*
X258174Y532045D01*
X258190Y532130D01*
X258190Y579120D01*
X258179Y579170D01*
X258177Y579221D01*
X258159Y579253D01*
X258151Y579289D01*
X258118Y579328D01*
X258094Y579373D01*
X258064Y579394D01*
X258041Y579422D01*
X257994Y579443D01*
X257952Y579473D01*
X257910Y579481D01*
X257882Y579493D01*
X257852Y579492D01*
X257810Y579500D01*
X242570Y579500D01*
X242520Y579489D01*
X242469Y579487D01*
X242437Y579469D01*
X242401Y579461D01*
X242362Y579428D01*
X242317Y579404D01*
X242296Y579374D01*
X242268Y579351D01*
X242247Y579304D01*
X242217Y579262D01*
X242209Y579220D01*
X242197Y579192D01*
X242198Y579162D01*
X242190Y579120D01*
X242190Y542448D01*
X237333Y537590D01*
X157480Y537590D01*
X157406Y537573D01*
X157331Y537560D01*
X157321Y537553D01*
X157311Y537551D01*
X157282Y537527D01*
X157211Y537479D01*
X98903Y479170D01*
X48260Y479170D01*
X48186Y479153D01*
X48111Y479140D01*
X48101Y479133D01*
X48091Y479131D01*
X48062Y479107D01*
X47991Y479059D01*
X6081Y437149D01*
X6041Y437084D01*
X5997Y437022D01*
X5995Y437010D01*
X5990Y437002D01*
X5986Y436965D01*
X5970Y436880D01*
X5970Y307340D01*
X5981Y307290D01*
X5983Y307239D01*
X6001Y307207D01*
X6009Y307171D01*
X6042Y307132D01*
X6066Y307087D01*
X6096Y307066D01*
X6119Y307038D01*
X6166Y307017D01*
X6208Y306987D01*
X6250Y306979D01*
X6278Y306967D01*
X6308Y306968D01*
X6350Y306960D01*
X46990Y306960D01*
X47040Y306971D01*
G37*
G36*
X189280Y304431D02*
X189280Y304431D01*
X189331Y304433D01*
X189363Y304451D01*
X189399Y304459D01*
X189438Y304492D01*
X189483Y304516D01*
X189504Y304546D01*
X189532Y304569D01*
X189553Y304616D01*
X189583Y304658D01*
X189591Y304700D01*
X189603Y304728D01*
X189602Y304758D01*
X189610Y304800D01*
X189610Y335280D01*
X189593Y335354D01*
X189580Y335429D01*
X189573Y335439D01*
X189571Y335449D01*
X189547Y335478D01*
X189499Y335549D01*
X165480Y359568D01*
X165480Y424023D01*
X221138Y479680D01*
X260350Y479680D01*
X260424Y479697D01*
X260499Y479710D01*
X260509Y479717D01*
X260519Y479719D01*
X260548Y479743D01*
X260619Y479791D01*
X317769Y536941D01*
X317809Y537006D01*
X317853Y537068D01*
X317855Y537080D01*
X317860Y537088D01*
X317864Y537125D01*
X317880Y537210D01*
X317880Y579120D01*
X317869Y579170D01*
X317867Y579221D01*
X317849Y579253D01*
X317841Y579289D01*
X317808Y579328D01*
X317784Y579373D01*
X317754Y579394D01*
X317731Y579422D01*
X317684Y579443D01*
X317642Y579473D01*
X317600Y579481D01*
X317572Y579493D01*
X317542Y579492D01*
X317500Y579500D01*
X302260Y579500D01*
X302210Y579489D01*
X302159Y579487D01*
X302127Y579469D01*
X302091Y579461D01*
X302052Y579428D01*
X302007Y579404D01*
X301986Y579374D01*
X301958Y579351D01*
X301937Y579304D01*
X301907Y579262D01*
X301899Y579220D01*
X301887Y579192D01*
X301888Y579162D01*
X301880Y579120D01*
X301880Y548798D01*
X252573Y499490D01*
X209550Y499490D01*
X209476Y499473D01*
X209401Y499460D01*
X209391Y499453D01*
X209381Y499451D01*
X209352Y499427D01*
X209281Y499379D01*
X148321Y438419D01*
X148281Y438354D01*
X148237Y438292D01*
X148235Y438280D01*
X148230Y438272D01*
X148226Y438235D01*
X148210Y438150D01*
X148210Y304800D01*
X148221Y304750D01*
X148223Y304699D01*
X148241Y304667D01*
X148249Y304631D01*
X148282Y304592D01*
X148306Y304547D01*
X148336Y304526D01*
X148359Y304498D01*
X148406Y304477D01*
X148448Y304447D01*
X148490Y304439D01*
X148518Y304427D01*
X148548Y304428D01*
X148590Y304420D01*
X189230Y304420D01*
X189280Y304431D01*
G37*
G36*
X610920Y304431D02*
X610920Y304431D01*
X610971Y304433D01*
X611003Y304451D01*
X611039Y304459D01*
X611078Y304492D01*
X611123Y304516D01*
X611144Y304546D01*
X611172Y304569D01*
X611193Y304616D01*
X611223Y304658D01*
X611231Y304700D01*
X611243Y304728D01*
X611242Y304758D01*
X611250Y304800D01*
X611250Y334010D01*
X611233Y334084D01*
X611220Y334159D01*
X611213Y334169D01*
X611211Y334179D01*
X611187Y334208D01*
X611139Y334279D01*
X585850Y359568D01*
X585850Y474980D01*
X585833Y475054D01*
X585820Y475129D01*
X585813Y475139D01*
X585811Y475149D01*
X585787Y475178D01*
X585739Y475249D01*
X496950Y564038D01*
X496950Y579120D01*
X496939Y579170D01*
X496937Y579221D01*
X496919Y579253D01*
X496911Y579289D01*
X496878Y579328D01*
X496854Y579373D01*
X496824Y579394D01*
X496801Y579422D01*
X496754Y579443D01*
X496712Y579473D01*
X496670Y579481D01*
X496642Y579493D01*
X496612Y579492D01*
X496570Y579500D01*
X481330Y579500D01*
X481280Y579489D01*
X481229Y579487D01*
X481197Y579469D01*
X481161Y579461D01*
X481122Y579428D01*
X481077Y579404D01*
X481056Y579374D01*
X481028Y579351D01*
X481007Y579304D01*
X480977Y579262D01*
X480969Y579220D01*
X480957Y579192D01*
X480958Y579162D01*
X480950Y579120D01*
X480950Y543560D01*
X480963Y543503D01*
X480963Y543496D01*
X480966Y543492D01*
X480967Y543486D01*
X480980Y543411D01*
X480987Y543401D01*
X480989Y543391D01*
X481013Y543362D01*
X481061Y543291D01*
X568580Y455773D01*
X568580Y304800D01*
X568591Y304750D01*
X568593Y304699D01*
X568611Y304667D01*
X568619Y304631D01*
X568652Y304592D01*
X568676Y304547D01*
X568706Y304526D01*
X568729Y304498D01*
X568776Y304477D01*
X568818Y304447D01*
X568860Y304439D01*
X568888Y304427D01*
X568918Y304428D01*
X568960Y304420D01*
X610870Y304420D01*
X610920Y304431D01*
G37*
%LPC*%
G36*
X547737Y32257D02*
X547737Y32257D01*
X543723Y33920D01*
X540650Y36993D01*
X538987Y41007D01*
X538987Y45353D01*
X540650Y49367D01*
X543723Y52440D01*
X546439Y53565D01*
X546539Y53627D01*
X546639Y53687D01*
X546643Y53691D01*
X546648Y53695D01*
X546723Y53784D01*
X546799Y53874D01*
X546801Y53879D01*
X546805Y53884D01*
X546847Y53992D01*
X546891Y54102D01*
X546892Y54109D01*
X546893Y54114D01*
X546894Y54132D01*
X546909Y54268D01*
X546909Y78548D01*
X546898Y78619D01*
X546896Y78690D01*
X546878Y78739D01*
X546870Y78791D01*
X546836Y78854D01*
X546811Y78921D01*
X546779Y78962D01*
X546754Y79008D01*
X546702Y79057D01*
X546658Y79113D01*
X546614Y79141D01*
X546576Y79177D01*
X546511Y79207D01*
X546451Y79246D01*
X546400Y79259D01*
X546353Y79281D01*
X546282Y79289D01*
X546212Y79306D01*
X546160Y79302D01*
X546109Y79308D01*
X546038Y79293D01*
X545967Y79287D01*
X545919Y79267D01*
X545868Y79256D01*
X545807Y79219D01*
X545741Y79191D01*
X545685Y79146D01*
X545657Y79130D01*
X545642Y79112D01*
X545610Y79086D01*
X527250Y60726D01*
X527197Y60652D01*
X527137Y60583D01*
X527125Y60552D01*
X527106Y60526D01*
X527079Y60439D01*
X527045Y60354D01*
X527041Y60314D01*
X527034Y60291D01*
X527035Y60259D01*
X527027Y60188D01*
X527027Y57595D01*
X524065Y54633D01*
X519875Y54633D01*
X516913Y57595D01*
X516913Y61785D01*
X518138Y63010D01*
X518180Y63068D01*
X518230Y63120D01*
X518252Y63167D01*
X518282Y63209D01*
X518303Y63278D01*
X518333Y63343D01*
X518339Y63395D01*
X518354Y63445D01*
X518352Y63516D01*
X518360Y63587D01*
X518349Y63638D01*
X518348Y63690D01*
X518323Y63758D01*
X518308Y63828D01*
X518281Y63873D01*
X518264Y63921D01*
X518219Y63977D01*
X518182Y64039D01*
X518142Y64073D01*
X518110Y64113D01*
X518050Y64152D01*
X517995Y64199D01*
X517947Y64218D01*
X517903Y64246D01*
X517833Y64264D01*
X517767Y64291D01*
X517696Y64299D01*
X517664Y64307D01*
X517641Y64305D01*
X517600Y64309D01*
X448598Y64309D01*
X448508Y64295D01*
X448417Y64287D01*
X448387Y64275D01*
X448356Y64270D01*
X448275Y64227D01*
X448191Y64191D01*
X448159Y64165D01*
X448138Y64154D01*
X448116Y64131D01*
X448060Y64086D01*
X445970Y61996D01*
X445917Y61922D01*
X445857Y61853D01*
X445845Y61822D01*
X445826Y61796D01*
X445799Y61709D01*
X445765Y61624D01*
X445761Y61584D01*
X445754Y61561D01*
X445755Y61529D01*
X445747Y61458D01*
X445747Y58865D01*
X442785Y55903D01*
X438595Y55903D01*
X435633Y58865D01*
X435633Y63055D01*
X438595Y66017D01*
X441188Y66017D01*
X441278Y66031D01*
X441369Y66039D01*
X441399Y66051D01*
X441430Y66056D01*
X441511Y66099D01*
X441595Y66135D01*
X441627Y66161D01*
X441648Y66172D01*
X441670Y66195D01*
X441726Y66240D01*
X445797Y70311D01*
X522375Y70311D01*
X522465Y70325D01*
X522556Y70333D01*
X522586Y70345D01*
X522618Y70350D01*
X522698Y70393D01*
X522782Y70429D01*
X522814Y70455D01*
X522835Y70466D01*
X522857Y70489D01*
X522913Y70534D01*
X538686Y86307D01*
X538739Y86381D01*
X538799Y86450D01*
X538811Y86480D01*
X538830Y86507D01*
X538857Y86594D01*
X538891Y86678D01*
X538895Y86719D01*
X538902Y86742D01*
X538901Y86774D01*
X538909Y86845D01*
X538909Y208372D01*
X538895Y208462D01*
X538887Y208553D01*
X538875Y208583D01*
X538870Y208614D01*
X538827Y208695D01*
X538791Y208779D01*
X538765Y208811D01*
X538754Y208832D01*
X538731Y208854D01*
X538686Y208910D01*
X526816Y220780D01*
X526742Y220833D01*
X526673Y220893D01*
X526642Y220905D01*
X526616Y220924D01*
X526529Y220951D01*
X526444Y220985D01*
X526404Y220989D01*
X526381Y220996D01*
X526349Y220995D01*
X526278Y221003D01*
X523685Y221003D01*
X520723Y223965D01*
X520723Y228155D01*
X523685Y231117D01*
X527875Y231117D01*
X530837Y228155D01*
X530837Y225562D01*
X530851Y225472D01*
X530859Y225381D01*
X530871Y225351D01*
X530876Y225320D01*
X530919Y225239D01*
X530955Y225155D01*
X530981Y225123D01*
X530992Y225102D01*
X531015Y225080D01*
X531060Y225024D01*
X541610Y214474D01*
X541668Y214432D01*
X541720Y214383D01*
X541767Y214361D01*
X541809Y214330D01*
X541878Y214309D01*
X541943Y214279D01*
X541995Y214273D01*
X542045Y214258D01*
X542116Y214260D01*
X542187Y214252D01*
X542238Y214263D01*
X542290Y214264D01*
X542358Y214289D01*
X542428Y214304D01*
X542473Y214331D01*
X542521Y214349D01*
X542577Y214394D01*
X542639Y214430D01*
X542673Y214470D01*
X542713Y214503D01*
X542752Y214563D01*
X542799Y214617D01*
X542818Y214666D01*
X542846Y214709D01*
X542864Y214779D01*
X542891Y214845D01*
X542899Y214917D01*
X542907Y214948D01*
X542905Y214971D01*
X542909Y215012D01*
X542909Y218342D01*
X542895Y218432D01*
X542887Y218523D01*
X542875Y218553D01*
X542870Y218584D01*
X542827Y218665D01*
X542791Y218749D01*
X542765Y218781D01*
X542754Y218802D01*
X542731Y218824D01*
X542686Y218880D01*
X540786Y220780D01*
X540712Y220833D01*
X540643Y220893D01*
X540612Y220905D01*
X540586Y220924D01*
X540499Y220951D01*
X540414Y220985D01*
X540374Y220989D01*
X540351Y220996D01*
X540319Y220995D01*
X540248Y221003D01*
X537655Y221003D01*
X534693Y223965D01*
X534693Y228155D01*
X537655Y231117D01*
X541845Y231117D01*
X544807Y228155D01*
X544807Y225562D01*
X544821Y225472D01*
X544829Y225381D01*
X544841Y225351D01*
X544846Y225320D01*
X544889Y225239D01*
X544925Y225155D01*
X544951Y225123D01*
X544962Y225102D01*
X544985Y225080D01*
X545030Y225024D01*
X545610Y224444D01*
X545668Y224402D01*
X545720Y224353D01*
X545767Y224331D01*
X545809Y224300D01*
X545878Y224279D01*
X545943Y224249D01*
X545995Y224243D01*
X546045Y224228D01*
X546116Y224230D01*
X546187Y224222D01*
X546238Y224233D01*
X546290Y224234D01*
X546358Y224259D01*
X546428Y224274D01*
X546473Y224301D01*
X546521Y224319D01*
X546577Y224364D01*
X546639Y224400D01*
X546673Y224440D01*
X546713Y224473D01*
X546752Y224533D01*
X546799Y224587D01*
X546818Y224636D01*
X546846Y224679D01*
X546853Y224707D01*
X553747Y231601D01*
X561954Y231601D01*
X562044Y231615D01*
X562135Y231623D01*
X562165Y231635D01*
X562197Y231640D01*
X562278Y231683D01*
X562361Y231719D01*
X562394Y231745D01*
X562414Y231756D01*
X562436Y231779D01*
X562492Y231824D01*
X564325Y233657D01*
X568515Y233657D01*
X571477Y230695D01*
X571477Y226505D01*
X568515Y223543D01*
X564325Y223543D01*
X562492Y225376D01*
X562418Y225429D01*
X562349Y225489D01*
X562319Y225501D01*
X562293Y225520D01*
X562206Y225547D01*
X562121Y225581D01*
X562080Y225585D01*
X562058Y225592D01*
X562025Y225591D01*
X561954Y225599D01*
X556548Y225599D01*
X556458Y225585D01*
X556367Y225577D01*
X556337Y225565D01*
X556306Y225560D01*
X556225Y225517D01*
X556141Y225481D01*
X556109Y225455D01*
X556088Y225444D01*
X556066Y225421D01*
X556010Y225376D01*
X553134Y222500D01*
X553085Y222433D01*
X553083Y222431D01*
X553083Y222429D01*
X553081Y222426D01*
X553021Y222357D01*
X553009Y222326D01*
X552990Y222300D01*
X552963Y222213D01*
X552929Y222128D01*
X552925Y222088D01*
X552918Y222065D01*
X552919Y222033D01*
X552911Y221962D01*
X552911Y221540D01*
X552922Y221469D01*
X552924Y221397D01*
X552942Y221348D01*
X552950Y221297D01*
X552984Y221234D01*
X553009Y221166D01*
X553041Y221126D01*
X553066Y221080D01*
X553118Y221030D01*
X553162Y220974D01*
X553206Y220946D01*
X553244Y220910D01*
X553309Y220880D01*
X553369Y220841D01*
X553420Y220829D01*
X553467Y220807D01*
X553538Y220799D01*
X553608Y220781D01*
X553660Y220785D01*
X553711Y220780D01*
X553782Y220795D01*
X553853Y220800D01*
X553901Y220821D01*
X553952Y220832D01*
X554013Y220869D01*
X554079Y220897D01*
X554135Y220942D01*
X554163Y220958D01*
X554178Y220976D01*
X554210Y221002D01*
X556705Y223497D01*
X560895Y223497D01*
X563857Y220535D01*
X563857Y216345D01*
X560878Y213366D01*
X560836Y213308D01*
X560786Y213256D01*
X560764Y213209D01*
X560734Y213167D01*
X560713Y213098D01*
X560683Y213033D01*
X560677Y212981D01*
X560662Y212931D01*
X560664Y212860D01*
X560656Y212789D01*
X560667Y212738D01*
X560668Y212686D01*
X560693Y212618D01*
X560708Y212548D01*
X560735Y212503D01*
X560752Y212455D01*
X560797Y212399D01*
X560834Y212337D01*
X560874Y212303D01*
X560906Y212263D01*
X560966Y212224D01*
X561021Y212177D01*
X561069Y212158D01*
X561113Y212130D01*
X561183Y212112D01*
X561249Y212085D01*
X561320Y212077D01*
X561352Y212069D01*
X561375Y212071D01*
X561416Y212067D01*
X563435Y212067D01*
X566397Y209105D01*
X566397Y204915D01*
X563435Y201953D01*
X561672Y201953D01*
X561652Y201950D01*
X561633Y201952D01*
X561531Y201930D01*
X561429Y201914D01*
X561412Y201904D01*
X561392Y201900D01*
X561303Y201847D01*
X561212Y201798D01*
X561198Y201784D01*
X561181Y201774D01*
X561114Y201695D01*
X561042Y201620D01*
X561034Y201602D01*
X561021Y201587D01*
X560982Y201491D01*
X560939Y201397D01*
X560937Y201377D01*
X560929Y201359D01*
X560911Y201192D01*
X560911Y199060D01*
X560922Y198989D01*
X560924Y198917D01*
X560942Y198868D01*
X560950Y198817D01*
X560984Y198754D01*
X561009Y198686D01*
X561041Y198646D01*
X561066Y198600D01*
X561118Y198550D01*
X561162Y198494D01*
X561206Y198466D01*
X561244Y198430D01*
X561309Y198400D01*
X561369Y198361D01*
X561420Y198349D01*
X561467Y198327D01*
X561538Y198319D01*
X561608Y198301D01*
X561660Y198305D01*
X561711Y198300D01*
X561782Y198315D01*
X561853Y198320D01*
X561901Y198341D01*
X561952Y198352D01*
X562013Y198389D01*
X562079Y198417D01*
X562135Y198462D01*
X562163Y198478D01*
X562178Y198496D01*
X562210Y198522D01*
X563055Y199367D01*
X567245Y199367D01*
X570207Y196405D01*
X570207Y192215D01*
X567245Y189253D01*
X565672Y189253D01*
X565652Y189250D01*
X565633Y189252D01*
X565531Y189230D01*
X565429Y189214D01*
X565412Y189204D01*
X565392Y189200D01*
X565303Y189147D01*
X565212Y189098D01*
X565198Y189084D01*
X565181Y189074D01*
X565114Y188995D01*
X565042Y188920D01*
X565034Y188902D01*
X565021Y188887D01*
X564982Y188791D01*
X564939Y188697D01*
X564937Y188677D01*
X564929Y188659D01*
X564911Y188492D01*
X564911Y69452D01*
X564925Y69362D01*
X564933Y69271D01*
X564945Y69241D01*
X564950Y69209D01*
X564993Y69129D01*
X565029Y69045D01*
X565055Y69013D01*
X565066Y68992D01*
X565089Y68970D01*
X565134Y68914D01*
X569674Y64374D01*
X569748Y64321D01*
X569817Y64261D01*
X569847Y64249D01*
X569873Y64230D01*
X569960Y64203D01*
X570045Y64169D01*
X570086Y64165D01*
X570109Y64158D01*
X570141Y64159D01*
X570212Y64151D01*
X609383Y64151D01*
X620391Y53143D01*
X620485Y53075D01*
X620580Y53005D01*
X620586Y53003D01*
X620591Y52999D01*
X620702Y52965D01*
X620814Y52928D01*
X620820Y52928D01*
X620826Y52927D01*
X620943Y52930D01*
X621060Y52931D01*
X621067Y52933D01*
X621072Y52933D01*
X621089Y52939D01*
X621221Y52977D01*
X623937Y54103D01*
X628283Y54103D01*
X632297Y52440D01*
X635370Y49367D01*
X637033Y45353D01*
X637033Y41007D01*
X635370Y36993D01*
X632297Y33920D01*
X628283Y32257D01*
X623937Y32257D01*
X619923Y33920D01*
X616850Y36993D01*
X615187Y41007D01*
X615187Y45353D01*
X616313Y48069D01*
X616339Y48183D01*
X616368Y48296D01*
X616367Y48303D01*
X616369Y48309D01*
X616358Y48425D01*
X616349Y48542D01*
X616346Y48547D01*
X616346Y48554D01*
X616298Y48661D01*
X616252Y48768D01*
X616248Y48774D01*
X616246Y48778D01*
X616233Y48792D01*
X616147Y48899D01*
X607120Y57926D01*
X607046Y57979D01*
X606977Y58039D01*
X606946Y58051D01*
X606920Y58070D01*
X606833Y58097D01*
X606748Y58131D01*
X606708Y58135D01*
X606685Y58142D01*
X606653Y58141D01*
X606582Y58149D01*
X591822Y58149D01*
X591751Y58138D01*
X591680Y58136D01*
X591631Y58118D01*
X591579Y58110D01*
X591516Y58076D01*
X591449Y58051D01*
X591408Y58019D01*
X591362Y57994D01*
X591313Y57942D01*
X591257Y57898D01*
X591229Y57854D01*
X591193Y57816D01*
X591163Y57751D01*
X591124Y57691D01*
X591111Y57640D01*
X591089Y57593D01*
X591081Y57522D01*
X591064Y57452D01*
X591068Y57400D01*
X591062Y57349D01*
X591077Y57278D01*
X591083Y57207D01*
X591103Y57159D01*
X591114Y57108D01*
X591151Y57047D01*
X591179Y56981D01*
X591224Y56925D01*
X591240Y56897D01*
X591258Y56882D01*
X591284Y56850D01*
X594991Y53143D01*
X595086Y53075D01*
X595180Y53005D01*
X595186Y53003D01*
X595191Y52999D01*
X595303Y52965D01*
X595414Y52928D01*
X595420Y52928D01*
X595426Y52927D01*
X595543Y52930D01*
X595660Y52931D01*
X595667Y52933D01*
X595672Y52933D01*
X595689Y52939D01*
X595821Y52977D01*
X598537Y54103D01*
X602883Y54103D01*
X606897Y52440D01*
X609970Y49367D01*
X611633Y45353D01*
X611633Y41007D01*
X609970Y36993D01*
X606897Y33920D01*
X602883Y32257D01*
X598537Y32257D01*
X594523Y33920D01*
X591450Y36993D01*
X589787Y41007D01*
X589787Y45353D01*
X590913Y48069D01*
X590939Y48183D01*
X590968Y48296D01*
X590967Y48303D01*
X590969Y48309D01*
X590958Y48425D01*
X590949Y48542D01*
X590946Y48547D01*
X590946Y48554D01*
X590898Y48661D01*
X590852Y48768D01*
X590848Y48774D01*
X590846Y48778D01*
X590833Y48792D01*
X590747Y48899D01*
X585720Y53926D01*
X585646Y53979D01*
X585577Y54039D01*
X585546Y54051D01*
X585520Y54070D01*
X585433Y54097D01*
X585348Y54131D01*
X585308Y54135D01*
X585285Y54142D01*
X585253Y54141D01*
X585182Y54149D01*
X581197Y54149D01*
X581101Y54134D01*
X581004Y54124D01*
X580980Y54114D01*
X580955Y54110D01*
X580869Y54064D01*
X580780Y54024D01*
X580760Y54007D01*
X580737Y53994D01*
X580670Y53924D01*
X580598Y53858D01*
X580586Y53835D01*
X580568Y53816D01*
X580527Y53728D01*
X580480Y53642D01*
X580475Y53617D01*
X580464Y53593D01*
X580453Y53496D01*
X580436Y53400D01*
X580440Y53374D01*
X580437Y53349D01*
X580458Y53254D01*
X580472Y53157D01*
X580484Y53134D01*
X580489Y53108D01*
X580539Y53025D01*
X580583Y52938D01*
X580602Y52919D01*
X580616Y52897D01*
X580690Y52834D01*
X580759Y52766D01*
X580788Y52750D01*
X580802Y52737D01*
X580833Y52725D01*
X580906Y52685D01*
X581497Y52440D01*
X584570Y49367D01*
X586233Y45353D01*
X586233Y41007D01*
X584570Y36993D01*
X581497Y33920D01*
X577483Y32257D01*
X573137Y32257D01*
X569123Y33920D01*
X566050Y36993D01*
X564387Y41007D01*
X564387Y45353D01*
X565513Y48069D01*
X565539Y48183D01*
X565568Y48296D01*
X565567Y48303D01*
X565569Y48309D01*
X565558Y48425D01*
X565549Y48542D01*
X565546Y48547D01*
X565546Y48554D01*
X565498Y48661D01*
X565452Y48768D01*
X565448Y48774D01*
X565446Y48778D01*
X565433Y48792D01*
X565347Y48899D01*
X554210Y60036D01*
X554152Y60078D01*
X554100Y60127D01*
X554053Y60149D01*
X554011Y60180D01*
X553942Y60201D01*
X553877Y60231D01*
X553825Y60237D01*
X553775Y60252D01*
X553704Y60250D01*
X553633Y60258D01*
X553582Y60247D01*
X553530Y60246D01*
X553462Y60221D01*
X553392Y60206D01*
X553347Y60179D01*
X553299Y60161D01*
X553243Y60116D01*
X553181Y60080D01*
X553147Y60040D01*
X553107Y60007D01*
X553068Y59947D01*
X553021Y59893D01*
X553002Y59844D01*
X552974Y59801D01*
X552956Y59731D01*
X552929Y59665D01*
X552921Y59593D01*
X552913Y59562D01*
X552915Y59539D01*
X552911Y59498D01*
X552911Y54268D01*
X552930Y54154D01*
X552947Y54037D01*
X552949Y54032D01*
X552950Y54026D01*
X553005Y53923D01*
X553058Y53818D01*
X553063Y53814D01*
X553066Y53808D01*
X553150Y53728D01*
X553234Y53646D01*
X553240Y53642D01*
X553244Y53639D01*
X553261Y53631D01*
X553381Y53565D01*
X556097Y52440D01*
X559170Y49367D01*
X560833Y45353D01*
X560833Y41007D01*
X559170Y36993D01*
X556097Y33920D01*
X552083Y32257D01*
X547737Y32257D01*
G37*
%LPD*%
G36*
X327710Y304431D02*
X327710Y304431D01*
X327761Y304433D01*
X327793Y304451D01*
X327829Y304459D01*
X327868Y304492D01*
X327913Y304516D01*
X327934Y304546D01*
X327962Y304569D01*
X327983Y304616D01*
X328013Y304658D01*
X328021Y304700D01*
X328033Y304728D01*
X328032Y304758D01*
X328040Y304800D01*
X328040Y335280D01*
X328023Y335354D01*
X328010Y335429D01*
X328003Y335439D01*
X328001Y335449D01*
X327977Y335478D01*
X327929Y335549D01*
X303910Y359568D01*
X303910Y440533D01*
X377459Y514081D01*
X377499Y514146D01*
X377543Y514208D01*
X377545Y514220D01*
X377550Y514228D01*
X377554Y514265D01*
X377570Y514350D01*
X377570Y579120D01*
X377559Y579170D01*
X377557Y579221D01*
X377539Y579253D01*
X377531Y579289D01*
X377498Y579328D01*
X377474Y579373D01*
X377444Y579394D01*
X377421Y579422D01*
X377374Y579443D01*
X377332Y579473D01*
X377290Y579481D01*
X377262Y579493D01*
X377232Y579492D01*
X377190Y579500D01*
X361950Y579500D01*
X361900Y579489D01*
X361849Y579487D01*
X361817Y579469D01*
X361781Y579461D01*
X361742Y579428D01*
X361697Y579404D01*
X361676Y579374D01*
X361648Y579351D01*
X361627Y579304D01*
X361597Y579262D01*
X361589Y579220D01*
X361577Y579192D01*
X361578Y579162D01*
X361570Y579120D01*
X361570Y529748D01*
X285481Y453659D01*
X285441Y453594D01*
X285397Y453532D01*
X285395Y453520D01*
X285390Y453512D01*
X285386Y453475D01*
X285370Y453390D01*
X285370Y304800D01*
X285381Y304750D01*
X285383Y304699D01*
X285401Y304667D01*
X285409Y304631D01*
X285442Y304592D01*
X285466Y304547D01*
X285496Y304526D01*
X285519Y304498D01*
X285566Y304477D01*
X285608Y304447D01*
X285650Y304439D01*
X285678Y304427D01*
X285708Y304428D01*
X285750Y304420D01*
X327660Y304420D01*
X327710Y304431D01*
G37*
G36*
X468680Y304431D02*
X468680Y304431D01*
X468731Y304433D01*
X468763Y304451D01*
X468799Y304459D01*
X468838Y304492D01*
X468883Y304516D01*
X468904Y304546D01*
X468932Y304569D01*
X468953Y304616D01*
X468983Y304658D01*
X468991Y304700D01*
X469003Y304728D01*
X469002Y304758D01*
X469010Y304800D01*
X469010Y334010D01*
X468993Y334084D01*
X468980Y334159D01*
X468973Y334169D01*
X468971Y334179D01*
X468947Y334208D01*
X468899Y334279D01*
X446150Y357028D01*
X446150Y554990D01*
X446133Y555064D01*
X446120Y555139D01*
X446113Y555149D01*
X446111Y555159D01*
X446087Y555188D01*
X446039Y555259D01*
X437260Y564038D01*
X437260Y579120D01*
X437249Y579170D01*
X437247Y579221D01*
X437229Y579253D01*
X437221Y579289D01*
X437188Y579328D01*
X437164Y579373D01*
X437134Y579394D01*
X437111Y579422D01*
X437064Y579443D01*
X437022Y579473D01*
X436980Y579481D01*
X436952Y579493D01*
X436922Y579492D01*
X436880Y579500D01*
X421640Y579500D01*
X421590Y579489D01*
X421539Y579487D01*
X421507Y579469D01*
X421471Y579461D01*
X421432Y579428D01*
X421387Y579404D01*
X421366Y579374D01*
X421338Y579351D01*
X421317Y579304D01*
X421287Y579262D01*
X421279Y579220D01*
X421267Y579192D01*
X421268Y579162D01*
X421260Y579120D01*
X421260Y553720D01*
X421277Y553646D01*
X421290Y553571D01*
X421297Y553561D01*
X421299Y553551D01*
X421323Y553522D01*
X421371Y553451D01*
X427610Y547213D01*
X427610Y304800D01*
X427621Y304750D01*
X427623Y304699D01*
X427641Y304667D01*
X427649Y304631D01*
X427682Y304592D01*
X427706Y304547D01*
X427736Y304526D01*
X427759Y304498D01*
X427806Y304477D01*
X427848Y304447D01*
X427890Y304439D01*
X427918Y304427D01*
X427948Y304428D01*
X427990Y304420D01*
X468630Y304420D01*
X468680Y304431D01*
G37*
%LPC*%
G36*
X132753Y84870D02*
X132753Y84870D01*
X131860Y85763D01*
X131860Y107277D01*
X132753Y108170D01*
X154267Y108170D01*
X155160Y107277D01*
X155160Y85763D01*
X154267Y84870D01*
X132753Y84870D01*
G37*
%LPD*%
%LPC*%
G36*
X31966Y203745D02*
X31966Y203745D01*
X27671Y205524D01*
X24384Y208811D01*
X22605Y213106D01*
X22605Y217754D01*
X24384Y222049D01*
X27671Y225336D01*
X31966Y227115D01*
X36614Y227115D01*
X40909Y225336D01*
X44196Y222049D01*
X45975Y217754D01*
X45975Y213106D01*
X44196Y208811D01*
X40909Y205524D01*
X36614Y203745D01*
X31966Y203745D01*
G37*
%LPD*%
%LPC*%
G36*
X181193Y135870D02*
X181193Y135870D01*
X176911Y137644D01*
X173634Y140921D01*
X171860Y145203D01*
X171860Y149837D01*
X173634Y154119D01*
X176911Y157396D01*
X181193Y159170D01*
X185827Y159170D01*
X190109Y157396D01*
X193386Y154119D01*
X195160Y149837D01*
X195160Y145203D01*
X193386Y140921D01*
X190109Y137644D01*
X185827Y135870D01*
X181193Y135870D01*
G37*
%LPD*%
%LPC*%
G36*
X181193Y101870D02*
X181193Y101870D01*
X176911Y103644D01*
X173634Y106921D01*
X171860Y111203D01*
X171860Y115837D01*
X173634Y120119D01*
X176911Y123396D01*
X181193Y125170D01*
X185827Y125170D01*
X190109Y123396D01*
X193386Y120119D01*
X195160Y115837D01*
X195160Y111203D01*
X193386Y106921D01*
X190109Y103644D01*
X185827Y101870D01*
X181193Y101870D01*
G37*
%LPD*%
%LPC*%
G36*
X623937Y6857D02*
X623937Y6857D01*
X619923Y8520D01*
X616850Y11593D01*
X615187Y15607D01*
X615187Y19953D01*
X616850Y23967D01*
X619923Y27040D01*
X623937Y28703D01*
X628283Y28703D01*
X632297Y27040D01*
X635370Y23967D01*
X637033Y19953D01*
X637033Y15607D01*
X635370Y11593D01*
X632297Y8520D01*
X628283Y6857D01*
X623937Y6857D01*
G37*
%LPD*%
%LPC*%
G36*
X598537Y6857D02*
X598537Y6857D01*
X594523Y8520D01*
X591450Y11593D01*
X589787Y15607D01*
X589787Y19953D01*
X591450Y23967D01*
X594523Y27040D01*
X598537Y28703D01*
X602883Y28703D01*
X606897Y27040D01*
X609970Y23967D01*
X611633Y19953D01*
X611633Y15607D01*
X609970Y11593D01*
X606897Y8520D01*
X602883Y6857D01*
X598537Y6857D01*
G37*
%LPD*%
%LPC*%
G36*
X547737Y6857D02*
X547737Y6857D01*
X543723Y8520D01*
X540650Y11593D01*
X538987Y15607D01*
X538987Y19953D01*
X540650Y23967D01*
X543723Y27040D01*
X547737Y28703D01*
X552083Y28703D01*
X556097Y27040D01*
X559170Y23967D01*
X560833Y19953D01*
X560833Y15607D01*
X559170Y11593D01*
X556097Y8520D01*
X552083Y6857D01*
X547737Y6857D01*
G37*
%LPD*%
%LPC*%
G36*
X361649Y125450D02*
X361649Y125450D01*
X358745Y126653D01*
X356523Y128875D01*
X355320Y131779D01*
X355320Y134921D01*
X356523Y137825D01*
X358745Y140047D01*
X361649Y141250D01*
X364791Y141250D01*
X367695Y140047D01*
X369917Y137825D01*
X371120Y134921D01*
X371120Y131779D01*
X369917Y128875D01*
X367695Y126653D01*
X364791Y125450D01*
X361649Y125450D01*
G37*
%LPD*%
%LPC*%
G36*
X21289Y116560D02*
X21289Y116560D01*
X18385Y117763D01*
X16163Y119985D01*
X14960Y122889D01*
X14960Y126031D01*
X16163Y128935D01*
X18385Y131157D01*
X21289Y132360D01*
X24431Y132360D01*
X27335Y131157D01*
X29557Y128935D01*
X30760Y126031D01*
X30760Y122889D01*
X29557Y119985D01*
X27335Y117763D01*
X24431Y116560D01*
X21289Y116560D01*
G37*
%LPD*%
D10*
X224790Y571500D03*
X250190Y571500D03*
X344170Y571500D03*
X369570Y571500D03*
X284480Y571500D03*
X309880Y571500D03*
X403860Y571500D03*
X429260Y571500D03*
X463550Y571500D03*
X488950Y571500D03*
D11*
X143510Y96520D03*
D12*
X183510Y113520D03*
X143510Y130520D03*
X183510Y147520D03*
X143510Y164520D03*
D13*
X66920Y424180D03*
X49920Y424180D03*
X339970Y422910D03*
X322970Y422910D03*
X206620Y422910D03*
X189620Y422910D03*
X489830Y422910D03*
X472830Y422910D03*
X625720Y424180D03*
X608720Y424180D03*
D14*
X549910Y17780D03*
X549910Y43180D03*
X575310Y17780D03*
X575310Y43180D03*
X600710Y17780D03*
X600710Y43180D03*
X626110Y17780D03*
X626110Y43180D03*
D15*
X34290Y265430D03*
D16*
X34290Y215430D03*
D17*
X22860Y124460D03*
D18*
X21590Y312420D03*
X21590Y322580D03*
X21590Y332740D03*
X21590Y342900D03*
X21590Y354330D03*
X30480Y342900D03*
X49530Y375920D03*
X92710Y375920D03*
X189230Y377190D03*
X233680Y377190D03*
X327660Y377190D03*
X373380Y377190D03*
X514350Y378460D03*
X610870Y378460D03*
X655320Y378460D03*
X468630Y378460D03*
X105410Y375920D03*
X118110Y375920D03*
X80010Y375920D03*
X67310Y375920D03*
X207010Y377190D03*
X220980Y377190D03*
X246380Y377190D03*
X259080Y377190D03*
X344170Y377190D03*
X358140Y377190D03*
X386080Y377190D03*
X400050Y377190D03*
X485140Y378460D03*
X499110Y378460D03*
X527050Y378460D03*
X542290Y378460D03*
X627380Y378460D03*
X641350Y378460D03*
X669290Y378460D03*
X683260Y378460D03*
X49530Y386080D03*
X49530Y397510D03*
X189230Y387350D03*
X189230Y397510D03*
X327660Y387350D03*
X327660Y398780D03*
X468630Y388620D03*
X468630Y400050D03*
X610870Y388620D03*
X610870Y400050D03*
D17*
X363220Y87630D03*
X71120Y124460D03*
D19*
X62230Y207010D03*
X72390Y207010D03*
X82550Y207010D03*
X92710Y207010D03*
X104140Y207010D03*
X115570Y207010D03*
X62230Y195580D03*
X62230Y184150D03*
X62230Y172720D03*
X62230Y161290D03*
X401320Y95250D03*
X401320Y85090D03*
X401320Y74930D03*
X411480Y74930D03*
X411480Y85090D03*
X411480Y95250D03*
X391160Y176530D03*
X391160Y166370D03*
X391160Y156210D03*
X72390Y161290D03*
X72390Y172720D03*
X72390Y184150D03*
X72390Y195580D03*
X82550Y195580D03*
X92710Y195580D03*
X104140Y195580D03*
X115570Y195580D03*
X82550Y184150D03*
X92710Y184150D03*
X104140Y184150D03*
X115570Y184150D03*
X82550Y172720D03*
X92710Y172720D03*
X104140Y172720D03*
X115570Y172720D03*
X82550Y161290D03*
X92710Y161290D03*
X104140Y161290D03*
X115570Y161290D03*
D20*
X206620Y407280D02*
X206620Y422910D01*
X206620Y407280D02*
X196850Y397510D01*
X189230Y397510D01*
X339970Y411090D02*
X339970Y422910D01*
X339970Y411090D02*
X327660Y398780D01*
X489830Y404740D02*
X489830Y422910D01*
X489830Y404740D02*
X483870Y398780D01*
X469900Y398780D01*
X468630Y400050D01*
X625720Y404740D02*
X625720Y424180D01*
X625720Y404740D02*
X621030Y400050D01*
X610870Y400050D01*
D19*
X657860Y257810D03*
X609600Y226060D03*
X609600Y195580D03*
X609600Y163830D03*
X609600Y133350D03*
X609600Y99060D03*
X520700Y189230D03*
X520700Y163830D03*
X520700Y132080D03*
X520700Y102870D03*
X497840Y189230D03*
X495300Y163830D03*
X494030Y132080D03*
X577850Y163830D03*
X577850Y133350D03*
X577850Y99060D03*
X650240Y226060D03*
X650240Y194310D03*
X650240Y163830D03*
X650240Y133350D03*
X472440Y80010D03*
X492760Y31750D03*
X326390Y30480D03*
X411480Y251460D03*
X458470Y251460D03*
X458470Y212090D03*
X458470Y168910D03*
D20*
X66920Y400930D02*
X66920Y424180D01*
X66920Y400930D02*
X63500Y397510D01*
X49530Y397510D01*
D19*
X400050Y176530D03*
X400050Y166370D03*
X400050Y156210D03*
X276860Y267970D03*
X325120Y267970D03*
X165100Y248920D03*
X193040Y248920D03*
X250190Y243840D03*
X356870Y242570D03*
X410210Y26670D03*
X626110Y64770D03*
D18*
X49530Y365760D03*
X189230Y367030D03*
X327660Y367030D03*
X468630Y368300D03*
X610870Y368300D03*
X302260Y308610D03*
X302260Y332740D03*
X302260Y321310D03*
X302260Y344170D03*
X302260Y355600D03*
X311150Y344170D03*
X163830Y308610D03*
X163830Y332740D03*
X163830Y321310D03*
X163830Y344170D03*
X163830Y355600D03*
X172720Y344170D03*
X443230Y308610D03*
X443230Y332740D03*
X443230Y321310D03*
X443230Y344170D03*
X443230Y355600D03*
X452120Y344170D03*
X585470Y308610D03*
X585470Y332740D03*
X585470Y321310D03*
X585470Y344170D03*
X585470Y355600D03*
X594360Y344170D03*
D19*
X565150Y194310D03*
D21*
X608140Y61150D02*
X626110Y43180D01*
X608140Y61150D02*
X568654Y61150D01*
X561910Y191070D02*
X565150Y194310D01*
X561910Y67894D02*
X568654Y61150D01*
X561910Y67894D02*
X561910Y191070D01*
X586740Y57150D02*
X600710Y43180D01*
X586740Y57150D02*
X566997Y57150D01*
X557910Y203580D02*
X561340Y207010D01*
X557910Y66237D02*
X566997Y57150D01*
X557910Y66237D02*
X557910Y203580D01*
D19*
X561340Y207010D03*
X558800Y218440D03*
D21*
X553910Y64580D02*
X575310Y43180D01*
X553910Y213550D02*
X558800Y218440D01*
X553910Y213550D02*
X553910Y64580D01*
D19*
X566420Y228600D03*
D21*
X554990Y228600D02*
X549910Y223520D01*
X554990Y228600D02*
X566420Y228600D01*
X549910Y223520D02*
X549910Y43180D01*
D19*
X525780Y226060D03*
D21*
X541910Y209930D01*
X447040Y67310D02*
X440690Y60960D01*
X541910Y85287D02*
X541910Y209930D01*
X541910Y85287D02*
X523933Y67310D01*
X447040Y67310D01*
D19*
X440690Y60960D03*
X539750Y226060D03*
D21*
X545910Y219900D01*
X545910Y83630D02*
X521970Y59690D01*
X545910Y83630D02*
X545910Y219900D01*
D19*
X521970Y59690D03*
X167640Y274320D03*
D20*
X49920Y424180D02*
X39370Y424180D01*
X34290Y419100D01*
D19*
X34290Y408940D03*
D20*
X34290Y419100D01*
X60960Y331470D02*
X60960Y298450D01*
X85090Y274320D01*
X34290Y358140D02*
X34290Y408940D01*
X34290Y358140D02*
X60960Y331470D01*
X85090Y274320D02*
X167640Y274320D01*
D19*
X345440Y275590D03*
X312420Y408940D03*
D20*
X312420Y364490D01*
X345440Y331470D01*
X345440Y275590D01*
X312420Y408940D02*
X312420Y419100D01*
X316230Y422910D01*
X322970Y422910D01*
D19*
X213360Y274320D03*
X173990Y407670D03*
D20*
X173990Y363220D01*
X205740Y331470D02*
X205740Y281940D01*
X213360Y274320D01*
X205740Y331470D02*
X173990Y363220D01*
X173990Y407670D02*
X173990Y417830D01*
X179070Y422910D01*
X189620Y422910D01*
D19*
X521970Y279400D03*
X455930Y410210D03*
D20*
X455930Y416560D02*
X462280Y422910D01*
X455930Y416560D02*
X455930Y410210D01*
X462280Y422910D02*
X472830Y422910D01*
X455930Y360680D02*
X483870Y332740D01*
X483870Y288290D01*
X492760Y279400D01*
X521970Y279400D01*
X455930Y360680D02*
X455930Y410210D01*
D19*
X614680Y273050D03*
X595630Y410210D03*
D20*
X595630Y361950D01*
X623570Y334010D01*
X623570Y281940D01*
X614680Y273050D01*
X595630Y410210D02*
X595630Y419100D01*
X600710Y424180D01*
X608720Y424180D01*
D17*
X363220Y133350D03*
M02*
