G04 EAGLE Gerber RS-274X export*
G75*
%MOMM*%
%FSLAX34Y34*%
%LPD*%
%INBottom Copper*%
%IPPOS*%
%AMOC8*
5,1,8,0,0,1.08239X$1,22.5*%
G01*
%ADD10R,1.524000X1.524000*%
%ADD11R,2.025000X2.025000*%
%ADD12C,2.025000*%
%ADD13C,4.445000*%
%ADD14C,1.275000*%
%ADD15C,0.756400*%
%ADD16C,0.706400*%
%ADD17C,0.254000*%

G36*
X715548Y355062D02*
X715548Y355062D01*
X715601Y355136D01*
X715661Y355205D01*
X715673Y355235D01*
X715692Y355261D01*
X715719Y355348D01*
X715753Y355433D01*
X715757Y355474D01*
X715764Y355497D01*
X715763Y355529D01*
X715771Y355600D01*
X715771Y412750D01*
X715768Y412770D01*
X715770Y412789D01*
X715748Y412891D01*
X715732Y412993D01*
X715722Y413010D01*
X715718Y413030D01*
X715665Y413119D01*
X715616Y413210D01*
X715602Y413224D01*
X715592Y413241D01*
X715513Y413308D01*
X715438Y413380D01*
X715420Y413388D01*
X715405Y413401D01*
X715309Y413440D01*
X715215Y413483D01*
X715195Y413485D01*
X715177Y413493D01*
X715010Y413511D01*
X607060Y413511D01*
X607040Y413508D01*
X607021Y413510D01*
X606919Y413488D01*
X606817Y413472D01*
X606800Y413462D01*
X606780Y413458D01*
X606691Y413405D01*
X606600Y413356D01*
X606586Y413342D01*
X606569Y413332D01*
X606502Y413253D01*
X606431Y413178D01*
X606422Y413160D01*
X606409Y413145D01*
X606370Y413049D01*
X606327Y412955D01*
X606325Y412935D01*
X606317Y412917D01*
X606299Y412750D01*
X606299Y367030D01*
X606314Y366940D01*
X606321Y366849D01*
X606333Y366819D01*
X606339Y366787D01*
X606381Y366707D01*
X606417Y366623D01*
X606443Y366591D01*
X606454Y366570D01*
X606477Y366548D01*
X606522Y366492D01*
X644399Y328615D01*
X644399Y285241D01*
X627602Y285241D01*
X627582Y285238D01*
X627563Y285240D01*
X627461Y285218D01*
X627359Y285202D01*
X627342Y285192D01*
X627322Y285188D01*
X627233Y285135D01*
X627142Y285086D01*
X627128Y285072D01*
X627111Y285062D01*
X627044Y284983D01*
X626972Y284908D01*
X626964Y284890D01*
X626951Y284875D01*
X626912Y284779D01*
X626869Y284685D01*
X626867Y284665D01*
X626859Y284647D01*
X626841Y284480D01*
X626841Y280585D01*
X619960Y273704D01*
X619907Y273630D01*
X619847Y273561D01*
X619835Y273531D01*
X619816Y273504D01*
X619789Y273417D01*
X619755Y273333D01*
X619751Y273292D01*
X619744Y273269D01*
X619745Y273237D01*
X619737Y273166D01*
X619737Y270955D01*
X616775Y267993D01*
X612585Y267993D01*
X609623Y270955D01*
X609623Y275145D01*
X612585Y278107D01*
X614796Y278107D01*
X614886Y278121D01*
X614977Y278129D01*
X615007Y278141D01*
X615039Y278146D01*
X615119Y278189D01*
X615203Y278225D01*
X615235Y278251D01*
X615256Y278262D01*
X615278Y278285D01*
X615334Y278330D01*
X620076Y283072D01*
X620129Y283146D01*
X620189Y283215D01*
X620201Y283245D01*
X620220Y283272D01*
X620247Y283359D01*
X620281Y283443D01*
X620285Y283484D01*
X620292Y283507D01*
X620291Y283539D01*
X620299Y283610D01*
X620299Y284480D01*
X620296Y284500D01*
X620298Y284519D01*
X620276Y284621D01*
X620260Y284723D01*
X620250Y284740D01*
X620246Y284760D01*
X620193Y284849D01*
X620144Y284940D01*
X620130Y284954D01*
X620120Y284971D01*
X620041Y285038D01*
X619966Y285110D01*
X619948Y285118D01*
X619933Y285131D01*
X619837Y285170D01*
X619743Y285213D01*
X619723Y285215D01*
X619705Y285223D01*
X619538Y285241D01*
X567181Y285241D01*
X567181Y412750D01*
X567178Y412770D01*
X567180Y412789D01*
X567158Y412891D01*
X567142Y412993D01*
X567132Y413010D01*
X567128Y413030D01*
X567075Y413119D01*
X567026Y413210D01*
X567012Y413224D01*
X567002Y413241D01*
X566923Y413308D01*
X566848Y413380D01*
X566830Y413388D01*
X566815Y413401D01*
X566719Y413440D01*
X566625Y413483D01*
X566605Y413485D01*
X566587Y413493D01*
X566420Y413511D01*
X464820Y413511D01*
X464800Y413508D01*
X464781Y413510D01*
X464679Y413488D01*
X464577Y413472D01*
X464560Y413462D01*
X464540Y413458D01*
X464451Y413405D01*
X464360Y413356D01*
X464346Y413342D01*
X464329Y413332D01*
X464262Y413253D01*
X464191Y413178D01*
X464182Y413160D01*
X464169Y413145D01*
X464130Y413049D01*
X464087Y412955D01*
X464085Y412935D01*
X464077Y412917D01*
X464059Y412750D01*
X464059Y372110D01*
X464074Y372020D01*
X464081Y371929D01*
X464093Y371899D01*
X464099Y371867D01*
X464141Y371787D01*
X464177Y371703D01*
X464203Y371671D01*
X464214Y371650D01*
X464237Y371628D01*
X464282Y371572D01*
X535179Y300675D01*
X535179Y285241D01*
X526002Y285241D01*
X525982Y285238D01*
X525963Y285240D01*
X525861Y285218D01*
X525759Y285202D01*
X525742Y285192D01*
X525722Y285188D01*
X525633Y285135D01*
X525542Y285086D01*
X525528Y285072D01*
X525511Y285062D01*
X525444Y284983D01*
X525372Y284908D01*
X525364Y284890D01*
X525351Y284875D01*
X525312Y284779D01*
X525269Y284685D01*
X525267Y284665D01*
X525259Y284647D01*
X525241Y284480D01*
X525241Y283596D01*
X525255Y283506D01*
X525263Y283415D01*
X525275Y283385D01*
X525280Y283353D01*
X525323Y283272D01*
X525359Y283189D01*
X525385Y283156D01*
X525396Y283136D01*
X525419Y283114D01*
X525464Y283058D01*
X527027Y281495D01*
X527027Y277305D01*
X524065Y274343D01*
X519875Y274343D01*
X516913Y277305D01*
X516913Y281495D01*
X518476Y283058D01*
X518529Y283132D01*
X518589Y283201D01*
X518601Y283231D01*
X518620Y283257D01*
X518647Y283344D01*
X518681Y283429D01*
X518685Y283470D01*
X518692Y283492D01*
X518691Y283525D01*
X518699Y283596D01*
X518699Y284480D01*
X518696Y284500D01*
X518698Y284519D01*
X518676Y284621D01*
X518660Y284723D01*
X518650Y284740D01*
X518646Y284760D01*
X518593Y284849D01*
X518544Y284940D01*
X518530Y284954D01*
X518520Y284971D01*
X518441Y285038D01*
X518366Y285110D01*
X518348Y285118D01*
X518333Y285131D01*
X518237Y285170D01*
X518143Y285213D01*
X518123Y285215D01*
X518105Y285223D01*
X517938Y285241D01*
X424941Y285241D01*
X424941Y412750D01*
X424938Y412770D01*
X424940Y412789D01*
X424918Y412891D01*
X424902Y412993D01*
X424892Y413010D01*
X424888Y413030D01*
X424835Y413119D01*
X424786Y413210D01*
X424772Y413224D01*
X424762Y413241D01*
X424683Y413308D01*
X424608Y413380D01*
X424590Y413388D01*
X424575Y413401D01*
X424479Y413440D01*
X424385Y413483D01*
X424365Y413485D01*
X424347Y413493D01*
X424180Y413511D01*
X323850Y413511D01*
X323830Y413508D01*
X323811Y413510D01*
X323709Y413488D01*
X323607Y413472D01*
X323590Y413462D01*
X323570Y413458D01*
X323481Y413405D01*
X323390Y413356D01*
X323376Y413342D01*
X323359Y413332D01*
X323292Y413253D01*
X323221Y413178D01*
X323212Y413160D01*
X323199Y413145D01*
X323160Y413049D01*
X323117Y412955D01*
X323115Y412935D01*
X323107Y412917D01*
X323089Y412750D01*
X323089Y370840D01*
X323104Y370750D01*
X323111Y370659D01*
X323123Y370629D01*
X323129Y370597D01*
X323171Y370517D01*
X323207Y370433D01*
X323233Y370401D01*
X323244Y370380D01*
X323267Y370358D01*
X323312Y370302D01*
X370079Y323535D01*
X370079Y285241D01*
X349472Y285241D01*
X349452Y285238D01*
X349433Y285240D01*
X349331Y285218D01*
X349229Y285202D01*
X349212Y285192D01*
X349192Y285188D01*
X349103Y285135D01*
X349012Y285086D01*
X348998Y285072D01*
X348981Y285062D01*
X348914Y284983D01*
X348842Y284908D01*
X348834Y284890D01*
X348821Y284875D01*
X348782Y284779D01*
X348739Y284685D01*
X348737Y284665D01*
X348729Y284647D01*
X348711Y284480D01*
X348711Y279786D01*
X348725Y279696D01*
X348733Y279605D01*
X348745Y279575D01*
X348750Y279543D01*
X348793Y279462D01*
X348829Y279379D01*
X348855Y279346D01*
X348866Y279326D01*
X348889Y279304D01*
X348934Y279248D01*
X350497Y277685D01*
X350497Y273495D01*
X347535Y270533D01*
X343345Y270533D01*
X340383Y273495D01*
X340383Y277685D01*
X341946Y279248D01*
X341999Y279322D01*
X342059Y279391D01*
X342071Y279421D01*
X342090Y279447D01*
X342117Y279534D01*
X342151Y279619D01*
X342155Y279660D01*
X342162Y279682D01*
X342161Y279715D01*
X342169Y279786D01*
X342169Y284480D01*
X342166Y284500D01*
X342168Y284519D01*
X342146Y284621D01*
X342130Y284723D01*
X342120Y284740D01*
X342116Y284760D01*
X342063Y284849D01*
X342014Y284940D01*
X342000Y284954D01*
X341990Y284971D01*
X341911Y285038D01*
X341836Y285110D01*
X341818Y285118D01*
X341803Y285131D01*
X341707Y285170D01*
X341613Y285213D01*
X341593Y285215D01*
X341575Y285223D01*
X341408Y285241D01*
X285241Y285241D01*
X285241Y412750D01*
X285238Y412770D01*
X285240Y412789D01*
X285218Y412891D01*
X285202Y412993D01*
X285192Y413010D01*
X285188Y413030D01*
X285135Y413119D01*
X285086Y413210D01*
X285072Y413224D01*
X285062Y413241D01*
X284983Y413308D01*
X284908Y413380D01*
X284890Y413388D01*
X284875Y413401D01*
X284779Y413440D01*
X284685Y413483D01*
X284665Y413485D01*
X284647Y413493D01*
X284480Y413511D01*
X182880Y413511D01*
X182860Y413508D01*
X182841Y413510D01*
X182739Y413488D01*
X182637Y413472D01*
X182620Y413462D01*
X182600Y413458D01*
X182511Y413405D01*
X182420Y413356D01*
X182406Y413342D01*
X182389Y413332D01*
X182322Y413253D01*
X182251Y413178D01*
X182242Y413160D01*
X182229Y413145D01*
X182190Y413049D01*
X182147Y412955D01*
X182145Y412935D01*
X182137Y412917D01*
X182119Y412750D01*
X182119Y369570D01*
X182134Y369480D01*
X182141Y369389D01*
X182153Y369359D01*
X182159Y369327D01*
X182201Y369247D01*
X182237Y369163D01*
X182263Y369131D01*
X182274Y369110D01*
X182297Y369088D01*
X182342Y369032D01*
X237999Y313375D01*
X237999Y285241D01*
X217392Y285241D01*
X217372Y285238D01*
X217353Y285240D01*
X217251Y285218D01*
X217149Y285202D01*
X217132Y285192D01*
X217112Y285188D01*
X217023Y285135D01*
X216932Y285086D01*
X216918Y285072D01*
X216901Y285062D01*
X216834Y284983D01*
X216762Y284908D01*
X216754Y284890D01*
X216741Y284875D01*
X216702Y284779D01*
X216659Y284685D01*
X216657Y284665D01*
X216649Y284647D01*
X216631Y284480D01*
X216631Y278516D01*
X216645Y278426D01*
X216653Y278335D01*
X216665Y278305D01*
X216670Y278273D01*
X216713Y278192D01*
X216749Y278109D01*
X216775Y278076D01*
X216786Y278056D01*
X216809Y278034D01*
X216854Y277978D01*
X218417Y276415D01*
X218417Y272225D01*
X215455Y269263D01*
X211265Y269263D01*
X208303Y272225D01*
X208303Y276415D01*
X209866Y277978D01*
X209919Y278052D01*
X209979Y278121D01*
X209991Y278151D01*
X210010Y278177D01*
X210037Y278264D01*
X210071Y278349D01*
X210075Y278390D01*
X210082Y278412D01*
X210081Y278445D01*
X210089Y278516D01*
X210089Y284480D01*
X210086Y284500D01*
X210088Y284519D01*
X210066Y284621D01*
X210050Y284723D01*
X210040Y284740D01*
X210036Y284760D01*
X209983Y284849D01*
X209934Y284940D01*
X209920Y284954D01*
X209910Y284971D01*
X209831Y285038D01*
X209756Y285110D01*
X209738Y285118D01*
X209723Y285131D01*
X209627Y285170D01*
X209533Y285213D01*
X209513Y285215D01*
X209495Y285223D01*
X209328Y285241D01*
X150621Y285241D01*
X150621Y414020D01*
X150618Y414040D01*
X150620Y414059D01*
X150598Y414161D01*
X150582Y414263D01*
X150572Y414280D01*
X150568Y414300D01*
X150515Y414389D01*
X150466Y414480D01*
X150452Y414494D01*
X150442Y414511D01*
X150363Y414578D01*
X150288Y414650D01*
X150270Y414658D01*
X150255Y414671D01*
X150159Y414710D01*
X150065Y414753D01*
X150045Y414755D01*
X150027Y414763D01*
X149860Y414781D01*
X44450Y414781D01*
X44430Y414778D01*
X44411Y414780D01*
X44309Y414758D01*
X44207Y414742D01*
X44190Y414732D01*
X44170Y414728D01*
X44081Y414675D01*
X43990Y414626D01*
X43976Y414612D01*
X43959Y414602D01*
X43892Y414523D01*
X43821Y414448D01*
X43812Y414430D01*
X43799Y414415D01*
X43760Y414319D01*
X43717Y414225D01*
X43715Y414205D01*
X43707Y414187D01*
X43689Y414020D01*
X43689Y361950D01*
X43704Y361860D01*
X43711Y361769D01*
X43723Y361739D01*
X43729Y361707D01*
X43771Y361627D01*
X43807Y361543D01*
X43833Y361511D01*
X43844Y361490D01*
X43867Y361468D01*
X43912Y361412D01*
X120082Y285241D01*
X114922Y285241D01*
X114851Y285230D01*
X114780Y285228D01*
X114731Y285210D01*
X114679Y285202D01*
X114616Y285168D01*
X114549Y285143D01*
X114508Y285111D01*
X114462Y285086D01*
X114413Y285035D01*
X114357Y284990D01*
X114328Y284946D01*
X114293Y284908D01*
X114262Y284843D01*
X114224Y284783D01*
X114211Y284732D01*
X114189Y284685D01*
X114181Y284614D01*
X114164Y284544D01*
X114168Y284492D01*
X114162Y284441D01*
X114177Y284370D01*
X114183Y284299D01*
X114203Y284251D01*
X114214Y284200D01*
X114251Y284139D01*
X114279Y284073D01*
X114324Y284017D01*
X114340Y283989D01*
X114358Y283974D01*
X114384Y283942D01*
X120512Y277814D01*
X120586Y277761D01*
X120655Y277701D01*
X120685Y277689D01*
X120712Y277670D01*
X120799Y277643D01*
X120883Y277609D01*
X120924Y277605D01*
X120947Y277598D01*
X120979Y277599D01*
X121050Y277591D01*
X163444Y277591D01*
X163534Y277605D01*
X163625Y277613D01*
X163655Y277625D01*
X163687Y277630D01*
X163768Y277673D01*
X163851Y277709D01*
X163884Y277735D01*
X163904Y277746D01*
X163926Y277769D01*
X163982Y277814D01*
X165545Y279377D01*
X169735Y279377D01*
X172697Y276415D01*
X172697Y272225D01*
X169735Y269263D01*
X165545Y269263D01*
X163982Y270826D01*
X163908Y270879D01*
X163839Y270939D01*
X163809Y270951D01*
X163783Y270970D01*
X163696Y270997D01*
X163611Y271031D01*
X163570Y271035D01*
X163548Y271042D01*
X163515Y271041D01*
X163444Y271049D01*
X118025Y271049D01*
X115886Y273188D01*
X104056Y285018D01*
X103982Y285071D01*
X103913Y285131D01*
X103883Y285143D01*
X103856Y285162D01*
X103769Y285189D01*
X103685Y285223D01*
X103644Y285227D01*
X103621Y285234D01*
X103589Y285233D01*
X103518Y285241D01*
X3512Y285241D01*
X3492Y285238D01*
X3473Y285240D01*
X3371Y285218D01*
X3269Y285202D01*
X3252Y285192D01*
X3232Y285188D01*
X3143Y285135D01*
X3052Y285086D01*
X3038Y285072D01*
X3021Y285062D01*
X2954Y284983D01*
X2882Y284908D01*
X2874Y284890D01*
X2861Y284875D01*
X2822Y284779D01*
X2779Y284685D01*
X2777Y284665D01*
X2769Y284647D01*
X2751Y284480D01*
X2751Y3512D01*
X2754Y3492D01*
X2752Y3473D01*
X2774Y3371D01*
X2790Y3269D01*
X2800Y3252D01*
X2804Y3232D01*
X2857Y3143D01*
X2906Y3052D01*
X2920Y3038D01*
X2930Y3021D01*
X3009Y2954D01*
X3084Y2882D01*
X3102Y2874D01*
X3117Y2861D01*
X3213Y2822D01*
X3307Y2779D01*
X3327Y2777D01*
X3345Y2769D01*
X3512Y2751D01*
X664210Y2751D01*
X664230Y2754D01*
X664249Y2752D01*
X664351Y2774D01*
X664453Y2790D01*
X664470Y2800D01*
X664490Y2804D01*
X664579Y2857D01*
X664670Y2906D01*
X664684Y2920D01*
X664701Y2930D01*
X664768Y3009D01*
X664840Y3084D01*
X664848Y3102D01*
X664861Y3117D01*
X664900Y3213D01*
X664943Y3307D01*
X664945Y3327D01*
X664953Y3345D01*
X664971Y3512D01*
X664971Y304485D01*
X715548Y355062D01*
G37*
G36*
X48310Y306971D02*
X48310Y306971D01*
X48361Y306973D01*
X48393Y306991D01*
X48429Y306999D01*
X48468Y307032D01*
X48513Y307056D01*
X48534Y307086D01*
X48562Y307109D01*
X48583Y307156D01*
X48613Y307198D01*
X48621Y307240D01*
X48633Y307268D01*
X48632Y307298D01*
X48640Y307340D01*
X48640Y331470D01*
X48623Y331544D01*
X48610Y331619D01*
X48603Y331629D01*
X48601Y331639D01*
X48577Y331668D01*
X48529Y331739D01*
X25780Y354488D01*
X25780Y403703D01*
X86518Y464440D01*
X129540Y464440D01*
X129614Y464457D01*
X129689Y464470D01*
X129699Y464477D01*
X129709Y464479D01*
X129738Y464503D01*
X129809Y464551D01*
X207168Y541910D01*
X251460Y541910D01*
X251534Y541927D01*
X251609Y541940D01*
X251619Y541947D01*
X251629Y541949D01*
X251658Y541973D01*
X251729Y542021D01*
X258079Y548371D01*
X258119Y548436D01*
X258163Y548498D01*
X258165Y548510D01*
X258170Y548518D01*
X258174Y548555D01*
X258190Y548640D01*
X258190Y579120D01*
X258179Y579170D01*
X258177Y579221D01*
X258159Y579253D01*
X258151Y579289D01*
X258118Y579328D01*
X258094Y579373D01*
X258064Y579394D01*
X258041Y579422D01*
X257994Y579443D01*
X257952Y579473D01*
X257910Y579481D01*
X257882Y579493D01*
X257852Y579492D01*
X257810Y579500D01*
X242570Y579500D01*
X242520Y579489D01*
X242469Y579487D01*
X242437Y579469D01*
X242401Y579461D01*
X242362Y579428D01*
X242317Y579404D01*
X242296Y579374D01*
X242268Y579351D01*
X242247Y579304D01*
X242217Y579262D01*
X242209Y579220D01*
X242197Y579192D01*
X242198Y579162D01*
X242190Y579120D01*
X242190Y562768D01*
X233523Y554100D01*
X148590Y554100D01*
X148516Y554083D01*
X148441Y554070D01*
X148431Y554063D01*
X148421Y554061D01*
X148392Y554037D01*
X148321Y553989D01*
X12431Y418099D01*
X12391Y418034D01*
X12347Y417972D01*
X12345Y417960D01*
X12340Y417952D01*
X12336Y417915D01*
X12320Y417830D01*
X12320Y307340D01*
X12331Y307290D01*
X12333Y307239D01*
X12351Y307207D01*
X12359Y307171D01*
X12392Y307132D01*
X12416Y307087D01*
X12446Y307066D01*
X12469Y307038D01*
X12516Y307017D01*
X12558Y306987D01*
X12600Y306979D01*
X12628Y306967D01*
X12658Y306968D01*
X12700Y306960D01*
X48260Y306960D01*
X48310Y306971D01*
G37*
G36*
X189280Y304431D02*
X189280Y304431D01*
X189331Y304433D01*
X189363Y304451D01*
X189399Y304459D01*
X189438Y304492D01*
X189483Y304516D01*
X189504Y304546D01*
X189532Y304569D01*
X189553Y304616D01*
X189583Y304658D01*
X189591Y304700D01*
X189603Y304728D01*
X189602Y304758D01*
X189610Y304800D01*
X189610Y335280D01*
X189593Y335354D01*
X189580Y335429D01*
X189573Y335439D01*
X189571Y335449D01*
X189547Y335478D01*
X189499Y335549D01*
X166750Y358298D01*
X166750Y418943D01*
X259238Y511430D01*
X304800Y511430D01*
X304874Y511447D01*
X304949Y511460D01*
X304959Y511467D01*
X304969Y511469D01*
X304998Y511493D01*
X305069Y511541D01*
X317769Y524241D01*
X317809Y524306D01*
X317853Y524368D01*
X317855Y524380D01*
X317860Y524388D01*
X317864Y524425D01*
X317880Y524510D01*
X317880Y579120D01*
X317869Y579170D01*
X317867Y579221D01*
X317849Y579253D01*
X317841Y579289D01*
X317808Y579328D01*
X317784Y579373D01*
X317754Y579394D01*
X317731Y579422D01*
X317684Y579443D01*
X317642Y579473D01*
X317600Y579481D01*
X317572Y579493D01*
X317542Y579492D01*
X317500Y579500D01*
X300990Y579500D01*
X300940Y579489D01*
X300889Y579487D01*
X300857Y579469D01*
X300821Y579461D01*
X300782Y579428D01*
X300737Y579404D01*
X300716Y579374D01*
X300688Y579351D01*
X300667Y579304D01*
X300637Y579262D01*
X300629Y579220D01*
X300617Y579192D01*
X300618Y579162D01*
X300610Y579120D01*
X300610Y533780D01*
X223520Y533780D01*
X223446Y533763D01*
X223371Y533750D01*
X223361Y533743D01*
X223351Y533741D01*
X223322Y533717D01*
X223251Y533669D01*
X154671Y465089D01*
X154631Y465024D01*
X154587Y464962D01*
X154585Y464950D01*
X154580Y464942D01*
X154576Y464905D01*
X154560Y464820D01*
X154560Y304800D01*
X154571Y304750D01*
X154573Y304699D01*
X154591Y304667D01*
X154599Y304631D01*
X154632Y304592D01*
X154656Y304547D01*
X154686Y304526D01*
X154709Y304498D01*
X154756Y304477D01*
X154798Y304447D01*
X154840Y304439D01*
X154868Y304427D01*
X154898Y304428D01*
X154940Y304420D01*
X189230Y304420D01*
X189280Y304431D01*
G37*
G36*
X610920Y304431D02*
X610920Y304431D01*
X610971Y304433D01*
X611003Y304451D01*
X611039Y304459D01*
X611078Y304492D01*
X611123Y304516D01*
X611144Y304546D01*
X611172Y304569D01*
X611193Y304616D01*
X611223Y304658D01*
X611231Y304700D01*
X611243Y304728D01*
X611242Y304758D01*
X611250Y304800D01*
X611250Y334010D01*
X611233Y334084D01*
X611220Y334159D01*
X611213Y334169D01*
X611211Y334179D01*
X611187Y334208D01*
X611139Y334279D01*
X585850Y359568D01*
X585850Y519430D01*
X585833Y519504D01*
X585820Y519579D01*
X585813Y519589D01*
X585811Y519599D01*
X585787Y519628D01*
X585739Y519699D01*
X556529Y548909D01*
X556464Y548949D01*
X556402Y548993D01*
X556390Y548995D01*
X556382Y549000D01*
X556345Y549004D01*
X556260Y549020D01*
X511968Y549020D01*
X496950Y564038D01*
X496950Y579120D01*
X496939Y579170D01*
X496937Y579221D01*
X496919Y579253D01*
X496911Y579289D01*
X496878Y579328D01*
X496854Y579373D01*
X496824Y579394D01*
X496801Y579422D01*
X496754Y579443D01*
X496712Y579473D01*
X496670Y579481D01*
X496642Y579493D01*
X496612Y579492D01*
X496570Y579500D01*
X481330Y579500D01*
X481280Y579489D01*
X481229Y579487D01*
X481197Y579469D01*
X481161Y579461D01*
X481122Y579428D01*
X481077Y579404D01*
X481056Y579374D01*
X481028Y579351D01*
X481007Y579304D01*
X480977Y579262D01*
X480969Y579220D01*
X480957Y579192D01*
X480958Y579162D01*
X480950Y579120D01*
X480950Y543560D01*
X480963Y543503D01*
X480963Y543496D01*
X480966Y543492D01*
X480967Y543486D01*
X480980Y543411D01*
X480987Y543401D01*
X480989Y543391D01*
X481013Y543362D01*
X481061Y543291D01*
X573660Y450693D01*
X573660Y304800D01*
X573671Y304750D01*
X573673Y304699D01*
X573691Y304667D01*
X573699Y304631D01*
X573732Y304592D01*
X573756Y304547D01*
X573786Y304526D01*
X573809Y304498D01*
X573856Y304477D01*
X573898Y304447D01*
X573940Y304439D01*
X573968Y304427D01*
X573998Y304428D01*
X574040Y304420D01*
X610870Y304420D01*
X610920Y304431D01*
G37*
G36*
X327710Y304431D02*
X327710Y304431D01*
X327761Y304433D01*
X327793Y304451D01*
X327829Y304459D01*
X327868Y304492D01*
X327913Y304516D01*
X327934Y304546D01*
X327962Y304569D01*
X327983Y304616D01*
X328013Y304658D01*
X328021Y304700D01*
X328033Y304728D01*
X328032Y304758D01*
X328040Y304800D01*
X328040Y335280D01*
X328023Y335354D01*
X328010Y335429D01*
X328003Y335439D01*
X328001Y335449D01*
X327977Y335478D01*
X327929Y335549D01*
X303910Y359568D01*
X303910Y424023D01*
X377459Y497571D01*
X377499Y497636D01*
X377543Y497698D01*
X377545Y497710D01*
X377550Y497718D01*
X377554Y497755D01*
X377570Y497840D01*
X377570Y579120D01*
X377559Y579170D01*
X377557Y579221D01*
X377539Y579253D01*
X377531Y579289D01*
X377498Y579328D01*
X377474Y579373D01*
X377444Y579394D01*
X377421Y579422D01*
X377374Y579443D01*
X377332Y579473D01*
X377290Y579481D01*
X377262Y579493D01*
X377232Y579492D01*
X377190Y579500D01*
X361950Y579500D01*
X361900Y579489D01*
X361849Y579487D01*
X361817Y579469D01*
X361781Y579461D01*
X361742Y579428D01*
X361697Y579404D01*
X361676Y579374D01*
X361648Y579351D01*
X361627Y579304D01*
X361597Y579262D01*
X361589Y579220D01*
X361577Y579192D01*
X361578Y579162D01*
X361570Y579120D01*
X361570Y553878D01*
X293101Y485409D01*
X293061Y485344D01*
X293017Y485282D01*
X293015Y485270D01*
X293010Y485262D01*
X293006Y485225D01*
X292990Y485140D01*
X292990Y304800D01*
X293001Y304750D01*
X293003Y304699D01*
X293021Y304667D01*
X293029Y304631D01*
X293062Y304592D01*
X293086Y304547D01*
X293116Y304526D01*
X293139Y304498D01*
X293186Y304477D01*
X293228Y304447D01*
X293270Y304439D01*
X293298Y304427D01*
X293328Y304428D01*
X293370Y304420D01*
X327660Y304420D01*
X327710Y304431D01*
G37*
G36*
X468680Y304431D02*
X468680Y304431D01*
X468731Y304433D01*
X468763Y304451D01*
X468799Y304459D01*
X468838Y304492D01*
X468883Y304516D01*
X468904Y304546D01*
X468932Y304569D01*
X468953Y304616D01*
X468983Y304658D01*
X468991Y304700D01*
X469003Y304728D01*
X469002Y304758D01*
X469010Y304800D01*
X469010Y334010D01*
X468993Y334084D01*
X468980Y334159D01*
X468973Y334169D01*
X468971Y334179D01*
X468947Y334208D01*
X468899Y334279D01*
X446150Y357028D01*
X446150Y408783D01*
X473979Y436611D01*
X474019Y436676D01*
X474063Y436738D01*
X474065Y436750D01*
X474070Y436758D01*
X474074Y436795D01*
X474090Y436880D01*
X474090Y527050D01*
X474073Y527124D01*
X474060Y527199D01*
X474053Y527209D01*
X474051Y527219D01*
X474027Y527248D01*
X473979Y527319D01*
X437260Y564038D01*
X437260Y579120D01*
X437249Y579170D01*
X437247Y579221D01*
X437229Y579253D01*
X437221Y579289D01*
X437188Y579328D01*
X437164Y579373D01*
X437134Y579394D01*
X437111Y579422D01*
X437064Y579443D01*
X437022Y579473D01*
X436980Y579481D01*
X436952Y579493D01*
X436922Y579492D01*
X436880Y579500D01*
X421640Y579500D01*
X421590Y579489D01*
X421539Y579487D01*
X421507Y579469D01*
X421471Y579461D01*
X421432Y579428D01*
X421387Y579404D01*
X421366Y579374D01*
X421338Y579351D01*
X421317Y579304D01*
X421287Y579262D01*
X421279Y579220D01*
X421267Y579192D01*
X421268Y579162D01*
X421260Y579120D01*
X421260Y553720D01*
X421277Y553646D01*
X421290Y553571D01*
X421297Y553561D01*
X421299Y553551D01*
X421323Y553522D01*
X421371Y553451D01*
X433960Y540863D01*
X433960Y304800D01*
X433971Y304750D01*
X433973Y304699D01*
X433991Y304667D01*
X433999Y304631D01*
X434032Y304592D01*
X434056Y304547D01*
X434086Y304526D01*
X434109Y304498D01*
X434156Y304477D01*
X434198Y304447D01*
X434240Y304439D01*
X434268Y304427D01*
X434298Y304428D01*
X434340Y304420D01*
X468630Y304420D01*
X468680Y304431D01*
G37*
%LPC*%
G36*
X28296Y6730D02*
X28296Y6730D01*
X19567Y10346D01*
X12886Y17027D01*
X9270Y25756D01*
X9270Y35204D01*
X12886Y43933D01*
X19567Y50614D01*
X28296Y54230D01*
X37744Y54230D01*
X46473Y50614D01*
X53154Y43933D01*
X56770Y35204D01*
X56770Y25756D01*
X53154Y17027D01*
X46473Y10346D01*
X37744Y6730D01*
X28296Y6730D01*
G37*
%LPD*%
%LPC*%
G36*
X418275Y147343D02*
X418275Y147343D01*
X415313Y150305D01*
X415313Y154495D01*
X418275Y157457D01*
X422465Y157457D01*
X424028Y155894D01*
X424102Y155841D01*
X424171Y155781D01*
X424201Y155769D01*
X424227Y155750D01*
X424314Y155723D01*
X424399Y155689D01*
X424440Y155685D01*
X424462Y155678D01*
X424495Y155679D01*
X424566Y155671D01*
X541890Y155671D01*
X541980Y155685D01*
X542071Y155693D01*
X542101Y155705D01*
X542133Y155710D01*
X542213Y155753D01*
X542297Y155789D01*
X542329Y155815D01*
X542350Y155826D01*
X542372Y155849D01*
X542428Y155894D01*
X583246Y196712D01*
X583299Y196786D01*
X583359Y196855D01*
X583371Y196885D01*
X583390Y196912D01*
X583417Y196999D01*
X583451Y197083D01*
X583455Y197124D01*
X583462Y197147D01*
X583461Y197179D01*
X583469Y197250D01*
X583469Y228214D01*
X583455Y228304D01*
X583447Y228395D01*
X583435Y228425D01*
X583430Y228457D01*
X583387Y228538D01*
X583351Y228621D01*
X583325Y228654D01*
X583314Y228674D01*
X583291Y228696D01*
X583246Y228752D01*
X581683Y230315D01*
X581683Y234505D01*
X584645Y237467D01*
X588835Y237467D01*
X591797Y234505D01*
X591797Y230315D01*
X590234Y228752D01*
X590181Y228678D01*
X590121Y228609D01*
X590109Y228579D01*
X590090Y228553D01*
X590063Y228466D01*
X590029Y228381D01*
X590025Y228340D01*
X590018Y228318D01*
X590019Y228285D01*
X590011Y228214D01*
X590011Y194225D01*
X544915Y149129D01*
X424566Y149129D01*
X424476Y149115D01*
X424385Y149107D01*
X424355Y149095D01*
X424323Y149090D01*
X424242Y149047D01*
X424159Y149011D01*
X424126Y148985D01*
X424106Y148974D01*
X424084Y148951D01*
X424028Y148906D01*
X422465Y147343D01*
X418275Y147343D01*
G37*
%LPD*%
%LPC*%
G36*
X132753Y84870D02*
X132753Y84870D01*
X131860Y85763D01*
X131860Y107277D01*
X132753Y108170D01*
X154267Y108170D01*
X155160Y107277D01*
X155160Y85763D01*
X154267Y84870D01*
X132753Y84870D01*
G37*
%LPD*%
%LPC*%
G36*
X181193Y135870D02*
X181193Y135870D01*
X176911Y137644D01*
X173634Y140921D01*
X171860Y145203D01*
X171860Y149837D01*
X173634Y154119D01*
X176911Y157396D01*
X181193Y159170D01*
X185827Y159170D01*
X190109Y157396D01*
X193386Y154119D01*
X195160Y149837D01*
X195160Y145203D01*
X193386Y140921D01*
X190109Y137644D01*
X185827Y135870D01*
X181193Y135870D01*
G37*
%LPD*%
%LPC*%
G36*
X181193Y101870D02*
X181193Y101870D01*
X176911Y103644D01*
X173634Y106921D01*
X171860Y111203D01*
X171860Y115837D01*
X173634Y120119D01*
X176911Y123396D01*
X181193Y125170D01*
X185827Y125170D01*
X190109Y123396D01*
X193386Y120119D01*
X195160Y115837D01*
X195160Y111203D01*
X193386Y106921D01*
X190109Y103644D01*
X185827Y101870D01*
X181193Y101870D01*
G37*
%LPD*%
%LPC*%
G36*
X26038Y232155D02*
X26038Y232155D01*
X25145Y233048D01*
X25145Y249552D01*
X26038Y250445D01*
X42542Y250445D01*
X43435Y249552D01*
X43435Y233048D01*
X42542Y232155D01*
X26038Y232155D01*
G37*
%LPD*%
%LPC*%
G36*
X361649Y125450D02*
X361649Y125450D01*
X358745Y126653D01*
X356523Y128875D01*
X355320Y131779D01*
X355320Y134921D01*
X356523Y137825D01*
X358745Y140047D01*
X361649Y141250D01*
X364791Y141250D01*
X367695Y140047D01*
X369917Y137825D01*
X371120Y134921D01*
X371120Y131779D01*
X369917Y128875D01*
X367695Y126653D01*
X364791Y125450D01*
X361649Y125450D01*
G37*
%LPD*%
%LPC*%
G36*
X51769Y78460D02*
X51769Y78460D01*
X48865Y79663D01*
X46643Y81885D01*
X45440Y84789D01*
X45440Y87931D01*
X46643Y90835D01*
X48865Y93057D01*
X51769Y94260D01*
X54911Y94260D01*
X57815Y93057D01*
X60037Y90835D01*
X61240Y87931D01*
X61240Y84789D01*
X60037Y81885D01*
X57815Y79663D01*
X54911Y78460D01*
X51769Y78460D01*
G37*
%LPD*%
D10*
X224790Y571500D03*
X250190Y571500D03*
X344170Y571500D03*
X369570Y571500D03*
X284480Y571500D03*
X309880Y571500D03*
X403860Y571500D03*
X429260Y571500D03*
X463550Y571500D03*
X488950Y571500D03*
D11*
X143510Y96520D03*
D12*
X183510Y113520D03*
X143510Y130520D03*
X183510Y147520D03*
X143510Y164520D03*
D10*
X34290Y266700D03*
X34290Y241300D03*
D13*
X33020Y30480D03*
X731520Y30480D03*
X33020Y571500D03*
X731520Y571500D03*
D14*
X53340Y86360D03*
D15*
X21590Y312420D03*
X21590Y322580D03*
X21590Y332740D03*
X21590Y342900D03*
X21590Y354330D03*
X49530Y375920D03*
X92710Y375920D03*
X189230Y377190D03*
X233680Y377190D03*
X327660Y377190D03*
X373380Y377190D03*
X514350Y378460D03*
X610870Y378460D03*
X655320Y378460D03*
X468630Y378460D03*
X105410Y375920D03*
X118110Y375920D03*
X80010Y375920D03*
X67310Y375920D03*
X207010Y377190D03*
X220980Y377190D03*
X246380Y377190D03*
X259080Y377190D03*
X344170Y377190D03*
X358140Y377190D03*
X386080Y377190D03*
X400050Y377190D03*
X485140Y378460D03*
X499110Y378460D03*
X527050Y378460D03*
X542290Y378460D03*
X627380Y378460D03*
X641350Y378460D03*
X669290Y378460D03*
X683260Y378460D03*
X49530Y386080D03*
X49530Y397510D03*
X189230Y387350D03*
X189230Y397510D03*
X327660Y387350D03*
X327660Y398780D03*
X468630Y388620D03*
X468630Y400050D03*
X610870Y388620D03*
X610870Y400050D03*
D14*
X363220Y87630D03*
X53340Y132080D03*
D16*
X52070Y207010D03*
X62230Y207010D03*
X72390Y207010D03*
X82550Y207010D03*
X93980Y207010D03*
X105410Y207010D03*
X52070Y195580D03*
X52070Y184150D03*
X52070Y172720D03*
X52070Y161290D03*
X401320Y95250D03*
X401320Y85090D03*
X401320Y74930D03*
X411480Y74930D03*
X411480Y85090D03*
X411480Y95250D03*
X391160Y176530D03*
X391160Y166370D03*
X391160Y156210D03*
X62230Y161290D03*
X62230Y172720D03*
X62230Y184150D03*
X62230Y195580D03*
X72390Y195580D03*
X82550Y195580D03*
X93980Y195580D03*
X105410Y195580D03*
X72390Y184150D03*
X82550Y184150D03*
X93980Y184150D03*
X105410Y184150D03*
X72390Y172720D03*
X82550Y172720D03*
X93980Y172720D03*
X105410Y172720D03*
X72390Y161290D03*
X82550Y161290D03*
X93980Y161290D03*
X105410Y161290D03*
X631190Y95250D03*
X491490Y142240D03*
X655320Y275590D03*
X419100Y167640D03*
D15*
X421640Y257810D03*
X302260Y308610D03*
X302260Y332740D03*
X302260Y321310D03*
X302260Y344170D03*
X302260Y355600D03*
X163830Y308610D03*
X163830Y332740D03*
X163830Y321310D03*
X163830Y344170D03*
X163830Y355600D03*
X443230Y308610D03*
X443230Y332740D03*
X443230Y321310D03*
X443230Y344170D03*
X443230Y355600D03*
X585470Y308610D03*
X585470Y332740D03*
X585470Y321310D03*
X585470Y344170D03*
X585470Y355600D03*
D16*
X420370Y152400D03*
X586740Y232410D03*
D17*
X543560Y152400D02*
X420370Y152400D01*
X543560Y152400D02*
X586740Y195580D01*
X586740Y232410D01*
D16*
X167640Y274320D03*
X31750Y378460D03*
D17*
X31750Y361950D02*
X119380Y274320D01*
X31750Y361950D02*
X31750Y378460D01*
X119380Y274320D02*
X167640Y274320D01*
D16*
X345440Y275590D03*
X312420Y408940D03*
D17*
X312420Y364490D01*
X345440Y331470D01*
X345440Y275590D01*
D16*
X213360Y274320D03*
X173990Y407670D03*
D17*
X173990Y363220D01*
X213360Y323850D02*
X213360Y274320D01*
X213360Y323850D02*
X173990Y363220D01*
D16*
X521970Y279400D03*
X455930Y410210D03*
D17*
X455930Y361950D01*
X521970Y295910D02*
X521970Y279400D01*
X521970Y295910D02*
X455930Y361950D01*
D16*
X614680Y273050D03*
X595630Y410210D03*
D17*
X595630Y361950D01*
X623570Y334010D01*
X623570Y281940D01*
X614680Y273050D01*
D14*
X363220Y133350D03*
M02*
