G04 EAGLE Gerber RS-274X export*
G75*
%MOMM*%
%FSLAX34Y34*%
%LPD*%
%INTop Copper*%
%IPPOS*%
%AMOC8*
5,1,8,0,0,1.08239X$1,22.5*%
G01*
%ADD10R,0.700000X1.500000*%
%ADD11R,1.000000X5.200000*%
%ADD12R,2.200000X3.100000*%
%ADD13R,1.550000X2.350000*%
%ADD14R,1.800000X2.700000*%
%ADD15R,2.700000X2.550000*%
%ADD16R,1.524000X1.524000*%
%ADD17R,0.650000X1.500000*%
%ADD18R,1.500000X0.650000*%
%ADD19R,1.100000X1.400000*%
%ADD20R,1.100000X1.000000*%
%ADD21R,2.025000X2.025000*%
%ADD22C,2.025000*%
%ADD23R,1.400000X3.000000*%
%ADD24R,2.350000X1.550000*%
%ADD25R,1.400000X1.100000*%
%ADD26R,1.000000X1.100000*%
%ADD27R,2.794000X2.286000*%
%ADD28R,0.508000X1.270000*%
%ADD29C,0.300000*%
%ADD30R,0.900000X1.000000*%
%ADD31C,4.445000*%
%ADD32C,1.275000*%
%ADD33C,0.200000*%
%ADD34C,0.756400*%
%ADD35C,0.706400*%
%ADD36C,0.406400*%
%ADD37C,0.254000*%
%ADD38C,0.508000*%

G36*
X665500Y2754D02*
X665500Y2754D01*
X665519Y2752D01*
X665621Y2774D01*
X665723Y2790D01*
X665740Y2800D01*
X665760Y2804D01*
X665849Y2857D01*
X665940Y2906D01*
X665954Y2920D01*
X665971Y2930D01*
X666038Y3009D01*
X666110Y3084D01*
X666118Y3102D01*
X666131Y3117D01*
X666170Y3213D01*
X666213Y3307D01*
X666215Y3327D01*
X666223Y3345D01*
X666241Y3512D01*
X666241Y255938D01*
X666238Y255958D01*
X666240Y255977D01*
X666218Y256079D01*
X666202Y256181D01*
X666192Y256198D01*
X666188Y256218D01*
X666135Y256307D01*
X666086Y256398D01*
X666072Y256412D01*
X666062Y256429D01*
X665983Y256496D01*
X665908Y256568D01*
X665890Y256576D01*
X665875Y256589D01*
X665779Y256628D01*
X665685Y256671D01*
X665665Y256673D01*
X665647Y256681D01*
X665480Y256699D01*
X651766Y256699D01*
X651746Y256696D01*
X651727Y256698D01*
X651625Y256676D01*
X651523Y256660D01*
X651506Y256650D01*
X651486Y256646D01*
X651397Y256593D01*
X651306Y256544D01*
X651292Y256530D01*
X651275Y256520D01*
X651208Y256441D01*
X651136Y256366D01*
X651128Y256348D01*
X651115Y256333D01*
X651076Y256237D01*
X651033Y256143D01*
X651031Y256123D01*
X651023Y256105D01*
X651005Y255938D01*
X651005Y254338D01*
X650112Y253445D01*
X649192Y253445D01*
X649172Y253442D01*
X649153Y253444D01*
X649051Y253422D01*
X648949Y253406D01*
X648932Y253396D01*
X648912Y253392D01*
X648823Y253339D01*
X648732Y253290D01*
X648718Y253276D01*
X648701Y253266D01*
X648634Y253187D01*
X648562Y253112D01*
X648554Y253094D01*
X648541Y253079D01*
X648502Y252983D01*
X648459Y252889D01*
X648457Y252869D01*
X648449Y252851D01*
X648431Y252684D01*
X648431Y231055D01*
X637625Y220249D01*
X547285Y220249D01*
X545146Y222388D01*
X541808Y225726D01*
X539669Y227865D01*
X539669Y235804D01*
X539666Y235824D01*
X539668Y235843D01*
X539646Y235945D01*
X539630Y236047D01*
X539620Y236064D01*
X539616Y236084D01*
X539563Y236173D01*
X539514Y236264D01*
X539500Y236278D01*
X539490Y236295D01*
X539411Y236362D01*
X539336Y236434D01*
X539318Y236442D01*
X539303Y236455D01*
X539207Y236494D01*
X539113Y236537D01*
X539093Y236539D01*
X539078Y236545D01*
X537978Y237645D01*
X537962Y237657D01*
X537950Y237673D01*
X537862Y237729D01*
X537779Y237789D01*
X537760Y237795D01*
X537743Y237806D01*
X537642Y237831D01*
X537543Y237861D01*
X537524Y237861D01*
X537504Y237866D01*
X537401Y237858D01*
X537298Y237855D01*
X537279Y237848D01*
X537259Y237847D01*
X537164Y237806D01*
X537067Y237771D01*
X537051Y237758D01*
X537033Y237750D01*
X536902Y237645D01*
X535822Y236565D01*
X528058Y236565D01*
X526978Y237645D01*
X526962Y237657D01*
X526950Y237673D01*
X526862Y237729D01*
X526779Y237789D01*
X526760Y237795D01*
X526743Y237806D01*
X526642Y237831D01*
X526543Y237861D01*
X526524Y237861D01*
X526504Y237866D01*
X526401Y237858D01*
X526298Y237855D01*
X526279Y237848D01*
X526259Y237847D01*
X526164Y237806D01*
X526067Y237771D01*
X526051Y237758D01*
X526033Y237750D01*
X525902Y237645D01*
X524822Y236565D01*
X517058Y236565D01*
X515978Y237645D01*
X515962Y237657D01*
X515950Y237673D01*
X515862Y237729D01*
X515779Y237789D01*
X515760Y237795D01*
X515743Y237806D01*
X515642Y237831D01*
X515543Y237861D01*
X515524Y237861D01*
X515504Y237866D01*
X515401Y237858D01*
X515298Y237855D01*
X515279Y237848D01*
X515259Y237847D01*
X515164Y237806D01*
X515067Y237771D01*
X515051Y237758D01*
X515033Y237750D01*
X514902Y237645D01*
X513822Y236565D01*
X506058Y236565D01*
X504978Y237645D01*
X504962Y237657D01*
X504950Y237673D01*
X504862Y237729D01*
X504779Y237789D01*
X504760Y237795D01*
X504743Y237806D01*
X504642Y237831D01*
X504543Y237861D01*
X504524Y237861D01*
X504504Y237866D01*
X504401Y237858D01*
X504298Y237855D01*
X504279Y237848D01*
X504259Y237847D01*
X504164Y237806D01*
X504067Y237771D01*
X504051Y237758D01*
X504033Y237750D01*
X503902Y237645D01*
X502822Y236565D01*
X497226Y236565D01*
X497155Y236554D01*
X497084Y236552D01*
X497035Y236534D01*
X496983Y236526D01*
X496920Y236492D01*
X496853Y236467D01*
X496812Y236435D01*
X496766Y236410D01*
X496717Y236359D01*
X496661Y236314D01*
X496633Y236270D01*
X496597Y236232D01*
X496567Y236167D01*
X496528Y236107D01*
X496515Y236056D01*
X496493Y236009D01*
X496485Y235938D01*
X496468Y235868D01*
X496472Y235816D01*
X496466Y235765D01*
X496481Y235694D01*
X496487Y235623D01*
X496507Y235575D01*
X496518Y235524D01*
X496555Y235463D01*
X496583Y235397D01*
X496628Y235341D01*
X496644Y235313D01*
X496662Y235298D01*
X496688Y235266D01*
X502670Y229284D01*
X504651Y227303D01*
X504651Y137187D01*
X494853Y127389D01*
X485226Y127389D01*
X485206Y127386D01*
X485187Y127388D01*
X485085Y127366D01*
X484983Y127350D01*
X484966Y127340D01*
X484946Y127336D01*
X484857Y127283D01*
X484766Y127234D01*
X484752Y127220D01*
X484735Y127210D01*
X484668Y127131D01*
X484596Y127056D01*
X484588Y127038D01*
X484575Y127023D01*
X484536Y126927D01*
X484493Y126833D01*
X484491Y126813D01*
X484483Y126795D01*
X484465Y126628D01*
X484465Y126508D01*
X483385Y125428D01*
X483373Y125412D01*
X483357Y125400D01*
X483301Y125312D01*
X483241Y125229D01*
X483235Y125210D01*
X483224Y125193D01*
X483199Y125092D01*
X483169Y124993D01*
X483169Y124974D01*
X483164Y124954D01*
X483172Y124851D01*
X483175Y124748D01*
X483182Y124729D01*
X483183Y124709D01*
X483224Y124614D01*
X483259Y124517D01*
X483272Y124501D01*
X483280Y124483D01*
X483385Y124352D01*
X484465Y123272D01*
X484465Y115508D01*
X483385Y114428D01*
X483373Y114412D01*
X483357Y114400D01*
X483329Y114355D01*
X483297Y114321D01*
X483276Y114278D01*
X483241Y114229D01*
X483235Y114210D01*
X483224Y114193D01*
X483210Y114134D01*
X483193Y114098D01*
X483188Y114058D01*
X483169Y113993D01*
X483169Y113974D01*
X483164Y113954D01*
X483170Y113887D01*
X483166Y113854D01*
X483173Y113820D01*
X483175Y113748D01*
X483182Y113729D01*
X483183Y113709D01*
X483212Y113642D01*
X483218Y113613D01*
X483234Y113588D01*
X483259Y113517D01*
X483272Y113501D01*
X483280Y113483D01*
X483385Y113352D01*
X484465Y112272D01*
X484465Y104508D01*
X483385Y103428D01*
X483373Y103412D01*
X483357Y103400D01*
X483301Y103312D01*
X483241Y103229D01*
X483235Y103210D01*
X483224Y103193D01*
X483199Y103092D01*
X483169Y102993D01*
X483169Y102974D01*
X483164Y102954D01*
X483172Y102851D01*
X483175Y102748D01*
X483182Y102729D01*
X483183Y102709D01*
X483224Y102614D01*
X483259Y102517D01*
X483272Y102501D01*
X483280Y102483D01*
X483385Y102352D01*
X484465Y101272D01*
X484465Y93508D01*
X483572Y92615D01*
X467308Y92615D01*
X466415Y93508D01*
X466415Y101272D01*
X467495Y102352D01*
X467507Y102368D01*
X467523Y102380D01*
X467579Y102468D01*
X467639Y102551D01*
X467645Y102570D01*
X467656Y102587D01*
X467681Y102688D01*
X467711Y102787D01*
X467711Y102806D01*
X467716Y102826D01*
X467708Y102929D01*
X467705Y103032D01*
X467698Y103051D01*
X467697Y103071D01*
X467656Y103166D01*
X467621Y103263D01*
X467608Y103279D01*
X467600Y103297D01*
X467495Y103428D01*
X466386Y104538D01*
X466376Y104601D01*
X466366Y104618D01*
X466362Y104638D01*
X466309Y104727D01*
X466260Y104818D01*
X466246Y104832D01*
X466236Y104849D01*
X466157Y104916D01*
X466082Y104988D01*
X466064Y104996D01*
X466049Y105009D01*
X465953Y105048D01*
X465859Y105091D01*
X465839Y105093D01*
X465821Y105101D01*
X465654Y105119D01*
X460485Y105119D01*
X460054Y105550D01*
X459996Y105592D01*
X459944Y105641D01*
X459897Y105663D01*
X459855Y105694D01*
X459786Y105715D01*
X459721Y105745D01*
X459669Y105751D01*
X459619Y105766D01*
X459548Y105764D01*
X459477Y105772D01*
X459426Y105761D01*
X459374Y105760D01*
X459306Y105735D01*
X459236Y105720D01*
X459191Y105693D01*
X459143Y105675D01*
X459087Y105630D01*
X459025Y105594D01*
X458991Y105554D01*
X458951Y105522D01*
X458912Y105461D01*
X458865Y105407D01*
X458846Y105358D01*
X458818Y105315D01*
X458800Y105245D01*
X458773Y105179D01*
X458765Y105107D01*
X458757Y105076D01*
X458759Y105053D01*
X458755Y105012D01*
X458755Y103588D01*
X457862Y102695D01*
X455762Y102695D01*
X455742Y102692D01*
X455723Y102694D01*
X455621Y102672D01*
X455519Y102656D01*
X455502Y102646D01*
X455482Y102642D01*
X455393Y102589D01*
X455302Y102540D01*
X455288Y102526D01*
X455271Y102516D01*
X455204Y102437D01*
X455132Y102362D01*
X455124Y102344D01*
X455111Y102329D01*
X455072Y102233D01*
X455029Y102139D01*
X455027Y102119D01*
X455019Y102101D01*
X455001Y101934D01*
X455001Y101266D01*
X455004Y101246D01*
X455002Y101227D01*
X455024Y101125D01*
X455040Y101023D01*
X455050Y101006D01*
X455054Y100986D01*
X455107Y100897D01*
X455156Y100806D01*
X455170Y100792D01*
X455180Y100775D01*
X455259Y100708D01*
X455334Y100636D01*
X455352Y100628D01*
X455367Y100615D01*
X455463Y100576D01*
X455557Y100533D01*
X455577Y100531D01*
X455595Y100523D01*
X455762Y100505D01*
X457862Y100505D01*
X458755Y99612D01*
X458755Y88348D01*
X457862Y87455D01*
X445598Y87455D01*
X444705Y88348D01*
X444705Y99612D01*
X445598Y100505D01*
X447698Y100505D01*
X447718Y100508D01*
X447737Y100506D01*
X447839Y100528D01*
X447941Y100544D01*
X447958Y100554D01*
X447978Y100558D01*
X448067Y100611D01*
X448158Y100660D01*
X448172Y100674D01*
X448189Y100684D01*
X448256Y100763D01*
X448328Y100838D01*
X448336Y100856D01*
X448349Y100871D01*
X448388Y100967D01*
X448431Y101061D01*
X448433Y101081D01*
X448441Y101099D01*
X448459Y101266D01*
X448459Y101934D01*
X448456Y101954D01*
X448458Y101973D01*
X448436Y102075D01*
X448420Y102177D01*
X448410Y102194D01*
X448406Y102214D01*
X448353Y102303D01*
X448304Y102394D01*
X448290Y102408D01*
X448280Y102425D01*
X448201Y102492D01*
X448126Y102564D01*
X448108Y102572D01*
X448093Y102585D01*
X447997Y102624D01*
X447903Y102667D01*
X447883Y102669D01*
X447865Y102677D01*
X447698Y102695D01*
X445598Y102695D01*
X444705Y103588D01*
X444705Y114852D01*
X445598Y115745D01*
X457862Y115745D01*
X458755Y114852D01*
X458755Y113252D01*
X458758Y113232D01*
X458756Y113213D01*
X458778Y113111D01*
X458794Y113009D01*
X458804Y112992D01*
X458808Y112972D01*
X458861Y112883D01*
X458910Y112792D01*
X458924Y112778D01*
X458934Y112761D01*
X459013Y112694D01*
X459088Y112622D01*
X459106Y112614D01*
X459121Y112601D01*
X459217Y112562D01*
X459311Y112519D01*
X459331Y112517D01*
X459349Y112509D01*
X459516Y112491D01*
X462365Y112491D01*
X462972Y111884D01*
X463046Y111831D01*
X463115Y111771D01*
X463145Y111759D01*
X463172Y111740D01*
X463259Y111713D01*
X463343Y111679D01*
X463384Y111675D01*
X463407Y111668D01*
X463439Y111669D01*
X463510Y111661D01*
X465654Y111661D01*
X465674Y111664D01*
X465693Y111662D01*
X465795Y111684D01*
X465897Y111700D01*
X465914Y111710D01*
X465934Y111714D01*
X466023Y111767D01*
X466114Y111816D01*
X466128Y111830D01*
X466145Y111840D01*
X466212Y111919D01*
X466284Y111994D01*
X466292Y112012D01*
X466305Y112027D01*
X466344Y112123D01*
X466387Y112217D01*
X466389Y112237D01*
X466395Y112252D01*
X467495Y113352D01*
X467507Y113368D01*
X467523Y113380D01*
X467564Y113445D01*
X467583Y113465D01*
X467595Y113491D01*
X467639Y113551D01*
X467645Y113570D01*
X467656Y113587D01*
X467674Y113660D01*
X467687Y113688D01*
X467690Y113718D01*
X467711Y113787D01*
X467711Y113806D01*
X467716Y113826D01*
X467710Y113897D01*
X467714Y113933D01*
X467707Y113967D01*
X467705Y114032D01*
X467698Y114051D01*
X467697Y114071D01*
X467671Y114131D01*
X467662Y114173D01*
X467640Y114209D01*
X467621Y114263D01*
X467608Y114279D01*
X467600Y114297D01*
X467550Y114360D01*
X467536Y114384D01*
X467520Y114398D01*
X467495Y114428D01*
X466415Y115508D01*
X466415Y123272D01*
X467495Y124352D01*
X467507Y124368D01*
X467523Y124380D01*
X467579Y124468D01*
X467639Y124551D01*
X467645Y124570D01*
X467656Y124587D01*
X467681Y124688D01*
X467711Y124787D01*
X467711Y124807D01*
X467716Y124826D01*
X467708Y124929D01*
X467705Y125032D01*
X467698Y125051D01*
X467697Y125071D01*
X467656Y125166D01*
X467621Y125263D01*
X467608Y125279D01*
X467600Y125297D01*
X467495Y125428D01*
X467297Y125626D01*
X467223Y125679D01*
X467154Y125739D01*
X467124Y125751D01*
X467098Y125770D01*
X467011Y125797D01*
X466926Y125831D01*
X466885Y125835D01*
X466863Y125842D01*
X466830Y125841D01*
X466759Y125849D01*
X440032Y125849D01*
X440012Y125846D01*
X439993Y125848D01*
X439891Y125826D01*
X439789Y125810D01*
X439772Y125800D01*
X439752Y125796D01*
X439663Y125743D01*
X439572Y125694D01*
X439558Y125680D01*
X439541Y125670D01*
X439474Y125591D01*
X439402Y125516D01*
X439394Y125498D01*
X439381Y125483D01*
X439342Y125387D01*
X439299Y125293D01*
X439297Y125273D01*
X439289Y125255D01*
X439271Y125088D01*
X439271Y116506D01*
X439274Y116486D01*
X439272Y116467D01*
X439294Y116365D01*
X439310Y116263D01*
X439320Y116246D01*
X439324Y116226D01*
X439377Y116137D01*
X439426Y116046D01*
X439440Y116032D01*
X439450Y116015D01*
X439529Y115948D01*
X439604Y115876D01*
X439622Y115868D01*
X439637Y115855D01*
X439733Y115816D01*
X439827Y115773D01*
X439847Y115771D01*
X439865Y115763D01*
X440032Y115745D01*
X440862Y115745D01*
X441755Y114852D01*
X441755Y103588D01*
X440862Y102695D01*
X428598Y102695D01*
X427705Y103588D01*
X427705Y114852D01*
X428598Y115745D01*
X429428Y115745D01*
X429448Y115748D01*
X429467Y115746D01*
X429569Y115768D01*
X429671Y115784D01*
X429688Y115794D01*
X429708Y115798D01*
X429797Y115851D01*
X429888Y115900D01*
X429902Y115914D01*
X429919Y115924D01*
X429986Y116003D01*
X430058Y116078D01*
X430066Y116096D01*
X430079Y116111D01*
X430118Y116207D01*
X430161Y116301D01*
X430163Y116321D01*
X430171Y116339D01*
X430189Y116506D01*
X430189Y125088D01*
X430186Y125108D01*
X430188Y125127D01*
X430166Y125229D01*
X430150Y125331D01*
X430140Y125348D01*
X430136Y125368D01*
X430083Y125457D01*
X430034Y125548D01*
X430020Y125562D01*
X430010Y125579D01*
X429931Y125646D01*
X429856Y125718D01*
X429838Y125726D01*
X429823Y125739D01*
X429727Y125778D01*
X429633Y125821D01*
X429613Y125823D01*
X429595Y125831D01*
X429428Y125849D01*
X421306Y125849D01*
X421286Y125846D01*
X421267Y125848D01*
X421165Y125826D01*
X421063Y125810D01*
X421046Y125800D01*
X421026Y125796D01*
X420937Y125743D01*
X420846Y125694D01*
X420832Y125680D01*
X420815Y125670D01*
X420748Y125591D01*
X420676Y125516D01*
X420668Y125498D01*
X420655Y125483D01*
X420616Y125387D01*
X420573Y125293D01*
X420571Y125273D01*
X420563Y125255D01*
X420545Y125088D01*
X420545Y116668D01*
X419652Y115775D01*
X408388Y115775D01*
X407495Y116668D01*
X407495Y125088D01*
X407492Y125108D01*
X407494Y125127D01*
X407472Y125229D01*
X407456Y125331D01*
X407446Y125348D01*
X407442Y125368D01*
X407389Y125457D01*
X407340Y125548D01*
X407326Y125562D01*
X407316Y125579D01*
X407237Y125646D01*
X407162Y125718D01*
X407144Y125726D01*
X407129Y125739D01*
X407033Y125778D01*
X406939Y125821D01*
X406919Y125823D01*
X406901Y125831D01*
X406734Y125849D01*
X403860Y125849D01*
X403840Y125846D01*
X403821Y125848D01*
X403719Y125826D01*
X403617Y125810D01*
X403600Y125800D01*
X403580Y125796D01*
X403491Y125743D01*
X403400Y125694D01*
X403386Y125680D01*
X403369Y125670D01*
X403302Y125591D01*
X403231Y125516D01*
X403222Y125498D01*
X403209Y125483D01*
X403170Y125387D01*
X403127Y125293D01*
X403125Y125273D01*
X403117Y125255D01*
X403099Y125088D01*
X403099Y101091D01*
X373695Y101091D01*
X370108Y104678D01*
X370034Y104731D01*
X369965Y104791D01*
X369935Y104803D01*
X369909Y104822D01*
X369822Y104849D01*
X369737Y104883D01*
X369696Y104887D01*
X369673Y104894D01*
X369641Y104893D01*
X369570Y104901D01*
X330200Y104901D01*
X330180Y104898D01*
X330161Y104900D01*
X330059Y104878D01*
X329957Y104862D01*
X329940Y104852D01*
X329920Y104848D01*
X329831Y104795D01*
X329740Y104746D01*
X329726Y104732D01*
X329709Y104722D01*
X329642Y104643D01*
X329571Y104568D01*
X329562Y104550D01*
X329549Y104535D01*
X329510Y104439D01*
X329467Y104345D01*
X329465Y104325D01*
X329457Y104307D01*
X329439Y104140D01*
X329439Y71120D01*
X329442Y71100D01*
X329440Y71081D01*
X329462Y70979D01*
X329479Y70877D01*
X329488Y70860D01*
X329492Y70840D01*
X329545Y70751D01*
X329594Y70660D01*
X329608Y70646D01*
X329618Y70629D01*
X329697Y70562D01*
X329772Y70491D01*
X329790Y70482D01*
X329805Y70469D01*
X329901Y70430D01*
X329995Y70387D01*
X330015Y70385D01*
X330033Y70377D01*
X330200Y70359D01*
X403099Y70359D01*
X403099Y3512D01*
X403102Y3492D01*
X403100Y3473D01*
X403122Y3371D01*
X403139Y3269D01*
X403148Y3252D01*
X403152Y3232D01*
X403205Y3143D01*
X403254Y3052D01*
X403268Y3038D01*
X403278Y3021D01*
X403357Y2954D01*
X403432Y2882D01*
X403450Y2874D01*
X403465Y2861D01*
X403561Y2822D01*
X403655Y2779D01*
X403675Y2777D01*
X403693Y2769D01*
X403860Y2751D01*
X665480Y2751D01*
X665500Y2754D01*
G37*
G36*
X105430Y262132D02*
X105430Y262132D01*
X105449Y262130D01*
X105551Y262152D01*
X105653Y262169D01*
X105670Y262178D01*
X105690Y262182D01*
X105779Y262235D01*
X105870Y262284D01*
X105884Y262298D01*
X105901Y262308D01*
X105968Y262387D01*
X106040Y262462D01*
X106048Y262480D01*
X106061Y262495D01*
X106100Y262591D01*
X106143Y262685D01*
X106145Y262705D01*
X106153Y262723D01*
X106171Y262890D01*
X106171Y287910D01*
X712470Y287910D01*
X712544Y287927D01*
X712619Y287940D01*
X712629Y287947D01*
X712639Y287949D01*
X712668Y287973D01*
X712739Y288021D01*
X715279Y290561D01*
X715319Y290626D01*
X715363Y290688D01*
X715365Y290700D01*
X715370Y290708D01*
X715374Y290745D01*
X715390Y290830D01*
X715390Y367030D01*
X715379Y367080D01*
X715377Y367131D01*
X715359Y367163D01*
X715351Y367199D01*
X715318Y367238D01*
X715294Y367283D01*
X715264Y367304D01*
X715241Y367332D01*
X715194Y367353D01*
X715152Y367383D01*
X715110Y367391D01*
X715082Y367403D01*
X715052Y367402D01*
X715010Y367410D01*
X622300Y367410D01*
X622250Y367399D01*
X622199Y367397D01*
X622167Y367379D01*
X622131Y367371D01*
X622092Y367338D01*
X622047Y367314D01*
X622026Y367284D01*
X621998Y367261D01*
X621977Y367214D01*
X621947Y367172D01*
X621939Y367130D01*
X621927Y367102D01*
X621928Y367076D01*
X621927Y367074D01*
X621927Y367067D01*
X621920Y367030D01*
X621920Y351790D01*
X621931Y351740D01*
X621933Y351691D01*
X621945Y351669D01*
X621950Y351641D01*
X621957Y351631D01*
X621959Y351621D01*
X621983Y351592D01*
X622003Y351563D01*
X622016Y351539D01*
X622022Y351535D01*
X622031Y351521D01*
X637160Y336393D01*
X637160Y297560D01*
X583088Y297560D01*
X573150Y307498D01*
X573150Y367030D01*
X573139Y367080D01*
X573137Y367131D01*
X573119Y367163D01*
X573111Y367199D01*
X573078Y367238D01*
X573054Y367283D01*
X573024Y367304D01*
X573001Y367332D01*
X572954Y367353D01*
X572912Y367383D01*
X572870Y367391D01*
X572842Y367403D01*
X572812Y367402D01*
X572770Y367410D01*
X480060Y367410D01*
X480010Y367399D01*
X479959Y367397D01*
X479927Y367379D01*
X479891Y367371D01*
X479852Y367338D01*
X479807Y367314D01*
X479786Y367284D01*
X479758Y367261D01*
X479737Y367214D01*
X479707Y367172D01*
X479699Y367130D01*
X479687Y367102D01*
X479688Y367076D01*
X479687Y367074D01*
X479687Y367067D01*
X479680Y367030D01*
X479680Y353060D01*
X479697Y352986D01*
X479710Y352911D01*
X479717Y352901D01*
X479719Y352891D01*
X479743Y352862D01*
X479791Y352791D01*
X493650Y338933D01*
X493650Y297560D01*
X442118Y297560D01*
X433450Y306228D01*
X433450Y365760D01*
X433439Y365810D01*
X433437Y365861D01*
X433419Y365893D01*
X433411Y365929D01*
X433378Y365968D01*
X433354Y366013D01*
X433324Y366034D01*
X433301Y366062D01*
X433254Y366083D01*
X433212Y366113D01*
X433170Y366121D01*
X433142Y366133D01*
X433112Y366132D01*
X433070Y366140D01*
X339090Y366140D01*
X339040Y366129D01*
X338989Y366127D01*
X338957Y366109D01*
X338921Y366101D01*
X338882Y366068D01*
X338837Y366044D01*
X338816Y366014D01*
X338788Y365991D01*
X338767Y365944D01*
X338737Y365902D01*
X338729Y365860D01*
X338717Y365832D01*
X338718Y365802D01*
X338710Y365760D01*
X338710Y351790D01*
X338721Y351740D01*
X338723Y351691D01*
X338735Y351669D01*
X338740Y351641D01*
X338747Y351631D01*
X338749Y351621D01*
X338773Y351592D01*
X338793Y351563D01*
X338806Y351539D01*
X338812Y351535D01*
X338821Y351521D01*
X353950Y336393D01*
X353950Y297560D01*
X299878Y297560D01*
X292480Y304958D01*
X292480Y364490D01*
X292469Y364540D01*
X292467Y364591D01*
X292449Y364623D01*
X292441Y364659D01*
X292408Y364698D01*
X292384Y364743D01*
X292354Y364764D01*
X292331Y364792D01*
X292284Y364813D01*
X292242Y364843D01*
X292200Y364851D01*
X292172Y364863D01*
X292142Y364862D01*
X292100Y364870D01*
X200660Y364870D01*
X200610Y364859D01*
X200559Y364857D01*
X200527Y364839D01*
X200491Y364831D01*
X200452Y364798D01*
X200407Y364774D01*
X200386Y364744D01*
X200358Y364721D01*
X200337Y364674D01*
X200307Y364632D01*
X200299Y364590D01*
X200287Y364562D01*
X200288Y364532D01*
X200280Y364490D01*
X200280Y350520D01*
X200297Y350446D01*
X200310Y350371D01*
X200317Y350361D01*
X200319Y350351D01*
X200343Y350322D01*
X200391Y350251D01*
X214250Y336393D01*
X214250Y297560D01*
X162718Y297560D01*
X154050Y306228D01*
X154050Y364490D01*
X154039Y364540D01*
X154037Y364591D01*
X154019Y364623D01*
X154011Y364659D01*
X153978Y364698D01*
X153954Y364743D01*
X153924Y364764D01*
X153901Y364792D01*
X153854Y364813D01*
X153812Y364843D01*
X153770Y364851D01*
X153742Y364863D01*
X153712Y364862D01*
X153670Y364870D01*
X60960Y364870D01*
X60910Y364859D01*
X60859Y364857D01*
X60827Y364839D01*
X60791Y364831D01*
X60752Y364798D01*
X60707Y364774D01*
X60686Y364744D01*
X60658Y364721D01*
X60637Y364674D01*
X60607Y364632D01*
X60599Y364590D01*
X60587Y364562D01*
X60588Y364532D01*
X60580Y364490D01*
X60580Y349250D01*
X60597Y349176D01*
X60610Y349101D01*
X60617Y349091D01*
X60619Y349081D01*
X60643Y349052D01*
X60691Y348981D01*
X72010Y337663D01*
X72010Y290830D01*
X72027Y290756D01*
X72040Y290681D01*
X72047Y290671D01*
X72049Y290661D01*
X72073Y290632D01*
X72121Y290561D01*
X74661Y288021D01*
X74726Y287981D01*
X74788Y287937D01*
X74800Y287935D01*
X74808Y287930D01*
X74845Y287926D01*
X74930Y287910D01*
X75504Y287910D01*
X76709Y286705D01*
X76709Y262890D01*
X76712Y262870D01*
X76710Y262851D01*
X76732Y262749D01*
X76749Y262647D01*
X76758Y262630D01*
X76762Y262610D01*
X76815Y262521D01*
X76864Y262430D01*
X76878Y262416D01*
X76888Y262399D01*
X76967Y262332D01*
X77042Y262261D01*
X77060Y262252D01*
X77075Y262239D01*
X77171Y262200D01*
X77265Y262157D01*
X77285Y262155D01*
X77303Y262147D01*
X77470Y262129D01*
X105410Y262129D01*
X105430Y262132D01*
G37*
G36*
X492142Y133405D02*
X492142Y133405D01*
X492233Y133413D01*
X492263Y133425D01*
X492294Y133430D01*
X492375Y133473D01*
X492459Y133509D01*
X492491Y133535D01*
X492512Y133546D01*
X492534Y133569D01*
X492590Y133614D01*
X498426Y139450D01*
X498479Y139524D01*
X498539Y139593D01*
X498551Y139624D01*
X498570Y139650D01*
X498597Y139737D01*
X498631Y139822D01*
X498635Y139862D01*
X498642Y139885D01*
X498641Y139917D01*
X498649Y139988D01*
X498649Y224502D01*
X498635Y224592D01*
X498627Y224683D01*
X498615Y224713D01*
X498610Y224745D01*
X498567Y224825D01*
X498531Y224909D01*
X498505Y224941D01*
X498494Y224962D01*
X498471Y224984D01*
X498426Y225040D01*
X481580Y241886D01*
X481506Y241939D01*
X481437Y241999D01*
X481406Y242011D01*
X481380Y242030D01*
X481293Y242057D01*
X481208Y242091D01*
X481168Y242095D01*
X481145Y242102D01*
X481113Y242101D01*
X481042Y242109D01*
X451866Y242109D01*
X451846Y242106D01*
X451827Y242108D01*
X451725Y242086D01*
X451623Y242070D01*
X451606Y242060D01*
X451586Y242056D01*
X451497Y242003D01*
X451406Y241954D01*
X451392Y241940D01*
X451375Y241930D01*
X451308Y241851D01*
X451236Y241776D01*
X451228Y241758D01*
X451215Y241743D01*
X451176Y241647D01*
X451133Y241553D01*
X451131Y241533D01*
X451123Y241515D01*
X451105Y241348D01*
X451105Y238128D01*
X450212Y237235D01*
X443868Y237235D01*
X442975Y238128D01*
X442975Y252092D01*
X443868Y252985D01*
X450212Y252985D01*
X451105Y252092D01*
X451105Y248872D01*
X451108Y248852D01*
X451106Y248833D01*
X451128Y248731D01*
X451144Y248629D01*
X451154Y248612D01*
X451158Y248592D01*
X451211Y248503D01*
X451260Y248412D01*
X451274Y248398D01*
X451284Y248381D01*
X451363Y248314D01*
X451438Y248242D01*
X451456Y248234D01*
X451471Y248221D01*
X451567Y248182D01*
X451661Y248139D01*
X451681Y248137D01*
X451699Y248129D01*
X451866Y248111D01*
X483843Y248111D01*
X485824Y246130D01*
X492866Y239088D01*
X492924Y239046D01*
X492976Y238997D01*
X493023Y238975D01*
X493065Y238944D01*
X493134Y238923D01*
X493199Y238893D01*
X493251Y238887D01*
X493301Y238872D01*
X493372Y238874D01*
X493443Y238866D01*
X493494Y238877D01*
X493546Y238878D01*
X493614Y238903D01*
X493684Y238918D01*
X493728Y238945D01*
X493777Y238963D01*
X493833Y239008D01*
X493895Y239044D01*
X493929Y239084D01*
X493969Y239117D01*
X494008Y239177D01*
X494055Y239231D01*
X494074Y239280D01*
X494102Y239323D01*
X494120Y239393D01*
X494147Y239459D01*
X494155Y239531D01*
X494163Y239562D01*
X494161Y239585D01*
X494165Y239626D01*
X494165Y253722D01*
X495058Y254615D01*
X502822Y254615D01*
X503902Y253535D01*
X503918Y253523D01*
X503930Y253507D01*
X504018Y253451D01*
X504101Y253391D01*
X504120Y253385D01*
X504137Y253374D01*
X504238Y253349D01*
X504337Y253319D01*
X504356Y253319D01*
X504376Y253314D01*
X504479Y253322D01*
X504582Y253325D01*
X504601Y253332D01*
X504621Y253333D01*
X504716Y253374D01*
X504813Y253409D01*
X504829Y253422D01*
X504847Y253430D01*
X504978Y253535D01*
X506088Y254644D01*
X506151Y254654D01*
X506168Y254664D01*
X506188Y254668D01*
X506277Y254721D01*
X506368Y254770D01*
X506382Y254784D01*
X506399Y254794D01*
X506466Y254873D01*
X506538Y254948D01*
X506546Y254966D01*
X506559Y254981D01*
X506598Y255077D01*
X506641Y255171D01*
X506643Y255191D01*
X506651Y255209D01*
X506669Y255376D01*
X506669Y259090D01*
X506655Y259180D01*
X506647Y259271D01*
X506635Y259301D01*
X506630Y259333D01*
X506587Y259413D01*
X506551Y259497D01*
X506525Y259529D01*
X506514Y259550D01*
X506491Y259572D01*
X506446Y259628D01*
X503058Y263016D01*
X502984Y263069D01*
X502915Y263129D01*
X502885Y263141D01*
X502858Y263160D01*
X502771Y263187D01*
X502687Y263221D01*
X502646Y263225D01*
X502623Y263232D01*
X502591Y263231D01*
X502520Y263239D01*
X399061Y263239D01*
X398971Y263225D01*
X398880Y263217D01*
X398850Y263205D01*
X398818Y263200D01*
X398737Y263157D01*
X398653Y263121D01*
X398621Y263095D01*
X398601Y263084D01*
X398578Y263061D01*
X398522Y263016D01*
X384235Y248729D01*
X205115Y248729D01*
X195959Y257885D01*
X195959Y265034D01*
X195956Y265054D01*
X195958Y265073D01*
X195936Y265175D01*
X195920Y265277D01*
X195910Y265294D01*
X195906Y265314D01*
X195853Y265403D01*
X195804Y265494D01*
X195790Y265508D01*
X195780Y265525D01*
X195701Y265592D01*
X195626Y265664D01*
X195608Y265672D01*
X195593Y265685D01*
X195497Y265724D01*
X195403Y265767D01*
X195383Y265769D01*
X195365Y265777D01*
X195198Y265795D01*
X193098Y265795D01*
X192205Y266688D01*
X192205Y281952D01*
X193098Y282845D01*
X205362Y282845D01*
X206255Y281952D01*
X206255Y266688D01*
X205362Y265795D01*
X203262Y265795D01*
X203242Y265792D01*
X203223Y265794D01*
X203121Y265772D01*
X203019Y265756D01*
X203002Y265746D01*
X202982Y265742D01*
X202893Y265689D01*
X202802Y265640D01*
X202788Y265626D01*
X202771Y265616D01*
X202704Y265537D01*
X202632Y265462D01*
X202624Y265444D01*
X202611Y265429D01*
X202572Y265333D01*
X202529Y265239D01*
X202527Y265219D01*
X202519Y265201D01*
X202501Y265034D01*
X202501Y260910D01*
X202515Y260820D01*
X202523Y260729D01*
X202535Y260699D01*
X202540Y260667D01*
X202583Y260587D01*
X202619Y260503D01*
X202645Y260471D01*
X202656Y260450D01*
X202679Y260428D01*
X202724Y260372D01*
X207602Y255494D01*
X207676Y255441D01*
X207745Y255381D01*
X207775Y255369D01*
X207802Y255350D01*
X207889Y255323D01*
X207973Y255289D01*
X208014Y255285D01*
X208037Y255278D01*
X208069Y255279D01*
X208140Y255271D01*
X246266Y255271D01*
X246337Y255282D01*
X246408Y255284D01*
X246457Y255302D01*
X246509Y255310D01*
X246572Y255344D01*
X246639Y255369D01*
X246680Y255401D01*
X246726Y255426D01*
X246775Y255478D01*
X246831Y255522D01*
X246860Y255566D01*
X246895Y255604D01*
X246926Y255669D01*
X246964Y255729D01*
X246977Y255780D01*
X246999Y255827D01*
X247007Y255898D01*
X247024Y255968D01*
X247020Y256020D01*
X247026Y256071D01*
X247011Y256142D01*
X247005Y256213D01*
X246985Y256261D01*
X246974Y256312D01*
X246937Y256373D01*
X246909Y256439D01*
X246864Y256495D01*
X246848Y256523D01*
X246830Y256538D01*
X246804Y256570D01*
X241679Y261695D01*
X241679Y265034D01*
X241676Y265054D01*
X241678Y265073D01*
X241656Y265175D01*
X241640Y265277D01*
X241630Y265294D01*
X241626Y265314D01*
X241573Y265403D01*
X241524Y265494D01*
X241510Y265508D01*
X241500Y265525D01*
X241421Y265592D01*
X241346Y265664D01*
X241328Y265672D01*
X241313Y265685D01*
X241217Y265724D01*
X241123Y265767D01*
X241103Y265769D01*
X241085Y265777D01*
X240918Y265795D01*
X238818Y265795D01*
X237925Y266688D01*
X237925Y281952D01*
X238818Y282845D01*
X251082Y282845D01*
X251975Y281952D01*
X251975Y266688D01*
X251082Y265795D01*
X248982Y265795D01*
X248962Y265792D01*
X248943Y265794D01*
X248841Y265772D01*
X248739Y265756D01*
X248722Y265746D01*
X248702Y265742D01*
X248613Y265689D01*
X248522Y265640D01*
X248508Y265626D01*
X248491Y265616D01*
X248424Y265537D01*
X248352Y265462D01*
X248344Y265444D01*
X248331Y265429D01*
X248292Y265333D01*
X248249Y265239D01*
X248247Y265219D01*
X248239Y265201D01*
X248221Y265034D01*
X248221Y264720D01*
X248235Y264630D01*
X248243Y264539D01*
X248255Y264509D01*
X248260Y264477D01*
X248303Y264397D01*
X248339Y264313D01*
X248365Y264281D01*
X248376Y264260D01*
X248399Y264238D01*
X248444Y264182D01*
X252592Y260034D01*
X252666Y259981D01*
X252735Y259921D01*
X252765Y259909D01*
X252792Y259890D01*
X252879Y259863D01*
X252963Y259829D01*
X253004Y259825D01*
X253027Y259818D01*
X253059Y259819D01*
X253130Y259811D01*
X378060Y259811D01*
X378150Y259825D01*
X378241Y259833D01*
X378271Y259845D01*
X378303Y259850D01*
X378383Y259893D01*
X378467Y259929D01*
X378499Y259955D01*
X378520Y259966D01*
X378542Y259989D01*
X378598Y260034D01*
X389584Y271020D01*
X389626Y271078D01*
X389675Y271130D01*
X389697Y271177D01*
X389728Y271219D01*
X389749Y271288D01*
X389779Y271353D01*
X389785Y271405D01*
X389800Y271455D01*
X389798Y271526D01*
X389806Y271597D01*
X389795Y271648D01*
X389794Y271700D01*
X389769Y271768D01*
X389754Y271838D01*
X389727Y271883D01*
X389709Y271931D01*
X389664Y271987D01*
X389628Y272049D01*
X389588Y272083D01*
X389556Y272123D01*
X389495Y272162D01*
X389441Y272209D01*
X389392Y272228D01*
X389349Y272256D01*
X389279Y272274D01*
X389213Y272301D01*
X389141Y272309D01*
X389110Y272317D01*
X389087Y272315D01*
X389046Y272319D01*
X384816Y272319D01*
X384796Y272316D01*
X384777Y272318D01*
X384675Y272296D01*
X384573Y272280D01*
X384556Y272270D01*
X384536Y272266D01*
X384447Y272213D01*
X384356Y272164D01*
X384342Y272150D01*
X384325Y272140D01*
X384258Y272061D01*
X384186Y271986D01*
X384178Y271968D01*
X384165Y271953D01*
X384126Y271857D01*
X384083Y271763D01*
X384081Y271743D01*
X384073Y271725D01*
X384055Y271558D01*
X384055Y267958D01*
X383162Y267065D01*
X370898Y267065D01*
X370005Y267958D01*
X370005Y283222D01*
X370725Y283942D01*
X370767Y284000D01*
X370817Y284052D01*
X370839Y284099D01*
X370869Y284141D01*
X370890Y284210D01*
X370920Y284275D01*
X370926Y284327D01*
X370941Y284377D01*
X370939Y284448D01*
X370947Y284519D01*
X370936Y284570D01*
X370935Y284622D01*
X370910Y284690D01*
X370895Y284760D01*
X370868Y284804D01*
X370851Y284853D01*
X370806Y284909D01*
X370769Y284971D01*
X370729Y285005D01*
X370697Y285045D01*
X370637Y285084D01*
X370582Y285131D01*
X370534Y285150D01*
X370490Y285178D01*
X370420Y285196D01*
X370354Y285223D01*
X370283Y285231D01*
X370251Y285239D01*
X370228Y285237D01*
X370187Y285241D01*
X363873Y285241D01*
X363802Y285230D01*
X363730Y285228D01*
X363681Y285210D01*
X363630Y285202D01*
X363567Y285168D01*
X363499Y285143D01*
X363459Y285111D01*
X363413Y285086D01*
X363363Y285035D01*
X363307Y284990D01*
X363279Y284946D01*
X363243Y284908D01*
X363213Y284843D01*
X363174Y284783D01*
X363162Y284732D01*
X363140Y284685D01*
X363132Y284614D01*
X363114Y284544D01*
X363118Y284492D01*
X363113Y284441D01*
X363128Y284370D01*
X363133Y284299D01*
X363154Y284251D01*
X363165Y284200D01*
X363202Y284139D01*
X363230Y284073D01*
X363275Y284017D01*
X363291Y283989D01*
X363309Y283974D01*
X363335Y283942D01*
X364055Y283222D01*
X364055Y267958D01*
X363162Y267065D01*
X350898Y267065D01*
X350005Y267958D01*
X350005Y271166D01*
X349994Y271237D01*
X349992Y271309D01*
X349974Y271358D01*
X349966Y271409D01*
X349932Y271472D01*
X349907Y271540D01*
X349875Y271580D01*
X349850Y271626D01*
X349798Y271676D01*
X349754Y271732D01*
X349710Y271760D01*
X349672Y271796D01*
X349607Y271826D01*
X349547Y271865D01*
X349496Y271877D01*
X349449Y271899D01*
X349378Y271907D01*
X349308Y271925D01*
X349256Y271921D01*
X349205Y271926D01*
X349134Y271911D01*
X349063Y271906D01*
X349015Y271885D01*
X348964Y271874D01*
X348903Y271837D01*
X348837Y271809D01*
X348781Y271764D01*
X348753Y271748D01*
X348738Y271730D01*
X348706Y271704D01*
X347535Y270533D01*
X343345Y270533D01*
X340383Y273495D01*
X340383Y277685D01*
X343345Y280647D01*
X347535Y280647D01*
X348706Y279476D01*
X348764Y279434D01*
X348816Y279384D01*
X348863Y279362D01*
X348905Y279332D01*
X348974Y279311D01*
X349039Y279281D01*
X349091Y279275D01*
X349141Y279260D01*
X349212Y279262D01*
X349283Y279254D01*
X349334Y279265D01*
X349386Y279266D01*
X349454Y279291D01*
X349524Y279306D01*
X349569Y279333D01*
X349617Y279350D01*
X349673Y279395D01*
X349735Y279432D01*
X349769Y279472D01*
X349809Y279504D01*
X349848Y279564D01*
X349895Y279619D01*
X349914Y279667D01*
X349942Y279711D01*
X349960Y279781D01*
X349987Y279847D01*
X349995Y279918D01*
X350003Y279950D01*
X350001Y279973D01*
X350005Y280014D01*
X350005Y283222D01*
X350725Y283942D01*
X350767Y284000D01*
X350817Y284052D01*
X350839Y284099D01*
X350869Y284141D01*
X350890Y284210D01*
X350920Y284275D01*
X350926Y284327D01*
X350941Y284377D01*
X350939Y284448D01*
X350947Y284519D01*
X350936Y284570D01*
X350935Y284622D01*
X350910Y284690D01*
X350895Y284760D01*
X350868Y284804D01*
X350851Y284853D01*
X350806Y284909D01*
X350769Y284971D01*
X350729Y285005D01*
X350697Y285045D01*
X350637Y285084D01*
X350582Y285131D01*
X350534Y285150D01*
X350490Y285178D01*
X350420Y285196D01*
X350354Y285223D01*
X350283Y285231D01*
X350251Y285239D01*
X350228Y285237D01*
X350187Y285241D01*
X151130Y285241D01*
X151110Y285238D01*
X151091Y285240D01*
X150989Y285218D01*
X150887Y285202D01*
X150870Y285192D01*
X150850Y285188D01*
X150761Y285135D01*
X150670Y285086D01*
X150656Y285072D01*
X150639Y285062D01*
X150572Y284983D01*
X150501Y284908D01*
X150492Y284890D01*
X150479Y284875D01*
X150440Y284779D01*
X150397Y284685D01*
X150395Y284665D01*
X150387Y284647D01*
X150369Y284480D01*
X150369Y241300D01*
X150384Y241210D01*
X150391Y241119D01*
X150403Y241089D01*
X150409Y241057D01*
X150451Y240977D01*
X150487Y240893D01*
X150513Y240861D01*
X150524Y240840D01*
X150547Y240818D01*
X150592Y240762D01*
X156942Y234412D01*
X157016Y234359D01*
X157085Y234299D01*
X157115Y234287D01*
X157141Y234268D01*
X157228Y234241D01*
X157313Y234207D01*
X157354Y234203D01*
X157377Y234196D01*
X157409Y234197D01*
X157480Y234189D01*
X403099Y234189D01*
X403099Y135692D01*
X403102Y135672D01*
X403100Y135653D01*
X403122Y135551D01*
X403139Y135449D01*
X403148Y135432D01*
X403152Y135412D01*
X403205Y135323D01*
X403254Y135232D01*
X403268Y135218D01*
X403278Y135201D01*
X403357Y135134D01*
X403432Y135062D01*
X403450Y135054D01*
X403465Y135041D01*
X403561Y135002D01*
X403655Y134959D01*
X403675Y134957D01*
X403693Y134949D01*
X403860Y134931D01*
X466759Y134931D01*
X466849Y134945D01*
X466940Y134953D01*
X466970Y134965D01*
X467002Y134970D01*
X467083Y135013D01*
X467166Y135049D01*
X467199Y135075D01*
X467219Y135086D01*
X467241Y135109D01*
X467297Y135154D01*
X467308Y135165D01*
X483572Y135165D01*
X484465Y134272D01*
X484465Y134152D01*
X484468Y134132D01*
X484466Y134113D01*
X484488Y134011D01*
X484504Y133909D01*
X484514Y133892D01*
X484518Y133872D01*
X484571Y133783D01*
X484620Y133692D01*
X484634Y133678D01*
X484644Y133661D01*
X484723Y133594D01*
X484798Y133522D01*
X484816Y133514D01*
X484831Y133501D01*
X484927Y133462D01*
X485021Y133419D01*
X485041Y133417D01*
X485059Y133409D01*
X485226Y133391D01*
X492052Y133391D01*
X492142Y133405D01*
G37*
G36*
X189248Y361294D02*
X189248Y361294D01*
X189314Y361291D01*
X189359Y361306D01*
X189406Y361311D01*
X189465Y361340D01*
X189528Y361360D01*
X189572Y361393D01*
X189607Y361410D01*
X189634Y361439D01*
X189678Y361472D01*
X198286Y370079D01*
X319874Y370079D01*
X327212Y362742D01*
X327266Y362704D01*
X327313Y362659D01*
X327357Y362640D01*
X327396Y362613D01*
X327459Y362597D01*
X327520Y362571D01*
X327567Y362569D01*
X327613Y362558D01*
X327678Y362564D01*
X327744Y362561D01*
X327789Y362576D01*
X327836Y362581D01*
X327895Y362610D01*
X327958Y362630D01*
X328002Y362663D01*
X328037Y362680D01*
X328064Y362709D01*
X328108Y362742D01*
X335446Y370079D01*
X462114Y370079D01*
X468182Y364012D01*
X468236Y363974D01*
X468283Y363929D01*
X468327Y363910D01*
X468366Y363883D01*
X468429Y363867D01*
X468490Y363841D01*
X468537Y363839D01*
X468583Y363828D01*
X468648Y363834D01*
X468714Y363831D01*
X468759Y363846D01*
X468806Y363851D01*
X468865Y363880D01*
X468928Y363900D01*
X468972Y363933D01*
X469007Y363950D01*
X469034Y363979D01*
X469078Y364012D01*
X475146Y370079D01*
X505497Y370079D01*
X505587Y370094D01*
X505678Y370101D01*
X505708Y370113D01*
X505740Y370119D01*
X505821Y370161D01*
X505904Y370197D01*
X505937Y370223D01*
X505957Y370234D01*
X505958Y370235D01*
X522755Y370235D01*
X522808Y370189D01*
X522838Y370177D01*
X522864Y370158D01*
X522951Y370131D01*
X523036Y370097D01*
X523077Y370093D01*
X523099Y370086D01*
X523132Y370087D01*
X523203Y370079D01*
X604354Y370079D01*
X610422Y364012D01*
X610476Y363974D01*
X610523Y363929D01*
X610567Y363910D01*
X610606Y363883D01*
X610669Y363867D01*
X610730Y363841D01*
X610777Y363839D01*
X610823Y363828D01*
X610888Y363834D01*
X610954Y363831D01*
X610999Y363846D01*
X611046Y363851D01*
X611105Y363880D01*
X611168Y363900D01*
X611212Y363933D01*
X611247Y363950D01*
X611274Y363979D01*
X611318Y364012D01*
X617386Y370079D01*
X646467Y370079D01*
X646557Y370094D01*
X646648Y370101D01*
X646678Y370113D01*
X646710Y370119D01*
X646791Y370161D01*
X646874Y370197D01*
X646907Y370223D01*
X646927Y370234D01*
X646928Y370235D01*
X663725Y370235D01*
X663778Y370189D01*
X663808Y370177D01*
X663834Y370158D01*
X663921Y370131D01*
X664006Y370097D01*
X664047Y370093D01*
X664069Y370086D01*
X664102Y370087D01*
X664173Y370079D01*
X713740Y370079D01*
X713760Y370082D01*
X713779Y370080D01*
X713881Y370102D01*
X713983Y370119D01*
X714000Y370128D01*
X714020Y370132D01*
X714109Y370185D01*
X714200Y370234D01*
X714214Y370248D01*
X714231Y370258D01*
X714298Y370337D01*
X714370Y370412D01*
X714378Y370430D01*
X714391Y370445D01*
X714430Y370541D01*
X714473Y370635D01*
X714475Y370655D01*
X714483Y370673D01*
X714501Y370840D01*
X714501Y407670D01*
X714498Y407690D01*
X714500Y407709D01*
X714478Y407811D01*
X714462Y407913D01*
X714452Y407930D01*
X714448Y407950D01*
X714395Y408039D01*
X714346Y408130D01*
X714332Y408144D01*
X714322Y408161D01*
X714243Y408228D01*
X714168Y408300D01*
X714150Y408308D01*
X714135Y408321D01*
X714039Y408360D01*
X713945Y408403D01*
X713925Y408405D01*
X713907Y408413D01*
X713740Y408431D01*
X688340Y408431D01*
X688320Y408428D01*
X688301Y408430D01*
X688199Y408408D01*
X688097Y408392D01*
X688080Y408382D01*
X688060Y408378D01*
X687971Y408325D01*
X687880Y408276D01*
X687866Y408262D01*
X687849Y408252D01*
X687782Y408173D01*
X687711Y408098D01*
X687702Y408080D01*
X687689Y408065D01*
X687650Y407969D01*
X687607Y407875D01*
X687605Y407855D01*
X687597Y407837D01*
X687579Y407670D01*
X687579Y383031D01*
X621196Y383031D01*
X611318Y392908D01*
X611265Y392946D01*
X611217Y392991D01*
X611173Y393010D01*
X611134Y393037D01*
X611071Y393053D01*
X611010Y393079D01*
X610963Y393081D01*
X610917Y393093D01*
X610852Y393086D01*
X610786Y393089D01*
X610741Y393074D01*
X610694Y393069D01*
X610635Y393040D01*
X610572Y393020D01*
X610528Y392987D01*
X610493Y392970D01*
X610466Y392941D01*
X610422Y392908D01*
X600544Y383031D01*
X574801Y383031D01*
X574801Y407670D01*
X574798Y407690D01*
X574800Y407709D01*
X574778Y407811D01*
X574762Y407913D01*
X574752Y407930D01*
X574748Y407950D01*
X574695Y408039D01*
X574646Y408130D01*
X574632Y408144D01*
X574622Y408161D01*
X574543Y408228D01*
X574468Y408300D01*
X574450Y408308D01*
X574435Y408321D01*
X574339Y408360D01*
X574245Y408403D01*
X574225Y408405D01*
X574207Y408413D01*
X574040Y408431D01*
X546100Y408431D01*
X546080Y408428D01*
X546061Y408430D01*
X545959Y408408D01*
X545857Y408392D01*
X545840Y408382D01*
X545820Y408378D01*
X545731Y408325D01*
X545640Y408276D01*
X545626Y408262D01*
X545609Y408252D01*
X545542Y408173D01*
X545471Y408098D01*
X545462Y408080D01*
X545449Y408065D01*
X545410Y407969D01*
X545367Y407875D01*
X545365Y407855D01*
X545357Y407837D01*
X545339Y407670D01*
X545339Y383031D01*
X478956Y383031D01*
X469078Y392908D01*
X469025Y392946D01*
X468977Y392991D01*
X468933Y393010D01*
X468894Y393037D01*
X468831Y393053D01*
X468770Y393079D01*
X468723Y393081D01*
X468677Y393093D01*
X468612Y393086D01*
X468546Y393089D01*
X468501Y393074D01*
X468454Y393069D01*
X468395Y393040D01*
X468332Y393020D01*
X468288Y392987D01*
X468253Y392970D01*
X468226Y392941D01*
X468182Y392908D01*
X458304Y383031D01*
X433831Y383031D01*
X433831Y406400D01*
X433828Y406420D01*
X433830Y406439D01*
X433808Y406541D01*
X433792Y406643D01*
X433782Y406660D01*
X433778Y406680D01*
X433725Y406769D01*
X433676Y406860D01*
X433662Y406874D01*
X433652Y406891D01*
X433573Y406958D01*
X433498Y407030D01*
X433480Y407038D01*
X433465Y407051D01*
X433369Y407090D01*
X433275Y407133D01*
X433255Y407135D01*
X433237Y407143D01*
X433070Y407161D01*
X405130Y407161D01*
X405110Y407158D01*
X405091Y407160D01*
X404989Y407138D01*
X404887Y407122D01*
X404870Y407112D01*
X404850Y407108D01*
X404761Y407055D01*
X404670Y407006D01*
X404656Y406992D01*
X404639Y406982D01*
X404572Y406903D01*
X404501Y406828D01*
X404492Y406810D01*
X404479Y406795D01*
X404440Y406699D01*
X404397Y406605D01*
X404395Y406585D01*
X404387Y406567D01*
X404369Y406400D01*
X404369Y383031D01*
X336716Y383031D01*
X328108Y391638D01*
X328055Y391676D01*
X328007Y391721D01*
X327963Y391740D01*
X327924Y391767D01*
X327861Y391783D01*
X327800Y391809D01*
X327753Y391811D01*
X327707Y391823D01*
X327642Y391816D01*
X327576Y391819D01*
X327531Y391804D01*
X327484Y391799D01*
X327425Y391770D01*
X327362Y391750D01*
X327318Y391717D01*
X327283Y391700D01*
X327256Y391671D01*
X327212Y391638D01*
X318604Y383031D01*
X292861Y383031D01*
X292861Y406400D01*
X292858Y406420D01*
X292860Y406439D01*
X292838Y406541D01*
X292822Y406643D01*
X292812Y406660D01*
X292808Y406680D01*
X292755Y406769D01*
X292706Y406860D01*
X292692Y406874D01*
X292682Y406891D01*
X292603Y406958D01*
X292528Y407030D01*
X292510Y407038D01*
X292495Y407051D01*
X292399Y407090D01*
X292305Y407133D01*
X292285Y407135D01*
X292267Y407143D01*
X292100Y407161D01*
X264160Y407161D01*
X264140Y407158D01*
X264121Y407160D01*
X264019Y407138D01*
X263917Y407122D01*
X263900Y407112D01*
X263880Y407108D01*
X263791Y407055D01*
X263700Y407006D01*
X263686Y406992D01*
X263669Y406982D01*
X263602Y406903D01*
X263531Y406828D01*
X263522Y406810D01*
X263509Y406795D01*
X263470Y406699D01*
X263427Y406605D01*
X263425Y406585D01*
X263417Y406567D01*
X263399Y406400D01*
X263399Y383031D01*
X197016Y383031D01*
X189678Y390368D01*
X189625Y390406D01*
X189577Y390451D01*
X189533Y390470D01*
X189494Y390497D01*
X189431Y390513D01*
X189370Y390539D01*
X189323Y390541D01*
X189277Y390553D01*
X189212Y390546D01*
X189146Y390549D01*
X189101Y390534D01*
X189054Y390529D01*
X188995Y390500D01*
X188932Y390480D01*
X188888Y390447D01*
X188853Y390430D01*
X188826Y390401D01*
X188782Y390368D01*
X181444Y383031D01*
X154431Y383031D01*
X154431Y406400D01*
X154428Y406420D01*
X154430Y406439D01*
X154408Y406541D01*
X154392Y406643D01*
X154382Y406660D01*
X154378Y406680D01*
X154325Y406769D01*
X154276Y406860D01*
X154262Y406874D01*
X154252Y406891D01*
X154173Y406958D01*
X154098Y407030D01*
X154080Y407038D01*
X154065Y407051D01*
X153969Y407090D01*
X153875Y407133D01*
X153855Y407135D01*
X153837Y407143D01*
X153670Y407161D01*
X125730Y407161D01*
X125710Y407158D01*
X125691Y407160D01*
X125589Y407138D01*
X125487Y407122D01*
X125470Y407112D01*
X125450Y407108D01*
X125361Y407055D01*
X125270Y407006D01*
X125256Y406992D01*
X125239Y406982D01*
X125172Y406903D01*
X125101Y406828D01*
X125092Y406810D01*
X125079Y406795D01*
X125040Y406699D01*
X124997Y406605D01*
X124995Y406585D01*
X124987Y406567D01*
X124969Y406400D01*
X124969Y383031D01*
X57316Y383031D01*
X49978Y390368D01*
X49925Y390406D01*
X49877Y390451D01*
X49833Y390470D01*
X49794Y390497D01*
X49731Y390513D01*
X49670Y390539D01*
X49623Y390541D01*
X49577Y390553D01*
X49512Y390546D01*
X49446Y390549D01*
X49401Y390534D01*
X49354Y390529D01*
X49295Y390500D01*
X49232Y390480D01*
X49188Y390447D01*
X49153Y390430D01*
X49126Y390401D01*
X49082Y390368D01*
X41744Y383031D01*
X39370Y383031D01*
X39350Y383028D01*
X39331Y383030D01*
X39229Y383008D01*
X39127Y382992D01*
X39110Y382982D01*
X39090Y382978D01*
X39001Y382925D01*
X38910Y382876D01*
X38896Y382862D01*
X38879Y382852D01*
X38812Y382773D01*
X38741Y382698D01*
X38732Y382680D01*
X38719Y382665D01*
X38680Y382569D01*
X38637Y382475D01*
X38635Y382455D01*
X38627Y382437D01*
X38609Y382270D01*
X38609Y370840D01*
X38612Y370820D01*
X38610Y370801D01*
X38632Y370699D01*
X38649Y370597D01*
X38658Y370580D01*
X38662Y370560D01*
X38715Y370471D01*
X38764Y370380D01*
X38778Y370366D01*
X38788Y370349D01*
X38867Y370282D01*
X38942Y370211D01*
X38960Y370202D01*
X38975Y370189D01*
X39071Y370150D01*
X39165Y370107D01*
X39185Y370105D01*
X39203Y370097D01*
X39370Y370079D01*
X40474Y370079D01*
X49082Y361472D01*
X49136Y361434D01*
X49183Y361389D01*
X49227Y361370D01*
X49266Y361343D01*
X49329Y361327D01*
X49390Y361301D01*
X49437Y361299D01*
X49483Y361288D01*
X49548Y361294D01*
X49614Y361291D01*
X49659Y361306D01*
X49706Y361311D01*
X49765Y361340D01*
X49828Y361360D01*
X49872Y361393D01*
X49907Y361410D01*
X49934Y361439D01*
X49978Y361472D01*
X58586Y370079D01*
X180174Y370079D01*
X188782Y361472D01*
X188836Y361434D01*
X188883Y361389D01*
X188927Y361370D01*
X188966Y361343D01*
X189029Y361327D01*
X189090Y361301D01*
X189137Y361299D01*
X189183Y361288D01*
X189248Y361294D01*
G37*
G36*
X156230Y70362D02*
X156230Y70362D01*
X156249Y70360D01*
X156351Y70382D01*
X156453Y70399D01*
X156470Y70408D01*
X156490Y70412D01*
X156579Y70465D01*
X156670Y70514D01*
X156684Y70528D01*
X156701Y70538D01*
X156768Y70617D01*
X156840Y70692D01*
X156848Y70710D01*
X156861Y70725D01*
X156900Y70821D01*
X156943Y70915D01*
X156945Y70935D01*
X156953Y70953D01*
X156971Y71120D01*
X156971Y106680D01*
X156968Y106700D01*
X156970Y106719D01*
X156948Y106821D01*
X156932Y106923D01*
X156922Y106940D01*
X156918Y106960D01*
X156865Y107049D01*
X156816Y107140D01*
X156802Y107154D01*
X156792Y107171D01*
X156713Y107238D01*
X156638Y107310D01*
X156620Y107318D01*
X156605Y107331D01*
X156509Y107370D01*
X156415Y107413D01*
X156395Y107415D01*
X156377Y107423D01*
X156210Y107441D01*
X40131Y107441D01*
X40131Y221489D01*
X105410Y221489D01*
X105430Y221492D01*
X105449Y221490D01*
X105551Y221512D01*
X105653Y221529D01*
X105670Y221538D01*
X105690Y221542D01*
X105779Y221595D01*
X105870Y221644D01*
X105884Y221658D01*
X105901Y221668D01*
X105968Y221747D01*
X106040Y221822D01*
X106048Y221840D01*
X106061Y221855D01*
X106100Y221951D01*
X106143Y222045D01*
X106145Y222065D01*
X106153Y222083D01*
X106171Y222250D01*
X106171Y248920D01*
X106168Y248940D01*
X106170Y248959D01*
X106148Y249061D01*
X106132Y249163D01*
X106122Y249180D01*
X106118Y249200D01*
X106065Y249289D01*
X106016Y249380D01*
X106002Y249394D01*
X105992Y249411D01*
X105913Y249478D01*
X105838Y249550D01*
X105820Y249558D01*
X105805Y249571D01*
X105709Y249610D01*
X105615Y249653D01*
X105595Y249655D01*
X105577Y249663D01*
X105410Y249681D01*
X10160Y249681D01*
X10140Y249678D01*
X10121Y249680D01*
X10019Y249658D01*
X9917Y249642D01*
X9900Y249632D01*
X9880Y249628D01*
X9791Y249575D01*
X9700Y249526D01*
X9686Y249512D01*
X9669Y249502D01*
X9602Y249423D01*
X9531Y249348D01*
X9522Y249330D01*
X9509Y249315D01*
X9470Y249219D01*
X9427Y249125D01*
X9425Y249105D01*
X9417Y249087D01*
X9399Y248920D01*
X9399Y71120D01*
X9402Y71100D01*
X9400Y71081D01*
X9422Y70979D01*
X9439Y70877D01*
X9448Y70860D01*
X9452Y70840D01*
X9505Y70751D01*
X9554Y70660D01*
X9568Y70646D01*
X9578Y70629D01*
X9657Y70562D01*
X9732Y70491D01*
X9750Y70482D01*
X9765Y70469D01*
X9861Y70430D01*
X9955Y70387D01*
X9975Y70385D01*
X9993Y70377D01*
X10160Y70359D01*
X156210Y70359D01*
X156230Y70362D01*
G37*
G36*
X156230Y116082D02*
X156230Y116082D01*
X156249Y116080D01*
X156351Y116102D01*
X156453Y116119D01*
X156470Y116128D01*
X156490Y116132D01*
X156579Y116185D01*
X156670Y116234D01*
X156684Y116248D01*
X156701Y116258D01*
X156768Y116337D01*
X156840Y116412D01*
X156848Y116430D01*
X156861Y116445D01*
X156900Y116541D01*
X156943Y116635D01*
X156945Y116655D01*
X156953Y116673D01*
X156971Y116840D01*
X156971Y213360D01*
X156968Y213380D01*
X156970Y213399D01*
X156948Y213501D01*
X156932Y213603D01*
X156922Y213620D01*
X156918Y213640D01*
X156865Y213729D01*
X156816Y213820D01*
X156802Y213834D01*
X156792Y213851D01*
X156713Y213918D01*
X156638Y213990D01*
X156620Y213998D01*
X156605Y214011D01*
X156509Y214050D01*
X156415Y214093D01*
X156395Y214095D01*
X156377Y214103D01*
X156210Y214121D01*
X45720Y214121D01*
X45700Y214118D01*
X45681Y214120D01*
X45579Y214098D01*
X45477Y214082D01*
X45460Y214072D01*
X45440Y214068D01*
X45351Y214015D01*
X45260Y213966D01*
X45246Y213952D01*
X45229Y213942D01*
X45162Y213863D01*
X45091Y213788D01*
X45082Y213770D01*
X45069Y213755D01*
X45030Y213659D01*
X44987Y213565D01*
X44985Y213545D01*
X44977Y213527D01*
X44959Y213360D01*
X44959Y116840D01*
X44962Y116820D01*
X44960Y116801D01*
X44982Y116699D01*
X44999Y116597D01*
X45008Y116580D01*
X45012Y116560D01*
X45065Y116471D01*
X45114Y116380D01*
X45128Y116366D01*
X45138Y116349D01*
X45217Y116282D01*
X45292Y116211D01*
X45310Y116202D01*
X45325Y116189D01*
X45421Y116150D01*
X45515Y116107D01*
X45535Y116105D01*
X45553Y116097D01*
X45720Y116079D01*
X156210Y116079D01*
X156230Y116082D01*
G37*
G36*
X64844Y453027D02*
X64844Y453027D01*
X64919Y453040D01*
X64929Y453047D01*
X64939Y453049D01*
X64968Y453073D01*
X65039Y453121D01*
X165258Y553340D01*
X232410Y553340D01*
X232460Y553351D01*
X232511Y553353D01*
X232543Y553371D01*
X232579Y553379D01*
X232618Y553412D01*
X232663Y553436D01*
X232684Y553466D01*
X232712Y553489D01*
X232733Y553536D01*
X232763Y553578D01*
X232771Y553620D01*
X232783Y553648D01*
X232782Y553678D01*
X232790Y553720D01*
X232790Y579120D01*
X232779Y579170D01*
X232777Y579221D01*
X232759Y579253D01*
X232751Y579289D01*
X232718Y579328D01*
X232694Y579373D01*
X232664Y579394D01*
X232641Y579422D01*
X232594Y579443D01*
X232552Y579473D01*
X232510Y579481D01*
X232482Y579493D01*
X232452Y579492D01*
X232410Y579500D01*
X125730Y579500D01*
X125656Y579483D01*
X125581Y579470D01*
X125571Y579463D01*
X125561Y579461D01*
X125532Y579437D01*
X125461Y579389D01*
X31481Y485409D01*
X31441Y485344D01*
X31397Y485282D01*
X31395Y485270D01*
X31390Y485262D01*
X31386Y485225D01*
X31370Y485140D01*
X31370Y453390D01*
X31381Y453340D01*
X31383Y453289D01*
X31401Y453257D01*
X31409Y453221D01*
X31442Y453182D01*
X31466Y453137D01*
X31496Y453116D01*
X31519Y453088D01*
X31566Y453067D01*
X31608Y453037D01*
X31650Y453029D01*
X31678Y453017D01*
X31708Y453018D01*
X31750Y453010D01*
X64770Y453010D01*
X64844Y453027D01*
G37*
G36*
X323870Y70362D02*
X323870Y70362D01*
X323889Y70360D01*
X323991Y70382D01*
X324093Y70399D01*
X324110Y70408D01*
X324130Y70412D01*
X324219Y70465D01*
X324310Y70514D01*
X324324Y70528D01*
X324341Y70538D01*
X324408Y70617D01*
X324480Y70692D01*
X324488Y70710D01*
X324501Y70725D01*
X324540Y70821D01*
X324583Y70915D01*
X324585Y70935D01*
X324593Y70953D01*
X324611Y71120D01*
X324611Y112269D01*
X386080Y112269D01*
X386100Y112272D01*
X386119Y112270D01*
X386221Y112292D01*
X386323Y112309D01*
X386340Y112318D01*
X386360Y112322D01*
X386449Y112375D01*
X386540Y112424D01*
X386554Y112438D01*
X386571Y112448D01*
X386638Y112527D01*
X386710Y112602D01*
X386718Y112620D01*
X386731Y112635D01*
X386770Y112731D01*
X386813Y112825D01*
X386815Y112845D01*
X386823Y112863D01*
X386841Y113030D01*
X386841Y133350D01*
X386827Y133440D01*
X386819Y133531D01*
X386807Y133561D01*
X386802Y133593D01*
X386759Y133673D01*
X386723Y133757D01*
X386697Y133789D01*
X386686Y133810D01*
X386663Y133832D01*
X386618Y133888D01*
X365251Y155255D01*
X365251Y181610D01*
X365248Y181630D01*
X365250Y181649D01*
X365228Y181751D01*
X365212Y181853D01*
X365202Y181870D01*
X365198Y181890D01*
X365145Y181979D01*
X365096Y182070D01*
X365082Y182084D01*
X365072Y182101D01*
X364993Y182168D01*
X364918Y182240D01*
X364900Y182248D01*
X364885Y182261D01*
X364789Y182300D01*
X364695Y182343D01*
X364675Y182345D01*
X364657Y182353D01*
X364490Y182371D01*
X285750Y182371D01*
X285730Y182368D01*
X285711Y182370D01*
X285609Y182348D01*
X285507Y182332D01*
X285490Y182322D01*
X285470Y182318D01*
X285381Y182265D01*
X285290Y182216D01*
X285276Y182202D01*
X285259Y182192D01*
X285192Y182113D01*
X285121Y182038D01*
X285112Y182020D01*
X285099Y182005D01*
X285060Y181909D01*
X285017Y181815D01*
X285015Y181795D01*
X285007Y181777D01*
X284989Y181610D01*
X284989Y71120D01*
X284992Y71100D01*
X284990Y71081D01*
X285012Y70979D01*
X285029Y70877D01*
X285038Y70860D01*
X285042Y70840D01*
X285095Y70751D01*
X285144Y70660D01*
X285158Y70646D01*
X285168Y70629D01*
X285247Y70562D01*
X285322Y70491D01*
X285340Y70482D01*
X285355Y70469D01*
X285451Y70430D01*
X285545Y70387D01*
X285565Y70385D01*
X285583Y70377D01*
X285750Y70359D01*
X323850Y70359D01*
X323870Y70362D01*
G37*
G36*
X624890Y454291D02*
X624890Y454291D01*
X624941Y454293D01*
X624973Y454311D01*
X625009Y454319D01*
X625048Y454352D01*
X625093Y454376D01*
X625114Y454406D01*
X625142Y454429D01*
X625163Y454476D01*
X625193Y454518D01*
X625201Y454560D01*
X625213Y454588D01*
X625212Y454618D01*
X625220Y454660D01*
X625220Y502920D01*
X625203Y502994D01*
X625190Y503069D01*
X625183Y503079D01*
X625181Y503089D01*
X625157Y503118D01*
X625109Y503189D01*
X575579Y552719D01*
X575514Y552759D01*
X575452Y552803D01*
X575440Y552805D01*
X575432Y552810D01*
X575395Y552814D01*
X575310Y552830D01*
X485298Y552830D01*
X475360Y562768D01*
X475360Y579120D01*
X475349Y579170D01*
X475347Y579221D01*
X475329Y579253D01*
X475321Y579289D01*
X475288Y579328D01*
X475264Y579373D01*
X475234Y579394D01*
X475211Y579422D01*
X475164Y579443D01*
X475122Y579473D01*
X475080Y579481D01*
X475052Y579493D01*
X475022Y579492D01*
X474980Y579500D01*
X452120Y579500D01*
X452070Y579489D01*
X452019Y579487D01*
X451987Y579469D01*
X451951Y579461D01*
X451912Y579428D01*
X451867Y579404D01*
X451846Y579374D01*
X451818Y579351D01*
X451797Y579304D01*
X451767Y579262D01*
X451759Y579220D01*
X451747Y579192D01*
X451748Y579162D01*
X451740Y579120D01*
X451740Y534670D01*
X451751Y534620D01*
X451753Y534569D01*
X451771Y534537D01*
X451779Y534501D01*
X451812Y534462D01*
X451836Y534417D01*
X451866Y534396D01*
X451889Y534368D01*
X451936Y534347D01*
X451978Y534317D01*
X452020Y534309D01*
X452048Y534297D01*
X452078Y534298D01*
X452120Y534290D01*
X545943Y534290D01*
X586360Y493873D01*
X586360Y454660D01*
X586371Y454610D01*
X586373Y454559D01*
X586391Y454527D01*
X586399Y454491D01*
X586432Y454452D01*
X586456Y454407D01*
X586486Y454386D01*
X586509Y454358D01*
X586556Y454337D01*
X586598Y454307D01*
X586640Y454299D01*
X586668Y454287D01*
X586698Y454288D01*
X586740Y454280D01*
X624840Y454280D01*
X624890Y454291D01*
G37*
G36*
X209624Y454297D02*
X209624Y454297D01*
X209699Y454310D01*
X209709Y454317D01*
X209719Y454319D01*
X209748Y454343D01*
X209819Y454391D01*
X292369Y536941D01*
X292409Y537006D01*
X292453Y537068D01*
X292455Y537080D01*
X292460Y537088D01*
X292464Y537125D01*
X292480Y537210D01*
X292480Y579120D01*
X292469Y579170D01*
X292467Y579221D01*
X292449Y579253D01*
X292441Y579289D01*
X292408Y579328D01*
X292384Y579373D01*
X292354Y579394D01*
X292331Y579422D01*
X292284Y579443D01*
X292242Y579473D01*
X292200Y579481D01*
X292172Y579493D01*
X292142Y579492D01*
X292100Y579500D01*
X270510Y579500D01*
X270460Y579489D01*
X270409Y579487D01*
X270377Y579469D01*
X270341Y579461D01*
X270302Y579428D01*
X270257Y579404D01*
X270236Y579374D01*
X270208Y579351D01*
X270187Y579304D01*
X270157Y579262D01*
X270149Y579220D01*
X270137Y579192D01*
X270138Y579162D01*
X270130Y579120D01*
X270130Y542670D01*
X228600Y542670D01*
X228526Y542653D01*
X228451Y542640D01*
X228441Y542633D01*
X228431Y542631D01*
X228402Y542607D01*
X228331Y542559D01*
X171181Y485409D01*
X171141Y485344D01*
X171097Y485282D01*
X171095Y485270D01*
X171090Y485262D01*
X171086Y485225D01*
X171070Y485140D01*
X171070Y454660D01*
X171081Y454610D01*
X171083Y454559D01*
X171101Y454527D01*
X171109Y454491D01*
X171142Y454452D01*
X171166Y454407D01*
X171196Y454386D01*
X171219Y454358D01*
X171266Y454337D01*
X171308Y454307D01*
X171350Y454299D01*
X171378Y454287D01*
X171408Y454288D01*
X171450Y454280D01*
X209550Y454280D01*
X209624Y454297D01*
G37*
G36*
X227350Y70362D02*
X227350Y70362D01*
X227369Y70360D01*
X227471Y70382D01*
X227573Y70399D01*
X227590Y70408D01*
X227610Y70412D01*
X227699Y70465D01*
X227790Y70514D01*
X227804Y70528D01*
X227821Y70538D01*
X227888Y70617D01*
X227960Y70692D01*
X227968Y70710D01*
X227981Y70725D01*
X228020Y70821D01*
X228063Y70915D01*
X228065Y70935D01*
X228073Y70953D01*
X228091Y71120D01*
X228091Y213360D01*
X228088Y213380D01*
X228090Y213399D01*
X228068Y213501D01*
X228052Y213603D01*
X228042Y213620D01*
X228038Y213640D01*
X227985Y213729D01*
X227936Y213820D01*
X227922Y213834D01*
X227912Y213851D01*
X227833Y213918D01*
X227758Y213990D01*
X227740Y213998D01*
X227725Y214011D01*
X227629Y214050D01*
X227535Y214093D01*
X227515Y214095D01*
X227497Y214103D01*
X227330Y214121D01*
X175260Y214121D01*
X175240Y214118D01*
X175221Y214120D01*
X175119Y214098D01*
X175017Y214082D01*
X175000Y214072D01*
X174980Y214068D01*
X174891Y214015D01*
X174800Y213966D01*
X174786Y213952D01*
X174769Y213942D01*
X174702Y213863D01*
X174631Y213788D01*
X174622Y213770D01*
X174609Y213755D01*
X174570Y213659D01*
X174527Y213565D01*
X174525Y213545D01*
X174517Y213527D01*
X174499Y213360D01*
X174499Y189230D01*
X174502Y189210D01*
X174500Y189191D01*
X174522Y189089D01*
X174539Y188987D01*
X174548Y188970D01*
X174552Y188950D01*
X174605Y188861D01*
X174654Y188770D01*
X174668Y188756D01*
X174678Y188739D01*
X174757Y188672D01*
X174832Y188601D01*
X174850Y188592D01*
X174865Y188579D01*
X174961Y188540D01*
X175055Y188497D01*
X175075Y188495D01*
X175093Y188487D01*
X175260Y188469D01*
X203709Y188469D01*
X203709Y125221D01*
X172720Y125221D01*
X172700Y125218D01*
X172681Y125220D01*
X172579Y125198D01*
X172477Y125182D01*
X172460Y125172D01*
X172440Y125168D01*
X172351Y125115D01*
X172260Y125066D01*
X172246Y125052D01*
X172229Y125042D01*
X172162Y124963D01*
X172091Y124888D01*
X172082Y124870D01*
X172069Y124855D01*
X172030Y124759D01*
X171987Y124665D01*
X171985Y124645D01*
X171977Y124627D01*
X171959Y124460D01*
X171959Y71120D01*
X171962Y71100D01*
X171960Y71081D01*
X171982Y70979D01*
X171999Y70877D01*
X172008Y70860D01*
X172012Y70840D01*
X172065Y70751D01*
X172114Y70660D01*
X172128Y70646D01*
X172138Y70629D01*
X172217Y70562D01*
X172292Y70491D01*
X172310Y70482D01*
X172325Y70469D01*
X172421Y70430D01*
X172515Y70387D01*
X172535Y70385D01*
X172553Y70377D01*
X172720Y70359D01*
X227330Y70359D01*
X227350Y70362D01*
G37*
G36*
X486460Y454291D02*
X486460Y454291D01*
X486511Y454293D01*
X486543Y454311D01*
X486579Y454319D01*
X486618Y454352D01*
X486663Y454376D01*
X486684Y454406D01*
X486712Y454429D01*
X486733Y454476D01*
X486763Y454518D01*
X486771Y454560D01*
X486783Y454588D01*
X486782Y454618D01*
X486790Y454660D01*
X486790Y488950D01*
X486773Y489024D01*
X486760Y489099D01*
X486753Y489109D01*
X486751Y489119D01*
X486727Y489148D01*
X486679Y489219D01*
X415670Y560228D01*
X415670Y579120D01*
X415659Y579170D01*
X415657Y579221D01*
X415639Y579253D01*
X415631Y579289D01*
X415598Y579328D01*
X415574Y579373D01*
X415544Y579394D01*
X415521Y579422D01*
X415474Y579443D01*
X415432Y579473D01*
X415390Y579481D01*
X415362Y579493D01*
X415332Y579492D01*
X415290Y579500D01*
X392430Y579500D01*
X392380Y579489D01*
X392329Y579487D01*
X392297Y579469D01*
X392261Y579461D01*
X392222Y579428D01*
X392177Y579404D01*
X392156Y579374D01*
X392128Y579351D01*
X392107Y579304D01*
X392077Y579262D01*
X392069Y579220D01*
X392057Y579192D01*
X392058Y579162D01*
X392050Y579120D01*
X392050Y537210D01*
X392067Y537136D01*
X392080Y537061D01*
X392087Y537051D01*
X392089Y537041D01*
X392113Y537012D01*
X392161Y536941D01*
X451740Y477363D01*
X451740Y454660D01*
X451751Y454610D01*
X451753Y454559D01*
X451771Y454527D01*
X451779Y454491D01*
X451812Y454452D01*
X451836Y454407D01*
X451866Y454386D01*
X451889Y454358D01*
X451936Y454337D01*
X451978Y454307D01*
X452020Y454299D01*
X452048Y454287D01*
X452078Y454288D01*
X452120Y454280D01*
X486410Y454280D01*
X486460Y454291D01*
G37*
G36*
X634690Y226805D02*
X634690Y226805D01*
X634781Y226813D01*
X634811Y226825D01*
X634843Y226830D01*
X634923Y226873D01*
X635007Y226909D01*
X635039Y226935D01*
X635060Y226946D01*
X635082Y226969D01*
X635138Y227014D01*
X641666Y233542D01*
X641719Y233616D01*
X641779Y233685D01*
X641791Y233715D01*
X641810Y233742D01*
X641837Y233829D01*
X641871Y233913D01*
X641875Y233954D01*
X641882Y233977D01*
X641881Y234009D01*
X641889Y234080D01*
X641889Y252684D01*
X641886Y252704D01*
X641888Y252723D01*
X641866Y252825D01*
X641850Y252927D01*
X641840Y252944D01*
X641836Y252964D01*
X641783Y253053D01*
X641734Y253144D01*
X641720Y253158D01*
X641710Y253175D01*
X641631Y253242D01*
X641556Y253314D01*
X641538Y253322D01*
X641523Y253335D01*
X641427Y253374D01*
X641333Y253417D01*
X641313Y253419D01*
X641295Y253427D01*
X641128Y253445D01*
X639848Y253445D01*
X638955Y254338D01*
X638955Y265602D01*
X639848Y266495D01*
X650112Y266495D01*
X651005Y265602D01*
X651005Y264002D01*
X651008Y263982D01*
X651006Y263963D01*
X651028Y263861D01*
X651044Y263759D01*
X651054Y263742D01*
X651058Y263722D01*
X651111Y263633D01*
X651160Y263542D01*
X651174Y263528D01*
X651184Y263511D01*
X651263Y263444D01*
X651338Y263372D01*
X651356Y263364D01*
X651371Y263351D01*
X651467Y263312D01*
X651561Y263269D01*
X651581Y263267D01*
X651599Y263259D01*
X651766Y263241D01*
X665480Y263241D01*
X665500Y263244D01*
X665519Y263242D01*
X665621Y263264D01*
X665723Y263280D01*
X665740Y263290D01*
X665760Y263294D01*
X665849Y263347D01*
X665940Y263396D01*
X665954Y263410D01*
X665971Y263420D01*
X666038Y263499D01*
X666110Y263574D01*
X666118Y263592D01*
X666131Y263607D01*
X666170Y263703D01*
X666213Y263797D01*
X666215Y263817D01*
X666223Y263835D01*
X666241Y264002D01*
X666241Y284480D01*
X666238Y284500D01*
X666240Y284519D01*
X666218Y284621D01*
X666202Y284723D01*
X666192Y284740D01*
X666188Y284760D01*
X666135Y284849D01*
X666086Y284940D01*
X666072Y284954D01*
X666062Y284971D01*
X665983Y285038D01*
X665908Y285110D01*
X665890Y285118D01*
X665875Y285131D01*
X665779Y285170D01*
X665685Y285213D01*
X665665Y285215D01*
X665647Y285223D01*
X665480Y285241D01*
X525118Y285241D01*
X525047Y285230D01*
X524975Y285228D01*
X524926Y285210D01*
X524875Y285202D01*
X524812Y285168D01*
X524744Y285143D01*
X524704Y285111D01*
X524658Y285086D01*
X524608Y285035D01*
X524552Y284990D01*
X524524Y284946D01*
X524488Y284908D01*
X524458Y284843D01*
X524419Y284783D01*
X524407Y284732D01*
X524385Y284685D01*
X524377Y284614D01*
X524359Y284544D01*
X524363Y284492D01*
X524358Y284441D01*
X524373Y284370D01*
X524378Y284299D01*
X524399Y284251D01*
X524410Y284200D01*
X524447Y284139D01*
X524475Y284073D01*
X524520Y284017D01*
X524536Y283989D01*
X524554Y283974D01*
X524580Y283942D01*
X527027Y281495D01*
X527027Y279284D01*
X527041Y279194D01*
X527049Y279103D01*
X527061Y279073D01*
X527066Y279041D01*
X527109Y278961D01*
X527145Y278877D01*
X527171Y278845D01*
X527182Y278824D01*
X527205Y278802D01*
X527250Y278746D01*
X529452Y276544D01*
X529526Y276491D01*
X529595Y276431D01*
X529625Y276419D01*
X529652Y276400D01*
X529739Y276373D01*
X529823Y276339D01*
X529864Y276335D01*
X529887Y276328D01*
X529919Y276329D01*
X529990Y276321D01*
X530854Y276321D01*
X530874Y276324D01*
X530893Y276322D01*
X530995Y276344D01*
X531097Y276360D01*
X531114Y276370D01*
X531134Y276374D01*
X531223Y276427D01*
X531314Y276476D01*
X531328Y276490D01*
X531345Y276500D01*
X531412Y276579D01*
X531484Y276654D01*
X531492Y276672D01*
X531505Y276687D01*
X531544Y276783D01*
X531587Y276877D01*
X531589Y276897D01*
X531597Y276915D01*
X531615Y277082D01*
X531615Y280682D01*
X532508Y281575D01*
X544772Y281575D01*
X545665Y280682D01*
X545665Y265418D01*
X544772Y264525D01*
X532508Y264525D01*
X531615Y265418D01*
X531615Y269018D01*
X531612Y269038D01*
X531614Y269057D01*
X531592Y269159D01*
X531576Y269261D01*
X531566Y269278D01*
X531562Y269298D01*
X531509Y269387D01*
X531460Y269478D01*
X531446Y269492D01*
X531436Y269509D01*
X531357Y269576D01*
X531282Y269648D01*
X531264Y269656D01*
X531249Y269669D01*
X531153Y269708D01*
X531059Y269751D01*
X531039Y269753D01*
X531021Y269761D01*
X530854Y269779D01*
X526965Y269779D01*
X522624Y274120D01*
X522550Y274173D01*
X522481Y274233D01*
X522451Y274245D01*
X522424Y274264D01*
X522337Y274291D01*
X522253Y274325D01*
X522212Y274329D01*
X522189Y274336D01*
X522157Y274335D01*
X522086Y274343D01*
X519875Y274343D01*
X516913Y277305D01*
X516913Y281495D01*
X519360Y283942D01*
X519402Y284000D01*
X519452Y284052D01*
X519474Y284099D01*
X519504Y284141D01*
X519525Y284210D01*
X519555Y284275D01*
X519561Y284327D01*
X519576Y284377D01*
X519574Y284448D01*
X519582Y284519D01*
X519571Y284570D01*
X519570Y284622D01*
X519545Y284690D01*
X519530Y284760D01*
X519503Y284804D01*
X519486Y284853D01*
X519441Y284909D01*
X519404Y284971D01*
X519364Y285005D01*
X519332Y285045D01*
X519272Y285084D01*
X519217Y285131D01*
X519169Y285150D01*
X519125Y285178D01*
X519055Y285196D01*
X518989Y285223D01*
X518918Y285231D01*
X518886Y285239D01*
X518863Y285237D01*
X518822Y285241D01*
X383873Y285241D01*
X383802Y285230D01*
X383730Y285228D01*
X383681Y285210D01*
X383630Y285202D01*
X383567Y285168D01*
X383499Y285143D01*
X383459Y285111D01*
X383413Y285086D01*
X383363Y285035D01*
X383307Y284990D01*
X383279Y284946D01*
X383243Y284908D01*
X383213Y284843D01*
X383174Y284783D01*
X383162Y284732D01*
X383140Y284685D01*
X383132Y284614D01*
X383114Y284544D01*
X383118Y284492D01*
X383113Y284441D01*
X383128Y284370D01*
X383133Y284299D01*
X383154Y284251D01*
X383165Y284200D01*
X383202Y284139D01*
X383230Y284073D01*
X383275Y284017D01*
X383291Y283989D01*
X383309Y283974D01*
X383335Y283942D01*
X384055Y283222D01*
X384055Y279622D01*
X384058Y279602D01*
X384056Y279583D01*
X384078Y279481D01*
X384094Y279379D01*
X384104Y279362D01*
X384108Y279342D01*
X384161Y279253D01*
X384210Y279162D01*
X384224Y279148D01*
X384234Y279131D01*
X384313Y279064D01*
X384388Y278992D01*
X384406Y278984D01*
X384421Y278971D01*
X384517Y278932D01*
X384611Y278889D01*
X384631Y278887D01*
X384649Y278879D01*
X384816Y278861D01*
X513165Y278861D01*
X535211Y256815D01*
X535211Y255376D01*
X535214Y255356D01*
X535212Y255337D01*
X535234Y255235D01*
X535250Y255133D01*
X535260Y255116D01*
X535264Y255096D01*
X535317Y255007D01*
X535366Y254916D01*
X535380Y254902D01*
X535390Y254885D01*
X535469Y254818D01*
X535544Y254746D01*
X535562Y254738D01*
X535577Y254725D01*
X535673Y254686D01*
X535767Y254643D01*
X535787Y254641D01*
X535802Y254635D01*
X536902Y253535D01*
X536918Y253523D01*
X536930Y253507D01*
X537018Y253451D01*
X537101Y253391D01*
X537120Y253385D01*
X537137Y253374D01*
X537238Y253349D01*
X537337Y253319D01*
X537356Y253319D01*
X537376Y253314D01*
X537479Y253322D01*
X537582Y253325D01*
X537601Y253332D01*
X537621Y253333D01*
X537716Y253374D01*
X537813Y253409D01*
X537829Y253422D01*
X537847Y253430D01*
X537978Y253535D01*
X539058Y254615D01*
X546822Y254615D01*
X547902Y253535D01*
X547918Y253523D01*
X547930Y253507D01*
X548018Y253451D01*
X548101Y253391D01*
X548120Y253385D01*
X548137Y253374D01*
X548238Y253349D01*
X548337Y253319D01*
X548356Y253319D01*
X548376Y253314D01*
X548479Y253322D01*
X548582Y253325D01*
X548601Y253332D01*
X548621Y253333D01*
X548716Y253374D01*
X548813Y253409D01*
X548829Y253422D01*
X548847Y253430D01*
X548978Y253535D01*
X550058Y254615D01*
X557822Y254615D01*
X558902Y253535D01*
X558918Y253523D01*
X558930Y253507D01*
X559018Y253451D01*
X559101Y253391D01*
X559120Y253385D01*
X559137Y253374D01*
X559238Y253349D01*
X559337Y253319D01*
X559356Y253319D01*
X559376Y253314D01*
X559479Y253322D01*
X559582Y253325D01*
X559601Y253332D01*
X559621Y253333D01*
X559716Y253374D01*
X559813Y253409D01*
X559829Y253422D01*
X559847Y253430D01*
X559978Y253535D01*
X560581Y254137D01*
X560592Y254153D01*
X560608Y254166D01*
X560664Y254253D01*
X560724Y254337D01*
X560730Y254356D01*
X560741Y254373D01*
X560766Y254473D01*
X560797Y254572D01*
X560796Y254592D01*
X560801Y254611D01*
X560793Y254714D01*
X560790Y254818D01*
X560783Y254837D01*
X560782Y254856D01*
X560742Y254951D01*
X560706Y255049D01*
X560693Y255064D01*
X560686Y255083D01*
X560581Y255214D01*
X555529Y260265D01*
X555529Y263764D01*
X555526Y263784D01*
X555528Y263803D01*
X555506Y263905D01*
X555490Y264007D01*
X555480Y264024D01*
X555476Y264044D01*
X555423Y264133D01*
X555374Y264224D01*
X555360Y264238D01*
X555350Y264255D01*
X555271Y264322D01*
X555196Y264394D01*
X555178Y264402D01*
X555163Y264415D01*
X555067Y264454D01*
X554973Y264497D01*
X554953Y264499D01*
X554935Y264507D01*
X554768Y264525D01*
X552508Y264525D01*
X551615Y265418D01*
X551615Y280682D01*
X552508Y281575D01*
X564772Y281575D01*
X565665Y280682D01*
X565665Y265418D01*
X564772Y264525D01*
X562832Y264525D01*
X562812Y264522D01*
X562793Y264524D01*
X562691Y264502D01*
X562589Y264486D01*
X562572Y264476D01*
X562552Y264472D01*
X562463Y264419D01*
X562372Y264370D01*
X562358Y264356D01*
X562341Y264346D01*
X562274Y264267D01*
X562202Y264192D01*
X562194Y264174D01*
X562181Y264159D01*
X562142Y264063D01*
X562099Y263969D01*
X562097Y263949D01*
X562089Y263931D01*
X562071Y263764D01*
X562071Y263290D01*
X562085Y263200D01*
X562093Y263109D01*
X562105Y263079D01*
X562110Y263047D01*
X562153Y262967D01*
X562189Y262883D01*
X562215Y262851D01*
X562226Y262830D01*
X562249Y262808D01*
X562294Y262752D01*
X568211Y256835D01*
X568211Y255376D01*
X568214Y255356D01*
X568212Y255337D01*
X568234Y255235D01*
X568250Y255133D01*
X568260Y255116D01*
X568264Y255096D01*
X568317Y255007D01*
X568366Y254916D01*
X568380Y254902D01*
X568390Y254885D01*
X568469Y254818D01*
X568544Y254746D01*
X568562Y254738D01*
X568577Y254725D01*
X568673Y254686D01*
X568767Y254643D01*
X568787Y254641D01*
X568802Y254635D01*
X569902Y253535D01*
X569918Y253523D01*
X569930Y253507D01*
X570018Y253451D01*
X570101Y253391D01*
X570120Y253385D01*
X570137Y253374D01*
X570238Y253349D01*
X570337Y253319D01*
X570356Y253319D01*
X570376Y253314D01*
X570479Y253322D01*
X570582Y253325D01*
X570601Y253332D01*
X570621Y253333D01*
X570716Y253374D01*
X570813Y253409D01*
X570829Y253422D01*
X570847Y253430D01*
X570978Y253535D01*
X572088Y254644D01*
X572151Y254654D01*
X572168Y254664D01*
X572188Y254668D01*
X572277Y254721D01*
X572368Y254770D01*
X572382Y254784D01*
X572399Y254794D01*
X572466Y254873D01*
X572538Y254948D01*
X572546Y254966D01*
X572559Y254981D01*
X572598Y255077D01*
X572641Y255171D01*
X572643Y255191D01*
X572651Y255209D01*
X572669Y255376D01*
X572669Y257255D01*
X578640Y263226D01*
X578682Y263284D01*
X578731Y263336D01*
X578753Y263383D01*
X578784Y263425D01*
X578805Y263494D01*
X578835Y263559D01*
X578841Y263611D01*
X578856Y263661D01*
X578854Y263732D01*
X578862Y263803D01*
X578851Y263854D01*
X578850Y263906D01*
X578825Y263974D01*
X578810Y264044D01*
X578783Y264089D01*
X578765Y264137D01*
X578720Y264193D01*
X578684Y264255D01*
X578644Y264289D01*
X578612Y264329D01*
X578551Y264368D01*
X578497Y264415D01*
X578448Y264434D01*
X578405Y264462D01*
X578335Y264480D01*
X578269Y264507D01*
X578197Y264515D01*
X578166Y264523D01*
X578143Y264521D01*
X578102Y264525D01*
X576958Y264525D01*
X576065Y265418D01*
X576065Y280682D01*
X576958Y281575D01*
X589222Y281575D01*
X590115Y280682D01*
X590115Y265418D01*
X589222Y264525D01*
X587122Y264525D01*
X587102Y264522D01*
X587083Y264524D01*
X586981Y264502D01*
X586879Y264486D01*
X586862Y264476D01*
X586842Y264472D01*
X586753Y264419D01*
X586662Y264370D01*
X586648Y264356D01*
X586631Y264346D01*
X586564Y264267D01*
X586492Y264192D01*
X586484Y264174D01*
X586471Y264159D01*
X586432Y264063D01*
X586389Y263969D01*
X586387Y263949D01*
X586379Y263931D01*
X586361Y263764D01*
X586361Y261695D01*
X580089Y255424D01*
X580078Y255408D01*
X580062Y255395D01*
X580006Y255308D01*
X579946Y255224D01*
X579940Y255205D01*
X579929Y255188D01*
X579904Y255088D01*
X579873Y254989D01*
X579874Y254969D01*
X579869Y254950D01*
X579877Y254847D01*
X579880Y254743D01*
X579887Y254724D01*
X579888Y254704D01*
X579928Y254609D01*
X579964Y254512D01*
X579977Y254496D01*
X579984Y254478D01*
X580089Y254347D01*
X580902Y253535D01*
X580918Y253523D01*
X580930Y253507D01*
X581017Y253451D01*
X581101Y253391D01*
X581121Y253385D01*
X581137Y253374D01*
X581238Y253349D01*
X581337Y253319D01*
X581356Y253319D01*
X581376Y253314D01*
X581479Y253322D01*
X581582Y253325D01*
X581601Y253332D01*
X581621Y253333D01*
X581716Y253374D01*
X581813Y253410D01*
X581829Y253422D01*
X581847Y253430D01*
X581978Y253535D01*
X583058Y254615D01*
X590822Y254615D01*
X591902Y253535D01*
X591918Y253523D01*
X591930Y253507D01*
X592018Y253451D01*
X592101Y253391D01*
X592120Y253385D01*
X592137Y253374D01*
X592238Y253349D01*
X592337Y253319D01*
X592356Y253319D01*
X592376Y253314D01*
X592479Y253322D01*
X592582Y253325D01*
X592601Y253332D01*
X592621Y253333D01*
X592716Y253374D01*
X592813Y253409D01*
X592829Y253422D01*
X592847Y253430D01*
X592978Y253535D01*
X594058Y254615D01*
X601822Y254615D01*
X602902Y253535D01*
X602918Y253523D01*
X602930Y253507D01*
X603018Y253451D01*
X603101Y253391D01*
X603120Y253385D01*
X603137Y253374D01*
X603238Y253349D01*
X603337Y253319D01*
X603356Y253319D01*
X603376Y253314D01*
X603479Y253322D01*
X603582Y253325D01*
X603601Y253332D01*
X603621Y253333D01*
X603716Y253374D01*
X603813Y253409D01*
X603829Y253422D01*
X603847Y253430D01*
X603978Y253535D01*
X605058Y254615D01*
X612822Y254615D01*
X613902Y253535D01*
X613918Y253523D01*
X613930Y253507D01*
X614018Y253451D01*
X614101Y253391D01*
X614120Y253385D01*
X614137Y253374D01*
X614238Y253349D01*
X614337Y253319D01*
X614356Y253319D01*
X614376Y253314D01*
X614479Y253322D01*
X614582Y253325D01*
X614601Y253332D01*
X614621Y253333D01*
X614716Y253374D01*
X614813Y253409D01*
X614829Y253422D01*
X614847Y253430D01*
X614978Y253535D01*
X616058Y254615D01*
X623822Y254615D01*
X624902Y253535D01*
X624918Y253523D01*
X624930Y253507D01*
X625018Y253451D01*
X625101Y253391D01*
X625120Y253385D01*
X625137Y253374D01*
X625238Y253349D01*
X625337Y253319D01*
X625356Y253319D01*
X625376Y253314D01*
X625479Y253322D01*
X625582Y253325D01*
X625601Y253332D01*
X625621Y253333D01*
X625716Y253374D01*
X625813Y253409D01*
X625829Y253422D01*
X625847Y253430D01*
X625978Y253535D01*
X627058Y254615D01*
X634822Y254615D01*
X635715Y253722D01*
X635715Y237458D01*
X634822Y236565D01*
X627058Y236565D01*
X625978Y237645D01*
X625962Y237657D01*
X625950Y237673D01*
X625862Y237729D01*
X625779Y237789D01*
X625760Y237795D01*
X625743Y237806D01*
X625642Y237831D01*
X625543Y237861D01*
X625524Y237861D01*
X625504Y237866D01*
X625401Y237858D01*
X625298Y237855D01*
X625279Y237848D01*
X625259Y237847D01*
X625164Y237806D01*
X625067Y237771D01*
X625051Y237758D01*
X625033Y237750D01*
X624902Y237645D01*
X623822Y236565D01*
X616058Y236565D01*
X614978Y237645D01*
X614962Y237657D01*
X614950Y237673D01*
X614862Y237729D01*
X614779Y237789D01*
X614760Y237795D01*
X614743Y237806D01*
X614642Y237831D01*
X614543Y237861D01*
X614524Y237861D01*
X614504Y237866D01*
X614401Y237858D01*
X614298Y237855D01*
X614279Y237848D01*
X614259Y237847D01*
X614164Y237806D01*
X614067Y237771D01*
X614051Y237758D01*
X614033Y237750D01*
X613902Y237645D01*
X612822Y236565D01*
X605058Y236565D01*
X603978Y237645D01*
X603962Y237657D01*
X603950Y237673D01*
X603862Y237729D01*
X603779Y237789D01*
X603760Y237795D01*
X603743Y237806D01*
X603642Y237831D01*
X603543Y237861D01*
X603524Y237861D01*
X603504Y237866D01*
X603401Y237858D01*
X603298Y237855D01*
X603279Y237848D01*
X603259Y237847D01*
X603164Y237806D01*
X603067Y237771D01*
X603051Y237758D01*
X603033Y237750D01*
X602902Y237645D01*
X601822Y236565D01*
X594058Y236565D01*
X592978Y237645D01*
X592962Y237657D01*
X592950Y237673D01*
X592862Y237729D01*
X592779Y237789D01*
X592760Y237795D01*
X592743Y237806D01*
X592642Y237831D01*
X592543Y237861D01*
X592524Y237861D01*
X592504Y237866D01*
X592401Y237858D01*
X592298Y237855D01*
X592279Y237848D01*
X592259Y237847D01*
X592164Y237806D01*
X592067Y237771D01*
X592051Y237758D01*
X592033Y237750D01*
X591902Y237645D01*
X590817Y236561D01*
X590805Y236545D01*
X590790Y236532D01*
X590734Y236445D01*
X590674Y236361D01*
X590668Y236342D01*
X590657Y236325D01*
X590632Y236225D01*
X590601Y236126D01*
X590602Y236106D01*
X590597Y236087D01*
X590605Y235984D01*
X590608Y235880D01*
X590614Y235861D01*
X590616Y235842D01*
X590656Y235747D01*
X590692Y235649D01*
X590705Y235633D01*
X590712Y235615D01*
X590817Y235484D01*
X591797Y234505D01*
X591797Y230315D01*
X589572Y228090D01*
X589530Y228032D01*
X589480Y227980D01*
X589458Y227933D01*
X589428Y227891D01*
X589407Y227822D01*
X589377Y227757D01*
X589371Y227705D01*
X589356Y227655D01*
X589358Y227584D01*
X589350Y227513D01*
X589361Y227462D01*
X589362Y227410D01*
X589387Y227342D01*
X589402Y227272D01*
X589429Y227227D01*
X589446Y227179D01*
X589491Y227123D01*
X589528Y227061D01*
X589568Y227027D01*
X589600Y226987D01*
X589660Y226948D01*
X589715Y226901D01*
X589763Y226882D01*
X589807Y226854D01*
X589877Y226836D01*
X589943Y226809D01*
X590014Y226801D01*
X590046Y226793D01*
X590069Y226795D01*
X590110Y226791D01*
X634600Y226791D01*
X634690Y226805D01*
G37*
G36*
X351840Y454291D02*
X351840Y454291D01*
X351891Y454293D01*
X351923Y454311D01*
X351959Y454319D01*
X351998Y454352D01*
X352043Y454376D01*
X352064Y454406D01*
X352092Y454429D01*
X352113Y454476D01*
X352143Y454518D01*
X352151Y454560D01*
X352163Y454588D01*
X352162Y454618D01*
X352170Y454660D01*
X352170Y579120D01*
X352159Y579170D01*
X352157Y579221D01*
X352139Y579253D01*
X352131Y579289D01*
X352098Y579328D01*
X352074Y579373D01*
X352044Y579394D01*
X352021Y579422D01*
X351974Y579443D01*
X351932Y579473D01*
X351890Y579481D01*
X351862Y579493D01*
X351832Y579492D01*
X351790Y579500D01*
X328930Y579500D01*
X328880Y579489D01*
X328829Y579487D01*
X328797Y579469D01*
X328761Y579461D01*
X328722Y579428D01*
X328677Y579404D01*
X328656Y579374D01*
X328628Y579351D01*
X328607Y579304D01*
X328577Y579262D01*
X328569Y579220D01*
X328557Y579192D01*
X328558Y579162D01*
X328550Y579120D01*
X328550Y557688D01*
X312151Y541289D01*
X312111Y541224D01*
X312067Y541162D01*
X312065Y541150D01*
X312060Y541142D01*
X312056Y541105D01*
X312040Y541020D01*
X312040Y454660D01*
X312051Y454610D01*
X312053Y454559D01*
X312071Y454527D01*
X312079Y454491D01*
X312112Y454452D01*
X312136Y454407D01*
X312166Y454386D01*
X312189Y454358D01*
X312236Y454337D01*
X312278Y454307D01*
X312320Y454299D01*
X312348Y454287D01*
X312378Y454288D01*
X312420Y454280D01*
X351790Y454280D01*
X351840Y454291D01*
G37*
G36*
X240080Y385711D02*
X240080Y385711D01*
X240131Y385713D01*
X240163Y385731D01*
X240199Y385739D01*
X240238Y385772D01*
X240283Y385796D01*
X240304Y385826D01*
X240332Y385849D01*
X240353Y385896D01*
X240383Y385938D01*
X240391Y385980D01*
X240403Y386008D01*
X240402Y386038D01*
X240410Y386080D01*
X240410Y408783D01*
X286019Y454391D01*
X286059Y454456D01*
X286103Y454518D01*
X286105Y454530D01*
X286110Y454538D01*
X286114Y454575D01*
X286130Y454660D01*
X286130Y485140D01*
X286119Y485190D01*
X286117Y485241D01*
X286099Y485273D01*
X286091Y485309D01*
X286058Y485348D01*
X286034Y485393D01*
X286004Y485414D01*
X285981Y485442D01*
X285934Y485463D01*
X285892Y485493D01*
X285850Y485501D01*
X285822Y485513D01*
X285792Y485512D01*
X285750Y485520D01*
X264160Y485520D01*
X264086Y485503D01*
X264011Y485490D01*
X264001Y485483D01*
X263991Y485481D01*
X263962Y485457D01*
X263891Y485409D01*
X200391Y421909D01*
X200351Y421844D01*
X200307Y421782D01*
X200305Y421770D01*
X200300Y421762D01*
X200296Y421725D01*
X200280Y421640D01*
X200280Y386080D01*
X200291Y386030D01*
X200293Y385979D01*
X200311Y385947D01*
X200319Y385911D01*
X200352Y385872D01*
X200376Y385827D01*
X200406Y385806D01*
X200429Y385778D01*
X200476Y385757D01*
X200518Y385727D01*
X200560Y385719D01*
X200588Y385707D01*
X200618Y385708D01*
X200660Y385700D01*
X240030Y385700D01*
X240080Y385711D01*
G37*
G36*
X381050Y386981D02*
X381050Y386981D01*
X381101Y386983D01*
X381133Y387001D01*
X381169Y387009D01*
X381208Y387042D01*
X381253Y387066D01*
X381274Y387096D01*
X381302Y387119D01*
X381323Y387166D01*
X381353Y387208D01*
X381361Y387250D01*
X381373Y387278D01*
X381372Y387308D01*
X381380Y387350D01*
X381380Y410053D01*
X426989Y455661D01*
X427029Y455726D01*
X427073Y455788D01*
X427075Y455800D01*
X427080Y455808D01*
X427084Y455845D01*
X427100Y455930D01*
X427100Y485140D01*
X427089Y485190D01*
X427087Y485241D01*
X427069Y485273D01*
X427061Y485309D01*
X427028Y485348D01*
X427004Y485393D01*
X426974Y485414D01*
X426951Y485442D01*
X426904Y485463D01*
X426862Y485493D01*
X426820Y485501D01*
X426792Y485513D01*
X426762Y485512D01*
X426720Y485520D01*
X405130Y485520D01*
X405056Y485503D01*
X404981Y485490D01*
X404971Y485483D01*
X404961Y485481D01*
X404932Y485457D01*
X404861Y485409D01*
X338821Y419369D01*
X338781Y419304D01*
X338737Y419242D01*
X338735Y419230D01*
X338730Y419222D01*
X338726Y419185D01*
X338710Y419100D01*
X338710Y387350D01*
X338721Y387300D01*
X338723Y387249D01*
X338741Y387217D01*
X338749Y387181D01*
X338782Y387142D01*
X338806Y387097D01*
X338836Y387076D01*
X338859Y387048D01*
X338906Y387027D01*
X338948Y386997D01*
X338990Y386989D01*
X339018Y386977D01*
X339048Y386978D01*
X339090Y386970D01*
X381000Y386970D01*
X381050Y386981D01*
G37*
G36*
X100380Y385711D02*
X100380Y385711D01*
X100431Y385713D01*
X100463Y385731D01*
X100499Y385739D01*
X100538Y385772D01*
X100583Y385796D01*
X100604Y385826D01*
X100632Y385849D01*
X100653Y385896D01*
X100683Y385938D01*
X100691Y385980D01*
X100703Y386008D01*
X100702Y386038D01*
X100710Y386080D01*
X100710Y408783D01*
X146319Y454391D01*
X146359Y454456D01*
X146403Y454518D01*
X146405Y454530D01*
X146410Y454538D01*
X146414Y454575D01*
X146430Y454660D01*
X146430Y485140D01*
X146419Y485190D01*
X146417Y485241D01*
X146399Y485273D01*
X146391Y485309D01*
X146358Y485348D01*
X146334Y485393D01*
X146304Y485414D01*
X146281Y485442D01*
X146234Y485463D01*
X146192Y485493D01*
X146150Y485501D01*
X146122Y485513D01*
X146092Y485512D01*
X146050Y485520D01*
X125730Y485520D01*
X125656Y485503D01*
X125581Y485490D01*
X125571Y485483D01*
X125561Y485481D01*
X125532Y485457D01*
X125461Y485409D01*
X60691Y420639D01*
X60651Y420574D01*
X60607Y420512D01*
X60605Y420500D01*
X60600Y420492D01*
X60596Y420455D01*
X60580Y420370D01*
X60580Y386080D01*
X60591Y386030D01*
X60593Y385979D01*
X60611Y385947D01*
X60619Y385911D01*
X60652Y385872D01*
X60676Y385827D01*
X60706Y385806D01*
X60729Y385778D01*
X60776Y385757D01*
X60818Y385727D01*
X60860Y385719D01*
X60888Y385707D01*
X60918Y385708D01*
X60960Y385700D01*
X100330Y385700D01*
X100380Y385711D01*
G37*
G36*
X522020Y388251D02*
X522020Y388251D01*
X522071Y388253D01*
X522103Y388271D01*
X522139Y388279D01*
X522178Y388312D01*
X522223Y388336D01*
X522244Y388366D01*
X522272Y388389D01*
X522293Y388436D01*
X522323Y388478D01*
X522331Y388520D01*
X522343Y388548D01*
X522342Y388578D01*
X522350Y388620D01*
X522350Y411323D01*
X566689Y455661D01*
X566701Y455681D01*
X566717Y455694D01*
X566735Y455734D01*
X566773Y455788D01*
X566775Y455800D01*
X566780Y455808D01*
X566784Y455843D01*
X566788Y455852D01*
X566787Y455862D01*
X566800Y455930D01*
X566800Y485140D01*
X566789Y485190D01*
X566787Y485241D01*
X566769Y485273D01*
X566761Y485309D01*
X566728Y485348D01*
X566704Y485393D01*
X566674Y485414D01*
X566651Y485442D01*
X566604Y485463D01*
X566562Y485493D01*
X566520Y485501D01*
X566492Y485513D01*
X566462Y485512D01*
X566420Y485520D01*
X544830Y485520D01*
X544756Y485503D01*
X544681Y485490D01*
X544671Y485483D01*
X544661Y485481D01*
X544632Y485457D01*
X544561Y485409D01*
X479791Y420639D01*
X479751Y420574D01*
X479707Y420512D01*
X479705Y420500D01*
X479700Y420492D01*
X479696Y420455D01*
X479680Y420370D01*
X479680Y388620D01*
X479691Y388570D01*
X479693Y388519D01*
X479711Y388487D01*
X479719Y388451D01*
X479752Y388412D01*
X479776Y388367D01*
X479806Y388346D01*
X479829Y388318D01*
X479876Y388297D01*
X479918Y388267D01*
X479960Y388259D01*
X479988Y388247D01*
X480018Y388248D01*
X480060Y388240D01*
X521970Y388240D01*
X522020Y388251D01*
G37*
G36*
X662990Y388251D02*
X662990Y388251D01*
X663041Y388253D01*
X663073Y388271D01*
X663109Y388279D01*
X663148Y388312D01*
X663193Y388336D01*
X663214Y388366D01*
X663242Y388389D01*
X663263Y388436D01*
X663293Y388478D01*
X663301Y388520D01*
X663313Y388548D01*
X663312Y388578D01*
X663320Y388620D01*
X663320Y411323D01*
X710199Y458201D01*
X710239Y458266D01*
X710283Y458328D01*
X710285Y458340D01*
X710290Y458348D01*
X710294Y458385D01*
X710310Y458470D01*
X710310Y485140D01*
X710299Y485190D01*
X710297Y485241D01*
X710279Y485273D01*
X710271Y485309D01*
X710238Y485348D01*
X710214Y485393D01*
X710184Y485414D01*
X710161Y485442D01*
X710114Y485463D01*
X710072Y485493D01*
X710030Y485501D01*
X710002Y485513D01*
X709972Y485512D01*
X709930Y485520D01*
X688340Y485520D01*
X688266Y485503D01*
X688191Y485490D01*
X688181Y485483D01*
X688171Y485481D01*
X688142Y485457D01*
X688071Y485409D01*
X622031Y419369D01*
X621991Y419304D01*
X621947Y419242D01*
X621945Y419230D01*
X621940Y419222D01*
X621936Y419185D01*
X621920Y419100D01*
X621920Y388620D01*
X621931Y388570D01*
X621933Y388519D01*
X621951Y388487D01*
X621959Y388451D01*
X621992Y388412D01*
X622016Y388367D01*
X622046Y388346D01*
X622069Y388318D01*
X622116Y388297D01*
X622158Y388267D01*
X622200Y388259D01*
X622228Y388247D01*
X622258Y388248D01*
X622300Y388240D01*
X662940Y388240D01*
X662990Y388251D01*
G37*
%LPC*%
G36*
X467308Y147615D02*
X467308Y147615D01*
X466415Y148508D01*
X466415Y156272D01*
X467495Y157352D01*
X467507Y157368D01*
X467523Y157380D01*
X467579Y157468D01*
X467639Y157551D01*
X467645Y157570D01*
X467656Y157587D01*
X467681Y157688D01*
X467711Y157787D01*
X467711Y157806D01*
X467716Y157826D01*
X467708Y157929D01*
X467705Y158032D01*
X467698Y158051D01*
X467697Y158071D01*
X467656Y158166D01*
X467621Y158263D01*
X467608Y158279D01*
X467600Y158297D01*
X467495Y158428D01*
X466415Y159508D01*
X466415Y167272D01*
X467495Y168352D01*
X467507Y168368D01*
X467523Y168380D01*
X467579Y168468D01*
X467639Y168551D01*
X467645Y168570D01*
X467656Y168587D01*
X467681Y168688D01*
X467711Y168787D01*
X467711Y168806D01*
X467716Y168826D01*
X467708Y168929D01*
X467705Y169032D01*
X467698Y169051D01*
X467697Y169071D01*
X467656Y169166D01*
X467621Y169263D01*
X467608Y169279D01*
X467600Y169297D01*
X467495Y169428D01*
X466415Y170508D01*
X466415Y178272D01*
X467495Y179352D01*
X467507Y179368D01*
X467523Y179380D01*
X467579Y179468D01*
X467639Y179551D01*
X467645Y179570D01*
X467656Y179587D01*
X467681Y179688D01*
X467711Y179787D01*
X467711Y179806D01*
X467716Y179826D01*
X467708Y179929D01*
X467705Y180032D01*
X467698Y180051D01*
X467697Y180071D01*
X467656Y180166D01*
X467621Y180263D01*
X467608Y180279D01*
X467600Y180297D01*
X467495Y180428D01*
X466415Y181508D01*
X466415Y182320D01*
X466404Y182391D01*
X466402Y182462D01*
X466384Y182511D01*
X466376Y182563D01*
X466342Y182626D01*
X466317Y182693D01*
X466285Y182734D01*
X466260Y182780D01*
X466208Y182830D01*
X466164Y182886D01*
X466120Y182914D01*
X466082Y182950D01*
X466017Y182980D01*
X465957Y183019D01*
X465906Y183031D01*
X465859Y183053D01*
X465788Y183061D01*
X465718Y183079D01*
X465666Y183075D01*
X465615Y183080D01*
X465544Y183065D01*
X465473Y183059D01*
X465425Y183039D01*
X465374Y183028D01*
X465313Y182991D01*
X465247Y182963D01*
X465191Y182918D01*
X465163Y182902D01*
X465148Y182884D01*
X465116Y182858D01*
X457947Y175689D01*
X425280Y175689D01*
X420043Y180926D01*
X419969Y180979D01*
X419900Y181039D01*
X419870Y181051D01*
X419843Y181070D01*
X419756Y181097D01*
X419672Y181131D01*
X419631Y181135D01*
X419608Y181142D01*
X419576Y181141D01*
X419505Y181149D01*
X411507Y181149D01*
X405939Y186717D01*
X405939Y188489D01*
X405925Y188579D01*
X405917Y188670D01*
X405905Y188700D01*
X405900Y188732D01*
X405881Y188766D01*
X405879Y188776D01*
X405856Y188815D01*
X405821Y188896D01*
X405795Y188929D01*
X405784Y188949D01*
X405764Y188969D01*
X405753Y188987D01*
X405740Y188998D01*
X405716Y189027D01*
X404875Y189868D01*
X404875Y203832D01*
X405768Y204725D01*
X412112Y204725D01*
X413005Y203832D01*
X413005Y189868D01*
X412678Y189542D01*
X412667Y189526D01*
X412651Y189513D01*
X412595Y189426D01*
X412535Y189342D01*
X412529Y189323D01*
X412518Y189306D01*
X412493Y189206D01*
X412462Y189107D01*
X412463Y189087D01*
X412458Y189068D01*
X412466Y188965D01*
X412469Y188861D01*
X412476Y188842D01*
X412477Y188823D01*
X412518Y188728D01*
X412553Y188630D01*
X412566Y188615D01*
X412573Y188596D01*
X412678Y188465D01*
X413770Y187374D01*
X413844Y187321D01*
X413913Y187261D01*
X413943Y187249D01*
X413970Y187230D01*
X414057Y187203D01*
X414142Y187169D01*
X414183Y187165D01*
X414205Y187158D01*
X414237Y187159D01*
X414308Y187151D01*
X417878Y187151D01*
X417898Y187154D01*
X417917Y187152D01*
X418019Y187174D01*
X418121Y187190D01*
X418138Y187200D01*
X418158Y187204D01*
X418247Y187257D01*
X418338Y187306D01*
X418352Y187320D01*
X418369Y187330D01*
X418436Y187409D01*
X418508Y187484D01*
X418516Y187502D01*
X418529Y187517D01*
X418568Y187613D01*
X418611Y187707D01*
X418613Y187727D01*
X418621Y187745D01*
X418639Y187912D01*
X418639Y188489D01*
X418625Y188579D01*
X418617Y188670D01*
X418605Y188700D01*
X418600Y188732D01*
X418581Y188766D01*
X418579Y188776D01*
X418556Y188815D01*
X418521Y188896D01*
X418495Y188929D01*
X418484Y188949D01*
X418464Y188969D01*
X418453Y188987D01*
X418440Y188998D01*
X418416Y189027D01*
X417575Y189868D01*
X417575Y203832D01*
X418468Y204725D01*
X424812Y204725D01*
X425705Y203832D01*
X425705Y189724D01*
X425719Y189634D01*
X425727Y189543D01*
X425739Y189513D01*
X425744Y189482D01*
X425787Y189401D01*
X425823Y189317D01*
X425849Y189285D01*
X425860Y189264D01*
X425883Y189242D01*
X425928Y189186D01*
X429200Y185914D01*
X429274Y185861D01*
X429343Y185801D01*
X429374Y185789D01*
X429400Y185770D01*
X429487Y185743D01*
X429572Y185709D01*
X429612Y185705D01*
X429635Y185698D01*
X429667Y185699D01*
X429738Y185691D01*
X431798Y185691D01*
X431869Y185702D01*
X431940Y185704D01*
X431989Y185722D01*
X432041Y185730D01*
X432104Y185764D01*
X432171Y185789D01*
X432212Y185821D01*
X432258Y185846D01*
X432307Y185898D01*
X432363Y185942D01*
X432391Y185986D01*
X432427Y186024D01*
X432457Y186089D01*
X432496Y186149D01*
X432509Y186200D01*
X432531Y186247D01*
X432539Y186318D01*
X432556Y186388D01*
X432552Y186440D01*
X432558Y186491D01*
X432543Y186562D01*
X432537Y186633D01*
X432517Y186681D01*
X432506Y186732D01*
X432469Y186793D01*
X432441Y186859D01*
X432396Y186915D01*
X432380Y186943D01*
X432362Y186958D01*
X432336Y186990D01*
X431339Y187987D01*
X431339Y188489D01*
X431325Y188579D01*
X431317Y188670D01*
X431305Y188700D01*
X431300Y188732D01*
X431281Y188766D01*
X431279Y188776D01*
X431256Y188815D01*
X431221Y188896D01*
X431195Y188929D01*
X431184Y188949D01*
X431164Y188969D01*
X431153Y188987D01*
X431140Y188998D01*
X431116Y189027D01*
X430275Y189868D01*
X430275Y203832D01*
X431168Y204725D01*
X437512Y204725D01*
X438405Y203832D01*
X438405Y190452D01*
X438408Y190432D01*
X438406Y190413D01*
X438428Y190311D01*
X438444Y190209D01*
X438454Y190192D01*
X438458Y190172D01*
X438511Y190083D01*
X438560Y189992D01*
X438574Y189978D01*
X438584Y189961D01*
X438663Y189894D01*
X438738Y189822D01*
X438756Y189814D01*
X438771Y189801D01*
X438867Y189762D01*
X438961Y189719D01*
X438981Y189717D01*
X438999Y189709D01*
X439166Y189691D01*
X442214Y189691D01*
X442234Y189694D01*
X442253Y189692D01*
X442355Y189714D01*
X442457Y189730D01*
X442474Y189740D01*
X442494Y189744D01*
X442583Y189797D01*
X442674Y189846D01*
X442688Y189860D01*
X442705Y189870D01*
X442772Y189949D01*
X442844Y190024D01*
X442852Y190042D01*
X442865Y190057D01*
X442904Y190153D01*
X442947Y190247D01*
X442949Y190267D01*
X442957Y190285D01*
X442975Y190452D01*
X442975Y203832D01*
X443816Y204673D01*
X443869Y204747D01*
X443929Y204816D01*
X443941Y204846D01*
X443960Y204872D01*
X443987Y204959D01*
X444021Y205044D01*
X444025Y205085D01*
X444032Y205107D01*
X444031Y205140D01*
X444039Y205211D01*
X444039Y212063D01*
X464367Y232391D01*
X465654Y232391D01*
X465674Y232394D01*
X465693Y232392D01*
X465795Y232414D01*
X465897Y232430D01*
X465914Y232440D01*
X465934Y232444D01*
X466023Y232497D01*
X466114Y232546D01*
X466128Y232560D01*
X466145Y232570D01*
X466212Y232649D01*
X466284Y232724D01*
X466292Y232742D01*
X466305Y232757D01*
X466344Y232853D01*
X466387Y232947D01*
X466389Y232967D01*
X466397Y232985D01*
X466415Y233152D01*
X466415Y233272D01*
X467308Y234165D01*
X483572Y234165D01*
X484465Y233272D01*
X484465Y225508D01*
X483385Y224428D01*
X483373Y224412D01*
X483357Y224400D01*
X483301Y224312D01*
X483241Y224229D01*
X483235Y224210D01*
X483224Y224193D01*
X483199Y224092D01*
X483169Y223993D01*
X483169Y223974D01*
X483164Y223954D01*
X483172Y223851D01*
X483175Y223748D01*
X483182Y223729D01*
X483183Y223709D01*
X483224Y223614D01*
X483259Y223517D01*
X483272Y223501D01*
X483280Y223483D01*
X483385Y223352D01*
X484465Y222272D01*
X484465Y214508D01*
X483385Y213428D01*
X483373Y213412D01*
X483357Y213400D01*
X483301Y213312D01*
X483241Y213229D01*
X483235Y213210D01*
X483224Y213193D01*
X483199Y213092D01*
X483169Y212993D01*
X483169Y212974D01*
X483164Y212954D01*
X483172Y212851D01*
X483175Y212748D01*
X483182Y212729D01*
X483183Y212709D01*
X483224Y212614D01*
X483259Y212517D01*
X483272Y212501D01*
X483280Y212483D01*
X483385Y212352D01*
X484465Y211272D01*
X484465Y203508D01*
X483385Y202428D01*
X483373Y202412D01*
X483357Y202400D01*
X483301Y202312D01*
X483241Y202229D01*
X483235Y202210D01*
X483224Y202193D01*
X483199Y202092D01*
X483169Y201993D01*
X483169Y201974D01*
X483164Y201954D01*
X483172Y201851D01*
X483175Y201748D01*
X483182Y201729D01*
X483183Y201709D01*
X483224Y201614D01*
X483259Y201517D01*
X483272Y201501D01*
X483280Y201483D01*
X483385Y201352D01*
X484465Y200272D01*
X484465Y192508D01*
X483385Y191428D01*
X483373Y191412D01*
X483357Y191400D01*
X483301Y191312D01*
X483241Y191229D01*
X483235Y191210D01*
X483224Y191193D01*
X483199Y191092D01*
X483169Y190993D01*
X483169Y190974D01*
X483164Y190954D01*
X483172Y190851D01*
X483175Y190748D01*
X483182Y190729D01*
X483183Y190709D01*
X483224Y190614D01*
X483259Y190517D01*
X483272Y190501D01*
X483280Y190483D01*
X483385Y190352D01*
X484465Y189272D01*
X484465Y181508D01*
X483385Y180428D01*
X483373Y180412D01*
X483357Y180400D01*
X483301Y180312D01*
X483241Y180229D01*
X483235Y180210D01*
X483224Y180193D01*
X483199Y180092D01*
X483169Y179993D01*
X483169Y179974D01*
X483164Y179954D01*
X483172Y179851D01*
X483175Y179748D01*
X483182Y179729D01*
X483183Y179709D01*
X483224Y179614D01*
X483259Y179517D01*
X483272Y179501D01*
X483280Y179483D01*
X483385Y179352D01*
X484465Y178272D01*
X484465Y170508D01*
X483385Y169428D01*
X483373Y169412D01*
X483357Y169400D01*
X483301Y169312D01*
X483241Y169229D01*
X483235Y169210D01*
X483224Y169193D01*
X483199Y169092D01*
X483169Y168993D01*
X483169Y168974D01*
X483164Y168954D01*
X483172Y168851D01*
X483175Y168748D01*
X483182Y168729D01*
X483183Y168709D01*
X483224Y168614D01*
X483259Y168517D01*
X483272Y168501D01*
X483280Y168483D01*
X483385Y168352D01*
X484465Y167272D01*
X484465Y159508D01*
X483385Y158428D01*
X483373Y158412D01*
X483357Y158400D01*
X483301Y158312D01*
X483241Y158229D01*
X483235Y158210D01*
X483224Y158193D01*
X483199Y158092D01*
X483169Y157993D01*
X483169Y157974D01*
X483164Y157954D01*
X483172Y157851D01*
X483175Y157748D01*
X483182Y157729D01*
X483183Y157709D01*
X483224Y157614D01*
X483259Y157517D01*
X483272Y157501D01*
X483280Y157483D01*
X483385Y157352D01*
X484465Y156272D01*
X484465Y148508D01*
X483572Y147615D01*
X467308Y147615D01*
G37*
%LPD*%
%LPC*%
G36*
X495058Y72665D02*
X495058Y72665D01*
X494165Y73558D01*
X494165Y89822D01*
X495058Y90715D01*
X502822Y90715D01*
X503902Y89635D01*
X503918Y89623D01*
X503930Y89607D01*
X504018Y89551D01*
X504101Y89491D01*
X504120Y89485D01*
X504137Y89474D01*
X504238Y89449D01*
X504337Y89419D01*
X504356Y89419D01*
X504376Y89414D01*
X504479Y89422D01*
X504582Y89425D01*
X504601Y89432D01*
X504621Y89433D01*
X504716Y89474D01*
X504813Y89509D01*
X504829Y89522D01*
X504847Y89530D01*
X504978Y89635D01*
X506058Y90715D01*
X513822Y90715D01*
X514902Y89635D01*
X514918Y89623D01*
X514930Y89607D01*
X515018Y89551D01*
X515101Y89491D01*
X515120Y89485D01*
X515137Y89474D01*
X515238Y89449D01*
X515337Y89419D01*
X515356Y89419D01*
X515376Y89414D01*
X515479Y89422D01*
X515582Y89425D01*
X515601Y89432D01*
X515621Y89433D01*
X515716Y89474D01*
X515813Y89509D01*
X515829Y89522D01*
X515847Y89530D01*
X515978Y89635D01*
X517058Y90715D01*
X524822Y90715D01*
X525902Y89635D01*
X525918Y89623D01*
X525930Y89607D01*
X526018Y89551D01*
X526101Y89491D01*
X526120Y89485D01*
X526137Y89474D01*
X526238Y89449D01*
X526337Y89419D01*
X526356Y89419D01*
X526376Y89414D01*
X526479Y89422D01*
X526582Y89425D01*
X526601Y89432D01*
X526621Y89433D01*
X526716Y89474D01*
X526813Y89509D01*
X526829Y89522D01*
X526847Y89530D01*
X526978Y89635D01*
X528058Y90715D01*
X535822Y90715D01*
X536902Y89635D01*
X536918Y89623D01*
X536930Y89607D01*
X537018Y89551D01*
X537101Y89491D01*
X537120Y89485D01*
X537137Y89474D01*
X537238Y89449D01*
X537337Y89419D01*
X537356Y89419D01*
X537376Y89414D01*
X537479Y89422D01*
X537582Y89425D01*
X537601Y89432D01*
X537621Y89433D01*
X537716Y89474D01*
X537813Y89509D01*
X537829Y89522D01*
X537847Y89530D01*
X537978Y89635D01*
X539058Y90715D01*
X546822Y90715D01*
X547902Y89635D01*
X547918Y89623D01*
X547930Y89607D01*
X548018Y89551D01*
X548101Y89491D01*
X548120Y89485D01*
X548137Y89474D01*
X548238Y89449D01*
X548337Y89419D01*
X548356Y89419D01*
X548376Y89414D01*
X548479Y89422D01*
X548582Y89425D01*
X548601Y89432D01*
X548621Y89433D01*
X548716Y89474D01*
X548813Y89509D01*
X548829Y89522D01*
X548847Y89530D01*
X548978Y89635D01*
X550058Y90715D01*
X557822Y90715D01*
X558902Y89635D01*
X558918Y89623D01*
X558930Y89607D01*
X559018Y89551D01*
X559101Y89491D01*
X559120Y89485D01*
X559137Y89474D01*
X559238Y89449D01*
X559337Y89419D01*
X559356Y89419D01*
X559376Y89414D01*
X559479Y89422D01*
X559582Y89425D01*
X559601Y89432D01*
X559621Y89433D01*
X559716Y89474D01*
X559813Y89509D01*
X559829Y89522D01*
X559847Y89530D01*
X559978Y89635D01*
X561058Y90715D01*
X568822Y90715D01*
X569902Y89635D01*
X569918Y89623D01*
X569930Y89607D01*
X570018Y89551D01*
X570101Y89491D01*
X570120Y89485D01*
X570137Y89474D01*
X570238Y89449D01*
X570337Y89419D01*
X570356Y89419D01*
X570376Y89414D01*
X570479Y89422D01*
X570582Y89425D01*
X570601Y89432D01*
X570621Y89433D01*
X570716Y89474D01*
X570813Y89509D01*
X570829Y89522D01*
X570847Y89530D01*
X570978Y89635D01*
X572058Y90715D01*
X579822Y90715D01*
X580902Y89635D01*
X580918Y89623D01*
X580930Y89607D01*
X581018Y89551D01*
X581101Y89491D01*
X581120Y89485D01*
X581137Y89474D01*
X581238Y89449D01*
X581337Y89419D01*
X581356Y89419D01*
X581376Y89414D01*
X581479Y89422D01*
X581582Y89425D01*
X581601Y89432D01*
X581621Y89433D01*
X581716Y89474D01*
X581813Y89509D01*
X581829Y89522D01*
X581847Y89530D01*
X581978Y89635D01*
X583058Y90715D01*
X590822Y90715D01*
X591902Y89635D01*
X591918Y89623D01*
X591930Y89607D01*
X592018Y89551D01*
X592101Y89491D01*
X592120Y89485D01*
X592137Y89474D01*
X592238Y89449D01*
X592337Y89419D01*
X592356Y89419D01*
X592376Y89414D01*
X592479Y89422D01*
X592582Y89425D01*
X592601Y89432D01*
X592621Y89433D01*
X592716Y89474D01*
X592813Y89509D01*
X592829Y89522D01*
X592847Y89530D01*
X592978Y89635D01*
X594058Y90715D01*
X601822Y90715D01*
X602902Y89635D01*
X602918Y89623D01*
X602930Y89607D01*
X603018Y89551D01*
X603101Y89491D01*
X603120Y89485D01*
X603137Y89474D01*
X603238Y89449D01*
X603337Y89419D01*
X603356Y89419D01*
X603376Y89414D01*
X603479Y89422D01*
X603582Y89425D01*
X603601Y89432D01*
X603621Y89433D01*
X603716Y89474D01*
X603813Y89509D01*
X603829Y89522D01*
X603847Y89530D01*
X603978Y89635D01*
X605058Y90715D01*
X612822Y90715D01*
X613902Y89635D01*
X613918Y89623D01*
X613930Y89607D01*
X614018Y89551D01*
X614101Y89491D01*
X614120Y89485D01*
X614137Y89474D01*
X614238Y89449D01*
X614337Y89419D01*
X614356Y89419D01*
X614376Y89414D01*
X614479Y89422D01*
X614582Y89425D01*
X614601Y89432D01*
X614621Y89433D01*
X614716Y89474D01*
X614813Y89509D01*
X614829Y89522D01*
X614847Y89530D01*
X614978Y89635D01*
X616058Y90715D01*
X623822Y90715D01*
X624715Y89822D01*
X624715Y73558D01*
X623822Y72665D01*
X616058Y72665D01*
X614978Y73745D01*
X614962Y73757D01*
X614950Y73773D01*
X614862Y73829D01*
X614779Y73889D01*
X614760Y73895D01*
X614743Y73906D01*
X614642Y73931D01*
X614543Y73961D01*
X614524Y73961D01*
X614504Y73966D01*
X614401Y73958D01*
X614298Y73955D01*
X614279Y73948D01*
X614259Y73947D01*
X614164Y73906D01*
X614067Y73871D01*
X614051Y73858D01*
X614033Y73850D01*
X613902Y73745D01*
X612822Y72665D01*
X605058Y72665D01*
X603978Y73745D01*
X603962Y73757D01*
X603950Y73773D01*
X603862Y73829D01*
X603779Y73889D01*
X603760Y73895D01*
X603743Y73906D01*
X603642Y73931D01*
X603543Y73961D01*
X603524Y73961D01*
X603504Y73966D01*
X603401Y73958D01*
X603298Y73955D01*
X603279Y73948D01*
X603259Y73947D01*
X603164Y73906D01*
X603067Y73871D01*
X603051Y73858D01*
X603033Y73850D01*
X602902Y73745D01*
X601822Y72665D01*
X594058Y72665D01*
X592978Y73745D01*
X592962Y73757D01*
X592950Y73773D01*
X592862Y73829D01*
X592779Y73889D01*
X592760Y73895D01*
X592743Y73906D01*
X592642Y73931D01*
X592543Y73961D01*
X592524Y73961D01*
X592504Y73966D01*
X592401Y73958D01*
X592298Y73955D01*
X592279Y73948D01*
X592259Y73947D01*
X592164Y73906D01*
X592067Y73871D01*
X592051Y73858D01*
X592033Y73850D01*
X591902Y73745D01*
X590822Y72665D01*
X583058Y72665D01*
X581978Y73745D01*
X581962Y73757D01*
X581950Y73773D01*
X581862Y73829D01*
X581779Y73889D01*
X581760Y73895D01*
X581743Y73906D01*
X581642Y73931D01*
X581543Y73961D01*
X581524Y73961D01*
X581504Y73966D01*
X581401Y73958D01*
X581298Y73955D01*
X581279Y73948D01*
X581259Y73947D01*
X581164Y73906D01*
X581067Y73871D01*
X581051Y73858D01*
X581033Y73850D01*
X580902Y73745D01*
X579822Y72665D01*
X572058Y72665D01*
X570978Y73745D01*
X570962Y73757D01*
X570950Y73773D01*
X570862Y73829D01*
X570779Y73889D01*
X570760Y73895D01*
X570743Y73906D01*
X570642Y73931D01*
X570543Y73961D01*
X570524Y73961D01*
X570504Y73966D01*
X570401Y73958D01*
X570298Y73955D01*
X570279Y73948D01*
X570259Y73947D01*
X570164Y73906D01*
X570067Y73871D01*
X570051Y73858D01*
X570033Y73850D01*
X569902Y73745D01*
X568822Y72665D01*
X561058Y72665D01*
X559978Y73745D01*
X559962Y73757D01*
X559950Y73773D01*
X559862Y73829D01*
X559779Y73889D01*
X559760Y73895D01*
X559743Y73906D01*
X559642Y73931D01*
X559543Y73961D01*
X559524Y73961D01*
X559504Y73966D01*
X559401Y73958D01*
X559298Y73955D01*
X559279Y73948D01*
X559259Y73947D01*
X559164Y73906D01*
X559067Y73871D01*
X559051Y73858D01*
X559033Y73850D01*
X558902Y73745D01*
X557822Y72665D01*
X550058Y72665D01*
X548978Y73745D01*
X548962Y73757D01*
X548950Y73773D01*
X548862Y73829D01*
X548779Y73889D01*
X548760Y73895D01*
X548743Y73906D01*
X548642Y73931D01*
X548543Y73961D01*
X548524Y73961D01*
X548504Y73966D01*
X548401Y73958D01*
X548298Y73955D01*
X548279Y73948D01*
X548259Y73947D01*
X548164Y73906D01*
X548067Y73871D01*
X548051Y73858D01*
X548033Y73850D01*
X547902Y73745D01*
X546822Y72665D01*
X539058Y72665D01*
X537978Y73745D01*
X537962Y73757D01*
X537950Y73773D01*
X537862Y73829D01*
X537779Y73889D01*
X537760Y73895D01*
X537743Y73906D01*
X537642Y73931D01*
X537543Y73961D01*
X537524Y73961D01*
X537504Y73966D01*
X537401Y73958D01*
X537298Y73955D01*
X537279Y73948D01*
X537259Y73947D01*
X537164Y73906D01*
X537067Y73871D01*
X537051Y73858D01*
X537033Y73850D01*
X536902Y73745D01*
X535822Y72665D01*
X528058Y72665D01*
X526978Y73745D01*
X526962Y73757D01*
X526950Y73773D01*
X526862Y73829D01*
X526779Y73889D01*
X526760Y73895D01*
X526743Y73906D01*
X526642Y73931D01*
X526543Y73961D01*
X526524Y73961D01*
X526504Y73966D01*
X526401Y73958D01*
X526298Y73955D01*
X526279Y73948D01*
X526259Y73947D01*
X526164Y73906D01*
X526067Y73871D01*
X526051Y73858D01*
X526033Y73850D01*
X525902Y73745D01*
X524822Y72665D01*
X517058Y72665D01*
X515978Y73745D01*
X515962Y73757D01*
X515950Y73773D01*
X515862Y73829D01*
X515779Y73889D01*
X515760Y73895D01*
X515743Y73906D01*
X515642Y73931D01*
X515543Y73961D01*
X515524Y73961D01*
X515504Y73966D01*
X515401Y73958D01*
X515298Y73955D01*
X515279Y73948D01*
X515259Y73947D01*
X515164Y73906D01*
X515067Y73871D01*
X515051Y73858D01*
X515033Y73850D01*
X514902Y73745D01*
X513822Y72665D01*
X506058Y72665D01*
X504978Y73745D01*
X504962Y73757D01*
X504950Y73773D01*
X504862Y73829D01*
X504779Y73889D01*
X504760Y73895D01*
X504743Y73906D01*
X504642Y73931D01*
X504543Y73961D01*
X504524Y73961D01*
X504504Y73966D01*
X504401Y73958D01*
X504298Y73955D01*
X504279Y73948D01*
X504259Y73947D01*
X504164Y73906D01*
X504067Y73871D01*
X504051Y73858D01*
X504033Y73850D01*
X503902Y73745D01*
X502822Y72665D01*
X495058Y72665D01*
G37*
%LPD*%
G36*
X610920Y304431D02*
X610920Y304431D01*
X610971Y304433D01*
X611003Y304451D01*
X611039Y304459D01*
X611078Y304492D01*
X611123Y304516D01*
X611144Y304546D01*
X611172Y304569D01*
X611193Y304616D01*
X611223Y304658D01*
X611231Y304700D01*
X611243Y304728D01*
X611242Y304758D01*
X611250Y304800D01*
X611250Y334010D01*
X611233Y334084D01*
X611220Y334159D01*
X611213Y334169D01*
X611211Y334179D01*
X611187Y334208D01*
X611139Y334279D01*
X599820Y345598D01*
X599820Y367030D01*
X599809Y367080D01*
X599807Y367131D01*
X599789Y367163D01*
X599781Y367199D01*
X599748Y367238D01*
X599724Y367283D01*
X599694Y367304D01*
X599671Y367332D01*
X599624Y367353D01*
X599582Y367383D01*
X599540Y367391D01*
X599512Y367403D01*
X599482Y367402D01*
X599440Y367410D01*
X580390Y367410D01*
X580340Y367399D01*
X580289Y367397D01*
X580257Y367379D01*
X580221Y367371D01*
X580182Y367338D01*
X580137Y367314D01*
X580116Y367284D01*
X580088Y367261D01*
X580067Y367214D01*
X580037Y367172D01*
X580029Y367130D01*
X580017Y367102D01*
X580018Y367072D01*
X580010Y367030D01*
X580010Y304800D01*
X580021Y304750D01*
X580023Y304699D01*
X580041Y304667D01*
X580049Y304631D01*
X580082Y304592D01*
X580106Y304547D01*
X580136Y304526D01*
X580159Y304498D01*
X580206Y304477D01*
X580248Y304447D01*
X580290Y304439D01*
X580318Y304427D01*
X580348Y304428D01*
X580390Y304420D01*
X610870Y304420D01*
X610920Y304431D01*
G37*
G36*
X468680Y304431D02*
X468680Y304431D01*
X468731Y304433D01*
X468763Y304451D01*
X468799Y304459D01*
X468838Y304492D01*
X468883Y304516D01*
X468904Y304546D01*
X468932Y304569D01*
X468953Y304616D01*
X468983Y304658D01*
X468991Y304700D01*
X469003Y304728D01*
X469002Y304758D01*
X469010Y304800D01*
X469010Y334010D01*
X468993Y334084D01*
X468980Y334159D01*
X468973Y334169D01*
X468971Y334179D01*
X468947Y334208D01*
X468899Y334279D01*
X457580Y345598D01*
X457580Y367030D01*
X457569Y367080D01*
X457567Y367131D01*
X457549Y367163D01*
X457541Y367199D01*
X457508Y367238D01*
X457484Y367283D01*
X457454Y367304D01*
X457431Y367332D01*
X457384Y367353D01*
X457342Y367383D01*
X457300Y367391D01*
X457272Y367403D01*
X457242Y367402D01*
X457200Y367410D01*
X439420Y367410D01*
X439370Y367399D01*
X439319Y367397D01*
X439287Y367379D01*
X439251Y367371D01*
X439212Y367338D01*
X439167Y367314D01*
X439146Y367284D01*
X439118Y367261D01*
X439097Y367214D01*
X439067Y367172D01*
X439059Y367130D01*
X439047Y367102D01*
X439048Y367072D01*
X439040Y367030D01*
X439040Y304800D01*
X439051Y304750D01*
X439053Y304699D01*
X439071Y304667D01*
X439079Y304631D01*
X439112Y304592D01*
X439136Y304547D01*
X439166Y304526D01*
X439189Y304498D01*
X439236Y304477D01*
X439278Y304447D01*
X439320Y304439D01*
X439348Y304427D01*
X439378Y304428D01*
X439420Y304420D01*
X468630Y304420D01*
X468680Y304431D01*
G37*
G36*
X327710Y304431D02*
X327710Y304431D01*
X327761Y304433D01*
X327793Y304451D01*
X327829Y304459D01*
X327868Y304492D01*
X327913Y304516D01*
X327934Y304546D01*
X327962Y304569D01*
X327983Y304616D01*
X328013Y304658D01*
X328021Y304700D01*
X328033Y304728D01*
X328032Y304758D01*
X328040Y304800D01*
X328040Y334010D01*
X328023Y334084D01*
X328010Y334159D01*
X328003Y334169D01*
X328001Y334179D01*
X327977Y334208D01*
X327929Y334279D01*
X316610Y345598D01*
X316610Y365760D01*
X316599Y365810D01*
X316597Y365861D01*
X316579Y365893D01*
X316571Y365929D01*
X316538Y365968D01*
X316514Y366013D01*
X316484Y366034D01*
X316461Y366062D01*
X316414Y366083D01*
X316372Y366113D01*
X316330Y366121D01*
X316302Y366133D01*
X316272Y366132D01*
X316230Y366140D01*
X298450Y366140D01*
X298400Y366129D01*
X298349Y366127D01*
X298317Y366109D01*
X298281Y366101D01*
X298242Y366068D01*
X298197Y366044D01*
X298176Y366014D01*
X298148Y365991D01*
X298127Y365944D01*
X298097Y365902D01*
X298089Y365860D01*
X298077Y365832D01*
X298078Y365802D01*
X298070Y365760D01*
X298070Y304800D01*
X298081Y304750D01*
X298083Y304699D01*
X298101Y304667D01*
X298109Y304631D01*
X298142Y304592D01*
X298166Y304547D01*
X298196Y304526D01*
X298219Y304498D01*
X298266Y304477D01*
X298308Y304447D01*
X298350Y304439D01*
X298378Y304427D01*
X298408Y304428D01*
X298450Y304420D01*
X327660Y304420D01*
X327710Y304431D01*
G37*
G36*
X189280Y304431D02*
X189280Y304431D01*
X189331Y304433D01*
X189363Y304451D01*
X189399Y304459D01*
X189438Y304492D01*
X189483Y304516D01*
X189504Y304546D01*
X189532Y304569D01*
X189553Y304616D01*
X189583Y304658D01*
X189591Y304700D01*
X189603Y304728D01*
X189602Y304758D01*
X189610Y304800D01*
X189610Y334010D01*
X189593Y334084D01*
X189580Y334159D01*
X189573Y334169D01*
X189571Y334179D01*
X189547Y334208D01*
X189499Y334279D01*
X178180Y345598D01*
X178180Y364490D01*
X178169Y364540D01*
X178167Y364591D01*
X178149Y364623D01*
X178141Y364659D01*
X178108Y364698D01*
X178084Y364743D01*
X178054Y364764D01*
X178031Y364792D01*
X177984Y364813D01*
X177942Y364843D01*
X177900Y364851D01*
X177872Y364863D01*
X177842Y364862D01*
X177800Y364870D01*
X160020Y364870D01*
X159970Y364859D01*
X159919Y364857D01*
X159887Y364839D01*
X159851Y364831D01*
X159812Y364798D01*
X159767Y364774D01*
X159746Y364744D01*
X159718Y364721D01*
X159697Y364674D01*
X159667Y364632D01*
X159659Y364590D01*
X159647Y364562D01*
X159648Y364532D01*
X159640Y364490D01*
X159640Y304800D01*
X159651Y304750D01*
X159653Y304699D01*
X159671Y304667D01*
X159679Y304631D01*
X159712Y304592D01*
X159736Y304547D01*
X159766Y304526D01*
X159789Y304498D01*
X159836Y304477D01*
X159878Y304447D01*
X159920Y304439D01*
X159948Y304427D01*
X159978Y304428D01*
X160020Y304420D01*
X189230Y304420D01*
X189280Y304431D01*
G37*
G36*
X38150Y306971D02*
X38150Y306971D01*
X38201Y306973D01*
X38233Y306991D01*
X38269Y306999D01*
X38308Y307032D01*
X38353Y307056D01*
X38374Y307086D01*
X38402Y307109D01*
X38423Y307156D01*
X38453Y307198D01*
X38461Y307240D01*
X38473Y307268D01*
X38472Y307298D01*
X38480Y307340D01*
X38480Y365760D01*
X38469Y365810D01*
X38467Y365861D01*
X38449Y365893D01*
X38441Y365929D01*
X38408Y365968D01*
X38384Y366013D01*
X38354Y366034D01*
X38331Y366062D01*
X38284Y366083D01*
X38242Y366113D01*
X38200Y366121D01*
X38172Y366133D01*
X38142Y366132D01*
X38100Y366140D01*
X17780Y366140D01*
X17730Y366129D01*
X17679Y366127D01*
X17647Y366109D01*
X17611Y366101D01*
X17572Y366068D01*
X17527Y366044D01*
X17506Y366014D01*
X17478Y365991D01*
X17457Y365944D01*
X17427Y365902D01*
X17419Y365860D01*
X17407Y365832D01*
X17408Y365802D01*
X17400Y365760D01*
X17400Y307340D01*
X17411Y307290D01*
X17413Y307239D01*
X17431Y307207D01*
X17439Y307171D01*
X17472Y307132D01*
X17496Y307087D01*
X17526Y307066D01*
X17549Y307038D01*
X17596Y307017D01*
X17638Y306987D01*
X17680Y306979D01*
X17708Y306967D01*
X17738Y306968D01*
X17780Y306960D01*
X38100Y306960D01*
X38150Y306971D01*
G37*
G36*
X396260Y151642D02*
X396260Y151642D01*
X396279Y151640D01*
X396381Y151662D01*
X396483Y151679D01*
X396500Y151688D01*
X396520Y151692D01*
X396609Y151745D01*
X396700Y151794D01*
X396714Y151808D01*
X396731Y151818D01*
X396798Y151897D01*
X396870Y151972D01*
X396878Y151990D01*
X396891Y152005D01*
X396930Y152101D01*
X396973Y152195D01*
X396975Y152215D01*
X396983Y152233D01*
X397001Y152400D01*
X397001Y181610D01*
X396998Y181630D01*
X397000Y181649D01*
X396978Y181751D01*
X396962Y181853D01*
X396952Y181870D01*
X396948Y181890D01*
X396895Y181979D01*
X396846Y182070D01*
X396832Y182084D01*
X396822Y182101D01*
X396743Y182168D01*
X396668Y182240D01*
X396650Y182248D01*
X396635Y182261D01*
X396539Y182300D01*
X396445Y182343D01*
X396425Y182345D01*
X396407Y182353D01*
X396240Y182371D01*
X370840Y182371D01*
X370820Y182368D01*
X370801Y182370D01*
X370699Y182348D01*
X370597Y182332D01*
X370580Y182322D01*
X370560Y182318D01*
X370471Y182265D01*
X370380Y182216D01*
X370366Y182202D01*
X370349Y182192D01*
X370282Y182113D01*
X370211Y182038D01*
X370202Y182020D01*
X370189Y182005D01*
X370150Y181909D01*
X370107Y181815D01*
X370105Y181795D01*
X370097Y181777D01*
X370079Y181610D01*
X370079Y160020D01*
X370094Y159930D01*
X370101Y159839D01*
X370113Y159809D01*
X370119Y159777D01*
X370138Y159741D01*
X370140Y159733D01*
X370161Y159696D01*
X370197Y159613D01*
X370223Y159581D01*
X370234Y159560D01*
X370255Y159540D01*
X370266Y159522D01*
X370279Y159510D01*
X370302Y159482D01*
X377922Y151862D01*
X377996Y151809D01*
X378065Y151749D01*
X378095Y151737D01*
X378121Y151718D01*
X378208Y151691D01*
X378293Y151657D01*
X378334Y151653D01*
X378357Y151646D01*
X378389Y151647D01*
X378460Y151639D01*
X396240Y151639D01*
X396260Y151642D01*
G37*
%LPC*%
G36*
X445598Y145875D02*
X445598Y145875D01*
X444705Y146768D01*
X444705Y158032D01*
X445598Y158925D01*
X447968Y158925D01*
X447988Y158928D01*
X448007Y158926D01*
X448109Y158948D01*
X448211Y158964D01*
X448228Y158974D01*
X448248Y158978D01*
X448337Y159031D01*
X448428Y159080D01*
X448442Y159094D01*
X448459Y159104D01*
X448526Y159183D01*
X448598Y159258D01*
X448606Y159276D01*
X448619Y159291D01*
X448658Y159387D01*
X448701Y159481D01*
X448703Y159501D01*
X448711Y159519D01*
X448729Y159686D01*
X448729Y160354D01*
X448728Y160364D01*
X448728Y160369D01*
X448726Y160377D01*
X448728Y160393D01*
X448706Y160495D01*
X448690Y160597D01*
X448680Y160614D01*
X448676Y160634D01*
X448623Y160723D01*
X448574Y160814D01*
X448560Y160828D01*
X448550Y160845D01*
X448471Y160912D01*
X448396Y160984D01*
X448378Y160992D01*
X448363Y161005D01*
X448267Y161044D01*
X448173Y161087D01*
X448153Y161089D01*
X448135Y161097D01*
X447968Y161115D01*
X447247Y161115D01*
X445475Y162887D01*
X445475Y172393D01*
X447247Y174165D01*
X456753Y174165D01*
X458525Y172393D01*
X458525Y162887D01*
X456753Y161115D01*
X456032Y161115D01*
X456012Y161112D01*
X455993Y161114D01*
X455891Y161092D01*
X455789Y161076D01*
X455772Y161066D01*
X455752Y161062D01*
X455663Y161009D01*
X455572Y160960D01*
X455558Y160946D01*
X455541Y160936D01*
X455474Y160857D01*
X455402Y160782D01*
X455394Y160764D01*
X455381Y160749D01*
X455342Y160653D01*
X455299Y160559D01*
X455297Y160539D01*
X455289Y160521D01*
X455271Y160354D01*
X455271Y159686D01*
X455274Y159666D01*
X455272Y159647D01*
X455294Y159545D01*
X455310Y159443D01*
X455320Y159426D01*
X455324Y159406D01*
X455377Y159317D01*
X455426Y159226D01*
X455440Y159212D01*
X455450Y159195D01*
X455529Y159128D01*
X455604Y159056D01*
X455622Y159048D01*
X455637Y159035D01*
X455733Y158996D01*
X455827Y158953D01*
X455847Y158951D01*
X455865Y158943D01*
X456032Y158925D01*
X457862Y158925D01*
X458755Y158032D01*
X458755Y146768D01*
X457862Y145875D01*
X445598Y145875D01*
G37*
%LPD*%
%LPC*%
G36*
X173098Y265795D02*
X173098Y265795D01*
X172205Y266688D01*
X172205Y269896D01*
X172194Y269967D01*
X172192Y270039D01*
X172174Y270088D01*
X172166Y270139D01*
X172132Y270202D01*
X172107Y270270D01*
X172075Y270310D01*
X172050Y270356D01*
X171998Y270406D01*
X171954Y270462D01*
X171910Y270490D01*
X171872Y270526D01*
X171807Y270556D01*
X171747Y270595D01*
X171696Y270607D01*
X171649Y270629D01*
X171578Y270637D01*
X171508Y270655D01*
X171456Y270651D01*
X171405Y270656D01*
X171334Y270641D01*
X171263Y270636D01*
X171215Y270615D01*
X171164Y270604D01*
X171103Y270567D01*
X171037Y270539D01*
X170981Y270494D01*
X170953Y270478D01*
X170938Y270460D01*
X170906Y270434D01*
X169735Y269263D01*
X165545Y269263D01*
X162583Y272225D01*
X162583Y276415D01*
X165545Y279377D01*
X169735Y279377D01*
X170906Y278206D01*
X170964Y278164D01*
X171016Y278114D01*
X171063Y278092D01*
X171105Y278062D01*
X171174Y278041D01*
X171239Y278011D01*
X171291Y278005D01*
X171341Y277990D01*
X171412Y277992D01*
X171483Y277984D01*
X171534Y277995D01*
X171586Y277996D01*
X171654Y278021D01*
X171724Y278036D01*
X171769Y278063D01*
X171817Y278080D01*
X171873Y278125D01*
X171935Y278162D01*
X171969Y278202D01*
X172009Y278234D01*
X172048Y278294D01*
X172095Y278349D01*
X172114Y278397D01*
X172142Y278441D01*
X172160Y278511D01*
X172187Y278577D01*
X172195Y278648D01*
X172203Y278680D01*
X172201Y278703D01*
X172205Y278744D01*
X172205Y281952D01*
X173098Y282845D01*
X185362Y282845D01*
X186255Y281952D01*
X186255Y266688D01*
X185362Y265795D01*
X173098Y265795D01*
G37*
%LPD*%
%LPC*%
G36*
X218818Y265795D02*
X218818Y265795D01*
X217925Y266688D01*
X217925Y269896D01*
X217914Y269967D01*
X217912Y270039D01*
X217894Y270088D01*
X217886Y270139D01*
X217852Y270202D01*
X217827Y270270D01*
X217795Y270310D01*
X217770Y270356D01*
X217718Y270406D01*
X217674Y270462D01*
X217630Y270490D01*
X217592Y270526D01*
X217527Y270556D01*
X217467Y270595D01*
X217416Y270607D01*
X217369Y270629D01*
X217298Y270637D01*
X217228Y270655D01*
X217176Y270651D01*
X217125Y270656D01*
X217054Y270641D01*
X216983Y270636D01*
X216935Y270615D01*
X216884Y270604D01*
X216823Y270567D01*
X216757Y270539D01*
X216701Y270494D01*
X216673Y270478D01*
X216658Y270460D01*
X216626Y270434D01*
X215455Y269263D01*
X211265Y269263D01*
X208303Y272225D01*
X208303Y276415D01*
X211265Y279377D01*
X215455Y279377D01*
X216626Y278206D01*
X216684Y278164D01*
X216736Y278114D01*
X216783Y278092D01*
X216825Y278062D01*
X216894Y278041D01*
X216959Y278011D01*
X217011Y278005D01*
X217061Y277990D01*
X217132Y277992D01*
X217203Y277984D01*
X217254Y277995D01*
X217306Y277996D01*
X217374Y278021D01*
X217444Y278036D01*
X217489Y278063D01*
X217537Y278080D01*
X217593Y278125D01*
X217655Y278162D01*
X217689Y278202D01*
X217729Y278234D01*
X217768Y278294D01*
X217815Y278349D01*
X217834Y278397D01*
X217862Y278441D01*
X217880Y278511D01*
X217907Y278577D01*
X217915Y278648D01*
X217923Y278680D01*
X217921Y278703D01*
X217925Y278744D01*
X217925Y281952D01*
X218818Y282845D01*
X231082Y282845D01*
X231975Y281952D01*
X231975Y266688D01*
X231082Y265795D01*
X218818Y265795D01*
G37*
%LPD*%
%LPC*%
G36*
X596958Y264525D02*
X596958Y264525D01*
X596065Y265418D01*
X596065Y280682D01*
X596958Y281575D01*
X609222Y281575D01*
X610115Y280682D01*
X610115Y277474D01*
X610126Y277403D01*
X610128Y277331D01*
X610146Y277282D01*
X610154Y277231D01*
X610188Y277168D01*
X610213Y277100D01*
X610245Y277060D01*
X610270Y277014D01*
X610322Y276964D01*
X610366Y276908D01*
X610410Y276880D01*
X610448Y276844D01*
X610513Y276814D01*
X610573Y276775D01*
X610624Y276763D01*
X610671Y276741D01*
X610742Y276733D01*
X610812Y276715D01*
X610864Y276719D01*
X610915Y276714D01*
X610986Y276729D01*
X611057Y276734D01*
X611105Y276755D01*
X611156Y276766D01*
X611217Y276803D01*
X611283Y276831D01*
X611339Y276876D01*
X611367Y276892D01*
X611382Y276910D01*
X611414Y276936D01*
X612585Y278107D01*
X616775Y278107D01*
X619737Y275145D01*
X619737Y270955D01*
X616775Y267993D01*
X612585Y267993D01*
X611414Y269164D01*
X611356Y269206D01*
X611304Y269256D01*
X611257Y269278D01*
X611215Y269308D01*
X611146Y269329D01*
X611081Y269359D01*
X611029Y269365D01*
X610979Y269380D01*
X610908Y269378D01*
X610837Y269386D01*
X610786Y269375D01*
X610734Y269374D01*
X610666Y269349D01*
X610596Y269334D01*
X610551Y269307D01*
X610503Y269290D01*
X610447Y269245D01*
X610385Y269208D01*
X610351Y269168D01*
X610311Y269136D01*
X610272Y269076D01*
X610225Y269021D01*
X610206Y268973D01*
X610178Y268929D01*
X610160Y268859D01*
X610133Y268793D01*
X610125Y268722D01*
X610117Y268690D01*
X610119Y268667D01*
X610115Y268626D01*
X610115Y265418D01*
X609222Y264525D01*
X596958Y264525D01*
G37*
%LPD*%
%LPC*%
G36*
X428598Y145875D02*
X428598Y145875D01*
X427705Y146768D01*
X427705Y148368D01*
X427702Y148388D01*
X427704Y148407D01*
X427682Y148509D01*
X427666Y148611D01*
X427656Y148628D01*
X427652Y148648D01*
X427599Y148737D01*
X427550Y148828D01*
X427536Y148842D01*
X427526Y148859D01*
X427447Y148926D01*
X427372Y148998D01*
X427354Y149006D01*
X427339Y149019D01*
X427243Y149058D01*
X427149Y149101D01*
X427129Y149103D01*
X427111Y149111D01*
X426944Y149129D01*
X424566Y149129D01*
X424476Y149115D01*
X424385Y149107D01*
X424355Y149095D01*
X424323Y149090D01*
X424242Y149047D01*
X424159Y149011D01*
X424126Y148985D01*
X424106Y148974D01*
X424084Y148951D01*
X424028Y148906D01*
X422465Y147343D01*
X418275Y147343D01*
X415313Y150305D01*
X415313Y154495D01*
X418275Y157457D01*
X422465Y157457D01*
X424028Y155894D01*
X424102Y155841D01*
X424171Y155781D01*
X424201Y155769D01*
X424227Y155750D01*
X424314Y155723D01*
X424399Y155689D01*
X424440Y155685D01*
X424462Y155678D01*
X424495Y155679D01*
X424566Y155671D01*
X426944Y155671D01*
X426964Y155674D01*
X426983Y155672D01*
X427085Y155694D01*
X427187Y155710D01*
X427204Y155720D01*
X427224Y155724D01*
X427313Y155777D01*
X427404Y155826D01*
X427418Y155840D01*
X427435Y155850D01*
X427502Y155929D01*
X427574Y156004D01*
X427582Y156022D01*
X427595Y156037D01*
X427634Y156133D01*
X427677Y156227D01*
X427679Y156247D01*
X427687Y156265D01*
X427705Y156432D01*
X427705Y158032D01*
X428598Y158925D01*
X440862Y158925D01*
X441755Y158032D01*
X441755Y146768D01*
X440862Y145875D01*
X428598Y145875D01*
G37*
%LPD*%
%LPC*%
G36*
X405768Y237235D02*
X405768Y237235D01*
X404875Y238128D01*
X404875Y252092D01*
X405768Y252985D01*
X412112Y252985D01*
X413005Y252092D01*
X413005Y238128D01*
X412112Y237235D01*
X405768Y237235D01*
G37*
%LPD*%
%LPC*%
G36*
X393068Y237235D02*
X393068Y237235D01*
X392175Y238128D01*
X392175Y252092D01*
X393068Y252985D01*
X399412Y252985D01*
X400305Y252092D01*
X400305Y238128D01*
X399412Y237235D01*
X393068Y237235D01*
G37*
%LPD*%
D10*
X64530Y394420D03*
X34530Y394420D03*
X64530Y357420D03*
X34530Y357420D03*
D11*
X49530Y375920D03*
D12*
X42400Y469900D03*
X135400Y469900D03*
D13*
X92710Y354420D03*
X92710Y397420D03*
D14*
X81690Y321310D03*
X37690Y321310D03*
D15*
X139700Y393650D03*
X139700Y330250D03*
D16*
X224790Y571500D03*
X250190Y571500D03*
D10*
X342660Y395690D03*
X312660Y395690D03*
X342660Y358690D03*
X312660Y358690D03*
D11*
X327660Y377190D03*
D12*
X323070Y469900D03*
X416070Y469900D03*
D13*
X373380Y355690D03*
X373380Y398690D03*
D14*
X362360Y320040D03*
X318360Y320040D03*
D15*
X419100Y393650D03*
X419100Y330250D03*
D16*
X344170Y571500D03*
X369570Y571500D03*
D10*
X204230Y394420D03*
X174230Y394420D03*
X204230Y357420D03*
X174230Y357420D03*
D11*
X189230Y375920D03*
D12*
X182100Y469900D03*
X275100Y469900D03*
D13*
X232410Y355690D03*
X232410Y398690D03*
D14*
X223930Y320040D03*
X179930Y320040D03*
D15*
X278130Y393650D03*
X278130Y330250D03*
D16*
X284480Y571500D03*
X309880Y571500D03*
D10*
X483630Y396960D03*
X453630Y396960D03*
X483630Y359960D03*
X453630Y359960D03*
D11*
X468630Y378460D03*
D12*
X462770Y469900D03*
X555770Y469900D03*
D13*
X514350Y356960D03*
X514350Y399960D03*
D14*
X503330Y320040D03*
X459330Y320040D03*
D15*
X560070Y394920D03*
X560070Y331520D03*
D16*
X403860Y571500D03*
X429260Y571500D03*
D10*
X625870Y396960D03*
X595870Y396960D03*
X625870Y359960D03*
X595870Y359960D03*
D11*
X610870Y378460D03*
D12*
X606280Y469900D03*
X699280Y469900D03*
D13*
X655320Y356960D03*
X655320Y399960D03*
D14*
X645570Y320040D03*
X601570Y320040D03*
D15*
X701040Y394920D03*
X701040Y331520D03*
D16*
X463550Y571500D03*
X488950Y571500D03*
D17*
X619940Y245590D03*
X608940Y245590D03*
X597940Y245590D03*
X586940Y245590D03*
X575940Y245590D03*
X564940Y245590D03*
X553940Y245590D03*
X542940Y245590D03*
X531940Y245590D03*
X520940Y245590D03*
X509940Y245590D03*
X498940Y245590D03*
D18*
X475440Y229390D03*
X475440Y218390D03*
X475440Y207390D03*
X475440Y196390D03*
X475440Y185390D03*
X475440Y174390D03*
X475440Y163390D03*
D17*
X630940Y245590D03*
X619940Y81690D03*
X608940Y81690D03*
X597940Y81690D03*
X586940Y81690D03*
X575940Y81690D03*
X564940Y81690D03*
X553940Y81690D03*
X542940Y81690D03*
X531940Y81690D03*
X520940Y81690D03*
X509940Y81690D03*
X498940Y81690D03*
X630940Y81690D03*
D18*
X475440Y152390D03*
X475440Y141390D03*
X475440Y130390D03*
X475440Y119390D03*
X475440Y108390D03*
X475440Y97390D03*
D19*
X179230Y274320D03*
X199230Y274320D03*
X357030Y275590D03*
X377030Y275590D03*
X224950Y274320D03*
X244950Y274320D03*
X538640Y273050D03*
X558640Y273050D03*
X603090Y273050D03*
X583090Y273050D03*
D20*
X451730Y109220D03*
X434730Y109220D03*
X451730Y93980D03*
X434730Y93980D03*
D21*
X143510Y96520D03*
D22*
X183510Y113520D03*
X143510Y130520D03*
X183510Y147520D03*
X143510Y164520D03*
D12*
X216390Y128270D03*
X309390Y128270D03*
D23*
X363220Y134490D03*
X363220Y86490D03*
D24*
X186600Y205740D03*
X143600Y205740D03*
D23*
X53340Y86490D03*
X53340Y134490D03*
D25*
X341630Y192880D03*
X341630Y172880D03*
X377190Y172880D03*
X377190Y192880D03*
D26*
X359410Y192650D03*
X359410Y175650D03*
D16*
X34290Y266700D03*
X34290Y241300D03*
D27*
X91440Y274460D03*
X91440Y233540D03*
D26*
X414020Y122800D03*
X414020Y105800D03*
D28*
X421640Y196850D03*
X408940Y196850D03*
X396240Y196850D03*
X434340Y196850D03*
X447040Y196850D03*
X447040Y245110D03*
X434340Y245110D03*
X421640Y245110D03*
X408940Y245110D03*
X396240Y245110D03*
D29*
X437960Y171140D02*
X437960Y164140D01*
X430960Y164140D01*
X430960Y171140D01*
X437960Y171140D01*
X437960Y166990D02*
X430960Y166990D01*
X430960Y169840D02*
X437960Y169840D01*
X455500Y171140D02*
X455500Y164140D01*
X448500Y164140D01*
X448500Y171140D01*
X455500Y171140D01*
X455500Y166990D02*
X448500Y166990D01*
X448500Y169840D02*
X455500Y169840D01*
D30*
X644980Y259970D03*
X644980Y275970D03*
X685980Y275970D03*
X685980Y259970D03*
D20*
X451730Y152400D03*
X434730Y152400D03*
D31*
X33020Y30480D03*
X731520Y30480D03*
X33020Y571500D03*
X731520Y571500D03*
D32*
X53340Y86360D03*
D33*
X91440Y274460D02*
X91440Y298450D01*
X93980Y300990D01*
D34*
X21590Y312420D03*
X21590Y322580D03*
X21590Y332740D03*
X21590Y342900D03*
X21590Y354330D03*
X49530Y375920D03*
X92710Y375920D03*
X189230Y377190D03*
X233680Y377190D03*
X327660Y377190D03*
X373380Y377190D03*
X514350Y378460D03*
X610870Y378460D03*
X655320Y378460D03*
X468630Y378460D03*
X105410Y375920D03*
X118110Y375920D03*
X80010Y375920D03*
X67310Y375920D03*
X207010Y377190D03*
X220980Y377190D03*
X246380Y377190D03*
X259080Y377190D03*
X344170Y377190D03*
X358140Y377190D03*
X386080Y377190D03*
X400050Y377190D03*
X485140Y378460D03*
X499110Y378460D03*
X527050Y378460D03*
X542290Y378460D03*
X627380Y378460D03*
X641350Y378460D03*
X669290Y378460D03*
X683260Y378460D03*
X49530Y386080D03*
X49530Y397510D03*
X189230Y387350D03*
X189230Y397510D03*
X327660Y387350D03*
X327660Y398780D03*
X468630Y388620D03*
X468630Y400050D03*
X610870Y388620D03*
X610870Y400050D03*
D32*
X363220Y87630D03*
X53340Y132080D03*
D35*
X52070Y207010D03*
X62230Y207010D03*
X72390Y207010D03*
X82550Y207010D03*
X93980Y207010D03*
X105410Y207010D03*
X52070Y195580D03*
X52070Y184150D03*
X52070Y172720D03*
X52070Y161290D03*
X401320Y95250D03*
X401320Y85090D03*
X401320Y74930D03*
X411480Y74930D03*
X411480Y85090D03*
X411480Y95250D03*
X391160Y176530D03*
X391160Y166370D03*
X391160Y156210D03*
X62230Y161290D03*
X62230Y172720D03*
X62230Y184150D03*
X62230Y195580D03*
X72390Y195580D03*
X82550Y195580D03*
X93980Y195580D03*
X105410Y195580D03*
X72390Y184150D03*
X82550Y184150D03*
X93980Y184150D03*
X105410Y184150D03*
X72390Y172720D03*
X82550Y172720D03*
X93980Y172720D03*
X105410Y172720D03*
X72390Y161290D03*
X82550Y161290D03*
X93980Y161290D03*
X105410Y161290D03*
D36*
X414020Y105800D02*
X414020Y97790D01*
X411480Y95250D01*
D37*
X630940Y95000D02*
X630940Y81690D01*
X630940Y95000D02*
X631190Y95250D01*
D35*
X631190Y95250D03*
D37*
X490640Y141390D02*
X475440Y141390D01*
X490640Y141390D02*
X491490Y142240D01*
D35*
X491490Y142240D03*
D37*
X644980Y275970D02*
X654940Y275970D01*
X655320Y275590D01*
D35*
X655320Y275590D03*
D37*
X655700Y275970D01*
X685980Y275970D01*
X434460Y167640D02*
X419100Y167640D01*
D35*
X419100Y167640D03*
D33*
X421640Y245110D02*
X434340Y245110D01*
X421640Y245110D02*
X421640Y257810D01*
D34*
X421640Y257810D03*
X302260Y308610D03*
X302260Y332740D03*
X302260Y321310D03*
X302260Y344170D03*
X302260Y355600D03*
X163830Y308610D03*
X163830Y332740D03*
X163830Y321310D03*
X163830Y344170D03*
X163830Y355600D03*
X443230Y308610D03*
X443230Y332740D03*
X443230Y321310D03*
X443230Y344170D03*
X443230Y355600D03*
X585470Y308610D03*
X585470Y332740D03*
X585470Y321310D03*
X585470Y344170D03*
X585470Y355600D03*
D37*
X475440Y108390D02*
X461840Y108390D01*
X461010Y109220D01*
X451730Y109220D01*
X451730Y93980D01*
D33*
X408940Y187960D02*
X408940Y196850D01*
X412750Y184150D02*
X421063Y184150D01*
X426523Y178690D02*
X456704Y178690D01*
X465200Y187186D01*
X465200Y193040D01*
X468550Y196390D01*
X475440Y196390D01*
X412750Y184150D02*
X408940Y187960D01*
X421063Y184150D02*
X426523Y178690D01*
X465390Y207390D02*
X475440Y207390D01*
X465390Y207390D02*
X461200Y203200D01*
X461200Y188843D01*
X455047Y182690D01*
X428180Y182690D01*
X421640Y189230D01*
X421640Y196850D01*
X434340Y196850D02*
X434340Y189230D01*
X436880Y186690D01*
X453390Y186690D01*
X457200Y190500D01*
X464770Y218390D02*
X475440Y218390D01*
X457200Y210820D02*
X457200Y190500D01*
X457200Y210820D02*
X464770Y218390D01*
X447040Y210820D02*
X447040Y196850D01*
X465610Y229390D02*
X475440Y229390D01*
X465610Y229390D02*
X447040Y210820D01*
D37*
X644980Y259970D02*
X685980Y259970D01*
X542940Y245590D02*
X542940Y229220D01*
X548640Y223520D01*
X636270Y223520D01*
X645160Y232410D01*
X645160Y259790D01*
X644980Y259970D01*
X434730Y152400D02*
X420370Y152400D01*
D35*
X420370Y152400D03*
D37*
X586940Y232610D02*
X586940Y245590D01*
X586940Y232610D02*
X586740Y232410D01*
D35*
X586740Y232410D03*
D37*
X575940Y245590D02*
X575940Y255900D01*
X583090Y263050D02*
X583090Y273050D01*
X583090Y263050D02*
X575940Y255900D01*
X558800Y272890D02*
X558640Y273050D01*
X558800Y272890D02*
X558800Y261620D01*
X564940Y255480D01*
X564940Y245590D01*
X511810Y275590D02*
X377030Y275590D01*
X531940Y255460D02*
X531940Y245590D01*
X531940Y255460D02*
X511810Y275590D01*
X520940Y258110D02*
X520940Y245590D01*
X520940Y258110D02*
X508000Y271050D01*
X394240Y271050D01*
X379730Y256540D01*
X251460Y256540D01*
X244950Y263050D02*
X244950Y274320D01*
X244950Y263050D02*
X251460Y256540D01*
X509940Y260760D02*
X509940Y245590D01*
X509940Y260760D02*
X504190Y266510D01*
X397391Y266510D01*
X382881Y252000D01*
X199230Y259240D02*
X199230Y274320D01*
X206470Y252000D02*
X382881Y252000D01*
X206470Y252000D02*
X199230Y259240D01*
X179230Y274320D02*
X167640Y274320D01*
D35*
X167640Y274320D03*
D37*
X34530Y381240D02*
X34530Y394420D01*
X34530Y381240D02*
X31750Y378460D01*
D35*
X31750Y378460D03*
D37*
X345440Y275590D02*
X357030Y275590D01*
D35*
X345440Y275590D03*
D37*
X312660Y395690D02*
X312660Y408700D01*
X312420Y408940D01*
D35*
X312420Y408940D03*
D37*
X224950Y274320D02*
X213360Y274320D01*
D35*
X213360Y274320D03*
D37*
X174230Y394420D02*
X174230Y407430D01*
X173990Y407670D01*
D35*
X173990Y407670D03*
D37*
X528320Y273050D02*
X538640Y273050D01*
X528320Y273050D02*
X521970Y279400D01*
D35*
X521970Y279400D03*
D37*
X453630Y396960D02*
X453630Y407910D01*
X455930Y410210D01*
D35*
X455930Y410210D03*
D37*
X603090Y273050D02*
X614680Y273050D01*
D35*
X614680Y273050D03*
D37*
X595870Y396960D02*
X595870Y409970D01*
X595630Y410210D01*
D35*
X595630Y410210D03*
D32*
X363220Y133350D03*
D38*
X435610Y130390D02*
X475440Y130390D01*
X435610Y130390D02*
X414020Y130390D01*
X366180Y130390D01*
X363220Y133350D01*
X434730Y129510D02*
X434730Y109220D01*
X434730Y129510D02*
X435610Y130390D01*
D36*
X414020Y130390D02*
X414020Y122800D01*
D33*
X447040Y245110D02*
X482600Y245110D01*
X501650Y226060D02*
X501650Y138430D01*
X493610Y130390D01*
X475440Y130390D01*
X501650Y226060D02*
X482600Y245110D01*
D36*
X183510Y147520D02*
X165100Y165930D01*
X165100Y215900D01*
X171450Y222250D01*
X332740Y222250D01*
X341630Y213360D02*
X341630Y192880D01*
X341630Y213360D02*
X332740Y222250D01*
X341630Y192880D02*
X359180Y192880D01*
X359410Y192650D01*
X359640Y192880D01*
X377190Y192880D01*
D37*
X452000Y167640D02*
X452000Y152670D01*
X451730Y152400D01*
M02*
