G04 EAGLE Gerber RS-274X export*
G75*
%MOMM*%
%FSLAX34Y34*%
%LPD*%
%INTop Copper*%
%IPPOS*%
%AMOC8*
5,1,8,0,0,1.08239X$1,22.5*%
G01*
%ADD10R,0.700000X1.500000*%
%ADD11R,1.000000X5.200000*%
%ADD12R,2.200000X3.100000*%
%ADD13R,1.550000X2.350000*%
%ADD14R,1.800000X2.700000*%
%ADD15R,2.700000X2.550000*%
%ADD16R,1.524000X1.524000*%
%ADD17R,0.650000X1.500000*%
%ADD18R,1.500000X0.650000*%
%ADD19R,1.100000X1.400000*%
%ADD20R,1.100000X1.000000*%
%ADD21R,2.025000X2.025000*%
%ADD22C,2.025000*%
%ADD23R,1.400000X3.000000*%
%ADD24R,2.350000X1.550000*%
%ADD25R,3.000000X1.400000*%
%ADD26R,1.400000X1.100000*%
%ADD27R,1.000000X1.100000*%
%ADD28R,2.794000X2.286000*%
%ADD29C,0.300000*%
%ADD30R,1.524000X0.762000*%
%ADD31C,1.879600*%
%ADD32C,1.275000*%
%ADD33C,0.200000*%
%ADD34C,0.756400*%
%ADD35C,0.706400*%
%ADD36C,0.406400*%
%ADD37C,0.254000*%
%ADD38C,0.203200*%
%ADD39C,0.508000*%

G36*
X665500Y2754D02*
X665500Y2754D01*
X665519Y2752D01*
X665621Y2774D01*
X665723Y2790D01*
X665740Y2800D01*
X665760Y2804D01*
X665849Y2857D01*
X665940Y2906D01*
X665954Y2920D01*
X665971Y2930D01*
X666038Y3009D01*
X666110Y3084D01*
X666118Y3102D01*
X666131Y3117D01*
X666170Y3213D01*
X666213Y3307D01*
X666215Y3327D01*
X666223Y3345D01*
X666241Y3512D01*
X666241Y265764D01*
X666238Y265784D01*
X666240Y265803D01*
X666218Y265905D01*
X666202Y266007D01*
X666192Y266024D01*
X666188Y266044D01*
X666135Y266133D01*
X666086Y266224D01*
X666072Y266238D01*
X666062Y266255D01*
X665983Y266322D01*
X665908Y266394D01*
X665890Y266402D01*
X665875Y266415D01*
X665779Y266454D01*
X665685Y266497D01*
X665665Y266499D01*
X665647Y266507D01*
X665480Y266525D01*
X659577Y266525D01*
X657805Y268297D01*
X657805Y269018D01*
X657802Y269038D01*
X657804Y269057D01*
X657782Y269159D01*
X657766Y269261D01*
X657756Y269278D01*
X657752Y269298D01*
X657699Y269387D01*
X657650Y269478D01*
X657636Y269492D01*
X657626Y269509D01*
X657547Y269576D01*
X657472Y269648D01*
X657454Y269656D01*
X657439Y269669D01*
X657343Y269708D01*
X657249Y269751D01*
X657229Y269753D01*
X657211Y269761D01*
X657044Y269779D01*
X656366Y269779D01*
X656346Y269776D01*
X656327Y269778D01*
X656225Y269756D01*
X656123Y269740D01*
X656106Y269730D01*
X656086Y269726D01*
X655997Y269673D01*
X655906Y269624D01*
X655892Y269610D01*
X655875Y269600D01*
X655808Y269521D01*
X655736Y269446D01*
X655728Y269428D01*
X655715Y269413D01*
X655676Y269317D01*
X655633Y269223D01*
X655631Y269203D01*
X655623Y269185D01*
X655605Y269018D01*
X655605Y267418D01*
X654712Y266525D01*
X642448Y266525D01*
X641555Y267418D01*
X641555Y278682D01*
X641735Y278862D01*
X641777Y278920D01*
X641827Y278972D01*
X641849Y279019D01*
X641879Y279061D01*
X641900Y279130D01*
X641930Y279195D01*
X641936Y279247D01*
X641951Y279297D01*
X641949Y279368D01*
X641957Y279439D01*
X641946Y279490D01*
X641945Y279542D01*
X641920Y279610D01*
X641905Y279680D01*
X641878Y279724D01*
X641861Y279773D01*
X641816Y279829D01*
X641779Y279891D01*
X641739Y279925D01*
X641707Y279965D01*
X641647Y280004D01*
X641592Y280051D01*
X641544Y280070D01*
X641500Y280098D01*
X641430Y280116D01*
X641364Y280143D01*
X641293Y280151D01*
X641261Y280159D01*
X641238Y280157D01*
X641197Y280161D01*
X638963Y280161D01*
X638892Y280150D01*
X638820Y280148D01*
X638771Y280130D01*
X638720Y280122D01*
X638657Y280088D01*
X638589Y280063D01*
X638549Y280031D01*
X638503Y280006D01*
X638453Y279955D01*
X638397Y279910D01*
X638369Y279866D01*
X638333Y279828D01*
X638303Y279763D01*
X638264Y279703D01*
X638252Y279652D01*
X638230Y279605D01*
X638222Y279534D01*
X638204Y279464D01*
X638208Y279412D01*
X638203Y279361D01*
X638218Y279290D01*
X638223Y279219D01*
X638244Y279171D01*
X638255Y279120D01*
X638292Y279059D01*
X638320Y278993D01*
X638365Y278937D01*
X638381Y278909D01*
X638399Y278894D01*
X638425Y278862D01*
X638605Y278682D01*
X638605Y267418D01*
X637712Y266525D01*
X635358Y266525D01*
X635338Y266522D01*
X635319Y266524D01*
X635217Y266502D01*
X635115Y266486D01*
X635098Y266476D01*
X635078Y266472D01*
X634989Y266419D01*
X634898Y266370D01*
X634884Y266356D01*
X634867Y266346D01*
X634800Y266267D01*
X634728Y266192D01*
X634720Y266174D01*
X634707Y266159D01*
X634668Y266063D01*
X634625Y265969D01*
X634623Y265949D01*
X634615Y265931D01*
X634597Y265764D01*
X634597Y263300D01*
X628630Y257333D01*
X592115Y257333D01*
X592025Y257319D01*
X591934Y257311D01*
X591904Y257299D01*
X591872Y257294D01*
X591791Y257251D01*
X591708Y257215D01*
X591675Y257189D01*
X591655Y257178D01*
X591633Y257155D01*
X591577Y257110D01*
X590381Y255914D01*
X590339Y255856D01*
X590289Y255804D01*
X590267Y255757D01*
X590237Y255715D01*
X590216Y255646D01*
X590186Y255581D01*
X590180Y255529D01*
X590165Y255479D01*
X590167Y255408D01*
X590159Y255337D01*
X590170Y255286D01*
X590171Y255234D01*
X590196Y255166D01*
X590211Y255096D01*
X590238Y255052D01*
X590255Y255003D01*
X590300Y254947D01*
X590337Y254885D01*
X590377Y254851D01*
X590409Y254811D01*
X590469Y254772D01*
X590524Y254725D01*
X590572Y254706D01*
X590616Y254678D01*
X590686Y254660D01*
X590752Y254633D01*
X590809Y254627D01*
X591902Y253535D01*
X591918Y253523D01*
X591930Y253507D01*
X592018Y253451D01*
X592101Y253391D01*
X592120Y253385D01*
X592137Y253374D01*
X592238Y253349D01*
X592337Y253319D01*
X592356Y253319D01*
X592376Y253314D01*
X592479Y253322D01*
X592582Y253325D01*
X592601Y253332D01*
X592621Y253333D01*
X592716Y253374D01*
X592813Y253409D01*
X592829Y253422D01*
X592847Y253430D01*
X592978Y253535D01*
X594058Y254615D01*
X601822Y254615D01*
X602902Y253535D01*
X602918Y253523D01*
X602930Y253507D01*
X603018Y253451D01*
X603101Y253391D01*
X603120Y253385D01*
X603137Y253374D01*
X603238Y253349D01*
X603337Y253319D01*
X603356Y253319D01*
X603376Y253314D01*
X603479Y253322D01*
X603582Y253325D01*
X603601Y253332D01*
X603621Y253333D01*
X603716Y253374D01*
X603813Y253409D01*
X603829Y253422D01*
X603847Y253430D01*
X603978Y253535D01*
X605058Y254615D01*
X612822Y254615D01*
X613902Y253535D01*
X613918Y253523D01*
X613930Y253507D01*
X614018Y253451D01*
X614101Y253391D01*
X614120Y253385D01*
X614137Y253374D01*
X614238Y253349D01*
X614337Y253319D01*
X614356Y253319D01*
X614376Y253314D01*
X614479Y253322D01*
X614582Y253325D01*
X614601Y253332D01*
X614621Y253333D01*
X614716Y253374D01*
X614813Y253409D01*
X614829Y253422D01*
X614847Y253430D01*
X614978Y253535D01*
X616058Y254615D01*
X623822Y254615D01*
X624902Y253535D01*
X624918Y253523D01*
X624930Y253507D01*
X625018Y253451D01*
X625101Y253391D01*
X625120Y253385D01*
X625137Y253374D01*
X625238Y253349D01*
X625337Y253319D01*
X625356Y253319D01*
X625376Y253314D01*
X625479Y253322D01*
X625582Y253325D01*
X625601Y253332D01*
X625621Y253333D01*
X625716Y253374D01*
X625813Y253409D01*
X625829Y253422D01*
X625847Y253430D01*
X625978Y253535D01*
X627058Y254615D01*
X634822Y254615D01*
X635715Y253722D01*
X635715Y237458D01*
X634822Y236565D01*
X634702Y236565D01*
X634682Y236562D01*
X634663Y236564D01*
X634561Y236542D01*
X634459Y236526D01*
X634442Y236516D01*
X634422Y236512D01*
X634333Y236459D01*
X634242Y236410D01*
X634228Y236396D01*
X634211Y236386D01*
X634144Y236307D01*
X634072Y236232D01*
X634064Y236214D01*
X634051Y236199D01*
X634012Y236103D01*
X633969Y236009D01*
X633967Y235989D01*
X633959Y235971D01*
X633941Y235804D01*
X633941Y118648D01*
X633955Y118558D01*
X633963Y118467D01*
X633975Y118437D01*
X633980Y118406D01*
X634023Y118325D01*
X634059Y118241D01*
X634085Y118209D01*
X634096Y118188D01*
X634119Y118166D01*
X634164Y118110D01*
X646891Y105383D01*
X646891Y34317D01*
X636073Y23499D01*
X636005Y23404D01*
X635935Y23310D01*
X635933Y23304D01*
X635929Y23299D01*
X635895Y23188D01*
X635858Y23076D01*
X635858Y23070D01*
X635857Y23064D01*
X635860Y22947D01*
X635861Y22830D01*
X635863Y22823D01*
X635863Y22818D01*
X635869Y22801D01*
X635907Y22669D01*
X637033Y19953D01*
X637033Y15607D01*
X635370Y11593D01*
X632297Y8520D01*
X628283Y6857D01*
X623937Y6857D01*
X619923Y8520D01*
X616850Y11593D01*
X615187Y15607D01*
X615187Y19953D01*
X616850Y23967D01*
X619923Y27040D01*
X623937Y28703D01*
X628283Y28703D01*
X630999Y27577D01*
X631113Y27551D01*
X631226Y27522D01*
X631233Y27523D01*
X631239Y27521D01*
X631355Y27532D01*
X631472Y27541D01*
X631477Y27544D01*
X631484Y27544D01*
X631591Y27592D01*
X631698Y27638D01*
X631704Y27642D01*
X631708Y27644D01*
X631722Y27657D01*
X631829Y27743D01*
X640666Y36580D01*
X640719Y36654D01*
X640779Y36723D01*
X640791Y36754D01*
X640810Y36780D01*
X640837Y36867D01*
X640871Y36952D01*
X640875Y36992D01*
X640882Y37015D01*
X640881Y37047D01*
X640889Y37118D01*
X640889Y102582D01*
X640875Y102672D01*
X640867Y102763D01*
X640855Y102793D01*
X640850Y102824D01*
X640807Y102905D01*
X640771Y102989D01*
X640745Y103021D01*
X640734Y103042D01*
X640711Y103064D01*
X640666Y103120D01*
X627939Y115847D01*
X627939Y235804D01*
X627936Y235824D01*
X627938Y235843D01*
X627916Y235945D01*
X627900Y236047D01*
X627890Y236064D01*
X627886Y236084D01*
X627833Y236173D01*
X627784Y236264D01*
X627770Y236278D01*
X627760Y236295D01*
X627681Y236362D01*
X627606Y236434D01*
X627588Y236442D01*
X627573Y236455D01*
X627477Y236494D01*
X627383Y236537D01*
X627363Y236539D01*
X627345Y236547D01*
X627178Y236565D01*
X627058Y236565D01*
X625978Y237645D01*
X625962Y237657D01*
X625950Y237673D01*
X625862Y237729D01*
X625779Y237789D01*
X625760Y237795D01*
X625743Y237806D01*
X625642Y237831D01*
X625543Y237861D01*
X625524Y237861D01*
X625504Y237866D01*
X625401Y237858D01*
X625298Y237855D01*
X625279Y237848D01*
X625259Y237847D01*
X625164Y237806D01*
X625067Y237771D01*
X625051Y237758D01*
X625033Y237750D01*
X624902Y237645D01*
X623822Y236565D01*
X616058Y236565D01*
X614978Y237645D01*
X614962Y237657D01*
X614950Y237673D01*
X614862Y237729D01*
X614779Y237789D01*
X614760Y237795D01*
X614743Y237806D01*
X614642Y237831D01*
X614543Y237861D01*
X614524Y237861D01*
X614504Y237866D01*
X614401Y237858D01*
X614298Y237855D01*
X614279Y237848D01*
X614259Y237847D01*
X614164Y237806D01*
X614067Y237771D01*
X614051Y237758D01*
X614033Y237750D01*
X613902Y237645D01*
X612822Y236565D01*
X605058Y236565D01*
X603978Y237645D01*
X603962Y237657D01*
X603950Y237673D01*
X603862Y237729D01*
X603779Y237789D01*
X603760Y237795D01*
X603743Y237806D01*
X603642Y237831D01*
X603543Y237861D01*
X603524Y237861D01*
X603504Y237866D01*
X603401Y237858D01*
X603298Y237855D01*
X603279Y237848D01*
X603259Y237847D01*
X603164Y237806D01*
X603067Y237771D01*
X603051Y237758D01*
X603033Y237750D01*
X602902Y237645D01*
X601822Y236565D01*
X594058Y236565D01*
X592978Y237645D01*
X592962Y237657D01*
X592950Y237673D01*
X592862Y237729D01*
X592779Y237789D01*
X592760Y237795D01*
X592743Y237806D01*
X592642Y237831D01*
X592543Y237861D01*
X592524Y237861D01*
X592504Y237866D01*
X592401Y237858D01*
X592298Y237855D01*
X592279Y237848D01*
X592259Y237847D01*
X592164Y237806D01*
X592067Y237771D01*
X592051Y237758D01*
X592033Y237750D01*
X591902Y237645D01*
X590822Y236565D01*
X583058Y236565D01*
X581978Y237645D01*
X581962Y237657D01*
X581950Y237673D01*
X581862Y237729D01*
X581779Y237789D01*
X581760Y237795D01*
X581743Y237806D01*
X581642Y237831D01*
X581543Y237861D01*
X581524Y237861D01*
X581504Y237866D01*
X581401Y237858D01*
X581298Y237855D01*
X581279Y237848D01*
X581259Y237847D01*
X581164Y237806D01*
X581067Y237771D01*
X581051Y237758D01*
X581033Y237750D01*
X580902Y237645D01*
X579822Y236565D01*
X572058Y236565D01*
X570978Y237645D01*
X570962Y237657D01*
X570950Y237673D01*
X570862Y237729D01*
X570779Y237789D01*
X570760Y237795D01*
X570743Y237806D01*
X570642Y237831D01*
X570543Y237861D01*
X570524Y237861D01*
X570504Y237866D01*
X570401Y237858D01*
X570298Y237855D01*
X570279Y237848D01*
X570259Y237847D01*
X570164Y237806D01*
X570067Y237771D01*
X570051Y237758D01*
X570033Y237750D01*
X569902Y237645D01*
X568822Y236565D01*
X561058Y236565D01*
X559978Y237645D01*
X559962Y237657D01*
X559950Y237673D01*
X559862Y237729D01*
X559779Y237789D01*
X559760Y237795D01*
X559743Y237806D01*
X559642Y237831D01*
X559543Y237861D01*
X559524Y237861D01*
X559504Y237866D01*
X559401Y237858D01*
X559298Y237855D01*
X559279Y237848D01*
X559259Y237847D01*
X559164Y237806D01*
X559067Y237771D01*
X559051Y237758D01*
X559033Y237750D01*
X558902Y237645D01*
X557822Y236565D01*
X557702Y236565D01*
X557682Y236562D01*
X557663Y236564D01*
X557561Y236542D01*
X557459Y236526D01*
X557442Y236516D01*
X557422Y236512D01*
X557333Y236459D01*
X557242Y236410D01*
X557228Y236396D01*
X557211Y236386D01*
X557144Y236307D01*
X557072Y236232D01*
X557064Y236214D01*
X557051Y236199D01*
X557012Y236103D01*
X556969Y236009D01*
X556967Y235989D01*
X556959Y235971D01*
X556941Y235804D01*
X556941Y233927D01*
X555914Y232900D01*
X555872Y232842D01*
X555823Y232790D01*
X555801Y232743D01*
X555770Y232701D01*
X555749Y232632D01*
X555719Y232567D01*
X555713Y232515D01*
X555698Y232465D01*
X555700Y232394D01*
X555692Y232323D01*
X555703Y232272D01*
X555704Y232220D01*
X555729Y232152D01*
X555744Y232082D01*
X555771Y232037D01*
X555789Y231989D01*
X555834Y231933D01*
X555870Y231871D01*
X555910Y231837D01*
X555943Y231797D01*
X556003Y231758D01*
X556057Y231711D01*
X556106Y231692D01*
X556149Y231664D01*
X556219Y231646D01*
X556285Y231619D01*
X556357Y231611D01*
X556388Y231603D01*
X556411Y231605D01*
X556452Y231601D01*
X561954Y231601D01*
X562044Y231615D01*
X562135Y231623D01*
X562165Y231635D01*
X562197Y231640D01*
X562278Y231683D01*
X562361Y231719D01*
X562394Y231745D01*
X562414Y231756D01*
X562436Y231779D01*
X562492Y231824D01*
X564325Y233657D01*
X568515Y233657D01*
X571477Y230695D01*
X571477Y226505D01*
X568515Y223543D01*
X564325Y223543D01*
X562492Y225376D01*
X562418Y225429D01*
X562349Y225489D01*
X562319Y225501D01*
X562293Y225520D01*
X562206Y225547D01*
X562121Y225581D01*
X562080Y225585D01*
X562058Y225592D01*
X562025Y225591D01*
X561954Y225599D01*
X555278Y225599D01*
X555188Y225585D01*
X555097Y225577D01*
X555067Y225565D01*
X555036Y225560D01*
X554955Y225517D01*
X554871Y225481D01*
X554839Y225455D01*
X554818Y225444D01*
X554796Y225421D01*
X554740Y225376D01*
X545054Y215690D01*
X545012Y215632D01*
X544963Y215580D01*
X544941Y215533D01*
X544910Y215491D01*
X544889Y215422D01*
X544859Y215357D01*
X544853Y215305D01*
X544838Y215255D01*
X544840Y215184D01*
X544832Y215113D01*
X544843Y215062D01*
X544844Y215010D01*
X544869Y214942D01*
X544884Y214872D01*
X544911Y214827D01*
X544929Y214779D01*
X544974Y214723D01*
X545010Y214661D01*
X545050Y214627D01*
X545083Y214587D01*
X545143Y214548D01*
X545197Y214501D01*
X545246Y214482D01*
X545289Y214454D01*
X545359Y214436D01*
X545425Y214409D01*
X545497Y214401D01*
X545528Y214393D01*
X545551Y214395D01*
X545592Y214391D01*
X550192Y214391D01*
X550282Y214405D01*
X550373Y214413D01*
X550403Y214425D01*
X550434Y214430D01*
X550515Y214473D01*
X550599Y214509D01*
X550631Y214535D01*
X550652Y214546D01*
X550674Y214569D01*
X550730Y214614D01*
X553520Y217404D01*
X553573Y217478D01*
X553633Y217547D01*
X553645Y217578D01*
X553664Y217604D01*
X553691Y217691D01*
X553725Y217776D01*
X553729Y217816D01*
X553736Y217839D01*
X553735Y217871D01*
X553743Y217942D01*
X553743Y220535D01*
X556705Y223497D01*
X560895Y223497D01*
X563857Y220535D01*
X563857Y216345D01*
X560878Y213366D01*
X560836Y213308D01*
X560786Y213256D01*
X560764Y213209D01*
X560734Y213167D01*
X560713Y213098D01*
X560683Y213033D01*
X560677Y212981D01*
X560662Y212931D01*
X560664Y212860D01*
X560656Y212789D01*
X560667Y212738D01*
X560668Y212686D01*
X560693Y212618D01*
X560708Y212548D01*
X560735Y212503D01*
X560752Y212455D01*
X560797Y212399D01*
X560834Y212337D01*
X560874Y212303D01*
X560906Y212263D01*
X560966Y212224D01*
X561021Y212177D01*
X561069Y212158D01*
X561113Y212130D01*
X561183Y212112D01*
X561249Y212085D01*
X561320Y212077D01*
X561352Y212069D01*
X561375Y212071D01*
X561416Y212067D01*
X563435Y212067D01*
X566397Y209105D01*
X566397Y204915D01*
X563407Y201926D01*
X563397Y201922D01*
X563345Y201914D01*
X563282Y201880D01*
X563215Y201855D01*
X563174Y201823D01*
X563128Y201798D01*
X563079Y201747D01*
X563023Y201702D01*
X562995Y201658D01*
X562959Y201620D01*
X562929Y201555D01*
X562890Y201495D01*
X562877Y201444D01*
X562855Y201397D01*
X562847Y201326D01*
X562830Y201256D01*
X562834Y201204D01*
X562828Y201153D01*
X562843Y201082D01*
X562849Y201011D01*
X562869Y200963D01*
X562880Y200912D01*
X562917Y200851D01*
X562945Y200785D01*
X562990Y200729D01*
X563006Y200701D01*
X563024Y200686D01*
X563050Y200654D01*
X564114Y199590D01*
X564188Y199537D01*
X564257Y199477D01*
X564288Y199465D01*
X564314Y199446D01*
X564401Y199419D01*
X564486Y199385D01*
X564526Y199381D01*
X564549Y199374D01*
X564581Y199375D01*
X564652Y199367D01*
X567245Y199367D01*
X570207Y196405D01*
X570207Y192215D01*
X567245Y189253D01*
X563055Y189253D01*
X560093Y192215D01*
X560093Y194808D01*
X560079Y194898D01*
X560071Y194989D01*
X560059Y195019D01*
X560054Y195051D01*
X560011Y195131D01*
X559975Y195215D01*
X559949Y195247D01*
X559938Y195268D01*
X559915Y195290D01*
X559870Y195346D01*
X555050Y200166D01*
X554976Y200219D01*
X554907Y200279D01*
X554876Y200291D01*
X554850Y200310D01*
X554763Y200337D01*
X554678Y200371D01*
X554638Y200375D01*
X554615Y200382D01*
X554583Y200381D01*
X554512Y200389D01*
X495778Y200389D01*
X495688Y200375D01*
X495597Y200367D01*
X495567Y200355D01*
X495535Y200350D01*
X495455Y200307D01*
X495371Y200271D01*
X495339Y200245D01*
X495318Y200234D01*
X495296Y200211D01*
X495240Y200166D01*
X490444Y195370D01*
X488463Y193389D01*
X485226Y193389D01*
X485206Y193386D01*
X485187Y193388D01*
X485085Y193366D01*
X484983Y193350D01*
X484966Y193340D01*
X484946Y193336D01*
X484857Y193283D01*
X484766Y193234D01*
X484752Y193220D01*
X484735Y193210D01*
X484668Y193131D01*
X484596Y193056D01*
X484588Y193038D01*
X484575Y193023D01*
X484536Y192927D01*
X484493Y192833D01*
X484491Y192813D01*
X484483Y192795D01*
X484465Y192628D01*
X484465Y192508D01*
X483385Y191428D01*
X483373Y191412D01*
X483357Y191400D01*
X483301Y191312D01*
X483241Y191229D01*
X483235Y191210D01*
X483224Y191193D01*
X483199Y191092D01*
X483169Y190993D01*
X483169Y190974D01*
X483164Y190954D01*
X483172Y190851D01*
X483175Y190748D01*
X483182Y190729D01*
X483183Y190709D01*
X483224Y190614D01*
X483259Y190517D01*
X483272Y190501D01*
X483280Y190483D01*
X483385Y190352D01*
X484465Y189272D01*
X484465Y181508D01*
X483385Y180428D01*
X483373Y180412D01*
X483357Y180400D01*
X483301Y180312D01*
X483241Y180229D01*
X483235Y180210D01*
X483224Y180193D01*
X483199Y180092D01*
X483169Y179993D01*
X483169Y179974D01*
X483164Y179954D01*
X483172Y179851D01*
X483175Y179748D01*
X483182Y179729D01*
X483183Y179709D01*
X483224Y179614D01*
X483259Y179517D01*
X483272Y179501D01*
X483280Y179483D01*
X483385Y179352D01*
X484465Y178272D01*
X484465Y170508D01*
X483385Y169428D01*
X483373Y169412D01*
X483357Y169400D01*
X483301Y169312D01*
X483241Y169229D01*
X483235Y169210D01*
X483224Y169193D01*
X483199Y169092D01*
X483169Y168993D01*
X483169Y168974D01*
X483164Y168954D01*
X483172Y168851D01*
X483175Y168748D01*
X483182Y168729D01*
X483183Y168709D01*
X483224Y168614D01*
X483259Y168517D01*
X483272Y168501D01*
X483280Y168483D01*
X483385Y168352D01*
X484465Y167272D01*
X484465Y159508D01*
X483385Y158428D01*
X483373Y158412D01*
X483357Y158400D01*
X483301Y158312D01*
X483241Y158229D01*
X483235Y158210D01*
X483224Y158193D01*
X483199Y158092D01*
X483169Y157993D01*
X483169Y157974D01*
X483164Y157954D01*
X483172Y157851D01*
X483175Y157748D01*
X483182Y157729D01*
X483183Y157709D01*
X483224Y157614D01*
X483259Y157517D01*
X483272Y157501D01*
X483280Y157483D01*
X483385Y157352D01*
X484465Y156272D01*
X484465Y148508D01*
X483572Y147615D01*
X467308Y147615D01*
X466415Y148508D01*
X466415Y156272D01*
X467495Y157352D01*
X467507Y157368D01*
X467523Y157380D01*
X467579Y157468D01*
X467639Y157551D01*
X467645Y157570D01*
X467656Y157587D01*
X467681Y157688D01*
X467711Y157787D01*
X467711Y157806D01*
X467716Y157826D01*
X467708Y157929D01*
X467705Y158032D01*
X467698Y158051D01*
X467697Y158071D01*
X467656Y158166D01*
X467621Y158263D01*
X467608Y158279D01*
X467600Y158297D01*
X467495Y158428D01*
X466415Y159508D01*
X466415Y167272D01*
X467495Y168352D01*
X467507Y168368D01*
X467523Y168380D01*
X467579Y168468D01*
X467639Y168551D01*
X467645Y168570D01*
X467656Y168587D01*
X467681Y168688D01*
X467711Y168787D01*
X467711Y168806D01*
X467716Y168826D01*
X467708Y168929D01*
X467705Y169032D01*
X467698Y169051D01*
X467697Y169071D01*
X467656Y169166D01*
X467621Y169263D01*
X467608Y169279D01*
X467600Y169297D01*
X467495Y169428D01*
X466415Y170508D01*
X466415Y178272D01*
X467495Y179352D01*
X467507Y179368D01*
X467523Y179380D01*
X467579Y179468D01*
X467639Y179551D01*
X467645Y179570D01*
X467656Y179587D01*
X467681Y179688D01*
X467711Y179787D01*
X467711Y179806D01*
X467716Y179826D01*
X467708Y179929D01*
X467705Y180032D01*
X467698Y180051D01*
X467697Y180071D01*
X467656Y180166D01*
X467621Y180263D01*
X467608Y180279D01*
X467600Y180297D01*
X467495Y180428D01*
X466415Y181508D01*
X466415Y189272D01*
X467495Y190352D01*
X467507Y190368D01*
X467523Y190380D01*
X467579Y190468D01*
X467639Y190551D01*
X467645Y190570D01*
X467656Y190587D01*
X467681Y190688D01*
X467711Y190787D01*
X467711Y190806D01*
X467716Y190826D01*
X467708Y190929D01*
X467705Y191032D01*
X467698Y191051D01*
X467697Y191071D01*
X467656Y191166D01*
X467621Y191263D01*
X467608Y191279D01*
X467600Y191297D01*
X467495Y191428D01*
X466415Y192508D01*
X466415Y193966D01*
X466401Y194056D01*
X466393Y194147D01*
X466381Y194177D01*
X466376Y194208D01*
X466333Y194289D01*
X466297Y194373D01*
X466271Y194405D01*
X466260Y194426D01*
X466237Y194448D01*
X466192Y194504D01*
X465549Y195147D01*
X465549Y197633D01*
X466192Y198276D01*
X466245Y198350D01*
X466305Y198419D01*
X466317Y198450D01*
X466336Y198476D01*
X466363Y198563D01*
X466397Y198648D01*
X466401Y198688D01*
X466408Y198711D01*
X466407Y198743D01*
X466415Y198814D01*
X466415Y200272D01*
X467495Y201352D01*
X467507Y201368D01*
X467523Y201380D01*
X467579Y201468D01*
X467639Y201551D01*
X467645Y201570D01*
X467656Y201587D01*
X467681Y201688D01*
X467711Y201787D01*
X467711Y201806D01*
X467716Y201826D01*
X467708Y201929D01*
X467705Y202032D01*
X467698Y202051D01*
X467697Y202071D01*
X467656Y202166D01*
X467621Y202263D01*
X467608Y202279D01*
X467600Y202297D01*
X467495Y202428D01*
X466415Y203508D01*
X466415Y211272D01*
X467495Y212352D01*
X467507Y212368D01*
X467523Y212380D01*
X467579Y212468D01*
X467639Y212551D01*
X467645Y212570D01*
X467656Y212587D01*
X467681Y212688D01*
X467711Y212787D01*
X467711Y212806D01*
X467716Y212826D01*
X467708Y212929D01*
X467705Y213032D01*
X467698Y213051D01*
X467697Y213071D01*
X467656Y213166D01*
X467621Y213263D01*
X467608Y213279D01*
X467600Y213297D01*
X467495Y213428D01*
X466415Y214508D01*
X466415Y222272D01*
X467495Y223352D01*
X467507Y223368D01*
X467523Y223380D01*
X467579Y223468D01*
X467639Y223551D01*
X467645Y223570D01*
X467656Y223587D01*
X467681Y223688D01*
X467711Y223787D01*
X467711Y223806D01*
X467716Y223826D01*
X467708Y223929D01*
X467705Y224032D01*
X467698Y224051D01*
X467697Y224071D01*
X467656Y224166D01*
X467621Y224263D01*
X467608Y224279D01*
X467600Y224297D01*
X467495Y224428D01*
X466415Y225508D01*
X466415Y233272D01*
X467308Y234165D01*
X483572Y234165D01*
X484465Y233272D01*
X484465Y233152D01*
X484468Y233132D01*
X484466Y233113D01*
X484488Y233011D01*
X484504Y232909D01*
X484514Y232892D01*
X484518Y232872D01*
X484571Y232783D01*
X484620Y232692D01*
X484634Y232678D01*
X484644Y232661D01*
X484723Y232594D01*
X484798Y232522D01*
X484816Y232514D01*
X484831Y232501D01*
X484927Y232462D01*
X485021Y232419D01*
X485041Y232417D01*
X485059Y232409D01*
X485226Y232391D01*
X486863Y232391D01*
X500640Y218614D01*
X500714Y218561D01*
X500783Y218501D01*
X500814Y218489D01*
X500840Y218470D01*
X500927Y218443D01*
X501012Y218409D01*
X501052Y218405D01*
X501075Y218398D01*
X501107Y218399D01*
X501178Y218391D01*
X538952Y218391D01*
X539042Y218405D01*
X539133Y218413D01*
X539163Y218425D01*
X539194Y218430D01*
X539275Y218473D01*
X539359Y218509D01*
X539391Y218535D01*
X539412Y218546D01*
X539434Y218569D01*
X539490Y218614D01*
X540580Y219704D01*
X540622Y219762D01*
X540671Y219814D01*
X540693Y219861D01*
X540724Y219903D01*
X540745Y219972D01*
X540775Y220037D01*
X540781Y220089D01*
X540796Y220139D01*
X540794Y220210D01*
X540802Y220281D01*
X540791Y220332D01*
X540790Y220384D01*
X540765Y220452D01*
X540750Y220522D01*
X540723Y220567D01*
X540705Y220615D01*
X540660Y220671D01*
X540624Y220733D01*
X540584Y220767D01*
X540551Y220807D01*
X540491Y220846D01*
X540437Y220893D01*
X540388Y220912D01*
X540345Y220940D01*
X540275Y220958D01*
X540209Y220985D01*
X540137Y220993D01*
X540106Y221001D01*
X540083Y220999D01*
X540042Y221003D01*
X537655Y221003D01*
X534693Y223965D01*
X534693Y228171D01*
X534740Y228220D01*
X534762Y228267D01*
X534792Y228309D01*
X534813Y228378D01*
X534843Y228443D01*
X534849Y228495D01*
X534864Y228544D01*
X534862Y228616D01*
X534870Y228687D01*
X534859Y228738D01*
X534858Y228790D01*
X534833Y228858D01*
X534818Y228928D01*
X534791Y228973D01*
X534774Y229021D01*
X534729Y229077D01*
X534692Y229139D01*
X534652Y229173D01*
X534620Y229213D01*
X534559Y229252D01*
X534505Y229299D01*
X534457Y229318D01*
X534413Y229346D01*
X534343Y229364D01*
X534277Y229391D01*
X534206Y229399D01*
X534174Y229407D01*
X534151Y229405D01*
X534110Y229409D01*
X532418Y229409D01*
X532328Y229395D01*
X532237Y229387D01*
X532207Y229375D01*
X532176Y229370D01*
X532095Y229327D01*
X532011Y229291D01*
X531979Y229265D01*
X531958Y229254D01*
X531936Y229231D01*
X531880Y229186D01*
X531060Y228366D01*
X531007Y228292D01*
X530947Y228223D01*
X530935Y228192D01*
X530916Y228166D01*
X530889Y228079D01*
X530855Y227994D01*
X530851Y227954D01*
X530844Y227931D01*
X530845Y227899D01*
X530837Y227828D01*
X530837Y223965D01*
X527875Y221003D01*
X523685Y221003D01*
X520723Y223965D01*
X520723Y228155D01*
X523685Y231117D01*
X525008Y231117D01*
X525098Y231131D01*
X525189Y231139D01*
X525219Y231151D01*
X525250Y231156D01*
X525331Y231199D01*
X525415Y231235D01*
X525447Y231261D01*
X525468Y231272D01*
X525476Y231280D01*
X525477Y231281D01*
X525492Y231297D01*
X525546Y231340D01*
X529472Y235266D01*
X529514Y235324D01*
X529563Y235376D01*
X529585Y235423D01*
X529616Y235465D01*
X529637Y235534D01*
X529667Y235599D01*
X529673Y235651D01*
X529688Y235701D01*
X529686Y235772D01*
X529694Y235843D01*
X529683Y235894D01*
X529682Y235946D01*
X529657Y236014D01*
X529642Y236084D01*
X529615Y236129D01*
X529597Y236177D01*
X529552Y236233D01*
X529516Y236295D01*
X529476Y236329D01*
X529443Y236369D01*
X529383Y236408D01*
X529329Y236455D01*
X529280Y236474D01*
X529237Y236502D01*
X529167Y236520D01*
X529101Y236547D01*
X529029Y236555D01*
X528998Y236563D01*
X528975Y236561D01*
X528934Y236565D01*
X528058Y236565D01*
X526978Y237645D01*
X526962Y237657D01*
X526950Y237673D01*
X526862Y237729D01*
X526779Y237789D01*
X526760Y237795D01*
X526743Y237806D01*
X526642Y237831D01*
X526543Y237861D01*
X526524Y237861D01*
X526504Y237866D01*
X526401Y237858D01*
X526298Y237855D01*
X526279Y237848D01*
X526259Y237847D01*
X526164Y237806D01*
X526067Y237771D01*
X526051Y237758D01*
X526033Y237750D01*
X525902Y237645D01*
X524822Y236565D01*
X517058Y236565D01*
X515978Y237645D01*
X515962Y237657D01*
X515950Y237673D01*
X515862Y237729D01*
X515779Y237789D01*
X515760Y237795D01*
X515743Y237806D01*
X515642Y237831D01*
X515543Y237861D01*
X515524Y237861D01*
X515504Y237866D01*
X515401Y237858D01*
X515298Y237855D01*
X515279Y237848D01*
X515259Y237847D01*
X515164Y237806D01*
X515067Y237771D01*
X515051Y237758D01*
X515033Y237750D01*
X514902Y237645D01*
X513822Y236565D01*
X506058Y236565D01*
X504978Y237645D01*
X504962Y237657D01*
X504950Y237673D01*
X504862Y237729D01*
X504779Y237789D01*
X504760Y237795D01*
X504743Y237806D01*
X504642Y237831D01*
X504543Y237861D01*
X504524Y237861D01*
X504504Y237866D01*
X504401Y237858D01*
X504298Y237855D01*
X504279Y237848D01*
X504259Y237847D01*
X504164Y237806D01*
X504067Y237771D01*
X504051Y237758D01*
X504033Y237750D01*
X503902Y237645D01*
X502822Y236565D01*
X495058Y236565D01*
X494165Y237458D01*
X494165Y253722D01*
X495058Y254615D01*
X502822Y254615D01*
X503902Y253535D01*
X503918Y253523D01*
X503930Y253507D01*
X504018Y253451D01*
X504101Y253391D01*
X504120Y253385D01*
X504137Y253374D01*
X504238Y253349D01*
X504337Y253319D01*
X504356Y253319D01*
X504376Y253314D01*
X504479Y253322D01*
X504582Y253325D01*
X504601Y253332D01*
X504621Y253333D01*
X504716Y253374D01*
X504813Y253409D01*
X504829Y253422D01*
X504847Y253430D01*
X504978Y253535D01*
X506088Y254644D01*
X506151Y254654D01*
X506168Y254664D01*
X506188Y254668D01*
X506277Y254721D01*
X506368Y254770D01*
X506382Y254784D01*
X506399Y254794D01*
X506466Y254873D01*
X506538Y254948D01*
X506546Y254966D01*
X506559Y254981D01*
X506598Y255077D01*
X506641Y255171D01*
X506643Y255191D01*
X506651Y255209D01*
X506669Y255376D01*
X506669Y259090D01*
X506655Y259180D01*
X506647Y259271D01*
X506635Y259301D01*
X506630Y259333D01*
X506587Y259413D01*
X506551Y259497D01*
X506525Y259529D01*
X506514Y259550D01*
X506491Y259572D01*
X506446Y259628D01*
X503058Y263016D01*
X502984Y263069D01*
X502915Y263129D01*
X502885Y263141D01*
X502858Y263160D01*
X502771Y263187D01*
X502687Y263221D01*
X502646Y263225D01*
X502623Y263232D01*
X502591Y263231D01*
X502520Y263239D01*
X399061Y263239D01*
X398971Y263225D01*
X398880Y263217D01*
X398850Y263205D01*
X398818Y263200D01*
X398737Y263157D01*
X398653Y263121D01*
X398621Y263095D01*
X398601Y263084D01*
X398578Y263061D01*
X398522Y263016D01*
X384235Y248729D01*
X205115Y248729D01*
X202976Y250868D01*
X198098Y255746D01*
X195959Y257885D01*
X195959Y265034D01*
X195956Y265054D01*
X195958Y265073D01*
X195936Y265175D01*
X195920Y265277D01*
X195910Y265294D01*
X195906Y265314D01*
X195853Y265403D01*
X195804Y265494D01*
X195790Y265508D01*
X195780Y265525D01*
X195701Y265592D01*
X195626Y265664D01*
X195608Y265672D01*
X195593Y265685D01*
X195497Y265724D01*
X195403Y265767D01*
X195383Y265769D01*
X195365Y265777D01*
X195198Y265795D01*
X193098Y265795D01*
X192205Y266688D01*
X192205Y279400D01*
X192202Y279420D01*
X192204Y279439D01*
X192182Y279541D01*
X192166Y279643D01*
X192156Y279660D01*
X192152Y279680D01*
X192099Y279769D01*
X192050Y279860D01*
X192036Y279874D01*
X192026Y279891D01*
X191947Y279958D01*
X191872Y280030D01*
X191854Y280038D01*
X191839Y280051D01*
X191743Y280090D01*
X191649Y280133D01*
X191629Y280135D01*
X191611Y280143D01*
X191444Y280161D01*
X187016Y280161D01*
X186996Y280158D01*
X186977Y280160D01*
X186875Y280138D01*
X186773Y280122D01*
X186756Y280112D01*
X186736Y280108D01*
X186647Y280055D01*
X186556Y280006D01*
X186542Y279992D01*
X186525Y279982D01*
X186458Y279903D01*
X186386Y279828D01*
X186378Y279810D01*
X186365Y279795D01*
X186326Y279699D01*
X186283Y279605D01*
X186281Y279585D01*
X186273Y279567D01*
X186255Y279400D01*
X186255Y266688D01*
X185362Y265795D01*
X173098Y265795D01*
X172205Y266688D01*
X172205Y269896D01*
X172194Y269967D01*
X172192Y270039D01*
X172174Y270088D01*
X172166Y270139D01*
X172132Y270202D01*
X172107Y270270D01*
X172075Y270310D01*
X172050Y270356D01*
X171998Y270406D01*
X171954Y270462D01*
X171910Y270490D01*
X171872Y270526D01*
X171807Y270556D01*
X171747Y270595D01*
X171696Y270607D01*
X171649Y270629D01*
X171578Y270637D01*
X171508Y270655D01*
X171456Y270651D01*
X171405Y270656D01*
X171334Y270641D01*
X171263Y270636D01*
X171215Y270615D01*
X171164Y270604D01*
X171103Y270567D01*
X171037Y270539D01*
X170981Y270494D01*
X170953Y270478D01*
X170938Y270460D01*
X170906Y270434D01*
X169735Y269263D01*
X165545Y269263D01*
X162583Y272225D01*
X162583Y276415D01*
X165030Y278862D01*
X165072Y278920D01*
X165122Y278972D01*
X165144Y279019D01*
X165174Y279061D01*
X165195Y279130D01*
X165225Y279195D01*
X165231Y279247D01*
X165246Y279297D01*
X165244Y279368D01*
X165252Y279439D01*
X165241Y279490D01*
X165240Y279542D01*
X165215Y279610D01*
X165200Y279680D01*
X165173Y279724D01*
X165156Y279773D01*
X165111Y279829D01*
X165074Y279891D01*
X165034Y279925D01*
X165002Y279965D01*
X164942Y280004D01*
X164887Y280051D01*
X164839Y280070D01*
X164795Y280098D01*
X164725Y280116D01*
X164659Y280143D01*
X164588Y280151D01*
X164556Y280159D01*
X164533Y280157D01*
X164492Y280161D01*
X151130Y280161D01*
X151110Y280158D01*
X151091Y280160D01*
X150989Y280138D01*
X150887Y280122D01*
X150870Y280112D01*
X150850Y280108D01*
X150761Y280055D01*
X150670Y280006D01*
X150656Y279992D01*
X150639Y279982D01*
X150572Y279903D01*
X150501Y279828D01*
X150492Y279810D01*
X150479Y279795D01*
X150440Y279699D01*
X150397Y279605D01*
X150395Y279585D01*
X150387Y279567D01*
X150369Y279400D01*
X150369Y241300D01*
X150384Y241210D01*
X150391Y241119D01*
X150403Y241089D01*
X150409Y241057D01*
X150451Y240977D01*
X150487Y240893D01*
X150513Y240861D01*
X150524Y240840D01*
X150547Y240818D01*
X150592Y240762D01*
X156942Y234412D01*
X157016Y234359D01*
X157085Y234299D01*
X157115Y234287D01*
X157141Y234268D01*
X157228Y234241D01*
X157313Y234207D01*
X157354Y234203D01*
X157377Y234196D01*
X157409Y234197D01*
X157480Y234189D01*
X403099Y234189D01*
X403099Y135692D01*
X403102Y135672D01*
X403100Y135653D01*
X403122Y135551D01*
X403139Y135449D01*
X403148Y135432D01*
X403152Y135412D01*
X403205Y135323D01*
X403254Y135232D01*
X403268Y135218D01*
X403278Y135201D01*
X403357Y135134D01*
X403432Y135062D01*
X403450Y135054D01*
X403465Y135041D01*
X403561Y135002D01*
X403655Y134959D01*
X403675Y134957D01*
X403693Y134949D01*
X403860Y134931D01*
X466759Y134931D01*
X466849Y134945D01*
X466940Y134953D01*
X466970Y134965D01*
X467002Y134970D01*
X467083Y135013D01*
X467166Y135049D01*
X467199Y135075D01*
X467219Y135086D01*
X467241Y135109D01*
X467297Y135154D01*
X467308Y135165D01*
X483572Y135165D01*
X484494Y134242D01*
X484504Y134179D01*
X484514Y134162D01*
X484518Y134142D01*
X484571Y134053D01*
X484620Y133962D01*
X484634Y133948D01*
X484644Y133931D01*
X484723Y133864D01*
X484798Y133792D01*
X484816Y133784D01*
X484831Y133771D01*
X484927Y133732D01*
X485021Y133689D01*
X485041Y133687D01*
X485059Y133679D01*
X485226Y133661D01*
X486915Y133661D01*
X493491Y127085D01*
X493491Y90985D01*
X493502Y90914D01*
X493504Y90842D01*
X493522Y90793D01*
X493530Y90742D01*
X493564Y90679D01*
X493589Y90611D01*
X493621Y90571D01*
X493646Y90525D01*
X493698Y90475D01*
X493742Y90419D01*
X493786Y90391D01*
X493824Y90355D01*
X493889Y90325D01*
X493949Y90286D01*
X494000Y90274D01*
X494047Y90252D01*
X494118Y90244D01*
X494188Y90226D01*
X494240Y90230D01*
X494291Y90225D01*
X494362Y90240D01*
X494433Y90245D01*
X494481Y90266D01*
X494532Y90277D01*
X494593Y90314D01*
X494659Y90342D01*
X494715Y90387D01*
X494743Y90403D01*
X494758Y90421D01*
X494790Y90447D01*
X495058Y90715D01*
X502822Y90715D01*
X503902Y89635D01*
X503918Y89623D01*
X503930Y89607D01*
X504018Y89551D01*
X504101Y89491D01*
X504120Y89485D01*
X504137Y89474D01*
X504238Y89449D01*
X504337Y89419D01*
X504356Y89419D01*
X504376Y89414D01*
X504479Y89422D01*
X504582Y89425D01*
X504601Y89432D01*
X504621Y89433D01*
X504716Y89474D01*
X504813Y89509D01*
X504829Y89522D01*
X504847Y89530D01*
X504978Y89635D01*
X506058Y90715D01*
X513822Y90715D01*
X514902Y89635D01*
X514918Y89623D01*
X514930Y89607D01*
X515018Y89551D01*
X515101Y89491D01*
X515120Y89485D01*
X515137Y89474D01*
X515238Y89449D01*
X515337Y89419D01*
X515356Y89419D01*
X515376Y89414D01*
X515479Y89422D01*
X515582Y89425D01*
X515601Y89432D01*
X515621Y89433D01*
X515716Y89474D01*
X515813Y89509D01*
X515829Y89522D01*
X515847Y89530D01*
X515978Y89635D01*
X517058Y90715D01*
X524822Y90715D01*
X525902Y89635D01*
X525918Y89623D01*
X525930Y89607D01*
X526018Y89551D01*
X526101Y89491D01*
X526120Y89485D01*
X526137Y89474D01*
X526238Y89449D01*
X526337Y89419D01*
X526356Y89419D01*
X526376Y89414D01*
X526479Y89422D01*
X526582Y89425D01*
X526601Y89432D01*
X526621Y89433D01*
X526716Y89474D01*
X526813Y89509D01*
X526829Y89522D01*
X526847Y89530D01*
X526978Y89635D01*
X528058Y90715D01*
X535822Y90715D01*
X536902Y89635D01*
X536918Y89623D01*
X536930Y89607D01*
X537018Y89551D01*
X537101Y89491D01*
X537120Y89485D01*
X537137Y89474D01*
X537238Y89449D01*
X537337Y89419D01*
X537356Y89419D01*
X537376Y89414D01*
X537479Y89422D01*
X537582Y89425D01*
X537601Y89432D01*
X537621Y89433D01*
X537716Y89474D01*
X537813Y89509D01*
X537829Y89522D01*
X537847Y89530D01*
X537978Y89635D01*
X539058Y90715D01*
X546822Y90715D01*
X547902Y89635D01*
X547918Y89623D01*
X547930Y89607D01*
X548018Y89551D01*
X548101Y89491D01*
X548120Y89485D01*
X548137Y89474D01*
X548238Y89449D01*
X548337Y89419D01*
X548356Y89419D01*
X548376Y89414D01*
X548479Y89422D01*
X548582Y89425D01*
X548601Y89432D01*
X548621Y89433D01*
X548716Y89474D01*
X548813Y89509D01*
X548829Y89522D01*
X548847Y89530D01*
X548978Y89635D01*
X550058Y90715D01*
X557822Y90715D01*
X558902Y89635D01*
X558918Y89623D01*
X558930Y89607D01*
X559018Y89551D01*
X559101Y89491D01*
X559120Y89485D01*
X559137Y89474D01*
X559238Y89449D01*
X559337Y89419D01*
X559356Y89419D01*
X559376Y89414D01*
X559479Y89422D01*
X559582Y89425D01*
X559601Y89432D01*
X559621Y89433D01*
X559716Y89474D01*
X559813Y89509D01*
X559829Y89522D01*
X559847Y89530D01*
X559978Y89635D01*
X561058Y90715D01*
X568822Y90715D01*
X569902Y89635D01*
X569918Y89623D01*
X569930Y89607D01*
X570018Y89551D01*
X570101Y89491D01*
X570120Y89485D01*
X570137Y89474D01*
X570238Y89449D01*
X570337Y89419D01*
X570356Y89419D01*
X570376Y89414D01*
X570479Y89422D01*
X570582Y89425D01*
X570601Y89432D01*
X570621Y89433D01*
X570716Y89474D01*
X570813Y89509D01*
X570829Y89522D01*
X570847Y89530D01*
X570978Y89635D01*
X572058Y90715D01*
X579822Y90715D01*
X580902Y89635D01*
X580918Y89623D01*
X580930Y89607D01*
X581018Y89551D01*
X581101Y89491D01*
X581120Y89485D01*
X581137Y89474D01*
X581238Y89449D01*
X581337Y89419D01*
X581356Y89419D01*
X581376Y89414D01*
X581479Y89422D01*
X581582Y89425D01*
X581601Y89432D01*
X581621Y89433D01*
X581716Y89474D01*
X581813Y89509D01*
X581829Y89522D01*
X581847Y89530D01*
X581978Y89635D01*
X583058Y90715D01*
X590822Y90715D01*
X591902Y89635D01*
X591918Y89623D01*
X591930Y89607D01*
X592018Y89551D01*
X592101Y89491D01*
X592120Y89485D01*
X592137Y89474D01*
X592238Y89449D01*
X592337Y89419D01*
X592356Y89419D01*
X592376Y89414D01*
X592479Y89422D01*
X592582Y89425D01*
X592601Y89432D01*
X592621Y89433D01*
X592716Y89474D01*
X592813Y89509D01*
X592829Y89522D01*
X592847Y89530D01*
X592978Y89635D01*
X594058Y90715D01*
X601822Y90715D01*
X602902Y89635D01*
X602918Y89623D01*
X602930Y89607D01*
X603018Y89551D01*
X603101Y89491D01*
X603120Y89485D01*
X603137Y89474D01*
X603238Y89449D01*
X603337Y89419D01*
X603356Y89419D01*
X603376Y89414D01*
X603479Y89422D01*
X603582Y89425D01*
X603601Y89432D01*
X603621Y89433D01*
X603716Y89474D01*
X603813Y89509D01*
X603829Y89522D01*
X603847Y89530D01*
X603978Y89635D01*
X605058Y90715D01*
X612822Y90715D01*
X613902Y89635D01*
X613918Y89623D01*
X613930Y89607D01*
X614018Y89551D01*
X614101Y89491D01*
X614120Y89485D01*
X614137Y89474D01*
X614238Y89449D01*
X614337Y89419D01*
X614356Y89419D01*
X614376Y89414D01*
X614479Y89422D01*
X614582Y89425D01*
X614601Y89432D01*
X614621Y89433D01*
X614716Y89474D01*
X614813Y89509D01*
X614829Y89522D01*
X614847Y89530D01*
X614978Y89635D01*
X616058Y90715D01*
X623822Y90715D01*
X624715Y89822D01*
X624715Y73558D01*
X623822Y72665D01*
X616058Y72665D01*
X614978Y73745D01*
X614962Y73757D01*
X614950Y73773D01*
X614862Y73829D01*
X614779Y73889D01*
X614760Y73895D01*
X614743Y73906D01*
X614642Y73931D01*
X614543Y73961D01*
X614524Y73961D01*
X614504Y73966D01*
X614401Y73958D01*
X614298Y73955D01*
X614279Y73948D01*
X614259Y73947D01*
X614164Y73906D01*
X614067Y73871D01*
X614051Y73858D01*
X614033Y73850D01*
X613902Y73745D01*
X612822Y72665D01*
X605058Y72665D01*
X603978Y73745D01*
X603962Y73757D01*
X603950Y73773D01*
X603862Y73829D01*
X603779Y73889D01*
X603760Y73895D01*
X603743Y73906D01*
X603642Y73931D01*
X603543Y73961D01*
X603524Y73961D01*
X603504Y73966D01*
X603401Y73958D01*
X603298Y73955D01*
X603279Y73948D01*
X603259Y73947D01*
X603164Y73906D01*
X603067Y73871D01*
X603051Y73858D01*
X603033Y73850D01*
X602902Y73745D01*
X601822Y72665D01*
X601702Y72665D01*
X601682Y72662D01*
X601663Y72664D01*
X601561Y72642D01*
X601459Y72626D01*
X601442Y72616D01*
X601422Y72612D01*
X601333Y72559D01*
X601242Y72510D01*
X601228Y72496D01*
X601211Y72486D01*
X601144Y72407D01*
X601072Y72332D01*
X601064Y72314D01*
X601051Y72299D01*
X601012Y72203D01*
X600969Y72109D01*
X600967Y72089D01*
X600959Y72071D01*
X600941Y71904D01*
X600941Y70368D01*
X600955Y70278D01*
X600963Y70187D01*
X600975Y70157D01*
X600980Y70126D01*
X601023Y70045D01*
X601059Y69961D01*
X601085Y69929D01*
X601096Y69908D01*
X601119Y69886D01*
X601164Y69830D01*
X615633Y55361D01*
X615633Y49988D01*
X615644Y49917D01*
X615646Y49845D01*
X615664Y49796D01*
X615672Y49745D01*
X615706Y49682D01*
X615731Y49614D01*
X615763Y49574D01*
X615788Y49527D01*
X615840Y49478D01*
X615884Y49422D01*
X615928Y49394D01*
X615966Y49358D01*
X616031Y49328D01*
X616091Y49289D01*
X616142Y49276D01*
X616189Y49254D01*
X616260Y49247D01*
X616330Y49229D01*
X616382Y49233D01*
X616433Y49227D01*
X616504Y49243D01*
X616575Y49248D01*
X616623Y49269D01*
X616674Y49280D01*
X616735Y49316D01*
X616801Y49345D01*
X616857Y49389D01*
X616885Y49406D01*
X616900Y49424D01*
X616932Y49449D01*
X619923Y52440D01*
X623937Y54103D01*
X628283Y54103D01*
X632297Y52440D01*
X635370Y49367D01*
X637033Y45353D01*
X637033Y41007D01*
X635370Y36993D01*
X632297Y33920D01*
X628283Y32257D01*
X623937Y32257D01*
X619923Y33920D01*
X616932Y36911D01*
X616874Y36953D01*
X616822Y37002D01*
X616775Y37024D01*
X616733Y37054D01*
X616664Y37075D01*
X616599Y37106D01*
X616547Y37111D01*
X616497Y37127D01*
X616426Y37125D01*
X616355Y37133D01*
X616304Y37122D01*
X616252Y37120D01*
X616184Y37096D01*
X616114Y37080D01*
X616069Y37054D01*
X616021Y37036D01*
X615965Y36991D01*
X615903Y36954D01*
X615869Y36915D01*
X615829Y36882D01*
X615790Y36822D01*
X615743Y36767D01*
X615724Y36719D01*
X615696Y36675D01*
X615678Y36606D01*
X615651Y36539D01*
X615643Y36468D01*
X615635Y36437D01*
X615637Y36413D01*
X615633Y36372D01*
X615633Y28459D01*
X610673Y23499D01*
X610605Y23405D01*
X610535Y23310D01*
X610533Y23304D01*
X610529Y23299D01*
X610495Y23188D01*
X610458Y23076D01*
X610458Y23070D01*
X610457Y23064D01*
X610460Y22947D01*
X610461Y22830D01*
X610463Y22823D01*
X610463Y22818D01*
X610469Y22801D01*
X610507Y22669D01*
X611633Y19953D01*
X611633Y15607D01*
X609970Y11593D01*
X606897Y8520D01*
X602883Y6857D01*
X598537Y6857D01*
X594523Y8520D01*
X591450Y11593D01*
X589787Y15607D01*
X589787Y19953D01*
X591450Y23967D01*
X594523Y27040D01*
X598537Y28703D01*
X602883Y28703D01*
X605599Y27577D01*
X605713Y27551D01*
X605826Y27522D01*
X605833Y27523D01*
X605839Y27521D01*
X605955Y27532D01*
X606072Y27541D01*
X606077Y27544D01*
X606084Y27544D01*
X606191Y27592D01*
X606298Y27638D01*
X606304Y27642D01*
X606308Y27644D01*
X606322Y27657D01*
X606429Y27743D01*
X609408Y30722D01*
X609461Y30796D01*
X609521Y30865D01*
X609533Y30896D01*
X609552Y30922D01*
X609579Y31009D01*
X609613Y31094D01*
X609617Y31134D01*
X609624Y31157D01*
X609623Y31189D01*
X609631Y31260D01*
X609631Y34816D01*
X609620Y34887D01*
X609618Y34959D01*
X609600Y35008D01*
X609592Y35059D01*
X609558Y35122D01*
X609533Y35190D01*
X609501Y35230D01*
X609476Y35277D01*
X609424Y35326D01*
X609380Y35382D01*
X609336Y35410D01*
X609298Y35446D01*
X609233Y35476D01*
X609173Y35515D01*
X609122Y35528D01*
X609075Y35550D01*
X609004Y35557D01*
X608934Y35575D01*
X608882Y35571D01*
X608831Y35577D01*
X608760Y35561D01*
X608689Y35556D01*
X608641Y35535D01*
X608590Y35524D01*
X608529Y35488D01*
X608463Y35459D01*
X608407Y35415D01*
X608379Y35398D01*
X608364Y35380D01*
X608332Y35355D01*
X606897Y33920D01*
X602883Y32257D01*
X598537Y32257D01*
X594523Y33920D01*
X591450Y36993D01*
X589787Y41007D01*
X589787Y45353D01*
X591450Y49367D01*
X594523Y52440D01*
X598537Y54103D01*
X602883Y54103D01*
X606897Y52440D01*
X608332Y51005D01*
X608390Y50963D01*
X608442Y50914D01*
X608489Y50892D01*
X608531Y50862D01*
X608600Y50841D01*
X608665Y50810D01*
X608717Y50805D01*
X608767Y50789D01*
X608838Y50791D01*
X608909Y50783D01*
X608960Y50794D01*
X609012Y50796D01*
X609080Y50820D01*
X609150Y50836D01*
X609195Y50862D01*
X609243Y50880D01*
X609299Y50925D01*
X609361Y50962D01*
X609395Y51001D01*
X609435Y51034D01*
X609474Y51094D01*
X609521Y51149D01*
X609540Y51197D01*
X609568Y51241D01*
X609586Y51310D01*
X609613Y51377D01*
X609621Y51448D01*
X609629Y51479D01*
X609627Y51503D01*
X609631Y51544D01*
X609631Y52560D01*
X609617Y52650D01*
X609609Y52741D01*
X609597Y52771D01*
X609592Y52802D01*
X609549Y52883D01*
X609513Y52967D01*
X609487Y52999D01*
X609476Y53020D01*
X609453Y53042D01*
X609408Y53098D01*
X594939Y67567D01*
X594939Y71904D01*
X594936Y71924D01*
X594938Y71943D01*
X594916Y72045D01*
X594900Y72147D01*
X594890Y72164D01*
X594886Y72184D01*
X594833Y72273D01*
X594784Y72364D01*
X594770Y72378D01*
X594760Y72395D01*
X594681Y72462D01*
X594606Y72534D01*
X594588Y72542D01*
X594573Y72555D01*
X594477Y72594D01*
X594383Y72637D01*
X594363Y72639D01*
X594345Y72647D01*
X594178Y72665D01*
X594058Y72665D01*
X592978Y73745D01*
X592962Y73757D01*
X592950Y73773D01*
X592862Y73829D01*
X592779Y73889D01*
X592760Y73895D01*
X592743Y73906D01*
X592642Y73931D01*
X592543Y73961D01*
X592524Y73961D01*
X592504Y73966D01*
X592401Y73958D01*
X592298Y73955D01*
X592279Y73948D01*
X592259Y73947D01*
X592164Y73906D01*
X592067Y73871D01*
X592051Y73858D01*
X592033Y73850D01*
X591902Y73745D01*
X590822Y72665D01*
X583058Y72665D01*
X581978Y73745D01*
X581962Y73757D01*
X581950Y73773D01*
X581862Y73829D01*
X581779Y73889D01*
X581760Y73895D01*
X581743Y73906D01*
X581642Y73931D01*
X581543Y73961D01*
X581524Y73961D01*
X581504Y73966D01*
X581401Y73958D01*
X581298Y73955D01*
X581279Y73948D01*
X581259Y73947D01*
X581164Y73906D01*
X581067Y73871D01*
X581051Y73858D01*
X581033Y73850D01*
X580902Y73745D01*
X579822Y72665D01*
X572058Y72665D01*
X570978Y73745D01*
X570962Y73757D01*
X570950Y73773D01*
X570862Y73829D01*
X570779Y73889D01*
X570760Y73895D01*
X570743Y73906D01*
X570642Y73931D01*
X570543Y73961D01*
X570524Y73961D01*
X570504Y73966D01*
X570401Y73958D01*
X570298Y73955D01*
X570279Y73948D01*
X570259Y73947D01*
X570164Y73906D01*
X570067Y73871D01*
X570051Y73858D01*
X570033Y73850D01*
X569902Y73745D01*
X568822Y72665D01*
X561058Y72665D01*
X559978Y73745D01*
X559962Y73757D01*
X559950Y73773D01*
X559862Y73829D01*
X559779Y73889D01*
X559760Y73895D01*
X559743Y73906D01*
X559642Y73931D01*
X559543Y73961D01*
X559524Y73961D01*
X559504Y73966D01*
X559401Y73958D01*
X559298Y73955D01*
X559279Y73948D01*
X559259Y73947D01*
X559164Y73906D01*
X559067Y73871D01*
X559051Y73858D01*
X559033Y73850D01*
X558902Y73745D01*
X557822Y72665D01*
X550058Y72665D01*
X548978Y73745D01*
X548962Y73757D01*
X548950Y73773D01*
X548862Y73829D01*
X548779Y73889D01*
X548760Y73895D01*
X548743Y73906D01*
X548642Y73931D01*
X548543Y73961D01*
X548524Y73961D01*
X548504Y73966D01*
X548401Y73958D01*
X548298Y73955D01*
X548279Y73948D01*
X548259Y73947D01*
X548164Y73906D01*
X548067Y73871D01*
X548051Y73858D01*
X548033Y73850D01*
X547902Y73745D01*
X546822Y72665D01*
X539058Y72665D01*
X537978Y73745D01*
X537962Y73757D01*
X537950Y73773D01*
X537862Y73829D01*
X537779Y73889D01*
X537760Y73895D01*
X537743Y73906D01*
X537642Y73931D01*
X537543Y73961D01*
X537524Y73961D01*
X537504Y73966D01*
X537401Y73958D01*
X537298Y73955D01*
X537279Y73948D01*
X537259Y73947D01*
X537164Y73906D01*
X537067Y73871D01*
X537051Y73858D01*
X537033Y73850D01*
X536902Y73745D01*
X535822Y72665D01*
X529428Y72665D01*
X529357Y72654D01*
X529286Y72652D01*
X529237Y72634D01*
X529185Y72626D01*
X529122Y72592D01*
X529055Y72567D01*
X529014Y72535D01*
X528968Y72510D01*
X528919Y72458D01*
X528863Y72414D01*
X528834Y72370D01*
X528799Y72332D01*
X528768Y72267D01*
X528730Y72207D01*
X528717Y72156D01*
X528695Y72109D01*
X528687Y72038D01*
X528670Y71968D01*
X528674Y71916D01*
X528668Y71865D01*
X528683Y71794D01*
X528689Y71723D01*
X528709Y71675D01*
X528720Y71624D01*
X528757Y71563D01*
X528785Y71497D01*
X528830Y71441D01*
X528846Y71413D01*
X528864Y71398D01*
X528890Y71366D01*
X530544Y69712D01*
X536671Y63585D01*
X536671Y24530D01*
X536685Y24440D01*
X536693Y24349D01*
X536705Y24319D01*
X536710Y24287D01*
X536753Y24207D01*
X536789Y24123D01*
X536815Y24091D01*
X536826Y24070D01*
X536849Y24048D01*
X536894Y23992D01*
X538752Y22134D01*
X538789Y22107D01*
X538820Y22073D01*
X538888Y22036D01*
X538951Y21990D01*
X538995Y21977D01*
X539035Y21955D01*
X539112Y21941D01*
X539186Y21918D01*
X539232Y21919D01*
X539277Y21911D01*
X539354Y21922D01*
X539432Y21924D01*
X539475Y21940D01*
X539521Y21947D01*
X539590Y21982D01*
X539663Y22009D01*
X539699Y22038D01*
X539740Y22058D01*
X539795Y22114D01*
X539855Y22163D01*
X539880Y22201D01*
X539912Y22234D01*
X539978Y22354D01*
X539988Y22370D01*
X539989Y22374D01*
X539993Y22381D01*
X540650Y23967D01*
X543723Y27040D01*
X547737Y28703D01*
X552083Y28703D01*
X556097Y27040D01*
X559170Y23967D01*
X560833Y19953D01*
X560833Y15607D01*
X559170Y11593D01*
X556097Y8520D01*
X552083Y6857D01*
X547737Y6857D01*
X543723Y8520D01*
X540650Y11593D01*
X539637Y14039D01*
X539575Y14139D01*
X539515Y14239D01*
X539510Y14243D01*
X539507Y14248D01*
X539417Y14323D01*
X539328Y14399D01*
X539322Y14401D01*
X539318Y14405D01*
X539209Y14447D01*
X539100Y14491D01*
X539093Y14492D01*
X539088Y14493D01*
X539070Y14494D01*
X538933Y14509D01*
X537125Y14509D01*
X534986Y16648D01*
X530129Y21505D01*
X530129Y43535D01*
X530118Y43606D01*
X530116Y43678D01*
X530098Y43727D01*
X530090Y43778D01*
X530056Y43841D01*
X530031Y43909D01*
X529999Y43949D01*
X529974Y43995D01*
X529922Y44045D01*
X529878Y44101D01*
X529834Y44129D01*
X529796Y44165D01*
X529731Y44195D01*
X529671Y44234D01*
X529620Y44246D01*
X529573Y44268D01*
X529502Y44276D01*
X529432Y44294D01*
X529380Y44290D01*
X529329Y44295D01*
X529259Y44280D01*
X529187Y44275D01*
X529139Y44254D01*
X529088Y44243D01*
X529027Y44206D01*
X529001Y44195D01*
X512448Y44195D01*
X511555Y45088D01*
X511555Y45768D01*
X511552Y45788D01*
X511554Y45807D01*
X511532Y45909D01*
X511516Y46011D01*
X511506Y46028D01*
X511502Y46048D01*
X511449Y46137D01*
X511400Y46228D01*
X511386Y46242D01*
X511376Y46259D01*
X511297Y46326D01*
X511222Y46398D01*
X511204Y46406D01*
X511189Y46419D01*
X511093Y46458D01*
X510999Y46501D01*
X510979Y46503D01*
X510961Y46511D01*
X510794Y46529D01*
X474726Y46529D01*
X474706Y46526D01*
X474687Y46528D01*
X474585Y46506D01*
X474483Y46490D01*
X474466Y46480D01*
X474446Y46476D01*
X474357Y46423D01*
X474266Y46374D01*
X474252Y46360D01*
X474235Y46350D01*
X474168Y46271D01*
X474096Y46196D01*
X474088Y46178D01*
X474075Y46163D01*
X474036Y46067D01*
X473993Y45973D01*
X473991Y45953D01*
X473983Y45935D01*
X473965Y45768D01*
X473965Y45088D01*
X473072Y44195D01*
X456568Y44195D01*
X456030Y44733D01*
X455972Y44775D01*
X455920Y44825D01*
X455873Y44847D01*
X455831Y44877D01*
X455762Y44898D01*
X455697Y44928D01*
X455645Y44934D01*
X455595Y44949D01*
X455524Y44947D01*
X455453Y44955D01*
X455402Y44944D01*
X455350Y44943D01*
X455282Y44918D01*
X455212Y44903D01*
X455167Y44876D01*
X455119Y44859D01*
X455063Y44814D01*
X455001Y44777D01*
X454967Y44737D01*
X454927Y44705D01*
X454888Y44645D01*
X454841Y44590D01*
X454822Y44542D01*
X454794Y44498D01*
X454776Y44428D01*
X454749Y44362D01*
X454741Y44291D01*
X454733Y44259D01*
X454735Y44236D01*
X454731Y44195D01*
X454731Y37737D01*
X448283Y31289D01*
X355627Y31289D01*
X351329Y35587D01*
X351329Y43815D01*
X351318Y43865D01*
X351316Y43916D01*
X351298Y43948D01*
X351290Y43984D01*
X351257Y44023D01*
X351233Y44068D01*
X351203Y44089D01*
X351180Y44117D01*
X351133Y44138D01*
X351091Y44168D01*
X351049Y44176D01*
X351021Y44188D01*
X350991Y44187D01*
X350949Y44195D01*
X346078Y44195D01*
X345185Y45088D01*
X345185Y46149D01*
X345174Y46199D01*
X345172Y46250D01*
X345154Y46282D01*
X345146Y46318D01*
X345113Y46357D01*
X345089Y46402D01*
X345059Y46423D01*
X345036Y46451D01*
X344989Y46472D01*
X344947Y46502D01*
X344905Y46510D01*
X344877Y46522D01*
X344847Y46521D01*
X344805Y46529D01*
X307975Y46529D01*
X307925Y46518D01*
X307874Y46516D01*
X307842Y46498D01*
X307806Y46490D01*
X307767Y46457D01*
X307722Y46433D01*
X307701Y46403D01*
X307673Y46380D01*
X307652Y46333D01*
X307622Y46291D01*
X307614Y46249D01*
X307602Y46221D01*
X307603Y46191D01*
X307595Y46149D01*
X307595Y45088D01*
X306702Y44195D01*
X290198Y44195D01*
X289305Y45088D01*
X289305Y53972D01*
X290198Y54865D01*
X306702Y54865D01*
X307595Y53972D01*
X307595Y52911D01*
X307606Y52861D01*
X307608Y52810D01*
X307626Y52778D01*
X307634Y52742D01*
X307667Y52703D01*
X307691Y52658D01*
X307721Y52637D01*
X307744Y52609D01*
X307791Y52588D01*
X307833Y52558D01*
X307875Y52550D01*
X307903Y52538D01*
X307933Y52539D01*
X307975Y52531D01*
X344805Y52531D01*
X344855Y52542D01*
X344906Y52544D01*
X344938Y52562D01*
X344974Y52570D01*
X345013Y52603D01*
X345058Y52627D01*
X345079Y52657D01*
X345107Y52680D01*
X345128Y52727D01*
X345158Y52769D01*
X345166Y52811D01*
X345178Y52839D01*
X345177Y52869D01*
X345178Y52871D01*
X345178Y52874D01*
X345185Y52911D01*
X345185Y53972D01*
X346078Y54865D01*
X362582Y54865D01*
X363475Y53972D01*
X363475Y45088D01*
X362582Y44195D01*
X357711Y44195D01*
X357661Y44184D01*
X357610Y44182D01*
X357578Y44164D01*
X357542Y44156D01*
X357503Y44123D01*
X357458Y44099D01*
X357437Y44069D01*
X357409Y44046D01*
X357388Y43999D01*
X357358Y43957D01*
X357350Y43915D01*
X357338Y43887D01*
X357339Y43857D01*
X357331Y43815D01*
X357331Y38230D01*
X357348Y38156D01*
X357361Y38082D01*
X357368Y38072D01*
X357370Y38062D01*
X357394Y38033D01*
X357442Y37962D01*
X358002Y37402D01*
X358066Y37362D01*
X358128Y37318D01*
X358140Y37316D01*
X358149Y37311D01*
X358186Y37307D01*
X358270Y37291D01*
X412750Y37291D01*
X412800Y37302D01*
X412851Y37304D01*
X412883Y37322D01*
X412919Y37330D01*
X412958Y37363D01*
X413003Y37387D01*
X413024Y37417D01*
X413052Y37440D01*
X413073Y37487D01*
X413103Y37529D01*
X413111Y37571D01*
X413123Y37599D01*
X413122Y37629D01*
X413130Y37671D01*
X413130Y46149D01*
X413119Y46199D01*
X413117Y46250D01*
X413099Y46282D01*
X413091Y46318D01*
X413058Y46357D01*
X413034Y46402D01*
X413004Y46423D01*
X412981Y46451D01*
X412934Y46472D01*
X412892Y46502D01*
X412850Y46510D01*
X412822Y46522D01*
X412792Y46521D01*
X412750Y46529D01*
X391795Y46529D01*
X391745Y46518D01*
X391694Y46516D01*
X391662Y46498D01*
X391626Y46490D01*
X391587Y46457D01*
X391542Y46433D01*
X391521Y46403D01*
X391493Y46380D01*
X391472Y46333D01*
X391442Y46291D01*
X391434Y46249D01*
X391422Y46221D01*
X391423Y46191D01*
X391415Y46149D01*
X391415Y45088D01*
X390522Y44195D01*
X374018Y44195D01*
X373125Y45088D01*
X373125Y53972D01*
X374018Y54865D01*
X390522Y54865D01*
X391415Y53972D01*
X391415Y52911D01*
X391426Y52861D01*
X391428Y52810D01*
X391446Y52778D01*
X391454Y52742D01*
X391487Y52703D01*
X391511Y52658D01*
X391541Y52637D01*
X391564Y52609D01*
X391611Y52588D01*
X391653Y52558D01*
X391695Y52550D01*
X391723Y52538D01*
X391753Y52539D01*
X391795Y52531D01*
X428244Y52531D01*
X428264Y52534D01*
X428283Y52532D01*
X428385Y52554D01*
X428487Y52570D01*
X428504Y52580D01*
X428524Y52584D01*
X428613Y52637D01*
X428704Y52686D01*
X428718Y52700D01*
X428735Y52710D01*
X428802Y52789D01*
X428874Y52864D01*
X428882Y52882D01*
X428895Y52897D01*
X428934Y52993D01*
X428977Y53087D01*
X428979Y53107D01*
X428987Y53125D01*
X429005Y53292D01*
X429005Y53972D01*
X429898Y54865D01*
X434388Y54865D01*
X434408Y54868D01*
X434427Y54866D01*
X434529Y54888D01*
X434631Y54904D01*
X434648Y54914D01*
X434668Y54918D01*
X434757Y54971D01*
X434848Y55020D01*
X434862Y55034D01*
X434879Y55044D01*
X434946Y55123D01*
X435018Y55198D01*
X435026Y55216D01*
X435039Y55231D01*
X435078Y55327D01*
X435121Y55421D01*
X435123Y55441D01*
X435131Y55459D01*
X435149Y55626D01*
X435149Y59663D01*
X435410Y59924D01*
X435463Y59998D01*
X435523Y60067D01*
X435535Y60098D01*
X435554Y60124D01*
X435581Y60211D01*
X435615Y60296D01*
X435619Y60336D01*
X435626Y60359D01*
X435625Y60391D01*
X435633Y60462D01*
X435633Y63055D01*
X438595Y66017D01*
X442785Y66017D01*
X445747Y63055D01*
X445747Y58865D01*
X443046Y56164D01*
X443004Y56106D01*
X442954Y56054D01*
X442932Y56007D01*
X442902Y55965D01*
X442881Y55896D01*
X442851Y55831D01*
X442845Y55779D01*
X442830Y55729D01*
X442832Y55658D01*
X442824Y55587D01*
X442835Y55536D01*
X442836Y55484D01*
X442861Y55416D01*
X442876Y55346D01*
X442903Y55301D01*
X442920Y55253D01*
X442965Y55197D01*
X443002Y55135D01*
X443042Y55101D01*
X443074Y55061D01*
X443134Y55022D01*
X443189Y54975D01*
X443237Y54956D01*
X443281Y54928D01*
X443351Y54910D01*
X443417Y54883D01*
X443488Y54875D01*
X443520Y54867D01*
X443543Y54869D01*
X443584Y54865D01*
X446402Y54865D01*
X447430Y53837D01*
X447488Y53795D01*
X447540Y53745D01*
X447587Y53723D01*
X447629Y53693D01*
X447698Y53672D01*
X447763Y53642D01*
X447815Y53636D01*
X447865Y53621D01*
X447936Y53623D01*
X448007Y53615D01*
X448058Y53626D01*
X448110Y53627D01*
X448178Y53652D01*
X448248Y53667D01*
X448293Y53694D01*
X448341Y53711D01*
X448397Y53756D01*
X448459Y53793D01*
X448493Y53833D01*
X448533Y53865D01*
X448572Y53925D01*
X448619Y53980D01*
X448638Y54028D01*
X448666Y54072D01*
X448684Y54142D01*
X448711Y54208D01*
X448719Y54279D01*
X448727Y54311D01*
X448725Y54334D01*
X448729Y54375D01*
X448729Y86694D01*
X448726Y86714D01*
X448728Y86733D01*
X448706Y86835D01*
X448690Y86937D01*
X448680Y86954D01*
X448676Y86974D01*
X448623Y87063D01*
X448574Y87154D01*
X448560Y87168D01*
X448550Y87185D01*
X448471Y87252D01*
X448396Y87324D01*
X448378Y87332D01*
X448363Y87345D01*
X448267Y87384D01*
X448173Y87427D01*
X448153Y87429D01*
X448135Y87437D01*
X447968Y87455D01*
X445598Y87455D01*
X444705Y88348D01*
X444705Y99612D01*
X445598Y100505D01*
X447698Y100505D01*
X447718Y100508D01*
X447737Y100506D01*
X447839Y100528D01*
X447941Y100544D01*
X447958Y100554D01*
X447978Y100558D01*
X448067Y100611D01*
X448158Y100660D01*
X448172Y100674D01*
X448189Y100684D01*
X448256Y100763D01*
X448328Y100838D01*
X448336Y100856D01*
X448349Y100871D01*
X448388Y100967D01*
X448431Y101061D01*
X448433Y101081D01*
X448441Y101099D01*
X448459Y101266D01*
X448459Y101934D01*
X448456Y101954D01*
X448458Y101973D01*
X448436Y102075D01*
X448420Y102177D01*
X448410Y102194D01*
X448406Y102214D01*
X448353Y102303D01*
X448304Y102394D01*
X448290Y102408D01*
X448280Y102425D01*
X448201Y102492D01*
X448126Y102564D01*
X448108Y102572D01*
X448093Y102585D01*
X447997Y102624D01*
X447903Y102667D01*
X447883Y102669D01*
X447865Y102677D01*
X447698Y102695D01*
X445598Y102695D01*
X444705Y103588D01*
X444705Y114852D01*
X445598Y115745D01*
X457862Y115745D01*
X458755Y114852D01*
X458755Y113252D01*
X458758Y113232D01*
X458756Y113213D01*
X458778Y113111D01*
X458794Y113009D01*
X458804Y112992D01*
X458808Y112972D01*
X458861Y112883D01*
X458910Y112792D01*
X458924Y112778D01*
X458934Y112761D01*
X459013Y112694D01*
X459088Y112622D01*
X459106Y112614D01*
X459121Y112601D01*
X459217Y112562D01*
X459311Y112519D01*
X459331Y112517D01*
X459349Y112509D01*
X459516Y112491D01*
X462365Y112491D01*
X462972Y111884D01*
X463046Y111831D01*
X463115Y111771D01*
X463145Y111759D01*
X463172Y111740D01*
X463259Y111713D01*
X463343Y111679D01*
X463384Y111675D01*
X463407Y111668D01*
X463439Y111669D01*
X463510Y111661D01*
X465654Y111661D01*
X465674Y111664D01*
X465693Y111662D01*
X465795Y111684D01*
X465897Y111700D01*
X465914Y111710D01*
X465934Y111714D01*
X466023Y111767D01*
X466114Y111816D01*
X466128Y111830D01*
X466145Y111840D01*
X466212Y111919D01*
X466284Y111994D01*
X466292Y112012D01*
X466305Y112027D01*
X466344Y112123D01*
X466387Y112217D01*
X466389Y112237D01*
X466395Y112252D01*
X467495Y113352D01*
X467507Y113368D01*
X467523Y113380D01*
X467564Y113445D01*
X467583Y113465D01*
X467595Y113491D01*
X467639Y113551D01*
X467645Y113570D01*
X467656Y113587D01*
X467674Y113660D01*
X467687Y113688D01*
X467690Y113718D01*
X467711Y113787D01*
X467711Y113806D01*
X467716Y113826D01*
X467710Y113897D01*
X467714Y113933D01*
X467707Y113967D01*
X467705Y114032D01*
X467698Y114051D01*
X467697Y114071D01*
X467671Y114131D01*
X467662Y114173D01*
X467640Y114209D01*
X467621Y114263D01*
X467608Y114279D01*
X467600Y114297D01*
X467550Y114360D01*
X467536Y114384D01*
X467520Y114398D01*
X467495Y114428D01*
X466415Y115508D01*
X466415Y123272D01*
X467495Y124352D01*
X467507Y124368D01*
X467523Y124380D01*
X467579Y124468D01*
X467639Y124551D01*
X467645Y124570D01*
X467656Y124587D01*
X467681Y124688D01*
X467711Y124787D01*
X467711Y124807D01*
X467716Y124826D01*
X467708Y124929D01*
X467705Y125032D01*
X467698Y125051D01*
X467697Y125071D01*
X467656Y125166D01*
X467621Y125263D01*
X467608Y125279D01*
X467600Y125297D01*
X467495Y125428D01*
X467297Y125626D01*
X467223Y125679D01*
X467154Y125739D01*
X467124Y125751D01*
X467098Y125770D01*
X467011Y125797D01*
X466926Y125831D01*
X466885Y125835D01*
X466863Y125842D01*
X466830Y125841D01*
X466759Y125849D01*
X440032Y125849D01*
X440012Y125846D01*
X439993Y125848D01*
X439891Y125826D01*
X439789Y125810D01*
X439772Y125800D01*
X439752Y125796D01*
X439663Y125743D01*
X439572Y125694D01*
X439558Y125680D01*
X439541Y125670D01*
X439474Y125591D01*
X439402Y125516D01*
X439394Y125498D01*
X439381Y125483D01*
X439342Y125387D01*
X439299Y125293D01*
X439297Y125273D01*
X439289Y125255D01*
X439271Y125088D01*
X439271Y116506D01*
X439274Y116486D01*
X439272Y116467D01*
X439294Y116365D01*
X439310Y116263D01*
X439320Y116246D01*
X439324Y116226D01*
X439377Y116137D01*
X439426Y116046D01*
X439440Y116032D01*
X439450Y116015D01*
X439529Y115948D01*
X439604Y115876D01*
X439622Y115868D01*
X439637Y115855D01*
X439733Y115816D01*
X439827Y115773D01*
X439847Y115771D01*
X439865Y115763D01*
X440032Y115745D01*
X440862Y115745D01*
X441755Y114852D01*
X441755Y103588D01*
X440862Y102695D01*
X428598Y102695D01*
X427705Y103588D01*
X427705Y114852D01*
X428598Y115745D01*
X429428Y115745D01*
X429448Y115748D01*
X429467Y115746D01*
X429569Y115768D01*
X429671Y115784D01*
X429688Y115794D01*
X429708Y115798D01*
X429797Y115851D01*
X429888Y115900D01*
X429902Y115914D01*
X429919Y115924D01*
X429986Y116003D01*
X430058Y116078D01*
X430066Y116096D01*
X430079Y116111D01*
X430118Y116207D01*
X430161Y116301D01*
X430163Y116321D01*
X430171Y116339D01*
X430189Y116506D01*
X430189Y125088D01*
X430186Y125108D01*
X430188Y125127D01*
X430166Y125229D01*
X430150Y125331D01*
X430140Y125348D01*
X430136Y125368D01*
X430083Y125457D01*
X430034Y125548D01*
X430020Y125562D01*
X430010Y125579D01*
X429931Y125646D01*
X429856Y125718D01*
X429838Y125726D01*
X429823Y125739D01*
X429727Y125778D01*
X429633Y125821D01*
X429613Y125823D01*
X429595Y125831D01*
X429428Y125849D01*
X421306Y125849D01*
X421286Y125846D01*
X421267Y125848D01*
X421165Y125826D01*
X421063Y125810D01*
X421046Y125800D01*
X421026Y125796D01*
X420937Y125743D01*
X420846Y125694D01*
X420832Y125680D01*
X420815Y125670D01*
X420748Y125591D01*
X420676Y125516D01*
X420668Y125498D01*
X420655Y125483D01*
X420616Y125387D01*
X420573Y125293D01*
X420571Y125273D01*
X420563Y125255D01*
X420545Y125088D01*
X420545Y116668D01*
X419652Y115775D01*
X408388Y115775D01*
X407495Y116668D01*
X407495Y125088D01*
X407492Y125108D01*
X407494Y125127D01*
X407472Y125229D01*
X407456Y125331D01*
X407446Y125348D01*
X407442Y125368D01*
X407389Y125457D01*
X407340Y125548D01*
X407326Y125562D01*
X407316Y125579D01*
X407237Y125646D01*
X407162Y125718D01*
X407144Y125726D01*
X407129Y125739D01*
X407033Y125778D01*
X406939Y125821D01*
X406919Y125823D01*
X406901Y125831D01*
X406734Y125849D01*
X403860Y125849D01*
X403840Y125846D01*
X403821Y125848D01*
X403719Y125826D01*
X403617Y125810D01*
X403600Y125800D01*
X403580Y125796D01*
X403491Y125743D01*
X403400Y125694D01*
X403386Y125680D01*
X403369Y125670D01*
X403302Y125591D01*
X403231Y125516D01*
X403222Y125498D01*
X403209Y125483D01*
X403170Y125387D01*
X403127Y125293D01*
X403125Y125273D01*
X403117Y125255D01*
X403099Y125088D01*
X403099Y101091D01*
X373695Y101091D01*
X370108Y104678D01*
X370034Y104731D01*
X369965Y104791D01*
X369935Y104803D01*
X369909Y104822D01*
X369822Y104849D01*
X369737Y104883D01*
X369696Y104887D01*
X369673Y104894D01*
X369641Y104893D01*
X369570Y104901D01*
X330200Y104901D01*
X330180Y104898D01*
X330161Y104900D01*
X330059Y104878D01*
X329957Y104862D01*
X329940Y104852D01*
X329920Y104848D01*
X329831Y104795D01*
X329740Y104746D01*
X329726Y104732D01*
X329709Y104722D01*
X329642Y104643D01*
X329571Y104568D01*
X329562Y104550D01*
X329549Y104535D01*
X329510Y104439D01*
X329467Y104345D01*
X329465Y104325D01*
X329457Y104307D01*
X329439Y104140D01*
X329439Y71120D01*
X329442Y71100D01*
X329440Y71081D01*
X329462Y70979D01*
X329479Y70877D01*
X329488Y70860D01*
X329492Y70840D01*
X329545Y70751D01*
X329594Y70660D01*
X329608Y70646D01*
X329618Y70629D01*
X329697Y70562D01*
X329772Y70491D01*
X329790Y70482D01*
X329805Y70469D01*
X329820Y70463D01*
X329820Y58800D01*
X287020Y58800D01*
X286970Y58789D01*
X286919Y58787D01*
X286887Y58769D01*
X286851Y58761D01*
X286812Y58728D01*
X286767Y58704D01*
X286746Y58674D01*
X286718Y58651D01*
X286697Y58604D01*
X286667Y58562D01*
X286659Y58520D01*
X286647Y58492D01*
X286648Y58462D01*
X286640Y58420D01*
X286640Y3131D01*
X286651Y3081D01*
X286653Y3030D01*
X286671Y2998D01*
X286679Y2962D01*
X286712Y2923D01*
X286736Y2878D01*
X286766Y2857D01*
X286789Y2829D01*
X286836Y2808D01*
X286878Y2778D01*
X286920Y2770D01*
X286948Y2758D01*
X286978Y2759D01*
X287020Y2751D01*
X665480Y2751D01*
X665500Y2754D01*
G37*
G36*
X105430Y262132D02*
X105430Y262132D01*
X105449Y262130D01*
X105551Y262152D01*
X105653Y262169D01*
X105670Y262178D01*
X105690Y262182D01*
X105779Y262235D01*
X105870Y262284D01*
X105884Y262298D01*
X105901Y262308D01*
X105968Y262387D01*
X106040Y262462D01*
X106048Y262480D01*
X106061Y262495D01*
X106100Y262591D01*
X106143Y262685D01*
X106145Y262705D01*
X106153Y262723D01*
X106171Y262890D01*
X106171Y289180D01*
X713740Y289180D01*
X713814Y289197D01*
X713889Y289210D01*
X713899Y289217D01*
X713909Y289219D01*
X713938Y289243D01*
X714009Y289291D01*
X715279Y290561D01*
X715319Y290626D01*
X715363Y290688D01*
X715365Y290700D01*
X715370Y290708D01*
X715374Y290745D01*
X715390Y290830D01*
X715390Y367030D01*
X715379Y367080D01*
X715377Y367131D01*
X715359Y367163D01*
X715351Y367199D01*
X715318Y367238D01*
X715294Y367283D01*
X715264Y367304D01*
X715241Y367332D01*
X715194Y367353D01*
X715152Y367383D01*
X715110Y367391D01*
X715082Y367403D01*
X715052Y367402D01*
X715010Y367410D01*
X622300Y367410D01*
X622250Y367399D01*
X622199Y367397D01*
X622167Y367379D01*
X622131Y367371D01*
X622092Y367338D01*
X622047Y367314D01*
X622026Y367284D01*
X621998Y367261D01*
X621977Y367214D01*
X621947Y367172D01*
X621939Y367130D01*
X621927Y367102D01*
X621928Y367072D01*
X621920Y367030D01*
X621920Y351790D01*
X621937Y351716D01*
X621950Y351641D01*
X621957Y351631D01*
X621959Y351621D01*
X621983Y351592D01*
X622031Y351521D01*
X637160Y336393D01*
X637160Y297560D01*
X583088Y297560D01*
X573150Y307498D01*
X573150Y367030D01*
X573139Y367080D01*
X573137Y367131D01*
X573119Y367163D01*
X573111Y367199D01*
X573078Y367238D01*
X573054Y367283D01*
X573024Y367304D01*
X573001Y367332D01*
X572954Y367353D01*
X572912Y367383D01*
X572870Y367391D01*
X572842Y367403D01*
X572812Y367402D01*
X572770Y367410D01*
X480060Y367410D01*
X480010Y367399D01*
X479959Y367397D01*
X479927Y367379D01*
X479891Y367371D01*
X479852Y367338D01*
X479807Y367314D01*
X479786Y367284D01*
X479758Y367261D01*
X479737Y367214D01*
X479707Y367172D01*
X479699Y367130D01*
X479687Y367102D01*
X479688Y367072D01*
X479680Y367030D01*
X479680Y353060D01*
X479691Y353010D01*
X479693Y352961D01*
X479705Y352939D01*
X479710Y352911D01*
X479717Y352901D01*
X479719Y352891D01*
X479743Y352862D01*
X479763Y352833D01*
X479776Y352809D01*
X479782Y352805D01*
X479791Y352791D01*
X493650Y338933D01*
X493650Y297560D01*
X442118Y297560D01*
X433450Y306228D01*
X433450Y365760D01*
X433439Y365810D01*
X433437Y365861D01*
X433419Y365893D01*
X433411Y365929D01*
X433378Y365968D01*
X433354Y366013D01*
X433324Y366034D01*
X433301Y366062D01*
X433254Y366083D01*
X433212Y366113D01*
X433170Y366121D01*
X433142Y366133D01*
X433112Y366132D01*
X433070Y366140D01*
X339090Y366140D01*
X339040Y366129D01*
X338989Y366127D01*
X338957Y366109D01*
X338921Y366101D01*
X338882Y366068D01*
X338837Y366044D01*
X338816Y366014D01*
X338788Y365991D01*
X338767Y365944D01*
X338737Y365902D01*
X338729Y365860D01*
X338717Y365832D01*
X338718Y365802D01*
X338710Y365760D01*
X338710Y351790D01*
X338727Y351716D01*
X338740Y351641D01*
X338747Y351631D01*
X338749Y351621D01*
X338773Y351592D01*
X338821Y351521D01*
X353950Y336393D01*
X353950Y297560D01*
X299878Y297560D01*
X292480Y304958D01*
X292480Y364490D01*
X292469Y364540D01*
X292467Y364591D01*
X292449Y364623D01*
X292441Y364659D01*
X292408Y364698D01*
X292384Y364743D01*
X292354Y364764D01*
X292331Y364792D01*
X292284Y364813D01*
X292242Y364843D01*
X292200Y364851D01*
X292172Y364863D01*
X292142Y364862D01*
X292100Y364870D01*
X200660Y364870D01*
X200610Y364859D01*
X200559Y364857D01*
X200527Y364839D01*
X200491Y364831D01*
X200452Y364798D01*
X200407Y364774D01*
X200386Y364744D01*
X200358Y364721D01*
X200337Y364674D01*
X200307Y364632D01*
X200299Y364590D01*
X200287Y364562D01*
X200287Y364543D01*
X200287Y364542D01*
X200287Y364528D01*
X200280Y364490D01*
X200280Y350520D01*
X200297Y350446D01*
X200310Y350371D01*
X200317Y350361D01*
X200319Y350351D01*
X200343Y350322D01*
X200391Y350251D01*
X214250Y336393D01*
X214250Y297560D01*
X162718Y297560D01*
X154050Y306228D01*
X154050Y364490D01*
X154039Y364540D01*
X154037Y364591D01*
X154019Y364623D01*
X154011Y364659D01*
X153978Y364698D01*
X153954Y364743D01*
X153924Y364764D01*
X153901Y364792D01*
X153854Y364813D01*
X153812Y364843D01*
X153770Y364851D01*
X153742Y364863D01*
X153712Y364862D01*
X153670Y364870D01*
X60960Y364870D01*
X60910Y364859D01*
X60859Y364857D01*
X60827Y364839D01*
X60791Y364831D01*
X60752Y364798D01*
X60707Y364774D01*
X60686Y364744D01*
X60658Y364721D01*
X60637Y364674D01*
X60607Y364632D01*
X60599Y364590D01*
X60587Y364562D01*
X60587Y364543D01*
X60587Y364542D01*
X60587Y364528D01*
X60580Y364490D01*
X60580Y349250D01*
X60592Y349199D01*
X60593Y349159D01*
X60603Y349140D01*
X60610Y349101D01*
X60617Y349091D01*
X60619Y349081D01*
X60643Y349052D01*
X60691Y348981D01*
X72010Y337663D01*
X72010Y290830D01*
X72027Y290756D01*
X72040Y290681D01*
X72047Y290671D01*
X72049Y290661D01*
X72073Y290632D01*
X72121Y290561D01*
X73391Y289291D01*
X73456Y289251D01*
X73518Y289207D01*
X73530Y289205D01*
X73538Y289200D01*
X73575Y289196D01*
X73660Y289180D01*
X74234Y289180D01*
X76709Y286705D01*
X76709Y262890D01*
X76712Y262870D01*
X76710Y262851D01*
X76732Y262749D01*
X76749Y262647D01*
X76758Y262630D01*
X76762Y262610D01*
X76815Y262521D01*
X76864Y262430D01*
X76878Y262416D01*
X76888Y262399D01*
X76967Y262332D01*
X77042Y262261D01*
X77060Y262252D01*
X77075Y262239D01*
X77171Y262200D01*
X77265Y262157D01*
X77285Y262155D01*
X77303Y262147D01*
X77470Y262129D01*
X105410Y262129D01*
X105430Y262132D01*
G37*
G36*
X189248Y361294D02*
X189248Y361294D01*
X189314Y361291D01*
X189359Y361306D01*
X189406Y361311D01*
X189465Y361340D01*
X189528Y361360D01*
X189572Y361393D01*
X189607Y361410D01*
X189634Y361439D01*
X189678Y361472D01*
X198286Y370079D01*
X319874Y370079D01*
X327212Y362742D01*
X327266Y362704D01*
X327313Y362659D01*
X327357Y362640D01*
X327396Y362613D01*
X327459Y362597D01*
X327520Y362571D01*
X327567Y362569D01*
X327613Y362558D01*
X327678Y362564D01*
X327744Y362561D01*
X327789Y362576D01*
X327836Y362581D01*
X327895Y362610D01*
X327958Y362630D01*
X328002Y362663D01*
X328037Y362680D01*
X328064Y362709D01*
X328108Y362742D01*
X335446Y370079D01*
X462114Y370079D01*
X468182Y364012D01*
X468236Y363974D01*
X468283Y363929D01*
X468327Y363910D01*
X468366Y363883D01*
X468429Y363867D01*
X468490Y363841D01*
X468537Y363839D01*
X468583Y363828D01*
X468648Y363834D01*
X468714Y363831D01*
X468759Y363846D01*
X468806Y363851D01*
X468865Y363880D01*
X468928Y363900D01*
X468972Y363933D01*
X469007Y363950D01*
X469034Y363979D01*
X469078Y364012D01*
X475146Y370079D01*
X505497Y370079D01*
X505587Y370094D01*
X505678Y370101D01*
X505708Y370113D01*
X505740Y370119D01*
X505821Y370161D01*
X505904Y370197D01*
X505937Y370223D01*
X505957Y370234D01*
X505958Y370235D01*
X522755Y370235D01*
X522808Y370189D01*
X522838Y370177D01*
X522864Y370158D01*
X522951Y370131D01*
X523036Y370097D01*
X523077Y370093D01*
X523099Y370086D01*
X523132Y370087D01*
X523203Y370079D01*
X604354Y370079D01*
X610422Y364012D01*
X610476Y363974D01*
X610523Y363929D01*
X610567Y363910D01*
X610606Y363883D01*
X610669Y363867D01*
X610730Y363841D01*
X610777Y363839D01*
X610823Y363828D01*
X610888Y363834D01*
X610954Y363831D01*
X610999Y363846D01*
X611046Y363851D01*
X611105Y363880D01*
X611168Y363900D01*
X611212Y363933D01*
X611247Y363950D01*
X611274Y363979D01*
X611318Y364012D01*
X617386Y370079D01*
X646467Y370079D01*
X646557Y370094D01*
X646648Y370101D01*
X646678Y370113D01*
X646710Y370119D01*
X646791Y370161D01*
X646874Y370197D01*
X646907Y370223D01*
X646927Y370234D01*
X646928Y370235D01*
X663725Y370235D01*
X663778Y370189D01*
X663808Y370177D01*
X663834Y370158D01*
X663921Y370131D01*
X664006Y370097D01*
X664047Y370093D01*
X664069Y370086D01*
X664102Y370087D01*
X664173Y370079D01*
X713740Y370079D01*
X713760Y370082D01*
X713779Y370080D01*
X713881Y370102D01*
X713983Y370119D01*
X714000Y370128D01*
X714020Y370132D01*
X714109Y370185D01*
X714200Y370234D01*
X714214Y370248D01*
X714231Y370258D01*
X714298Y370337D01*
X714370Y370412D01*
X714378Y370430D01*
X714391Y370445D01*
X714430Y370541D01*
X714473Y370635D01*
X714475Y370655D01*
X714483Y370673D01*
X714501Y370840D01*
X714501Y407670D01*
X714498Y407690D01*
X714500Y407709D01*
X714478Y407811D01*
X714462Y407913D01*
X714452Y407930D01*
X714448Y407950D01*
X714395Y408039D01*
X714346Y408130D01*
X714332Y408144D01*
X714322Y408161D01*
X714243Y408228D01*
X714168Y408300D01*
X714150Y408308D01*
X714135Y408321D01*
X714039Y408360D01*
X713945Y408403D01*
X713925Y408405D01*
X713907Y408413D01*
X713740Y408431D01*
X688340Y408431D01*
X688320Y408428D01*
X688301Y408430D01*
X688199Y408408D01*
X688097Y408392D01*
X688080Y408382D01*
X688060Y408378D01*
X687971Y408325D01*
X687880Y408276D01*
X687866Y408262D01*
X687849Y408252D01*
X687782Y408173D01*
X687711Y408098D01*
X687702Y408080D01*
X687689Y408065D01*
X687650Y407969D01*
X687607Y407875D01*
X687605Y407855D01*
X687597Y407837D01*
X687579Y407670D01*
X687579Y383031D01*
X621196Y383031D01*
X611318Y392908D01*
X611265Y392946D01*
X611217Y392991D01*
X611173Y393010D01*
X611134Y393037D01*
X611071Y393053D01*
X611010Y393079D01*
X610963Y393081D01*
X610917Y393093D01*
X610852Y393086D01*
X610786Y393089D01*
X610741Y393074D01*
X610694Y393069D01*
X610635Y393040D01*
X610572Y393020D01*
X610528Y392987D01*
X610493Y392970D01*
X610466Y392941D01*
X610422Y392908D01*
X600544Y383031D01*
X574801Y383031D01*
X574801Y407670D01*
X574798Y407690D01*
X574800Y407709D01*
X574778Y407811D01*
X574762Y407913D01*
X574752Y407930D01*
X574748Y407950D01*
X574695Y408039D01*
X574646Y408130D01*
X574632Y408144D01*
X574622Y408161D01*
X574543Y408228D01*
X574468Y408300D01*
X574450Y408308D01*
X574435Y408321D01*
X574339Y408360D01*
X574245Y408403D01*
X574225Y408405D01*
X574207Y408413D01*
X574040Y408431D01*
X546100Y408431D01*
X546080Y408428D01*
X546061Y408430D01*
X545959Y408408D01*
X545857Y408392D01*
X545840Y408382D01*
X545820Y408378D01*
X545731Y408325D01*
X545640Y408276D01*
X545626Y408262D01*
X545609Y408252D01*
X545542Y408173D01*
X545471Y408098D01*
X545462Y408080D01*
X545449Y408065D01*
X545410Y407969D01*
X545367Y407875D01*
X545365Y407855D01*
X545357Y407837D01*
X545339Y407670D01*
X545339Y383031D01*
X478956Y383031D01*
X469078Y392908D01*
X469025Y392946D01*
X468977Y392991D01*
X468933Y393010D01*
X468894Y393037D01*
X468831Y393053D01*
X468770Y393079D01*
X468723Y393081D01*
X468677Y393093D01*
X468612Y393086D01*
X468546Y393089D01*
X468501Y393074D01*
X468454Y393069D01*
X468395Y393040D01*
X468332Y393020D01*
X468288Y392987D01*
X468253Y392970D01*
X468226Y392941D01*
X468182Y392908D01*
X458304Y383031D01*
X433831Y383031D01*
X433831Y406400D01*
X433828Y406420D01*
X433830Y406439D01*
X433808Y406541D01*
X433792Y406643D01*
X433782Y406660D01*
X433778Y406680D01*
X433725Y406769D01*
X433676Y406860D01*
X433662Y406874D01*
X433652Y406891D01*
X433573Y406958D01*
X433498Y407030D01*
X433480Y407038D01*
X433465Y407051D01*
X433369Y407090D01*
X433275Y407133D01*
X433255Y407135D01*
X433237Y407143D01*
X433070Y407161D01*
X405130Y407161D01*
X405110Y407158D01*
X405091Y407160D01*
X404989Y407138D01*
X404887Y407122D01*
X404870Y407112D01*
X404850Y407108D01*
X404761Y407055D01*
X404670Y407006D01*
X404656Y406992D01*
X404639Y406982D01*
X404572Y406903D01*
X404501Y406828D01*
X404492Y406810D01*
X404479Y406795D01*
X404440Y406699D01*
X404397Y406605D01*
X404395Y406585D01*
X404387Y406567D01*
X404369Y406400D01*
X404369Y383031D01*
X336716Y383031D01*
X328108Y391638D01*
X328055Y391676D01*
X328007Y391721D01*
X327963Y391740D01*
X327924Y391767D01*
X327861Y391783D01*
X327800Y391809D01*
X327753Y391811D01*
X327707Y391823D01*
X327642Y391816D01*
X327576Y391819D01*
X327531Y391804D01*
X327484Y391799D01*
X327425Y391770D01*
X327362Y391750D01*
X327318Y391717D01*
X327283Y391700D01*
X327256Y391671D01*
X327212Y391638D01*
X318604Y383031D01*
X292861Y383031D01*
X292861Y406400D01*
X292858Y406420D01*
X292860Y406439D01*
X292838Y406541D01*
X292822Y406643D01*
X292812Y406660D01*
X292808Y406680D01*
X292755Y406769D01*
X292706Y406860D01*
X292692Y406874D01*
X292682Y406891D01*
X292603Y406958D01*
X292528Y407030D01*
X292510Y407038D01*
X292495Y407051D01*
X292399Y407090D01*
X292305Y407133D01*
X292285Y407135D01*
X292267Y407143D01*
X292100Y407161D01*
X264160Y407161D01*
X264140Y407158D01*
X264121Y407160D01*
X264019Y407138D01*
X263917Y407122D01*
X263900Y407112D01*
X263880Y407108D01*
X263791Y407055D01*
X263700Y407006D01*
X263686Y406992D01*
X263669Y406982D01*
X263602Y406903D01*
X263531Y406828D01*
X263522Y406810D01*
X263509Y406795D01*
X263470Y406699D01*
X263427Y406605D01*
X263425Y406585D01*
X263417Y406567D01*
X263399Y406400D01*
X263399Y383031D01*
X197016Y383031D01*
X189678Y390368D01*
X189625Y390406D01*
X189577Y390451D01*
X189533Y390470D01*
X189494Y390497D01*
X189431Y390513D01*
X189370Y390539D01*
X189323Y390541D01*
X189277Y390553D01*
X189212Y390546D01*
X189146Y390549D01*
X189101Y390534D01*
X189054Y390529D01*
X188995Y390500D01*
X188932Y390480D01*
X188888Y390447D01*
X188853Y390430D01*
X188826Y390401D01*
X188782Y390368D01*
X181444Y383031D01*
X154431Y383031D01*
X154431Y406400D01*
X154428Y406420D01*
X154430Y406439D01*
X154408Y406541D01*
X154392Y406643D01*
X154382Y406660D01*
X154378Y406680D01*
X154325Y406769D01*
X154276Y406860D01*
X154262Y406874D01*
X154252Y406891D01*
X154173Y406958D01*
X154098Y407030D01*
X154080Y407038D01*
X154065Y407051D01*
X153969Y407090D01*
X153875Y407133D01*
X153855Y407135D01*
X153837Y407143D01*
X153670Y407161D01*
X125730Y407161D01*
X125710Y407158D01*
X125691Y407160D01*
X125589Y407138D01*
X125487Y407122D01*
X125470Y407112D01*
X125450Y407108D01*
X125361Y407055D01*
X125270Y407006D01*
X125256Y406992D01*
X125239Y406982D01*
X125172Y406903D01*
X125101Y406828D01*
X125092Y406810D01*
X125079Y406795D01*
X125040Y406699D01*
X124997Y406605D01*
X124995Y406585D01*
X124987Y406567D01*
X124969Y406400D01*
X124969Y383031D01*
X57316Y383031D01*
X49978Y390368D01*
X49925Y390406D01*
X49877Y390451D01*
X49833Y390470D01*
X49794Y390497D01*
X49731Y390513D01*
X49670Y390539D01*
X49623Y390541D01*
X49577Y390553D01*
X49512Y390546D01*
X49446Y390549D01*
X49401Y390534D01*
X49354Y390529D01*
X49295Y390500D01*
X49232Y390480D01*
X49188Y390447D01*
X49153Y390430D01*
X49126Y390401D01*
X49082Y390368D01*
X41744Y383031D01*
X39370Y383031D01*
X39350Y383028D01*
X39331Y383030D01*
X39229Y383008D01*
X39127Y382992D01*
X39110Y382982D01*
X39090Y382978D01*
X39001Y382925D01*
X38910Y382876D01*
X38896Y382862D01*
X38879Y382852D01*
X38812Y382773D01*
X38741Y382698D01*
X38732Y382680D01*
X38719Y382665D01*
X38680Y382569D01*
X38637Y382475D01*
X38635Y382455D01*
X38627Y382437D01*
X38609Y382270D01*
X38609Y370840D01*
X38612Y370820D01*
X38610Y370801D01*
X38632Y370699D01*
X38649Y370597D01*
X38658Y370580D01*
X38662Y370560D01*
X38715Y370471D01*
X38764Y370380D01*
X38778Y370366D01*
X38788Y370349D01*
X38867Y370282D01*
X38942Y370211D01*
X38960Y370202D01*
X38975Y370189D01*
X39071Y370150D01*
X39165Y370107D01*
X39185Y370105D01*
X39203Y370097D01*
X39370Y370079D01*
X40474Y370079D01*
X49082Y361472D01*
X49136Y361434D01*
X49183Y361389D01*
X49227Y361370D01*
X49266Y361343D01*
X49329Y361327D01*
X49390Y361301D01*
X49437Y361299D01*
X49483Y361288D01*
X49548Y361294D01*
X49614Y361291D01*
X49659Y361306D01*
X49706Y361311D01*
X49765Y361340D01*
X49828Y361360D01*
X49872Y361393D01*
X49907Y361410D01*
X49934Y361439D01*
X49978Y361472D01*
X58586Y370079D01*
X180174Y370079D01*
X188782Y361472D01*
X188836Y361434D01*
X188883Y361389D01*
X188927Y361370D01*
X188966Y361343D01*
X189029Y361327D01*
X189090Y361301D01*
X189137Y361299D01*
X189183Y361288D01*
X189248Y361294D01*
G37*
G36*
X156230Y116082D02*
X156230Y116082D01*
X156249Y116080D01*
X156351Y116102D01*
X156453Y116119D01*
X156470Y116128D01*
X156490Y116132D01*
X156579Y116185D01*
X156670Y116234D01*
X156684Y116248D01*
X156701Y116258D01*
X156768Y116337D01*
X156840Y116412D01*
X156848Y116430D01*
X156861Y116445D01*
X156900Y116541D01*
X156943Y116635D01*
X156945Y116655D01*
X156953Y116673D01*
X156971Y116840D01*
X156971Y213360D01*
X156968Y213380D01*
X156970Y213399D01*
X156948Y213501D01*
X156932Y213603D01*
X156922Y213620D01*
X156918Y213640D01*
X156865Y213729D01*
X156816Y213820D01*
X156802Y213834D01*
X156792Y213851D01*
X156713Y213918D01*
X156638Y213990D01*
X156620Y213998D01*
X156605Y214011D01*
X156509Y214050D01*
X156415Y214093D01*
X156395Y214095D01*
X156377Y214103D01*
X156210Y214121D01*
X45720Y214121D01*
X45700Y214118D01*
X45681Y214120D01*
X45579Y214098D01*
X45477Y214082D01*
X45460Y214072D01*
X45440Y214068D01*
X45351Y214015D01*
X45260Y213966D01*
X45246Y213952D01*
X45229Y213942D01*
X45162Y213863D01*
X45091Y213788D01*
X45082Y213770D01*
X45069Y213755D01*
X45030Y213659D01*
X44987Y213565D01*
X44985Y213545D01*
X44977Y213527D01*
X44959Y213360D01*
X44959Y116840D01*
X44962Y116820D01*
X44960Y116801D01*
X44982Y116699D01*
X44999Y116597D01*
X45008Y116580D01*
X45012Y116560D01*
X45065Y116471D01*
X45114Y116380D01*
X45128Y116366D01*
X45138Y116349D01*
X45217Y116282D01*
X45292Y116211D01*
X45310Y116202D01*
X45325Y116189D01*
X45421Y116150D01*
X45515Y116107D01*
X45535Y116105D01*
X45553Y116097D01*
X45720Y116079D01*
X156210Y116079D01*
X156230Y116082D01*
G37*
G36*
X156230Y84332D02*
X156230Y84332D01*
X156249Y84330D01*
X156351Y84352D01*
X156453Y84369D01*
X156470Y84378D01*
X156490Y84382D01*
X156579Y84435D01*
X156670Y84484D01*
X156684Y84498D01*
X156701Y84508D01*
X156768Y84587D01*
X156840Y84662D01*
X156848Y84680D01*
X156861Y84695D01*
X156900Y84791D01*
X156943Y84885D01*
X156945Y84905D01*
X156953Y84923D01*
X156971Y85090D01*
X156971Y106680D01*
X156968Y106700D01*
X156970Y106719D01*
X156948Y106821D01*
X156932Y106923D01*
X156922Y106940D01*
X156918Y106960D01*
X156865Y107049D01*
X156816Y107140D01*
X156802Y107154D01*
X156792Y107171D01*
X156713Y107238D01*
X156638Y107310D01*
X156620Y107318D01*
X156605Y107331D01*
X156509Y107370D01*
X156415Y107413D01*
X156395Y107415D01*
X156377Y107423D01*
X156210Y107441D01*
X40131Y107441D01*
X40131Y221489D01*
X105410Y221489D01*
X105430Y221492D01*
X105449Y221490D01*
X105551Y221512D01*
X105653Y221529D01*
X105670Y221538D01*
X105690Y221542D01*
X105779Y221595D01*
X105870Y221644D01*
X105884Y221658D01*
X105901Y221668D01*
X105968Y221747D01*
X106040Y221822D01*
X106048Y221840D01*
X106061Y221855D01*
X106100Y221951D01*
X106143Y222045D01*
X106145Y222065D01*
X106153Y222083D01*
X106171Y222250D01*
X106171Y248920D01*
X106168Y248940D01*
X106170Y248959D01*
X106148Y249061D01*
X106132Y249163D01*
X106122Y249180D01*
X106118Y249200D01*
X106065Y249289D01*
X106016Y249380D01*
X106002Y249394D01*
X105992Y249411D01*
X105913Y249478D01*
X105838Y249550D01*
X105820Y249558D01*
X105805Y249571D01*
X105709Y249610D01*
X105615Y249653D01*
X105595Y249655D01*
X105577Y249663D01*
X105410Y249681D01*
X7620Y249681D01*
X7600Y249678D01*
X7581Y249680D01*
X7479Y249658D01*
X7377Y249642D01*
X7360Y249632D01*
X7340Y249628D01*
X7251Y249575D01*
X7160Y249526D01*
X7146Y249512D01*
X7129Y249502D01*
X7062Y249423D01*
X6991Y249348D01*
X6982Y249330D01*
X6969Y249315D01*
X6930Y249219D01*
X6887Y249125D01*
X6885Y249105D01*
X6877Y249087D01*
X6859Y248920D01*
X6859Y85090D01*
X6862Y85070D01*
X6860Y85051D01*
X6882Y84949D01*
X6899Y84847D01*
X6908Y84830D01*
X6912Y84810D01*
X6965Y84721D01*
X7014Y84630D01*
X7028Y84616D01*
X7038Y84599D01*
X7117Y84532D01*
X7192Y84461D01*
X7210Y84452D01*
X7225Y84439D01*
X7321Y84400D01*
X7415Y84357D01*
X7435Y84355D01*
X7453Y84347D01*
X7620Y84329D01*
X156210Y84329D01*
X156230Y84332D01*
G37*
G36*
X64844Y453027D02*
X64844Y453027D01*
X64919Y453040D01*
X64929Y453047D01*
X64939Y453049D01*
X64968Y453073D01*
X65039Y453121D01*
X165258Y553340D01*
X232410Y553340D01*
X232460Y553351D01*
X232511Y553353D01*
X232543Y553371D01*
X232579Y553379D01*
X232618Y553412D01*
X232663Y553436D01*
X232684Y553466D01*
X232712Y553489D01*
X232733Y553536D01*
X232763Y553578D01*
X232771Y553620D01*
X232783Y553648D01*
X232782Y553678D01*
X232790Y553720D01*
X232790Y579120D01*
X232779Y579170D01*
X232777Y579221D01*
X232759Y579253D01*
X232751Y579289D01*
X232718Y579328D01*
X232694Y579373D01*
X232664Y579394D01*
X232641Y579422D01*
X232594Y579443D01*
X232552Y579473D01*
X232510Y579481D01*
X232482Y579493D01*
X232452Y579492D01*
X232410Y579500D01*
X125730Y579500D01*
X125656Y579483D01*
X125581Y579470D01*
X125571Y579463D01*
X125561Y579461D01*
X125532Y579437D01*
X125461Y579389D01*
X31481Y485409D01*
X31441Y485344D01*
X31397Y485282D01*
X31395Y485270D01*
X31390Y485262D01*
X31386Y485225D01*
X31370Y485140D01*
X31370Y453390D01*
X31381Y453340D01*
X31383Y453289D01*
X31401Y453257D01*
X31409Y453221D01*
X31442Y453182D01*
X31466Y453137D01*
X31496Y453116D01*
X31519Y453088D01*
X31566Y453067D01*
X31608Y453037D01*
X31650Y453029D01*
X31678Y453017D01*
X31708Y453018D01*
X31750Y453010D01*
X64770Y453010D01*
X64844Y453027D01*
G37*
G36*
X323870Y70362D02*
X323870Y70362D01*
X323889Y70360D01*
X323991Y70382D01*
X324093Y70399D01*
X324110Y70408D01*
X324130Y70412D01*
X324219Y70465D01*
X324310Y70514D01*
X324324Y70528D01*
X324341Y70538D01*
X324408Y70617D01*
X324480Y70692D01*
X324488Y70710D01*
X324501Y70725D01*
X324540Y70821D01*
X324583Y70915D01*
X324585Y70935D01*
X324593Y70953D01*
X324611Y71120D01*
X324611Y112269D01*
X386080Y112269D01*
X386100Y112272D01*
X386119Y112270D01*
X386221Y112292D01*
X386323Y112309D01*
X386340Y112318D01*
X386360Y112322D01*
X386449Y112375D01*
X386540Y112424D01*
X386554Y112438D01*
X386571Y112448D01*
X386638Y112527D01*
X386710Y112602D01*
X386718Y112620D01*
X386731Y112635D01*
X386770Y112731D01*
X386813Y112825D01*
X386815Y112845D01*
X386823Y112863D01*
X386841Y113030D01*
X386841Y133350D01*
X386827Y133440D01*
X386819Y133531D01*
X386807Y133561D01*
X386802Y133593D01*
X386759Y133673D01*
X386723Y133757D01*
X386697Y133789D01*
X386686Y133810D01*
X386663Y133832D01*
X386618Y133888D01*
X365251Y155255D01*
X365251Y181610D01*
X365248Y181630D01*
X365250Y181649D01*
X365228Y181751D01*
X365212Y181853D01*
X365202Y181870D01*
X365198Y181890D01*
X365145Y181979D01*
X365096Y182070D01*
X365082Y182084D01*
X365072Y182101D01*
X364993Y182168D01*
X364918Y182240D01*
X364900Y182248D01*
X364885Y182261D01*
X364789Y182300D01*
X364695Y182343D01*
X364675Y182345D01*
X364657Y182353D01*
X364490Y182371D01*
X285750Y182371D01*
X285730Y182368D01*
X285711Y182370D01*
X285609Y182348D01*
X285507Y182332D01*
X285490Y182322D01*
X285470Y182318D01*
X285381Y182265D01*
X285290Y182216D01*
X285276Y182202D01*
X285259Y182192D01*
X285192Y182113D01*
X285121Y182038D01*
X285112Y182020D01*
X285099Y182005D01*
X285060Y181909D01*
X285017Y181815D01*
X285015Y181795D01*
X285007Y181777D01*
X284989Y181610D01*
X284989Y71120D01*
X284992Y71100D01*
X284990Y71081D01*
X285012Y70979D01*
X285029Y70877D01*
X285038Y70860D01*
X285042Y70840D01*
X285095Y70751D01*
X285144Y70660D01*
X285158Y70646D01*
X285168Y70629D01*
X285247Y70562D01*
X285322Y70491D01*
X285340Y70482D01*
X285355Y70469D01*
X285451Y70430D01*
X285545Y70387D01*
X285565Y70385D01*
X285583Y70377D01*
X285750Y70359D01*
X323850Y70359D01*
X323870Y70362D01*
G37*
G36*
X240050Y70362D02*
X240050Y70362D01*
X240069Y70360D01*
X240171Y70382D01*
X240273Y70399D01*
X240290Y70408D01*
X240310Y70412D01*
X240399Y70465D01*
X240490Y70514D01*
X240504Y70528D01*
X240521Y70538D01*
X240588Y70617D01*
X240660Y70692D01*
X240668Y70710D01*
X240681Y70725D01*
X240720Y70821D01*
X240763Y70915D01*
X240765Y70935D01*
X240773Y70953D01*
X240791Y71120D01*
X240791Y213360D01*
X240788Y213380D01*
X240790Y213399D01*
X240768Y213501D01*
X240752Y213603D01*
X240742Y213620D01*
X240738Y213640D01*
X240685Y213729D01*
X240636Y213820D01*
X240622Y213834D01*
X240612Y213851D01*
X240533Y213918D01*
X240458Y213990D01*
X240440Y213998D01*
X240425Y214011D01*
X240329Y214050D01*
X240235Y214093D01*
X240215Y214095D01*
X240197Y214103D01*
X240030Y214121D01*
X175260Y214121D01*
X175240Y214118D01*
X175221Y214120D01*
X175119Y214098D01*
X175017Y214082D01*
X175000Y214072D01*
X174980Y214068D01*
X174891Y214015D01*
X174800Y213966D01*
X174786Y213952D01*
X174769Y213942D01*
X174702Y213863D01*
X174631Y213788D01*
X174622Y213770D01*
X174609Y213755D01*
X174570Y213659D01*
X174527Y213565D01*
X174525Y213545D01*
X174517Y213527D01*
X174499Y213360D01*
X174499Y189230D01*
X174502Y189210D01*
X174500Y189191D01*
X174522Y189089D01*
X174539Y188987D01*
X174548Y188970D01*
X174552Y188950D01*
X174605Y188861D01*
X174654Y188770D01*
X174668Y188756D01*
X174678Y188739D01*
X174757Y188672D01*
X174832Y188601D01*
X174850Y188592D01*
X174865Y188579D01*
X174961Y188540D01*
X175055Y188497D01*
X175075Y188495D01*
X175093Y188487D01*
X175260Y188469D01*
X203709Y188469D01*
X203709Y125221D01*
X172720Y125221D01*
X172700Y125218D01*
X172681Y125220D01*
X172579Y125198D01*
X172477Y125182D01*
X172460Y125172D01*
X172440Y125168D01*
X172351Y125115D01*
X172260Y125066D01*
X172246Y125052D01*
X172229Y125042D01*
X172162Y124963D01*
X172091Y124888D01*
X172082Y124870D01*
X172069Y124855D01*
X172030Y124759D01*
X171987Y124665D01*
X171985Y124645D01*
X171977Y124627D01*
X171959Y124460D01*
X171959Y71120D01*
X171962Y71100D01*
X171960Y71081D01*
X171982Y70979D01*
X171999Y70877D01*
X172008Y70860D01*
X172012Y70840D01*
X172065Y70751D01*
X172114Y70660D01*
X172128Y70646D01*
X172138Y70629D01*
X172217Y70562D01*
X172292Y70491D01*
X172310Y70482D01*
X172325Y70469D01*
X172421Y70430D01*
X172515Y70387D01*
X172535Y70385D01*
X172553Y70377D01*
X172720Y70359D01*
X240030Y70359D01*
X240050Y70362D01*
G37*
G36*
X624890Y454291D02*
X624890Y454291D01*
X624941Y454293D01*
X624973Y454311D01*
X625009Y454319D01*
X625048Y454352D01*
X625093Y454376D01*
X625114Y454406D01*
X625142Y454429D01*
X625163Y454476D01*
X625193Y454518D01*
X625201Y454560D01*
X625213Y454588D01*
X625212Y454618D01*
X625220Y454660D01*
X625220Y502920D01*
X625203Y502994D01*
X625190Y503069D01*
X625183Y503079D01*
X625181Y503089D01*
X625157Y503118D01*
X625109Y503189D01*
X575579Y552719D01*
X575514Y552759D01*
X575452Y552803D01*
X575440Y552805D01*
X575432Y552810D01*
X575395Y552814D01*
X575310Y552830D01*
X485298Y552830D01*
X475360Y562768D01*
X475360Y579120D01*
X475349Y579170D01*
X475347Y579221D01*
X475329Y579253D01*
X475321Y579289D01*
X475288Y579328D01*
X475264Y579373D01*
X475234Y579394D01*
X475211Y579422D01*
X475164Y579443D01*
X475122Y579473D01*
X475080Y579481D01*
X475052Y579493D01*
X475022Y579492D01*
X474980Y579500D01*
X452120Y579500D01*
X452070Y579489D01*
X452019Y579487D01*
X451987Y579469D01*
X451951Y579461D01*
X451912Y579428D01*
X451867Y579404D01*
X451846Y579374D01*
X451818Y579351D01*
X451797Y579304D01*
X451767Y579262D01*
X451759Y579220D01*
X451747Y579192D01*
X451748Y579162D01*
X451740Y579120D01*
X451740Y534670D01*
X451751Y534620D01*
X451753Y534569D01*
X451771Y534537D01*
X451779Y534501D01*
X451812Y534462D01*
X451836Y534417D01*
X451866Y534396D01*
X451889Y534368D01*
X451936Y534347D01*
X451978Y534317D01*
X452020Y534309D01*
X452048Y534297D01*
X452078Y534298D01*
X452120Y534290D01*
X545943Y534290D01*
X586360Y493873D01*
X586360Y454660D01*
X586371Y454610D01*
X586373Y454559D01*
X586391Y454527D01*
X586399Y454491D01*
X586432Y454452D01*
X586456Y454407D01*
X586486Y454386D01*
X586509Y454358D01*
X586556Y454337D01*
X586598Y454307D01*
X586640Y454299D01*
X586668Y454287D01*
X586698Y454288D01*
X586740Y454280D01*
X624840Y454280D01*
X624890Y454291D01*
G37*
G36*
X209624Y454297D02*
X209624Y454297D01*
X209699Y454310D01*
X209709Y454317D01*
X209719Y454319D01*
X209748Y454343D01*
X209819Y454391D01*
X292369Y536941D01*
X292409Y537006D01*
X292453Y537068D01*
X292455Y537080D01*
X292460Y537088D01*
X292464Y537125D01*
X292480Y537210D01*
X292480Y579120D01*
X292469Y579170D01*
X292467Y579221D01*
X292449Y579253D01*
X292441Y579289D01*
X292408Y579328D01*
X292384Y579373D01*
X292354Y579394D01*
X292331Y579422D01*
X292284Y579443D01*
X292242Y579473D01*
X292200Y579481D01*
X292172Y579493D01*
X292142Y579492D01*
X292100Y579500D01*
X270510Y579500D01*
X270460Y579489D01*
X270409Y579487D01*
X270377Y579469D01*
X270341Y579461D01*
X270302Y579428D01*
X270257Y579404D01*
X270236Y579374D01*
X270208Y579351D01*
X270187Y579304D01*
X270157Y579262D01*
X270149Y579220D01*
X270137Y579192D01*
X270138Y579162D01*
X270130Y579120D01*
X270130Y542670D01*
X228600Y542670D01*
X228526Y542653D01*
X228451Y542640D01*
X228441Y542633D01*
X228431Y542631D01*
X228402Y542607D01*
X228331Y542559D01*
X171181Y485409D01*
X171141Y485344D01*
X171097Y485282D01*
X171095Y485270D01*
X171090Y485262D01*
X171086Y485225D01*
X171070Y485140D01*
X171070Y454660D01*
X171081Y454610D01*
X171083Y454559D01*
X171101Y454527D01*
X171109Y454491D01*
X171142Y454452D01*
X171166Y454407D01*
X171196Y454386D01*
X171219Y454358D01*
X171266Y454337D01*
X171308Y454307D01*
X171350Y454299D01*
X171378Y454287D01*
X171408Y454288D01*
X171450Y454280D01*
X209550Y454280D01*
X209624Y454297D01*
G37*
G36*
X486460Y454291D02*
X486460Y454291D01*
X486511Y454293D01*
X486543Y454311D01*
X486579Y454319D01*
X486618Y454352D01*
X486663Y454376D01*
X486684Y454406D01*
X486712Y454429D01*
X486733Y454476D01*
X486763Y454518D01*
X486771Y454560D01*
X486783Y454588D01*
X486782Y454618D01*
X486790Y454660D01*
X486790Y488950D01*
X486773Y489024D01*
X486760Y489099D01*
X486753Y489109D01*
X486751Y489119D01*
X486727Y489148D01*
X486679Y489219D01*
X415670Y560228D01*
X415670Y579120D01*
X415659Y579170D01*
X415657Y579221D01*
X415639Y579253D01*
X415631Y579289D01*
X415598Y579328D01*
X415574Y579373D01*
X415544Y579394D01*
X415521Y579422D01*
X415474Y579443D01*
X415432Y579473D01*
X415390Y579481D01*
X415362Y579493D01*
X415332Y579492D01*
X415290Y579500D01*
X392430Y579500D01*
X392380Y579489D01*
X392329Y579487D01*
X392297Y579469D01*
X392261Y579461D01*
X392222Y579428D01*
X392177Y579404D01*
X392156Y579374D01*
X392128Y579351D01*
X392107Y579304D01*
X392077Y579262D01*
X392069Y579220D01*
X392057Y579192D01*
X392058Y579162D01*
X392050Y579120D01*
X392050Y537210D01*
X392067Y537136D01*
X392080Y537061D01*
X392087Y537051D01*
X392089Y537041D01*
X392113Y537012D01*
X392161Y536941D01*
X451740Y477363D01*
X451740Y454660D01*
X451751Y454610D01*
X451753Y454559D01*
X451771Y454527D01*
X451779Y454491D01*
X451812Y454452D01*
X451836Y454407D01*
X451866Y454386D01*
X451889Y454358D01*
X451936Y454337D01*
X451978Y454307D01*
X452020Y454299D01*
X452048Y454287D01*
X452078Y454288D01*
X452120Y454280D01*
X486410Y454280D01*
X486460Y454291D01*
G37*
G36*
X351840Y454291D02*
X351840Y454291D01*
X351891Y454293D01*
X351923Y454311D01*
X351959Y454319D01*
X351998Y454352D01*
X352043Y454376D01*
X352064Y454406D01*
X352092Y454429D01*
X352113Y454476D01*
X352143Y454518D01*
X352151Y454560D01*
X352163Y454588D01*
X352162Y454618D01*
X352170Y454660D01*
X352170Y579120D01*
X352159Y579170D01*
X352157Y579221D01*
X352139Y579253D01*
X352131Y579289D01*
X352098Y579328D01*
X352074Y579373D01*
X352044Y579394D01*
X352021Y579422D01*
X351974Y579443D01*
X351932Y579473D01*
X351890Y579481D01*
X351862Y579493D01*
X351832Y579492D01*
X351790Y579500D01*
X328930Y579500D01*
X328880Y579489D01*
X328829Y579487D01*
X328797Y579469D01*
X328761Y579461D01*
X328722Y579428D01*
X328677Y579404D01*
X328656Y579374D01*
X328628Y579351D01*
X328607Y579304D01*
X328577Y579262D01*
X328569Y579220D01*
X328557Y579192D01*
X328558Y579162D01*
X328550Y579120D01*
X328550Y557688D01*
X312151Y541289D01*
X312111Y541224D01*
X312067Y541162D01*
X312065Y541150D01*
X312060Y541142D01*
X312056Y541105D01*
X312040Y541020D01*
X312040Y454660D01*
X312051Y454610D01*
X312053Y454559D01*
X312071Y454527D01*
X312079Y454491D01*
X312112Y454452D01*
X312136Y454407D01*
X312166Y454386D01*
X312189Y454358D01*
X312236Y454337D01*
X312278Y454307D01*
X312320Y454299D01*
X312348Y454287D01*
X312378Y454288D01*
X312420Y454280D01*
X351790Y454280D01*
X351840Y454291D01*
G37*
G36*
X240080Y385711D02*
X240080Y385711D01*
X240131Y385713D01*
X240163Y385731D01*
X240199Y385739D01*
X240238Y385772D01*
X240283Y385796D01*
X240304Y385826D01*
X240332Y385849D01*
X240353Y385896D01*
X240383Y385938D01*
X240391Y385980D01*
X240403Y386008D01*
X240402Y386038D01*
X240410Y386080D01*
X240410Y408783D01*
X286019Y454391D01*
X286059Y454456D01*
X286103Y454518D01*
X286105Y454530D01*
X286110Y454538D01*
X286114Y454575D01*
X286130Y454660D01*
X286130Y485140D01*
X286119Y485190D01*
X286117Y485241D01*
X286099Y485273D01*
X286091Y485309D01*
X286058Y485348D01*
X286034Y485393D01*
X286004Y485414D01*
X285981Y485442D01*
X285934Y485463D01*
X285892Y485493D01*
X285850Y485501D01*
X285822Y485513D01*
X285792Y485512D01*
X285750Y485520D01*
X264160Y485520D01*
X264086Y485503D01*
X264011Y485490D01*
X264001Y485483D01*
X263991Y485481D01*
X263962Y485457D01*
X263891Y485409D01*
X200391Y421909D01*
X200351Y421844D01*
X200307Y421782D01*
X200305Y421770D01*
X200300Y421762D01*
X200296Y421725D01*
X200280Y421640D01*
X200280Y386080D01*
X200291Y386030D01*
X200293Y385979D01*
X200311Y385947D01*
X200319Y385911D01*
X200352Y385872D01*
X200376Y385827D01*
X200406Y385806D01*
X200429Y385778D01*
X200476Y385757D01*
X200518Y385727D01*
X200560Y385719D01*
X200588Y385707D01*
X200618Y385708D01*
X200660Y385700D01*
X240030Y385700D01*
X240080Y385711D01*
G37*
G36*
X381050Y386981D02*
X381050Y386981D01*
X381101Y386983D01*
X381133Y387001D01*
X381169Y387009D01*
X381208Y387042D01*
X381253Y387066D01*
X381274Y387096D01*
X381302Y387119D01*
X381323Y387166D01*
X381353Y387208D01*
X381361Y387250D01*
X381373Y387278D01*
X381372Y387308D01*
X381380Y387350D01*
X381380Y410053D01*
X426989Y455661D01*
X427029Y455726D01*
X427073Y455788D01*
X427075Y455800D01*
X427080Y455808D01*
X427084Y455845D01*
X427100Y455930D01*
X427100Y485140D01*
X427089Y485190D01*
X427087Y485241D01*
X427069Y485273D01*
X427061Y485309D01*
X427028Y485348D01*
X427004Y485393D01*
X426974Y485414D01*
X426951Y485442D01*
X426904Y485463D01*
X426862Y485493D01*
X426820Y485501D01*
X426792Y485513D01*
X426762Y485512D01*
X426720Y485520D01*
X405130Y485520D01*
X405056Y485503D01*
X404981Y485490D01*
X404971Y485483D01*
X404961Y485481D01*
X404932Y485457D01*
X404861Y485409D01*
X338821Y419369D01*
X338781Y419304D01*
X338737Y419242D01*
X338735Y419230D01*
X338730Y419222D01*
X338726Y419185D01*
X338710Y419100D01*
X338710Y387350D01*
X338721Y387300D01*
X338723Y387249D01*
X338741Y387217D01*
X338749Y387181D01*
X338782Y387142D01*
X338806Y387097D01*
X338836Y387076D01*
X338859Y387048D01*
X338906Y387027D01*
X338948Y386997D01*
X338990Y386989D01*
X339018Y386977D01*
X339048Y386978D01*
X339090Y386970D01*
X381000Y386970D01*
X381050Y386981D01*
G37*
G36*
X100380Y385711D02*
X100380Y385711D01*
X100431Y385713D01*
X100463Y385731D01*
X100499Y385739D01*
X100538Y385772D01*
X100583Y385796D01*
X100604Y385826D01*
X100632Y385849D01*
X100653Y385896D01*
X100683Y385938D01*
X100691Y385980D01*
X100703Y386008D01*
X100702Y386038D01*
X100710Y386080D01*
X100710Y408783D01*
X146319Y454391D01*
X146359Y454456D01*
X146403Y454518D01*
X146405Y454530D01*
X146410Y454538D01*
X146414Y454575D01*
X146430Y454660D01*
X146430Y485140D01*
X146419Y485190D01*
X146417Y485241D01*
X146399Y485273D01*
X146391Y485309D01*
X146358Y485348D01*
X146334Y485393D01*
X146304Y485414D01*
X146281Y485442D01*
X146234Y485463D01*
X146192Y485493D01*
X146150Y485501D01*
X146122Y485513D01*
X146092Y485512D01*
X146050Y485520D01*
X125730Y485520D01*
X125656Y485503D01*
X125581Y485490D01*
X125571Y485483D01*
X125561Y485481D01*
X125532Y485457D01*
X125461Y485409D01*
X60691Y420639D01*
X60651Y420574D01*
X60607Y420512D01*
X60605Y420500D01*
X60600Y420492D01*
X60596Y420455D01*
X60580Y420370D01*
X60580Y386080D01*
X60591Y386030D01*
X60593Y385979D01*
X60611Y385947D01*
X60619Y385911D01*
X60652Y385872D01*
X60676Y385827D01*
X60706Y385806D01*
X60729Y385778D01*
X60776Y385757D01*
X60818Y385727D01*
X60860Y385719D01*
X60888Y385707D01*
X60918Y385708D01*
X60960Y385700D01*
X100330Y385700D01*
X100380Y385711D01*
G37*
G36*
X522020Y388251D02*
X522020Y388251D01*
X522071Y388253D01*
X522103Y388271D01*
X522139Y388279D01*
X522178Y388312D01*
X522223Y388336D01*
X522244Y388366D01*
X522272Y388389D01*
X522293Y388436D01*
X522323Y388478D01*
X522331Y388520D01*
X522343Y388548D01*
X522342Y388578D01*
X522350Y388620D01*
X522350Y411323D01*
X566689Y455661D01*
X566701Y455681D01*
X566717Y455694D01*
X566735Y455734D01*
X566773Y455788D01*
X566775Y455800D01*
X566780Y455808D01*
X566784Y455843D01*
X566788Y455852D01*
X566787Y455862D01*
X566800Y455930D01*
X566800Y485140D01*
X566789Y485190D01*
X566787Y485241D01*
X566769Y485273D01*
X566761Y485309D01*
X566728Y485348D01*
X566704Y485393D01*
X566674Y485414D01*
X566651Y485442D01*
X566604Y485463D01*
X566562Y485493D01*
X566520Y485501D01*
X566492Y485513D01*
X566462Y485512D01*
X566420Y485520D01*
X544830Y485520D01*
X544756Y485503D01*
X544681Y485490D01*
X544671Y485483D01*
X544661Y485481D01*
X544632Y485457D01*
X544561Y485409D01*
X479791Y420639D01*
X479751Y420574D01*
X479707Y420512D01*
X479705Y420500D01*
X479700Y420492D01*
X479696Y420455D01*
X479680Y420370D01*
X479680Y388620D01*
X479691Y388570D01*
X479693Y388519D01*
X479711Y388487D01*
X479719Y388451D01*
X479752Y388412D01*
X479776Y388367D01*
X479806Y388346D01*
X479829Y388318D01*
X479876Y388297D01*
X479918Y388267D01*
X479960Y388259D01*
X479988Y388247D01*
X480018Y388248D01*
X480060Y388240D01*
X521970Y388240D01*
X522020Y388251D01*
G37*
G36*
X662990Y388251D02*
X662990Y388251D01*
X663041Y388253D01*
X663073Y388271D01*
X663109Y388279D01*
X663148Y388312D01*
X663193Y388336D01*
X663214Y388366D01*
X663242Y388389D01*
X663263Y388436D01*
X663293Y388478D01*
X663301Y388520D01*
X663313Y388548D01*
X663312Y388578D01*
X663320Y388620D01*
X663320Y411323D01*
X710199Y458201D01*
X710239Y458266D01*
X710283Y458328D01*
X710285Y458340D01*
X710290Y458348D01*
X710294Y458385D01*
X710310Y458470D01*
X710310Y485140D01*
X710299Y485190D01*
X710297Y485241D01*
X710279Y485273D01*
X710271Y485309D01*
X710238Y485348D01*
X710214Y485393D01*
X710184Y485414D01*
X710161Y485442D01*
X710114Y485463D01*
X710072Y485493D01*
X710030Y485501D01*
X710002Y485513D01*
X709972Y485512D01*
X709930Y485520D01*
X688340Y485520D01*
X688266Y485503D01*
X688191Y485490D01*
X688181Y485483D01*
X688171Y485481D01*
X688142Y485457D01*
X688071Y485409D01*
X622031Y419369D01*
X621991Y419304D01*
X621947Y419242D01*
X621945Y419230D01*
X621940Y419222D01*
X621936Y419185D01*
X621920Y419100D01*
X621920Y388620D01*
X621931Y388570D01*
X621933Y388519D01*
X621951Y388487D01*
X621959Y388451D01*
X621992Y388412D01*
X622016Y388367D01*
X622046Y388346D01*
X622069Y388318D01*
X622116Y388297D01*
X622158Y388267D01*
X622200Y388259D01*
X622228Y388247D01*
X622258Y388248D01*
X622300Y388240D01*
X662940Y388240D01*
X662990Y388251D01*
G37*
G36*
X510814Y52534D02*
X510814Y52534D01*
X510833Y52532D01*
X510935Y52554D01*
X511037Y52570D01*
X511054Y52580D01*
X511074Y52584D01*
X511163Y52637D01*
X511254Y52686D01*
X511268Y52700D01*
X511285Y52710D01*
X511352Y52789D01*
X511424Y52864D01*
X511432Y52882D01*
X511445Y52897D01*
X511484Y52993D01*
X511527Y53087D01*
X511529Y53107D01*
X511537Y53125D01*
X511555Y53292D01*
X511555Y53972D01*
X512448Y54865D01*
X516938Y54865D01*
X516958Y54868D01*
X516977Y54866D01*
X517079Y54888D01*
X517181Y54904D01*
X517198Y54914D01*
X517218Y54918D01*
X517307Y54971D01*
X517398Y55020D01*
X517412Y55034D01*
X517429Y55044D01*
X517496Y55123D01*
X517568Y55198D01*
X517576Y55216D01*
X517589Y55231D01*
X517628Y55327D01*
X517671Y55421D01*
X517673Y55441D01*
X517681Y55459D01*
X517699Y55626D01*
X517699Y56494D01*
X517685Y56584D01*
X517677Y56675D01*
X517665Y56705D01*
X517660Y56737D01*
X517617Y56818D01*
X517581Y56901D01*
X517555Y56934D01*
X517544Y56954D01*
X517521Y56976D01*
X517476Y57032D01*
X516913Y57595D01*
X516913Y61785D01*
X519138Y64010D01*
X519180Y64068D01*
X519230Y64120D01*
X519252Y64167D01*
X519282Y64209D01*
X519303Y64278D01*
X519333Y64343D01*
X519339Y64395D01*
X519354Y64445D01*
X519352Y64516D01*
X519360Y64587D01*
X519349Y64638D01*
X519348Y64690D01*
X519323Y64758D01*
X519308Y64828D01*
X519281Y64873D01*
X519264Y64921D01*
X519219Y64977D01*
X519182Y65039D01*
X519142Y65073D01*
X519110Y65113D01*
X519050Y65152D01*
X518995Y65199D01*
X518947Y65218D01*
X518903Y65246D01*
X518833Y65264D01*
X518767Y65291D01*
X518696Y65299D01*
X518664Y65307D01*
X518641Y65305D01*
X518600Y65309D01*
X493945Y65309D01*
X486949Y72305D01*
X486949Y124060D01*
X486935Y124150D01*
X486927Y124241D01*
X486915Y124271D01*
X486910Y124303D01*
X486867Y124383D01*
X486831Y124467D01*
X486805Y124499D01*
X486794Y124520D01*
X486771Y124542D01*
X486726Y124598D01*
X485179Y126146D01*
X485163Y126157D01*
X485150Y126173D01*
X485063Y126229D01*
X484979Y126289D01*
X484960Y126295D01*
X484943Y126306D01*
X484843Y126331D01*
X484744Y126362D01*
X484724Y126361D01*
X484705Y126366D01*
X484602Y126358D01*
X484498Y126355D01*
X484479Y126348D01*
X484459Y126347D01*
X484365Y126307D01*
X484267Y126271D01*
X484251Y126258D01*
X484233Y126251D01*
X484102Y126146D01*
X483385Y125428D01*
X483373Y125412D01*
X483357Y125400D01*
X483301Y125312D01*
X483241Y125229D01*
X483235Y125210D01*
X483224Y125193D01*
X483199Y125092D01*
X483169Y124993D01*
X483169Y124974D01*
X483164Y124954D01*
X483172Y124851D01*
X483175Y124748D01*
X483182Y124729D01*
X483183Y124709D01*
X483224Y124614D01*
X483259Y124517D01*
X483272Y124501D01*
X483280Y124483D01*
X483385Y124352D01*
X484465Y123272D01*
X484465Y115508D01*
X483385Y114428D01*
X483373Y114412D01*
X483357Y114400D01*
X483329Y114355D01*
X483297Y114321D01*
X483276Y114278D01*
X483241Y114229D01*
X483235Y114210D01*
X483224Y114193D01*
X483210Y114134D01*
X483193Y114098D01*
X483188Y114058D01*
X483169Y113993D01*
X483169Y113974D01*
X483164Y113954D01*
X483170Y113887D01*
X483166Y113854D01*
X483173Y113820D01*
X483175Y113748D01*
X483182Y113729D01*
X483183Y113709D01*
X483212Y113642D01*
X483218Y113613D01*
X483234Y113588D01*
X483259Y113517D01*
X483272Y113501D01*
X483280Y113483D01*
X483385Y113352D01*
X484465Y112272D01*
X484465Y104508D01*
X483385Y103428D01*
X483373Y103412D01*
X483357Y103400D01*
X483301Y103312D01*
X483241Y103229D01*
X483235Y103210D01*
X483224Y103193D01*
X483199Y103092D01*
X483169Y102993D01*
X483169Y102974D01*
X483164Y102954D01*
X483172Y102851D01*
X483175Y102748D01*
X483182Y102729D01*
X483183Y102709D01*
X483224Y102614D01*
X483259Y102517D01*
X483272Y102501D01*
X483280Y102483D01*
X483385Y102352D01*
X484465Y101272D01*
X484465Y93508D01*
X483572Y92615D01*
X467308Y92615D01*
X466415Y93508D01*
X466415Y101272D01*
X467495Y102352D01*
X467507Y102368D01*
X467523Y102380D01*
X467579Y102468D01*
X467639Y102551D01*
X467645Y102570D01*
X467656Y102587D01*
X467681Y102688D01*
X467711Y102787D01*
X467711Y102806D01*
X467716Y102826D01*
X467708Y102929D01*
X467705Y103032D01*
X467698Y103051D01*
X467697Y103071D01*
X467656Y103166D01*
X467621Y103263D01*
X467608Y103279D01*
X467600Y103297D01*
X467495Y103428D01*
X466386Y104538D01*
X466376Y104601D01*
X466366Y104618D01*
X466362Y104638D01*
X466309Y104727D01*
X466260Y104818D01*
X466246Y104832D01*
X466236Y104849D01*
X466157Y104916D01*
X466082Y104988D01*
X466064Y104996D01*
X466049Y105009D01*
X465953Y105048D01*
X465859Y105091D01*
X465839Y105093D01*
X465821Y105101D01*
X465654Y105119D01*
X460485Y105119D01*
X460054Y105550D01*
X459996Y105592D01*
X459944Y105641D01*
X459897Y105663D01*
X459855Y105694D01*
X459786Y105715D01*
X459721Y105745D01*
X459669Y105751D01*
X459619Y105766D01*
X459548Y105764D01*
X459477Y105772D01*
X459426Y105761D01*
X459374Y105760D01*
X459306Y105735D01*
X459236Y105720D01*
X459191Y105693D01*
X459143Y105675D01*
X459087Y105630D01*
X459025Y105594D01*
X458991Y105554D01*
X458951Y105522D01*
X458912Y105461D01*
X458865Y105407D01*
X458846Y105358D01*
X458818Y105315D01*
X458800Y105245D01*
X458773Y105179D01*
X458765Y105107D01*
X458757Y105076D01*
X458759Y105053D01*
X458755Y105012D01*
X458755Y103588D01*
X457862Y102695D01*
X455762Y102695D01*
X455742Y102692D01*
X455723Y102694D01*
X455621Y102672D01*
X455519Y102656D01*
X455502Y102646D01*
X455482Y102642D01*
X455393Y102589D01*
X455302Y102540D01*
X455288Y102526D01*
X455271Y102516D01*
X455204Y102437D01*
X455132Y102362D01*
X455124Y102344D01*
X455111Y102329D01*
X455072Y102233D01*
X455029Y102139D01*
X455027Y102119D01*
X455019Y102101D01*
X455001Y101934D01*
X455001Y101266D01*
X455004Y101246D01*
X455002Y101227D01*
X455024Y101125D01*
X455040Y101023D01*
X455050Y101006D01*
X455054Y100986D01*
X455107Y100897D01*
X455156Y100806D01*
X455170Y100792D01*
X455180Y100775D01*
X455259Y100708D01*
X455334Y100636D01*
X455352Y100628D01*
X455367Y100615D01*
X455463Y100576D01*
X455557Y100533D01*
X455577Y100531D01*
X455595Y100523D01*
X455762Y100505D01*
X457862Y100505D01*
X458755Y99612D01*
X458755Y88348D01*
X457862Y87455D01*
X455492Y87455D01*
X455472Y87452D01*
X455453Y87454D01*
X455351Y87432D01*
X455249Y87416D01*
X455232Y87406D01*
X455212Y87402D01*
X455123Y87349D01*
X455032Y87300D01*
X455018Y87286D01*
X455001Y87276D01*
X454934Y87197D01*
X454862Y87122D01*
X454854Y87104D01*
X454841Y87089D01*
X454802Y86993D01*
X454759Y86899D01*
X454757Y86879D01*
X454749Y86861D01*
X454731Y86694D01*
X454731Y54865D01*
X454742Y54794D01*
X454744Y54722D01*
X454762Y54673D01*
X454770Y54622D01*
X454804Y54559D01*
X454829Y54491D01*
X454861Y54451D01*
X454886Y54405D01*
X454938Y54355D01*
X454982Y54299D01*
X455026Y54271D01*
X455064Y54235D01*
X455129Y54205D01*
X455189Y54166D01*
X455240Y54154D01*
X455287Y54132D01*
X455358Y54124D01*
X455428Y54106D01*
X455480Y54110D01*
X455531Y54105D01*
X455602Y54120D01*
X455673Y54125D01*
X455721Y54146D01*
X455772Y54157D01*
X455833Y54194D01*
X455899Y54222D01*
X455955Y54267D01*
X455983Y54283D01*
X455998Y54301D01*
X456030Y54327D01*
X456568Y54865D01*
X473072Y54865D01*
X473965Y53972D01*
X473965Y53292D01*
X473968Y53272D01*
X473966Y53253D01*
X473988Y53151D01*
X474004Y53049D01*
X474014Y53032D01*
X474018Y53012D01*
X474071Y52923D01*
X474120Y52832D01*
X474134Y52818D01*
X474144Y52801D01*
X474223Y52734D01*
X474298Y52662D01*
X474316Y52654D01*
X474331Y52641D01*
X474427Y52602D01*
X474521Y52559D01*
X474541Y52557D01*
X474559Y52549D01*
X474726Y52531D01*
X510794Y52531D01*
X510814Y52534D01*
G37*
G36*
X610920Y304431D02*
X610920Y304431D01*
X610971Y304433D01*
X611003Y304451D01*
X611039Y304459D01*
X611078Y304492D01*
X611123Y304516D01*
X611144Y304546D01*
X611172Y304569D01*
X611193Y304616D01*
X611223Y304658D01*
X611231Y304700D01*
X611243Y304728D01*
X611242Y304758D01*
X611250Y304800D01*
X611250Y334010D01*
X611233Y334084D01*
X611220Y334159D01*
X611213Y334169D01*
X611211Y334179D01*
X611187Y334208D01*
X611139Y334279D01*
X599820Y345598D01*
X599820Y367030D01*
X599809Y367080D01*
X599807Y367131D01*
X599789Y367163D01*
X599781Y367199D01*
X599748Y367238D01*
X599724Y367283D01*
X599694Y367304D01*
X599671Y367332D01*
X599624Y367353D01*
X599582Y367383D01*
X599540Y367391D01*
X599512Y367403D01*
X599482Y367402D01*
X599440Y367410D01*
X580390Y367410D01*
X580340Y367399D01*
X580289Y367397D01*
X580257Y367379D01*
X580221Y367371D01*
X580182Y367338D01*
X580137Y367314D01*
X580116Y367284D01*
X580088Y367261D01*
X580067Y367214D01*
X580037Y367172D01*
X580029Y367130D01*
X580017Y367102D01*
X580018Y367072D01*
X580010Y367030D01*
X580010Y304800D01*
X580021Y304750D01*
X580023Y304699D01*
X580041Y304667D01*
X580049Y304631D01*
X580082Y304592D01*
X580106Y304547D01*
X580136Y304526D01*
X580159Y304498D01*
X580206Y304477D01*
X580248Y304447D01*
X580290Y304439D01*
X580318Y304427D01*
X580348Y304428D01*
X580390Y304420D01*
X610870Y304420D01*
X610920Y304431D01*
G37*
G36*
X468680Y304431D02*
X468680Y304431D01*
X468731Y304433D01*
X468763Y304451D01*
X468799Y304459D01*
X468838Y304492D01*
X468883Y304516D01*
X468904Y304546D01*
X468932Y304569D01*
X468953Y304616D01*
X468983Y304658D01*
X468991Y304700D01*
X469003Y304728D01*
X469002Y304758D01*
X469010Y304800D01*
X469010Y334010D01*
X468993Y334084D01*
X468980Y334159D01*
X468973Y334169D01*
X468971Y334179D01*
X468947Y334208D01*
X468899Y334279D01*
X457580Y345598D01*
X457580Y367030D01*
X457569Y367080D01*
X457567Y367131D01*
X457549Y367163D01*
X457541Y367199D01*
X457508Y367238D01*
X457484Y367283D01*
X457454Y367304D01*
X457431Y367332D01*
X457384Y367353D01*
X457342Y367383D01*
X457300Y367391D01*
X457272Y367403D01*
X457242Y367402D01*
X457200Y367410D01*
X439420Y367410D01*
X439370Y367399D01*
X439319Y367397D01*
X439287Y367379D01*
X439251Y367371D01*
X439212Y367338D01*
X439167Y367314D01*
X439146Y367284D01*
X439118Y367261D01*
X439097Y367214D01*
X439067Y367172D01*
X439059Y367130D01*
X439047Y367102D01*
X439048Y367072D01*
X439040Y367030D01*
X439040Y304800D01*
X439051Y304750D01*
X439053Y304699D01*
X439071Y304667D01*
X439079Y304631D01*
X439112Y304592D01*
X439136Y304547D01*
X439166Y304526D01*
X439189Y304498D01*
X439236Y304477D01*
X439278Y304447D01*
X439320Y304439D01*
X439348Y304427D01*
X439378Y304428D01*
X439420Y304420D01*
X468630Y304420D01*
X468680Y304431D01*
G37*
G36*
X327710Y304431D02*
X327710Y304431D01*
X327761Y304433D01*
X327793Y304451D01*
X327829Y304459D01*
X327868Y304492D01*
X327913Y304516D01*
X327934Y304546D01*
X327962Y304569D01*
X327983Y304616D01*
X328013Y304658D01*
X328021Y304700D01*
X328033Y304728D01*
X328032Y304758D01*
X328040Y304800D01*
X328040Y334010D01*
X328023Y334084D01*
X328010Y334159D01*
X328003Y334169D01*
X328001Y334179D01*
X327977Y334208D01*
X327929Y334279D01*
X316610Y345598D01*
X316610Y365760D01*
X316599Y365810D01*
X316597Y365861D01*
X316579Y365893D01*
X316571Y365929D01*
X316538Y365968D01*
X316514Y366013D01*
X316484Y366034D01*
X316461Y366062D01*
X316414Y366083D01*
X316372Y366113D01*
X316330Y366121D01*
X316302Y366133D01*
X316272Y366132D01*
X316230Y366140D01*
X298450Y366140D01*
X298400Y366129D01*
X298349Y366127D01*
X298317Y366109D01*
X298281Y366101D01*
X298242Y366068D01*
X298197Y366044D01*
X298176Y366014D01*
X298148Y365991D01*
X298127Y365944D01*
X298097Y365902D01*
X298089Y365860D01*
X298077Y365832D01*
X298078Y365802D01*
X298070Y365760D01*
X298070Y304800D01*
X298081Y304750D01*
X298083Y304699D01*
X298101Y304667D01*
X298109Y304631D01*
X298142Y304592D01*
X298166Y304547D01*
X298196Y304526D01*
X298219Y304498D01*
X298266Y304477D01*
X298308Y304447D01*
X298350Y304439D01*
X298378Y304427D01*
X298408Y304428D01*
X298450Y304420D01*
X327660Y304420D01*
X327710Y304431D01*
G37*
G36*
X189280Y304431D02*
X189280Y304431D01*
X189331Y304433D01*
X189363Y304451D01*
X189399Y304459D01*
X189438Y304492D01*
X189483Y304516D01*
X189504Y304546D01*
X189532Y304569D01*
X189553Y304616D01*
X189583Y304658D01*
X189591Y304700D01*
X189603Y304728D01*
X189602Y304758D01*
X189610Y304800D01*
X189610Y334010D01*
X189593Y334084D01*
X189580Y334159D01*
X189573Y334169D01*
X189571Y334179D01*
X189547Y334208D01*
X189499Y334279D01*
X178180Y345598D01*
X178180Y364490D01*
X178169Y364540D01*
X178167Y364591D01*
X178149Y364623D01*
X178141Y364659D01*
X178108Y364698D01*
X178084Y364743D01*
X178054Y364764D01*
X178031Y364792D01*
X177984Y364813D01*
X177942Y364843D01*
X177900Y364851D01*
X177872Y364863D01*
X177842Y364862D01*
X177800Y364870D01*
X160020Y364870D01*
X159970Y364859D01*
X159919Y364857D01*
X159887Y364839D01*
X159851Y364831D01*
X159812Y364798D01*
X159767Y364774D01*
X159746Y364744D01*
X159718Y364721D01*
X159697Y364674D01*
X159667Y364632D01*
X159659Y364590D01*
X159647Y364562D01*
X159648Y364532D01*
X159640Y364490D01*
X159640Y304800D01*
X159651Y304750D01*
X159653Y304699D01*
X159671Y304667D01*
X159679Y304631D01*
X159712Y304592D01*
X159736Y304547D01*
X159766Y304526D01*
X159789Y304498D01*
X159836Y304477D01*
X159878Y304447D01*
X159920Y304439D01*
X159948Y304427D01*
X159978Y304428D01*
X160020Y304420D01*
X189230Y304420D01*
X189280Y304431D01*
G37*
G36*
X38150Y306971D02*
X38150Y306971D01*
X38201Y306973D01*
X38233Y306991D01*
X38269Y306999D01*
X38308Y307032D01*
X38353Y307056D01*
X38374Y307086D01*
X38402Y307109D01*
X38423Y307156D01*
X38453Y307198D01*
X38461Y307240D01*
X38473Y307268D01*
X38472Y307298D01*
X38480Y307340D01*
X38480Y365760D01*
X38469Y365810D01*
X38467Y365861D01*
X38449Y365893D01*
X38441Y365929D01*
X38408Y365968D01*
X38384Y366013D01*
X38354Y366034D01*
X38331Y366062D01*
X38284Y366083D01*
X38242Y366113D01*
X38200Y366121D01*
X38172Y366133D01*
X38142Y366132D01*
X38100Y366140D01*
X17780Y366140D01*
X17730Y366129D01*
X17679Y366127D01*
X17647Y366109D01*
X17611Y366101D01*
X17572Y366068D01*
X17527Y366044D01*
X17506Y366014D01*
X17478Y365991D01*
X17457Y365944D01*
X17427Y365902D01*
X17419Y365860D01*
X17407Y365832D01*
X17408Y365802D01*
X17400Y365760D01*
X17400Y307340D01*
X17411Y307290D01*
X17413Y307239D01*
X17431Y307207D01*
X17439Y307171D01*
X17472Y307132D01*
X17496Y307087D01*
X17526Y307066D01*
X17549Y307038D01*
X17596Y307017D01*
X17638Y306987D01*
X17680Y306979D01*
X17708Y306967D01*
X17738Y306968D01*
X17780Y306960D01*
X38100Y306960D01*
X38150Y306971D01*
G37*
G36*
X396260Y151642D02*
X396260Y151642D01*
X396279Y151640D01*
X396381Y151662D01*
X396483Y151679D01*
X396500Y151688D01*
X396520Y151692D01*
X396609Y151745D01*
X396700Y151794D01*
X396714Y151808D01*
X396731Y151818D01*
X396798Y151897D01*
X396870Y151972D01*
X396878Y151990D01*
X396891Y152005D01*
X396930Y152101D01*
X396973Y152195D01*
X396975Y152215D01*
X396983Y152233D01*
X397001Y152400D01*
X397001Y181610D01*
X396998Y181630D01*
X397000Y181649D01*
X396978Y181751D01*
X396962Y181853D01*
X396952Y181870D01*
X396948Y181890D01*
X396895Y181979D01*
X396846Y182070D01*
X396832Y182084D01*
X396822Y182101D01*
X396743Y182168D01*
X396668Y182240D01*
X396650Y182248D01*
X396635Y182261D01*
X396539Y182300D01*
X396445Y182343D01*
X396425Y182345D01*
X396407Y182353D01*
X396240Y182371D01*
X370840Y182371D01*
X370820Y182368D01*
X370801Y182370D01*
X370699Y182348D01*
X370597Y182332D01*
X370580Y182322D01*
X370560Y182318D01*
X370471Y182265D01*
X370380Y182216D01*
X370366Y182202D01*
X370349Y182192D01*
X370282Y182113D01*
X370211Y182038D01*
X370202Y182020D01*
X370189Y182005D01*
X370150Y181909D01*
X370107Y181815D01*
X370105Y181795D01*
X370097Y181777D01*
X370079Y181610D01*
X370079Y160020D01*
X370094Y159930D01*
X370101Y159839D01*
X370113Y159809D01*
X370119Y159777D01*
X370138Y159741D01*
X370140Y159733D01*
X370161Y159696D01*
X370197Y159613D01*
X370223Y159581D01*
X370234Y159560D01*
X370255Y159540D01*
X370266Y159522D01*
X370279Y159510D01*
X370302Y159482D01*
X377922Y151862D01*
X377996Y151809D01*
X378065Y151749D01*
X378095Y151737D01*
X378121Y151718D01*
X378208Y151691D01*
X378293Y151657D01*
X378334Y151653D01*
X378357Y151646D01*
X378389Y151647D01*
X378460Y151639D01*
X396240Y151639D01*
X396260Y151642D01*
G37*
%LPC*%
G36*
X547737Y32257D02*
X547737Y32257D01*
X543723Y33920D01*
X540650Y36993D01*
X538987Y41007D01*
X538987Y45353D01*
X540650Y49367D01*
X543723Y52440D01*
X547737Y54103D01*
X552083Y54103D01*
X556097Y52440D01*
X559170Y49367D01*
X560833Y45353D01*
X560833Y41007D01*
X559170Y36993D01*
X556097Y33920D01*
X552083Y32257D01*
X547737Y32257D01*
G37*
%LPD*%
%LPC*%
G36*
X573137Y32257D02*
X573137Y32257D01*
X569123Y33920D01*
X566050Y36993D01*
X564387Y41007D01*
X564387Y45353D01*
X566050Y49367D01*
X569123Y52440D01*
X573137Y54103D01*
X577483Y54103D01*
X581497Y52440D01*
X584570Y49367D01*
X586233Y45353D01*
X586233Y41007D01*
X584570Y36993D01*
X581497Y33920D01*
X577483Y32257D01*
X573137Y32257D01*
G37*
%LPD*%
D10*
X64530Y394420D03*
X34530Y394420D03*
X64530Y357420D03*
X34530Y357420D03*
D11*
X49530Y375920D03*
D12*
X42400Y469900D03*
X135400Y469900D03*
D13*
X92710Y354420D03*
X92710Y397420D03*
D14*
X81690Y321310D03*
X37690Y321310D03*
D15*
X139700Y393650D03*
X139700Y330250D03*
D16*
X224790Y571500D03*
X250190Y571500D03*
D10*
X342660Y395690D03*
X312660Y395690D03*
X342660Y358690D03*
X312660Y358690D03*
D11*
X327660Y377190D03*
D12*
X323070Y469900D03*
X416070Y469900D03*
D13*
X373380Y355690D03*
X373380Y398690D03*
D14*
X362360Y320040D03*
X318360Y320040D03*
D15*
X419100Y393650D03*
X419100Y330250D03*
D16*
X344170Y571500D03*
X369570Y571500D03*
D10*
X204230Y394420D03*
X174230Y394420D03*
X204230Y357420D03*
X174230Y357420D03*
D11*
X189230Y375920D03*
D12*
X182100Y469900D03*
X275100Y469900D03*
D13*
X232410Y355690D03*
X232410Y398690D03*
D14*
X223930Y320040D03*
X179930Y320040D03*
D15*
X278130Y393650D03*
X278130Y330250D03*
D16*
X284480Y571500D03*
X309880Y571500D03*
D10*
X483630Y396960D03*
X453630Y396960D03*
X483630Y359960D03*
X453630Y359960D03*
D11*
X468630Y378460D03*
D12*
X462770Y469900D03*
X555770Y469900D03*
D13*
X514350Y356960D03*
X514350Y399960D03*
D14*
X503330Y320040D03*
X459330Y320040D03*
D15*
X560070Y394920D03*
X560070Y331520D03*
D16*
X403860Y571500D03*
X429260Y571500D03*
D10*
X625870Y396960D03*
X595870Y396960D03*
X625870Y359960D03*
X595870Y359960D03*
D11*
X610870Y378460D03*
D12*
X606280Y469900D03*
X699280Y469900D03*
D13*
X655320Y356960D03*
X655320Y399960D03*
D14*
X645570Y320040D03*
X601570Y320040D03*
D15*
X701040Y394920D03*
X701040Y331520D03*
D16*
X463550Y571500D03*
X488950Y571500D03*
D17*
X619940Y245590D03*
X608940Y245590D03*
X597940Y245590D03*
X586940Y245590D03*
X575940Y245590D03*
X564940Y245590D03*
X553940Y245590D03*
X542940Y245590D03*
X531940Y245590D03*
X520940Y245590D03*
X509940Y245590D03*
X498940Y245590D03*
D18*
X475440Y229390D03*
X475440Y218390D03*
X475440Y207390D03*
X475440Y196390D03*
X475440Y185390D03*
X475440Y174390D03*
X475440Y163390D03*
D17*
X630940Y245590D03*
X619940Y81690D03*
X608940Y81690D03*
X597940Y81690D03*
X586940Y81690D03*
X575940Y81690D03*
X564940Y81690D03*
X553940Y81690D03*
X542940Y81690D03*
X531940Y81690D03*
X520940Y81690D03*
X509940Y81690D03*
X498940Y81690D03*
X630940Y81690D03*
D18*
X475440Y152390D03*
X475440Y141390D03*
X475440Y130390D03*
X475440Y119390D03*
X475440Y108390D03*
X475440Y97390D03*
D19*
X179230Y274320D03*
X199230Y274320D03*
X357030Y275590D03*
X377030Y275590D03*
X224950Y274320D03*
X244950Y274320D03*
X538640Y273050D03*
X558640Y273050D03*
X603090Y273050D03*
X583090Y273050D03*
D20*
X451730Y109220D03*
X434730Y109220D03*
X451730Y93980D03*
X434730Y93980D03*
D21*
X143510Y96520D03*
D22*
X183510Y113520D03*
X143510Y130520D03*
X183510Y147520D03*
X143510Y164520D03*
D12*
X216390Y128270D03*
X309390Y128270D03*
D23*
X363220Y134490D03*
X363220Y86490D03*
D24*
X186600Y205740D03*
X143600Y205740D03*
D25*
X22990Y124460D03*
X70990Y124460D03*
D26*
X341630Y192880D03*
X341630Y172880D03*
X377190Y172880D03*
X377190Y192880D03*
D27*
X359410Y192650D03*
X359410Y175650D03*
D16*
X34290Y266700D03*
X34290Y241300D03*
D28*
X91440Y274460D03*
X91440Y233540D03*
D27*
X414020Y122800D03*
X414020Y105800D03*
D29*
X678370Y269550D02*
X678370Y276550D01*
X685370Y276550D01*
X685370Y269550D01*
X678370Y269550D01*
X678370Y272400D02*
X685370Y272400D01*
X685370Y275250D02*
X678370Y275250D01*
X660830Y276550D02*
X660830Y269550D01*
X660830Y276550D02*
X667830Y276550D01*
X667830Y269550D01*
X660830Y269550D01*
X660830Y272400D02*
X667830Y272400D01*
X667830Y275250D02*
X660830Y275250D01*
D20*
X648580Y273050D03*
X631580Y273050D03*
D30*
X438150Y11430D03*
X382270Y11430D03*
X438150Y49530D03*
X382270Y49530D03*
X298450Y49530D03*
X354330Y49530D03*
X298450Y11430D03*
X354330Y11430D03*
X520700Y11430D03*
X464820Y11430D03*
X520700Y49530D03*
X464820Y49530D03*
D31*
X549910Y17780D03*
X549910Y43180D03*
X575310Y17780D03*
X575310Y43180D03*
X600710Y17780D03*
X600710Y43180D03*
X626110Y17780D03*
X626110Y43180D03*
D32*
X22860Y124460D03*
D33*
X91440Y274460D02*
X91440Y298450D01*
X93980Y300990D01*
D34*
X21590Y312420D03*
X21590Y322580D03*
X21590Y332740D03*
X21590Y342900D03*
X21590Y354330D03*
X30480Y342900D03*
X49530Y375920D03*
X92710Y375920D03*
X189230Y377190D03*
X233680Y377190D03*
X327660Y377190D03*
X373380Y377190D03*
X514350Y378460D03*
X610870Y378460D03*
X655320Y378460D03*
X468630Y378460D03*
X105410Y375920D03*
X118110Y375920D03*
X80010Y375920D03*
X67310Y375920D03*
X207010Y377190D03*
X220980Y377190D03*
X246380Y377190D03*
X259080Y377190D03*
X344170Y377190D03*
X358140Y377190D03*
X386080Y377190D03*
X400050Y377190D03*
X485140Y378460D03*
X499110Y378460D03*
X527050Y378460D03*
X542290Y378460D03*
X627380Y378460D03*
X641350Y378460D03*
X669290Y378460D03*
X683260Y378460D03*
X49530Y386080D03*
X49530Y397510D03*
X189230Y387350D03*
X189230Y397510D03*
X327660Y387350D03*
X327660Y398780D03*
X468630Y388620D03*
X468630Y400050D03*
X610870Y388620D03*
X610870Y400050D03*
D32*
X363220Y87630D03*
X71120Y124460D03*
D35*
X52070Y207010D03*
X62230Y207010D03*
X72390Y207010D03*
X82550Y207010D03*
X93980Y207010D03*
X105410Y207010D03*
X52070Y195580D03*
X52070Y184150D03*
X52070Y172720D03*
X52070Y161290D03*
X401320Y95250D03*
X401320Y85090D03*
X401320Y74930D03*
X411480Y74930D03*
X411480Y85090D03*
X411480Y95250D03*
X391160Y176530D03*
X391160Y166370D03*
X391160Y156210D03*
X62230Y161290D03*
X62230Y172720D03*
X62230Y184150D03*
X62230Y195580D03*
X72390Y195580D03*
X82550Y195580D03*
X93980Y195580D03*
X105410Y195580D03*
X72390Y184150D03*
X82550Y184150D03*
X93980Y184150D03*
X105410Y184150D03*
X72390Y172720D03*
X82550Y172720D03*
X93980Y172720D03*
X105410Y172720D03*
X72390Y161290D03*
X82550Y161290D03*
X93980Y161290D03*
X105410Y161290D03*
D36*
X414020Y105800D02*
X414020Y97790D01*
X411480Y95250D01*
D37*
X681870Y262770D02*
X681870Y273050D01*
X676910Y257810D02*
X657860Y257810D01*
X676910Y257810D02*
X681870Y262770D01*
D35*
X657860Y257810D03*
D33*
X354330Y11430D02*
X298450Y11430D01*
X354330Y11430D02*
X382270Y11430D01*
X438150Y11430D01*
X464820Y11430D01*
X520700Y11430D01*
D35*
X609600Y226060D03*
X609600Y195580D03*
X609600Y163830D03*
X609600Y133350D03*
X609600Y99060D03*
X520700Y189230D03*
X520700Y163830D03*
X520700Y132080D03*
X520700Y102870D03*
X497840Y189230D03*
X495300Y163830D03*
X494030Y132080D03*
X577850Y163830D03*
X577850Y133350D03*
X577850Y99060D03*
X650240Y226060D03*
X650240Y194310D03*
X650240Y163830D03*
X650240Y133350D03*
X472440Y80010D03*
X492760Y31750D03*
X326390Y30480D03*
X411480Y251460D03*
X458470Y251460D03*
X458470Y212090D03*
X458470Y168910D03*
D34*
X302260Y308610D03*
X302260Y332740D03*
X302260Y321310D03*
X302260Y344170D03*
X302260Y355600D03*
X311150Y344170D03*
X163830Y308610D03*
X163830Y332740D03*
X163830Y321310D03*
X163830Y344170D03*
X163830Y355600D03*
X172720Y344170D03*
X443230Y308610D03*
X443230Y332740D03*
X443230Y321310D03*
X443230Y344170D03*
X443230Y355600D03*
X452120Y344170D03*
X585470Y308610D03*
X585470Y332740D03*
X585470Y321310D03*
X585470Y344170D03*
X585470Y355600D03*
X594360Y344170D03*
D37*
X475440Y108390D02*
X461840Y108390D01*
X461010Y109220D01*
X451730Y109220D01*
X451730Y93980D01*
D33*
X354330Y49530D02*
X298450Y49530D01*
X354330Y49530D02*
X354330Y36830D01*
X356870Y34290D01*
X447040Y34290D01*
X451730Y38980D02*
X451730Y93980D01*
X451730Y38980D02*
X447040Y34290D01*
X468550Y196390D02*
X475440Y196390D01*
X487220Y196390D01*
X494220Y203390D01*
X556070Y203390D02*
X565150Y194310D01*
X556070Y203390D02*
X494220Y203390D01*
D35*
X565150Y194310D03*
X561340Y207010D03*
D33*
X560960Y207390D01*
X475440Y207390D01*
X475440Y218390D02*
X485190Y218390D01*
X492190Y211390D01*
X551750Y211390D02*
X558800Y218440D01*
X551750Y211390D02*
X492190Y211390D01*
D35*
X558800Y218440D03*
D33*
X485620Y229390D02*
X475440Y229390D01*
X553720Y228600D02*
X566420Y228600D01*
X499620Y215390D02*
X485620Y229390D01*
X499620Y215390D02*
X540510Y215390D01*
X553720Y228600D01*
D35*
X566420Y228600D03*
D33*
X542940Y234330D02*
X542940Y245590D01*
X541020Y232410D02*
X530860Y232410D01*
X525780Y227330D01*
X525780Y226060D01*
X541020Y232410D02*
X542940Y234330D01*
D35*
X525780Y226060D03*
X440690Y60960D03*
D33*
X438150Y58420D02*
X438150Y49530D01*
X438150Y58420D02*
X440690Y60960D01*
X438150Y49530D02*
X382270Y49530D01*
X553940Y235170D02*
X553940Y245590D01*
X544830Y226060D02*
X539750Y226060D01*
X544830Y226060D02*
X553940Y235170D01*
D35*
X539750Y226060D03*
X521970Y59690D03*
D33*
X520700Y58420D02*
X520700Y49530D01*
X520700Y58420D02*
X521970Y59690D01*
X520700Y49530D02*
X464820Y49530D01*
D38*
X586940Y245590D02*
X586940Y256740D01*
X590550Y260350D01*
X631580Y264550D02*
X631580Y273050D01*
X627380Y260350D02*
X590550Y260350D01*
X627380Y260350D02*
X631580Y264550D01*
D33*
X630940Y245590D02*
X630940Y117090D01*
X643890Y104140D01*
X643890Y35560D01*
X626110Y17780D01*
X597940Y68810D02*
X597940Y81690D01*
X612632Y54118D02*
X612632Y29702D01*
X600710Y17780D01*
X612632Y54118D02*
X597940Y68810D01*
D37*
X575940Y245590D02*
X575940Y255900D01*
X583090Y263050D02*
X583090Y273050D01*
X583090Y263050D02*
X575940Y255900D01*
X558800Y272890D02*
X558640Y273050D01*
X558800Y272890D02*
X558800Y261620D01*
X564940Y255480D01*
X564940Y245590D01*
X511810Y275590D02*
X377030Y275590D01*
X531940Y255460D02*
X531940Y245590D01*
X531940Y255460D02*
X511810Y275590D01*
X520940Y258110D02*
X520940Y245590D01*
X520940Y258110D02*
X508000Y271050D01*
X394240Y271050D01*
X379730Y256540D01*
X251460Y256540D01*
X244950Y263050D02*
X244950Y274320D01*
X244950Y263050D02*
X251460Y256540D01*
X509940Y260760D02*
X509940Y245590D01*
X509940Y260760D02*
X504190Y266510D01*
X397391Y266510D01*
X382881Y252000D01*
X199230Y259240D02*
X199230Y274320D01*
X206470Y252000D02*
X382881Y252000D01*
X206470Y252000D02*
X199230Y259240D01*
X179230Y274320D02*
X167640Y274320D01*
D35*
X167640Y274320D03*
D37*
X34530Y381240D02*
X31750Y378460D01*
D35*
X31750Y378460D03*
D37*
X34530Y381240D02*
X34530Y394420D01*
X345440Y275590D02*
X357030Y275590D01*
D35*
X345440Y275590D03*
D37*
X312660Y395690D02*
X312660Y408700D01*
X312420Y408940D01*
D35*
X312420Y408940D03*
D37*
X224950Y274320D02*
X213360Y274320D01*
D35*
X213360Y274320D03*
D37*
X174230Y394420D02*
X174230Y407430D01*
X173990Y407670D01*
D35*
X173990Y407670D03*
D37*
X528320Y273050D02*
X538640Y273050D01*
X528320Y273050D02*
X521970Y279400D01*
D35*
X521970Y279400D03*
D37*
X453630Y396960D02*
X453630Y407910D01*
X455930Y410210D01*
D35*
X455930Y410210D03*
D37*
X603090Y273050D02*
X614680Y273050D01*
D35*
X614680Y273050D03*
D37*
X595870Y396960D02*
X595870Y409970D01*
X595630Y410210D01*
D35*
X595630Y410210D03*
D32*
X363220Y133350D03*
D39*
X435610Y130390D02*
X475440Y130390D01*
X435610Y130390D02*
X414020Y130390D01*
X366180Y130390D01*
X363220Y133350D01*
X434730Y129510D02*
X434730Y109220D01*
X434730Y129510D02*
X435610Y130390D01*
D36*
X414020Y130390D02*
X414020Y122800D01*
D37*
X538480Y17780D02*
X549910Y17780D01*
X533400Y22860D02*
X533400Y62230D01*
X527050Y68580D01*
X495300Y68580D01*
X490220Y73660D01*
X490220Y125730D01*
X485560Y130390D01*
X475440Y130390D01*
X533400Y22860D02*
X538480Y17780D01*
D36*
X183510Y147520D02*
X165100Y165930D01*
X165100Y215900D01*
X171450Y222250D01*
X332740Y222250D01*
X341630Y213360D02*
X341630Y192880D01*
X341630Y213360D02*
X332740Y222250D01*
X341630Y192880D02*
X359180Y192880D01*
X359410Y192650D01*
X359640Y192880D01*
X377190Y192880D01*
D37*
X648580Y273050D02*
X650120Y274590D01*
X648580Y273050D02*
X664330Y273050D01*
M02*
