G04 EAGLE Gerber RS-274X export*
G75*
%MOMM*%
%FSLAX34Y34*%
%LPD*%
%INSilkscreen Bottom*%
%IPPOS*%
%AMOC8*
5,1,8,0,0,1.08239X$1,22.5*%
G01*
%ADD10C,0.076200*%
%ADD11C,0.203200*%


D10*
X553480Y66421D02*
X555117Y68467D01*
X547751Y68467D01*
X547751Y66421D02*
X547751Y70513D01*
X547751Y73383D02*
X548160Y73383D01*
X548160Y73792D01*
X547751Y73792D01*
X547751Y73383D01*
X547751Y80564D02*
X547751Y82610D01*
X547753Y82699D01*
X547759Y82788D01*
X547769Y82877D01*
X547782Y82965D01*
X547799Y83053D01*
X547821Y83140D01*
X547846Y83225D01*
X547874Y83310D01*
X547907Y83393D01*
X547943Y83475D01*
X547982Y83555D01*
X548025Y83633D01*
X548071Y83709D01*
X548121Y83784D01*
X548174Y83856D01*
X548230Y83925D01*
X548289Y83992D01*
X548350Y84057D01*
X548415Y84118D01*
X548482Y84177D01*
X548551Y84233D01*
X548623Y84286D01*
X548698Y84336D01*
X548774Y84382D01*
X548852Y84425D01*
X548932Y84464D01*
X549014Y84500D01*
X549097Y84533D01*
X549182Y84561D01*
X549267Y84586D01*
X549354Y84608D01*
X549442Y84625D01*
X549530Y84638D01*
X549619Y84648D01*
X549708Y84654D01*
X549797Y84656D01*
X549886Y84654D01*
X549975Y84648D01*
X550064Y84638D01*
X550152Y84625D01*
X550240Y84608D01*
X550327Y84586D01*
X550412Y84561D01*
X550497Y84533D01*
X550580Y84500D01*
X550662Y84464D01*
X550742Y84425D01*
X550820Y84382D01*
X550896Y84336D01*
X550971Y84286D01*
X551043Y84233D01*
X551112Y84177D01*
X551179Y84118D01*
X551244Y84057D01*
X551305Y83992D01*
X551364Y83925D01*
X551420Y83856D01*
X551473Y83784D01*
X551523Y83709D01*
X551569Y83633D01*
X551612Y83555D01*
X551651Y83475D01*
X551687Y83393D01*
X551720Y83310D01*
X551748Y83225D01*
X551773Y83140D01*
X551795Y83053D01*
X551812Y82965D01*
X551825Y82877D01*
X551835Y82788D01*
X551841Y82699D01*
X551843Y82610D01*
X555117Y83019D02*
X555117Y80564D01*
X555117Y83019D02*
X555115Y83098D01*
X555109Y83177D01*
X555100Y83256D01*
X555087Y83334D01*
X555069Y83411D01*
X555049Y83487D01*
X555024Y83562D01*
X554996Y83636D01*
X554965Y83709D01*
X554929Y83780D01*
X554891Y83849D01*
X554849Y83916D01*
X554804Y83981D01*
X554756Y84044D01*
X554705Y84105D01*
X554651Y84162D01*
X554595Y84218D01*
X554536Y84270D01*
X554474Y84320D01*
X554410Y84366D01*
X554344Y84410D01*
X554276Y84450D01*
X554206Y84486D01*
X554134Y84520D01*
X554060Y84550D01*
X553986Y84576D01*
X553910Y84599D01*
X553833Y84617D01*
X553756Y84633D01*
X553677Y84644D01*
X553599Y84652D01*
X553520Y84656D01*
X553440Y84656D01*
X553361Y84652D01*
X553283Y84644D01*
X553204Y84633D01*
X553127Y84617D01*
X553050Y84599D01*
X552974Y84576D01*
X552900Y84550D01*
X552826Y84520D01*
X552754Y84486D01*
X552684Y84450D01*
X552616Y84410D01*
X552550Y84366D01*
X552486Y84320D01*
X552424Y84270D01*
X552365Y84218D01*
X552309Y84162D01*
X552255Y84105D01*
X552204Y84044D01*
X552156Y83981D01*
X552111Y83916D01*
X552069Y83849D01*
X552031Y83780D01*
X551995Y83709D01*
X551964Y83636D01*
X551936Y83562D01*
X551911Y83487D01*
X551891Y83411D01*
X551873Y83334D01*
X551860Y83256D01*
X551851Y83177D01*
X551845Y83098D01*
X551843Y83019D01*
X551843Y81382D01*
X555117Y87470D02*
X547751Y89925D01*
X555117Y92380D01*
X547751Y95194D02*
X547751Y97240D01*
X547753Y97329D01*
X547759Y97418D01*
X547769Y97507D01*
X547782Y97595D01*
X547799Y97683D01*
X547821Y97770D01*
X547846Y97855D01*
X547874Y97940D01*
X547907Y98023D01*
X547943Y98105D01*
X547982Y98185D01*
X548025Y98263D01*
X548071Y98339D01*
X548121Y98414D01*
X548174Y98486D01*
X548230Y98555D01*
X548289Y98622D01*
X548350Y98687D01*
X548415Y98748D01*
X548482Y98807D01*
X548551Y98863D01*
X548623Y98916D01*
X548698Y98966D01*
X548774Y99012D01*
X548852Y99055D01*
X548932Y99094D01*
X549014Y99130D01*
X549097Y99163D01*
X549182Y99191D01*
X549267Y99216D01*
X549354Y99238D01*
X549442Y99255D01*
X549530Y99268D01*
X549619Y99278D01*
X549708Y99284D01*
X549797Y99286D01*
X549886Y99284D01*
X549975Y99278D01*
X550064Y99268D01*
X550152Y99255D01*
X550240Y99238D01*
X550327Y99216D01*
X550412Y99191D01*
X550497Y99163D01*
X550580Y99130D01*
X550662Y99094D01*
X550742Y99055D01*
X550820Y99012D01*
X550896Y98966D01*
X550971Y98916D01*
X551043Y98863D01*
X551112Y98807D01*
X551179Y98748D01*
X551244Y98687D01*
X551305Y98622D01*
X551364Y98555D01*
X551420Y98486D01*
X551473Y98414D01*
X551523Y98339D01*
X551569Y98263D01*
X551612Y98185D01*
X551651Y98105D01*
X551687Y98023D01*
X551720Y97940D01*
X551748Y97855D01*
X551773Y97770D01*
X551795Y97683D01*
X551812Y97595D01*
X551825Y97507D01*
X551835Y97418D01*
X551841Y97329D01*
X551843Y97240D01*
X555117Y97649D02*
X555117Y95194D01*
X555117Y97649D02*
X555115Y97728D01*
X555109Y97807D01*
X555100Y97886D01*
X555087Y97964D01*
X555069Y98041D01*
X555049Y98117D01*
X555024Y98192D01*
X554996Y98266D01*
X554965Y98339D01*
X554929Y98410D01*
X554891Y98479D01*
X554849Y98546D01*
X554804Y98611D01*
X554756Y98674D01*
X554705Y98735D01*
X554651Y98792D01*
X554595Y98848D01*
X554536Y98900D01*
X554474Y98950D01*
X554410Y98996D01*
X554344Y99040D01*
X554276Y99080D01*
X554206Y99116D01*
X554134Y99150D01*
X554060Y99180D01*
X553986Y99206D01*
X553910Y99229D01*
X553833Y99247D01*
X553756Y99263D01*
X553677Y99274D01*
X553599Y99282D01*
X553520Y99286D01*
X553440Y99286D01*
X553361Y99282D01*
X553283Y99274D01*
X553204Y99263D01*
X553127Y99247D01*
X553050Y99229D01*
X552974Y99206D01*
X552900Y99180D01*
X552826Y99150D01*
X552754Y99116D01*
X552684Y99080D01*
X552616Y99040D01*
X552550Y98996D01*
X552486Y98950D01*
X552424Y98900D01*
X552365Y98848D01*
X552309Y98792D01*
X552255Y98735D01*
X552204Y98674D01*
X552156Y98611D01*
X552111Y98546D01*
X552069Y98479D01*
X552031Y98410D01*
X551995Y98339D01*
X551964Y98266D01*
X551936Y98192D01*
X551911Y98117D01*
X551891Y98041D01*
X551873Y97964D01*
X551860Y97886D01*
X551851Y97807D01*
X551845Y97728D01*
X551843Y97649D01*
X551843Y96013D01*
X556388Y109312D02*
X556386Y109397D01*
X556380Y109482D01*
X556370Y109566D01*
X556357Y109650D01*
X556339Y109734D01*
X556318Y109816D01*
X556293Y109897D01*
X556264Y109977D01*
X556231Y110056D01*
X556195Y110133D01*
X556155Y110208D01*
X556112Y110282D01*
X556066Y110353D01*
X556016Y110422D01*
X555963Y110489D01*
X555907Y110553D01*
X555848Y110614D01*
X555787Y110673D01*
X555723Y110729D01*
X555656Y110782D01*
X555587Y110832D01*
X555516Y110878D01*
X555442Y110921D01*
X555367Y110961D01*
X555290Y110997D01*
X555211Y111030D01*
X555131Y111059D01*
X555050Y111084D01*
X554968Y111105D01*
X554884Y111123D01*
X554800Y111136D01*
X554716Y111146D01*
X554631Y111152D01*
X554546Y111154D01*
X556387Y109312D02*
X556385Y109216D01*
X556379Y109120D01*
X556369Y109025D01*
X556356Y108930D01*
X556338Y108835D01*
X556317Y108742D01*
X556292Y108649D01*
X556263Y108558D01*
X556231Y108467D01*
X556195Y108378D01*
X556155Y108291D01*
X556112Y108205D01*
X556066Y108121D01*
X556016Y108039D01*
X555962Y107959D01*
X555906Y107882D01*
X555846Y107807D01*
X555784Y107734D01*
X555718Y107664D01*
X555650Y107596D01*
X555579Y107531D01*
X555506Y107470D01*
X555430Y107411D01*
X555351Y107355D01*
X555271Y107303D01*
X555188Y107254D01*
X555104Y107208D01*
X555018Y107166D01*
X554930Y107128D01*
X554841Y107093D01*
X554750Y107061D01*
X553114Y110539D02*
X553173Y110599D01*
X553235Y110656D01*
X553299Y110711D01*
X553366Y110762D01*
X553435Y110811D01*
X553505Y110857D01*
X553578Y110900D01*
X553652Y110940D01*
X553728Y110976D01*
X553806Y111009D01*
X553885Y111039D01*
X553965Y111066D01*
X554046Y111089D01*
X554128Y111108D01*
X554210Y111124D01*
X554294Y111137D01*
X554378Y111146D01*
X554462Y111151D01*
X554546Y111153D01*
X553113Y110539D02*
X549021Y107061D01*
X549021Y111153D01*
X549021Y114023D02*
X549430Y114023D01*
X549430Y114432D01*
X549021Y114432D01*
X549021Y114023D01*
X549021Y122762D02*
X556387Y122762D01*
X556387Y120716D02*
X556387Y124808D01*
X556387Y127866D02*
X549021Y127866D01*
X552295Y130321D02*
X556387Y127866D01*
X552295Y130321D02*
X556387Y132776D01*
X549021Y132776D01*
X549021Y138533D02*
X549023Y138611D01*
X549028Y138689D01*
X549038Y138766D01*
X549051Y138843D01*
X549067Y138919D01*
X549087Y138994D01*
X549111Y139068D01*
X549138Y139141D01*
X549169Y139213D01*
X549203Y139283D01*
X549240Y139352D01*
X549281Y139418D01*
X549325Y139483D01*
X549371Y139545D01*
X549421Y139605D01*
X549473Y139663D01*
X549528Y139718D01*
X549586Y139770D01*
X549646Y139820D01*
X549708Y139866D01*
X549773Y139910D01*
X549840Y139951D01*
X549908Y139988D01*
X549978Y140022D01*
X550050Y140053D01*
X550123Y140080D01*
X550197Y140104D01*
X550272Y140124D01*
X550348Y140140D01*
X550425Y140153D01*
X550502Y140163D01*
X550580Y140168D01*
X550658Y140170D01*
X549021Y138533D02*
X549023Y138419D01*
X549028Y138306D01*
X549038Y138192D01*
X549051Y138079D01*
X549068Y137967D01*
X549088Y137855D01*
X549112Y137744D01*
X549140Y137633D01*
X549171Y137524D01*
X549206Y137416D01*
X549245Y137309D01*
X549287Y137203D01*
X549332Y137099D01*
X549381Y136996D01*
X549434Y136895D01*
X549489Y136796D01*
X549548Y136698D01*
X549610Y136603D01*
X549675Y136510D01*
X549743Y136418D01*
X549814Y136330D01*
X549888Y136243D01*
X549965Y136159D01*
X550044Y136078D01*
X554750Y136282D02*
X554828Y136284D01*
X554906Y136289D01*
X554983Y136299D01*
X555060Y136312D01*
X555136Y136328D01*
X555211Y136348D01*
X555285Y136372D01*
X555358Y136399D01*
X555430Y136430D01*
X555500Y136464D01*
X555569Y136501D01*
X555635Y136542D01*
X555700Y136586D01*
X555762Y136632D01*
X555822Y136682D01*
X555880Y136734D01*
X555935Y136789D01*
X555987Y136847D01*
X556037Y136907D01*
X556083Y136969D01*
X556127Y137034D01*
X556168Y137101D01*
X556205Y137169D01*
X556239Y137239D01*
X556270Y137311D01*
X556297Y137384D01*
X556321Y137458D01*
X556341Y137533D01*
X556357Y137609D01*
X556370Y137686D01*
X556380Y137763D01*
X556385Y137841D01*
X556387Y137919D01*
X556385Y138029D01*
X556379Y138138D01*
X556369Y138248D01*
X556356Y138356D01*
X556338Y138465D01*
X556317Y138572D01*
X556291Y138679D01*
X556262Y138785D01*
X556230Y138890D01*
X556193Y138993D01*
X556153Y139095D01*
X556109Y139196D01*
X556061Y139295D01*
X556011Y139392D01*
X555956Y139487D01*
X555898Y139580D01*
X555837Y139671D01*
X555773Y139760D01*
X553317Y137101D02*
X553359Y137034D01*
X553403Y136969D01*
X553451Y136907D01*
X553501Y136847D01*
X553554Y136789D01*
X553610Y136734D01*
X553669Y136682D01*
X553729Y136632D01*
X553793Y136585D01*
X553858Y136542D01*
X553925Y136501D01*
X553994Y136464D01*
X554065Y136430D01*
X554137Y136399D01*
X554211Y136372D01*
X554285Y136348D01*
X554361Y136328D01*
X554438Y136312D01*
X554515Y136299D01*
X554593Y136289D01*
X554672Y136284D01*
X554750Y136282D01*
X552090Y139352D02*
X552048Y139418D01*
X552004Y139483D01*
X551957Y139545D01*
X551906Y139605D01*
X551853Y139663D01*
X551797Y139718D01*
X551739Y139771D01*
X551678Y139820D01*
X551615Y139867D01*
X551550Y139910D01*
X551483Y139951D01*
X551414Y139988D01*
X551343Y140022D01*
X551271Y140053D01*
X551197Y140080D01*
X551122Y140104D01*
X551047Y140124D01*
X550970Y140140D01*
X550893Y140153D01*
X550815Y140163D01*
X550736Y140168D01*
X550658Y140170D01*
X552090Y139352D02*
X553318Y137101D01*
X573151Y68467D02*
X573151Y66421D01*
X573151Y68467D02*
X573153Y68556D01*
X573159Y68645D01*
X573169Y68734D01*
X573182Y68822D01*
X573199Y68910D01*
X573221Y68997D01*
X573246Y69082D01*
X573274Y69167D01*
X573307Y69250D01*
X573343Y69332D01*
X573382Y69412D01*
X573425Y69490D01*
X573471Y69566D01*
X573521Y69641D01*
X573574Y69713D01*
X573630Y69782D01*
X573689Y69849D01*
X573750Y69914D01*
X573815Y69975D01*
X573882Y70034D01*
X573951Y70090D01*
X574023Y70143D01*
X574098Y70193D01*
X574174Y70239D01*
X574252Y70282D01*
X574332Y70321D01*
X574414Y70357D01*
X574497Y70390D01*
X574582Y70418D01*
X574667Y70443D01*
X574754Y70465D01*
X574842Y70482D01*
X574930Y70495D01*
X575019Y70505D01*
X575108Y70511D01*
X575197Y70513D01*
X575286Y70511D01*
X575375Y70505D01*
X575464Y70495D01*
X575552Y70482D01*
X575640Y70465D01*
X575727Y70443D01*
X575812Y70418D01*
X575897Y70390D01*
X575980Y70357D01*
X576062Y70321D01*
X576142Y70282D01*
X576220Y70239D01*
X576296Y70193D01*
X576371Y70143D01*
X576443Y70090D01*
X576512Y70034D01*
X576579Y69975D01*
X576644Y69914D01*
X576705Y69849D01*
X576764Y69782D01*
X576820Y69713D01*
X576873Y69641D01*
X576923Y69566D01*
X576969Y69490D01*
X577012Y69412D01*
X577051Y69332D01*
X577087Y69250D01*
X577120Y69167D01*
X577148Y69082D01*
X577173Y68997D01*
X577195Y68910D01*
X577212Y68822D01*
X577225Y68734D01*
X577235Y68645D01*
X577241Y68556D01*
X577243Y68467D01*
X580517Y68876D02*
X580517Y66421D01*
X580517Y68876D02*
X580515Y68955D01*
X580509Y69034D01*
X580500Y69113D01*
X580487Y69191D01*
X580469Y69268D01*
X580449Y69344D01*
X580424Y69419D01*
X580396Y69493D01*
X580365Y69566D01*
X580329Y69637D01*
X580291Y69706D01*
X580249Y69773D01*
X580204Y69838D01*
X580156Y69901D01*
X580105Y69962D01*
X580051Y70019D01*
X579995Y70075D01*
X579936Y70127D01*
X579874Y70177D01*
X579810Y70223D01*
X579744Y70267D01*
X579676Y70307D01*
X579606Y70343D01*
X579534Y70377D01*
X579460Y70407D01*
X579386Y70433D01*
X579310Y70456D01*
X579233Y70474D01*
X579156Y70490D01*
X579077Y70501D01*
X578999Y70509D01*
X578920Y70513D01*
X578840Y70513D01*
X578761Y70509D01*
X578683Y70501D01*
X578604Y70490D01*
X578527Y70474D01*
X578450Y70456D01*
X578374Y70433D01*
X578300Y70407D01*
X578226Y70377D01*
X578154Y70343D01*
X578084Y70307D01*
X578016Y70267D01*
X577950Y70223D01*
X577886Y70177D01*
X577824Y70127D01*
X577765Y70075D01*
X577709Y70019D01*
X577655Y69962D01*
X577604Y69901D01*
X577556Y69838D01*
X577511Y69773D01*
X577469Y69706D01*
X577431Y69637D01*
X577395Y69566D01*
X577364Y69493D01*
X577336Y69419D01*
X577311Y69344D01*
X577291Y69268D01*
X577273Y69191D01*
X577260Y69113D01*
X577251Y69034D01*
X577245Y68955D01*
X577243Y68876D01*
X577243Y67239D01*
X573560Y73383D02*
X573151Y73383D01*
X573560Y73383D02*
X573560Y73792D01*
X573151Y73792D01*
X573151Y73383D01*
X577243Y83672D02*
X577243Y84900D01*
X573151Y84900D01*
X573151Y82444D01*
X573153Y82366D01*
X573158Y82288D01*
X573168Y82211D01*
X573181Y82134D01*
X573197Y82058D01*
X573217Y81983D01*
X573241Y81909D01*
X573268Y81836D01*
X573299Y81764D01*
X573333Y81694D01*
X573370Y81626D01*
X573411Y81559D01*
X573455Y81494D01*
X573501Y81432D01*
X573551Y81372D01*
X573603Y81314D01*
X573658Y81259D01*
X573716Y81207D01*
X573776Y81157D01*
X573838Y81111D01*
X573903Y81067D01*
X573970Y81026D01*
X574038Y80989D01*
X574108Y80955D01*
X574180Y80924D01*
X574253Y80897D01*
X574327Y80873D01*
X574402Y80853D01*
X574478Y80837D01*
X574555Y80824D01*
X574632Y80814D01*
X574710Y80809D01*
X574788Y80807D01*
X574788Y80808D02*
X578880Y80808D01*
X578880Y80807D02*
X578958Y80809D01*
X579036Y80814D01*
X579113Y80824D01*
X579190Y80837D01*
X579266Y80853D01*
X579341Y80873D01*
X579415Y80897D01*
X579488Y80924D01*
X579560Y80955D01*
X579630Y80989D01*
X579699Y81026D01*
X579765Y81067D01*
X579830Y81111D01*
X579892Y81157D01*
X579952Y81207D01*
X580010Y81259D01*
X580065Y81314D01*
X580117Y81372D01*
X580167Y81432D01*
X580213Y81494D01*
X580257Y81559D01*
X580298Y81626D01*
X580335Y81694D01*
X580369Y81764D01*
X580400Y81836D01*
X580427Y81909D01*
X580451Y81983D01*
X580471Y82058D01*
X580487Y82134D01*
X580500Y82211D01*
X580510Y82288D01*
X580515Y82366D01*
X580517Y82444D01*
X580517Y84900D01*
X580517Y88610D02*
X573151Y88610D01*
X573151Y92703D02*
X580517Y88610D01*
X580517Y92703D02*
X573151Y92703D01*
X573151Y96413D02*
X580517Y96413D01*
X580517Y98459D01*
X580515Y98548D01*
X580509Y98637D01*
X580499Y98726D01*
X580486Y98814D01*
X580469Y98902D01*
X580447Y98989D01*
X580422Y99074D01*
X580394Y99159D01*
X580361Y99242D01*
X580325Y99324D01*
X580286Y99404D01*
X580243Y99482D01*
X580197Y99558D01*
X580147Y99633D01*
X580094Y99705D01*
X580038Y99774D01*
X579979Y99841D01*
X579918Y99906D01*
X579853Y99967D01*
X579786Y100026D01*
X579717Y100082D01*
X579645Y100135D01*
X579570Y100185D01*
X579494Y100231D01*
X579416Y100274D01*
X579336Y100313D01*
X579254Y100349D01*
X579171Y100382D01*
X579086Y100410D01*
X579001Y100435D01*
X578914Y100457D01*
X578826Y100474D01*
X578738Y100487D01*
X578649Y100497D01*
X578560Y100503D01*
X578471Y100505D01*
X575197Y100505D01*
X575108Y100503D01*
X575019Y100497D01*
X574930Y100487D01*
X574842Y100474D01*
X574754Y100457D01*
X574667Y100435D01*
X574582Y100410D01*
X574497Y100382D01*
X574414Y100349D01*
X574332Y100313D01*
X574252Y100274D01*
X574174Y100231D01*
X574098Y100185D01*
X574023Y100135D01*
X573951Y100082D01*
X573882Y100026D01*
X573815Y99967D01*
X573750Y99906D01*
X573689Y99841D01*
X573630Y99774D01*
X573574Y99705D01*
X573521Y99633D01*
X573471Y99558D01*
X573425Y99482D01*
X573382Y99404D01*
X573343Y99324D01*
X573307Y99242D01*
X573274Y99159D01*
X573246Y99074D01*
X573221Y98989D01*
X573199Y98902D01*
X573182Y98814D01*
X573169Y98726D01*
X573159Y98637D01*
X573153Y98548D01*
X573151Y98459D01*
X573151Y96413D01*
X597281Y68876D02*
X597281Y66421D01*
X597281Y68876D02*
X597283Y68956D01*
X597289Y69036D01*
X597299Y69116D01*
X597312Y69195D01*
X597330Y69274D01*
X597351Y69351D01*
X597377Y69427D01*
X597406Y69502D01*
X597438Y69576D01*
X597474Y69648D01*
X597514Y69718D01*
X597557Y69785D01*
X597603Y69851D01*
X597653Y69914D01*
X597705Y69975D01*
X597760Y70034D01*
X597819Y70089D01*
X597879Y70141D01*
X597943Y70191D01*
X598009Y70237D01*
X598076Y70280D01*
X598146Y70320D01*
X598218Y70356D01*
X598292Y70388D01*
X598366Y70417D01*
X598443Y70443D01*
X598520Y70464D01*
X598599Y70482D01*
X598678Y70495D01*
X598758Y70505D01*
X598838Y70511D01*
X598918Y70513D01*
X599736Y70513D01*
X599814Y70511D01*
X599892Y70506D01*
X599969Y70496D01*
X600046Y70483D01*
X600122Y70467D01*
X600197Y70447D01*
X600271Y70423D01*
X600344Y70396D01*
X600416Y70365D01*
X600486Y70331D01*
X600555Y70294D01*
X600621Y70253D01*
X600686Y70209D01*
X600748Y70163D01*
X600808Y70113D01*
X600866Y70061D01*
X600921Y70006D01*
X600973Y69948D01*
X601023Y69888D01*
X601069Y69826D01*
X601113Y69761D01*
X601154Y69695D01*
X601191Y69626D01*
X601225Y69556D01*
X601256Y69484D01*
X601283Y69411D01*
X601307Y69337D01*
X601327Y69262D01*
X601343Y69186D01*
X601356Y69109D01*
X601366Y69032D01*
X601371Y68954D01*
X601373Y68876D01*
X601373Y66421D01*
X604647Y66421D01*
X604647Y70513D01*
X597690Y73383D02*
X597281Y73383D01*
X597690Y73383D02*
X597690Y73792D01*
X597281Y73792D01*
X597281Y73383D01*
X597281Y80859D02*
X604647Y80859D01*
X604647Y82905D01*
X604645Y82994D01*
X604639Y83083D01*
X604629Y83172D01*
X604616Y83260D01*
X604599Y83348D01*
X604577Y83435D01*
X604552Y83520D01*
X604524Y83605D01*
X604491Y83688D01*
X604455Y83770D01*
X604416Y83850D01*
X604373Y83928D01*
X604327Y84004D01*
X604277Y84079D01*
X604224Y84151D01*
X604168Y84220D01*
X604109Y84287D01*
X604048Y84352D01*
X603983Y84413D01*
X603916Y84472D01*
X603847Y84528D01*
X603775Y84581D01*
X603700Y84631D01*
X603624Y84677D01*
X603546Y84720D01*
X603466Y84759D01*
X603384Y84795D01*
X603301Y84828D01*
X603216Y84856D01*
X603131Y84881D01*
X603044Y84903D01*
X602956Y84920D01*
X602868Y84933D01*
X602779Y84943D01*
X602690Y84949D01*
X602601Y84951D01*
X602512Y84949D01*
X602423Y84943D01*
X602334Y84933D01*
X602246Y84920D01*
X602158Y84903D01*
X602071Y84881D01*
X601986Y84856D01*
X601901Y84828D01*
X601818Y84795D01*
X601736Y84759D01*
X601656Y84720D01*
X601578Y84677D01*
X601502Y84631D01*
X601427Y84581D01*
X601355Y84528D01*
X601286Y84472D01*
X601219Y84413D01*
X601154Y84352D01*
X601093Y84287D01*
X601034Y84220D01*
X600978Y84151D01*
X600925Y84079D01*
X600875Y84004D01*
X600829Y83928D01*
X600786Y83850D01*
X600747Y83770D01*
X600711Y83688D01*
X600678Y83605D01*
X600650Y83520D01*
X600625Y83435D01*
X600603Y83348D01*
X600586Y83260D01*
X600573Y83172D01*
X600563Y83083D01*
X600557Y82994D01*
X600555Y82905D01*
X600555Y80859D01*
X600555Y83314D02*
X597281Y84951D01*
X597281Y87713D02*
X604647Y92624D01*
X604647Y87713D02*
X597281Y92624D01*
X629229Y66421D02*
X630047Y66421D01*
X630047Y70513D01*
X622681Y68467D01*
X622681Y73383D02*
X623090Y73383D01*
X623090Y73792D01*
X622681Y73792D01*
X622681Y73383D01*
X622681Y82122D02*
X630047Y82122D01*
X630047Y80076D02*
X630047Y84168D01*
X630047Y91405D02*
X622681Y86494D01*
X622681Y91405D02*
X630047Y86494D01*
X580517Y108698D02*
X574788Y107061D01*
X574788Y111153D01*
X576425Y109926D02*
X573151Y109926D01*
X573151Y114023D02*
X573560Y114023D01*
X573560Y114432D01*
X573151Y114432D01*
X573151Y114023D01*
X573151Y122762D02*
X580517Y122762D01*
X580517Y120716D02*
X580517Y124808D01*
X573151Y129157D02*
X573151Y130794D01*
X573151Y129157D02*
X573153Y129079D01*
X573158Y129001D01*
X573168Y128924D01*
X573181Y128847D01*
X573197Y128771D01*
X573217Y128696D01*
X573241Y128622D01*
X573268Y128549D01*
X573299Y128477D01*
X573333Y128407D01*
X573370Y128339D01*
X573411Y128272D01*
X573455Y128207D01*
X573501Y128145D01*
X573551Y128085D01*
X573603Y128027D01*
X573658Y127972D01*
X573716Y127920D01*
X573776Y127870D01*
X573838Y127824D01*
X573903Y127780D01*
X573970Y127739D01*
X574038Y127702D01*
X574108Y127668D01*
X574180Y127637D01*
X574253Y127610D01*
X574327Y127586D01*
X574402Y127566D01*
X574478Y127550D01*
X574555Y127537D01*
X574632Y127527D01*
X574710Y127522D01*
X574788Y127520D01*
X578880Y127520D01*
X578958Y127522D01*
X579036Y127527D01*
X579113Y127537D01*
X579190Y127550D01*
X579266Y127566D01*
X579341Y127586D01*
X579415Y127610D01*
X579488Y127637D01*
X579560Y127668D01*
X579630Y127702D01*
X579699Y127739D01*
X579765Y127780D01*
X579830Y127824D01*
X579892Y127870D01*
X579952Y127920D01*
X580010Y127972D01*
X580065Y128027D01*
X580117Y128085D01*
X580167Y128145D01*
X580213Y128207D01*
X580257Y128272D01*
X580298Y128339D01*
X580335Y128407D01*
X580369Y128477D01*
X580400Y128549D01*
X580427Y128622D01*
X580451Y128696D01*
X580471Y128771D01*
X580487Y128847D01*
X580500Y128924D01*
X580510Y129001D01*
X580515Y129079D01*
X580517Y129157D01*
X580517Y130794D01*
X580517Y134001D02*
X573151Y134001D01*
X576016Y134001D02*
X580517Y138093D01*
X577652Y135638D02*
X573151Y138093D01*
X602643Y109516D02*
X602643Y107061D01*
X602643Y109516D02*
X602641Y109594D01*
X602636Y109672D01*
X602626Y109749D01*
X602613Y109826D01*
X602597Y109902D01*
X602577Y109977D01*
X602553Y110051D01*
X602526Y110124D01*
X602495Y110196D01*
X602461Y110266D01*
X602424Y110335D01*
X602383Y110401D01*
X602339Y110466D01*
X602293Y110528D01*
X602243Y110588D01*
X602191Y110646D01*
X602136Y110701D01*
X602078Y110753D01*
X602018Y110803D01*
X601956Y110849D01*
X601891Y110893D01*
X601825Y110934D01*
X601756Y110971D01*
X601686Y111005D01*
X601614Y111036D01*
X601541Y111063D01*
X601467Y111087D01*
X601392Y111107D01*
X601316Y111123D01*
X601239Y111136D01*
X601162Y111146D01*
X601084Y111151D01*
X601006Y111153D01*
X600597Y111153D01*
X600508Y111151D01*
X600419Y111145D01*
X600330Y111135D01*
X600242Y111122D01*
X600154Y111105D01*
X600067Y111083D01*
X599982Y111058D01*
X599897Y111030D01*
X599814Y110997D01*
X599732Y110961D01*
X599652Y110922D01*
X599574Y110879D01*
X599498Y110833D01*
X599423Y110783D01*
X599351Y110730D01*
X599282Y110674D01*
X599215Y110615D01*
X599150Y110554D01*
X599089Y110489D01*
X599030Y110422D01*
X598974Y110353D01*
X598921Y110281D01*
X598871Y110206D01*
X598825Y110130D01*
X598782Y110052D01*
X598743Y109972D01*
X598707Y109890D01*
X598674Y109807D01*
X598646Y109722D01*
X598621Y109637D01*
X598599Y109550D01*
X598582Y109462D01*
X598569Y109374D01*
X598559Y109285D01*
X598553Y109196D01*
X598551Y109107D01*
X598553Y109018D01*
X598559Y108929D01*
X598569Y108840D01*
X598582Y108752D01*
X598599Y108664D01*
X598621Y108577D01*
X598646Y108492D01*
X598674Y108407D01*
X598707Y108324D01*
X598743Y108242D01*
X598782Y108162D01*
X598825Y108084D01*
X598871Y108008D01*
X598921Y107933D01*
X598974Y107861D01*
X599030Y107792D01*
X599089Y107725D01*
X599150Y107660D01*
X599215Y107599D01*
X599282Y107540D01*
X599351Y107484D01*
X599423Y107431D01*
X599498Y107381D01*
X599574Y107335D01*
X599652Y107292D01*
X599732Y107253D01*
X599814Y107217D01*
X599897Y107184D01*
X599982Y107156D01*
X600067Y107131D01*
X600154Y107109D01*
X600242Y107092D01*
X600330Y107079D01*
X600419Y107069D01*
X600508Y107063D01*
X600597Y107061D01*
X602643Y107061D01*
X602757Y107063D01*
X602871Y107069D01*
X602985Y107079D01*
X603099Y107093D01*
X603212Y107111D01*
X603324Y107133D01*
X603435Y107158D01*
X603545Y107188D01*
X603655Y107221D01*
X603763Y107258D01*
X603869Y107299D01*
X603975Y107344D01*
X604078Y107392D01*
X604180Y107444D01*
X604280Y107500D01*
X604378Y107558D01*
X604474Y107621D01*
X604567Y107686D01*
X604659Y107755D01*
X604747Y107827D01*
X604834Y107902D01*
X604917Y107980D01*
X604998Y108061D01*
X605076Y108144D01*
X605151Y108231D01*
X605223Y108319D01*
X605292Y108411D01*
X605357Y108504D01*
X605419Y108600D01*
X605478Y108698D01*
X605534Y108798D01*
X605586Y108900D01*
X605634Y109003D01*
X605679Y109109D01*
X605720Y109215D01*
X605757Y109323D01*
X605790Y109433D01*
X605820Y109543D01*
X605845Y109654D01*
X605867Y109766D01*
X605885Y109879D01*
X605899Y109993D01*
X605909Y110107D01*
X605915Y110221D01*
X605917Y110335D01*
X598960Y114023D02*
X598551Y114023D01*
X598960Y114023D02*
X598960Y114432D01*
X598551Y114432D01*
X598551Y114023D01*
X598551Y122762D02*
X605917Y122762D01*
X605917Y120716D02*
X605917Y124808D01*
X605917Y127787D02*
X598551Y127787D01*
X605917Y127787D02*
X605917Y129833D01*
X605915Y129922D01*
X605909Y130011D01*
X605899Y130100D01*
X605886Y130188D01*
X605869Y130276D01*
X605847Y130363D01*
X605822Y130448D01*
X605794Y130533D01*
X605761Y130616D01*
X605725Y130698D01*
X605686Y130778D01*
X605643Y130856D01*
X605597Y130932D01*
X605547Y131007D01*
X605494Y131079D01*
X605438Y131148D01*
X605379Y131215D01*
X605318Y131280D01*
X605253Y131341D01*
X605186Y131400D01*
X605117Y131456D01*
X605045Y131509D01*
X604970Y131559D01*
X604894Y131605D01*
X604816Y131648D01*
X604736Y131687D01*
X604654Y131723D01*
X604571Y131756D01*
X604486Y131784D01*
X604401Y131809D01*
X604314Y131831D01*
X604226Y131848D01*
X604138Y131861D01*
X604049Y131871D01*
X603960Y131877D01*
X603871Y131879D01*
X603871Y131880D02*
X600597Y131880D01*
X600597Y131879D02*
X600508Y131877D01*
X600419Y131871D01*
X600330Y131861D01*
X600242Y131848D01*
X600154Y131831D01*
X600067Y131809D01*
X599982Y131784D01*
X599897Y131756D01*
X599814Y131723D01*
X599732Y131687D01*
X599652Y131648D01*
X599574Y131605D01*
X599498Y131559D01*
X599423Y131509D01*
X599351Y131456D01*
X599282Y131400D01*
X599215Y131341D01*
X599150Y131280D01*
X599089Y131215D01*
X599030Y131148D01*
X598974Y131079D01*
X598921Y131007D01*
X598871Y130932D01*
X598825Y130856D01*
X598782Y130778D01*
X598743Y130698D01*
X598707Y130616D01*
X598674Y130533D01*
X598646Y130448D01*
X598621Y130363D01*
X598599Y130276D01*
X598582Y130188D01*
X598569Y130100D01*
X598559Y130011D01*
X598553Y129922D01*
X598551Y129833D01*
X598551Y127787D01*
X600597Y135346D02*
X603871Y135346D01*
X603960Y135348D01*
X604049Y135354D01*
X604138Y135364D01*
X604226Y135377D01*
X604314Y135394D01*
X604401Y135416D01*
X604486Y135441D01*
X604571Y135469D01*
X604654Y135502D01*
X604736Y135538D01*
X604816Y135577D01*
X604894Y135620D01*
X604970Y135666D01*
X605045Y135716D01*
X605117Y135769D01*
X605186Y135825D01*
X605253Y135884D01*
X605318Y135945D01*
X605379Y136010D01*
X605438Y136077D01*
X605494Y136146D01*
X605547Y136218D01*
X605597Y136293D01*
X605643Y136369D01*
X605686Y136447D01*
X605725Y136527D01*
X605761Y136609D01*
X605794Y136692D01*
X605822Y136777D01*
X605847Y136862D01*
X605869Y136949D01*
X605886Y137037D01*
X605899Y137125D01*
X605909Y137214D01*
X605915Y137303D01*
X605917Y137392D01*
X605915Y137481D01*
X605909Y137570D01*
X605899Y137659D01*
X605886Y137747D01*
X605869Y137835D01*
X605847Y137922D01*
X605822Y138007D01*
X605794Y138092D01*
X605761Y138175D01*
X605725Y138257D01*
X605686Y138337D01*
X605643Y138415D01*
X605597Y138491D01*
X605547Y138566D01*
X605494Y138638D01*
X605438Y138707D01*
X605379Y138774D01*
X605318Y138839D01*
X605253Y138900D01*
X605186Y138959D01*
X605117Y139015D01*
X605045Y139068D01*
X604970Y139118D01*
X604894Y139164D01*
X604816Y139207D01*
X604736Y139246D01*
X604654Y139282D01*
X604571Y139315D01*
X604486Y139343D01*
X604401Y139368D01*
X604314Y139390D01*
X604226Y139407D01*
X604138Y139420D01*
X604049Y139430D01*
X603960Y139436D01*
X603871Y139438D01*
X603871Y139439D02*
X600597Y139439D01*
X600597Y139438D02*
X600508Y139436D01*
X600419Y139430D01*
X600330Y139420D01*
X600242Y139407D01*
X600154Y139390D01*
X600067Y139368D01*
X599982Y139343D01*
X599897Y139315D01*
X599814Y139282D01*
X599732Y139246D01*
X599652Y139207D01*
X599574Y139164D01*
X599498Y139118D01*
X599423Y139068D01*
X599351Y139015D01*
X599282Y138959D01*
X599215Y138900D01*
X599150Y138839D01*
X599089Y138774D01*
X599030Y138707D01*
X598974Y138638D01*
X598921Y138566D01*
X598871Y138491D01*
X598825Y138415D01*
X598782Y138337D01*
X598743Y138257D01*
X598707Y138175D01*
X598674Y138092D01*
X598646Y138007D01*
X598621Y137922D01*
X598599Y137835D01*
X598582Y137747D01*
X598569Y137659D01*
X598559Y137570D01*
X598553Y137481D01*
X598551Y137392D01*
X598553Y137303D01*
X598559Y137214D01*
X598569Y137125D01*
X598582Y137037D01*
X598599Y136949D01*
X598621Y136862D01*
X598646Y136777D01*
X598674Y136692D01*
X598707Y136609D01*
X598743Y136527D01*
X598782Y136447D01*
X598825Y136369D01*
X598871Y136293D01*
X598921Y136218D01*
X598974Y136146D01*
X599030Y136077D01*
X599089Y136010D01*
X599150Y135945D01*
X599215Y135884D01*
X599282Y135825D01*
X599351Y135769D01*
X599423Y135716D01*
X599498Y135666D01*
X599574Y135620D01*
X599652Y135577D01*
X599732Y135538D01*
X599814Y135502D01*
X599897Y135469D01*
X599982Y135441D01*
X600067Y135416D01*
X600154Y135394D01*
X600242Y135377D01*
X600330Y135364D01*
X600419Y135354D01*
X600508Y135348D01*
X600597Y135346D01*
X627267Y111153D02*
X627356Y111151D01*
X627445Y111145D01*
X627534Y111135D01*
X627622Y111122D01*
X627710Y111105D01*
X627797Y111083D01*
X627882Y111058D01*
X627967Y111030D01*
X628050Y110997D01*
X628132Y110961D01*
X628212Y110922D01*
X628290Y110879D01*
X628366Y110833D01*
X628441Y110783D01*
X628513Y110730D01*
X628582Y110674D01*
X628649Y110615D01*
X628714Y110554D01*
X628775Y110489D01*
X628834Y110422D01*
X628890Y110353D01*
X628943Y110281D01*
X628993Y110206D01*
X629039Y110130D01*
X629082Y110052D01*
X629121Y109972D01*
X629157Y109890D01*
X629190Y109807D01*
X629218Y109722D01*
X629243Y109637D01*
X629265Y109550D01*
X629282Y109462D01*
X629295Y109374D01*
X629305Y109285D01*
X629311Y109196D01*
X629313Y109107D01*
X629311Y109018D01*
X629305Y108929D01*
X629295Y108840D01*
X629282Y108752D01*
X629265Y108664D01*
X629243Y108577D01*
X629218Y108492D01*
X629190Y108407D01*
X629157Y108324D01*
X629121Y108242D01*
X629082Y108162D01*
X629039Y108084D01*
X628993Y108008D01*
X628943Y107933D01*
X628890Y107861D01*
X628834Y107792D01*
X628775Y107725D01*
X628714Y107660D01*
X628649Y107599D01*
X628582Y107540D01*
X628513Y107484D01*
X628441Y107431D01*
X628366Y107381D01*
X628290Y107335D01*
X628212Y107292D01*
X628132Y107253D01*
X628050Y107217D01*
X627967Y107184D01*
X627882Y107156D01*
X627797Y107131D01*
X627710Y107109D01*
X627622Y107092D01*
X627534Y107079D01*
X627445Y107069D01*
X627356Y107063D01*
X627267Y107061D01*
X627178Y107063D01*
X627089Y107069D01*
X627000Y107079D01*
X626912Y107092D01*
X626824Y107109D01*
X626737Y107131D01*
X626652Y107156D01*
X626567Y107184D01*
X626484Y107217D01*
X626402Y107253D01*
X626322Y107292D01*
X626244Y107335D01*
X626168Y107381D01*
X626093Y107431D01*
X626021Y107484D01*
X625952Y107540D01*
X625885Y107599D01*
X625820Y107660D01*
X625759Y107725D01*
X625700Y107792D01*
X625644Y107861D01*
X625591Y107933D01*
X625541Y108008D01*
X625495Y108084D01*
X625452Y108162D01*
X625413Y108242D01*
X625377Y108324D01*
X625344Y108407D01*
X625316Y108492D01*
X625291Y108577D01*
X625269Y108664D01*
X625252Y108752D01*
X625239Y108840D01*
X625229Y108929D01*
X625223Y109018D01*
X625221Y109107D01*
X625223Y109196D01*
X625229Y109285D01*
X625239Y109374D01*
X625252Y109462D01*
X625269Y109550D01*
X625291Y109637D01*
X625316Y109722D01*
X625344Y109807D01*
X625377Y109890D01*
X625413Y109972D01*
X625452Y110052D01*
X625495Y110130D01*
X625541Y110206D01*
X625591Y110281D01*
X625644Y110353D01*
X625700Y110422D01*
X625759Y110489D01*
X625820Y110554D01*
X625885Y110615D01*
X625952Y110674D01*
X626021Y110730D01*
X626093Y110783D01*
X626168Y110833D01*
X626244Y110879D01*
X626322Y110922D01*
X626402Y110961D01*
X626484Y110997D01*
X626567Y111030D01*
X626652Y111058D01*
X626737Y111083D01*
X626824Y111105D01*
X626912Y111122D01*
X627000Y111135D01*
X627089Y111145D01*
X627178Y111151D01*
X627267Y111153D01*
X630950Y110744D02*
X631029Y110742D01*
X631108Y110736D01*
X631187Y110727D01*
X631265Y110714D01*
X631342Y110696D01*
X631418Y110676D01*
X631493Y110651D01*
X631567Y110623D01*
X631640Y110592D01*
X631711Y110556D01*
X631780Y110518D01*
X631847Y110476D01*
X631912Y110431D01*
X631975Y110383D01*
X632036Y110332D01*
X632093Y110278D01*
X632149Y110222D01*
X632201Y110163D01*
X632251Y110101D01*
X632297Y110037D01*
X632341Y109971D01*
X632381Y109903D01*
X632417Y109833D01*
X632451Y109761D01*
X632481Y109687D01*
X632507Y109613D01*
X632530Y109537D01*
X632548Y109460D01*
X632564Y109383D01*
X632575Y109304D01*
X632583Y109226D01*
X632587Y109147D01*
X632587Y109067D01*
X632583Y108988D01*
X632575Y108910D01*
X632564Y108831D01*
X632548Y108754D01*
X632530Y108677D01*
X632507Y108601D01*
X632481Y108527D01*
X632451Y108453D01*
X632417Y108381D01*
X632381Y108311D01*
X632341Y108243D01*
X632297Y108177D01*
X632251Y108113D01*
X632201Y108051D01*
X632149Y107992D01*
X632093Y107936D01*
X632036Y107882D01*
X631975Y107831D01*
X631912Y107783D01*
X631847Y107738D01*
X631780Y107696D01*
X631711Y107658D01*
X631640Y107622D01*
X631567Y107591D01*
X631493Y107563D01*
X631418Y107538D01*
X631342Y107518D01*
X631265Y107500D01*
X631187Y107487D01*
X631108Y107478D01*
X631029Y107472D01*
X630950Y107470D01*
X630871Y107472D01*
X630792Y107478D01*
X630713Y107487D01*
X630635Y107500D01*
X630558Y107518D01*
X630482Y107538D01*
X630407Y107563D01*
X630333Y107591D01*
X630260Y107622D01*
X630189Y107658D01*
X630120Y107696D01*
X630053Y107738D01*
X629988Y107783D01*
X629925Y107831D01*
X629864Y107882D01*
X629807Y107936D01*
X629751Y107992D01*
X629699Y108051D01*
X629649Y108113D01*
X629603Y108177D01*
X629559Y108243D01*
X629519Y108311D01*
X629483Y108381D01*
X629449Y108453D01*
X629419Y108527D01*
X629393Y108601D01*
X629370Y108677D01*
X629352Y108754D01*
X629336Y108831D01*
X629325Y108910D01*
X629317Y108988D01*
X629313Y109067D01*
X629313Y109147D01*
X629317Y109226D01*
X629325Y109304D01*
X629336Y109383D01*
X629352Y109460D01*
X629370Y109537D01*
X629393Y109613D01*
X629419Y109687D01*
X629449Y109761D01*
X629483Y109833D01*
X629519Y109903D01*
X629559Y109971D01*
X629603Y110037D01*
X629649Y110101D01*
X629699Y110163D01*
X629751Y110222D01*
X629807Y110278D01*
X629864Y110332D01*
X629925Y110383D01*
X629988Y110431D01*
X630053Y110476D01*
X630120Y110518D01*
X630189Y110556D01*
X630260Y110592D01*
X630333Y110623D01*
X630407Y110651D01*
X630482Y110676D01*
X630558Y110696D01*
X630635Y110714D01*
X630713Y110727D01*
X630792Y110736D01*
X630871Y110742D01*
X630950Y110744D01*
X625630Y114023D02*
X625221Y114023D01*
X625630Y114023D02*
X625630Y114432D01*
X625221Y114432D01*
X625221Y114023D01*
X625221Y122762D02*
X632587Y122762D01*
X632587Y120716D02*
X632587Y124808D01*
X632587Y127787D02*
X625221Y127787D01*
X632587Y127787D02*
X632587Y129833D01*
X632585Y129922D01*
X632579Y130011D01*
X632569Y130100D01*
X632556Y130188D01*
X632539Y130276D01*
X632517Y130363D01*
X632492Y130448D01*
X632464Y130533D01*
X632431Y130616D01*
X632395Y130698D01*
X632356Y130778D01*
X632313Y130856D01*
X632267Y130932D01*
X632217Y131007D01*
X632164Y131079D01*
X632108Y131148D01*
X632049Y131215D01*
X631988Y131280D01*
X631923Y131341D01*
X631856Y131400D01*
X631787Y131456D01*
X631715Y131509D01*
X631640Y131559D01*
X631564Y131605D01*
X631486Y131648D01*
X631406Y131687D01*
X631324Y131723D01*
X631241Y131756D01*
X631156Y131784D01*
X631071Y131809D01*
X630984Y131831D01*
X630896Y131848D01*
X630808Y131861D01*
X630719Y131871D01*
X630630Y131877D01*
X630541Y131879D01*
X630541Y131880D02*
X627267Y131880D01*
X627267Y131879D02*
X627178Y131877D01*
X627089Y131871D01*
X627000Y131861D01*
X626912Y131848D01*
X626824Y131831D01*
X626737Y131809D01*
X626652Y131784D01*
X626567Y131756D01*
X626484Y131723D01*
X626402Y131687D01*
X626322Y131648D01*
X626244Y131605D01*
X626168Y131559D01*
X626093Y131509D01*
X626021Y131456D01*
X625952Y131400D01*
X625885Y131341D01*
X625820Y131280D01*
X625759Y131215D01*
X625700Y131148D01*
X625644Y131079D01*
X625591Y131007D01*
X625541Y130932D01*
X625495Y130856D01*
X625452Y130778D01*
X625413Y130698D01*
X625377Y130616D01*
X625344Y130533D01*
X625316Y130448D01*
X625291Y130363D01*
X625269Y130276D01*
X625252Y130188D01*
X625239Y130100D01*
X625229Y130011D01*
X625223Y129922D01*
X625221Y129833D01*
X625221Y127787D01*
X625221Y135929D02*
X632587Y135929D01*
X625221Y135111D02*
X625221Y136748D01*
X632587Y136748D02*
X632587Y135111D01*
D11*
X67277Y432816D02*
X65471Y432816D01*
X67277Y432816D02*
X67360Y432818D01*
X67444Y432824D01*
X67527Y432833D01*
X67609Y432847D01*
X67690Y432864D01*
X67771Y432885D01*
X67851Y432910D01*
X67929Y432938D01*
X68006Y432970D01*
X68082Y433005D01*
X68156Y433044D01*
X68228Y433087D01*
X68298Y433132D01*
X68365Y433181D01*
X68431Y433233D01*
X68494Y433287D01*
X68554Y433345D01*
X68612Y433405D01*
X68666Y433468D01*
X68718Y433534D01*
X68767Y433601D01*
X68813Y433671D01*
X68855Y433743D01*
X68894Y433817D01*
X68929Y433893D01*
X68961Y433970D01*
X68989Y434048D01*
X69014Y434128D01*
X69035Y434209D01*
X69052Y434290D01*
X69066Y434373D01*
X69075Y434455D01*
X69081Y434539D01*
X69083Y434622D01*
X69083Y439138D01*
X69081Y439221D01*
X69075Y439305D01*
X69066Y439388D01*
X69052Y439470D01*
X69035Y439551D01*
X69014Y439632D01*
X68989Y439712D01*
X68961Y439790D01*
X68929Y439867D01*
X68894Y439943D01*
X68855Y440017D01*
X68813Y440089D01*
X68767Y440159D01*
X68718Y440226D01*
X68666Y440292D01*
X68612Y440355D01*
X68554Y440415D01*
X68494Y440473D01*
X68431Y440527D01*
X68365Y440579D01*
X68298Y440628D01*
X68228Y440673D01*
X68156Y440716D01*
X68082Y440755D01*
X68007Y440790D01*
X67929Y440822D01*
X67851Y440850D01*
X67771Y440875D01*
X67691Y440896D01*
X67609Y440913D01*
X67527Y440927D01*
X67444Y440936D01*
X67360Y440942D01*
X67277Y440944D01*
X65471Y440944D01*
X61417Y439138D02*
X59159Y440944D01*
X59159Y432816D01*
X61417Y432816D02*
X56901Y432816D01*
X52273Y439138D02*
X50015Y440944D01*
X50015Y432816D01*
X52273Y432816D02*
X47757Y432816D01*
X338521Y431546D02*
X340327Y431546D01*
X340410Y431548D01*
X340494Y431554D01*
X340577Y431563D01*
X340659Y431577D01*
X340740Y431594D01*
X340821Y431615D01*
X340901Y431640D01*
X340979Y431668D01*
X341056Y431700D01*
X341132Y431735D01*
X341206Y431774D01*
X341278Y431817D01*
X341348Y431862D01*
X341415Y431911D01*
X341481Y431963D01*
X341544Y432017D01*
X341604Y432075D01*
X341662Y432135D01*
X341716Y432198D01*
X341768Y432264D01*
X341817Y432331D01*
X341863Y432401D01*
X341905Y432473D01*
X341944Y432547D01*
X341979Y432623D01*
X342011Y432700D01*
X342039Y432778D01*
X342064Y432858D01*
X342085Y432939D01*
X342102Y433020D01*
X342116Y433103D01*
X342125Y433185D01*
X342131Y433269D01*
X342133Y433352D01*
X342133Y437868D01*
X342131Y437951D01*
X342125Y438035D01*
X342116Y438118D01*
X342102Y438200D01*
X342085Y438281D01*
X342064Y438362D01*
X342039Y438442D01*
X342011Y438520D01*
X341979Y438597D01*
X341944Y438673D01*
X341905Y438747D01*
X341863Y438819D01*
X341817Y438889D01*
X341768Y438956D01*
X341716Y439022D01*
X341662Y439085D01*
X341604Y439145D01*
X341544Y439203D01*
X341481Y439257D01*
X341415Y439309D01*
X341348Y439358D01*
X341278Y439403D01*
X341206Y439446D01*
X341132Y439485D01*
X341057Y439520D01*
X340979Y439552D01*
X340901Y439580D01*
X340821Y439605D01*
X340741Y439626D01*
X340659Y439643D01*
X340577Y439657D01*
X340494Y439666D01*
X340410Y439672D01*
X340327Y439674D01*
X338521Y439674D01*
X334467Y437868D02*
X332209Y439674D01*
X332209Y431546D01*
X334467Y431546D02*
X329951Y431546D01*
X322839Y439674D02*
X322750Y439672D01*
X322662Y439666D01*
X322574Y439657D01*
X322486Y439643D01*
X322399Y439626D01*
X322313Y439605D01*
X322228Y439580D01*
X322144Y439551D01*
X322061Y439519D01*
X321980Y439484D01*
X321901Y439444D01*
X321823Y439402D01*
X321747Y439356D01*
X321673Y439307D01*
X321602Y439254D01*
X321533Y439199D01*
X321466Y439140D01*
X321402Y439079D01*
X321341Y439015D01*
X321282Y438948D01*
X321227Y438879D01*
X321174Y438808D01*
X321125Y438734D01*
X321079Y438658D01*
X321037Y438580D01*
X320997Y438501D01*
X320962Y438420D01*
X320930Y438337D01*
X320901Y438253D01*
X320876Y438168D01*
X320855Y438082D01*
X320838Y437995D01*
X320824Y437907D01*
X320815Y437819D01*
X320809Y437731D01*
X320807Y437642D01*
X322839Y439675D02*
X322938Y439673D01*
X323038Y439667D01*
X323137Y439658D01*
X323235Y439645D01*
X323334Y439628D01*
X323431Y439607D01*
X323527Y439583D01*
X323623Y439555D01*
X323717Y439523D01*
X323810Y439488D01*
X323902Y439449D01*
X323992Y439407D01*
X324080Y439361D01*
X324167Y439312D01*
X324252Y439260D01*
X324334Y439204D01*
X324415Y439146D01*
X324493Y439084D01*
X324569Y439020D01*
X324642Y438953D01*
X324713Y438883D01*
X324780Y438810D01*
X324846Y438735D01*
X324908Y438657D01*
X324967Y438577D01*
X325023Y438495D01*
X325076Y438411D01*
X325126Y438324D01*
X325172Y438236D01*
X325215Y438147D01*
X325255Y438055D01*
X325291Y437962D01*
X325323Y437868D01*
X321484Y436061D02*
X321418Y436127D01*
X321355Y436195D01*
X321295Y436266D01*
X321238Y436340D01*
X321184Y436415D01*
X321134Y436493D01*
X321086Y436574D01*
X321043Y436656D01*
X321002Y436740D01*
X320966Y436825D01*
X320933Y436912D01*
X320903Y437000D01*
X320878Y437090D01*
X320856Y437180D01*
X320839Y437272D01*
X320825Y437364D01*
X320815Y437456D01*
X320809Y437549D01*
X320807Y437642D01*
X321484Y436062D02*
X325323Y431546D01*
X320807Y431546D01*
X206977Y431546D02*
X205171Y431546D01*
X206977Y431546D02*
X207060Y431548D01*
X207144Y431554D01*
X207227Y431563D01*
X207309Y431577D01*
X207390Y431594D01*
X207471Y431615D01*
X207551Y431640D01*
X207629Y431668D01*
X207706Y431700D01*
X207782Y431735D01*
X207856Y431774D01*
X207928Y431817D01*
X207998Y431862D01*
X208065Y431911D01*
X208131Y431963D01*
X208194Y432017D01*
X208254Y432075D01*
X208312Y432135D01*
X208366Y432198D01*
X208418Y432264D01*
X208467Y432331D01*
X208513Y432401D01*
X208555Y432473D01*
X208594Y432547D01*
X208629Y432623D01*
X208661Y432700D01*
X208689Y432778D01*
X208714Y432858D01*
X208735Y432939D01*
X208752Y433020D01*
X208766Y433103D01*
X208775Y433185D01*
X208781Y433269D01*
X208783Y433352D01*
X208783Y437868D01*
X208781Y437951D01*
X208775Y438035D01*
X208766Y438118D01*
X208752Y438200D01*
X208735Y438281D01*
X208714Y438362D01*
X208689Y438442D01*
X208661Y438520D01*
X208629Y438597D01*
X208594Y438673D01*
X208555Y438747D01*
X208513Y438819D01*
X208467Y438889D01*
X208418Y438956D01*
X208366Y439022D01*
X208312Y439085D01*
X208254Y439145D01*
X208194Y439203D01*
X208131Y439257D01*
X208065Y439309D01*
X207998Y439358D01*
X207928Y439403D01*
X207856Y439446D01*
X207782Y439485D01*
X207707Y439520D01*
X207629Y439552D01*
X207551Y439580D01*
X207471Y439605D01*
X207391Y439626D01*
X207309Y439643D01*
X207227Y439657D01*
X207144Y439666D01*
X207060Y439672D01*
X206977Y439674D01*
X205171Y439674D01*
X201117Y437868D02*
X198859Y439674D01*
X198859Y431546D01*
X201117Y431546D02*
X196601Y431546D01*
X191973Y431546D02*
X189715Y431546D01*
X189622Y431548D01*
X189529Y431554D01*
X189436Y431563D01*
X189343Y431577D01*
X189252Y431594D01*
X189161Y431615D01*
X189071Y431640D01*
X188982Y431668D01*
X188894Y431700D01*
X188808Y431736D01*
X188723Y431775D01*
X188640Y431818D01*
X188559Y431864D01*
X188480Y431914D01*
X188403Y431966D01*
X188328Y432022D01*
X188256Y432081D01*
X188186Y432143D01*
X188118Y432207D01*
X188054Y432275D01*
X187992Y432345D01*
X187933Y432417D01*
X187877Y432492D01*
X187825Y432569D01*
X187775Y432648D01*
X187729Y432729D01*
X187686Y432812D01*
X187647Y432897D01*
X187611Y432983D01*
X187579Y433071D01*
X187551Y433160D01*
X187526Y433250D01*
X187505Y433341D01*
X187488Y433432D01*
X187474Y433525D01*
X187465Y433618D01*
X187459Y433711D01*
X187457Y433804D01*
X187459Y433897D01*
X187465Y433990D01*
X187474Y434083D01*
X187488Y434176D01*
X187505Y434267D01*
X187526Y434358D01*
X187551Y434448D01*
X187579Y434537D01*
X187611Y434625D01*
X187647Y434711D01*
X187686Y434796D01*
X187729Y434879D01*
X187775Y434960D01*
X187825Y435039D01*
X187877Y435116D01*
X187933Y435191D01*
X187992Y435263D01*
X188054Y435333D01*
X188118Y435401D01*
X188186Y435465D01*
X188256Y435527D01*
X188328Y435586D01*
X188403Y435642D01*
X188480Y435694D01*
X188559Y435744D01*
X188640Y435790D01*
X188723Y435833D01*
X188808Y435872D01*
X188894Y435908D01*
X188982Y435940D01*
X189071Y435968D01*
X189161Y435993D01*
X189252Y436014D01*
X189343Y436031D01*
X189436Y436045D01*
X189529Y436054D01*
X189622Y436060D01*
X189715Y436062D01*
X189263Y439674D02*
X191973Y439674D01*
X189263Y439674D02*
X189180Y439672D01*
X189096Y439666D01*
X189013Y439657D01*
X188931Y439643D01*
X188850Y439626D01*
X188769Y439605D01*
X188689Y439580D01*
X188611Y439552D01*
X188534Y439520D01*
X188458Y439485D01*
X188384Y439446D01*
X188312Y439403D01*
X188242Y439358D01*
X188175Y439309D01*
X188109Y439257D01*
X188046Y439203D01*
X187986Y439145D01*
X187928Y439085D01*
X187874Y439022D01*
X187822Y438956D01*
X187773Y438889D01*
X187728Y438819D01*
X187685Y438747D01*
X187646Y438673D01*
X187611Y438597D01*
X187579Y438520D01*
X187551Y438442D01*
X187526Y438362D01*
X187505Y438281D01*
X187488Y438200D01*
X187474Y438118D01*
X187465Y438035D01*
X187459Y437951D01*
X187457Y437868D01*
X187459Y437785D01*
X187465Y437701D01*
X187474Y437618D01*
X187488Y437536D01*
X187505Y437455D01*
X187526Y437374D01*
X187551Y437294D01*
X187579Y437216D01*
X187611Y437139D01*
X187646Y437063D01*
X187685Y436989D01*
X187728Y436917D01*
X187773Y436847D01*
X187822Y436780D01*
X187874Y436714D01*
X187928Y436651D01*
X187986Y436591D01*
X188046Y436533D01*
X188109Y436479D01*
X188175Y436427D01*
X188242Y436378D01*
X188312Y436333D01*
X188384Y436290D01*
X188458Y436251D01*
X188534Y436216D01*
X188611Y436184D01*
X188689Y436156D01*
X188769Y436131D01*
X188850Y436110D01*
X188931Y436093D01*
X189013Y436079D01*
X189096Y436070D01*
X189180Y436064D01*
X189263Y436062D01*
X191069Y436062D01*
X488381Y431546D02*
X490187Y431546D01*
X490270Y431548D01*
X490354Y431554D01*
X490437Y431563D01*
X490519Y431577D01*
X490600Y431594D01*
X490681Y431615D01*
X490761Y431640D01*
X490839Y431668D01*
X490916Y431700D01*
X490992Y431735D01*
X491066Y431774D01*
X491138Y431817D01*
X491208Y431862D01*
X491275Y431911D01*
X491341Y431963D01*
X491404Y432017D01*
X491464Y432075D01*
X491522Y432135D01*
X491576Y432198D01*
X491628Y432264D01*
X491677Y432331D01*
X491723Y432401D01*
X491765Y432473D01*
X491804Y432547D01*
X491839Y432623D01*
X491871Y432700D01*
X491899Y432778D01*
X491924Y432858D01*
X491945Y432939D01*
X491962Y433020D01*
X491976Y433103D01*
X491985Y433185D01*
X491991Y433269D01*
X491993Y433352D01*
X491993Y437868D01*
X491991Y437951D01*
X491985Y438035D01*
X491976Y438118D01*
X491962Y438200D01*
X491945Y438281D01*
X491924Y438362D01*
X491899Y438442D01*
X491871Y438520D01*
X491839Y438597D01*
X491804Y438673D01*
X491765Y438747D01*
X491723Y438819D01*
X491677Y438889D01*
X491628Y438956D01*
X491576Y439022D01*
X491522Y439085D01*
X491464Y439145D01*
X491404Y439203D01*
X491341Y439257D01*
X491275Y439309D01*
X491208Y439358D01*
X491138Y439403D01*
X491066Y439446D01*
X490992Y439485D01*
X490917Y439520D01*
X490839Y439552D01*
X490761Y439580D01*
X490681Y439605D01*
X490601Y439626D01*
X490519Y439643D01*
X490437Y439657D01*
X490354Y439666D01*
X490270Y439672D01*
X490187Y439674D01*
X488381Y439674D01*
X484327Y437868D02*
X482069Y439674D01*
X482069Y431546D01*
X484327Y431546D02*
X479811Y431546D01*
X475183Y433352D02*
X473376Y439674D01*
X475183Y433352D02*
X470667Y433352D01*
X472022Y435158D02*
X472022Y431546D01*
X624271Y432816D02*
X626077Y432816D01*
X626160Y432818D01*
X626244Y432824D01*
X626327Y432833D01*
X626409Y432847D01*
X626490Y432864D01*
X626571Y432885D01*
X626651Y432910D01*
X626729Y432938D01*
X626806Y432970D01*
X626882Y433005D01*
X626956Y433044D01*
X627028Y433087D01*
X627098Y433132D01*
X627165Y433181D01*
X627231Y433233D01*
X627294Y433287D01*
X627354Y433345D01*
X627412Y433405D01*
X627466Y433468D01*
X627518Y433534D01*
X627567Y433601D01*
X627613Y433671D01*
X627655Y433743D01*
X627694Y433817D01*
X627729Y433893D01*
X627761Y433970D01*
X627789Y434048D01*
X627814Y434128D01*
X627835Y434209D01*
X627852Y434290D01*
X627866Y434373D01*
X627875Y434455D01*
X627881Y434539D01*
X627883Y434622D01*
X627883Y439138D01*
X627881Y439221D01*
X627875Y439305D01*
X627866Y439388D01*
X627852Y439470D01*
X627835Y439551D01*
X627814Y439632D01*
X627789Y439712D01*
X627761Y439790D01*
X627729Y439867D01*
X627694Y439943D01*
X627655Y440017D01*
X627613Y440089D01*
X627567Y440159D01*
X627518Y440226D01*
X627466Y440292D01*
X627412Y440355D01*
X627354Y440415D01*
X627294Y440473D01*
X627231Y440527D01*
X627165Y440579D01*
X627098Y440628D01*
X627028Y440673D01*
X626956Y440716D01*
X626882Y440755D01*
X626807Y440790D01*
X626729Y440822D01*
X626651Y440850D01*
X626571Y440875D01*
X626491Y440896D01*
X626409Y440913D01*
X626327Y440927D01*
X626244Y440936D01*
X626160Y440942D01*
X626077Y440944D01*
X624271Y440944D01*
X620217Y439138D02*
X617959Y440944D01*
X617959Y432816D01*
X620217Y432816D02*
X615701Y432816D01*
X611073Y432816D02*
X608363Y432816D01*
X608280Y432818D01*
X608196Y432824D01*
X608113Y432833D01*
X608031Y432847D01*
X607950Y432864D01*
X607869Y432885D01*
X607789Y432910D01*
X607711Y432938D01*
X607634Y432970D01*
X607558Y433005D01*
X607484Y433044D01*
X607412Y433087D01*
X607342Y433132D01*
X607275Y433181D01*
X607209Y433233D01*
X607146Y433287D01*
X607086Y433345D01*
X607028Y433405D01*
X606974Y433468D01*
X606922Y433534D01*
X606873Y433601D01*
X606828Y433671D01*
X606785Y433743D01*
X606746Y433817D01*
X606711Y433893D01*
X606679Y433970D01*
X606651Y434048D01*
X606626Y434128D01*
X606605Y434209D01*
X606588Y434290D01*
X606574Y434372D01*
X606565Y434455D01*
X606559Y434539D01*
X606557Y434622D01*
X606557Y435525D01*
X606559Y435608D01*
X606565Y435692D01*
X606574Y435775D01*
X606588Y435857D01*
X606605Y435938D01*
X606626Y436019D01*
X606651Y436099D01*
X606679Y436177D01*
X606711Y436254D01*
X606746Y436330D01*
X606785Y436404D01*
X606828Y436476D01*
X606873Y436546D01*
X606922Y436613D01*
X606974Y436679D01*
X607028Y436742D01*
X607086Y436802D01*
X607146Y436860D01*
X607209Y436914D01*
X607275Y436966D01*
X607342Y437015D01*
X607412Y437061D01*
X607484Y437103D01*
X607558Y437142D01*
X607634Y437177D01*
X607711Y437209D01*
X607789Y437237D01*
X607869Y437262D01*
X607950Y437283D01*
X608031Y437300D01*
X608114Y437314D01*
X608196Y437323D01*
X608280Y437329D01*
X608363Y437331D01*
X608363Y437332D02*
X611073Y437332D01*
X611073Y440944D01*
X606557Y440944D01*
X556260Y2540D02*
X543560Y2540D01*
M02*
