G04 EAGLE Gerber RS-274X export*
G75*
%MOMM*%
%FSLAX34Y34*%
%LPD*%
%INSilkscreen Top*%
%IPPOS*%
%AMOC8*
5,1,8,0,0,1.08239X$1,22.5*%
G01*
%ADD10C,0.076200*%
%ADD11C,0.101600*%
%ADD12C,0.127000*%
%ADD13C,0.200000*%
%ADD14C,0.203200*%
%ADD15R,0.650000X1.400000*%
%ADD16R,1.400000X0.650000*%
%ADD17C,0.070000*%
%ADD18R,0.600000X1.800000*%
%ADD19R,0.600000X1.100000*%


D10*
X498136Y104267D02*
X498136Y98538D01*
X498134Y98460D01*
X498129Y98382D01*
X498119Y98305D01*
X498106Y98228D01*
X498090Y98152D01*
X498070Y98077D01*
X498046Y98003D01*
X498019Y97930D01*
X497988Y97858D01*
X497954Y97788D01*
X497917Y97720D01*
X497876Y97653D01*
X497832Y97588D01*
X497786Y97526D01*
X497736Y97466D01*
X497684Y97408D01*
X497629Y97353D01*
X497571Y97301D01*
X497511Y97251D01*
X497449Y97205D01*
X497384Y97161D01*
X497318Y97120D01*
X497249Y97083D01*
X497179Y97049D01*
X497107Y97018D01*
X497034Y96991D01*
X496960Y96967D01*
X496885Y96947D01*
X496809Y96931D01*
X496732Y96918D01*
X496655Y96908D01*
X496577Y96903D01*
X496499Y96901D01*
X495681Y96901D01*
X501830Y96901D02*
X501830Y104267D01*
X501830Y96901D02*
X505104Y96901D01*
X509524Y96901D02*
X511161Y96901D01*
X509524Y96901D02*
X509446Y96903D01*
X509368Y96908D01*
X509291Y96918D01*
X509214Y96931D01*
X509138Y96947D01*
X509063Y96967D01*
X508989Y96991D01*
X508916Y97018D01*
X508844Y97049D01*
X508774Y97083D01*
X508706Y97120D01*
X508639Y97161D01*
X508574Y97205D01*
X508512Y97251D01*
X508452Y97301D01*
X508394Y97353D01*
X508339Y97408D01*
X508287Y97466D01*
X508237Y97526D01*
X508191Y97588D01*
X508147Y97653D01*
X508106Y97720D01*
X508069Y97788D01*
X508035Y97858D01*
X508004Y97930D01*
X507977Y98003D01*
X507953Y98077D01*
X507933Y98152D01*
X507917Y98228D01*
X507904Y98305D01*
X507894Y98382D01*
X507889Y98460D01*
X507887Y98538D01*
X507888Y98538D02*
X507888Y102630D01*
X507887Y102630D02*
X507889Y102710D01*
X507895Y102790D01*
X507905Y102870D01*
X507918Y102949D01*
X507936Y103028D01*
X507957Y103105D01*
X507983Y103181D01*
X508012Y103256D01*
X508044Y103330D01*
X508080Y103402D01*
X508120Y103472D01*
X508163Y103539D01*
X508209Y103605D01*
X508259Y103668D01*
X508311Y103729D01*
X508366Y103788D01*
X508425Y103843D01*
X508485Y103895D01*
X508549Y103945D01*
X508615Y103991D01*
X508682Y104034D01*
X508752Y104074D01*
X508824Y104110D01*
X508898Y104142D01*
X508972Y104171D01*
X509049Y104197D01*
X509126Y104218D01*
X509205Y104236D01*
X509284Y104249D01*
X509364Y104259D01*
X509444Y104265D01*
X509524Y104267D01*
X511161Y104267D01*
X515693Y104267D02*
X515693Y98538D01*
X515691Y98460D01*
X515686Y98382D01*
X515676Y98305D01*
X515663Y98228D01*
X515647Y98152D01*
X515627Y98077D01*
X515603Y98003D01*
X515576Y97930D01*
X515545Y97858D01*
X515511Y97788D01*
X515474Y97720D01*
X515433Y97653D01*
X515389Y97588D01*
X515343Y97526D01*
X515293Y97466D01*
X515241Y97408D01*
X515186Y97353D01*
X515128Y97301D01*
X515068Y97251D01*
X515006Y97205D01*
X514941Y97161D01*
X514875Y97120D01*
X514806Y97083D01*
X514736Y97049D01*
X514664Y97018D01*
X514591Y96991D01*
X514517Y96967D01*
X514442Y96947D01*
X514366Y96931D01*
X514289Y96918D01*
X514212Y96908D01*
X514134Y96903D01*
X514056Y96901D01*
X513237Y96901D01*
X519387Y96901D02*
X519387Y104267D01*
X519387Y96901D02*
X522660Y96901D01*
X527081Y96901D02*
X528718Y96901D01*
X527081Y96901D02*
X527003Y96903D01*
X526925Y96908D01*
X526848Y96918D01*
X526771Y96931D01*
X526695Y96947D01*
X526620Y96967D01*
X526546Y96991D01*
X526473Y97018D01*
X526401Y97049D01*
X526331Y97083D01*
X526263Y97120D01*
X526196Y97161D01*
X526131Y97205D01*
X526069Y97251D01*
X526009Y97301D01*
X525951Y97353D01*
X525896Y97408D01*
X525844Y97466D01*
X525794Y97526D01*
X525748Y97588D01*
X525704Y97653D01*
X525663Y97720D01*
X525626Y97788D01*
X525592Y97858D01*
X525561Y97930D01*
X525534Y98003D01*
X525510Y98077D01*
X525490Y98152D01*
X525474Y98228D01*
X525461Y98305D01*
X525451Y98382D01*
X525446Y98460D01*
X525444Y98538D01*
X525444Y102630D01*
X525446Y102710D01*
X525452Y102790D01*
X525462Y102870D01*
X525475Y102949D01*
X525493Y103028D01*
X525514Y103105D01*
X525540Y103181D01*
X525569Y103256D01*
X525601Y103330D01*
X525637Y103402D01*
X525677Y103472D01*
X525720Y103539D01*
X525766Y103605D01*
X525816Y103668D01*
X525868Y103729D01*
X525923Y103788D01*
X525982Y103843D01*
X526042Y103895D01*
X526106Y103945D01*
X526172Y103991D01*
X526239Y104034D01*
X526309Y104074D01*
X526381Y104110D01*
X526455Y104142D01*
X526529Y104171D01*
X526606Y104197D01*
X526683Y104218D01*
X526762Y104236D01*
X526841Y104249D01*
X526921Y104259D01*
X527001Y104265D01*
X527081Y104267D01*
X528718Y104267D01*
X533249Y104267D02*
X533249Y98538D01*
X533247Y98460D01*
X533242Y98382D01*
X533232Y98305D01*
X533219Y98228D01*
X533203Y98152D01*
X533183Y98077D01*
X533159Y98003D01*
X533132Y97930D01*
X533101Y97858D01*
X533067Y97788D01*
X533030Y97720D01*
X532989Y97653D01*
X532945Y97588D01*
X532899Y97526D01*
X532849Y97466D01*
X532797Y97408D01*
X532742Y97353D01*
X532684Y97301D01*
X532624Y97251D01*
X532562Y97205D01*
X532497Y97161D01*
X532431Y97120D01*
X532362Y97083D01*
X532292Y97049D01*
X532220Y97018D01*
X532147Y96991D01*
X532073Y96967D01*
X531998Y96947D01*
X531922Y96931D01*
X531845Y96918D01*
X531768Y96908D01*
X531690Y96903D01*
X531612Y96901D01*
X530794Y96901D01*
X536943Y96901D02*
X536943Y104267D01*
X536943Y96901D02*
X540217Y96901D01*
X544637Y96901D02*
X546274Y96901D01*
X544637Y96901D02*
X544559Y96903D01*
X544481Y96908D01*
X544404Y96918D01*
X544327Y96931D01*
X544251Y96947D01*
X544176Y96967D01*
X544102Y96991D01*
X544029Y97018D01*
X543957Y97049D01*
X543887Y97083D01*
X543819Y97120D01*
X543752Y97161D01*
X543687Y97205D01*
X543625Y97251D01*
X543565Y97301D01*
X543507Y97353D01*
X543452Y97408D01*
X543400Y97466D01*
X543350Y97526D01*
X543304Y97588D01*
X543260Y97653D01*
X543219Y97720D01*
X543182Y97788D01*
X543148Y97858D01*
X543117Y97930D01*
X543090Y98003D01*
X543066Y98077D01*
X543046Y98152D01*
X543030Y98228D01*
X543017Y98305D01*
X543007Y98382D01*
X543002Y98460D01*
X543000Y98538D01*
X543000Y102630D01*
X543002Y102710D01*
X543008Y102790D01*
X543018Y102870D01*
X543031Y102949D01*
X543049Y103028D01*
X543070Y103105D01*
X543096Y103181D01*
X543125Y103256D01*
X543157Y103330D01*
X543193Y103402D01*
X543233Y103472D01*
X543276Y103539D01*
X543322Y103605D01*
X543372Y103668D01*
X543424Y103729D01*
X543479Y103788D01*
X543538Y103843D01*
X543598Y103895D01*
X543662Y103945D01*
X543728Y103991D01*
X543795Y104034D01*
X543865Y104074D01*
X543937Y104110D01*
X544011Y104142D01*
X544085Y104171D01*
X544162Y104197D01*
X544239Y104218D01*
X544318Y104236D01*
X544397Y104249D01*
X544477Y104259D01*
X544557Y104265D01*
X544637Y104267D01*
X546274Y104267D01*
X550805Y104267D02*
X550805Y98538D01*
X550806Y98538D02*
X550804Y98460D01*
X550799Y98382D01*
X550789Y98305D01*
X550776Y98228D01*
X550760Y98152D01*
X550740Y98077D01*
X550716Y98003D01*
X550689Y97930D01*
X550658Y97858D01*
X550624Y97788D01*
X550587Y97720D01*
X550546Y97653D01*
X550502Y97588D01*
X550456Y97526D01*
X550406Y97466D01*
X550354Y97408D01*
X550299Y97353D01*
X550241Y97301D01*
X550181Y97251D01*
X550119Y97205D01*
X550054Y97161D01*
X549988Y97120D01*
X549919Y97083D01*
X549849Y97049D01*
X549777Y97018D01*
X549704Y96991D01*
X549630Y96967D01*
X549555Y96947D01*
X549479Y96931D01*
X549402Y96918D01*
X549325Y96908D01*
X549247Y96903D01*
X549169Y96901D01*
X548350Y96901D01*
X554499Y96901D02*
X554499Y104267D01*
X554499Y96901D02*
X557773Y96901D01*
X562194Y96901D02*
X563830Y96901D01*
X562194Y96901D02*
X562116Y96903D01*
X562038Y96908D01*
X561961Y96918D01*
X561884Y96931D01*
X561808Y96947D01*
X561733Y96967D01*
X561659Y96991D01*
X561586Y97018D01*
X561514Y97049D01*
X561444Y97083D01*
X561376Y97120D01*
X561309Y97161D01*
X561244Y97205D01*
X561182Y97251D01*
X561122Y97301D01*
X561064Y97353D01*
X561009Y97408D01*
X560957Y97466D01*
X560907Y97526D01*
X560861Y97588D01*
X560817Y97653D01*
X560776Y97720D01*
X560739Y97788D01*
X560705Y97858D01*
X560674Y97930D01*
X560647Y98003D01*
X560623Y98077D01*
X560603Y98152D01*
X560587Y98228D01*
X560574Y98305D01*
X560564Y98382D01*
X560559Y98460D01*
X560557Y98538D01*
X560557Y102630D01*
X560559Y102710D01*
X560565Y102790D01*
X560575Y102870D01*
X560588Y102949D01*
X560606Y103028D01*
X560627Y103105D01*
X560653Y103181D01*
X560682Y103256D01*
X560714Y103330D01*
X560750Y103402D01*
X560790Y103472D01*
X560833Y103539D01*
X560879Y103605D01*
X560929Y103668D01*
X560981Y103729D01*
X561036Y103788D01*
X561095Y103843D01*
X561155Y103895D01*
X561219Y103945D01*
X561285Y103991D01*
X561352Y104034D01*
X561422Y104074D01*
X561494Y104110D01*
X561568Y104142D01*
X561642Y104171D01*
X561719Y104197D01*
X561796Y104218D01*
X561875Y104236D01*
X561954Y104249D01*
X562034Y104259D01*
X562114Y104265D01*
X562194Y104267D01*
X563830Y104267D01*
D11*
X564981Y14393D02*
X560578Y14393D01*
X562046Y18796D02*
X562046Y7789D01*
X562048Y7698D01*
X562054Y7607D01*
X562063Y7517D01*
X562076Y7427D01*
X562093Y7337D01*
X562113Y7249D01*
X562138Y7161D01*
X562165Y7074D01*
X562197Y6989D01*
X562231Y6905D01*
X562270Y6822D01*
X562311Y6741D01*
X562356Y6662D01*
X562404Y6585D01*
X562456Y6510D01*
X562510Y6437D01*
X562567Y6366D01*
X562628Y6298D01*
X562691Y6233D01*
X562756Y6170D01*
X562825Y6109D01*
X562895Y6052D01*
X562968Y5998D01*
X563043Y5946D01*
X563120Y5898D01*
X563199Y5853D01*
X563280Y5812D01*
X563363Y5773D01*
X563447Y5739D01*
X563532Y5707D01*
X563619Y5679D01*
X563707Y5655D01*
X563795Y5635D01*
X563885Y5618D01*
X563975Y5605D01*
X564065Y5596D01*
X564156Y5590D01*
X564247Y5588D01*
X564981Y5588D01*
X569338Y5588D02*
X569338Y6322D01*
X570072Y6322D01*
X570072Y5588D01*
X569338Y5588D01*
X575543Y5588D02*
X575543Y14393D01*
X582147Y14393D01*
X582238Y14391D01*
X582329Y14385D01*
X582419Y14376D01*
X582509Y14363D01*
X582599Y14346D01*
X582687Y14326D01*
X582775Y14301D01*
X582862Y14274D01*
X582947Y14242D01*
X583031Y14208D01*
X583114Y14169D01*
X583195Y14128D01*
X583274Y14083D01*
X583351Y14035D01*
X583426Y13983D01*
X583499Y13929D01*
X583570Y13872D01*
X583638Y13811D01*
X583703Y13748D01*
X583766Y13683D01*
X583827Y13615D01*
X583884Y13544D01*
X583938Y13471D01*
X583990Y13396D01*
X584038Y13319D01*
X584083Y13240D01*
X584124Y13159D01*
X584163Y13076D01*
X584197Y12992D01*
X584229Y12907D01*
X584256Y12820D01*
X584281Y12732D01*
X584301Y12644D01*
X584318Y12554D01*
X584331Y12464D01*
X584340Y12374D01*
X584346Y12283D01*
X584348Y12192D01*
X584349Y12192D02*
X584349Y5588D01*
X579946Y5588D02*
X579946Y14393D01*
X592440Y5588D02*
X596109Y5588D01*
X592440Y5588D02*
X592349Y5590D01*
X592258Y5596D01*
X592168Y5605D01*
X592078Y5618D01*
X591988Y5635D01*
X591900Y5655D01*
X591812Y5680D01*
X591725Y5707D01*
X591640Y5739D01*
X591556Y5773D01*
X591473Y5812D01*
X591392Y5853D01*
X591313Y5898D01*
X591236Y5946D01*
X591161Y5998D01*
X591088Y6052D01*
X591017Y6109D01*
X590949Y6170D01*
X590884Y6233D01*
X590821Y6298D01*
X590760Y6366D01*
X590703Y6437D01*
X590649Y6510D01*
X590597Y6585D01*
X590549Y6662D01*
X590504Y6741D01*
X590463Y6822D01*
X590424Y6905D01*
X590390Y6989D01*
X590358Y7074D01*
X590331Y7161D01*
X590306Y7249D01*
X590286Y7337D01*
X590269Y7427D01*
X590256Y7517D01*
X590247Y7607D01*
X590241Y7698D01*
X590239Y7789D01*
X590239Y11458D01*
X590241Y11565D01*
X590247Y11672D01*
X590257Y11779D01*
X590270Y11885D01*
X590288Y11991D01*
X590309Y12096D01*
X590334Y12200D01*
X590363Y12304D01*
X590396Y12406D01*
X590433Y12506D01*
X590473Y12606D01*
X590517Y12704D01*
X590564Y12800D01*
X590615Y12894D01*
X590669Y12987D01*
X590726Y13077D01*
X590787Y13166D01*
X590851Y13252D01*
X590918Y13335D01*
X590988Y13417D01*
X591061Y13495D01*
X591137Y13571D01*
X591215Y13644D01*
X591297Y13714D01*
X591380Y13781D01*
X591466Y13845D01*
X591555Y13906D01*
X591645Y13963D01*
X591738Y14017D01*
X591832Y14068D01*
X591928Y14115D01*
X592026Y14159D01*
X592126Y14199D01*
X592226Y14236D01*
X592328Y14269D01*
X592432Y14298D01*
X592536Y14323D01*
X592641Y14344D01*
X592747Y14362D01*
X592853Y14375D01*
X592960Y14385D01*
X593067Y14391D01*
X593174Y14393D01*
X593281Y14391D01*
X593388Y14385D01*
X593495Y14375D01*
X593601Y14362D01*
X593707Y14344D01*
X593812Y14323D01*
X593916Y14298D01*
X594020Y14269D01*
X594122Y14236D01*
X594222Y14199D01*
X594322Y14159D01*
X594420Y14115D01*
X594516Y14068D01*
X594610Y14017D01*
X594703Y13963D01*
X594793Y13906D01*
X594882Y13845D01*
X594968Y13781D01*
X595051Y13714D01*
X595133Y13644D01*
X595211Y13571D01*
X595287Y13495D01*
X595360Y13417D01*
X595430Y13335D01*
X595497Y13252D01*
X595561Y13166D01*
X595622Y13077D01*
X595679Y12987D01*
X595733Y12894D01*
X595784Y12800D01*
X595831Y12704D01*
X595875Y12606D01*
X595915Y12506D01*
X595952Y12406D01*
X595985Y12304D01*
X596014Y12200D01*
X596039Y12096D01*
X596060Y11991D01*
X596078Y11885D01*
X596091Y11779D01*
X596101Y11672D01*
X596107Y11565D01*
X596109Y11458D01*
X596109Y9991D01*
X590239Y9991D01*
X600907Y4120D02*
X606777Y20264D01*
X617383Y18796D02*
X617383Y5588D01*
X613714Y5588D01*
X613623Y5590D01*
X613532Y5596D01*
X613442Y5605D01*
X613352Y5618D01*
X613262Y5635D01*
X613174Y5655D01*
X613086Y5680D01*
X612999Y5707D01*
X612914Y5739D01*
X612830Y5773D01*
X612747Y5812D01*
X612666Y5853D01*
X612587Y5898D01*
X612510Y5946D01*
X612435Y5998D01*
X612362Y6052D01*
X612291Y6109D01*
X612223Y6170D01*
X612158Y6233D01*
X612095Y6298D01*
X612034Y6366D01*
X611977Y6437D01*
X611923Y6510D01*
X611871Y6585D01*
X611823Y6662D01*
X611778Y6741D01*
X611737Y6822D01*
X611698Y6905D01*
X611664Y6989D01*
X611632Y7074D01*
X611605Y7161D01*
X611580Y7249D01*
X611560Y7337D01*
X611543Y7427D01*
X611530Y7517D01*
X611521Y7607D01*
X611515Y7698D01*
X611513Y7789D01*
X611513Y12192D01*
X611515Y12283D01*
X611521Y12374D01*
X611530Y12464D01*
X611543Y12554D01*
X611560Y12644D01*
X611580Y12732D01*
X611605Y12820D01*
X611632Y12907D01*
X611664Y12992D01*
X611698Y13076D01*
X611737Y13159D01*
X611778Y13240D01*
X611823Y13319D01*
X611871Y13396D01*
X611923Y13471D01*
X611977Y13544D01*
X612034Y13615D01*
X612095Y13683D01*
X612158Y13748D01*
X612223Y13811D01*
X612291Y13872D01*
X612362Y13929D01*
X612435Y13983D01*
X612510Y14035D01*
X612587Y14083D01*
X612666Y14128D01*
X612747Y14169D01*
X612830Y14208D01*
X612914Y14242D01*
X612999Y14274D01*
X613086Y14301D01*
X613174Y14326D01*
X613262Y14346D01*
X613352Y14363D01*
X613442Y14376D01*
X613532Y14385D01*
X613623Y14391D01*
X613714Y14393D01*
X617383Y14393D01*
X625298Y5588D02*
X628967Y5588D01*
X625298Y5588D02*
X625207Y5590D01*
X625116Y5596D01*
X625026Y5605D01*
X624936Y5618D01*
X624846Y5635D01*
X624758Y5655D01*
X624670Y5680D01*
X624583Y5707D01*
X624498Y5739D01*
X624414Y5773D01*
X624331Y5812D01*
X624250Y5853D01*
X624171Y5898D01*
X624094Y5946D01*
X624019Y5998D01*
X623946Y6052D01*
X623875Y6109D01*
X623807Y6170D01*
X623742Y6233D01*
X623679Y6298D01*
X623618Y6366D01*
X623561Y6437D01*
X623507Y6510D01*
X623455Y6585D01*
X623407Y6662D01*
X623362Y6741D01*
X623321Y6822D01*
X623282Y6905D01*
X623248Y6989D01*
X623216Y7074D01*
X623189Y7161D01*
X623164Y7249D01*
X623144Y7337D01*
X623127Y7427D01*
X623114Y7517D01*
X623105Y7607D01*
X623099Y7698D01*
X623097Y7789D01*
X623097Y11458D01*
X623099Y11565D01*
X623105Y11672D01*
X623115Y11779D01*
X623128Y11885D01*
X623146Y11991D01*
X623167Y12096D01*
X623192Y12200D01*
X623221Y12304D01*
X623254Y12406D01*
X623291Y12506D01*
X623331Y12606D01*
X623375Y12704D01*
X623422Y12800D01*
X623473Y12894D01*
X623527Y12987D01*
X623584Y13077D01*
X623645Y13166D01*
X623709Y13252D01*
X623776Y13335D01*
X623846Y13417D01*
X623919Y13495D01*
X623995Y13571D01*
X624073Y13644D01*
X624155Y13714D01*
X624238Y13781D01*
X624324Y13845D01*
X624413Y13906D01*
X624503Y13963D01*
X624596Y14017D01*
X624690Y14068D01*
X624786Y14115D01*
X624884Y14159D01*
X624984Y14199D01*
X625084Y14236D01*
X625186Y14269D01*
X625290Y14298D01*
X625394Y14323D01*
X625499Y14344D01*
X625605Y14362D01*
X625711Y14375D01*
X625818Y14385D01*
X625925Y14391D01*
X626032Y14393D01*
X626139Y14391D01*
X626246Y14385D01*
X626353Y14375D01*
X626459Y14362D01*
X626565Y14344D01*
X626670Y14323D01*
X626774Y14298D01*
X626878Y14269D01*
X626980Y14236D01*
X627080Y14199D01*
X627180Y14159D01*
X627278Y14115D01*
X627374Y14068D01*
X627468Y14017D01*
X627561Y13963D01*
X627651Y13906D01*
X627740Y13845D01*
X627826Y13781D01*
X627909Y13714D01*
X627991Y13644D01*
X628069Y13571D01*
X628145Y13495D01*
X628218Y13417D01*
X628288Y13335D01*
X628355Y13252D01*
X628419Y13166D01*
X628480Y13077D01*
X628537Y12987D01*
X628591Y12894D01*
X628642Y12800D01*
X628689Y12704D01*
X628733Y12606D01*
X628773Y12506D01*
X628810Y12406D01*
X628843Y12304D01*
X628872Y12200D01*
X628897Y12096D01*
X628918Y11991D01*
X628936Y11885D01*
X628949Y11779D01*
X628959Y11672D01*
X628965Y11565D01*
X628967Y11458D01*
X628967Y9991D01*
X623097Y9991D01*
X636697Y10724D02*
X639999Y10724D01*
X636697Y10724D02*
X636597Y10722D01*
X636498Y10716D01*
X636399Y10707D01*
X636300Y10693D01*
X636202Y10676D01*
X636105Y10655D01*
X636008Y10630D01*
X635913Y10601D01*
X635819Y10569D01*
X635726Y10533D01*
X635634Y10494D01*
X635544Y10451D01*
X635456Y10404D01*
X635370Y10355D01*
X635286Y10302D01*
X635204Y10245D01*
X635124Y10186D01*
X635046Y10123D01*
X634971Y10058D01*
X634899Y9989D01*
X634829Y9918D01*
X634762Y9845D01*
X634698Y9768D01*
X634637Y9690D01*
X634579Y9608D01*
X634525Y9525D01*
X634473Y9440D01*
X634425Y9353D01*
X634380Y9264D01*
X634339Y9173D01*
X634301Y9081D01*
X634267Y8987D01*
X634237Y8893D01*
X634210Y8797D01*
X634187Y8700D01*
X634168Y8602D01*
X634153Y8504D01*
X634141Y8405D01*
X634133Y8305D01*
X634129Y8206D01*
X634129Y8106D01*
X634133Y8007D01*
X634141Y7907D01*
X634153Y7808D01*
X634168Y7710D01*
X634187Y7612D01*
X634210Y7515D01*
X634237Y7419D01*
X634267Y7325D01*
X634301Y7231D01*
X634339Y7139D01*
X634380Y7048D01*
X634425Y6959D01*
X634473Y6872D01*
X634525Y6787D01*
X634579Y6704D01*
X634637Y6622D01*
X634698Y6544D01*
X634762Y6467D01*
X634829Y6394D01*
X634899Y6323D01*
X634971Y6254D01*
X635046Y6189D01*
X635124Y6126D01*
X635204Y6067D01*
X635286Y6010D01*
X635370Y5957D01*
X635456Y5908D01*
X635544Y5861D01*
X635634Y5818D01*
X635726Y5779D01*
X635819Y5743D01*
X635913Y5711D01*
X636008Y5682D01*
X636105Y5657D01*
X636202Y5636D01*
X636300Y5619D01*
X636399Y5605D01*
X636498Y5596D01*
X636597Y5590D01*
X636697Y5588D01*
X639999Y5588D01*
X639999Y12192D01*
X639997Y12283D01*
X639991Y12374D01*
X639982Y12464D01*
X639969Y12554D01*
X639952Y12644D01*
X639932Y12732D01*
X639907Y12820D01*
X639880Y12907D01*
X639848Y12992D01*
X639814Y13076D01*
X639775Y13159D01*
X639734Y13240D01*
X639689Y13319D01*
X639641Y13396D01*
X639589Y13471D01*
X639535Y13544D01*
X639478Y13615D01*
X639417Y13683D01*
X639354Y13748D01*
X639289Y13811D01*
X639221Y13872D01*
X639150Y13929D01*
X639077Y13983D01*
X639002Y14035D01*
X638925Y14083D01*
X638846Y14128D01*
X638765Y14169D01*
X638682Y14208D01*
X638598Y14242D01*
X638513Y14274D01*
X638426Y14301D01*
X638338Y14326D01*
X638250Y14346D01*
X638160Y14363D01*
X638070Y14376D01*
X637980Y14385D01*
X637889Y14391D01*
X637798Y14393D01*
X634863Y14393D01*
X645286Y5588D02*
X651156Y14393D01*
X645286Y14393D02*
X651156Y5588D01*
X655527Y5588D02*
X661398Y14393D01*
X655527Y14393D02*
X661398Y5588D01*
X258233Y528884D02*
X249428Y528884D01*
X253831Y524482D02*
X253831Y533287D01*
X307848Y528884D02*
X316653Y528884D01*
X312251Y524482D02*
X312251Y533287D01*
X367538Y530154D02*
X376343Y530154D01*
X371941Y525752D02*
X371941Y534557D01*
X428498Y530154D02*
X437303Y530154D01*
X432901Y525752D02*
X432901Y534557D01*
X489458Y530154D02*
X498263Y530154D01*
X493861Y525752D02*
X493861Y534557D01*
D12*
X61030Y407670D02*
X61032Y407788D01*
X61038Y407906D01*
X61048Y408024D01*
X61062Y408141D01*
X61080Y408258D01*
X61102Y408375D01*
X61127Y408490D01*
X61157Y408604D01*
X61191Y408718D01*
X61228Y408830D01*
X61269Y408941D01*
X61314Y409050D01*
X61362Y409158D01*
X61414Y409264D01*
X61470Y409369D01*
X61529Y409471D01*
X61591Y409571D01*
X61657Y409669D01*
X61726Y409765D01*
X61799Y409859D01*
X61874Y409950D01*
X61953Y410038D01*
X62034Y410124D01*
X62119Y410207D01*
X62206Y410287D01*
X62295Y410364D01*
X62388Y410438D01*
X62482Y410508D01*
X62579Y410576D01*
X62679Y410640D01*
X62780Y410701D01*
X62883Y410758D01*
X62989Y410812D01*
X63096Y410863D01*
X63204Y410909D01*
X63314Y410952D01*
X63426Y410991D01*
X63539Y411027D01*
X63653Y411058D01*
X63768Y411086D01*
X63883Y411110D01*
X64000Y411130D01*
X64117Y411146D01*
X64235Y411158D01*
X64353Y411166D01*
X64471Y411170D01*
X64589Y411170D01*
X64707Y411166D01*
X64825Y411158D01*
X64943Y411146D01*
X65060Y411130D01*
X65177Y411110D01*
X65292Y411086D01*
X65407Y411058D01*
X65521Y411027D01*
X65634Y410991D01*
X65746Y410952D01*
X65856Y410909D01*
X65964Y410863D01*
X66071Y410812D01*
X66177Y410758D01*
X66280Y410701D01*
X66381Y410640D01*
X66481Y410576D01*
X66578Y410508D01*
X66672Y410438D01*
X66765Y410364D01*
X66854Y410287D01*
X66941Y410207D01*
X67026Y410124D01*
X67107Y410038D01*
X67186Y409950D01*
X67261Y409859D01*
X67334Y409765D01*
X67403Y409669D01*
X67469Y409571D01*
X67531Y409471D01*
X67590Y409369D01*
X67646Y409264D01*
X67698Y409158D01*
X67746Y409050D01*
X67791Y408941D01*
X67832Y408830D01*
X67869Y408718D01*
X67903Y408604D01*
X67933Y408490D01*
X67958Y408375D01*
X67980Y408258D01*
X67998Y408141D01*
X68012Y408024D01*
X68022Y407906D01*
X68028Y407788D01*
X68030Y407670D01*
X68028Y407552D01*
X68022Y407434D01*
X68012Y407316D01*
X67998Y407199D01*
X67980Y407082D01*
X67958Y406965D01*
X67933Y406850D01*
X67903Y406736D01*
X67869Y406622D01*
X67832Y406510D01*
X67791Y406399D01*
X67746Y406290D01*
X67698Y406182D01*
X67646Y406076D01*
X67590Y405971D01*
X67531Y405869D01*
X67469Y405769D01*
X67403Y405671D01*
X67334Y405575D01*
X67261Y405481D01*
X67186Y405390D01*
X67107Y405302D01*
X67026Y405216D01*
X66941Y405133D01*
X66854Y405053D01*
X66765Y404976D01*
X66672Y404902D01*
X66578Y404832D01*
X66481Y404764D01*
X66381Y404700D01*
X66280Y404639D01*
X66177Y404582D01*
X66071Y404528D01*
X65964Y404477D01*
X65856Y404431D01*
X65746Y404388D01*
X65634Y404349D01*
X65521Y404313D01*
X65407Y404282D01*
X65292Y404254D01*
X65177Y404230D01*
X65060Y404210D01*
X64943Y404194D01*
X64825Y404182D01*
X64707Y404174D01*
X64589Y404170D01*
X64471Y404170D01*
X64353Y404174D01*
X64235Y404182D01*
X64117Y404194D01*
X64000Y404210D01*
X63883Y404230D01*
X63768Y404254D01*
X63653Y404282D01*
X63539Y404313D01*
X63426Y404349D01*
X63314Y404388D01*
X63204Y404431D01*
X63096Y404477D01*
X62989Y404528D01*
X62883Y404582D01*
X62780Y404639D01*
X62679Y404700D01*
X62579Y404764D01*
X62482Y404832D01*
X62388Y404902D01*
X62295Y404976D01*
X62206Y405053D01*
X62119Y405133D01*
X62034Y405216D01*
X61953Y405302D01*
X61874Y405390D01*
X61799Y405481D01*
X61726Y405575D01*
X61657Y405671D01*
X61591Y405769D01*
X61529Y405869D01*
X61470Y405971D01*
X61414Y406076D01*
X61362Y406182D01*
X61314Y406290D01*
X61269Y406399D01*
X61228Y406510D01*
X61191Y406622D01*
X61157Y406736D01*
X61127Y406850D01*
X61102Y406965D01*
X61080Y407082D01*
X61062Y407199D01*
X61048Y407316D01*
X61038Y407434D01*
X61032Y407552D01*
X61030Y407670D01*
D13*
X37900Y519900D02*
X139900Y519900D01*
X139900Y419900D02*
X37900Y419900D01*
X78740Y355600D02*
X78740Y350520D01*
X78740Y355600D02*
X78740Y401320D01*
X106680Y401320D02*
X106680Y350520D01*
X101600Y350520D01*
X85090Y350520D02*
X78740Y355600D01*
X78740Y350520D02*
X85090Y350520D01*
X83820Y401320D02*
X78740Y401320D01*
X101600Y401320D02*
X106680Y401320D01*
D10*
X98679Y369855D02*
X89281Y369855D01*
X89281Y372466D01*
X89283Y372566D01*
X89289Y372666D01*
X89298Y372765D01*
X89312Y372865D01*
X89329Y372963D01*
X89350Y373061D01*
X89374Y373158D01*
X89403Y373254D01*
X89435Y373349D01*
X89470Y373442D01*
X89509Y373534D01*
X89552Y373625D01*
X89598Y373713D01*
X89648Y373800D01*
X89700Y373885D01*
X89756Y373968D01*
X89815Y374049D01*
X89878Y374127D01*
X89943Y374203D01*
X90011Y374277D01*
X90081Y374347D01*
X90155Y374415D01*
X90231Y374480D01*
X90309Y374543D01*
X90390Y374602D01*
X90473Y374658D01*
X90558Y374710D01*
X90645Y374760D01*
X90733Y374806D01*
X90824Y374849D01*
X90916Y374888D01*
X91009Y374923D01*
X91104Y374955D01*
X91200Y374984D01*
X91297Y375008D01*
X91395Y375029D01*
X91493Y375046D01*
X91593Y375060D01*
X91692Y375069D01*
X91792Y375075D01*
X91892Y375077D01*
X91892Y375076D02*
X96068Y375076D01*
X96068Y375077D02*
X96168Y375075D01*
X96268Y375069D01*
X96367Y375060D01*
X96467Y375046D01*
X96565Y375029D01*
X96663Y375008D01*
X96760Y374984D01*
X96856Y374955D01*
X96951Y374923D01*
X97044Y374888D01*
X97136Y374849D01*
X97227Y374806D01*
X97315Y374760D01*
X97402Y374710D01*
X97487Y374658D01*
X97570Y374602D01*
X97651Y374543D01*
X97729Y374480D01*
X97805Y374415D01*
X97879Y374347D01*
X97949Y374277D01*
X98017Y374203D01*
X98082Y374127D01*
X98145Y374049D01*
X98204Y373968D01*
X98260Y373885D01*
X98312Y373800D01*
X98362Y373713D01*
X98408Y373625D01*
X98451Y373534D01*
X98490Y373442D01*
X98525Y373349D01*
X98557Y373254D01*
X98586Y373158D01*
X98610Y373061D01*
X98631Y372963D01*
X98648Y372865D01*
X98662Y372765D01*
X98671Y372666D01*
X98677Y372566D01*
X98679Y372466D01*
X98679Y369855D01*
X91369Y379304D02*
X89281Y381914D01*
X98679Y381914D01*
X98679Y379304D02*
X98679Y384525D01*
D14*
X52912Y325374D02*
X52912Y317246D01*
X52912Y325374D02*
X55170Y325374D01*
X55263Y325372D01*
X55356Y325366D01*
X55449Y325357D01*
X55542Y325343D01*
X55633Y325326D01*
X55724Y325305D01*
X55814Y325280D01*
X55903Y325252D01*
X55991Y325220D01*
X56077Y325184D01*
X56162Y325145D01*
X56245Y325102D01*
X56326Y325056D01*
X56405Y325006D01*
X56482Y324954D01*
X56557Y324898D01*
X56629Y324839D01*
X56699Y324777D01*
X56767Y324713D01*
X56831Y324645D01*
X56893Y324575D01*
X56952Y324503D01*
X57008Y324428D01*
X57060Y324351D01*
X57110Y324272D01*
X57156Y324191D01*
X57199Y324108D01*
X57238Y324023D01*
X57274Y323937D01*
X57306Y323849D01*
X57334Y323760D01*
X57359Y323670D01*
X57380Y323579D01*
X57397Y323488D01*
X57411Y323395D01*
X57420Y323302D01*
X57426Y323209D01*
X57428Y323116D01*
X57426Y323023D01*
X57420Y322930D01*
X57411Y322837D01*
X57397Y322744D01*
X57380Y322653D01*
X57359Y322562D01*
X57334Y322472D01*
X57306Y322383D01*
X57274Y322295D01*
X57238Y322209D01*
X57199Y322124D01*
X57156Y322041D01*
X57110Y321960D01*
X57060Y321881D01*
X57008Y321804D01*
X56952Y321729D01*
X56893Y321657D01*
X56831Y321587D01*
X56767Y321519D01*
X56699Y321455D01*
X56629Y321393D01*
X56557Y321334D01*
X56482Y321278D01*
X56405Y321226D01*
X56326Y321176D01*
X56245Y321130D01*
X56162Y321087D01*
X56077Y321048D01*
X55991Y321012D01*
X55903Y320980D01*
X55814Y320952D01*
X55724Y320927D01*
X55633Y320906D01*
X55542Y320889D01*
X55449Y320875D01*
X55356Y320866D01*
X55263Y320860D01*
X55170Y320858D01*
X52912Y320858D01*
X55621Y320858D02*
X57427Y317246D01*
X61953Y323568D02*
X64210Y325374D01*
X64210Y317246D01*
X61953Y317246D02*
X66468Y317246D01*
X164700Y381950D02*
X164700Y411950D01*
X114700Y411950D01*
X114700Y381950D01*
X164700Y341950D02*
X164700Y321950D01*
X154700Y311950D01*
X124700Y311950D01*
X114700Y321950D01*
X114700Y341950D01*
X135415Y359156D02*
X137221Y359156D01*
X135415Y359156D02*
X135332Y359158D01*
X135248Y359164D01*
X135165Y359173D01*
X135083Y359187D01*
X135002Y359204D01*
X134921Y359225D01*
X134841Y359250D01*
X134763Y359278D01*
X134686Y359310D01*
X134610Y359345D01*
X134536Y359384D01*
X134464Y359427D01*
X134394Y359472D01*
X134327Y359521D01*
X134261Y359573D01*
X134198Y359627D01*
X134138Y359685D01*
X134080Y359745D01*
X134026Y359808D01*
X133974Y359874D01*
X133925Y359941D01*
X133880Y360011D01*
X133837Y360083D01*
X133798Y360157D01*
X133763Y360233D01*
X133731Y360310D01*
X133703Y360388D01*
X133678Y360468D01*
X133657Y360549D01*
X133640Y360630D01*
X133626Y360712D01*
X133617Y360795D01*
X133611Y360879D01*
X133609Y360962D01*
X133609Y365478D01*
X133611Y365561D01*
X133617Y365645D01*
X133626Y365728D01*
X133640Y365810D01*
X133657Y365891D01*
X133678Y365972D01*
X133703Y366052D01*
X133731Y366130D01*
X133763Y366207D01*
X133798Y366283D01*
X133837Y366357D01*
X133880Y366429D01*
X133925Y366499D01*
X133974Y366566D01*
X134026Y366632D01*
X134080Y366695D01*
X134138Y366755D01*
X134198Y366813D01*
X134261Y366867D01*
X134327Y366919D01*
X134394Y366968D01*
X134464Y367013D01*
X134536Y367056D01*
X134610Y367095D01*
X134685Y367130D01*
X134763Y367162D01*
X134841Y367190D01*
X134921Y367215D01*
X135001Y367236D01*
X135083Y367253D01*
X135165Y367267D01*
X135248Y367276D01*
X135332Y367282D01*
X135415Y367284D01*
X137221Y367284D01*
X141275Y365478D02*
X143533Y367284D01*
X143533Y359156D01*
X141275Y359156D02*
X145791Y359156D01*
X209790Y604000D02*
X264790Y604000D01*
X264790Y596500D01*
X264790Y539000D01*
X209790Y539000D01*
X209790Y596500D01*
X209790Y604000D01*
X209790Y596500D02*
X264790Y596500D01*
D12*
X339160Y408940D02*
X339162Y409058D01*
X339168Y409176D01*
X339178Y409294D01*
X339192Y409411D01*
X339210Y409528D01*
X339232Y409645D01*
X339257Y409760D01*
X339287Y409874D01*
X339321Y409988D01*
X339358Y410100D01*
X339399Y410211D01*
X339444Y410320D01*
X339492Y410428D01*
X339544Y410534D01*
X339600Y410639D01*
X339659Y410741D01*
X339721Y410841D01*
X339787Y410939D01*
X339856Y411035D01*
X339929Y411129D01*
X340004Y411220D01*
X340083Y411308D01*
X340164Y411394D01*
X340249Y411477D01*
X340336Y411557D01*
X340425Y411634D01*
X340518Y411708D01*
X340612Y411778D01*
X340709Y411846D01*
X340809Y411910D01*
X340910Y411971D01*
X341013Y412028D01*
X341119Y412082D01*
X341226Y412133D01*
X341334Y412179D01*
X341444Y412222D01*
X341556Y412261D01*
X341669Y412297D01*
X341783Y412328D01*
X341898Y412356D01*
X342013Y412380D01*
X342130Y412400D01*
X342247Y412416D01*
X342365Y412428D01*
X342483Y412436D01*
X342601Y412440D01*
X342719Y412440D01*
X342837Y412436D01*
X342955Y412428D01*
X343073Y412416D01*
X343190Y412400D01*
X343307Y412380D01*
X343422Y412356D01*
X343537Y412328D01*
X343651Y412297D01*
X343764Y412261D01*
X343876Y412222D01*
X343986Y412179D01*
X344094Y412133D01*
X344201Y412082D01*
X344307Y412028D01*
X344410Y411971D01*
X344511Y411910D01*
X344611Y411846D01*
X344708Y411778D01*
X344802Y411708D01*
X344895Y411634D01*
X344984Y411557D01*
X345071Y411477D01*
X345156Y411394D01*
X345237Y411308D01*
X345316Y411220D01*
X345391Y411129D01*
X345464Y411035D01*
X345533Y410939D01*
X345599Y410841D01*
X345661Y410741D01*
X345720Y410639D01*
X345776Y410534D01*
X345828Y410428D01*
X345876Y410320D01*
X345921Y410211D01*
X345962Y410100D01*
X345999Y409988D01*
X346033Y409874D01*
X346063Y409760D01*
X346088Y409645D01*
X346110Y409528D01*
X346128Y409411D01*
X346142Y409294D01*
X346152Y409176D01*
X346158Y409058D01*
X346160Y408940D01*
X346158Y408822D01*
X346152Y408704D01*
X346142Y408586D01*
X346128Y408469D01*
X346110Y408352D01*
X346088Y408235D01*
X346063Y408120D01*
X346033Y408006D01*
X345999Y407892D01*
X345962Y407780D01*
X345921Y407669D01*
X345876Y407560D01*
X345828Y407452D01*
X345776Y407346D01*
X345720Y407241D01*
X345661Y407139D01*
X345599Y407039D01*
X345533Y406941D01*
X345464Y406845D01*
X345391Y406751D01*
X345316Y406660D01*
X345237Y406572D01*
X345156Y406486D01*
X345071Y406403D01*
X344984Y406323D01*
X344895Y406246D01*
X344802Y406172D01*
X344708Y406102D01*
X344611Y406034D01*
X344511Y405970D01*
X344410Y405909D01*
X344307Y405852D01*
X344201Y405798D01*
X344094Y405747D01*
X343986Y405701D01*
X343876Y405658D01*
X343764Y405619D01*
X343651Y405583D01*
X343537Y405552D01*
X343422Y405524D01*
X343307Y405500D01*
X343190Y405480D01*
X343073Y405464D01*
X342955Y405452D01*
X342837Y405444D01*
X342719Y405440D01*
X342601Y405440D01*
X342483Y405444D01*
X342365Y405452D01*
X342247Y405464D01*
X342130Y405480D01*
X342013Y405500D01*
X341898Y405524D01*
X341783Y405552D01*
X341669Y405583D01*
X341556Y405619D01*
X341444Y405658D01*
X341334Y405701D01*
X341226Y405747D01*
X341119Y405798D01*
X341013Y405852D01*
X340910Y405909D01*
X340809Y405970D01*
X340709Y406034D01*
X340612Y406102D01*
X340518Y406172D01*
X340425Y406246D01*
X340336Y406323D01*
X340249Y406403D01*
X340164Y406486D01*
X340083Y406572D01*
X340004Y406660D01*
X339929Y406751D01*
X339856Y406845D01*
X339787Y406941D01*
X339721Y407039D01*
X339659Y407139D01*
X339600Y407241D01*
X339544Y407346D01*
X339492Y407452D01*
X339444Y407560D01*
X339399Y407669D01*
X339358Y407780D01*
X339321Y407892D01*
X339287Y408006D01*
X339257Y408120D01*
X339232Y408235D01*
X339210Y408352D01*
X339192Y408469D01*
X339178Y408586D01*
X339168Y408704D01*
X339162Y408822D01*
X339160Y408940D01*
D13*
X318570Y519900D02*
X420570Y519900D01*
X420570Y419900D02*
X318570Y419900D01*
X359410Y356870D02*
X359410Y351790D01*
X359410Y356870D02*
X359410Y402590D01*
X387350Y402590D02*
X387350Y351790D01*
X382270Y351790D01*
X365760Y351790D02*
X359410Y356870D01*
X359410Y351790D02*
X365760Y351790D01*
X364490Y402590D02*
X359410Y402590D01*
X382270Y402590D02*
X387350Y402590D01*
D10*
X378079Y369855D02*
X368681Y369855D01*
X368681Y372466D01*
X368683Y372566D01*
X368689Y372666D01*
X368698Y372765D01*
X368712Y372865D01*
X368729Y372963D01*
X368750Y373061D01*
X368774Y373158D01*
X368803Y373254D01*
X368835Y373349D01*
X368870Y373442D01*
X368909Y373534D01*
X368952Y373625D01*
X368998Y373713D01*
X369048Y373800D01*
X369100Y373885D01*
X369156Y373968D01*
X369215Y374049D01*
X369278Y374127D01*
X369343Y374203D01*
X369411Y374277D01*
X369481Y374347D01*
X369555Y374415D01*
X369631Y374480D01*
X369709Y374543D01*
X369790Y374602D01*
X369873Y374658D01*
X369958Y374710D01*
X370045Y374760D01*
X370133Y374806D01*
X370224Y374849D01*
X370316Y374888D01*
X370409Y374923D01*
X370504Y374955D01*
X370600Y374984D01*
X370697Y375008D01*
X370795Y375029D01*
X370893Y375046D01*
X370993Y375060D01*
X371092Y375069D01*
X371192Y375075D01*
X371292Y375077D01*
X371292Y375076D02*
X375468Y375076D01*
X375468Y375077D02*
X375568Y375075D01*
X375668Y375069D01*
X375767Y375060D01*
X375867Y375046D01*
X375965Y375029D01*
X376063Y375008D01*
X376160Y374984D01*
X376256Y374955D01*
X376351Y374923D01*
X376444Y374888D01*
X376536Y374849D01*
X376627Y374806D01*
X376715Y374760D01*
X376802Y374710D01*
X376887Y374658D01*
X376970Y374602D01*
X377051Y374543D01*
X377129Y374480D01*
X377205Y374415D01*
X377279Y374347D01*
X377349Y374277D01*
X377417Y374203D01*
X377482Y374127D01*
X377545Y374049D01*
X377604Y373968D01*
X377660Y373885D01*
X377712Y373800D01*
X377762Y373713D01*
X377808Y373625D01*
X377851Y373534D01*
X377890Y373442D01*
X377925Y373349D01*
X377957Y373254D01*
X377986Y373158D01*
X378010Y373061D01*
X378031Y372963D01*
X378048Y372865D01*
X378062Y372765D01*
X378071Y372666D01*
X378077Y372566D01*
X378079Y372466D01*
X378079Y369855D01*
X368681Y382175D02*
X368683Y382270D01*
X368689Y382364D01*
X368698Y382458D01*
X368711Y382552D01*
X368728Y382645D01*
X368749Y382737D01*
X368774Y382829D01*
X368802Y382919D01*
X368834Y383008D01*
X368869Y383096D01*
X368908Y383182D01*
X368950Y383267D01*
X368996Y383350D01*
X369045Y383431D01*
X369097Y383510D01*
X369152Y383587D01*
X369211Y383661D01*
X369272Y383733D01*
X369336Y383803D01*
X369403Y383870D01*
X369473Y383934D01*
X369545Y383995D01*
X369619Y384054D01*
X369696Y384109D01*
X369775Y384161D01*
X369856Y384210D01*
X369939Y384256D01*
X370024Y384298D01*
X370110Y384337D01*
X370198Y384372D01*
X370287Y384404D01*
X370377Y384432D01*
X370469Y384457D01*
X370561Y384478D01*
X370654Y384495D01*
X370748Y384508D01*
X370842Y384517D01*
X370936Y384523D01*
X371031Y384525D01*
X368681Y382175D02*
X368683Y382067D01*
X368689Y381958D01*
X368699Y381850D01*
X368712Y381743D01*
X368730Y381636D01*
X368751Y381529D01*
X368776Y381424D01*
X368805Y381319D01*
X368837Y381216D01*
X368874Y381114D01*
X368914Y381013D01*
X368957Y380914D01*
X369004Y380816D01*
X369055Y380720D01*
X369109Y380626D01*
X369166Y380534D01*
X369227Y380444D01*
X369291Y380356D01*
X369357Y380271D01*
X369427Y380188D01*
X369500Y380108D01*
X369576Y380030D01*
X369654Y379955D01*
X369735Y379883D01*
X369819Y379814D01*
X369905Y379748D01*
X369993Y379685D01*
X370084Y379626D01*
X370176Y379569D01*
X370271Y379516D01*
X370368Y379467D01*
X370466Y379421D01*
X370565Y379378D01*
X370667Y379339D01*
X370769Y379304D01*
X372859Y383742D02*
X372790Y383811D01*
X372719Y383877D01*
X372646Y383941D01*
X372570Y384002D01*
X372491Y384060D01*
X372411Y384114D01*
X372328Y384166D01*
X372244Y384214D01*
X372158Y384260D01*
X372070Y384301D01*
X371980Y384340D01*
X371889Y384375D01*
X371797Y384406D01*
X371704Y384434D01*
X371610Y384458D01*
X371515Y384478D01*
X371419Y384495D01*
X371322Y384508D01*
X371225Y384517D01*
X371128Y384523D01*
X371031Y384525D01*
X372858Y383742D02*
X378079Y379304D01*
X378079Y384525D01*
D14*
X333582Y324104D02*
X333582Y315976D01*
X333582Y324104D02*
X335840Y324104D01*
X335933Y324102D01*
X336026Y324096D01*
X336119Y324087D01*
X336212Y324073D01*
X336303Y324056D01*
X336394Y324035D01*
X336484Y324010D01*
X336573Y323982D01*
X336661Y323950D01*
X336747Y323914D01*
X336832Y323875D01*
X336915Y323832D01*
X336996Y323786D01*
X337075Y323736D01*
X337152Y323684D01*
X337227Y323628D01*
X337299Y323569D01*
X337369Y323507D01*
X337437Y323443D01*
X337501Y323375D01*
X337563Y323305D01*
X337622Y323233D01*
X337678Y323158D01*
X337730Y323081D01*
X337780Y323002D01*
X337826Y322921D01*
X337869Y322838D01*
X337908Y322753D01*
X337944Y322667D01*
X337976Y322579D01*
X338004Y322490D01*
X338029Y322400D01*
X338050Y322309D01*
X338067Y322218D01*
X338081Y322125D01*
X338090Y322032D01*
X338096Y321939D01*
X338098Y321846D01*
X338096Y321753D01*
X338090Y321660D01*
X338081Y321567D01*
X338067Y321474D01*
X338050Y321383D01*
X338029Y321292D01*
X338004Y321202D01*
X337976Y321113D01*
X337944Y321025D01*
X337908Y320939D01*
X337869Y320854D01*
X337826Y320771D01*
X337780Y320690D01*
X337730Y320611D01*
X337678Y320534D01*
X337622Y320459D01*
X337563Y320387D01*
X337501Y320317D01*
X337437Y320249D01*
X337369Y320185D01*
X337299Y320123D01*
X337227Y320064D01*
X337152Y320008D01*
X337075Y319956D01*
X336996Y319906D01*
X336915Y319860D01*
X336832Y319817D01*
X336747Y319778D01*
X336661Y319742D01*
X336573Y319710D01*
X336484Y319682D01*
X336394Y319657D01*
X336303Y319636D01*
X336212Y319619D01*
X336119Y319605D01*
X336026Y319596D01*
X335933Y319590D01*
X335840Y319588D01*
X333582Y319588D01*
X336291Y319588D02*
X338097Y315976D01*
X345106Y324104D02*
X345195Y324102D01*
X345283Y324096D01*
X345371Y324087D01*
X345459Y324073D01*
X345546Y324056D01*
X345632Y324035D01*
X345717Y324010D01*
X345801Y323981D01*
X345884Y323949D01*
X345965Y323914D01*
X346044Y323874D01*
X346122Y323832D01*
X346198Y323786D01*
X346272Y323737D01*
X346343Y323684D01*
X346412Y323629D01*
X346479Y323570D01*
X346543Y323509D01*
X346604Y323445D01*
X346663Y323378D01*
X346718Y323309D01*
X346771Y323238D01*
X346820Y323164D01*
X346866Y323088D01*
X346908Y323010D01*
X346948Y322931D01*
X346983Y322850D01*
X347015Y322767D01*
X347044Y322683D01*
X347069Y322598D01*
X347090Y322512D01*
X347107Y322425D01*
X347121Y322337D01*
X347130Y322249D01*
X347136Y322161D01*
X347138Y322072D01*
X345106Y324104D02*
X345007Y324102D01*
X344907Y324096D01*
X344808Y324087D01*
X344710Y324074D01*
X344611Y324057D01*
X344514Y324036D01*
X344418Y324012D01*
X344322Y323984D01*
X344228Y323952D01*
X344135Y323917D01*
X344043Y323878D01*
X343953Y323836D01*
X343865Y323790D01*
X343778Y323741D01*
X343693Y323689D01*
X343611Y323633D01*
X343530Y323575D01*
X343452Y323513D01*
X343376Y323449D01*
X343303Y323382D01*
X343232Y323312D01*
X343165Y323239D01*
X343099Y323164D01*
X343037Y323086D01*
X342978Y323006D01*
X342922Y322924D01*
X342869Y322840D01*
X342819Y322753D01*
X342773Y322665D01*
X342730Y322576D01*
X342690Y322484D01*
X342654Y322391D01*
X342622Y322297D01*
X346462Y320491D02*
X346528Y320557D01*
X346591Y320625D01*
X346651Y320696D01*
X346708Y320770D01*
X346762Y320845D01*
X346812Y320923D01*
X346860Y321004D01*
X346903Y321086D01*
X346944Y321170D01*
X346980Y321255D01*
X347013Y321342D01*
X347043Y321430D01*
X347068Y321520D01*
X347090Y321610D01*
X347107Y321702D01*
X347121Y321794D01*
X347131Y321886D01*
X347137Y321979D01*
X347139Y322072D01*
X346461Y320492D02*
X342623Y315976D01*
X347138Y315976D01*
X444100Y381950D02*
X444100Y411950D01*
X394100Y411950D01*
X394100Y381950D01*
X444100Y341950D02*
X444100Y321950D01*
X434100Y311950D01*
X404100Y311950D01*
X394100Y321950D01*
X394100Y341950D01*
X414815Y360426D02*
X416621Y360426D01*
X414815Y360426D02*
X414732Y360428D01*
X414648Y360434D01*
X414565Y360443D01*
X414483Y360457D01*
X414402Y360474D01*
X414321Y360495D01*
X414241Y360520D01*
X414163Y360548D01*
X414086Y360580D01*
X414010Y360615D01*
X413936Y360654D01*
X413864Y360697D01*
X413794Y360742D01*
X413727Y360791D01*
X413661Y360843D01*
X413598Y360897D01*
X413538Y360955D01*
X413480Y361015D01*
X413426Y361078D01*
X413374Y361144D01*
X413325Y361211D01*
X413280Y361281D01*
X413237Y361353D01*
X413198Y361427D01*
X413163Y361503D01*
X413131Y361580D01*
X413103Y361658D01*
X413078Y361738D01*
X413057Y361819D01*
X413040Y361900D01*
X413026Y361982D01*
X413017Y362065D01*
X413011Y362149D01*
X413009Y362232D01*
X413009Y366748D01*
X413011Y366831D01*
X413017Y366915D01*
X413026Y366998D01*
X413040Y367080D01*
X413057Y367161D01*
X413078Y367242D01*
X413103Y367322D01*
X413131Y367400D01*
X413163Y367477D01*
X413198Y367553D01*
X413237Y367627D01*
X413280Y367699D01*
X413325Y367769D01*
X413374Y367836D01*
X413426Y367902D01*
X413480Y367965D01*
X413538Y368025D01*
X413598Y368083D01*
X413661Y368137D01*
X413727Y368189D01*
X413794Y368238D01*
X413864Y368283D01*
X413936Y368326D01*
X414010Y368365D01*
X414085Y368400D01*
X414163Y368432D01*
X414241Y368460D01*
X414321Y368485D01*
X414401Y368506D01*
X414483Y368523D01*
X414565Y368537D01*
X414648Y368546D01*
X414732Y368552D01*
X414815Y368554D01*
X416621Y368554D01*
X423159Y368554D02*
X423248Y368552D01*
X423336Y368546D01*
X423424Y368537D01*
X423512Y368523D01*
X423599Y368506D01*
X423685Y368485D01*
X423770Y368460D01*
X423854Y368431D01*
X423937Y368399D01*
X424018Y368364D01*
X424097Y368324D01*
X424175Y368282D01*
X424251Y368236D01*
X424325Y368187D01*
X424396Y368134D01*
X424465Y368079D01*
X424532Y368020D01*
X424596Y367959D01*
X424657Y367895D01*
X424716Y367828D01*
X424771Y367759D01*
X424824Y367688D01*
X424873Y367614D01*
X424919Y367538D01*
X424961Y367460D01*
X425001Y367381D01*
X425036Y367300D01*
X425068Y367217D01*
X425097Y367133D01*
X425122Y367048D01*
X425143Y366962D01*
X425160Y366875D01*
X425174Y366787D01*
X425183Y366699D01*
X425189Y366611D01*
X425191Y366522D01*
X423159Y368554D02*
X423060Y368552D01*
X422960Y368546D01*
X422861Y368537D01*
X422763Y368524D01*
X422664Y368507D01*
X422567Y368486D01*
X422471Y368462D01*
X422375Y368434D01*
X422281Y368402D01*
X422188Y368367D01*
X422096Y368328D01*
X422006Y368286D01*
X421918Y368240D01*
X421831Y368191D01*
X421746Y368139D01*
X421664Y368083D01*
X421583Y368025D01*
X421505Y367963D01*
X421429Y367899D01*
X421356Y367832D01*
X421285Y367762D01*
X421218Y367689D01*
X421152Y367614D01*
X421090Y367536D01*
X421031Y367456D01*
X420975Y367374D01*
X420922Y367290D01*
X420872Y367203D01*
X420826Y367115D01*
X420783Y367026D01*
X420743Y366934D01*
X420707Y366841D01*
X420675Y366747D01*
X424514Y364941D02*
X424580Y365007D01*
X424643Y365075D01*
X424703Y365146D01*
X424760Y365220D01*
X424814Y365295D01*
X424864Y365373D01*
X424912Y365454D01*
X424955Y365536D01*
X424996Y365620D01*
X425032Y365705D01*
X425065Y365792D01*
X425095Y365880D01*
X425120Y365970D01*
X425142Y366060D01*
X425159Y366152D01*
X425173Y366244D01*
X425183Y366336D01*
X425189Y366429D01*
X425191Y366522D01*
X424514Y364942D02*
X420675Y360426D01*
X425191Y360426D01*
X384170Y604000D02*
X329170Y604000D01*
X384170Y604000D02*
X384170Y596500D01*
X384170Y539000D01*
X329170Y539000D01*
X329170Y596500D01*
X329170Y604000D01*
X329170Y596500D02*
X384170Y596500D01*
D12*
X200730Y407670D02*
X200732Y407788D01*
X200738Y407906D01*
X200748Y408024D01*
X200762Y408141D01*
X200780Y408258D01*
X200802Y408375D01*
X200827Y408490D01*
X200857Y408604D01*
X200891Y408718D01*
X200928Y408830D01*
X200969Y408941D01*
X201014Y409050D01*
X201062Y409158D01*
X201114Y409264D01*
X201170Y409369D01*
X201229Y409471D01*
X201291Y409571D01*
X201357Y409669D01*
X201426Y409765D01*
X201499Y409859D01*
X201574Y409950D01*
X201653Y410038D01*
X201734Y410124D01*
X201819Y410207D01*
X201906Y410287D01*
X201995Y410364D01*
X202088Y410438D01*
X202182Y410508D01*
X202279Y410576D01*
X202379Y410640D01*
X202480Y410701D01*
X202583Y410758D01*
X202689Y410812D01*
X202796Y410863D01*
X202904Y410909D01*
X203014Y410952D01*
X203126Y410991D01*
X203239Y411027D01*
X203353Y411058D01*
X203468Y411086D01*
X203583Y411110D01*
X203700Y411130D01*
X203817Y411146D01*
X203935Y411158D01*
X204053Y411166D01*
X204171Y411170D01*
X204289Y411170D01*
X204407Y411166D01*
X204525Y411158D01*
X204643Y411146D01*
X204760Y411130D01*
X204877Y411110D01*
X204992Y411086D01*
X205107Y411058D01*
X205221Y411027D01*
X205334Y410991D01*
X205446Y410952D01*
X205556Y410909D01*
X205664Y410863D01*
X205771Y410812D01*
X205877Y410758D01*
X205980Y410701D01*
X206081Y410640D01*
X206181Y410576D01*
X206278Y410508D01*
X206372Y410438D01*
X206465Y410364D01*
X206554Y410287D01*
X206641Y410207D01*
X206726Y410124D01*
X206807Y410038D01*
X206886Y409950D01*
X206961Y409859D01*
X207034Y409765D01*
X207103Y409669D01*
X207169Y409571D01*
X207231Y409471D01*
X207290Y409369D01*
X207346Y409264D01*
X207398Y409158D01*
X207446Y409050D01*
X207491Y408941D01*
X207532Y408830D01*
X207569Y408718D01*
X207603Y408604D01*
X207633Y408490D01*
X207658Y408375D01*
X207680Y408258D01*
X207698Y408141D01*
X207712Y408024D01*
X207722Y407906D01*
X207728Y407788D01*
X207730Y407670D01*
X207728Y407552D01*
X207722Y407434D01*
X207712Y407316D01*
X207698Y407199D01*
X207680Y407082D01*
X207658Y406965D01*
X207633Y406850D01*
X207603Y406736D01*
X207569Y406622D01*
X207532Y406510D01*
X207491Y406399D01*
X207446Y406290D01*
X207398Y406182D01*
X207346Y406076D01*
X207290Y405971D01*
X207231Y405869D01*
X207169Y405769D01*
X207103Y405671D01*
X207034Y405575D01*
X206961Y405481D01*
X206886Y405390D01*
X206807Y405302D01*
X206726Y405216D01*
X206641Y405133D01*
X206554Y405053D01*
X206465Y404976D01*
X206372Y404902D01*
X206278Y404832D01*
X206181Y404764D01*
X206081Y404700D01*
X205980Y404639D01*
X205877Y404582D01*
X205771Y404528D01*
X205664Y404477D01*
X205556Y404431D01*
X205446Y404388D01*
X205334Y404349D01*
X205221Y404313D01*
X205107Y404282D01*
X204992Y404254D01*
X204877Y404230D01*
X204760Y404210D01*
X204643Y404194D01*
X204525Y404182D01*
X204407Y404174D01*
X204289Y404170D01*
X204171Y404170D01*
X204053Y404174D01*
X203935Y404182D01*
X203817Y404194D01*
X203700Y404210D01*
X203583Y404230D01*
X203468Y404254D01*
X203353Y404282D01*
X203239Y404313D01*
X203126Y404349D01*
X203014Y404388D01*
X202904Y404431D01*
X202796Y404477D01*
X202689Y404528D01*
X202583Y404582D01*
X202480Y404639D01*
X202379Y404700D01*
X202279Y404764D01*
X202182Y404832D01*
X202088Y404902D01*
X201995Y404976D01*
X201906Y405053D01*
X201819Y405133D01*
X201734Y405216D01*
X201653Y405302D01*
X201574Y405390D01*
X201499Y405481D01*
X201426Y405575D01*
X201357Y405671D01*
X201291Y405769D01*
X201229Y405869D01*
X201170Y405971D01*
X201114Y406076D01*
X201062Y406182D01*
X201014Y406290D01*
X200969Y406399D01*
X200928Y406510D01*
X200891Y406622D01*
X200857Y406736D01*
X200827Y406850D01*
X200802Y406965D01*
X200780Y407082D01*
X200762Y407199D01*
X200748Y407316D01*
X200738Y407434D01*
X200732Y407552D01*
X200730Y407670D01*
D13*
X177600Y519900D02*
X279600Y519900D01*
X279600Y419900D02*
X177600Y419900D01*
X218440Y356870D02*
X218440Y351790D01*
X218440Y356870D02*
X218440Y402590D01*
X246380Y402590D02*
X246380Y351790D01*
X241300Y351790D01*
X224790Y351790D02*
X218440Y356870D01*
X218440Y351790D02*
X224790Y351790D01*
X223520Y402590D02*
X218440Y402590D01*
X241300Y402590D02*
X246380Y402590D01*
D10*
X240919Y368585D02*
X231521Y368585D01*
X231521Y371196D01*
X231523Y371296D01*
X231529Y371396D01*
X231538Y371495D01*
X231552Y371595D01*
X231569Y371693D01*
X231590Y371791D01*
X231614Y371888D01*
X231643Y371984D01*
X231675Y372079D01*
X231710Y372172D01*
X231749Y372264D01*
X231792Y372355D01*
X231838Y372443D01*
X231888Y372530D01*
X231940Y372615D01*
X231996Y372698D01*
X232055Y372779D01*
X232118Y372857D01*
X232183Y372933D01*
X232251Y373007D01*
X232321Y373077D01*
X232395Y373145D01*
X232471Y373210D01*
X232549Y373273D01*
X232630Y373332D01*
X232713Y373388D01*
X232798Y373440D01*
X232885Y373490D01*
X232973Y373536D01*
X233064Y373579D01*
X233156Y373618D01*
X233249Y373653D01*
X233344Y373685D01*
X233440Y373714D01*
X233537Y373738D01*
X233635Y373759D01*
X233733Y373776D01*
X233833Y373790D01*
X233932Y373799D01*
X234032Y373805D01*
X234132Y373807D01*
X234132Y373806D02*
X238308Y373806D01*
X238308Y373807D02*
X238408Y373805D01*
X238508Y373799D01*
X238607Y373790D01*
X238707Y373776D01*
X238805Y373759D01*
X238903Y373738D01*
X239000Y373714D01*
X239096Y373685D01*
X239191Y373653D01*
X239284Y373618D01*
X239376Y373579D01*
X239467Y373536D01*
X239555Y373490D01*
X239642Y373440D01*
X239727Y373388D01*
X239810Y373332D01*
X239891Y373273D01*
X239969Y373210D01*
X240045Y373145D01*
X240119Y373077D01*
X240189Y373007D01*
X240257Y372933D01*
X240322Y372857D01*
X240385Y372779D01*
X240444Y372698D01*
X240500Y372615D01*
X240552Y372530D01*
X240602Y372443D01*
X240648Y372355D01*
X240691Y372264D01*
X240730Y372172D01*
X240765Y372079D01*
X240797Y371984D01*
X240826Y371888D01*
X240850Y371791D01*
X240871Y371693D01*
X240888Y371595D01*
X240902Y371495D01*
X240911Y371396D01*
X240917Y371296D01*
X240919Y371196D01*
X240919Y368585D01*
X240919Y378034D02*
X240919Y380644D01*
X240917Y380745D01*
X240911Y380846D01*
X240901Y380947D01*
X240888Y381047D01*
X240870Y381147D01*
X240849Y381246D01*
X240823Y381344D01*
X240794Y381441D01*
X240762Y381537D01*
X240725Y381631D01*
X240685Y381724D01*
X240641Y381816D01*
X240594Y381905D01*
X240543Y381993D01*
X240489Y382079D01*
X240432Y382162D01*
X240372Y382244D01*
X240308Y382322D01*
X240242Y382399D01*
X240172Y382472D01*
X240100Y382543D01*
X240025Y382611D01*
X239947Y382676D01*
X239867Y382738D01*
X239785Y382797D01*
X239700Y382853D01*
X239614Y382905D01*
X239525Y382954D01*
X239434Y383000D01*
X239342Y383041D01*
X239248Y383080D01*
X239153Y383114D01*
X239057Y383145D01*
X238959Y383172D01*
X238861Y383196D01*
X238761Y383215D01*
X238661Y383231D01*
X238561Y383243D01*
X238460Y383251D01*
X238359Y383255D01*
X238257Y383255D01*
X238156Y383251D01*
X238055Y383243D01*
X237955Y383231D01*
X237855Y383215D01*
X237755Y383196D01*
X237657Y383172D01*
X237559Y383145D01*
X237463Y383114D01*
X237368Y383080D01*
X237274Y383041D01*
X237182Y383000D01*
X237091Y382954D01*
X237003Y382905D01*
X236916Y382853D01*
X236831Y382797D01*
X236749Y382738D01*
X236669Y382676D01*
X236591Y382611D01*
X236516Y382543D01*
X236444Y382472D01*
X236374Y382399D01*
X236308Y382322D01*
X236244Y382244D01*
X236184Y382162D01*
X236127Y382079D01*
X236073Y381993D01*
X236022Y381905D01*
X235975Y381816D01*
X235931Y381724D01*
X235891Y381631D01*
X235854Y381537D01*
X235822Y381441D01*
X235793Y381344D01*
X235767Y381246D01*
X235746Y381147D01*
X235728Y381047D01*
X235715Y380947D01*
X235705Y380846D01*
X235699Y380745D01*
X235697Y380644D01*
X231521Y381167D02*
X231521Y378034D01*
X231521Y381167D02*
X231523Y381257D01*
X231529Y381346D01*
X231538Y381436D01*
X231552Y381525D01*
X231569Y381613D01*
X231590Y381700D01*
X231615Y381787D01*
X231644Y381872D01*
X231676Y381956D01*
X231711Y382038D01*
X231751Y382119D01*
X231793Y382198D01*
X231839Y382275D01*
X231889Y382350D01*
X231941Y382423D01*
X231997Y382494D01*
X232055Y382562D01*
X232117Y382627D01*
X232181Y382690D01*
X232248Y382750D01*
X232317Y382807D01*
X232389Y382861D01*
X232463Y382912D01*
X232539Y382960D01*
X232617Y383004D01*
X232697Y383045D01*
X232779Y383083D01*
X232862Y383117D01*
X232947Y383147D01*
X233033Y383174D01*
X233119Y383197D01*
X233207Y383216D01*
X233296Y383231D01*
X233385Y383243D01*
X233474Y383251D01*
X233564Y383255D01*
X233654Y383255D01*
X233744Y383251D01*
X233833Y383243D01*
X233922Y383231D01*
X234011Y383216D01*
X234099Y383197D01*
X234185Y383174D01*
X234271Y383147D01*
X234356Y383117D01*
X234439Y383083D01*
X234521Y383045D01*
X234601Y383004D01*
X234679Y382960D01*
X234755Y382912D01*
X234829Y382861D01*
X234901Y382807D01*
X234970Y382750D01*
X235037Y382690D01*
X235101Y382627D01*
X235163Y382562D01*
X235221Y382494D01*
X235277Y382423D01*
X235329Y382350D01*
X235379Y382275D01*
X235425Y382198D01*
X235467Y382119D01*
X235507Y382038D01*
X235542Y381956D01*
X235574Y381872D01*
X235603Y381787D01*
X235628Y381700D01*
X235649Y381613D01*
X235666Y381525D01*
X235680Y381436D01*
X235689Y381346D01*
X235695Y381257D01*
X235697Y381167D01*
X235698Y381167D02*
X235698Y379078D01*
D14*
X195152Y324104D02*
X195152Y315976D01*
X195152Y324104D02*
X197410Y324104D01*
X197503Y324102D01*
X197596Y324096D01*
X197689Y324087D01*
X197782Y324073D01*
X197873Y324056D01*
X197964Y324035D01*
X198054Y324010D01*
X198143Y323982D01*
X198231Y323950D01*
X198317Y323914D01*
X198402Y323875D01*
X198485Y323832D01*
X198566Y323786D01*
X198645Y323736D01*
X198722Y323684D01*
X198797Y323628D01*
X198869Y323569D01*
X198939Y323507D01*
X199007Y323443D01*
X199071Y323375D01*
X199133Y323305D01*
X199192Y323233D01*
X199248Y323158D01*
X199300Y323081D01*
X199350Y323002D01*
X199396Y322921D01*
X199439Y322838D01*
X199478Y322753D01*
X199514Y322667D01*
X199546Y322579D01*
X199574Y322490D01*
X199599Y322400D01*
X199620Y322309D01*
X199637Y322218D01*
X199651Y322125D01*
X199660Y322032D01*
X199666Y321939D01*
X199668Y321846D01*
X199666Y321753D01*
X199660Y321660D01*
X199651Y321567D01*
X199637Y321474D01*
X199620Y321383D01*
X199599Y321292D01*
X199574Y321202D01*
X199546Y321113D01*
X199514Y321025D01*
X199478Y320939D01*
X199439Y320854D01*
X199396Y320771D01*
X199350Y320690D01*
X199300Y320611D01*
X199248Y320534D01*
X199192Y320459D01*
X199133Y320387D01*
X199071Y320317D01*
X199007Y320249D01*
X198939Y320185D01*
X198869Y320123D01*
X198797Y320064D01*
X198722Y320008D01*
X198645Y319956D01*
X198566Y319906D01*
X198485Y319860D01*
X198402Y319817D01*
X198317Y319778D01*
X198231Y319742D01*
X198143Y319710D01*
X198054Y319682D01*
X197964Y319657D01*
X197873Y319636D01*
X197782Y319619D01*
X197689Y319605D01*
X197596Y319596D01*
X197503Y319590D01*
X197410Y319588D01*
X195152Y319588D01*
X197861Y319588D02*
X199667Y315976D01*
X204193Y315976D02*
X206450Y315976D01*
X206543Y315978D01*
X206636Y315984D01*
X206729Y315993D01*
X206822Y316007D01*
X206913Y316024D01*
X207004Y316045D01*
X207094Y316070D01*
X207183Y316098D01*
X207271Y316130D01*
X207357Y316166D01*
X207442Y316205D01*
X207525Y316248D01*
X207606Y316294D01*
X207685Y316344D01*
X207762Y316396D01*
X207837Y316452D01*
X207909Y316511D01*
X207979Y316573D01*
X208047Y316637D01*
X208111Y316705D01*
X208173Y316775D01*
X208232Y316847D01*
X208288Y316922D01*
X208340Y316999D01*
X208390Y317078D01*
X208436Y317159D01*
X208479Y317242D01*
X208518Y317327D01*
X208554Y317413D01*
X208586Y317501D01*
X208614Y317590D01*
X208639Y317680D01*
X208660Y317771D01*
X208677Y317862D01*
X208691Y317955D01*
X208700Y318048D01*
X208706Y318141D01*
X208708Y318234D01*
X208706Y318327D01*
X208700Y318420D01*
X208691Y318513D01*
X208677Y318606D01*
X208660Y318697D01*
X208639Y318788D01*
X208614Y318878D01*
X208586Y318967D01*
X208554Y319055D01*
X208518Y319141D01*
X208479Y319226D01*
X208436Y319309D01*
X208390Y319390D01*
X208340Y319469D01*
X208288Y319546D01*
X208232Y319621D01*
X208173Y319693D01*
X208111Y319763D01*
X208047Y319831D01*
X207979Y319895D01*
X207909Y319957D01*
X207837Y320016D01*
X207762Y320072D01*
X207685Y320124D01*
X207606Y320174D01*
X207525Y320220D01*
X207442Y320263D01*
X207357Y320302D01*
X207271Y320338D01*
X207183Y320370D01*
X207094Y320398D01*
X207004Y320423D01*
X206913Y320444D01*
X206822Y320461D01*
X206729Y320475D01*
X206636Y320484D01*
X206543Y320490D01*
X206450Y320492D01*
X206902Y324104D02*
X204193Y324104D01*
X206902Y324104D02*
X206985Y324102D01*
X207069Y324096D01*
X207152Y324087D01*
X207234Y324073D01*
X207315Y324056D01*
X207396Y324035D01*
X207476Y324010D01*
X207554Y323982D01*
X207631Y323950D01*
X207707Y323915D01*
X207781Y323876D01*
X207853Y323833D01*
X207923Y323788D01*
X207990Y323739D01*
X208056Y323687D01*
X208119Y323633D01*
X208179Y323575D01*
X208237Y323515D01*
X208291Y323452D01*
X208343Y323386D01*
X208392Y323319D01*
X208437Y323249D01*
X208480Y323177D01*
X208519Y323103D01*
X208554Y323027D01*
X208586Y322950D01*
X208614Y322872D01*
X208639Y322792D01*
X208660Y322711D01*
X208677Y322630D01*
X208691Y322548D01*
X208700Y322465D01*
X208706Y322381D01*
X208708Y322298D01*
X208706Y322215D01*
X208700Y322131D01*
X208691Y322048D01*
X208677Y321966D01*
X208660Y321885D01*
X208639Y321804D01*
X208614Y321724D01*
X208586Y321646D01*
X208554Y321569D01*
X208519Y321493D01*
X208480Y321419D01*
X208437Y321347D01*
X208392Y321277D01*
X208343Y321210D01*
X208291Y321144D01*
X208237Y321081D01*
X208179Y321021D01*
X208119Y320963D01*
X208056Y320909D01*
X207990Y320857D01*
X207923Y320808D01*
X207853Y320763D01*
X207781Y320720D01*
X207707Y320681D01*
X207631Y320646D01*
X207554Y320614D01*
X207476Y320586D01*
X207396Y320561D01*
X207315Y320540D01*
X207234Y320523D01*
X207152Y320509D01*
X207069Y320500D01*
X206985Y320494D01*
X206902Y320492D01*
X205096Y320492D01*
X303130Y381950D02*
X303130Y411950D01*
X253130Y411950D01*
X253130Y381950D01*
X303130Y341950D02*
X303130Y321950D01*
X293130Y311950D01*
X263130Y311950D01*
X253130Y321950D01*
X253130Y341950D01*
X275115Y360426D02*
X276921Y360426D01*
X275115Y360426D02*
X275032Y360428D01*
X274948Y360434D01*
X274865Y360443D01*
X274783Y360457D01*
X274702Y360474D01*
X274621Y360495D01*
X274541Y360520D01*
X274463Y360548D01*
X274386Y360580D01*
X274310Y360615D01*
X274236Y360654D01*
X274164Y360697D01*
X274094Y360742D01*
X274027Y360791D01*
X273961Y360843D01*
X273898Y360897D01*
X273838Y360955D01*
X273780Y361015D01*
X273726Y361078D01*
X273674Y361144D01*
X273625Y361211D01*
X273580Y361281D01*
X273537Y361353D01*
X273498Y361427D01*
X273463Y361503D01*
X273431Y361580D01*
X273403Y361658D01*
X273378Y361738D01*
X273357Y361819D01*
X273340Y361900D01*
X273326Y361982D01*
X273317Y362065D01*
X273311Y362149D01*
X273309Y362232D01*
X273309Y366748D01*
X273311Y366831D01*
X273317Y366915D01*
X273326Y366998D01*
X273340Y367080D01*
X273357Y367161D01*
X273378Y367242D01*
X273403Y367322D01*
X273431Y367400D01*
X273463Y367477D01*
X273498Y367553D01*
X273537Y367627D01*
X273580Y367699D01*
X273625Y367769D01*
X273674Y367836D01*
X273726Y367902D01*
X273780Y367965D01*
X273838Y368025D01*
X273898Y368083D01*
X273961Y368137D01*
X274027Y368189D01*
X274094Y368238D01*
X274164Y368283D01*
X274236Y368326D01*
X274310Y368365D01*
X274385Y368400D01*
X274463Y368432D01*
X274541Y368460D01*
X274621Y368485D01*
X274701Y368506D01*
X274783Y368523D01*
X274865Y368537D01*
X274948Y368546D01*
X275032Y368552D01*
X275115Y368554D01*
X276921Y368554D01*
X280975Y360426D02*
X283233Y360426D01*
X283326Y360428D01*
X283419Y360434D01*
X283512Y360443D01*
X283605Y360457D01*
X283696Y360474D01*
X283787Y360495D01*
X283877Y360520D01*
X283966Y360548D01*
X284054Y360580D01*
X284140Y360616D01*
X284225Y360655D01*
X284308Y360698D01*
X284389Y360744D01*
X284468Y360794D01*
X284545Y360846D01*
X284620Y360902D01*
X284692Y360961D01*
X284762Y361023D01*
X284830Y361087D01*
X284894Y361155D01*
X284956Y361225D01*
X285015Y361297D01*
X285071Y361372D01*
X285123Y361449D01*
X285173Y361528D01*
X285219Y361609D01*
X285262Y361692D01*
X285301Y361777D01*
X285337Y361863D01*
X285369Y361951D01*
X285397Y362040D01*
X285422Y362130D01*
X285443Y362221D01*
X285460Y362312D01*
X285474Y362405D01*
X285483Y362498D01*
X285489Y362591D01*
X285491Y362684D01*
X285489Y362777D01*
X285483Y362870D01*
X285474Y362963D01*
X285460Y363056D01*
X285443Y363147D01*
X285422Y363238D01*
X285397Y363328D01*
X285369Y363417D01*
X285337Y363505D01*
X285301Y363591D01*
X285262Y363676D01*
X285219Y363759D01*
X285173Y363840D01*
X285123Y363919D01*
X285071Y363996D01*
X285015Y364071D01*
X284956Y364143D01*
X284894Y364213D01*
X284830Y364281D01*
X284762Y364345D01*
X284692Y364407D01*
X284620Y364466D01*
X284545Y364522D01*
X284468Y364574D01*
X284389Y364624D01*
X284308Y364670D01*
X284225Y364713D01*
X284140Y364752D01*
X284054Y364788D01*
X283966Y364820D01*
X283877Y364848D01*
X283787Y364873D01*
X283696Y364894D01*
X283605Y364911D01*
X283512Y364925D01*
X283419Y364934D01*
X283326Y364940D01*
X283233Y364942D01*
X283685Y368554D02*
X280975Y368554D01*
X283685Y368554D02*
X283768Y368552D01*
X283852Y368546D01*
X283935Y368537D01*
X284017Y368523D01*
X284098Y368506D01*
X284179Y368485D01*
X284259Y368460D01*
X284337Y368432D01*
X284414Y368400D01*
X284490Y368365D01*
X284564Y368326D01*
X284636Y368283D01*
X284706Y368238D01*
X284773Y368189D01*
X284839Y368137D01*
X284902Y368083D01*
X284962Y368025D01*
X285020Y367965D01*
X285074Y367902D01*
X285126Y367836D01*
X285175Y367769D01*
X285220Y367699D01*
X285263Y367627D01*
X285302Y367553D01*
X285337Y367477D01*
X285369Y367400D01*
X285397Y367322D01*
X285422Y367242D01*
X285443Y367161D01*
X285460Y367080D01*
X285474Y366998D01*
X285483Y366915D01*
X285489Y366831D01*
X285491Y366748D01*
X285489Y366665D01*
X285483Y366581D01*
X285474Y366498D01*
X285460Y366416D01*
X285443Y366335D01*
X285422Y366254D01*
X285397Y366174D01*
X285369Y366096D01*
X285337Y366019D01*
X285302Y365943D01*
X285263Y365869D01*
X285220Y365797D01*
X285175Y365727D01*
X285126Y365660D01*
X285074Y365594D01*
X285020Y365531D01*
X284962Y365471D01*
X284902Y365413D01*
X284839Y365359D01*
X284773Y365307D01*
X284706Y365258D01*
X284636Y365213D01*
X284564Y365170D01*
X284490Y365131D01*
X284414Y365096D01*
X284337Y365064D01*
X284259Y365036D01*
X284179Y365011D01*
X284098Y364990D01*
X284017Y364973D01*
X283935Y364959D01*
X283852Y364950D01*
X283768Y364944D01*
X283685Y364942D01*
X281879Y364942D01*
X269480Y604000D02*
X324480Y604000D01*
X324480Y596500D01*
X324480Y539000D01*
X269480Y539000D01*
X269480Y596500D01*
X269480Y604000D01*
X269480Y596500D02*
X324480Y596500D01*
D12*
X480130Y410210D02*
X480132Y410328D01*
X480138Y410446D01*
X480148Y410564D01*
X480162Y410681D01*
X480180Y410798D01*
X480202Y410915D01*
X480227Y411030D01*
X480257Y411144D01*
X480291Y411258D01*
X480328Y411370D01*
X480369Y411481D01*
X480414Y411590D01*
X480462Y411698D01*
X480514Y411804D01*
X480570Y411909D01*
X480629Y412011D01*
X480691Y412111D01*
X480757Y412209D01*
X480826Y412305D01*
X480899Y412399D01*
X480974Y412490D01*
X481053Y412578D01*
X481134Y412664D01*
X481219Y412747D01*
X481306Y412827D01*
X481395Y412904D01*
X481488Y412978D01*
X481582Y413048D01*
X481679Y413116D01*
X481779Y413180D01*
X481880Y413241D01*
X481983Y413298D01*
X482089Y413352D01*
X482196Y413403D01*
X482304Y413449D01*
X482414Y413492D01*
X482526Y413531D01*
X482639Y413567D01*
X482753Y413598D01*
X482868Y413626D01*
X482983Y413650D01*
X483100Y413670D01*
X483217Y413686D01*
X483335Y413698D01*
X483453Y413706D01*
X483571Y413710D01*
X483689Y413710D01*
X483807Y413706D01*
X483925Y413698D01*
X484043Y413686D01*
X484160Y413670D01*
X484277Y413650D01*
X484392Y413626D01*
X484507Y413598D01*
X484621Y413567D01*
X484734Y413531D01*
X484846Y413492D01*
X484956Y413449D01*
X485064Y413403D01*
X485171Y413352D01*
X485277Y413298D01*
X485380Y413241D01*
X485481Y413180D01*
X485581Y413116D01*
X485678Y413048D01*
X485772Y412978D01*
X485865Y412904D01*
X485954Y412827D01*
X486041Y412747D01*
X486126Y412664D01*
X486207Y412578D01*
X486286Y412490D01*
X486361Y412399D01*
X486434Y412305D01*
X486503Y412209D01*
X486569Y412111D01*
X486631Y412011D01*
X486690Y411909D01*
X486746Y411804D01*
X486798Y411698D01*
X486846Y411590D01*
X486891Y411481D01*
X486932Y411370D01*
X486969Y411258D01*
X487003Y411144D01*
X487033Y411030D01*
X487058Y410915D01*
X487080Y410798D01*
X487098Y410681D01*
X487112Y410564D01*
X487122Y410446D01*
X487128Y410328D01*
X487130Y410210D01*
X487128Y410092D01*
X487122Y409974D01*
X487112Y409856D01*
X487098Y409739D01*
X487080Y409622D01*
X487058Y409505D01*
X487033Y409390D01*
X487003Y409276D01*
X486969Y409162D01*
X486932Y409050D01*
X486891Y408939D01*
X486846Y408830D01*
X486798Y408722D01*
X486746Y408616D01*
X486690Y408511D01*
X486631Y408409D01*
X486569Y408309D01*
X486503Y408211D01*
X486434Y408115D01*
X486361Y408021D01*
X486286Y407930D01*
X486207Y407842D01*
X486126Y407756D01*
X486041Y407673D01*
X485954Y407593D01*
X485865Y407516D01*
X485772Y407442D01*
X485678Y407372D01*
X485581Y407304D01*
X485481Y407240D01*
X485380Y407179D01*
X485277Y407122D01*
X485171Y407068D01*
X485064Y407017D01*
X484956Y406971D01*
X484846Y406928D01*
X484734Y406889D01*
X484621Y406853D01*
X484507Y406822D01*
X484392Y406794D01*
X484277Y406770D01*
X484160Y406750D01*
X484043Y406734D01*
X483925Y406722D01*
X483807Y406714D01*
X483689Y406710D01*
X483571Y406710D01*
X483453Y406714D01*
X483335Y406722D01*
X483217Y406734D01*
X483100Y406750D01*
X482983Y406770D01*
X482868Y406794D01*
X482753Y406822D01*
X482639Y406853D01*
X482526Y406889D01*
X482414Y406928D01*
X482304Y406971D01*
X482196Y407017D01*
X482089Y407068D01*
X481983Y407122D01*
X481880Y407179D01*
X481779Y407240D01*
X481679Y407304D01*
X481582Y407372D01*
X481488Y407442D01*
X481395Y407516D01*
X481306Y407593D01*
X481219Y407673D01*
X481134Y407756D01*
X481053Y407842D01*
X480974Y407930D01*
X480899Y408021D01*
X480826Y408115D01*
X480757Y408211D01*
X480691Y408309D01*
X480629Y408409D01*
X480570Y408511D01*
X480514Y408616D01*
X480462Y408722D01*
X480414Y408830D01*
X480369Y408939D01*
X480328Y409050D01*
X480291Y409162D01*
X480257Y409276D01*
X480227Y409390D01*
X480202Y409505D01*
X480180Y409622D01*
X480162Y409739D01*
X480148Y409856D01*
X480138Y409974D01*
X480132Y410092D01*
X480130Y410210D01*
D13*
X458270Y519900D02*
X560270Y519900D01*
X560270Y419900D02*
X458270Y419900D01*
X500380Y358140D02*
X500380Y353060D01*
X500380Y358140D02*
X500380Y403860D01*
X528320Y403860D02*
X528320Y353060D01*
X523240Y353060D01*
X506730Y353060D02*
X500380Y358140D01*
X500380Y353060D02*
X506730Y353060D01*
X505460Y403860D02*
X500380Y403860D01*
X523240Y403860D02*
X528320Y403860D01*
D10*
X519049Y371125D02*
X509651Y371125D01*
X509651Y373736D01*
X509653Y373836D01*
X509659Y373936D01*
X509668Y374035D01*
X509682Y374135D01*
X509699Y374233D01*
X509720Y374331D01*
X509744Y374428D01*
X509773Y374524D01*
X509805Y374619D01*
X509840Y374712D01*
X509879Y374804D01*
X509922Y374895D01*
X509968Y374983D01*
X510018Y375070D01*
X510070Y375155D01*
X510126Y375238D01*
X510185Y375319D01*
X510248Y375397D01*
X510313Y375473D01*
X510381Y375547D01*
X510451Y375617D01*
X510525Y375685D01*
X510601Y375750D01*
X510679Y375813D01*
X510760Y375872D01*
X510843Y375928D01*
X510928Y375980D01*
X511015Y376030D01*
X511103Y376076D01*
X511194Y376119D01*
X511286Y376158D01*
X511379Y376193D01*
X511474Y376225D01*
X511570Y376254D01*
X511667Y376278D01*
X511765Y376299D01*
X511863Y376316D01*
X511963Y376330D01*
X512062Y376339D01*
X512162Y376345D01*
X512262Y376347D01*
X512262Y376346D02*
X516438Y376346D01*
X516438Y376347D02*
X516538Y376345D01*
X516638Y376339D01*
X516737Y376330D01*
X516837Y376316D01*
X516935Y376299D01*
X517033Y376278D01*
X517130Y376254D01*
X517226Y376225D01*
X517321Y376193D01*
X517414Y376158D01*
X517506Y376119D01*
X517597Y376076D01*
X517685Y376030D01*
X517772Y375980D01*
X517857Y375928D01*
X517940Y375872D01*
X518021Y375813D01*
X518099Y375750D01*
X518175Y375685D01*
X518249Y375617D01*
X518319Y375547D01*
X518387Y375473D01*
X518452Y375397D01*
X518515Y375319D01*
X518574Y375238D01*
X518630Y375155D01*
X518682Y375070D01*
X518732Y374983D01*
X518778Y374895D01*
X518821Y374804D01*
X518860Y374712D01*
X518895Y374619D01*
X518927Y374524D01*
X518956Y374428D01*
X518980Y374331D01*
X519001Y374233D01*
X519018Y374135D01*
X519032Y374035D01*
X519041Y373936D01*
X519047Y373836D01*
X519049Y373736D01*
X519049Y371125D01*
X516961Y380574D02*
X509651Y382662D01*
X516961Y380574D02*
X516961Y385795D01*
X514872Y384229D02*
X519049Y384229D01*
D14*
X474552Y322834D02*
X474552Y314706D01*
X474552Y322834D02*
X476810Y322834D01*
X476903Y322832D01*
X476996Y322826D01*
X477089Y322817D01*
X477182Y322803D01*
X477273Y322786D01*
X477364Y322765D01*
X477454Y322740D01*
X477543Y322712D01*
X477631Y322680D01*
X477717Y322644D01*
X477802Y322605D01*
X477885Y322562D01*
X477966Y322516D01*
X478045Y322466D01*
X478122Y322414D01*
X478197Y322358D01*
X478269Y322299D01*
X478339Y322237D01*
X478407Y322173D01*
X478471Y322105D01*
X478533Y322035D01*
X478592Y321963D01*
X478648Y321888D01*
X478700Y321811D01*
X478750Y321732D01*
X478796Y321651D01*
X478839Y321568D01*
X478878Y321483D01*
X478914Y321397D01*
X478946Y321309D01*
X478974Y321220D01*
X478999Y321130D01*
X479020Y321039D01*
X479037Y320948D01*
X479051Y320855D01*
X479060Y320762D01*
X479066Y320669D01*
X479068Y320576D01*
X479066Y320483D01*
X479060Y320390D01*
X479051Y320297D01*
X479037Y320204D01*
X479020Y320113D01*
X478999Y320022D01*
X478974Y319932D01*
X478946Y319843D01*
X478914Y319755D01*
X478878Y319669D01*
X478839Y319584D01*
X478796Y319501D01*
X478750Y319420D01*
X478700Y319341D01*
X478648Y319264D01*
X478592Y319189D01*
X478533Y319117D01*
X478471Y319047D01*
X478407Y318979D01*
X478339Y318915D01*
X478269Y318853D01*
X478197Y318794D01*
X478122Y318738D01*
X478045Y318686D01*
X477966Y318636D01*
X477885Y318590D01*
X477802Y318547D01*
X477717Y318508D01*
X477631Y318472D01*
X477543Y318440D01*
X477454Y318412D01*
X477364Y318387D01*
X477273Y318366D01*
X477182Y318349D01*
X477089Y318335D01*
X476996Y318326D01*
X476903Y318320D01*
X476810Y318318D01*
X474552Y318318D01*
X477261Y318318D02*
X479067Y314706D01*
X483593Y316512D02*
X485399Y322834D01*
X483593Y316512D02*
X488108Y316512D01*
X486754Y318318D02*
X486754Y314706D01*
X585070Y383220D02*
X585070Y413220D01*
X535070Y413220D01*
X535070Y383220D01*
X585070Y343220D02*
X585070Y323220D01*
X575070Y313220D01*
X545070Y313220D01*
X535070Y323220D01*
X535070Y343220D01*
X557055Y360426D02*
X558861Y360426D01*
X557055Y360426D02*
X556972Y360428D01*
X556888Y360434D01*
X556805Y360443D01*
X556723Y360457D01*
X556642Y360474D01*
X556561Y360495D01*
X556481Y360520D01*
X556403Y360548D01*
X556326Y360580D01*
X556250Y360615D01*
X556176Y360654D01*
X556104Y360697D01*
X556034Y360742D01*
X555967Y360791D01*
X555901Y360843D01*
X555838Y360897D01*
X555778Y360955D01*
X555720Y361015D01*
X555666Y361078D01*
X555614Y361144D01*
X555565Y361211D01*
X555520Y361281D01*
X555477Y361353D01*
X555438Y361427D01*
X555403Y361503D01*
X555371Y361580D01*
X555343Y361658D01*
X555318Y361738D01*
X555297Y361819D01*
X555280Y361900D01*
X555266Y361982D01*
X555257Y362065D01*
X555251Y362149D01*
X555249Y362232D01*
X555249Y366748D01*
X555251Y366831D01*
X555257Y366915D01*
X555266Y366998D01*
X555280Y367080D01*
X555297Y367161D01*
X555318Y367242D01*
X555343Y367322D01*
X555371Y367400D01*
X555403Y367477D01*
X555438Y367553D01*
X555477Y367627D01*
X555520Y367699D01*
X555565Y367769D01*
X555614Y367836D01*
X555666Y367902D01*
X555720Y367965D01*
X555778Y368025D01*
X555838Y368083D01*
X555901Y368137D01*
X555967Y368189D01*
X556034Y368238D01*
X556104Y368283D01*
X556176Y368326D01*
X556250Y368365D01*
X556325Y368400D01*
X556403Y368432D01*
X556481Y368460D01*
X556561Y368485D01*
X556641Y368506D01*
X556723Y368523D01*
X556805Y368537D01*
X556888Y368546D01*
X556972Y368552D01*
X557055Y368554D01*
X558861Y368554D01*
X564722Y368554D02*
X562915Y362232D01*
X567431Y362232D01*
X566076Y364038D02*
X566076Y360426D01*
X443860Y604000D02*
X388860Y604000D01*
X443860Y604000D02*
X443860Y596500D01*
X443860Y539000D01*
X388860Y539000D01*
X388860Y596500D01*
X388860Y604000D01*
X388860Y596500D02*
X443860Y596500D01*
D12*
X622370Y410210D02*
X622372Y410328D01*
X622378Y410446D01*
X622388Y410564D01*
X622402Y410681D01*
X622420Y410798D01*
X622442Y410915D01*
X622467Y411030D01*
X622497Y411144D01*
X622531Y411258D01*
X622568Y411370D01*
X622609Y411481D01*
X622654Y411590D01*
X622702Y411698D01*
X622754Y411804D01*
X622810Y411909D01*
X622869Y412011D01*
X622931Y412111D01*
X622997Y412209D01*
X623066Y412305D01*
X623139Y412399D01*
X623214Y412490D01*
X623293Y412578D01*
X623374Y412664D01*
X623459Y412747D01*
X623546Y412827D01*
X623635Y412904D01*
X623728Y412978D01*
X623822Y413048D01*
X623919Y413116D01*
X624019Y413180D01*
X624120Y413241D01*
X624223Y413298D01*
X624329Y413352D01*
X624436Y413403D01*
X624544Y413449D01*
X624654Y413492D01*
X624766Y413531D01*
X624879Y413567D01*
X624993Y413598D01*
X625108Y413626D01*
X625223Y413650D01*
X625340Y413670D01*
X625457Y413686D01*
X625575Y413698D01*
X625693Y413706D01*
X625811Y413710D01*
X625929Y413710D01*
X626047Y413706D01*
X626165Y413698D01*
X626283Y413686D01*
X626400Y413670D01*
X626517Y413650D01*
X626632Y413626D01*
X626747Y413598D01*
X626861Y413567D01*
X626974Y413531D01*
X627086Y413492D01*
X627196Y413449D01*
X627304Y413403D01*
X627411Y413352D01*
X627517Y413298D01*
X627620Y413241D01*
X627721Y413180D01*
X627821Y413116D01*
X627918Y413048D01*
X628012Y412978D01*
X628105Y412904D01*
X628194Y412827D01*
X628281Y412747D01*
X628366Y412664D01*
X628447Y412578D01*
X628526Y412490D01*
X628601Y412399D01*
X628674Y412305D01*
X628743Y412209D01*
X628809Y412111D01*
X628871Y412011D01*
X628930Y411909D01*
X628986Y411804D01*
X629038Y411698D01*
X629086Y411590D01*
X629131Y411481D01*
X629172Y411370D01*
X629209Y411258D01*
X629243Y411144D01*
X629273Y411030D01*
X629298Y410915D01*
X629320Y410798D01*
X629338Y410681D01*
X629352Y410564D01*
X629362Y410446D01*
X629368Y410328D01*
X629370Y410210D01*
X629368Y410092D01*
X629362Y409974D01*
X629352Y409856D01*
X629338Y409739D01*
X629320Y409622D01*
X629298Y409505D01*
X629273Y409390D01*
X629243Y409276D01*
X629209Y409162D01*
X629172Y409050D01*
X629131Y408939D01*
X629086Y408830D01*
X629038Y408722D01*
X628986Y408616D01*
X628930Y408511D01*
X628871Y408409D01*
X628809Y408309D01*
X628743Y408211D01*
X628674Y408115D01*
X628601Y408021D01*
X628526Y407930D01*
X628447Y407842D01*
X628366Y407756D01*
X628281Y407673D01*
X628194Y407593D01*
X628105Y407516D01*
X628012Y407442D01*
X627918Y407372D01*
X627821Y407304D01*
X627721Y407240D01*
X627620Y407179D01*
X627517Y407122D01*
X627411Y407068D01*
X627304Y407017D01*
X627196Y406971D01*
X627086Y406928D01*
X626974Y406889D01*
X626861Y406853D01*
X626747Y406822D01*
X626632Y406794D01*
X626517Y406770D01*
X626400Y406750D01*
X626283Y406734D01*
X626165Y406722D01*
X626047Y406714D01*
X625929Y406710D01*
X625811Y406710D01*
X625693Y406714D01*
X625575Y406722D01*
X625457Y406734D01*
X625340Y406750D01*
X625223Y406770D01*
X625108Y406794D01*
X624993Y406822D01*
X624879Y406853D01*
X624766Y406889D01*
X624654Y406928D01*
X624544Y406971D01*
X624436Y407017D01*
X624329Y407068D01*
X624223Y407122D01*
X624120Y407179D01*
X624019Y407240D01*
X623919Y407304D01*
X623822Y407372D01*
X623728Y407442D01*
X623635Y407516D01*
X623546Y407593D01*
X623459Y407673D01*
X623374Y407756D01*
X623293Y407842D01*
X623214Y407930D01*
X623139Y408021D01*
X623066Y408115D01*
X622997Y408211D01*
X622931Y408309D01*
X622869Y408409D01*
X622810Y408511D01*
X622754Y408616D01*
X622702Y408722D01*
X622654Y408830D01*
X622609Y408939D01*
X622568Y409050D01*
X622531Y409162D01*
X622497Y409276D01*
X622467Y409390D01*
X622442Y409505D01*
X622420Y409622D01*
X622402Y409739D01*
X622388Y409856D01*
X622378Y409974D01*
X622372Y410092D01*
X622370Y410210D01*
D13*
X601780Y519900D02*
X703780Y519900D01*
X703780Y419900D02*
X601780Y419900D01*
X641350Y358140D02*
X641350Y353060D01*
X641350Y358140D02*
X641350Y403860D01*
X669290Y403860D02*
X669290Y353060D01*
X664210Y353060D01*
X647700Y353060D02*
X641350Y358140D01*
X641350Y353060D02*
X647700Y353060D01*
X646430Y403860D02*
X641350Y403860D01*
X664210Y403860D02*
X669290Y403860D01*
D10*
X660019Y369855D02*
X650621Y369855D01*
X650621Y372466D01*
X650623Y372566D01*
X650629Y372666D01*
X650638Y372765D01*
X650652Y372865D01*
X650669Y372963D01*
X650690Y373061D01*
X650714Y373158D01*
X650743Y373254D01*
X650775Y373349D01*
X650810Y373442D01*
X650849Y373534D01*
X650892Y373625D01*
X650938Y373713D01*
X650988Y373800D01*
X651040Y373885D01*
X651096Y373968D01*
X651155Y374049D01*
X651218Y374127D01*
X651283Y374203D01*
X651351Y374277D01*
X651421Y374347D01*
X651495Y374415D01*
X651571Y374480D01*
X651649Y374543D01*
X651730Y374602D01*
X651813Y374658D01*
X651898Y374710D01*
X651985Y374760D01*
X652073Y374806D01*
X652164Y374849D01*
X652256Y374888D01*
X652349Y374923D01*
X652444Y374955D01*
X652540Y374984D01*
X652637Y375008D01*
X652735Y375029D01*
X652833Y375046D01*
X652933Y375060D01*
X653032Y375069D01*
X653132Y375075D01*
X653232Y375077D01*
X653232Y375076D02*
X657408Y375076D01*
X657408Y375077D02*
X657508Y375075D01*
X657608Y375069D01*
X657707Y375060D01*
X657807Y375046D01*
X657905Y375029D01*
X658003Y375008D01*
X658100Y374984D01*
X658196Y374955D01*
X658291Y374923D01*
X658384Y374888D01*
X658476Y374849D01*
X658567Y374806D01*
X658655Y374760D01*
X658742Y374710D01*
X658827Y374658D01*
X658910Y374602D01*
X658991Y374543D01*
X659069Y374480D01*
X659145Y374415D01*
X659219Y374347D01*
X659289Y374277D01*
X659357Y374203D01*
X659422Y374127D01*
X659485Y374049D01*
X659544Y373968D01*
X659600Y373885D01*
X659652Y373800D01*
X659702Y373713D01*
X659748Y373625D01*
X659791Y373534D01*
X659830Y373442D01*
X659865Y373349D01*
X659897Y373254D01*
X659926Y373158D01*
X659950Y373061D01*
X659971Y372963D01*
X659988Y372865D01*
X660002Y372765D01*
X660011Y372666D01*
X660017Y372566D01*
X660019Y372466D01*
X660019Y369855D01*
X660019Y379304D02*
X660019Y382437D01*
X660017Y382526D01*
X660011Y382614D01*
X660002Y382702D01*
X659989Y382790D01*
X659972Y382877D01*
X659952Y382963D01*
X659927Y383048D01*
X659900Y383133D01*
X659868Y383216D01*
X659834Y383297D01*
X659795Y383377D01*
X659754Y383455D01*
X659709Y383532D01*
X659661Y383606D01*
X659610Y383679D01*
X659556Y383749D01*
X659498Y383816D01*
X659438Y383882D01*
X659376Y383944D01*
X659310Y384004D01*
X659243Y384062D01*
X659173Y384116D01*
X659100Y384167D01*
X659026Y384215D01*
X658949Y384260D01*
X658871Y384301D01*
X658791Y384340D01*
X658710Y384374D01*
X658627Y384406D01*
X658542Y384433D01*
X658457Y384458D01*
X658371Y384478D01*
X658284Y384495D01*
X658196Y384508D01*
X658108Y384517D01*
X658020Y384523D01*
X657931Y384525D01*
X656886Y384525D01*
X656797Y384523D01*
X656709Y384517D01*
X656621Y384508D01*
X656533Y384495D01*
X656446Y384478D01*
X656360Y384458D01*
X656275Y384433D01*
X656190Y384406D01*
X656107Y384374D01*
X656026Y384340D01*
X655946Y384301D01*
X655868Y384260D01*
X655791Y384215D01*
X655717Y384167D01*
X655644Y384116D01*
X655574Y384062D01*
X655507Y384004D01*
X655441Y383944D01*
X655379Y383882D01*
X655319Y383816D01*
X655261Y383749D01*
X655207Y383679D01*
X655156Y383606D01*
X655108Y383532D01*
X655063Y383455D01*
X655022Y383377D01*
X654983Y383297D01*
X654949Y383216D01*
X654917Y383133D01*
X654890Y383048D01*
X654865Y382963D01*
X654845Y382877D01*
X654828Y382790D01*
X654815Y382702D01*
X654806Y382614D01*
X654800Y382526D01*
X654798Y382437D01*
X654798Y379304D01*
X650621Y379304D01*
X650621Y384525D01*
D14*
X616792Y324104D02*
X616792Y315976D01*
X616792Y324104D02*
X619050Y324104D01*
X619143Y324102D01*
X619236Y324096D01*
X619329Y324087D01*
X619422Y324073D01*
X619513Y324056D01*
X619604Y324035D01*
X619694Y324010D01*
X619783Y323982D01*
X619871Y323950D01*
X619957Y323914D01*
X620042Y323875D01*
X620125Y323832D01*
X620206Y323786D01*
X620285Y323736D01*
X620362Y323684D01*
X620437Y323628D01*
X620509Y323569D01*
X620579Y323507D01*
X620647Y323443D01*
X620711Y323375D01*
X620773Y323305D01*
X620832Y323233D01*
X620888Y323158D01*
X620940Y323081D01*
X620990Y323002D01*
X621036Y322921D01*
X621079Y322838D01*
X621118Y322753D01*
X621154Y322667D01*
X621186Y322579D01*
X621214Y322490D01*
X621239Y322400D01*
X621260Y322309D01*
X621277Y322218D01*
X621291Y322125D01*
X621300Y322032D01*
X621306Y321939D01*
X621308Y321846D01*
X621306Y321753D01*
X621300Y321660D01*
X621291Y321567D01*
X621277Y321474D01*
X621260Y321383D01*
X621239Y321292D01*
X621214Y321202D01*
X621186Y321113D01*
X621154Y321025D01*
X621118Y320939D01*
X621079Y320854D01*
X621036Y320771D01*
X620990Y320690D01*
X620940Y320611D01*
X620888Y320534D01*
X620832Y320459D01*
X620773Y320387D01*
X620711Y320317D01*
X620647Y320249D01*
X620579Y320185D01*
X620509Y320123D01*
X620437Y320064D01*
X620362Y320008D01*
X620285Y319956D01*
X620206Y319906D01*
X620125Y319860D01*
X620042Y319817D01*
X619957Y319778D01*
X619871Y319742D01*
X619783Y319710D01*
X619694Y319682D01*
X619604Y319657D01*
X619513Y319636D01*
X619422Y319619D01*
X619329Y319605D01*
X619236Y319596D01*
X619143Y319590D01*
X619050Y319588D01*
X616792Y319588D01*
X619501Y319588D02*
X621307Y315976D01*
X625833Y315976D02*
X628542Y315976D01*
X628625Y315978D01*
X628709Y315984D01*
X628792Y315993D01*
X628874Y316007D01*
X628955Y316024D01*
X629036Y316045D01*
X629116Y316070D01*
X629194Y316098D01*
X629271Y316130D01*
X629347Y316165D01*
X629421Y316204D01*
X629493Y316247D01*
X629563Y316292D01*
X629630Y316341D01*
X629696Y316393D01*
X629759Y316447D01*
X629819Y316505D01*
X629877Y316565D01*
X629931Y316628D01*
X629983Y316694D01*
X630032Y316761D01*
X630078Y316831D01*
X630120Y316903D01*
X630159Y316977D01*
X630194Y317053D01*
X630226Y317130D01*
X630254Y317208D01*
X630279Y317288D01*
X630300Y317369D01*
X630317Y317450D01*
X630331Y317533D01*
X630340Y317615D01*
X630346Y317699D01*
X630348Y317782D01*
X630348Y318685D01*
X630346Y318768D01*
X630340Y318852D01*
X630331Y318935D01*
X630317Y319017D01*
X630300Y319098D01*
X630279Y319179D01*
X630254Y319259D01*
X630226Y319337D01*
X630194Y319414D01*
X630159Y319490D01*
X630120Y319564D01*
X630077Y319636D01*
X630032Y319706D01*
X629983Y319773D01*
X629931Y319839D01*
X629877Y319902D01*
X629819Y319962D01*
X629759Y320020D01*
X629696Y320074D01*
X629630Y320126D01*
X629563Y320175D01*
X629493Y320220D01*
X629421Y320263D01*
X629347Y320302D01*
X629271Y320337D01*
X629194Y320369D01*
X629116Y320397D01*
X629036Y320422D01*
X628955Y320443D01*
X628874Y320460D01*
X628792Y320474D01*
X628709Y320483D01*
X628625Y320489D01*
X628542Y320491D01*
X628542Y320492D02*
X625833Y320492D01*
X625833Y324104D01*
X630348Y324104D01*
X726040Y383220D02*
X726040Y413220D01*
X676040Y413220D01*
X676040Y383220D01*
X726040Y343220D02*
X726040Y323220D01*
X716040Y313220D01*
X686040Y313220D01*
X676040Y323220D01*
X676040Y343220D01*
X696755Y360426D02*
X698561Y360426D01*
X696755Y360426D02*
X696672Y360428D01*
X696588Y360434D01*
X696505Y360443D01*
X696423Y360457D01*
X696342Y360474D01*
X696261Y360495D01*
X696181Y360520D01*
X696103Y360548D01*
X696026Y360580D01*
X695950Y360615D01*
X695876Y360654D01*
X695804Y360697D01*
X695734Y360742D01*
X695667Y360791D01*
X695601Y360843D01*
X695538Y360897D01*
X695478Y360955D01*
X695420Y361015D01*
X695366Y361078D01*
X695314Y361144D01*
X695265Y361211D01*
X695220Y361281D01*
X695177Y361353D01*
X695138Y361427D01*
X695103Y361503D01*
X695071Y361580D01*
X695043Y361658D01*
X695018Y361738D01*
X694997Y361819D01*
X694980Y361900D01*
X694966Y361982D01*
X694957Y362065D01*
X694951Y362149D01*
X694949Y362232D01*
X694949Y366748D01*
X694951Y366831D01*
X694957Y366915D01*
X694966Y366998D01*
X694980Y367080D01*
X694997Y367161D01*
X695018Y367242D01*
X695043Y367322D01*
X695071Y367400D01*
X695103Y367477D01*
X695138Y367553D01*
X695177Y367627D01*
X695220Y367699D01*
X695265Y367769D01*
X695314Y367836D01*
X695366Y367902D01*
X695420Y367965D01*
X695478Y368025D01*
X695538Y368083D01*
X695601Y368137D01*
X695667Y368189D01*
X695734Y368238D01*
X695804Y368283D01*
X695876Y368326D01*
X695950Y368365D01*
X696025Y368400D01*
X696103Y368432D01*
X696181Y368460D01*
X696261Y368485D01*
X696341Y368506D01*
X696423Y368523D01*
X696505Y368537D01*
X696588Y368546D01*
X696672Y368552D01*
X696755Y368554D01*
X698561Y368554D01*
X702615Y360426D02*
X705325Y360426D01*
X705408Y360428D01*
X705492Y360434D01*
X705575Y360443D01*
X705657Y360457D01*
X705738Y360474D01*
X705819Y360495D01*
X705899Y360520D01*
X705977Y360548D01*
X706054Y360580D01*
X706130Y360615D01*
X706204Y360654D01*
X706276Y360697D01*
X706346Y360742D01*
X706413Y360791D01*
X706479Y360843D01*
X706542Y360897D01*
X706602Y360955D01*
X706660Y361015D01*
X706714Y361078D01*
X706766Y361144D01*
X706815Y361211D01*
X706861Y361281D01*
X706903Y361353D01*
X706942Y361427D01*
X706977Y361503D01*
X707009Y361580D01*
X707037Y361658D01*
X707062Y361738D01*
X707083Y361819D01*
X707100Y361900D01*
X707114Y361983D01*
X707123Y362065D01*
X707129Y362149D01*
X707131Y362232D01*
X707131Y363135D01*
X707129Y363218D01*
X707123Y363302D01*
X707114Y363385D01*
X707100Y363467D01*
X707083Y363548D01*
X707062Y363629D01*
X707037Y363709D01*
X707009Y363787D01*
X706977Y363864D01*
X706942Y363940D01*
X706903Y364014D01*
X706860Y364086D01*
X706815Y364156D01*
X706766Y364223D01*
X706714Y364289D01*
X706660Y364352D01*
X706602Y364412D01*
X706542Y364470D01*
X706479Y364524D01*
X706413Y364576D01*
X706346Y364625D01*
X706276Y364670D01*
X706204Y364713D01*
X706130Y364752D01*
X706054Y364787D01*
X705977Y364819D01*
X705899Y364847D01*
X705819Y364872D01*
X705738Y364893D01*
X705657Y364910D01*
X705575Y364924D01*
X705492Y364933D01*
X705408Y364939D01*
X705325Y364941D01*
X705325Y364942D02*
X702615Y364942D01*
X702615Y368554D01*
X707131Y368554D01*
X503550Y604000D02*
X448550Y604000D01*
X503550Y604000D02*
X503550Y596500D01*
X503550Y539000D01*
X448550Y539000D01*
X448550Y596500D01*
X448550Y604000D01*
X448550Y596500D02*
X503550Y596500D01*
D12*
X478440Y243290D02*
X678440Y243290D01*
X739440Y243290D01*
X739440Y83290D01*
X678440Y83290D01*
X638440Y83290D01*
X478440Y83290D01*
X478440Y243290D01*
X678440Y243290D02*
X678440Y123290D01*
X678440Y83290D01*
X638440Y83290D02*
X638440Y123290D01*
X678440Y123290D01*
X647126Y102290D02*
X647129Y102568D01*
X647140Y102845D01*
X647157Y103122D01*
X647180Y103399D01*
X647211Y103675D01*
X647248Y103950D01*
X647293Y104224D01*
X647343Y104497D01*
X647401Y104769D01*
X647465Y105039D01*
X647536Y105308D01*
X647613Y105574D01*
X647697Y105839D01*
X647787Y106102D01*
X647884Y106362D01*
X647987Y106620D01*
X648097Y106875D01*
X648212Y107127D01*
X648334Y107377D01*
X648462Y107623D01*
X648596Y107867D01*
X648736Y108107D01*
X648881Y108343D01*
X649033Y108576D01*
X649190Y108805D01*
X649353Y109030D01*
X649521Y109251D01*
X649694Y109468D01*
X649873Y109680D01*
X650057Y109888D01*
X650246Y110091D01*
X650440Y110290D01*
X650639Y110484D01*
X650842Y110673D01*
X651050Y110857D01*
X651262Y111036D01*
X651479Y111209D01*
X651700Y111377D01*
X651925Y111540D01*
X652154Y111697D01*
X652387Y111849D01*
X652623Y111994D01*
X652863Y112134D01*
X653107Y112268D01*
X653353Y112396D01*
X653603Y112518D01*
X653855Y112633D01*
X654110Y112743D01*
X654368Y112846D01*
X654628Y112943D01*
X654891Y113033D01*
X655156Y113117D01*
X655422Y113194D01*
X655691Y113265D01*
X655961Y113329D01*
X656233Y113387D01*
X656506Y113437D01*
X656780Y113482D01*
X657055Y113519D01*
X657331Y113550D01*
X657608Y113573D01*
X657885Y113590D01*
X658162Y113601D01*
X658440Y113604D01*
X658718Y113601D01*
X658995Y113590D01*
X659272Y113573D01*
X659549Y113550D01*
X659825Y113519D01*
X660100Y113482D01*
X660374Y113437D01*
X660647Y113387D01*
X660919Y113329D01*
X661189Y113265D01*
X661458Y113194D01*
X661724Y113117D01*
X661989Y113033D01*
X662252Y112943D01*
X662512Y112846D01*
X662770Y112743D01*
X663025Y112633D01*
X663277Y112518D01*
X663527Y112396D01*
X663773Y112268D01*
X664017Y112134D01*
X664257Y111994D01*
X664493Y111849D01*
X664726Y111697D01*
X664955Y111540D01*
X665180Y111377D01*
X665401Y111209D01*
X665618Y111036D01*
X665830Y110857D01*
X666038Y110673D01*
X666241Y110484D01*
X666440Y110290D01*
X666634Y110091D01*
X666823Y109888D01*
X667007Y109680D01*
X667186Y109468D01*
X667359Y109251D01*
X667527Y109030D01*
X667690Y108805D01*
X667847Y108576D01*
X667999Y108343D01*
X668144Y108107D01*
X668284Y107867D01*
X668418Y107623D01*
X668546Y107377D01*
X668668Y107127D01*
X668783Y106875D01*
X668893Y106620D01*
X668996Y106362D01*
X669093Y106102D01*
X669183Y105839D01*
X669267Y105574D01*
X669344Y105308D01*
X669415Y105039D01*
X669479Y104769D01*
X669537Y104497D01*
X669587Y104224D01*
X669632Y103950D01*
X669669Y103675D01*
X669700Y103399D01*
X669723Y103122D01*
X669740Y102845D01*
X669751Y102568D01*
X669754Y102290D01*
X669751Y102012D01*
X669740Y101735D01*
X669723Y101458D01*
X669700Y101181D01*
X669669Y100905D01*
X669632Y100630D01*
X669587Y100356D01*
X669537Y100083D01*
X669479Y99811D01*
X669415Y99541D01*
X669344Y99272D01*
X669267Y99006D01*
X669183Y98741D01*
X669093Y98478D01*
X668996Y98218D01*
X668893Y97960D01*
X668783Y97705D01*
X668668Y97453D01*
X668546Y97203D01*
X668418Y96957D01*
X668284Y96713D01*
X668144Y96473D01*
X667999Y96237D01*
X667847Y96004D01*
X667690Y95775D01*
X667527Y95550D01*
X667359Y95329D01*
X667186Y95112D01*
X667007Y94900D01*
X666823Y94692D01*
X666634Y94489D01*
X666440Y94290D01*
X666241Y94096D01*
X666038Y93907D01*
X665830Y93723D01*
X665618Y93544D01*
X665401Y93371D01*
X665180Y93203D01*
X664955Y93040D01*
X664726Y92883D01*
X664493Y92731D01*
X664257Y92586D01*
X664017Y92446D01*
X663773Y92312D01*
X663527Y92184D01*
X663277Y92062D01*
X663025Y91947D01*
X662770Y91837D01*
X662512Y91734D01*
X662252Y91637D01*
X661989Y91547D01*
X661724Y91463D01*
X661458Y91386D01*
X661189Y91315D01*
X660919Y91251D01*
X660647Y91193D01*
X660374Y91143D01*
X660100Y91098D01*
X659825Y91061D01*
X659549Y91030D01*
X659272Y91007D01*
X658995Y90990D01*
X658718Y90979D01*
X658440Y90976D01*
X658162Y90979D01*
X657885Y90990D01*
X657608Y91007D01*
X657331Y91030D01*
X657055Y91061D01*
X656780Y91098D01*
X656506Y91143D01*
X656233Y91193D01*
X655961Y91251D01*
X655691Y91315D01*
X655422Y91386D01*
X655156Y91463D01*
X654891Y91547D01*
X654628Y91637D01*
X654368Y91734D01*
X654110Y91837D01*
X653855Y91947D01*
X653603Y92062D01*
X653353Y92184D01*
X653107Y92312D01*
X652863Y92446D01*
X652623Y92586D01*
X652387Y92731D01*
X652154Y92883D01*
X651925Y93040D01*
X651700Y93203D01*
X651479Y93371D01*
X651262Y93544D01*
X651050Y93723D01*
X650842Y93907D01*
X650639Y94096D01*
X650440Y94290D01*
X650246Y94489D01*
X650057Y94692D01*
X649873Y94900D01*
X649694Y95112D01*
X649521Y95329D01*
X649353Y95550D01*
X649190Y95775D01*
X649033Y96004D01*
X648881Y96237D01*
X648736Y96473D01*
X648596Y96713D01*
X648462Y96957D01*
X648334Y97203D01*
X648212Y97453D01*
X648097Y97705D01*
X647987Y97960D01*
X647884Y98218D01*
X647787Y98478D01*
X647697Y98741D01*
X647613Y99006D01*
X647536Y99272D01*
X647465Y99541D01*
X647401Y99811D01*
X647343Y100083D01*
X647293Y100356D01*
X647248Y100630D01*
X647211Y100905D01*
X647180Y101181D01*
X647157Y101458D01*
X647140Y101735D01*
X647129Y102012D01*
X647126Y102290D01*
D15*
X196544Y274335D03*
X181812Y274335D03*
D10*
X181991Y284861D02*
X181991Y294259D01*
X184602Y294259D01*
X184703Y294257D01*
X184804Y294251D01*
X184905Y294241D01*
X185005Y294228D01*
X185105Y294210D01*
X185204Y294189D01*
X185302Y294163D01*
X185399Y294134D01*
X185495Y294102D01*
X185589Y294065D01*
X185682Y294025D01*
X185774Y293981D01*
X185863Y293934D01*
X185951Y293883D01*
X186037Y293829D01*
X186120Y293772D01*
X186202Y293712D01*
X186280Y293648D01*
X186357Y293582D01*
X186430Y293512D01*
X186501Y293440D01*
X186569Y293365D01*
X186634Y293287D01*
X186696Y293207D01*
X186755Y293125D01*
X186811Y293040D01*
X186863Y292953D01*
X186912Y292865D01*
X186958Y292774D01*
X186999Y292682D01*
X187038Y292588D01*
X187072Y292493D01*
X187103Y292397D01*
X187130Y292299D01*
X187154Y292201D01*
X187173Y292101D01*
X187189Y292001D01*
X187201Y291901D01*
X187209Y291800D01*
X187213Y291699D01*
X187213Y291597D01*
X187209Y291496D01*
X187201Y291395D01*
X187189Y291295D01*
X187173Y291195D01*
X187154Y291095D01*
X187130Y290997D01*
X187103Y290899D01*
X187072Y290803D01*
X187038Y290708D01*
X186999Y290614D01*
X186958Y290522D01*
X186912Y290431D01*
X186863Y290343D01*
X186811Y290256D01*
X186755Y290171D01*
X186696Y290089D01*
X186634Y290009D01*
X186569Y289931D01*
X186501Y289856D01*
X186430Y289784D01*
X186357Y289714D01*
X186280Y289648D01*
X186202Y289584D01*
X186120Y289524D01*
X186037Y289467D01*
X185951Y289413D01*
X185863Y289362D01*
X185774Y289315D01*
X185682Y289271D01*
X185589Y289231D01*
X185495Y289194D01*
X185399Y289162D01*
X185302Y289133D01*
X185204Y289107D01*
X185105Y289086D01*
X185005Y289068D01*
X184905Y289055D01*
X184804Y289045D01*
X184703Y289039D01*
X184602Y289037D01*
X184602Y289038D02*
X181991Y289038D01*
X185124Y289038D02*
X187212Y284861D01*
X191078Y290082D02*
X194211Y290082D01*
X194300Y290080D01*
X194388Y290074D01*
X194476Y290065D01*
X194564Y290052D01*
X194651Y290035D01*
X194737Y290015D01*
X194822Y289990D01*
X194907Y289963D01*
X194990Y289931D01*
X195071Y289897D01*
X195151Y289858D01*
X195229Y289817D01*
X195306Y289772D01*
X195380Y289724D01*
X195453Y289673D01*
X195523Y289619D01*
X195590Y289561D01*
X195656Y289501D01*
X195718Y289439D01*
X195778Y289373D01*
X195836Y289306D01*
X195890Y289236D01*
X195941Y289163D01*
X195989Y289089D01*
X196034Y289012D01*
X196075Y288934D01*
X196114Y288854D01*
X196148Y288773D01*
X196180Y288690D01*
X196207Y288605D01*
X196232Y288520D01*
X196252Y288434D01*
X196269Y288347D01*
X196282Y288259D01*
X196291Y288171D01*
X196297Y288083D01*
X196299Y287994D01*
X196299Y287472D01*
X196297Y287371D01*
X196291Y287270D01*
X196281Y287169D01*
X196268Y287069D01*
X196250Y286969D01*
X196229Y286870D01*
X196203Y286772D01*
X196174Y286675D01*
X196142Y286579D01*
X196105Y286485D01*
X196065Y286392D01*
X196021Y286300D01*
X195974Y286211D01*
X195923Y286123D01*
X195869Y286037D01*
X195812Y285954D01*
X195752Y285872D01*
X195688Y285794D01*
X195622Y285717D01*
X195552Y285644D01*
X195480Y285573D01*
X195405Y285505D01*
X195327Y285440D01*
X195247Y285378D01*
X195165Y285319D01*
X195080Y285263D01*
X194993Y285211D01*
X194905Y285162D01*
X194814Y285116D01*
X194722Y285075D01*
X194628Y285036D01*
X194533Y285002D01*
X194437Y284971D01*
X194339Y284944D01*
X194241Y284920D01*
X194141Y284901D01*
X194041Y284885D01*
X193941Y284873D01*
X193840Y284865D01*
X193739Y284861D01*
X193637Y284861D01*
X193536Y284865D01*
X193435Y284873D01*
X193335Y284885D01*
X193235Y284901D01*
X193135Y284920D01*
X193037Y284944D01*
X192939Y284971D01*
X192843Y285002D01*
X192748Y285036D01*
X192654Y285075D01*
X192562Y285116D01*
X192471Y285162D01*
X192383Y285211D01*
X192296Y285263D01*
X192211Y285319D01*
X192129Y285378D01*
X192049Y285440D01*
X191971Y285505D01*
X191896Y285573D01*
X191824Y285644D01*
X191754Y285717D01*
X191688Y285794D01*
X191624Y285872D01*
X191564Y285954D01*
X191507Y286037D01*
X191453Y286123D01*
X191402Y286211D01*
X191355Y286300D01*
X191311Y286392D01*
X191271Y286485D01*
X191234Y286579D01*
X191202Y286675D01*
X191173Y286772D01*
X191147Y286870D01*
X191126Y286969D01*
X191108Y287069D01*
X191095Y287169D01*
X191085Y287270D01*
X191079Y287371D01*
X191077Y287472D01*
X191078Y287472D02*
X191078Y290082D01*
X191080Y290211D01*
X191086Y290339D01*
X191096Y290467D01*
X191110Y290595D01*
X191127Y290723D01*
X191149Y290850D01*
X191175Y290976D01*
X191204Y291101D01*
X191237Y291225D01*
X191275Y291348D01*
X191315Y291470D01*
X191360Y291591D01*
X191408Y291710D01*
X191460Y291828D01*
X191516Y291944D01*
X191575Y292058D01*
X191638Y292170D01*
X191704Y292281D01*
X191773Y292389D01*
X191846Y292495D01*
X191922Y292599D01*
X192001Y292701D01*
X192083Y292800D01*
X192168Y292896D01*
X192256Y292990D01*
X192347Y293081D01*
X192441Y293169D01*
X192537Y293254D01*
X192636Y293336D01*
X192738Y293415D01*
X192842Y293491D01*
X192948Y293564D01*
X193056Y293633D01*
X193166Y293699D01*
X193279Y293762D01*
X193393Y293821D01*
X193509Y293877D01*
X193627Y293929D01*
X193746Y293977D01*
X193867Y294022D01*
X193989Y294062D01*
X194112Y294100D01*
X194236Y294133D01*
X194361Y294162D01*
X194487Y294188D01*
X194614Y294210D01*
X194742Y294227D01*
X194870Y294241D01*
X194998Y294251D01*
X195126Y294257D01*
X195255Y294259D01*
D15*
X374344Y275605D03*
X359612Y275605D03*
D10*
X359791Y286131D02*
X359791Y295529D01*
X362402Y295529D01*
X362503Y295527D01*
X362604Y295521D01*
X362705Y295511D01*
X362805Y295498D01*
X362905Y295480D01*
X363004Y295459D01*
X363102Y295433D01*
X363199Y295404D01*
X363295Y295372D01*
X363389Y295335D01*
X363482Y295295D01*
X363574Y295251D01*
X363663Y295204D01*
X363751Y295153D01*
X363837Y295099D01*
X363920Y295042D01*
X364002Y294982D01*
X364080Y294918D01*
X364157Y294852D01*
X364230Y294782D01*
X364301Y294710D01*
X364369Y294635D01*
X364434Y294557D01*
X364496Y294477D01*
X364555Y294395D01*
X364611Y294310D01*
X364663Y294223D01*
X364712Y294135D01*
X364758Y294044D01*
X364799Y293952D01*
X364838Y293858D01*
X364872Y293763D01*
X364903Y293667D01*
X364930Y293569D01*
X364954Y293471D01*
X364973Y293371D01*
X364989Y293271D01*
X365001Y293171D01*
X365009Y293070D01*
X365013Y292969D01*
X365013Y292867D01*
X365009Y292766D01*
X365001Y292665D01*
X364989Y292565D01*
X364973Y292465D01*
X364954Y292365D01*
X364930Y292267D01*
X364903Y292169D01*
X364872Y292073D01*
X364838Y291978D01*
X364799Y291884D01*
X364758Y291792D01*
X364712Y291701D01*
X364663Y291613D01*
X364611Y291526D01*
X364555Y291441D01*
X364496Y291359D01*
X364434Y291279D01*
X364369Y291201D01*
X364301Y291126D01*
X364230Y291054D01*
X364157Y290984D01*
X364080Y290918D01*
X364002Y290854D01*
X363920Y290794D01*
X363837Y290737D01*
X363751Y290683D01*
X363663Y290632D01*
X363574Y290585D01*
X363482Y290541D01*
X363389Y290501D01*
X363295Y290464D01*
X363199Y290432D01*
X363102Y290403D01*
X363004Y290377D01*
X362905Y290356D01*
X362805Y290338D01*
X362705Y290325D01*
X362604Y290315D01*
X362503Y290309D01*
X362402Y290307D01*
X362402Y290308D02*
X359791Y290308D01*
X362924Y290308D02*
X365012Y286131D01*
X368878Y294485D02*
X368878Y295529D01*
X374099Y295529D01*
X371488Y286131D01*
D15*
X242264Y274335D03*
X227532Y274335D03*
D10*
X227711Y284861D02*
X227711Y294259D01*
X230322Y294259D01*
X230423Y294257D01*
X230524Y294251D01*
X230625Y294241D01*
X230725Y294228D01*
X230825Y294210D01*
X230924Y294189D01*
X231022Y294163D01*
X231119Y294134D01*
X231215Y294102D01*
X231309Y294065D01*
X231402Y294025D01*
X231494Y293981D01*
X231583Y293934D01*
X231671Y293883D01*
X231757Y293829D01*
X231840Y293772D01*
X231922Y293712D01*
X232000Y293648D01*
X232077Y293582D01*
X232150Y293512D01*
X232221Y293440D01*
X232289Y293365D01*
X232354Y293287D01*
X232416Y293207D01*
X232475Y293125D01*
X232531Y293040D01*
X232583Y292953D01*
X232632Y292865D01*
X232678Y292774D01*
X232719Y292682D01*
X232758Y292588D01*
X232792Y292493D01*
X232823Y292397D01*
X232850Y292299D01*
X232874Y292201D01*
X232893Y292101D01*
X232909Y292001D01*
X232921Y291901D01*
X232929Y291800D01*
X232933Y291699D01*
X232933Y291597D01*
X232929Y291496D01*
X232921Y291395D01*
X232909Y291295D01*
X232893Y291195D01*
X232874Y291095D01*
X232850Y290997D01*
X232823Y290899D01*
X232792Y290803D01*
X232758Y290708D01*
X232719Y290614D01*
X232678Y290522D01*
X232632Y290431D01*
X232583Y290343D01*
X232531Y290256D01*
X232475Y290171D01*
X232416Y290089D01*
X232354Y290009D01*
X232289Y289931D01*
X232221Y289856D01*
X232150Y289784D01*
X232077Y289714D01*
X232000Y289648D01*
X231922Y289584D01*
X231840Y289524D01*
X231757Y289467D01*
X231671Y289413D01*
X231583Y289362D01*
X231494Y289315D01*
X231402Y289271D01*
X231309Y289231D01*
X231215Y289194D01*
X231119Y289162D01*
X231022Y289133D01*
X230924Y289107D01*
X230825Y289086D01*
X230725Y289068D01*
X230625Y289055D01*
X230524Y289045D01*
X230423Y289039D01*
X230322Y289037D01*
X230322Y289038D02*
X227711Y289038D01*
X230844Y289038D02*
X232932Y284861D01*
X236797Y287472D02*
X236799Y287573D01*
X236805Y287674D01*
X236815Y287775D01*
X236828Y287875D01*
X236846Y287975D01*
X236867Y288074D01*
X236893Y288172D01*
X236922Y288269D01*
X236954Y288365D01*
X236991Y288459D01*
X237031Y288552D01*
X237075Y288644D01*
X237122Y288733D01*
X237173Y288821D01*
X237227Y288907D01*
X237284Y288990D01*
X237344Y289072D01*
X237408Y289150D01*
X237474Y289227D01*
X237544Y289300D01*
X237616Y289371D01*
X237691Y289439D01*
X237769Y289504D01*
X237849Y289566D01*
X237931Y289625D01*
X238016Y289681D01*
X238103Y289733D01*
X238191Y289782D01*
X238282Y289828D01*
X238374Y289869D01*
X238468Y289908D01*
X238563Y289942D01*
X238659Y289973D01*
X238757Y290000D01*
X238855Y290024D01*
X238955Y290043D01*
X239055Y290059D01*
X239155Y290071D01*
X239256Y290079D01*
X239357Y290083D01*
X239459Y290083D01*
X239560Y290079D01*
X239661Y290071D01*
X239761Y290059D01*
X239861Y290043D01*
X239961Y290024D01*
X240059Y290000D01*
X240157Y289973D01*
X240253Y289942D01*
X240348Y289908D01*
X240442Y289869D01*
X240534Y289828D01*
X240625Y289782D01*
X240714Y289733D01*
X240800Y289681D01*
X240885Y289625D01*
X240967Y289566D01*
X241047Y289504D01*
X241125Y289439D01*
X241200Y289371D01*
X241272Y289300D01*
X241342Y289227D01*
X241408Y289150D01*
X241472Y289072D01*
X241532Y288990D01*
X241589Y288907D01*
X241643Y288821D01*
X241694Y288733D01*
X241741Y288644D01*
X241785Y288552D01*
X241825Y288459D01*
X241862Y288365D01*
X241894Y288269D01*
X241923Y288172D01*
X241949Y288074D01*
X241970Y287975D01*
X241988Y287875D01*
X242001Y287775D01*
X242011Y287674D01*
X242017Y287573D01*
X242019Y287472D01*
X242017Y287371D01*
X242011Y287270D01*
X242001Y287169D01*
X241988Y287069D01*
X241970Y286969D01*
X241949Y286870D01*
X241923Y286772D01*
X241894Y286675D01*
X241862Y286579D01*
X241825Y286485D01*
X241785Y286392D01*
X241741Y286300D01*
X241694Y286211D01*
X241643Y286123D01*
X241589Y286037D01*
X241532Y285954D01*
X241472Y285872D01*
X241408Y285794D01*
X241342Y285717D01*
X241272Y285644D01*
X241200Y285573D01*
X241125Y285505D01*
X241047Y285440D01*
X240967Y285378D01*
X240885Y285319D01*
X240800Y285263D01*
X240713Y285211D01*
X240625Y285162D01*
X240534Y285116D01*
X240442Y285075D01*
X240348Y285036D01*
X240253Y285002D01*
X240157Y284971D01*
X240059Y284944D01*
X239961Y284920D01*
X239861Y284901D01*
X239761Y284885D01*
X239661Y284873D01*
X239560Y284865D01*
X239459Y284861D01*
X239357Y284861D01*
X239256Y284865D01*
X239155Y284873D01*
X239055Y284885D01*
X238955Y284901D01*
X238855Y284920D01*
X238757Y284944D01*
X238659Y284971D01*
X238563Y285002D01*
X238468Y285036D01*
X238374Y285075D01*
X238282Y285116D01*
X238191Y285162D01*
X238103Y285211D01*
X238016Y285263D01*
X237931Y285319D01*
X237849Y285378D01*
X237769Y285440D01*
X237691Y285505D01*
X237616Y285573D01*
X237544Y285644D01*
X237474Y285717D01*
X237408Y285794D01*
X237344Y285872D01*
X237284Y285954D01*
X237227Y286037D01*
X237173Y286123D01*
X237122Y286211D01*
X237075Y286300D01*
X237031Y286392D01*
X236991Y286485D01*
X236954Y286579D01*
X236922Y286675D01*
X236893Y286772D01*
X236867Y286870D01*
X236846Y286969D01*
X236828Y287069D01*
X236815Y287169D01*
X236805Y287270D01*
X236799Y287371D01*
X236797Y287472D01*
X237320Y292171D02*
X237322Y292261D01*
X237328Y292350D01*
X237337Y292440D01*
X237351Y292529D01*
X237368Y292617D01*
X237389Y292704D01*
X237414Y292791D01*
X237443Y292876D01*
X237475Y292960D01*
X237510Y293042D01*
X237550Y293123D01*
X237592Y293202D01*
X237638Y293279D01*
X237688Y293354D01*
X237740Y293427D01*
X237796Y293498D01*
X237854Y293566D01*
X237916Y293631D01*
X237980Y293694D01*
X238047Y293754D01*
X238116Y293811D01*
X238188Y293865D01*
X238262Y293916D01*
X238338Y293964D01*
X238416Y294008D01*
X238496Y294049D01*
X238578Y294087D01*
X238661Y294121D01*
X238746Y294151D01*
X238832Y294178D01*
X238918Y294201D01*
X239006Y294220D01*
X239095Y294235D01*
X239184Y294247D01*
X239273Y294255D01*
X239363Y294259D01*
X239453Y294259D01*
X239543Y294255D01*
X239632Y294247D01*
X239721Y294235D01*
X239810Y294220D01*
X239898Y294201D01*
X239984Y294178D01*
X240070Y294151D01*
X240155Y294121D01*
X240238Y294087D01*
X240320Y294049D01*
X240400Y294008D01*
X240478Y293964D01*
X240554Y293916D01*
X240628Y293865D01*
X240700Y293811D01*
X240769Y293754D01*
X240836Y293694D01*
X240900Y293631D01*
X240962Y293566D01*
X241020Y293498D01*
X241076Y293427D01*
X241128Y293354D01*
X241178Y293279D01*
X241224Y293202D01*
X241266Y293123D01*
X241306Y293042D01*
X241341Y292960D01*
X241373Y292876D01*
X241402Y292791D01*
X241427Y292704D01*
X241448Y292617D01*
X241465Y292529D01*
X241479Y292440D01*
X241488Y292350D01*
X241494Y292261D01*
X241496Y292171D01*
X241494Y292081D01*
X241488Y291992D01*
X241479Y291902D01*
X241465Y291813D01*
X241448Y291725D01*
X241427Y291638D01*
X241402Y291551D01*
X241373Y291466D01*
X241341Y291382D01*
X241306Y291300D01*
X241266Y291219D01*
X241224Y291140D01*
X241178Y291063D01*
X241128Y290988D01*
X241076Y290915D01*
X241020Y290844D01*
X240962Y290776D01*
X240900Y290711D01*
X240836Y290648D01*
X240769Y290588D01*
X240700Y290531D01*
X240628Y290477D01*
X240554Y290426D01*
X240478Y290378D01*
X240400Y290334D01*
X240320Y290293D01*
X240238Y290255D01*
X240155Y290221D01*
X240070Y290191D01*
X239984Y290164D01*
X239898Y290141D01*
X239810Y290122D01*
X239721Y290107D01*
X239632Y290095D01*
X239543Y290087D01*
X239453Y290083D01*
X239363Y290083D01*
X239273Y290087D01*
X239184Y290095D01*
X239095Y290107D01*
X239006Y290122D01*
X238918Y290141D01*
X238832Y290164D01*
X238746Y290191D01*
X238661Y290221D01*
X238578Y290255D01*
X238496Y290293D01*
X238416Y290334D01*
X238338Y290378D01*
X238262Y290426D01*
X238188Y290477D01*
X238116Y290531D01*
X238047Y290588D01*
X237980Y290648D01*
X237916Y290711D01*
X237854Y290776D01*
X237796Y290844D01*
X237740Y290915D01*
X237688Y290988D01*
X237638Y291063D01*
X237592Y291140D01*
X237550Y291219D01*
X237510Y291300D01*
X237475Y291382D01*
X237443Y291466D01*
X237414Y291551D01*
X237389Y291638D01*
X237368Y291725D01*
X237351Y291813D01*
X237337Y291902D01*
X237328Y291992D01*
X237322Y292081D01*
X237320Y292171D01*
D15*
X555954Y273065D03*
X541222Y273065D03*
D10*
X541401Y283591D02*
X541401Y292989D01*
X544012Y292989D01*
X544113Y292987D01*
X544214Y292981D01*
X544315Y292971D01*
X544415Y292958D01*
X544515Y292940D01*
X544614Y292919D01*
X544712Y292893D01*
X544809Y292864D01*
X544905Y292832D01*
X544999Y292795D01*
X545092Y292755D01*
X545184Y292711D01*
X545273Y292664D01*
X545361Y292613D01*
X545447Y292559D01*
X545530Y292502D01*
X545612Y292442D01*
X545690Y292378D01*
X545767Y292312D01*
X545840Y292242D01*
X545911Y292170D01*
X545979Y292095D01*
X546044Y292017D01*
X546106Y291937D01*
X546165Y291855D01*
X546221Y291770D01*
X546273Y291683D01*
X546322Y291595D01*
X546368Y291504D01*
X546409Y291412D01*
X546448Y291318D01*
X546482Y291223D01*
X546513Y291127D01*
X546540Y291029D01*
X546564Y290931D01*
X546583Y290831D01*
X546599Y290731D01*
X546611Y290631D01*
X546619Y290530D01*
X546623Y290429D01*
X546623Y290327D01*
X546619Y290226D01*
X546611Y290125D01*
X546599Y290025D01*
X546583Y289925D01*
X546564Y289825D01*
X546540Y289727D01*
X546513Y289629D01*
X546482Y289533D01*
X546448Y289438D01*
X546409Y289344D01*
X546368Y289252D01*
X546322Y289161D01*
X546273Y289073D01*
X546221Y288986D01*
X546165Y288901D01*
X546106Y288819D01*
X546044Y288739D01*
X545979Y288661D01*
X545911Y288586D01*
X545840Y288514D01*
X545767Y288444D01*
X545690Y288378D01*
X545612Y288314D01*
X545530Y288254D01*
X545447Y288197D01*
X545361Y288143D01*
X545273Y288092D01*
X545184Y288045D01*
X545092Y288001D01*
X544999Y287961D01*
X544905Y287924D01*
X544809Y287892D01*
X544712Y287863D01*
X544614Y287837D01*
X544515Y287816D01*
X544415Y287798D01*
X544315Y287785D01*
X544214Y287775D01*
X544113Y287769D01*
X544012Y287767D01*
X544012Y287768D02*
X541401Y287768D01*
X544534Y287768D02*
X546622Y283591D01*
X552576Y287768D02*
X555709Y287768D01*
X552576Y287768D02*
X552487Y287770D01*
X552399Y287776D01*
X552311Y287785D01*
X552223Y287798D01*
X552136Y287815D01*
X552050Y287835D01*
X551965Y287860D01*
X551880Y287887D01*
X551797Y287919D01*
X551716Y287953D01*
X551636Y287992D01*
X551558Y288033D01*
X551481Y288078D01*
X551407Y288126D01*
X551334Y288177D01*
X551264Y288231D01*
X551197Y288289D01*
X551131Y288349D01*
X551069Y288411D01*
X551009Y288477D01*
X550951Y288544D01*
X550897Y288614D01*
X550846Y288687D01*
X550798Y288761D01*
X550753Y288838D01*
X550712Y288916D01*
X550673Y288996D01*
X550639Y289077D01*
X550607Y289160D01*
X550580Y289245D01*
X550555Y289330D01*
X550535Y289416D01*
X550518Y289503D01*
X550505Y289591D01*
X550496Y289679D01*
X550490Y289767D01*
X550488Y289856D01*
X550488Y290378D01*
X550487Y290378D02*
X550489Y290479D01*
X550495Y290580D01*
X550505Y290681D01*
X550518Y290781D01*
X550536Y290881D01*
X550557Y290980D01*
X550583Y291078D01*
X550612Y291175D01*
X550644Y291271D01*
X550681Y291365D01*
X550721Y291458D01*
X550765Y291550D01*
X550812Y291639D01*
X550863Y291727D01*
X550917Y291813D01*
X550974Y291896D01*
X551034Y291978D01*
X551098Y292056D01*
X551164Y292133D01*
X551234Y292206D01*
X551306Y292277D01*
X551381Y292345D01*
X551459Y292410D01*
X551539Y292472D01*
X551621Y292531D01*
X551706Y292587D01*
X551793Y292639D01*
X551881Y292688D01*
X551972Y292734D01*
X552064Y292775D01*
X552158Y292814D01*
X552253Y292848D01*
X552349Y292879D01*
X552447Y292906D01*
X552545Y292930D01*
X552645Y292949D01*
X552745Y292965D01*
X552845Y292977D01*
X552946Y292985D01*
X553047Y292989D01*
X553149Y292989D01*
X553250Y292985D01*
X553351Y292977D01*
X553451Y292965D01*
X553551Y292949D01*
X553651Y292930D01*
X553749Y292906D01*
X553847Y292879D01*
X553943Y292848D01*
X554038Y292814D01*
X554132Y292775D01*
X554224Y292734D01*
X554315Y292688D01*
X554404Y292639D01*
X554490Y292587D01*
X554575Y292531D01*
X554657Y292472D01*
X554737Y292410D01*
X554815Y292345D01*
X554890Y292277D01*
X554962Y292206D01*
X555032Y292133D01*
X555098Y292056D01*
X555162Y291978D01*
X555222Y291896D01*
X555279Y291813D01*
X555333Y291727D01*
X555384Y291639D01*
X555431Y291550D01*
X555475Y291458D01*
X555515Y291365D01*
X555552Y291271D01*
X555584Y291175D01*
X555613Y291078D01*
X555639Y290980D01*
X555660Y290881D01*
X555678Y290781D01*
X555691Y290681D01*
X555701Y290580D01*
X555707Y290479D01*
X555709Y290378D01*
X555709Y287768D01*
X555707Y287642D01*
X555701Y287516D01*
X555692Y287390D01*
X555679Y287265D01*
X555661Y287140D01*
X555641Y287015D01*
X555616Y286891D01*
X555588Y286768D01*
X555556Y286646D01*
X555520Y286525D01*
X555481Y286405D01*
X555438Y286287D01*
X555391Y286170D01*
X555341Y286054D01*
X555287Y285939D01*
X555231Y285827D01*
X555170Y285716D01*
X555107Y285607D01*
X555040Y285500D01*
X554970Y285395D01*
X554896Y285292D01*
X554820Y285192D01*
X554741Y285094D01*
X554659Y284998D01*
X554573Y284905D01*
X554486Y284814D01*
X554395Y284727D01*
X554302Y284641D01*
X554206Y284559D01*
X554108Y284480D01*
X554008Y284404D01*
X553905Y284330D01*
X553800Y284260D01*
X553693Y284193D01*
X553584Y284130D01*
X553473Y284069D01*
X553361Y284013D01*
X553246Y283959D01*
X553130Y283909D01*
X553013Y283862D01*
X552895Y283819D01*
X552775Y283780D01*
X552654Y283744D01*
X552532Y283712D01*
X552409Y283684D01*
X552285Y283659D01*
X552160Y283639D01*
X552035Y283621D01*
X551910Y283608D01*
X551784Y283599D01*
X551658Y283593D01*
X551532Y283591D01*
D15*
X585776Y273035D03*
X600508Y273035D03*
D10*
X584497Y283591D02*
X584497Y292989D01*
X587108Y292989D01*
X587209Y292987D01*
X587310Y292981D01*
X587411Y292971D01*
X587511Y292958D01*
X587611Y292940D01*
X587710Y292919D01*
X587808Y292893D01*
X587905Y292864D01*
X588001Y292832D01*
X588095Y292795D01*
X588188Y292755D01*
X588280Y292711D01*
X588369Y292664D01*
X588457Y292613D01*
X588543Y292559D01*
X588626Y292502D01*
X588708Y292442D01*
X588786Y292378D01*
X588863Y292312D01*
X588936Y292242D01*
X589007Y292170D01*
X589075Y292095D01*
X589140Y292017D01*
X589202Y291937D01*
X589261Y291855D01*
X589317Y291770D01*
X589369Y291683D01*
X589418Y291595D01*
X589464Y291504D01*
X589505Y291412D01*
X589544Y291318D01*
X589578Y291223D01*
X589609Y291127D01*
X589636Y291029D01*
X589660Y290931D01*
X589679Y290831D01*
X589695Y290731D01*
X589707Y290631D01*
X589715Y290530D01*
X589719Y290429D01*
X589719Y290327D01*
X589715Y290226D01*
X589707Y290125D01*
X589695Y290025D01*
X589679Y289925D01*
X589660Y289825D01*
X589636Y289727D01*
X589609Y289629D01*
X589578Y289533D01*
X589544Y289438D01*
X589505Y289344D01*
X589464Y289252D01*
X589418Y289161D01*
X589369Y289073D01*
X589317Y288986D01*
X589261Y288901D01*
X589202Y288819D01*
X589140Y288739D01*
X589075Y288661D01*
X589007Y288586D01*
X588936Y288514D01*
X588863Y288444D01*
X588786Y288378D01*
X588708Y288314D01*
X588626Y288254D01*
X588543Y288197D01*
X588457Y288143D01*
X588369Y288092D01*
X588280Y288045D01*
X588188Y288001D01*
X588095Y287961D01*
X588001Y287924D01*
X587905Y287892D01*
X587808Y287863D01*
X587710Y287837D01*
X587611Y287816D01*
X587511Y287798D01*
X587411Y287785D01*
X587310Y287775D01*
X587209Y287769D01*
X587108Y287767D01*
X587108Y287768D02*
X584497Y287768D01*
X587630Y287768D02*
X589718Y283591D01*
X593584Y290901D02*
X596194Y292989D01*
X596194Y283591D01*
X593584Y283591D02*
X598805Y283591D01*
X602728Y288290D02*
X602730Y288475D01*
X602737Y288660D01*
X602748Y288844D01*
X602763Y289028D01*
X602783Y289212D01*
X602807Y289396D01*
X602836Y289578D01*
X602869Y289760D01*
X602906Y289941D01*
X602948Y290121D01*
X602994Y290301D01*
X603044Y290479D01*
X603098Y290655D01*
X603157Y290831D01*
X603219Y291005D01*
X603286Y291177D01*
X603357Y291348D01*
X603432Y291517D01*
X603511Y291684D01*
X603510Y291684D02*
X603540Y291764D01*
X603573Y291843D01*
X603610Y291920D01*
X603650Y291996D01*
X603693Y292070D01*
X603739Y292142D01*
X603789Y292211D01*
X603841Y292279D01*
X603897Y292344D01*
X603955Y292407D01*
X604017Y292466D01*
X604080Y292524D01*
X604147Y292578D01*
X604215Y292629D01*
X604286Y292677D01*
X604359Y292722D01*
X604433Y292764D01*
X604510Y292802D01*
X604588Y292837D01*
X604667Y292869D01*
X604748Y292897D01*
X604830Y292921D01*
X604914Y292942D01*
X604997Y292959D01*
X605082Y292972D01*
X605167Y292981D01*
X605252Y292987D01*
X605338Y292989D01*
X605424Y292987D01*
X605509Y292981D01*
X605594Y292972D01*
X605679Y292959D01*
X605762Y292942D01*
X605846Y292921D01*
X605928Y292897D01*
X606009Y292869D01*
X606088Y292837D01*
X606166Y292802D01*
X606243Y292764D01*
X606317Y292722D01*
X606390Y292677D01*
X606461Y292629D01*
X606529Y292578D01*
X606596Y292524D01*
X606659Y292466D01*
X606721Y292407D01*
X606779Y292344D01*
X606835Y292279D01*
X606887Y292211D01*
X606937Y292142D01*
X606983Y292070D01*
X607026Y291996D01*
X607066Y291920D01*
X607103Y291843D01*
X607136Y291764D01*
X607166Y291684D01*
X607245Y291517D01*
X607320Y291348D01*
X607391Y291177D01*
X607458Y291005D01*
X607520Y290831D01*
X607579Y290655D01*
X607633Y290479D01*
X607683Y290301D01*
X607729Y290121D01*
X607771Y289941D01*
X607808Y289760D01*
X607841Y289578D01*
X607870Y289396D01*
X607894Y289212D01*
X607914Y289028D01*
X607929Y288844D01*
X607940Y288660D01*
X607947Y288475D01*
X607949Y288290D01*
X602728Y288290D02*
X602730Y288105D01*
X602737Y287920D01*
X602748Y287736D01*
X602763Y287552D01*
X602783Y287368D01*
X602807Y287184D01*
X602836Y287002D01*
X602869Y286820D01*
X602906Y286639D01*
X602948Y286459D01*
X602994Y286279D01*
X603044Y286101D01*
X603098Y285925D01*
X603157Y285749D01*
X603219Y285575D01*
X603286Y285403D01*
X603357Y285232D01*
X603432Y285063D01*
X603511Y284896D01*
X603510Y284896D02*
X603540Y284816D01*
X603573Y284737D01*
X603610Y284660D01*
X603650Y284584D01*
X603693Y284510D01*
X603739Y284438D01*
X603789Y284369D01*
X603842Y284301D01*
X603897Y284236D01*
X603956Y284173D01*
X604017Y284114D01*
X604080Y284056D01*
X604147Y284002D01*
X604215Y283951D01*
X604286Y283903D01*
X604359Y283858D01*
X604433Y283816D01*
X604510Y283778D01*
X604588Y283743D01*
X604667Y283711D01*
X604748Y283683D01*
X604830Y283659D01*
X604914Y283638D01*
X604997Y283621D01*
X605082Y283608D01*
X605167Y283599D01*
X605252Y283593D01*
X605338Y283591D01*
X607166Y284896D02*
X607245Y285063D01*
X607320Y285232D01*
X607391Y285403D01*
X607458Y285575D01*
X607520Y285749D01*
X607579Y285925D01*
X607633Y286101D01*
X607683Y286279D01*
X607729Y286459D01*
X607771Y286639D01*
X607808Y286820D01*
X607841Y287002D01*
X607870Y287184D01*
X607894Y287368D01*
X607914Y287552D01*
X607929Y287736D01*
X607940Y287920D01*
X607947Y288105D01*
X607949Y288290D01*
X607166Y284896D02*
X607136Y284816D01*
X607103Y284737D01*
X607066Y284660D01*
X607026Y284584D01*
X606983Y284510D01*
X606937Y284438D01*
X606887Y284369D01*
X606835Y284301D01*
X606779Y284236D01*
X606721Y284173D01*
X606659Y284114D01*
X606596Y284056D01*
X606529Y284002D01*
X606461Y283951D01*
X606390Y283903D01*
X606317Y283858D01*
X606243Y283816D01*
X606166Y283778D01*
X606088Y283743D01*
X606009Y283711D01*
X605928Y283683D01*
X605846Y283659D01*
X605762Y283638D01*
X605679Y283621D01*
X605594Y283608D01*
X605509Y283599D01*
X605424Y283593D01*
X605338Y283591D01*
X603250Y285679D02*
X607427Y290901D01*
D14*
X431880Y127254D02*
X431880Y119126D01*
X431880Y127254D02*
X434138Y127254D01*
X434231Y127252D01*
X434324Y127246D01*
X434417Y127237D01*
X434510Y127223D01*
X434601Y127206D01*
X434692Y127185D01*
X434782Y127160D01*
X434871Y127132D01*
X434959Y127100D01*
X435045Y127064D01*
X435130Y127025D01*
X435213Y126982D01*
X435294Y126936D01*
X435373Y126886D01*
X435450Y126834D01*
X435525Y126778D01*
X435597Y126719D01*
X435667Y126657D01*
X435735Y126593D01*
X435799Y126525D01*
X435861Y126455D01*
X435920Y126383D01*
X435976Y126308D01*
X436028Y126231D01*
X436078Y126152D01*
X436124Y126071D01*
X436167Y125988D01*
X436206Y125903D01*
X436242Y125817D01*
X436274Y125729D01*
X436302Y125640D01*
X436327Y125550D01*
X436348Y125459D01*
X436365Y125368D01*
X436379Y125275D01*
X436388Y125182D01*
X436394Y125089D01*
X436396Y124996D01*
X436394Y124903D01*
X436388Y124810D01*
X436379Y124717D01*
X436365Y124624D01*
X436348Y124533D01*
X436327Y124442D01*
X436302Y124352D01*
X436274Y124263D01*
X436242Y124175D01*
X436206Y124089D01*
X436167Y124004D01*
X436124Y123921D01*
X436078Y123840D01*
X436028Y123761D01*
X435976Y123684D01*
X435920Y123609D01*
X435861Y123537D01*
X435799Y123467D01*
X435735Y123399D01*
X435667Y123335D01*
X435597Y123273D01*
X435525Y123214D01*
X435450Y123158D01*
X435373Y123106D01*
X435294Y123056D01*
X435213Y123010D01*
X435130Y122967D01*
X435045Y122928D01*
X434959Y122892D01*
X434871Y122860D01*
X434782Y122832D01*
X434692Y122807D01*
X434601Y122786D01*
X434510Y122769D01*
X434417Y122755D01*
X434324Y122746D01*
X434231Y122740D01*
X434138Y122738D01*
X431880Y122738D01*
X434589Y122738D02*
X436395Y119126D01*
X440921Y125448D02*
X443178Y127254D01*
X443178Y119126D01*
X440921Y119126D02*
X445436Y119126D01*
X450065Y125448D02*
X452322Y127254D01*
X452322Y119126D01*
X450065Y119126D02*
X454580Y119126D01*
X440751Y75946D02*
X438945Y75946D01*
X438862Y75948D01*
X438778Y75954D01*
X438695Y75963D01*
X438613Y75977D01*
X438532Y75994D01*
X438451Y76015D01*
X438371Y76040D01*
X438293Y76068D01*
X438216Y76100D01*
X438140Y76135D01*
X438066Y76174D01*
X437994Y76217D01*
X437924Y76262D01*
X437857Y76311D01*
X437791Y76363D01*
X437728Y76417D01*
X437668Y76475D01*
X437610Y76535D01*
X437556Y76598D01*
X437504Y76664D01*
X437455Y76731D01*
X437410Y76801D01*
X437367Y76873D01*
X437328Y76947D01*
X437293Y77023D01*
X437261Y77100D01*
X437233Y77178D01*
X437208Y77258D01*
X437187Y77339D01*
X437170Y77420D01*
X437156Y77502D01*
X437147Y77585D01*
X437141Y77669D01*
X437139Y77752D01*
X437139Y82268D01*
X437141Y82351D01*
X437147Y82435D01*
X437156Y82518D01*
X437170Y82600D01*
X437187Y82681D01*
X437208Y82762D01*
X437233Y82842D01*
X437261Y82920D01*
X437293Y82997D01*
X437328Y83073D01*
X437367Y83147D01*
X437410Y83219D01*
X437455Y83289D01*
X437504Y83356D01*
X437556Y83422D01*
X437610Y83485D01*
X437668Y83545D01*
X437728Y83603D01*
X437791Y83657D01*
X437857Y83709D01*
X437924Y83758D01*
X437994Y83803D01*
X438066Y83846D01*
X438140Y83885D01*
X438215Y83920D01*
X438293Y83952D01*
X438371Y83980D01*
X438451Y84005D01*
X438531Y84026D01*
X438613Y84043D01*
X438695Y84057D01*
X438778Y84066D01*
X438862Y84072D01*
X438945Y84074D01*
X440751Y84074D01*
X444805Y80462D02*
X447515Y80462D01*
X447515Y80461D02*
X447598Y80459D01*
X447682Y80453D01*
X447765Y80444D01*
X447847Y80430D01*
X447928Y80413D01*
X448009Y80392D01*
X448089Y80367D01*
X448167Y80339D01*
X448244Y80307D01*
X448320Y80272D01*
X448394Y80233D01*
X448466Y80190D01*
X448536Y80145D01*
X448603Y80096D01*
X448669Y80044D01*
X448732Y79990D01*
X448792Y79932D01*
X448850Y79872D01*
X448904Y79809D01*
X448956Y79743D01*
X449005Y79676D01*
X449050Y79606D01*
X449093Y79534D01*
X449132Y79460D01*
X449167Y79384D01*
X449199Y79307D01*
X449227Y79229D01*
X449252Y79149D01*
X449273Y79068D01*
X449290Y78987D01*
X449304Y78905D01*
X449313Y78822D01*
X449319Y78738D01*
X449321Y78655D01*
X449321Y78204D01*
X449319Y78111D01*
X449313Y78018D01*
X449304Y77925D01*
X449290Y77832D01*
X449273Y77741D01*
X449252Y77650D01*
X449227Y77560D01*
X449199Y77471D01*
X449167Y77383D01*
X449131Y77297D01*
X449092Y77212D01*
X449049Y77129D01*
X449003Y77048D01*
X448953Y76969D01*
X448901Y76892D01*
X448845Y76817D01*
X448786Y76745D01*
X448724Y76675D01*
X448660Y76607D01*
X448592Y76543D01*
X448522Y76481D01*
X448450Y76422D01*
X448375Y76366D01*
X448298Y76314D01*
X448219Y76264D01*
X448138Y76218D01*
X448055Y76175D01*
X447970Y76136D01*
X447884Y76100D01*
X447796Y76068D01*
X447707Y76040D01*
X447617Y76015D01*
X447526Y75994D01*
X447435Y75977D01*
X447342Y75963D01*
X447249Y75954D01*
X447156Y75948D01*
X447063Y75946D01*
X446970Y75948D01*
X446877Y75954D01*
X446784Y75963D01*
X446691Y75977D01*
X446600Y75994D01*
X446509Y76015D01*
X446419Y76040D01*
X446330Y76068D01*
X446242Y76100D01*
X446156Y76136D01*
X446071Y76175D01*
X445988Y76218D01*
X445907Y76264D01*
X445828Y76314D01*
X445751Y76366D01*
X445676Y76422D01*
X445604Y76481D01*
X445534Y76543D01*
X445466Y76607D01*
X445402Y76675D01*
X445340Y76745D01*
X445281Y76817D01*
X445225Y76892D01*
X445173Y76969D01*
X445123Y77048D01*
X445077Y77129D01*
X445034Y77212D01*
X444995Y77297D01*
X444959Y77383D01*
X444927Y77471D01*
X444899Y77560D01*
X444874Y77650D01*
X444853Y77741D01*
X444836Y77832D01*
X444822Y77925D01*
X444813Y78018D01*
X444807Y78111D01*
X444805Y78204D01*
X444805Y80462D01*
X444806Y80462D02*
X444808Y80580D01*
X444814Y80698D01*
X444823Y80816D01*
X444837Y80933D01*
X444854Y81050D01*
X444875Y81167D01*
X444900Y81282D01*
X444929Y81397D01*
X444962Y81511D01*
X444998Y81623D01*
X445038Y81734D01*
X445081Y81844D01*
X445128Y81953D01*
X445178Y82060D01*
X445232Y82165D01*
X445290Y82268D01*
X445351Y82369D01*
X445415Y82469D01*
X445482Y82566D01*
X445552Y82661D01*
X445626Y82753D01*
X445702Y82844D01*
X445782Y82931D01*
X445864Y83016D01*
X445949Y83098D01*
X446036Y83178D01*
X446127Y83254D01*
X446219Y83328D01*
X446314Y83398D01*
X446411Y83465D01*
X446511Y83529D01*
X446612Y83590D01*
X446715Y83647D01*
X446820Y83701D01*
X446927Y83752D01*
X447036Y83799D01*
X447146Y83842D01*
X447257Y83882D01*
X447369Y83918D01*
X447483Y83951D01*
X447598Y83980D01*
X447713Y84005D01*
X447830Y84026D01*
X447947Y84043D01*
X448064Y84057D01*
X448182Y84066D01*
X448300Y84072D01*
X448418Y84074D01*
D13*
X160060Y96520D02*
X160062Y96583D01*
X160068Y96645D01*
X160078Y96707D01*
X160091Y96769D01*
X160109Y96829D01*
X160130Y96888D01*
X160155Y96946D01*
X160184Y97002D01*
X160216Y97056D01*
X160251Y97108D01*
X160289Y97157D01*
X160331Y97205D01*
X160375Y97249D01*
X160423Y97291D01*
X160472Y97329D01*
X160524Y97364D01*
X160578Y97396D01*
X160634Y97425D01*
X160692Y97450D01*
X160751Y97471D01*
X160811Y97489D01*
X160873Y97502D01*
X160935Y97512D01*
X160997Y97518D01*
X161060Y97520D01*
X161123Y97518D01*
X161185Y97512D01*
X161247Y97502D01*
X161309Y97489D01*
X161369Y97471D01*
X161428Y97450D01*
X161486Y97425D01*
X161542Y97396D01*
X161596Y97364D01*
X161648Y97329D01*
X161697Y97291D01*
X161745Y97249D01*
X161789Y97205D01*
X161831Y97157D01*
X161869Y97108D01*
X161904Y97056D01*
X161936Y97002D01*
X161965Y96946D01*
X161990Y96888D01*
X162011Y96829D01*
X162029Y96769D01*
X162042Y96707D01*
X162052Y96645D01*
X162058Y96583D01*
X162060Y96520D01*
X162058Y96457D01*
X162052Y96395D01*
X162042Y96333D01*
X162029Y96271D01*
X162011Y96211D01*
X161990Y96152D01*
X161965Y96094D01*
X161936Y96038D01*
X161904Y95984D01*
X161869Y95932D01*
X161831Y95883D01*
X161789Y95835D01*
X161745Y95791D01*
X161697Y95749D01*
X161648Y95711D01*
X161596Y95676D01*
X161542Y95644D01*
X161486Y95615D01*
X161428Y95590D01*
X161369Y95569D01*
X161309Y95551D01*
X161247Y95538D01*
X161185Y95528D01*
X161123Y95522D01*
X161060Y95520D01*
X160997Y95522D01*
X160935Y95528D01*
X160873Y95538D01*
X160811Y95551D01*
X160751Y95569D01*
X160692Y95590D01*
X160634Y95615D01*
X160578Y95644D01*
X160524Y95676D01*
X160472Y95711D01*
X160423Y95749D01*
X160375Y95791D01*
X160331Y95835D01*
X160289Y95883D01*
X160251Y95932D01*
X160216Y95984D01*
X160184Y96038D01*
X160155Y96094D01*
X160130Y96152D01*
X160109Y96211D01*
X160091Y96271D01*
X160078Y96333D01*
X160068Y96395D01*
X160062Y96457D01*
X160060Y96520D01*
D12*
X147710Y109810D02*
X147710Y117920D01*
X147710Y143120D02*
X147710Y151920D01*
X147710Y177120D02*
X147710Y181320D01*
X100710Y181320D02*
X100710Y79720D01*
X147710Y79720D01*
X147710Y181320D02*
X100710Y181320D01*
D13*
X211890Y178270D02*
X313890Y178270D01*
X313890Y78270D02*
X211890Y78270D01*
D11*
X330720Y77990D02*
X353720Y77990D01*
X330720Y77990D02*
X330720Y125990D01*
X347720Y142990D01*
X353720Y142990D01*
X372720Y142990D02*
X378720Y142990D01*
X395720Y125990D01*
X395720Y77990D01*
X372720Y77990D01*
X353720Y80990D02*
X353002Y81231D01*
X352289Y81490D01*
X351584Y81766D01*
X350885Y82059D01*
X350193Y82369D01*
X349510Y82696D01*
X348834Y83039D01*
X348167Y83399D01*
X347509Y83775D01*
X346861Y84167D01*
X346222Y84575D01*
X345594Y84998D01*
X344976Y85437D01*
X344369Y85890D01*
X343773Y86359D01*
X343189Y86841D01*
X342617Y87338D01*
X342057Y87849D01*
X341510Y88373D01*
X340975Y88910D01*
X340454Y89461D01*
X339947Y90024D01*
X339454Y90599D01*
X338974Y91186D01*
X338510Y91784D01*
X338060Y92394D01*
X337625Y93015D01*
X337205Y93646D01*
X336801Y94287D01*
X336413Y94937D01*
X336041Y95598D01*
X335685Y96266D01*
X335345Y96944D01*
X335022Y97630D01*
X334716Y98323D01*
X334427Y99023D01*
X334156Y99731D01*
X333901Y100444D01*
X333664Y101164D01*
X333445Y101890D01*
X333244Y102620D01*
X333060Y103355D01*
X332895Y104095D01*
X332748Y104838D01*
X332619Y105585D01*
X332508Y106335D01*
X332415Y107087D01*
X332341Y107841D01*
X332286Y108597D01*
X332249Y109354D01*
X332230Y110111D01*
X332230Y110869D01*
X332249Y111626D01*
X332286Y112383D01*
X332341Y113139D01*
X332415Y113893D01*
X332508Y114645D01*
X332619Y115395D01*
X332748Y116142D01*
X332895Y116885D01*
X333060Y117625D01*
X333244Y118360D01*
X333445Y119090D01*
X333664Y119816D01*
X333901Y120536D01*
X334156Y121249D01*
X334427Y121957D01*
X334716Y122657D01*
X335022Y123350D01*
X335345Y124036D01*
X335685Y124714D01*
X336041Y125382D01*
X336413Y126043D01*
X336801Y126693D01*
X337205Y127334D01*
X337625Y127965D01*
X338060Y128586D01*
X338510Y129196D01*
X338974Y129794D01*
X339454Y130381D01*
X339947Y130956D01*
X340454Y131519D01*
X340975Y132070D01*
X341510Y132607D01*
X342057Y133131D01*
X342617Y133642D01*
X343189Y134139D01*
X343773Y134621D01*
X344369Y135090D01*
X344976Y135543D01*
X345594Y135982D01*
X346222Y136405D01*
X346861Y136813D01*
X347509Y137205D01*
X348167Y137581D01*
X348834Y137941D01*
X349510Y138284D01*
X350193Y138611D01*
X350885Y138921D01*
X351584Y139214D01*
X352289Y139490D01*
X353002Y139749D01*
X353720Y139990D01*
X372720Y139990D02*
X373438Y139749D01*
X374151Y139490D01*
X374856Y139214D01*
X375555Y138921D01*
X376247Y138611D01*
X376930Y138284D01*
X377606Y137941D01*
X378273Y137581D01*
X378931Y137205D01*
X379579Y136813D01*
X380218Y136405D01*
X380846Y135982D01*
X381464Y135543D01*
X382071Y135090D01*
X382667Y134621D01*
X383251Y134139D01*
X383823Y133642D01*
X384383Y133131D01*
X384930Y132607D01*
X385465Y132070D01*
X385986Y131519D01*
X386493Y130956D01*
X386986Y130381D01*
X387466Y129794D01*
X387930Y129196D01*
X388380Y128586D01*
X388815Y127965D01*
X389235Y127334D01*
X389639Y126693D01*
X390027Y126043D01*
X390399Y125382D01*
X390755Y124714D01*
X391095Y124036D01*
X391418Y123350D01*
X391724Y122657D01*
X392013Y121957D01*
X392284Y121249D01*
X392539Y120536D01*
X392776Y119816D01*
X392995Y119090D01*
X393196Y118360D01*
X393380Y117625D01*
X393545Y116885D01*
X393692Y116142D01*
X393821Y115395D01*
X393932Y114645D01*
X394025Y113893D01*
X394099Y113139D01*
X394154Y112383D01*
X394191Y111626D01*
X394210Y110869D01*
X394210Y110111D01*
X394191Y109354D01*
X394154Y108597D01*
X394099Y107841D01*
X394025Y107087D01*
X393932Y106335D01*
X393821Y105585D01*
X393692Y104838D01*
X393545Y104095D01*
X393380Y103355D01*
X393196Y102620D01*
X392995Y101890D01*
X392776Y101164D01*
X392539Y100444D01*
X392284Y99731D01*
X392013Y99023D01*
X391724Y98323D01*
X391418Y97630D01*
X391095Y96944D01*
X390755Y96266D01*
X390399Y95598D01*
X390027Y94937D01*
X389639Y94287D01*
X389235Y93646D01*
X388815Y93015D01*
X388380Y92394D01*
X387930Y91784D01*
X387466Y91186D01*
X386986Y90599D01*
X386493Y90024D01*
X385986Y89461D01*
X385465Y88910D01*
X384930Y88373D01*
X384383Y87849D01*
X383823Y87338D01*
X383251Y86841D01*
X382667Y86359D01*
X382071Y85890D01*
X381464Y85437D01*
X380846Y84998D01*
X380218Y84575D01*
X379579Y84167D01*
X378931Y83775D01*
X378273Y83399D01*
X377606Y83039D01*
X376930Y82696D01*
X376247Y82369D01*
X375555Y82059D01*
X374856Y81766D01*
X374151Y81490D01*
X373438Y81231D01*
X372720Y80990D01*
D14*
X391955Y135636D02*
X393761Y135636D01*
X391955Y135636D02*
X391872Y135638D01*
X391788Y135644D01*
X391705Y135653D01*
X391623Y135667D01*
X391542Y135684D01*
X391461Y135705D01*
X391381Y135730D01*
X391303Y135758D01*
X391226Y135790D01*
X391150Y135825D01*
X391076Y135864D01*
X391004Y135907D01*
X390934Y135952D01*
X390867Y136001D01*
X390801Y136053D01*
X390738Y136107D01*
X390678Y136165D01*
X390620Y136225D01*
X390566Y136288D01*
X390514Y136354D01*
X390465Y136421D01*
X390420Y136491D01*
X390377Y136563D01*
X390338Y136637D01*
X390303Y136713D01*
X390271Y136790D01*
X390243Y136868D01*
X390218Y136948D01*
X390197Y137029D01*
X390180Y137110D01*
X390166Y137192D01*
X390157Y137275D01*
X390151Y137359D01*
X390149Y137442D01*
X390149Y141958D01*
X390151Y142041D01*
X390157Y142125D01*
X390166Y142208D01*
X390180Y142290D01*
X390197Y142371D01*
X390218Y142452D01*
X390243Y142532D01*
X390271Y142610D01*
X390303Y142687D01*
X390338Y142763D01*
X390377Y142837D01*
X390420Y142909D01*
X390465Y142979D01*
X390514Y143046D01*
X390566Y143112D01*
X390620Y143175D01*
X390678Y143235D01*
X390738Y143293D01*
X390801Y143347D01*
X390867Y143399D01*
X390934Y143448D01*
X391004Y143493D01*
X391076Y143536D01*
X391150Y143575D01*
X391225Y143610D01*
X391303Y143642D01*
X391381Y143670D01*
X391461Y143695D01*
X391541Y143716D01*
X391623Y143733D01*
X391705Y143747D01*
X391788Y143756D01*
X391872Y143762D01*
X391955Y143764D01*
X393761Y143764D01*
X397815Y143764D02*
X397815Y142861D01*
X397815Y143764D02*
X402331Y143764D01*
X400073Y135636D01*
D13*
X190500Y191770D02*
X185420Y191770D01*
X139700Y191770D01*
X139700Y219710D02*
X190500Y219710D01*
X190500Y214630D01*
X190500Y198120D02*
X185420Y191770D01*
X190500Y191770D02*
X190500Y198120D01*
X139700Y196850D02*
X139700Y191770D01*
X139700Y214630D02*
X139700Y219710D01*
D10*
X110775Y210439D02*
X110775Y201041D01*
X110775Y210439D02*
X113386Y210439D01*
X113486Y210437D01*
X113586Y210431D01*
X113685Y210422D01*
X113785Y210408D01*
X113883Y210391D01*
X113981Y210370D01*
X114078Y210346D01*
X114174Y210317D01*
X114269Y210285D01*
X114362Y210250D01*
X114454Y210211D01*
X114545Y210168D01*
X114633Y210122D01*
X114720Y210072D01*
X114805Y210020D01*
X114888Y209964D01*
X114969Y209905D01*
X115047Y209842D01*
X115123Y209777D01*
X115197Y209709D01*
X115267Y209639D01*
X115335Y209565D01*
X115400Y209489D01*
X115463Y209411D01*
X115522Y209330D01*
X115578Y209247D01*
X115630Y209162D01*
X115680Y209075D01*
X115726Y208987D01*
X115769Y208896D01*
X115808Y208804D01*
X115843Y208711D01*
X115875Y208616D01*
X115904Y208520D01*
X115928Y208423D01*
X115949Y208325D01*
X115966Y208227D01*
X115980Y208127D01*
X115989Y208028D01*
X115995Y207928D01*
X115997Y207828D01*
X115996Y207828D02*
X115996Y203652D01*
X115997Y203652D02*
X115995Y203552D01*
X115989Y203452D01*
X115980Y203353D01*
X115966Y203253D01*
X115949Y203155D01*
X115928Y203057D01*
X115904Y202960D01*
X115875Y202864D01*
X115843Y202769D01*
X115808Y202676D01*
X115769Y202584D01*
X115726Y202493D01*
X115680Y202405D01*
X115630Y202318D01*
X115578Y202233D01*
X115522Y202150D01*
X115463Y202069D01*
X115400Y201991D01*
X115335Y201915D01*
X115267Y201841D01*
X115197Y201771D01*
X115123Y201703D01*
X115047Y201638D01*
X114969Y201575D01*
X114888Y201516D01*
X114805Y201460D01*
X114720Y201408D01*
X114633Y201358D01*
X114545Y201312D01*
X114454Y201269D01*
X114362Y201230D01*
X114269Y201195D01*
X114174Y201163D01*
X114078Y201134D01*
X113981Y201110D01*
X113883Y201089D01*
X113785Y201072D01*
X113685Y201058D01*
X113586Y201049D01*
X113486Y201043D01*
X113386Y201041D01*
X110775Y201041D01*
X120224Y206262D02*
X123357Y206262D01*
X123446Y206260D01*
X123534Y206254D01*
X123622Y206245D01*
X123710Y206232D01*
X123797Y206215D01*
X123883Y206195D01*
X123968Y206170D01*
X124053Y206143D01*
X124136Y206111D01*
X124217Y206077D01*
X124297Y206038D01*
X124375Y205997D01*
X124452Y205952D01*
X124526Y205904D01*
X124599Y205853D01*
X124669Y205799D01*
X124736Y205741D01*
X124802Y205681D01*
X124864Y205619D01*
X124924Y205553D01*
X124982Y205486D01*
X125036Y205416D01*
X125087Y205343D01*
X125135Y205269D01*
X125180Y205192D01*
X125221Y205114D01*
X125260Y205034D01*
X125294Y204953D01*
X125326Y204870D01*
X125353Y204785D01*
X125378Y204700D01*
X125398Y204614D01*
X125415Y204527D01*
X125428Y204439D01*
X125437Y204351D01*
X125443Y204263D01*
X125445Y204174D01*
X125445Y203652D01*
X125443Y203551D01*
X125437Y203450D01*
X125427Y203349D01*
X125414Y203249D01*
X125396Y203149D01*
X125375Y203050D01*
X125349Y202952D01*
X125320Y202855D01*
X125288Y202759D01*
X125251Y202665D01*
X125211Y202572D01*
X125167Y202480D01*
X125120Y202391D01*
X125069Y202303D01*
X125015Y202217D01*
X124958Y202134D01*
X124898Y202052D01*
X124834Y201974D01*
X124768Y201897D01*
X124698Y201824D01*
X124626Y201753D01*
X124551Y201685D01*
X124473Y201620D01*
X124393Y201558D01*
X124311Y201499D01*
X124226Y201443D01*
X124139Y201391D01*
X124051Y201342D01*
X123960Y201296D01*
X123868Y201255D01*
X123774Y201216D01*
X123679Y201182D01*
X123583Y201151D01*
X123485Y201124D01*
X123387Y201100D01*
X123287Y201081D01*
X123187Y201065D01*
X123087Y201053D01*
X122986Y201045D01*
X122885Y201041D01*
X122783Y201041D01*
X122682Y201045D01*
X122581Y201053D01*
X122481Y201065D01*
X122381Y201081D01*
X122281Y201100D01*
X122183Y201124D01*
X122085Y201151D01*
X121989Y201182D01*
X121894Y201216D01*
X121800Y201255D01*
X121708Y201296D01*
X121617Y201342D01*
X121529Y201391D01*
X121442Y201443D01*
X121357Y201499D01*
X121275Y201558D01*
X121195Y201620D01*
X121117Y201685D01*
X121042Y201753D01*
X120970Y201824D01*
X120900Y201897D01*
X120834Y201974D01*
X120770Y202052D01*
X120710Y202134D01*
X120653Y202217D01*
X120599Y202303D01*
X120548Y202391D01*
X120501Y202480D01*
X120457Y202572D01*
X120417Y202665D01*
X120380Y202759D01*
X120348Y202855D01*
X120319Y202952D01*
X120293Y203050D01*
X120272Y203149D01*
X120254Y203249D01*
X120241Y203349D01*
X120231Y203450D01*
X120225Y203551D01*
X120223Y203652D01*
X120224Y203652D02*
X120224Y206262D01*
X120226Y206391D01*
X120232Y206519D01*
X120242Y206647D01*
X120256Y206775D01*
X120273Y206903D01*
X120295Y207030D01*
X120321Y207156D01*
X120350Y207281D01*
X120383Y207405D01*
X120421Y207528D01*
X120461Y207650D01*
X120506Y207771D01*
X120554Y207890D01*
X120606Y208008D01*
X120662Y208124D01*
X120721Y208238D01*
X120784Y208350D01*
X120850Y208461D01*
X120919Y208569D01*
X120992Y208675D01*
X121068Y208779D01*
X121147Y208881D01*
X121229Y208980D01*
X121314Y209076D01*
X121402Y209170D01*
X121493Y209261D01*
X121587Y209349D01*
X121683Y209434D01*
X121782Y209516D01*
X121884Y209595D01*
X121988Y209671D01*
X122094Y209744D01*
X122202Y209813D01*
X122312Y209879D01*
X122425Y209942D01*
X122539Y210001D01*
X122655Y210057D01*
X122773Y210109D01*
X122892Y210157D01*
X123013Y210202D01*
X123135Y210242D01*
X123258Y210280D01*
X123382Y210313D01*
X123507Y210342D01*
X123633Y210368D01*
X123760Y210390D01*
X123888Y210407D01*
X124016Y210421D01*
X124144Y210431D01*
X124272Y210437D01*
X124401Y210439D01*
D11*
X85840Y142990D02*
X62840Y142990D01*
X85840Y142990D02*
X85840Y94990D01*
X68840Y77990D01*
X62840Y77990D01*
X43840Y77990D02*
X37840Y77990D01*
X20840Y94990D01*
X20840Y142990D01*
X43840Y142990D01*
X62840Y139990D02*
X63558Y139749D01*
X64271Y139490D01*
X64976Y139214D01*
X65675Y138921D01*
X66367Y138611D01*
X67050Y138284D01*
X67726Y137941D01*
X68393Y137581D01*
X69051Y137205D01*
X69699Y136813D01*
X70338Y136405D01*
X70966Y135982D01*
X71584Y135543D01*
X72191Y135090D01*
X72787Y134621D01*
X73371Y134139D01*
X73943Y133642D01*
X74503Y133131D01*
X75050Y132607D01*
X75585Y132070D01*
X76106Y131519D01*
X76613Y130956D01*
X77106Y130381D01*
X77586Y129794D01*
X78050Y129196D01*
X78500Y128586D01*
X78935Y127965D01*
X79355Y127334D01*
X79759Y126693D01*
X80147Y126043D01*
X80519Y125382D01*
X80875Y124714D01*
X81215Y124036D01*
X81538Y123350D01*
X81844Y122657D01*
X82133Y121957D01*
X82404Y121249D01*
X82659Y120536D01*
X82896Y119816D01*
X83115Y119090D01*
X83316Y118360D01*
X83500Y117625D01*
X83665Y116885D01*
X83812Y116142D01*
X83941Y115395D01*
X84052Y114645D01*
X84145Y113893D01*
X84219Y113139D01*
X84274Y112383D01*
X84311Y111626D01*
X84330Y110869D01*
X84330Y110111D01*
X84311Y109354D01*
X84274Y108597D01*
X84219Y107841D01*
X84145Y107087D01*
X84052Y106335D01*
X83941Y105585D01*
X83812Y104838D01*
X83665Y104095D01*
X83500Y103355D01*
X83316Y102620D01*
X83115Y101890D01*
X82896Y101164D01*
X82659Y100444D01*
X82404Y99731D01*
X82133Y99023D01*
X81844Y98323D01*
X81538Y97630D01*
X81215Y96944D01*
X80875Y96266D01*
X80519Y95598D01*
X80147Y94937D01*
X79759Y94287D01*
X79355Y93646D01*
X78935Y93015D01*
X78500Y92394D01*
X78050Y91784D01*
X77586Y91186D01*
X77106Y90599D01*
X76613Y90024D01*
X76106Y89461D01*
X75585Y88910D01*
X75050Y88373D01*
X74503Y87849D01*
X73943Y87338D01*
X73371Y86841D01*
X72787Y86359D01*
X72191Y85890D01*
X71584Y85437D01*
X70966Y84998D01*
X70338Y84575D01*
X69699Y84167D01*
X69051Y83775D01*
X68393Y83399D01*
X67726Y83039D01*
X67050Y82696D01*
X66367Y82369D01*
X65675Y82059D01*
X64976Y81766D01*
X64271Y81490D01*
X63558Y81231D01*
X62840Y80990D01*
X43840Y80990D02*
X43122Y81231D01*
X42409Y81490D01*
X41704Y81766D01*
X41005Y82059D01*
X40313Y82369D01*
X39630Y82696D01*
X38954Y83039D01*
X38287Y83399D01*
X37629Y83775D01*
X36981Y84167D01*
X36342Y84575D01*
X35714Y84998D01*
X35096Y85437D01*
X34489Y85890D01*
X33893Y86359D01*
X33309Y86841D01*
X32737Y87338D01*
X32177Y87849D01*
X31630Y88373D01*
X31095Y88910D01*
X30574Y89461D01*
X30067Y90024D01*
X29574Y90599D01*
X29094Y91186D01*
X28630Y91784D01*
X28180Y92394D01*
X27745Y93015D01*
X27325Y93646D01*
X26921Y94287D01*
X26533Y94937D01*
X26161Y95598D01*
X25805Y96266D01*
X25465Y96944D01*
X25142Y97630D01*
X24836Y98323D01*
X24547Y99023D01*
X24276Y99731D01*
X24021Y100444D01*
X23784Y101164D01*
X23565Y101890D01*
X23364Y102620D01*
X23180Y103355D01*
X23015Y104095D01*
X22868Y104838D01*
X22739Y105585D01*
X22628Y106335D01*
X22535Y107087D01*
X22461Y107841D01*
X22406Y108597D01*
X22369Y109354D01*
X22350Y110111D01*
X22350Y110869D01*
X22369Y111626D01*
X22406Y112383D01*
X22461Y113139D01*
X22535Y113893D01*
X22628Y114645D01*
X22739Y115395D01*
X22868Y116142D01*
X23015Y116885D01*
X23180Y117625D01*
X23364Y118360D01*
X23565Y119090D01*
X23784Y119816D01*
X24021Y120536D01*
X24276Y121249D01*
X24547Y121957D01*
X24836Y122657D01*
X25142Y123350D01*
X25465Y124036D01*
X25805Y124714D01*
X26161Y125382D01*
X26533Y126043D01*
X26921Y126693D01*
X27325Y127334D01*
X27745Y127965D01*
X28180Y128586D01*
X28630Y129196D01*
X29094Y129794D01*
X29574Y130381D01*
X30067Y130956D01*
X30574Y131519D01*
X31095Y132070D01*
X31630Y132607D01*
X32177Y133131D01*
X32737Y133642D01*
X33309Y134139D01*
X33893Y134621D01*
X34489Y135090D01*
X35096Y135543D01*
X35714Y135982D01*
X36342Y136405D01*
X36981Y136813D01*
X37629Y137205D01*
X38287Y137581D01*
X38954Y137941D01*
X39630Y138284D01*
X40313Y138611D01*
X41005Y138921D01*
X41704Y139214D01*
X42409Y139490D01*
X43122Y139749D01*
X43840Y139990D01*
D14*
X79535Y75946D02*
X81341Y75946D01*
X79535Y75946D02*
X79452Y75948D01*
X79368Y75954D01*
X79285Y75963D01*
X79203Y75977D01*
X79122Y75994D01*
X79041Y76015D01*
X78961Y76040D01*
X78883Y76068D01*
X78806Y76100D01*
X78730Y76135D01*
X78656Y76174D01*
X78584Y76217D01*
X78514Y76262D01*
X78447Y76311D01*
X78381Y76363D01*
X78318Y76417D01*
X78258Y76475D01*
X78200Y76535D01*
X78146Y76598D01*
X78094Y76664D01*
X78045Y76731D01*
X78000Y76801D01*
X77957Y76873D01*
X77918Y76947D01*
X77883Y77023D01*
X77851Y77100D01*
X77823Y77178D01*
X77798Y77258D01*
X77777Y77339D01*
X77760Y77420D01*
X77746Y77502D01*
X77737Y77585D01*
X77731Y77669D01*
X77729Y77752D01*
X77729Y82268D01*
X77731Y82351D01*
X77737Y82435D01*
X77746Y82518D01*
X77760Y82600D01*
X77777Y82681D01*
X77798Y82762D01*
X77823Y82842D01*
X77851Y82920D01*
X77883Y82997D01*
X77918Y83073D01*
X77957Y83147D01*
X78000Y83219D01*
X78045Y83289D01*
X78094Y83356D01*
X78146Y83422D01*
X78200Y83485D01*
X78258Y83545D01*
X78318Y83603D01*
X78381Y83657D01*
X78447Y83709D01*
X78514Y83758D01*
X78584Y83803D01*
X78656Y83846D01*
X78730Y83885D01*
X78805Y83920D01*
X78883Y83952D01*
X78961Y83980D01*
X79041Y84005D01*
X79121Y84026D01*
X79203Y84043D01*
X79285Y84057D01*
X79368Y84066D01*
X79452Y84072D01*
X79535Y84074D01*
X81341Y84074D01*
X85395Y78204D02*
X85397Y78297D01*
X85403Y78390D01*
X85412Y78483D01*
X85426Y78576D01*
X85443Y78667D01*
X85464Y78758D01*
X85489Y78848D01*
X85517Y78937D01*
X85549Y79025D01*
X85585Y79111D01*
X85624Y79196D01*
X85667Y79279D01*
X85713Y79360D01*
X85763Y79439D01*
X85815Y79516D01*
X85871Y79591D01*
X85930Y79663D01*
X85992Y79733D01*
X86056Y79801D01*
X86124Y79865D01*
X86194Y79927D01*
X86266Y79986D01*
X86341Y80042D01*
X86418Y80094D01*
X86497Y80144D01*
X86578Y80190D01*
X86661Y80233D01*
X86746Y80272D01*
X86832Y80308D01*
X86920Y80340D01*
X87009Y80368D01*
X87099Y80393D01*
X87190Y80414D01*
X87281Y80431D01*
X87374Y80445D01*
X87467Y80454D01*
X87560Y80460D01*
X87653Y80462D01*
X87746Y80460D01*
X87839Y80454D01*
X87932Y80445D01*
X88025Y80431D01*
X88116Y80414D01*
X88207Y80393D01*
X88297Y80368D01*
X88386Y80340D01*
X88474Y80308D01*
X88560Y80272D01*
X88645Y80233D01*
X88728Y80190D01*
X88809Y80144D01*
X88888Y80094D01*
X88965Y80042D01*
X89040Y79986D01*
X89112Y79927D01*
X89182Y79865D01*
X89250Y79801D01*
X89314Y79733D01*
X89376Y79663D01*
X89435Y79591D01*
X89491Y79516D01*
X89543Y79439D01*
X89593Y79360D01*
X89639Y79279D01*
X89682Y79196D01*
X89721Y79111D01*
X89757Y79025D01*
X89789Y78937D01*
X89817Y78848D01*
X89842Y78758D01*
X89863Y78667D01*
X89880Y78576D01*
X89894Y78483D01*
X89903Y78390D01*
X89909Y78297D01*
X89911Y78204D01*
X89909Y78111D01*
X89903Y78018D01*
X89894Y77925D01*
X89880Y77832D01*
X89863Y77741D01*
X89842Y77650D01*
X89817Y77560D01*
X89789Y77471D01*
X89757Y77383D01*
X89721Y77297D01*
X89682Y77212D01*
X89639Y77129D01*
X89593Y77048D01*
X89543Y76969D01*
X89491Y76892D01*
X89435Y76817D01*
X89376Y76745D01*
X89314Y76675D01*
X89250Y76607D01*
X89182Y76543D01*
X89112Y76481D01*
X89040Y76422D01*
X88965Y76366D01*
X88888Y76314D01*
X88809Y76264D01*
X88728Y76218D01*
X88645Y76175D01*
X88560Y76136D01*
X88474Y76100D01*
X88386Y76068D01*
X88297Y76040D01*
X88207Y76015D01*
X88116Y75994D01*
X88025Y75977D01*
X87932Y75963D01*
X87839Y75954D01*
X87746Y75948D01*
X87653Y75946D01*
X87560Y75948D01*
X87467Y75954D01*
X87374Y75963D01*
X87281Y75977D01*
X87190Y75994D01*
X87099Y76015D01*
X87009Y76040D01*
X86920Y76068D01*
X86832Y76100D01*
X86746Y76136D01*
X86661Y76175D01*
X86578Y76218D01*
X86497Y76264D01*
X86418Y76314D01*
X86341Y76366D01*
X86266Y76422D01*
X86194Y76481D01*
X86124Y76543D01*
X86056Y76607D01*
X85992Y76675D01*
X85930Y76745D01*
X85871Y76817D01*
X85815Y76892D01*
X85763Y76969D01*
X85713Y77048D01*
X85667Y77129D01*
X85624Y77212D01*
X85585Y77297D01*
X85549Y77383D01*
X85517Y77471D01*
X85489Y77560D01*
X85464Y77650D01*
X85443Y77741D01*
X85426Y77832D01*
X85412Y77925D01*
X85403Y78018D01*
X85397Y78111D01*
X85395Y78204D01*
X85847Y82268D02*
X85849Y82351D01*
X85855Y82435D01*
X85864Y82518D01*
X85878Y82600D01*
X85895Y82681D01*
X85916Y82762D01*
X85941Y82842D01*
X85969Y82920D01*
X86001Y82997D01*
X86036Y83073D01*
X86075Y83147D01*
X86118Y83219D01*
X86163Y83289D01*
X86212Y83356D01*
X86264Y83422D01*
X86318Y83485D01*
X86376Y83545D01*
X86436Y83603D01*
X86499Y83657D01*
X86565Y83709D01*
X86632Y83758D01*
X86702Y83803D01*
X86774Y83846D01*
X86848Y83885D01*
X86924Y83920D01*
X87001Y83952D01*
X87079Y83980D01*
X87159Y84005D01*
X87240Y84026D01*
X87321Y84043D01*
X87403Y84057D01*
X87486Y84066D01*
X87570Y84072D01*
X87653Y84074D01*
X87736Y84072D01*
X87820Y84066D01*
X87903Y84057D01*
X87985Y84043D01*
X88066Y84026D01*
X88147Y84005D01*
X88227Y83980D01*
X88305Y83952D01*
X88382Y83920D01*
X88458Y83885D01*
X88532Y83846D01*
X88604Y83803D01*
X88674Y83758D01*
X88741Y83709D01*
X88807Y83657D01*
X88870Y83603D01*
X88930Y83545D01*
X88988Y83485D01*
X89042Y83422D01*
X89094Y83356D01*
X89143Y83289D01*
X89188Y83219D01*
X89231Y83147D01*
X89270Y83073D01*
X89305Y82997D01*
X89337Y82920D01*
X89365Y82842D01*
X89390Y82762D01*
X89411Y82681D01*
X89428Y82600D01*
X89442Y82518D01*
X89451Y82435D01*
X89457Y82351D01*
X89459Y82268D01*
X89457Y82185D01*
X89451Y82101D01*
X89442Y82018D01*
X89428Y81936D01*
X89411Y81855D01*
X89390Y81774D01*
X89365Y81694D01*
X89337Y81616D01*
X89305Y81539D01*
X89270Y81463D01*
X89231Y81389D01*
X89188Y81317D01*
X89143Y81247D01*
X89094Y81180D01*
X89042Y81114D01*
X88988Y81051D01*
X88930Y80991D01*
X88870Y80933D01*
X88807Y80879D01*
X88741Y80827D01*
X88674Y80778D01*
X88604Y80733D01*
X88532Y80690D01*
X88458Y80651D01*
X88382Y80616D01*
X88305Y80584D01*
X88227Y80556D01*
X88147Y80531D01*
X88066Y80510D01*
X87985Y80493D01*
X87903Y80479D01*
X87820Y80470D01*
X87736Y80464D01*
X87653Y80462D01*
X87570Y80464D01*
X87486Y80470D01*
X87403Y80479D01*
X87321Y80493D01*
X87240Y80510D01*
X87159Y80531D01*
X87079Y80556D01*
X87001Y80584D01*
X86924Y80616D01*
X86848Y80651D01*
X86774Y80690D01*
X86702Y80733D01*
X86632Y80778D01*
X86565Y80827D01*
X86499Y80879D01*
X86436Y80933D01*
X86376Y80991D01*
X86318Y81051D01*
X86264Y81114D01*
X86212Y81180D01*
X86163Y81247D01*
X86118Y81317D01*
X86075Y81389D01*
X86036Y81463D01*
X86001Y81539D01*
X85969Y81616D01*
X85941Y81694D01*
X85916Y81774D01*
X85895Y81855D01*
X85878Y81936D01*
X85864Y82018D01*
X85855Y82101D01*
X85849Y82185D01*
X85847Y82268D01*
D16*
X341645Y175566D03*
X341645Y190298D03*
D10*
X345059Y203581D02*
X335661Y203581D01*
X335661Y206192D01*
X335663Y206293D01*
X335669Y206394D01*
X335679Y206495D01*
X335692Y206595D01*
X335710Y206695D01*
X335731Y206794D01*
X335757Y206892D01*
X335786Y206989D01*
X335818Y207085D01*
X335855Y207179D01*
X335895Y207272D01*
X335939Y207364D01*
X335986Y207453D01*
X336037Y207541D01*
X336091Y207627D01*
X336148Y207710D01*
X336208Y207792D01*
X336272Y207870D01*
X336338Y207947D01*
X336408Y208020D01*
X336480Y208091D01*
X336555Y208159D01*
X336633Y208224D01*
X336713Y208286D01*
X336795Y208345D01*
X336880Y208401D01*
X336967Y208453D01*
X337055Y208502D01*
X337146Y208548D01*
X337238Y208589D01*
X337332Y208628D01*
X337427Y208662D01*
X337523Y208693D01*
X337621Y208720D01*
X337719Y208744D01*
X337819Y208763D01*
X337919Y208779D01*
X338019Y208791D01*
X338120Y208799D01*
X338221Y208803D01*
X338323Y208803D01*
X338424Y208799D01*
X338525Y208791D01*
X338625Y208779D01*
X338725Y208763D01*
X338825Y208744D01*
X338923Y208720D01*
X339021Y208693D01*
X339117Y208662D01*
X339212Y208628D01*
X339306Y208589D01*
X339398Y208548D01*
X339489Y208502D01*
X339578Y208453D01*
X339664Y208401D01*
X339749Y208345D01*
X339831Y208286D01*
X339911Y208224D01*
X339989Y208159D01*
X340064Y208091D01*
X340136Y208020D01*
X340206Y207947D01*
X340272Y207870D01*
X340336Y207792D01*
X340396Y207710D01*
X340453Y207627D01*
X340507Y207541D01*
X340558Y207453D01*
X340605Y207364D01*
X340649Y207272D01*
X340689Y207179D01*
X340726Y207085D01*
X340758Y206989D01*
X340787Y206892D01*
X340813Y206794D01*
X340834Y206695D01*
X340852Y206595D01*
X340865Y206495D01*
X340875Y206394D01*
X340881Y206293D01*
X340883Y206192D01*
X340882Y206192D02*
X340882Y203581D01*
X340882Y206714D02*
X345059Y208802D01*
X337749Y212668D02*
X335661Y215278D01*
X345059Y215278D01*
X345059Y212668D02*
X345059Y217889D01*
X338011Y227033D02*
X337916Y227031D01*
X337822Y227025D01*
X337728Y227016D01*
X337634Y227003D01*
X337541Y226986D01*
X337449Y226965D01*
X337357Y226940D01*
X337267Y226912D01*
X337178Y226880D01*
X337090Y226845D01*
X337004Y226806D01*
X336919Y226764D01*
X336836Y226718D01*
X336755Y226669D01*
X336676Y226617D01*
X336599Y226562D01*
X336525Y226503D01*
X336453Y226442D01*
X336383Y226378D01*
X336316Y226311D01*
X336252Y226241D01*
X336191Y226169D01*
X336132Y226095D01*
X336077Y226018D01*
X336025Y225939D01*
X335976Y225858D01*
X335930Y225775D01*
X335888Y225690D01*
X335849Y225604D01*
X335814Y225516D01*
X335782Y225427D01*
X335754Y225337D01*
X335729Y225245D01*
X335708Y225153D01*
X335691Y225060D01*
X335678Y224966D01*
X335669Y224872D01*
X335663Y224778D01*
X335661Y224683D01*
X335663Y224575D01*
X335669Y224466D01*
X335679Y224358D01*
X335692Y224251D01*
X335710Y224144D01*
X335731Y224037D01*
X335756Y223932D01*
X335785Y223827D01*
X335817Y223724D01*
X335854Y223622D01*
X335894Y223521D01*
X335937Y223422D01*
X335984Y223324D01*
X336035Y223228D01*
X336089Y223134D01*
X336146Y223042D01*
X336207Y222952D01*
X336271Y222864D01*
X336337Y222779D01*
X336407Y222696D01*
X336480Y222616D01*
X336556Y222538D01*
X336634Y222463D01*
X336715Y222391D01*
X336799Y222322D01*
X336885Y222256D01*
X336973Y222193D01*
X337064Y222134D01*
X337156Y222077D01*
X337251Y222024D01*
X337348Y221975D01*
X337446Y221929D01*
X337545Y221886D01*
X337647Y221847D01*
X337749Y221812D01*
X339839Y226250D02*
X339770Y226319D01*
X339699Y226385D01*
X339626Y226449D01*
X339550Y226510D01*
X339471Y226568D01*
X339391Y226622D01*
X339308Y226674D01*
X339224Y226722D01*
X339138Y226768D01*
X339050Y226809D01*
X338960Y226848D01*
X338869Y226883D01*
X338777Y226914D01*
X338684Y226942D01*
X338590Y226966D01*
X338495Y226986D01*
X338399Y227003D01*
X338302Y227016D01*
X338205Y227025D01*
X338108Y227031D01*
X338011Y227033D01*
X339838Y226250D02*
X345059Y221812D01*
X345059Y227033D01*
D16*
X377175Y190194D03*
X377175Y175462D03*
D10*
X380619Y202311D02*
X371221Y202311D01*
X371221Y204922D01*
X371223Y205023D01*
X371229Y205124D01*
X371239Y205225D01*
X371252Y205325D01*
X371270Y205425D01*
X371291Y205524D01*
X371317Y205622D01*
X371346Y205719D01*
X371378Y205815D01*
X371415Y205909D01*
X371455Y206002D01*
X371499Y206094D01*
X371546Y206183D01*
X371597Y206271D01*
X371651Y206357D01*
X371708Y206440D01*
X371768Y206522D01*
X371832Y206600D01*
X371898Y206677D01*
X371968Y206750D01*
X372040Y206821D01*
X372115Y206889D01*
X372193Y206954D01*
X372273Y207016D01*
X372355Y207075D01*
X372440Y207131D01*
X372527Y207183D01*
X372615Y207232D01*
X372706Y207278D01*
X372798Y207319D01*
X372892Y207358D01*
X372987Y207392D01*
X373083Y207423D01*
X373181Y207450D01*
X373279Y207474D01*
X373379Y207493D01*
X373479Y207509D01*
X373579Y207521D01*
X373680Y207529D01*
X373781Y207533D01*
X373883Y207533D01*
X373984Y207529D01*
X374085Y207521D01*
X374185Y207509D01*
X374285Y207493D01*
X374385Y207474D01*
X374483Y207450D01*
X374581Y207423D01*
X374677Y207392D01*
X374772Y207358D01*
X374866Y207319D01*
X374958Y207278D01*
X375049Y207232D01*
X375138Y207183D01*
X375224Y207131D01*
X375309Y207075D01*
X375391Y207016D01*
X375471Y206954D01*
X375549Y206889D01*
X375624Y206821D01*
X375696Y206750D01*
X375766Y206677D01*
X375832Y206600D01*
X375896Y206522D01*
X375956Y206440D01*
X376013Y206357D01*
X376067Y206271D01*
X376118Y206183D01*
X376165Y206094D01*
X376209Y206002D01*
X376249Y205909D01*
X376286Y205815D01*
X376318Y205719D01*
X376347Y205622D01*
X376373Y205524D01*
X376394Y205425D01*
X376412Y205325D01*
X376425Y205225D01*
X376435Y205124D01*
X376441Y205023D01*
X376443Y204922D01*
X376442Y204922D02*
X376442Y202311D01*
X376442Y205444D02*
X380619Y207532D01*
X373309Y211398D02*
X371221Y214008D01*
X380619Y214008D01*
X380619Y211398D02*
X380619Y216619D01*
X380619Y220542D02*
X380619Y223152D01*
X380617Y223253D01*
X380611Y223354D01*
X380601Y223455D01*
X380588Y223555D01*
X380570Y223655D01*
X380549Y223754D01*
X380523Y223852D01*
X380494Y223949D01*
X380462Y224045D01*
X380425Y224139D01*
X380385Y224232D01*
X380341Y224324D01*
X380294Y224413D01*
X380243Y224501D01*
X380189Y224587D01*
X380132Y224670D01*
X380072Y224752D01*
X380008Y224830D01*
X379942Y224907D01*
X379872Y224980D01*
X379800Y225051D01*
X379725Y225119D01*
X379647Y225184D01*
X379567Y225246D01*
X379485Y225305D01*
X379400Y225361D01*
X379314Y225413D01*
X379225Y225462D01*
X379134Y225508D01*
X379042Y225549D01*
X378948Y225588D01*
X378853Y225622D01*
X378757Y225653D01*
X378659Y225680D01*
X378561Y225704D01*
X378461Y225723D01*
X378361Y225739D01*
X378261Y225751D01*
X378160Y225759D01*
X378059Y225763D01*
X377957Y225763D01*
X377856Y225759D01*
X377755Y225751D01*
X377655Y225739D01*
X377555Y225723D01*
X377455Y225704D01*
X377357Y225680D01*
X377259Y225653D01*
X377163Y225622D01*
X377068Y225588D01*
X376974Y225549D01*
X376882Y225508D01*
X376791Y225462D01*
X376703Y225413D01*
X376616Y225361D01*
X376531Y225305D01*
X376449Y225246D01*
X376369Y225184D01*
X376291Y225119D01*
X376216Y225051D01*
X376144Y224980D01*
X376074Y224907D01*
X376008Y224830D01*
X375944Y224752D01*
X375884Y224670D01*
X375827Y224587D01*
X375773Y224501D01*
X375722Y224413D01*
X375675Y224324D01*
X375631Y224232D01*
X375591Y224139D01*
X375554Y224045D01*
X375522Y223949D01*
X375493Y223852D01*
X375467Y223754D01*
X375446Y223655D01*
X375428Y223555D01*
X375415Y223455D01*
X375405Y223354D01*
X375399Y223253D01*
X375397Y223152D01*
X371221Y223675D02*
X371221Y220542D01*
X371221Y223675D02*
X371223Y223765D01*
X371229Y223854D01*
X371238Y223944D01*
X371252Y224033D01*
X371269Y224121D01*
X371290Y224208D01*
X371315Y224295D01*
X371344Y224380D01*
X371376Y224464D01*
X371411Y224546D01*
X371451Y224627D01*
X371493Y224706D01*
X371539Y224783D01*
X371589Y224858D01*
X371641Y224931D01*
X371697Y225002D01*
X371755Y225070D01*
X371817Y225135D01*
X371881Y225198D01*
X371948Y225258D01*
X372017Y225315D01*
X372089Y225369D01*
X372163Y225420D01*
X372239Y225468D01*
X372317Y225512D01*
X372397Y225553D01*
X372479Y225591D01*
X372562Y225625D01*
X372647Y225655D01*
X372733Y225682D01*
X372819Y225705D01*
X372907Y225724D01*
X372996Y225739D01*
X373085Y225751D01*
X373174Y225759D01*
X373264Y225763D01*
X373354Y225763D01*
X373444Y225759D01*
X373533Y225751D01*
X373622Y225739D01*
X373711Y225724D01*
X373799Y225705D01*
X373885Y225682D01*
X373971Y225655D01*
X374056Y225625D01*
X374139Y225591D01*
X374221Y225553D01*
X374301Y225512D01*
X374379Y225468D01*
X374455Y225420D01*
X374529Y225369D01*
X374601Y225315D01*
X374670Y225258D01*
X374737Y225198D01*
X374801Y225135D01*
X374863Y225070D01*
X374921Y225002D01*
X374977Y224931D01*
X375029Y224858D01*
X375079Y224783D01*
X375125Y224706D01*
X375167Y224627D01*
X375207Y224546D01*
X375242Y224464D01*
X375274Y224380D01*
X375303Y224295D01*
X375328Y224208D01*
X375349Y224121D01*
X375366Y224033D01*
X375380Y223944D01*
X375389Y223854D01*
X375395Y223765D01*
X375397Y223675D01*
X375398Y223675D02*
X375398Y221586D01*
D14*
X363474Y205801D02*
X363474Y203995D01*
X363472Y203912D01*
X363466Y203828D01*
X363457Y203745D01*
X363443Y203663D01*
X363426Y203582D01*
X363405Y203501D01*
X363380Y203421D01*
X363352Y203343D01*
X363320Y203266D01*
X363285Y203190D01*
X363246Y203116D01*
X363203Y203044D01*
X363158Y202974D01*
X363109Y202907D01*
X363057Y202841D01*
X363003Y202778D01*
X362945Y202718D01*
X362885Y202660D01*
X362822Y202606D01*
X362756Y202554D01*
X362689Y202505D01*
X362619Y202460D01*
X362547Y202417D01*
X362473Y202378D01*
X362398Y202343D01*
X362320Y202311D01*
X362242Y202283D01*
X362162Y202258D01*
X362082Y202237D01*
X362000Y202220D01*
X361918Y202206D01*
X361835Y202197D01*
X361751Y202191D01*
X361668Y202189D01*
X357152Y202189D01*
X357069Y202191D01*
X356985Y202197D01*
X356902Y202206D01*
X356820Y202220D01*
X356739Y202237D01*
X356658Y202258D01*
X356578Y202283D01*
X356500Y202311D01*
X356423Y202343D01*
X356347Y202378D01*
X356273Y202417D01*
X356201Y202460D01*
X356131Y202505D01*
X356064Y202554D01*
X355998Y202606D01*
X355935Y202660D01*
X355875Y202718D01*
X355817Y202778D01*
X355763Y202841D01*
X355711Y202907D01*
X355662Y202974D01*
X355617Y203044D01*
X355574Y203116D01*
X355535Y203190D01*
X355500Y203265D01*
X355468Y203343D01*
X355440Y203421D01*
X355415Y203501D01*
X355394Y203581D01*
X355377Y203663D01*
X355363Y203745D01*
X355354Y203828D01*
X355348Y203912D01*
X355346Y203995D01*
X355346Y205801D01*
X359862Y211662D02*
X359862Y214371D01*
X359861Y211662D02*
X359859Y211579D01*
X359853Y211495D01*
X359844Y211412D01*
X359830Y211330D01*
X359813Y211249D01*
X359792Y211168D01*
X359767Y211088D01*
X359739Y211010D01*
X359707Y210933D01*
X359672Y210857D01*
X359633Y210783D01*
X359590Y210711D01*
X359545Y210641D01*
X359496Y210574D01*
X359444Y210508D01*
X359390Y210445D01*
X359332Y210385D01*
X359272Y210327D01*
X359209Y210273D01*
X359143Y210221D01*
X359076Y210172D01*
X359006Y210127D01*
X358934Y210084D01*
X358860Y210045D01*
X358785Y210010D01*
X358707Y209978D01*
X358629Y209950D01*
X358549Y209925D01*
X358469Y209904D01*
X358387Y209887D01*
X358305Y209873D01*
X358222Y209864D01*
X358138Y209858D01*
X358055Y209856D01*
X358055Y209855D02*
X357604Y209855D01*
X357511Y209857D01*
X357418Y209863D01*
X357325Y209872D01*
X357232Y209886D01*
X357141Y209903D01*
X357050Y209924D01*
X356960Y209949D01*
X356871Y209977D01*
X356783Y210009D01*
X356697Y210045D01*
X356612Y210084D01*
X356529Y210127D01*
X356448Y210173D01*
X356369Y210223D01*
X356292Y210275D01*
X356217Y210331D01*
X356145Y210390D01*
X356075Y210452D01*
X356007Y210516D01*
X355943Y210584D01*
X355881Y210654D01*
X355822Y210726D01*
X355766Y210801D01*
X355714Y210878D01*
X355664Y210957D01*
X355618Y211038D01*
X355575Y211121D01*
X355536Y211206D01*
X355500Y211292D01*
X355468Y211380D01*
X355440Y211469D01*
X355415Y211559D01*
X355394Y211650D01*
X355377Y211741D01*
X355363Y211834D01*
X355354Y211927D01*
X355348Y212020D01*
X355346Y212113D01*
X355348Y212206D01*
X355354Y212299D01*
X355363Y212392D01*
X355377Y212485D01*
X355394Y212576D01*
X355415Y212667D01*
X355440Y212757D01*
X355468Y212846D01*
X355500Y212934D01*
X355536Y213020D01*
X355575Y213105D01*
X355618Y213188D01*
X355664Y213269D01*
X355714Y213348D01*
X355766Y213425D01*
X355822Y213500D01*
X355881Y213572D01*
X355943Y213642D01*
X356007Y213710D01*
X356075Y213774D01*
X356145Y213836D01*
X356217Y213895D01*
X356292Y213951D01*
X356369Y214003D01*
X356448Y214053D01*
X356529Y214099D01*
X356612Y214142D01*
X356697Y214181D01*
X356783Y214217D01*
X356871Y214249D01*
X356960Y214277D01*
X357050Y214302D01*
X357141Y214323D01*
X357232Y214340D01*
X357325Y214354D01*
X357418Y214363D01*
X357511Y214369D01*
X357604Y214371D01*
X359862Y214371D01*
X359980Y214369D01*
X360098Y214363D01*
X360216Y214354D01*
X360333Y214340D01*
X360450Y214323D01*
X360567Y214302D01*
X360682Y214277D01*
X360797Y214248D01*
X360911Y214215D01*
X361023Y214179D01*
X361134Y214139D01*
X361244Y214096D01*
X361353Y214049D01*
X361460Y213999D01*
X361565Y213944D01*
X361668Y213887D01*
X361769Y213826D01*
X361869Y213762D01*
X361966Y213695D01*
X362061Y213625D01*
X362153Y213551D01*
X362244Y213475D01*
X362331Y213395D01*
X362416Y213313D01*
X362498Y213228D01*
X362578Y213141D01*
X362654Y213050D01*
X362728Y212958D01*
X362798Y212863D01*
X362865Y212766D01*
X362929Y212666D01*
X362990Y212565D01*
X363047Y212462D01*
X363102Y212357D01*
X363152Y212250D01*
X363199Y212141D01*
X363242Y212031D01*
X363282Y211920D01*
X363318Y211808D01*
X363351Y211694D01*
X363380Y211579D01*
X363405Y211464D01*
X363426Y211347D01*
X363443Y211230D01*
X363457Y211113D01*
X363466Y210995D01*
X363472Y210877D01*
X363474Y210759D01*
X66790Y226700D02*
X66790Y281700D01*
X66790Y226700D02*
X59290Y226700D01*
X1790Y226700D01*
X1790Y281700D01*
X59290Y281700D01*
X66790Y281700D01*
X59290Y281700D02*
X59290Y226700D01*
D12*
X108553Y225996D02*
X108553Y282004D01*
X74327Y282004D02*
X74327Y225996D01*
D17*
X99440Y238000D02*
X99440Y270000D01*
X83440Y270000D02*
X83440Y238000D01*
D18*
X91440Y254000D03*
D19*
X91440Y254500D03*
D10*
X112141Y247940D02*
X121539Y247940D01*
X112141Y247940D02*
X112141Y252117D01*
X116318Y252117D02*
X116318Y247940D01*
X114229Y255543D02*
X112141Y258153D01*
X121539Y258153D01*
X121539Y255543D02*
X121539Y260764D01*
D14*
X418084Y138999D02*
X418084Y137193D01*
X418082Y137110D01*
X418076Y137026D01*
X418067Y136943D01*
X418053Y136861D01*
X418036Y136780D01*
X418015Y136699D01*
X417990Y136619D01*
X417962Y136541D01*
X417930Y136464D01*
X417895Y136388D01*
X417856Y136314D01*
X417813Y136242D01*
X417768Y136172D01*
X417719Y136105D01*
X417667Y136039D01*
X417613Y135976D01*
X417555Y135916D01*
X417495Y135858D01*
X417432Y135804D01*
X417366Y135752D01*
X417299Y135703D01*
X417229Y135658D01*
X417157Y135615D01*
X417083Y135576D01*
X417008Y135541D01*
X416930Y135509D01*
X416852Y135481D01*
X416772Y135456D01*
X416692Y135435D01*
X416610Y135418D01*
X416528Y135404D01*
X416445Y135395D01*
X416361Y135389D01*
X416278Y135387D01*
X411762Y135387D01*
X411679Y135389D01*
X411595Y135395D01*
X411512Y135404D01*
X411430Y135418D01*
X411349Y135435D01*
X411268Y135456D01*
X411188Y135481D01*
X411110Y135509D01*
X411033Y135541D01*
X410957Y135576D01*
X410883Y135615D01*
X410811Y135658D01*
X410741Y135703D01*
X410674Y135752D01*
X410608Y135804D01*
X410545Y135858D01*
X410485Y135916D01*
X410427Y135976D01*
X410373Y136039D01*
X410321Y136105D01*
X410272Y136172D01*
X410227Y136242D01*
X410184Y136314D01*
X410145Y136388D01*
X410110Y136463D01*
X410078Y136541D01*
X410050Y136619D01*
X410025Y136699D01*
X410004Y136779D01*
X409987Y136861D01*
X409973Y136943D01*
X409964Y137026D01*
X409958Y137110D01*
X409956Y137193D01*
X409956Y138999D01*
X411762Y143053D02*
X409956Y145311D01*
X418084Y145311D01*
X418084Y143053D02*
X418084Y147569D01*
X414020Y152198D02*
X413860Y152200D01*
X413700Y152206D01*
X413541Y152215D01*
X413381Y152229D01*
X413222Y152246D01*
X413064Y152267D01*
X412906Y152291D01*
X412749Y152320D01*
X412592Y152352D01*
X412436Y152388D01*
X412281Y152428D01*
X412127Y152471D01*
X411975Y152518D01*
X411823Y152569D01*
X411672Y152623D01*
X411523Y152681D01*
X411376Y152742D01*
X411230Y152807D01*
X411085Y152875D01*
X411085Y152874D02*
X411010Y152902D01*
X410937Y152933D01*
X410865Y152968D01*
X410795Y153006D01*
X410727Y153047D01*
X410661Y153092D01*
X410597Y153139D01*
X410535Y153190D01*
X410476Y153243D01*
X410420Y153300D01*
X410366Y153359D01*
X410315Y153420D01*
X410267Y153484D01*
X410222Y153550D01*
X410181Y153618D01*
X410143Y153688D01*
X410108Y153759D01*
X410076Y153833D01*
X410048Y153907D01*
X410024Y153983D01*
X410003Y154060D01*
X409986Y154138D01*
X409973Y154217D01*
X409964Y154296D01*
X409958Y154375D01*
X409956Y154455D01*
X409958Y154535D01*
X409964Y154614D01*
X409973Y154693D01*
X409986Y154772D01*
X410003Y154850D01*
X410024Y154927D01*
X410048Y155003D01*
X410076Y155077D01*
X410108Y155151D01*
X410143Y155222D01*
X410181Y155292D01*
X410222Y155360D01*
X410267Y155426D01*
X410315Y155490D01*
X410366Y155551D01*
X410420Y155610D01*
X410476Y155667D01*
X410535Y155720D01*
X410597Y155771D01*
X410661Y155818D01*
X410727Y155863D01*
X410795Y155904D01*
X410865Y155942D01*
X410937Y155977D01*
X411010Y156008D01*
X411085Y156036D01*
X411230Y156104D01*
X411376Y156169D01*
X411523Y156230D01*
X411672Y156288D01*
X411823Y156342D01*
X411975Y156393D01*
X412127Y156440D01*
X412281Y156483D01*
X412436Y156523D01*
X412592Y156559D01*
X412749Y156591D01*
X412906Y156620D01*
X413064Y156644D01*
X413222Y156665D01*
X413381Y156682D01*
X413541Y156696D01*
X413700Y156705D01*
X413860Y156711D01*
X414020Y156713D01*
X414020Y152198D02*
X414180Y152200D01*
X414340Y152206D01*
X414499Y152215D01*
X414659Y152229D01*
X414818Y152246D01*
X414976Y152267D01*
X415134Y152291D01*
X415291Y152320D01*
X415448Y152352D01*
X415604Y152388D01*
X415759Y152428D01*
X415913Y152471D01*
X416065Y152518D01*
X416217Y152569D01*
X416368Y152623D01*
X416517Y152681D01*
X416664Y152742D01*
X416810Y152807D01*
X416955Y152875D01*
X416955Y152874D02*
X417030Y152902D01*
X417103Y152933D01*
X417175Y152968D01*
X417245Y153006D01*
X417313Y153047D01*
X417379Y153092D01*
X417443Y153139D01*
X417505Y153190D01*
X417564Y153243D01*
X417620Y153300D01*
X417674Y153359D01*
X417725Y153420D01*
X417773Y153484D01*
X417818Y153550D01*
X417859Y153618D01*
X417897Y153688D01*
X417932Y153759D01*
X417964Y153833D01*
X417992Y153907D01*
X418016Y153983D01*
X418037Y154060D01*
X418054Y154138D01*
X418067Y154217D01*
X418076Y154296D01*
X418082Y154375D01*
X418084Y154455D01*
X416955Y156036D02*
X416810Y156104D01*
X416664Y156169D01*
X416517Y156230D01*
X416368Y156288D01*
X416217Y156342D01*
X416065Y156393D01*
X415913Y156440D01*
X415759Y156483D01*
X415604Y156523D01*
X415448Y156559D01*
X415291Y156591D01*
X415134Y156620D01*
X414976Y156644D01*
X414818Y156665D01*
X414659Y156682D01*
X414499Y156696D01*
X414340Y156705D01*
X414180Y156711D01*
X414020Y156713D01*
X416955Y156036D02*
X417030Y156008D01*
X417103Y155977D01*
X417175Y155942D01*
X417245Y155904D01*
X417313Y155863D01*
X417379Y155818D01*
X417443Y155771D01*
X417505Y155720D01*
X417564Y155667D01*
X417620Y155610D01*
X417674Y155551D01*
X417725Y155490D01*
X417773Y155426D01*
X417818Y155360D01*
X417859Y155292D01*
X417897Y155222D01*
X417932Y155151D01*
X417964Y155077D01*
X417992Y155003D01*
X418016Y154927D01*
X418037Y154850D01*
X418054Y154772D01*
X418067Y154693D01*
X418076Y154614D01*
X418082Y154535D01*
X418084Y154455D01*
X416278Y152649D02*
X411762Y156261D01*
X453390Y203835D02*
X453390Y238125D01*
X453390Y203835D02*
X451866Y203835D01*
X391414Y203835D02*
X389890Y203835D01*
X389890Y238125D01*
X391414Y238125D01*
X451866Y238125D02*
X453390Y238125D01*
X442214Y203835D02*
X439166Y203835D01*
X429514Y203835D02*
X426466Y203835D01*
X416814Y203835D02*
X413766Y203835D01*
X404114Y203835D02*
X401066Y203835D01*
X401066Y238125D02*
X404114Y238125D01*
X413766Y238125D02*
X416814Y238125D01*
X426466Y238125D02*
X429514Y238125D01*
X439166Y238125D02*
X442214Y238125D01*
X411139Y226822D02*
X411139Y220500D01*
X411137Y220417D01*
X411131Y220333D01*
X411122Y220250D01*
X411108Y220168D01*
X411091Y220087D01*
X411070Y220006D01*
X411045Y219926D01*
X411017Y219848D01*
X410985Y219771D01*
X410950Y219695D01*
X410911Y219621D01*
X410868Y219549D01*
X410823Y219479D01*
X410774Y219412D01*
X410722Y219346D01*
X410668Y219283D01*
X410610Y219223D01*
X410550Y219165D01*
X410487Y219111D01*
X410421Y219059D01*
X410354Y219010D01*
X410284Y218965D01*
X410212Y218922D01*
X410138Y218883D01*
X410063Y218848D01*
X409985Y218816D01*
X409907Y218788D01*
X409827Y218763D01*
X409747Y218742D01*
X409665Y218725D01*
X409583Y218711D01*
X409500Y218702D01*
X409416Y218696D01*
X409333Y218694D01*
X408429Y218694D01*
X417655Y218694D02*
X417655Y226822D01*
X415397Y226822D02*
X419913Y226822D01*
X426189Y226822D02*
X423480Y218694D01*
X428899Y218694D02*
X426189Y226822D01*
X428221Y220726D02*
X424157Y220726D01*
X436541Y223210D02*
X437896Y223210D01*
X437896Y218694D01*
X435187Y218694D01*
X435104Y218696D01*
X435020Y218702D01*
X434937Y218711D01*
X434855Y218725D01*
X434774Y218742D01*
X434693Y218763D01*
X434613Y218788D01*
X434535Y218816D01*
X434458Y218848D01*
X434382Y218883D01*
X434308Y218922D01*
X434236Y218965D01*
X434166Y219010D01*
X434099Y219059D01*
X434033Y219111D01*
X433970Y219165D01*
X433910Y219223D01*
X433852Y219283D01*
X433798Y219346D01*
X433746Y219412D01*
X433697Y219479D01*
X433652Y219549D01*
X433609Y219621D01*
X433570Y219695D01*
X433535Y219771D01*
X433503Y219848D01*
X433475Y219926D01*
X433450Y220006D01*
X433429Y220087D01*
X433412Y220168D01*
X433398Y220250D01*
X433389Y220333D01*
X433383Y220417D01*
X433381Y220500D01*
X433380Y220500D02*
X433380Y225016D01*
X433381Y225016D02*
X433383Y225099D01*
X433389Y225183D01*
X433398Y225266D01*
X433412Y225348D01*
X433429Y225429D01*
X433450Y225510D01*
X433475Y225590D01*
X433503Y225668D01*
X433535Y225745D01*
X433570Y225821D01*
X433609Y225895D01*
X433652Y225967D01*
X433697Y226037D01*
X433746Y226104D01*
X433798Y226170D01*
X433852Y226233D01*
X433910Y226293D01*
X433970Y226351D01*
X434033Y226405D01*
X434099Y226457D01*
X434166Y226506D01*
X434236Y226551D01*
X434308Y226594D01*
X434382Y226633D01*
X434457Y226668D01*
X434535Y226700D01*
X434613Y226728D01*
X434693Y226753D01*
X434773Y226774D01*
X434855Y226791D01*
X434937Y226805D01*
X435020Y226814D01*
X435104Y226820D01*
X435187Y226822D01*
X437896Y226822D01*
D12*
X427355Y172403D02*
X427355Y162878D01*
D14*
X652100Y281970D02*
X678860Y281970D01*
X678860Y253970D02*
X652100Y253970D01*
X686480Y266670D02*
X686480Y269270D01*
X644480Y269270D02*
X644480Y266670D01*
D12*
X657430Y267970D02*
X657432Y268168D01*
X657440Y268365D01*
X657452Y268562D01*
X657469Y268759D01*
X657491Y268955D01*
X657517Y269151D01*
X657549Y269346D01*
X657585Y269540D01*
X657626Y269734D01*
X657671Y269926D01*
X657722Y270117D01*
X657777Y270307D01*
X657836Y270495D01*
X657901Y270682D01*
X657969Y270867D01*
X658043Y271051D01*
X658121Y271232D01*
X658203Y271412D01*
X658290Y271589D01*
X658381Y271765D01*
X658476Y271938D01*
X658575Y272109D01*
X658679Y272277D01*
X658787Y272442D01*
X658898Y272605D01*
X659014Y272765D01*
X659134Y272923D01*
X659257Y273077D01*
X659384Y273228D01*
X659515Y273376D01*
X659650Y273521D01*
X659788Y273662D01*
X659929Y273800D01*
X660074Y273935D01*
X660222Y274066D01*
X660373Y274193D01*
X660527Y274316D01*
X660685Y274436D01*
X660845Y274552D01*
X661008Y274663D01*
X661173Y274771D01*
X661341Y274875D01*
X661512Y274974D01*
X661685Y275069D01*
X661861Y275160D01*
X662038Y275247D01*
X662218Y275329D01*
X662399Y275407D01*
X662583Y275481D01*
X662768Y275549D01*
X662955Y275614D01*
X663143Y275673D01*
X663333Y275728D01*
X663524Y275779D01*
X663716Y275824D01*
X663910Y275865D01*
X664104Y275901D01*
X664299Y275933D01*
X664495Y275959D01*
X664691Y275981D01*
X664888Y275998D01*
X665085Y276010D01*
X665282Y276018D01*
X665480Y276020D01*
X665678Y276018D01*
X665875Y276010D01*
X666072Y275998D01*
X666269Y275981D01*
X666465Y275959D01*
X666661Y275933D01*
X666856Y275901D01*
X667050Y275865D01*
X667244Y275824D01*
X667436Y275779D01*
X667627Y275728D01*
X667817Y275673D01*
X668005Y275614D01*
X668192Y275549D01*
X668377Y275481D01*
X668561Y275407D01*
X668742Y275329D01*
X668922Y275247D01*
X669099Y275160D01*
X669275Y275069D01*
X669448Y274974D01*
X669619Y274875D01*
X669787Y274771D01*
X669952Y274663D01*
X670115Y274552D01*
X670275Y274436D01*
X670433Y274316D01*
X670587Y274193D01*
X670738Y274066D01*
X670886Y273935D01*
X671031Y273800D01*
X671172Y273662D01*
X671310Y273521D01*
X671445Y273376D01*
X671576Y273228D01*
X671703Y273077D01*
X671826Y272923D01*
X671946Y272765D01*
X672062Y272605D01*
X672173Y272442D01*
X672281Y272277D01*
X672385Y272109D01*
X672484Y271938D01*
X672579Y271765D01*
X672670Y271589D01*
X672757Y271412D01*
X672839Y271232D01*
X672917Y271051D01*
X672991Y270867D01*
X673059Y270682D01*
X673124Y270495D01*
X673183Y270307D01*
X673238Y270117D01*
X673289Y269926D01*
X673334Y269734D01*
X673375Y269540D01*
X673411Y269346D01*
X673443Y269151D01*
X673469Y268955D01*
X673491Y268759D01*
X673508Y268562D01*
X673520Y268365D01*
X673528Y268168D01*
X673530Y267970D01*
X673528Y267772D01*
X673520Y267575D01*
X673508Y267378D01*
X673491Y267181D01*
X673469Y266985D01*
X673443Y266789D01*
X673411Y266594D01*
X673375Y266400D01*
X673334Y266206D01*
X673289Y266014D01*
X673238Y265823D01*
X673183Y265633D01*
X673124Y265445D01*
X673059Y265258D01*
X672991Y265073D01*
X672917Y264889D01*
X672839Y264708D01*
X672757Y264528D01*
X672670Y264351D01*
X672579Y264175D01*
X672484Y264002D01*
X672385Y263831D01*
X672281Y263663D01*
X672173Y263498D01*
X672062Y263335D01*
X671946Y263175D01*
X671826Y263017D01*
X671703Y262863D01*
X671576Y262712D01*
X671445Y262564D01*
X671310Y262419D01*
X671172Y262278D01*
X671031Y262140D01*
X670886Y262005D01*
X670738Y261874D01*
X670587Y261747D01*
X670433Y261624D01*
X670275Y261504D01*
X670115Y261388D01*
X669952Y261277D01*
X669787Y261169D01*
X669619Y261065D01*
X669448Y260966D01*
X669275Y260871D01*
X669099Y260780D01*
X668922Y260693D01*
X668742Y260611D01*
X668561Y260533D01*
X668377Y260459D01*
X668192Y260391D01*
X668005Y260326D01*
X667817Y260267D01*
X667627Y260212D01*
X667436Y260161D01*
X667244Y260116D01*
X667050Y260075D01*
X666856Y260039D01*
X666661Y260007D01*
X666465Y259981D01*
X666269Y259959D01*
X666072Y259942D01*
X665875Y259930D01*
X665678Y259922D01*
X665480Y259920D01*
X665282Y259922D01*
X665085Y259930D01*
X664888Y259942D01*
X664691Y259959D01*
X664495Y259981D01*
X664299Y260007D01*
X664104Y260039D01*
X663910Y260075D01*
X663716Y260116D01*
X663524Y260161D01*
X663333Y260212D01*
X663143Y260267D01*
X662955Y260326D01*
X662768Y260391D01*
X662583Y260459D01*
X662399Y260533D01*
X662218Y260611D01*
X662038Y260693D01*
X661861Y260780D01*
X661685Y260871D01*
X661512Y260966D01*
X661341Y261065D01*
X661173Y261169D01*
X661008Y261277D01*
X660845Y261388D01*
X660685Y261504D01*
X660527Y261624D01*
X660373Y261747D01*
X660222Y261874D01*
X660074Y262005D01*
X659929Y262140D01*
X659788Y262278D01*
X659650Y262419D01*
X659515Y262564D01*
X659384Y262712D01*
X659257Y262863D01*
X659134Y263017D01*
X659014Y263175D01*
X658898Y263335D01*
X658787Y263498D01*
X658679Y263663D01*
X658575Y263831D01*
X658476Y264002D01*
X658381Y264175D01*
X658290Y264351D01*
X658203Y264528D01*
X658121Y264708D01*
X658043Y264889D01*
X657969Y265073D01*
X657901Y265258D01*
X657836Y265445D01*
X657777Y265633D01*
X657722Y265823D01*
X657671Y266014D01*
X657626Y266206D01*
X657585Y266400D01*
X657549Y266594D01*
X657517Y266789D01*
X657491Y266985D01*
X657469Y267181D01*
X657452Y267378D01*
X657440Y267575D01*
X657432Y267772D01*
X657430Y267970D01*
D14*
X433150Y143764D02*
X433150Y135636D01*
X433150Y143764D02*
X435408Y143764D01*
X435501Y143762D01*
X435594Y143756D01*
X435687Y143747D01*
X435780Y143733D01*
X435871Y143716D01*
X435962Y143695D01*
X436052Y143670D01*
X436141Y143642D01*
X436229Y143610D01*
X436315Y143574D01*
X436400Y143535D01*
X436483Y143492D01*
X436564Y143446D01*
X436643Y143396D01*
X436720Y143344D01*
X436795Y143288D01*
X436867Y143229D01*
X436937Y143167D01*
X437005Y143103D01*
X437069Y143035D01*
X437131Y142965D01*
X437190Y142893D01*
X437246Y142818D01*
X437298Y142741D01*
X437348Y142662D01*
X437394Y142581D01*
X437437Y142498D01*
X437476Y142413D01*
X437512Y142327D01*
X437544Y142239D01*
X437572Y142150D01*
X437597Y142060D01*
X437618Y141969D01*
X437635Y141878D01*
X437649Y141785D01*
X437658Y141692D01*
X437664Y141599D01*
X437666Y141506D01*
X437664Y141413D01*
X437658Y141320D01*
X437649Y141227D01*
X437635Y141134D01*
X437618Y141043D01*
X437597Y140952D01*
X437572Y140862D01*
X437544Y140773D01*
X437512Y140685D01*
X437476Y140599D01*
X437437Y140514D01*
X437394Y140431D01*
X437348Y140350D01*
X437298Y140271D01*
X437246Y140194D01*
X437190Y140119D01*
X437131Y140047D01*
X437069Y139977D01*
X437005Y139909D01*
X436937Y139845D01*
X436867Y139783D01*
X436795Y139724D01*
X436720Y139668D01*
X436643Y139616D01*
X436564Y139566D01*
X436483Y139520D01*
X436400Y139477D01*
X436315Y139438D01*
X436229Y139402D01*
X436141Y139370D01*
X436052Y139342D01*
X435962Y139317D01*
X435871Y139296D01*
X435780Y139279D01*
X435687Y139265D01*
X435594Y139256D01*
X435501Y139250D01*
X435408Y139248D01*
X433150Y139248D01*
X435859Y139248D02*
X437665Y135636D01*
X442191Y141958D02*
X444448Y143764D01*
X444448Y135636D01*
X442191Y135636D02*
X446706Y135636D01*
X451335Y137442D02*
X453141Y143764D01*
X451335Y137442D02*
X455850Y137442D01*
X454496Y139248D02*
X454496Y135636D01*
M02*
