G04 EAGLE Gerber RS-274X export*
G75*
%MOMM*%
%FSLAX34Y34*%
%LPD*%
%INSoldermask Bottom*%
%IPPOS*%
%AMOC8*
5,1,8,0,0,1.08239X$1,22.5*%
G01*
%ADD10R,1.727200X1.727200*%
%ADD11R,2.228200X2.228200*%
%ADD12C,2.228200*%
%ADD13C,3.203200*%
%ADD14R,1.303200X1.203200*%
%ADD15C,2.082800*%
%ADD16R,2.235200X2.235200*%
%ADD17C,2.235200*%
%ADD18C,1.478200*%


D10*
X224790Y571500D03*
X250190Y571500D03*
X344170Y571500D03*
X369570Y571500D03*
X284480Y571500D03*
X309880Y571500D03*
X403860Y571500D03*
X429260Y571500D03*
X463550Y571500D03*
X488950Y571500D03*
D11*
X143510Y96520D03*
D12*
X183510Y113520D03*
X143510Y130520D03*
X183510Y147520D03*
X143510Y164520D03*
D13*
X43180Y41910D03*
X693420Y40640D03*
X41910Y567690D03*
X694690Y566420D03*
D14*
X66920Y424180D03*
X49920Y424180D03*
X339970Y422910D03*
X322970Y422910D03*
X206620Y422910D03*
X189620Y422910D03*
X489830Y422910D03*
X472830Y422910D03*
X625720Y424180D03*
X608720Y424180D03*
D15*
X549910Y17780D03*
X549910Y43180D03*
X575310Y17780D03*
X575310Y43180D03*
X600710Y17780D03*
X600710Y43180D03*
X626110Y17780D03*
X626110Y43180D03*
D16*
X34290Y265430D03*
D17*
X34290Y215430D03*
D18*
X22860Y124460D03*
X363220Y87630D03*
X71120Y124460D03*
X363220Y133350D03*
M02*
