G04 EAGLE Gerber RS-274X export*
G75*
%MOMM*%
%FSLAX34Y34*%
%LPD*%
%INSoldermask Top*%
%IPPOS*%
%AMOC8*
5,1,8,0,0,1.08239X$1,22.5*%
G01*
%ADD10R,0.903200X1.703200*%
%ADD11R,1.203200X5.403200*%
%ADD12R,2.403200X3.303200*%
%ADD13R,1.753200X2.553200*%
%ADD14R,2.003200X2.903200*%
%ADD15R,2.903200X2.753200*%
%ADD16R,1.727200X1.727200*%
%ADD17R,0.853200X1.703200*%
%ADD18R,1.703200X0.853200*%
%ADD19R,1.303200X1.603200*%
%ADD20R,1.303200X1.203200*%
%ADD21R,2.228200X2.228200*%
%ADD22C,2.228200*%
%ADD23R,1.603200X3.203200*%
%ADD24R,2.553200X1.753200*%
%ADD25R,3.203200X1.603200*%
%ADD26R,1.603200X1.303200*%
%ADD27R,1.203200X1.303200*%
%ADD28R,2.997200X2.489200*%
%ADD29C,0.505344*%
%ADD30C,3.203200*%
%ADD31R,1.727200X0.965200*%
%ADD32C,2.082800*%
%ADD33C,1.478200*%

G36*
X610888Y363834D02*
X610888Y363834D01*
X610954Y363831D01*
X610999Y363846D01*
X611046Y363851D01*
X611105Y363880D01*
X611168Y363900D01*
X611212Y363933D01*
X611247Y363950D01*
X611274Y363979D01*
X611318Y364012D01*
X621318Y374012D01*
X621343Y374046D01*
X621374Y374075D01*
X621406Y374138D01*
X621447Y374196D01*
X621457Y374237D01*
X621477Y374275D01*
X621490Y374364D01*
X621503Y374413D01*
X621500Y374434D01*
X621504Y374460D01*
X621504Y382460D01*
X621497Y382502D01*
X621499Y382544D01*
X621477Y382611D01*
X621465Y382681D01*
X621443Y382717D01*
X621430Y382758D01*
X621376Y382831D01*
X621350Y382874D01*
X621334Y382887D01*
X621318Y382908D01*
X611318Y392908D01*
X611265Y392946D01*
X611217Y392991D01*
X611173Y393010D01*
X611134Y393037D01*
X611071Y393053D01*
X611010Y393079D01*
X610963Y393081D01*
X610917Y393093D01*
X610852Y393086D01*
X610786Y393089D01*
X610741Y393074D01*
X610694Y393069D01*
X610635Y393040D01*
X610572Y393020D01*
X610528Y392987D01*
X610493Y392970D01*
X610466Y392941D01*
X610422Y392908D01*
X600422Y382908D01*
X600397Y382874D01*
X600366Y382845D01*
X600334Y382782D01*
X600293Y382724D01*
X600283Y382683D01*
X600263Y382645D01*
X600250Y382556D01*
X600238Y382507D01*
X600240Y382486D01*
X600236Y382460D01*
X600236Y374460D01*
X600243Y374418D01*
X600241Y374376D01*
X600263Y374309D01*
X600275Y374239D01*
X600297Y374203D01*
X600310Y374162D01*
X600364Y374089D01*
X600390Y374046D01*
X600406Y374033D01*
X600422Y374012D01*
X610422Y364012D01*
X610476Y363974D01*
X610523Y363929D01*
X610567Y363910D01*
X610606Y363883D01*
X610669Y363867D01*
X610730Y363841D01*
X610777Y363839D01*
X610823Y363828D01*
X610888Y363834D01*
G37*
G36*
X468648Y363834D02*
X468648Y363834D01*
X468714Y363831D01*
X468759Y363846D01*
X468806Y363851D01*
X468865Y363880D01*
X468928Y363900D01*
X468972Y363933D01*
X469007Y363950D01*
X469034Y363979D01*
X469078Y364012D01*
X479078Y374012D01*
X479103Y374046D01*
X479134Y374075D01*
X479166Y374138D01*
X479207Y374196D01*
X479217Y374237D01*
X479237Y374275D01*
X479250Y374364D01*
X479263Y374413D01*
X479260Y374434D01*
X479264Y374460D01*
X479264Y382460D01*
X479257Y382502D01*
X479259Y382544D01*
X479237Y382611D01*
X479225Y382681D01*
X479203Y382717D01*
X479190Y382758D01*
X479136Y382831D01*
X479110Y382874D01*
X479094Y382887D01*
X479078Y382908D01*
X469078Y392908D01*
X469025Y392946D01*
X468977Y392991D01*
X468933Y393010D01*
X468894Y393037D01*
X468831Y393053D01*
X468770Y393079D01*
X468723Y393081D01*
X468677Y393093D01*
X468612Y393086D01*
X468546Y393089D01*
X468501Y393074D01*
X468454Y393069D01*
X468395Y393040D01*
X468332Y393020D01*
X468288Y392987D01*
X468253Y392970D01*
X468226Y392941D01*
X468182Y392908D01*
X458182Y382908D01*
X458157Y382874D01*
X458126Y382845D01*
X458094Y382782D01*
X458053Y382724D01*
X458043Y382683D01*
X458023Y382645D01*
X458010Y382556D01*
X457998Y382507D01*
X458000Y382486D01*
X457996Y382460D01*
X457996Y374460D01*
X458003Y374418D01*
X458001Y374376D01*
X458023Y374309D01*
X458035Y374239D01*
X458057Y374203D01*
X458070Y374162D01*
X458124Y374089D01*
X458150Y374046D01*
X458166Y374033D01*
X458182Y374012D01*
X468182Y364012D01*
X468236Y363974D01*
X468283Y363929D01*
X468327Y363910D01*
X468366Y363883D01*
X468429Y363867D01*
X468490Y363841D01*
X468537Y363839D01*
X468583Y363828D01*
X468648Y363834D01*
G37*
G36*
X327678Y362564D02*
X327678Y362564D01*
X327744Y362561D01*
X327789Y362576D01*
X327836Y362581D01*
X327895Y362610D01*
X327958Y362630D01*
X328002Y362663D01*
X328037Y362680D01*
X328064Y362709D01*
X328108Y362742D01*
X338108Y372742D01*
X338133Y372776D01*
X338164Y372805D01*
X338196Y372868D01*
X338237Y372926D01*
X338247Y372967D01*
X338267Y373005D01*
X338280Y373094D01*
X338293Y373143D01*
X338290Y373164D01*
X338294Y373190D01*
X338294Y381190D01*
X338287Y381232D01*
X338289Y381274D01*
X338267Y381341D01*
X338255Y381411D01*
X338233Y381447D01*
X338220Y381488D01*
X338166Y381561D01*
X338140Y381604D01*
X338124Y381617D01*
X338108Y381638D01*
X328108Y391638D01*
X328055Y391676D01*
X328007Y391721D01*
X327963Y391740D01*
X327924Y391767D01*
X327861Y391783D01*
X327800Y391809D01*
X327753Y391811D01*
X327707Y391823D01*
X327642Y391816D01*
X327576Y391819D01*
X327531Y391804D01*
X327484Y391799D01*
X327425Y391770D01*
X327362Y391750D01*
X327318Y391717D01*
X327283Y391700D01*
X327256Y391671D01*
X327212Y391638D01*
X317212Y381638D01*
X317187Y381604D01*
X317156Y381575D01*
X317124Y381512D01*
X317083Y381454D01*
X317073Y381413D01*
X317053Y381375D01*
X317040Y381286D01*
X317028Y381237D01*
X317030Y381216D01*
X317026Y381190D01*
X317026Y373190D01*
X317033Y373148D01*
X317031Y373106D01*
X317053Y373039D01*
X317065Y372969D01*
X317087Y372933D01*
X317100Y372892D01*
X317154Y372819D01*
X317180Y372776D01*
X317196Y372763D01*
X317212Y372742D01*
X327212Y362742D01*
X327266Y362704D01*
X327313Y362659D01*
X327357Y362640D01*
X327396Y362613D01*
X327459Y362597D01*
X327520Y362571D01*
X327567Y362569D01*
X327613Y362558D01*
X327678Y362564D01*
G37*
G36*
X189248Y361294D02*
X189248Y361294D01*
X189314Y361291D01*
X189359Y361306D01*
X189406Y361311D01*
X189465Y361340D01*
X189528Y361360D01*
X189572Y361393D01*
X189607Y361410D01*
X189634Y361439D01*
X189678Y361472D01*
X199678Y371472D01*
X199703Y371506D01*
X199734Y371535D01*
X199766Y371598D01*
X199807Y371656D01*
X199817Y371697D01*
X199837Y371735D01*
X199850Y371824D01*
X199863Y371873D01*
X199860Y371894D01*
X199864Y371920D01*
X199864Y379920D01*
X199857Y379962D01*
X199859Y380004D01*
X199837Y380071D01*
X199825Y380141D01*
X199803Y380177D01*
X199790Y380218D01*
X199736Y380291D01*
X199710Y380334D01*
X199694Y380347D01*
X199678Y380368D01*
X189678Y390368D01*
X189625Y390406D01*
X189577Y390451D01*
X189533Y390470D01*
X189494Y390497D01*
X189431Y390513D01*
X189370Y390539D01*
X189323Y390541D01*
X189277Y390553D01*
X189212Y390546D01*
X189146Y390549D01*
X189101Y390534D01*
X189054Y390529D01*
X188995Y390500D01*
X188932Y390480D01*
X188888Y390447D01*
X188853Y390430D01*
X188826Y390401D01*
X188782Y390368D01*
X178782Y380368D01*
X178757Y380334D01*
X178726Y380305D01*
X178694Y380242D01*
X178653Y380184D01*
X178643Y380143D01*
X178623Y380105D01*
X178610Y380016D01*
X178598Y379967D01*
X178600Y379946D01*
X178596Y379920D01*
X178596Y371920D01*
X178603Y371878D01*
X178601Y371836D01*
X178623Y371769D01*
X178635Y371699D01*
X178657Y371663D01*
X178670Y371622D01*
X178724Y371549D01*
X178750Y371506D01*
X178766Y371493D01*
X178782Y371472D01*
X188782Y361472D01*
X188836Y361434D01*
X188883Y361389D01*
X188927Y361370D01*
X188966Y361343D01*
X189029Y361327D01*
X189090Y361301D01*
X189137Y361299D01*
X189183Y361288D01*
X189248Y361294D01*
G37*
G36*
X49548Y361294D02*
X49548Y361294D01*
X49614Y361291D01*
X49659Y361306D01*
X49706Y361311D01*
X49765Y361340D01*
X49828Y361360D01*
X49872Y361393D01*
X49907Y361410D01*
X49934Y361439D01*
X49978Y361472D01*
X59978Y371472D01*
X60003Y371506D01*
X60034Y371535D01*
X60066Y371598D01*
X60107Y371656D01*
X60117Y371697D01*
X60137Y371735D01*
X60150Y371824D01*
X60163Y371873D01*
X60160Y371894D01*
X60164Y371920D01*
X60164Y379920D01*
X60157Y379962D01*
X60159Y380004D01*
X60137Y380071D01*
X60125Y380141D01*
X60103Y380177D01*
X60090Y380218D01*
X60036Y380291D01*
X60010Y380334D01*
X59994Y380347D01*
X59978Y380368D01*
X49978Y390368D01*
X49925Y390406D01*
X49877Y390451D01*
X49833Y390470D01*
X49794Y390497D01*
X49731Y390513D01*
X49670Y390539D01*
X49623Y390541D01*
X49577Y390553D01*
X49512Y390546D01*
X49446Y390549D01*
X49401Y390534D01*
X49354Y390529D01*
X49295Y390500D01*
X49232Y390480D01*
X49188Y390447D01*
X49153Y390430D01*
X49126Y390401D01*
X49082Y390368D01*
X39082Y380368D01*
X39057Y380334D01*
X39026Y380305D01*
X38994Y380242D01*
X38953Y380184D01*
X38943Y380143D01*
X38923Y380105D01*
X38910Y380016D01*
X38898Y379967D01*
X38900Y379946D01*
X38896Y379920D01*
X38896Y371920D01*
X38903Y371878D01*
X38901Y371836D01*
X38923Y371769D01*
X38935Y371699D01*
X38957Y371663D01*
X38970Y371622D01*
X39024Y371549D01*
X39050Y371506D01*
X39066Y371493D01*
X39082Y371472D01*
X49082Y361472D01*
X49136Y361434D01*
X49183Y361389D01*
X49227Y361370D01*
X49266Y361343D01*
X49329Y361327D01*
X49390Y361301D01*
X49437Y361299D01*
X49483Y361288D01*
X49548Y361294D01*
G37*
D10*
X64530Y394420D03*
X34530Y394420D03*
X64530Y357420D03*
X34530Y357420D03*
D11*
X49530Y375920D03*
D12*
X42400Y469900D03*
X135400Y469900D03*
D13*
X92710Y354420D03*
X92710Y397420D03*
D14*
X81690Y321310D03*
X37690Y321310D03*
D15*
X139700Y393650D03*
X139700Y330250D03*
D16*
X224790Y571500D03*
X250190Y571500D03*
D10*
X342660Y395690D03*
X312660Y395690D03*
X342660Y358690D03*
X312660Y358690D03*
D11*
X327660Y377190D03*
D12*
X323070Y469900D03*
X416070Y469900D03*
D13*
X373380Y355690D03*
X373380Y398690D03*
D14*
X362360Y320040D03*
X318360Y320040D03*
D15*
X419100Y393650D03*
X419100Y330250D03*
D16*
X344170Y571500D03*
X369570Y571500D03*
D10*
X204230Y394420D03*
X174230Y394420D03*
X204230Y357420D03*
X174230Y357420D03*
D11*
X189230Y375920D03*
D12*
X182100Y469900D03*
X275100Y469900D03*
D13*
X232410Y355690D03*
X232410Y398690D03*
D14*
X223930Y320040D03*
X179930Y320040D03*
D15*
X278130Y393650D03*
X278130Y330250D03*
D16*
X284480Y571500D03*
X309880Y571500D03*
D10*
X483630Y396960D03*
X453630Y396960D03*
X483630Y359960D03*
X453630Y359960D03*
D11*
X468630Y378460D03*
D12*
X462770Y469900D03*
X555770Y469900D03*
D13*
X514350Y356960D03*
X514350Y399960D03*
D14*
X503330Y320040D03*
X459330Y320040D03*
D15*
X560070Y394920D03*
X560070Y331520D03*
D16*
X403860Y571500D03*
X429260Y571500D03*
D10*
X625870Y396960D03*
X595870Y396960D03*
X625870Y359960D03*
X595870Y359960D03*
D11*
X610870Y378460D03*
D12*
X606280Y469900D03*
X699280Y469900D03*
D13*
X655320Y356960D03*
X655320Y399960D03*
D14*
X645570Y320040D03*
X601570Y320040D03*
D15*
X701040Y394920D03*
X701040Y331520D03*
D16*
X463550Y571500D03*
X488950Y571500D03*
D17*
X619940Y245590D03*
X608940Y245590D03*
X597940Y245590D03*
X586940Y245590D03*
X575940Y245590D03*
X564940Y245590D03*
X553940Y245590D03*
X542940Y245590D03*
X531940Y245590D03*
X520940Y245590D03*
X509940Y245590D03*
X498940Y245590D03*
D18*
X475440Y229390D03*
X475440Y218390D03*
X475440Y207390D03*
X475440Y196390D03*
X475440Y185390D03*
X475440Y174390D03*
X475440Y163390D03*
D17*
X630940Y245590D03*
X619940Y81690D03*
X608940Y81690D03*
X597940Y81690D03*
X586940Y81690D03*
X575940Y81690D03*
X564940Y81690D03*
X553940Y81690D03*
X542940Y81690D03*
X531940Y81690D03*
X520940Y81690D03*
X509940Y81690D03*
X498940Y81690D03*
X630940Y81690D03*
D18*
X475440Y152390D03*
X475440Y141390D03*
X475440Y130390D03*
X475440Y119390D03*
X475440Y108390D03*
X475440Y97390D03*
D19*
X179230Y274320D03*
X199230Y274320D03*
X357030Y275590D03*
X377030Y275590D03*
X224950Y274320D03*
X244950Y274320D03*
X538640Y273050D03*
X558640Y273050D03*
X603090Y273050D03*
X583090Y273050D03*
D20*
X451730Y109220D03*
X434730Y109220D03*
X451730Y93980D03*
X434730Y93980D03*
D21*
X143510Y96520D03*
D22*
X183510Y113520D03*
X143510Y130520D03*
X183510Y147520D03*
X143510Y164520D03*
D12*
X216390Y128270D03*
X309390Y128270D03*
D23*
X363220Y134490D03*
X363220Y86490D03*
D24*
X186600Y205740D03*
X143600Y205740D03*
D25*
X22990Y124460D03*
X70990Y124460D03*
D26*
X341630Y192880D03*
X341630Y172880D03*
X377190Y172880D03*
X377190Y192880D03*
D27*
X359410Y192650D03*
X359410Y175650D03*
D16*
X34290Y266700D03*
X34290Y241300D03*
D28*
X91440Y274460D03*
X91440Y233540D03*
D27*
X414020Y122800D03*
X414020Y105800D03*
D29*
X678380Y269560D02*
X678380Y276540D01*
X685360Y276540D01*
X685360Y269560D01*
X678380Y269560D01*
X678380Y274360D02*
X685360Y274360D01*
X660840Y276540D02*
X660840Y269560D01*
X660840Y276540D02*
X667820Y276540D01*
X667820Y269560D01*
X660840Y269560D01*
X660840Y274360D02*
X667820Y274360D01*
D20*
X648580Y273050D03*
X631580Y273050D03*
D30*
X43180Y41910D03*
X720090Y39370D03*
X41910Y567690D03*
X720090Y567690D03*
D31*
X438150Y11430D03*
X382270Y11430D03*
X438150Y49530D03*
X382270Y49530D03*
X298450Y49530D03*
X354330Y49530D03*
X298450Y11430D03*
X354330Y11430D03*
X520700Y11430D03*
X464820Y11430D03*
X520700Y49530D03*
X464820Y49530D03*
D32*
X549910Y17780D03*
X549910Y43180D03*
X575310Y17780D03*
X575310Y43180D03*
X600710Y17780D03*
X600710Y43180D03*
X626110Y17780D03*
X626110Y43180D03*
D33*
X22860Y124460D03*
X363220Y87630D03*
X71120Y124460D03*
X363220Y133350D03*
M02*
