G04 EAGLE Gerber RS-274X export*
G75*
%MOMM*%
%FSLAX34Y34*%
%LPD*%
%INSolderpaste Top*%
%IPPOS*%
%AMOC8*
5,1,8,0,0,1.08239X$1,22.5*%
G01*
%ADD10R,0.700000X1.500000*%
%ADD11R,1.000000X5.200000*%
%ADD12R,2.200000X3.100000*%
%ADD13R,1.550000X2.350000*%
%ADD14R,1.800000X2.700000*%
%ADD15R,2.700000X2.550000*%
%ADD16R,0.650000X1.500000*%
%ADD17R,1.500000X0.650000*%
%ADD18R,1.100000X1.400000*%
%ADD19R,1.100000X1.000000*%
%ADD20R,1.400000X3.000000*%
%ADD21R,2.350000X1.550000*%
%ADD22R,1.400000X1.100000*%
%ADD23R,1.000000X1.100000*%
%ADD24R,2.794000X2.286000*%
%ADD25C,0.300000*%
%ADD26R,1.524000X0.762000*%


D10*
X64530Y394420D03*
X34530Y394420D03*
X64530Y357420D03*
X34530Y357420D03*
D11*
X49530Y375920D03*
D12*
X42400Y469900D03*
X135400Y469900D03*
D13*
X92710Y354420D03*
X92710Y397420D03*
D14*
X81690Y321310D03*
X37690Y321310D03*
D15*
X139700Y393650D03*
X139700Y330250D03*
D10*
X342660Y395690D03*
X312660Y395690D03*
X342660Y358690D03*
X312660Y358690D03*
D11*
X327660Y377190D03*
D12*
X323070Y469900D03*
X416070Y469900D03*
D13*
X373380Y355690D03*
X373380Y398690D03*
D14*
X362360Y320040D03*
X318360Y320040D03*
D15*
X419100Y393650D03*
X419100Y330250D03*
D10*
X204230Y394420D03*
X174230Y394420D03*
X204230Y357420D03*
X174230Y357420D03*
D11*
X189230Y375920D03*
D12*
X182100Y469900D03*
X275100Y469900D03*
D13*
X232410Y355690D03*
X232410Y398690D03*
D14*
X223930Y320040D03*
X179930Y320040D03*
D15*
X278130Y393650D03*
X278130Y330250D03*
D10*
X483630Y396960D03*
X453630Y396960D03*
X483630Y359960D03*
X453630Y359960D03*
D11*
X468630Y378460D03*
D12*
X462770Y469900D03*
X555770Y469900D03*
D13*
X514350Y356960D03*
X514350Y399960D03*
D14*
X503330Y320040D03*
X459330Y320040D03*
D15*
X560070Y394920D03*
X560070Y331520D03*
D10*
X625870Y396960D03*
X595870Y396960D03*
X625870Y359960D03*
X595870Y359960D03*
D11*
X610870Y378460D03*
D12*
X606280Y469900D03*
X699280Y469900D03*
D13*
X655320Y356960D03*
X655320Y399960D03*
D14*
X645570Y320040D03*
X601570Y320040D03*
D15*
X701040Y394920D03*
X701040Y331520D03*
D16*
X619940Y245590D03*
X608940Y245590D03*
X597940Y245590D03*
X586940Y245590D03*
X575940Y245590D03*
X564940Y245590D03*
X553940Y245590D03*
X542940Y245590D03*
X531940Y245590D03*
X520940Y245590D03*
X509940Y245590D03*
X498940Y245590D03*
D17*
X475440Y229390D03*
X475440Y218390D03*
X475440Y207390D03*
X475440Y196390D03*
X475440Y185390D03*
X475440Y174390D03*
X475440Y163390D03*
D16*
X630940Y245590D03*
X619940Y81690D03*
X608940Y81690D03*
X597940Y81690D03*
X586940Y81690D03*
X575940Y81690D03*
X564940Y81690D03*
X553940Y81690D03*
X542940Y81690D03*
X531940Y81690D03*
X520940Y81690D03*
X509940Y81690D03*
X498940Y81690D03*
X630940Y81690D03*
D17*
X475440Y152390D03*
X475440Y141390D03*
X475440Y130390D03*
X475440Y119390D03*
X475440Y108390D03*
X475440Y97390D03*
D18*
X179230Y274320D03*
X199230Y274320D03*
X357030Y275590D03*
X377030Y275590D03*
X224950Y274320D03*
X244950Y274320D03*
X538640Y273050D03*
X558640Y273050D03*
X603090Y273050D03*
X583090Y273050D03*
D19*
X451730Y109220D03*
X434730Y109220D03*
X451730Y93980D03*
X434730Y93980D03*
D12*
X216390Y128270D03*
X309390Y128270D03*
D20*
X363220Y134490D03*
X363220Y86490D03*
D21*
X186600Y205740D03*
X143600Y205740D03*
D20*
X53340Y86490D03*
X53340Y134490D03*
D22*
X341630Y192880D03*
X341630Y172880D03*
X377190Y172880D03*
X377190Y192880D03*
D23*
X359410Y192650D03*
X359410Y175650D03*
D24*
X91440Y274460D03*
X91440Y233540D03*
D23*
X414020Y122800D03*
X414020Y105800D03*
D25*
X678370Y269550D02*
X678370Y276550D01*
X685370Y276550D01*
X685370Y269550D01*
X678370Y269550D01*
X678370Y272400D02*
X685370Y272400D01*
X685370Y275250D02*
X678370Y275250D01*
X660830Y276550D02*
X660830Y269550D01*
X660830Y276550D02*
X667830Y276550D01*
X667830Y269550D01*
X660830Y269550D01*
X660830Y272400D02*
X667830Y272400D01*
X667830Y275250D02*
X660830Y275250D01*
D19*
X648580Y273050D03*
X631580Y273050D03*
D26*
X438150Y11430D03*
X382270Y11430D03*
X438150Y49530D03*
X382270Y49530D03*
X298450Y49530D03*
X354330Y49530D03*
X298450Y11430D03*
X354330Y11430D03*
X520700Y11430D03*
X464820Y11430D03*
X520700Y49530D03*
X464820Y49530D03*
M02*
