G04 EAGLE Gerber RS-274X export*
G75*
%MOMM*%
%FSLAX34Y34*%
%LPD*%
%INTop Copper*%
%IPPOS*%
%AMOC8*
5,1,8,0,0,1.08239X$1,22.5*%
G01*
%ADD10R,0.700000X1.500000*%
%ADD11R,1.000000X5.200000*%
%ADD12R,2.200000X3.100000*%
%ADD13R,1.550000X2.350000*%
%ADD14R,1.800000X2.700000*%
%ADD15R,2.700000X2.550000*%
%ADD16R,1.524000X1.524000*%
%ADD17R,0.650000X1.500000*%
%ADD18R,1.500000X0.650000*%
%ADD19R,1.100000X1.400000*%
%ADD20R,1.100000X1.000000*%
%ADD21R,2.025000X2.025000*%
%ADD22C,2.025000*%
%ADD23R,1.400000X3.000000*%
%ADD24R,2.350000X1.550000*%
%ADD25R,3.000000X1.400000*%
%ADD26R,1.400000X1.100000*%
%ADD27R,1.000000X1.100000*%
%ADD28R,2.794000X2.286000*%
%ADD29C,0.300000*%
%ADD30R,0.900000X1.000000*%
%ADD31C,1.879600*%
%ADD32R,2.032000X2.032000*%
%ADD33C,2.032000*%
%ADD34C,1.275000*%
%ADD35C,0.200000*%
%ADD36C,0.756400*%
%ADD37C,0.706400*%
%ADD38C,0.406400*%
%ADD39C,0.254000*%
%ADD40C,0.203200*%
%ADD41C,0.508000*%
%ADD42C,0.304800*%

G36*
X665500Y2766D02*
X665500Y2766D01*
X665519Y2764D01*
X665621Y2786D01*
X665723Y2802D01*
X665740Y2812D01*
X665760Y2816D01*
X665849Y2869D01*
X665940Y2918D01*
X665954Y2932D01*
X665971Y2942D01*
X666038Y3021D01*
X666110Y3096D01*
X666118Y3114D01*
X666131Y3129D01*
X666170Y3225D01*
X666213Y3319D01*
X666215Y3339D01*
X666223Y3357D01*
X666241Y3524D01*
X666241Y10558D01*
X666240Y10568D01*
X666241Y10579D01*
X666220Y10690D01*
X666202Y10801D01*
X666197Y10810D01*
X666195Y10820D01*
X666139Y10919D01*
X666086Y11018D01*
X666079Y11025D01*
X666073Y11035D01*
X665955Y11153D01*
X663635Y13003D01*
X656812Y23010D01*
X653242Y34584D01*
X653242Y46696D01*
X656812Y58270D01*
X657083Y58667D01*
X657602Y59428D01*
X657602Y59429D01*
X658121Y60190D01*
X658640Y60951D01*
X659159Y61712D01*
X659678Y62473D01*
X659678Y62474D01*
X660197Y63235D01*
X660716Y63996D01*
X661235Y64757D01*
X661754Y65518D01*
X661754Y65519D01*
X662273Y66279D01*
X662273Y66280D01*
X662792Y67041D01*
X663311Y67802D01*
X663635Y68277D01*
X665955Y70127D01*
X665962Y70135D01*
X665971Y70140D01*
X666044Y70226D01*
X666120Y70309D01*
X666124Y70319D01*
X666131Y70327D01*
X666173Y70433D01*
X666218Y70535D01*
X666219Y70546D01*
X666223Y70556D01*
X666241Y70722D01*
X666241Y265764D01*
X666238Y265784D01*
X666240Y265803D01*
X666218Y265905D01*
X666202Y266007D01*
X666192Y266024D01*
X666188Y266044D01*
X666135Y266133D01*
X666086Y266224D01*
X666072Y266238D01*
X666062Y266255D01*
X665983Y266322D01*
X665908Y266394D01*
X665890Y266402D01*
X665875Y266415D01*
X665779Y266454D01*
X665685Y266497D01*
X665665Y266499D01*
X665647Y266507D01*
X665480Y266525D01*
X659577Y266525D01*
X657805Y268297D01*
X657805Y269018D01*
X657802Y269038D01*
X657804Y269057D01*
X657782Y269159D01*
X657766Y269261D01*
X657756Y269278D01*
X657752Y269298D01*
X657699Y269387D01*
X657650Y269478D01*
X657636Y269492D01*
X657626Y269509D01*
X657547Y269576D01*
X657472Y269648D01*
X657454Y269656D01*
X657439Y269669D01*
X657343Y269708D01*
X657249Y269751D01*
X657229Y269753D01*
X657211Y269761D01*
X657044Y269779D01*
X656366Y269779D01*
X656346Y269776D01*
X656327Y269778D01*
X656225Y269756D01*
X656123Y269740D01*
X656106Y269730D01*
X656086Y269726D01*
X655997Y269673D01*
X655906Y269624D01*
X655892Y269610D01*
X655875Y269600D01*
X655808Y269521D01*
X655736Y269446D01*
X655728Y269428D01*
X655715Y269413D01*
X655676Y269317D01*
X655633Y269223D01*
X655631Y269203D01*
X655623Y269185D01*
X655605Y269018D01*
X655605Y267418D01*
X654712Y266525D01*
X642448Y266525D01*
X641555Y267418D01*
X641555Y278682D01*
X641735Y278862D01*
X641777Y278920D01*
X641827Y278972D01*
X641849Y279019D01*
X641879Y279061D01*
X641900Y279130D01*
X641930Y279195D01*
X641936Y279247D01*
X641951Y279297D01*
X641949Y279368D01*
X641957Y279439D01*
X641946Y279490D01*
X641945Y279542D01*
X641920Y279610D01*
X641905Y279680D01*
X641878Y279724D01*
X641861Y279773D01*
X641816Y279829D01*
X641779Y279891D01*
X641739Y279925D01*
X641707Y279965D01*
X641647Y280004D01*
X641592Y280051D01*
X641544Y280070D01*
X641500Y280098D01*
X641430Y280116D01*
X641364Y280143D01*
X641293Y280151D01*
X641261Y280159D01*
X641238Y280157D01*
X641197Y280161D01*
X638963Y280161D01*
X638892Y280150D01*
X638820Y280148D01*
X638771Y280130D01*
X638720Y280122D01*
X638657Y280088D01*
X638589Y280063D01*
X638549Y280031D01*
X638503Y280006D01*
X638453Y279955D01*
X638397Y279910D01*
X638369Y279866D01*
X638333Y279828D01*
X638303Y279763D01*
X638264Y279703D01*
X638252Y279652D01*
X638230Y279605D01*
X638222Y279534D01*
X638204Y279464D01*
X638208Y279412D01*
X638203Y279361D01*
X638218Y279290D01*
X638223Y279219D01*
X638244Y279171D01*
X638255Y279120D01*
X638292Y279059D01*
X638320Y278993D01*
X638365Y278937D01*
X638381Y278909D01*
X638399Y278894D01*
X638425Y278862D01*
X638605Y278682D01*
X638605Y267418D01*
X637712Y266525D01*
X635358Y266525D01*
X635338Y266522D01*
X635319Y266524D01*
X635217Y266502D01*
X635115Y266486D01*
X635098Y266476D01*
X635078Y266472D01*
X634989Y266419D01*
X634898Y266370D01*
X634884Y266356D01*
X634867Y266346D01*
X634800Y266267D01*
X634728Y266192D01*
X634720Y266174D01*
X634707Y266159D01*
X634668Y266063D01*
X634625Y265969D01*
X634623Y265949D01*
X634615Y265931D01*
X634597Y265764D01*
X634597Y263300D01*
X628630Y257333D01*
X592115Y257333D01*
X592025Y257319D01*
X591934Y257311D01*
X591904Y257299D01*
X591872Y257294D01*
X591792Y257251D01*
X591708Y257215D01*
X591675Y257189D01*
X591655Y257178D01*
X591633Y257155D01*
X591577Y257110D01*
X590381Y255914D01*
X590339Y255856D01*
X590289Y255804D01*
X590267Y255757D01*
X590237Y255715D01*
X590216Y255646D01*
X590186Y255581D01*
X590180Y255529D01*
X590165Y255479D01*
X590167Y255408D01*
X590159Y255337D01*
X590170Y255286D01*
X590171Y255234D01*
X590196Y255166D01*
X590211Y255096D01*
X590238Y255051D01*
X590255Y255003D01*
X590300Y254947D01*
X590337Y254885D01*
X590377Y254851D01*
X590409Y254811D01*
X590469Y254772D01*
X590524Y254725D01*
X590572Y254706D01*
X590616Y254678D01*
X590686Y254660D01*
X590752Y254633D01*
X590809Y254627D01*
X591902Y253535D01*
X591918Y253523D01*
X591930Y253507D01*
X592018Y253451D01*
X592101Y253391D01*
X592120Y253385D01*
X592137Y253374D01*
X592238Y253349D01*
X592337Y253319D01*
X592356Y253319D01*
X592376Y253314D01*
X592479Y253322D01*
X592582Y253325D01*
X592601Y253332D01*
X592621Y253333D01*
X592716Y253374D01*
X592813Y253409D01*
X592829Y253422D01*
X592847Y253430D01*
X592978Y253535D01*
X594058Y254615D01*
X601822Y254615D01*
X602902Y253535D01*
X602918Y253523D01*
X602930Y253507D01*
X603018Y253451D01*
X603101Y253391D01*
X603120Y253385D01*
X603137Y253374D01*
X603238Y253349D01*
X603337Y253319D01*
X603356Y253319D01*
X603376Y253314D01*
X603479Y253322D01*
X603582Y253325D01*
X603601Y253332D01*
X603621Y253333D01*
X603716Y253374D01*
X603813Y253409D01*
X603829Y253422D01*
X603847Y253430D01*
X603978Y253535D01*
X605058Y254615D01*
X612822Y254615D01*
X613902Y253535D01*
X613918Y253523D01*
X613930Y253507D01*
X614018Y253451D01*
X614101Y253391D01*
X614120Y253385D01*
X614137Y253374D01*
X614238Y253349D01*
X614337Y253319D01*
X614356Y253319D01*
X614376Y253314D01*
X614479Y253322D01*
X614582Y253325D01*
X614601Y253332D01*
X614621Y253333D01*
X614716Y253374D01*
X614813Y253409D01*
X614829Y253422D01*
X614847Y253430D01*
X614978Y253535D01*
X616058Y254615D01*
X623822Y254615D01*
X624902Y253535D01*
X624918Y253523D01*
X624930Y253507D01*
X625018Y253451D01*
X625101Y253391D01*
X625120Y253385D01*
X625137Y253374D01*
X625238Y253349D01*
X625337Y253319D01*
X625356Y253319D01*
X625376Y253314D01*
X625479Y253322D01*
X625582Y253325D01*
X625601Y253332D01*
X625621Y253333D01*
X625716Y253374D01*
X625813Y253409D01*
X625829Y253422D01*
X625847Y253430D01*
X625978Y253535D01*
X627058Y254615D01*
X634822Y254615D01*
X635715Y253722D01*
X635715Y237458D01*
X634822Y236565D01*
X634702Y236565D01*
X634682Y236562D01*
X634663Y236564D01*
X634561Y236542D01*
X634459Y236526D01*
X634442Y236516D01*
X634422Y236512D01*
X634333Y236459D01*
X634242Y236410D01*
X634228Y236396D01*
X634211Y236386D01*
X634144Y236307D01*
X634072Y236232D01*
X634064Y236214D01*
X634051Y236199D01*
X634012Y236103D01*
X633969Y236009D01*
X633967Y235989D01*
X633959Y235971D01*
X633941Y235804D01*
X633941Y118648D01*
X633955Y118558D01*
X633963Y118467D01*
X633975Y118437D01*
X633980Y118406D01*
X634023Y118325D01*
X634059Y118241D01*
X634085Y118209D01*
X634096Y118188D01*
X634119Y118166D01*
X634164Y118110D01*
X646891Y105383D01*
X646891Y34317D01*
X636073Y23499D01*
X636005Y23405D01*
X635935Y23310D01*
X635933Y23304D01*
X635929Y23299D01*
X635895Y23188D01*
X635858Y23076D01*
X635858Y23070D01*
X635857Y23064D01*
X635860Y22947D01*
X635861Y22830D01*
X635863Y22823D01*
X635863Y22818D01*
X635869Y22801D01*
X635907Y22669D01*
X637033Y19953D01*
X637033Y15607D01*
X635370Y11593D01*
X632297Y8520D01*
X628283Y6857D01*
X623937Y6857D01*
X619923Y8520D01*
X616850Y11593D01*
X615187Y15607D01*
X615187Y19953D01*
X616850Y23967D01*
X619923Y27040D01*
X623937Y28703D01*
X628283Y28703D01*
X630999Y27577D01*
X631113Y27551D01*
X631226Y27522D01*
X631233Y27523D01*
X631239Y27521D01*
X631355Y27532D01*
X631472Y27541D01*
X631477Y27544D01*
X631484Y27544D01*
X631591Y27592D01*
X631698Y27638D01*
X631704Y27642D01*
X631708Y27644D01*
X631722Y27657D01*
X631829Y27743D01*
X640666Y36580D01*
X640719Y36654D01*
X640779Y36723D01*
X640791Y36754D01*
X640810Y36780D01*
X640837Y36867D01*
X640871Y36952D01*
X640875Y36992D01*
X640882Y37015D01*
X640881Y37047D01*
X640889Y37118D01*
X640889Y102582D01*
X640875Y102672D01*
X640867Y102763D01*
X640855Y102793D01*
X640850Y102824D01*
X640807Y102905D01*
X640771Y102989D01*
X640745Y103021D01*
X640734Y103042D01*
X640711Y103064D01*
X640666Y103120D01*
X627939Y115847D01*
X627939Y235804D01*
X627936Y235824D01*
X627938Y235843D01*
X627916Y235945D01*
X627900Y236047D01*
X627890Y236064D01*
X627886Y236084D01*
X627833Y236173D01*
X627784Y236264D01*
X627770Y236278D01*
X627760Y236295D01*
X627681Y236362D01*
X627606Y236434D01*
X627588Y236442D01*
X627573Y236455D01*
X627477Y236494D01*
X627383Y236537D01*
X627363Y236539D01*
X627345Y236547D01*
X627178Y236565D01*
X627058Y236565D01*
X625978Y237645D01*
X625962Y237657D01*
X625950Y237673D01*
X625862Y237729D01*
X625779Y237789D01*
X625760Y237795D01*
X625743Y237806D01*
X625642Y237831D01*
X625543Y237861D01*
X625524Y237861D01*
X625504Y237866D01*
X625401Y237858D01*
X625298Y237855D01*
X625279Y237848D01*
X625259Y237847D01*
X625164Y237806D01*
X625067Y237771D01*
X625051Y237758D01*
X625033Y237750D01*
X624902Y237645D01*
X623822Y236565D01*
X623702Y236565D01*
X623682Y236562D01*
X623663Y236564D01*
X623561Y236542D01*
X623459Y236526D01*
X623442Y236516D01*
X623422Y236512D01*
X623333Y236459D01*
X623242Y236410D01*
X623228Y236396D01*
X623211Y236386D01*
X623144Y236307D01*
X623072Y236232D01*
X623064Y236214D01*
X623051Y236199D01*
X623012Y236103D01*
X622969Y236009D01*
X622967Y235989D01*
X622959Y235971D01*
X622941Y235804D01*
X622941Y235426D01*
X622955Y235336D01*
X622963Y235245D01*
X622975Y235215D01*
X622980Y235183D01*
X623023Y235102D01*
X623059Y235019D01*
X623085Y234986D01*
X623096Y234966D01*
X623119Y234944D01*
X623164Y234888D01*
X624817Y233235D01*
X624817Y229045D01*
X621855Y226083D01*
X617665Y226083D01*
X615218Y228530D01*
X615202Y228542D01*
X615190Y228558D01*
X615102Y228614D01*
X615019Y228674D01*
X615000Y228680D01*
X614983Y228691D01*
X614882Y228716D01*
X614783Y228746D01*
X614764Y228746D01*
X614744Y228751D01*
X614641Y228743D01*
X614538Y228740D01*
X614519Y228733D01*
X614499Y228732D01*
X614404Y228691D01*
X614307Y228656D01*
X614291Y228643D01*
X614273Y228635D01*
X614142Y228530D01*
X611695Y226083D01*
X607505Y226083D01*
X604543Y229045D01*
X604543Y233235D01*
X605716Y234408D01*
X605758Y234466D01*
X605806Y234516D01*
X605814Y234533D01*
X605829Y234551D01*
X605841Y234581D01*
X605860Y234607D01*
X605883Y234682D01*
X605909Y234739D01*
X605911Y234755D01*
X605921Y234779D01*
X605925Y234820D01*
X605932Y234842D01*
X605931Y234875D01*
X605939Y234946D01*
X605939Y235804D01*
X605936Y235824D01*
X605938Y235843D01*
X605916Y235945D01*
X605900Y236047D01*
X605890Y236064D01*
X605886Y236084D01*
X605833Y236173D01*
X605784Y236264D01*
X605770Y236278D01*
X605760Y236295D01*
X605681Y236362D01*
X605606Y236434D01*
X605588Y236442D01*
X605573Y236455D01*
X605477Y236494D01*
X605383Y236537D01*
X605363Y236539D01*
X605345Y236547D01*
X605178Y236565D01*
X605058Y236565D01*
X603978Y237645D01*
X603962Y237657D01*
X603950Y237673D01*
X603862Y237729D01*
X603779Y237789D01*
X603760Y237795D01*
X603743Y237806D01*
X603642Y237831D01*
X603543Y237861D01*
X603524Y237861D01*
X603504Y237866D01*
X603401Y237858D01*
X603298Y237855D01*
X603279Y237848D01*
X603259Y237847D01*
X603164Y237806D01*
X603067Y237771D01*
X603051Y237758D01*
X603033Y237750D01*
X602902Y237645D01*
X601822Y236565D01*
X601702Y236565D01*
X601682Y236562D01*
X601663Y236564D01*
X601561Y236542D01*
X601459Y236526D01*
X601442Y236516D01*
X601422Y236512D01*
X601333Y236459D01*
X601242Y236410D01*
X601228Y236396D01*
X601211Y236386D01*
X601144Y236307D01*
X601072Y236232D01*
X601064Y236214D01*
X601051Y236199D01*
X601012Y236103D01*
X600969Y236009D01*
X600967Y235989D01*
X600959Y235971D01*
X600941Y235804D01*
X600941Y234566D01*
X600955Y234476D01*
X600963Y234385D01*
X600975Y234355D01*
X600980Y234323D01*
X601023Y234242D01*
X601059Y234159D01*
X601085Y234126D01*
X601096Y234106D01*
X601119Y234084D01*
X601164Y234028D01*
X601957Y233235D01*
X601957Y229045D01*
X598995Y226083D01*
X594805Y226083D01*
X591843Y229045D01*
X591843Y233235D01*
X594078Y235469D01*
X594090Y235485D01*
X594105Y235498D01*
X594161Y235585D01*
X594221Y235669D01*
X594227Y235688D01*
X594238Y235705D01*
X594263Y235805D01*
X594294Y235904D01*
X594293Y235924D01*
X594298Y235943D01*
X594290Y236046D01*
X594287Y236150D01*
X594281Y236169D01*
X594279Y236189D01*
X594239Y236283D01*
X594203Y236381D01*
X594190Y236397D01*
X594183Y236415D01*
X594078Y236546D01*
X592978Y237645D01*
X592962Y237657D01*
X592950Y237673D01*
X592862Y237729D01*
X592779Y237789D01*
X592760Y237795D01*
X592743Y237806D01*
X592642Y237831D01*
X592543Y237861D01*
X592524Y237861D01*
X592504Y237866D01*
X592401Y237858D01*
X592298Y237855D01*
X592279Y237848D01*
X592259Y237847D01*
X592164Y237806D01*
X592067Y237771D01*
X592051Y237758D01*
X592033Y237750D01*
X591902Y237645D01*
X590822Y236565D01*
X583058Y236565D01*
X581978Y237645D01*
X581962Y237657D01*
X581950Y237673D01*
X581862Y237729D01*
X581779Y237789D01*
X581760Y237795D01*
X581743Y237806D01*
X581642Y237831D01*
X581543Y237861D01*
X581524Y237861D01*
X581504Y237866D01*
X581401Y237858D01*
X581298Y237855D01*
X581279Y237848D01*
X581259Y237847D01*
X581164Y237806D01*
X581067Y237771D01*
X581051Y237758D01*
X581033Y237750D01*
X580902Y237645D01*
X579822Y236565D01*
X572058Y236565D01*
X570978Y237645D01*
X570962Y237657D01*
X570950Y237673D01*
X570862Y237729D01*
X570779Y237789D01*
X570760Y237795D01*
X570743Y237806D01*
X570642Y237831D01*
X570543Y237861D01*
X570524Y237861D01*
X570504Y237866D01*
X570401Y237858D01*
X570298Y237855D01*
X570279Y237848D01*
X570259Y237847D01*
X570164Y237806D01*
X570067Y237771D01*
X570051Y237758D01*
X570033Y237750D01*
X569902Y237645D01*
X568822Y236565D01*
X561058Y236565D01*
X559978Y237645D01*
X559962Y237657D01*
X559950Y237673D01*
X559862Y237729D01*
X559779Y237789D01*
X559760Y237795D01*
X559743Y237806D01*
X559642Y237831D01*
X559543Y237861D01*
X559524Y237861D01*
X559504Y237866D01*
X559401Y237858D01*
X559298Y237855D01*
X559279Y237848D01*
X559259Y237847D01*
X559164Y237806D01*
X559067Y237771D01*
X559051Y237758D01*
X559033Y237750D01*
X558902Y237645D01*
X557822Y236565D01*
X557702Y236565D01*
X557682Y236562D01*
X557663Y236564D01*
X557561Y236542D01*
X557459Y236526D01*
X557442Y236516D01*
X557422Y236512D01*
X557333Y236459D01*
X557242Y236410D01*
X557228Y236396D01*
X557211Y236386D01*
X557144Y236307D01*
X557072Y236232D01*
X557064Y236214D01*
X557051Y236199D01*
X557012Y236103D01*
X556969Y236009D01*
X556967Y235989D01*
X556959Y235971D01*
X556941Y235804D01*
X556941Y230117D01*
X549883Y223059D01*
X496762Y223059D01*
X496691Y223048D01*
X496620Y223046D01*
X496571Y223028D01*
X496519Y223020D01*
X496456Y222986D01*
X496389Y222961D01*
X496348Y222929D01*
X496302Y222904D01*
X496253Y222852D01*
X496197Y222808D01*
X496169Y222764D01*
X496133Y222726D01*
X496103Y222661D01*
X496064Y222601D01*
X496051Y222550D01*
X496029Y222503D01*
X496021Y222432D01*
X496004Y222362D01*
X496008Y222310D01*
X496002Y222259D01*
X496017Y222188D01*
X496023Y222117D01*
X496043Y222069D01*
X496054Y222018D01*
X496091Y221957D01*
X496119Y221891D01*
X496164Y221835D01*
X496180Y221807D01*
X496198Y221792D01*
X496224Y221760D01*
X513340Y204644D01*
X513414Y204591D01*
X513483Y204531D01*
X513514Y204519D01*
X513540Y204500D01*
X513627Y204473D01*
X513712Y204439D01*
X513752Y204435D01*
X513775Y204428D01*
X513807Y204429D01*
X513878Y204421D01*
X552982Y204421D01*
X553002Y204424D01*
X553021Y204422D01*
X553123Y204444D01*
X553225Y204460D01*
X553242Y204470D01*
X553262Y204474D01*
X553351Y204527D01*
X553442Y204576D01*
X553456Y204590D01*
X553473Y204600D01*
X553540Y204679D01*
X553612Y204754D01*
X553620Y204772D01*
X553633Y204787D01*
X553672Y204883D01*
X553715Y204977D01*
X553717Y204997D01*
X553725Y205015D01*
X553743Y205182D01*
X553743Y206565D01*
X556705Y209527D01*
X560895Y209527D01*
X562707Y207715D01*
X562723Y207703D01*
X562735Y207687D01*
X562823Y207631D01*
X562906Y207571D01*
X562925Y207565D01*
X562942Y207554D01*
X563043Y207529D01*
X563142Y207499D01*
X563161Y207499D01*
X563181Y207494D01*
X563284Y207502D01*
X563387Y207505D01*
X563406Y207512D01*
X563426Y207513D01*
X563521Y207554D01*
X563618Y207589D01*
X563634Y207602D01*
X563652Y207610D01*
X563783Y207715D01*
X565595Y209527D01*
X569785Y209527D01*
X572747Y206565D01*
X572747Y202375D01*
X571570Y201198D01*
X571558Y201182D01*
X571542Y201170D01*
X571511Y201121D01*
X571506Y201116D01*
X571502Y201106D01*
X571486Y201082D01*
X571426Y200999D01*
X571420Y200980D01*
X571409Y200963D01*
X571384Y200862D01*
X571354Y200763D01*
X571354Y200744D01*
X571349Y200724D01*
X571357Y200621D01*
X571360Y200518D01*
X571367Y200499D01*
X571368Y200479D01*
X571409Y200384D01*
X571444Y200287D01*
X571457Y200271D01*
X571465Y200253D01*
X571570Y200122D01*
X573502Y198190D01*
X573518Y198178D01*
X573530Y198162D01*
X573617Y198106D01*
X573701Y198046D01*
X573721Y198040D01*
X573737Y198029D01*
X573838Y198004D01*
X573937Y197974D01*
X573956Y197974D01*
X573976Y197969D01*
X574079Y197977D01*
X574182Y197980D01*
X574201Y197987D01*
X574221Y197988D01*
X574316Y198029D01*
X574413Y198065D01*
X574429Y198077D01*
X574447Y198085D01*
X574578Y198190D01*
X577025Y200637D01*
X581215Y200637D01*
X584177Y197675D01*
X584177Y193485D01*
X581215Y190523D01*
X578622Y190523D01*
X578532Y190509D01*
X578441Y190501D01*
X578411Y190489D01*
X578380Y190484D01*
X578299Y190441D01*
X578215Y190405D01*
X578183Y190379D01*
X578162Y190368D01*
X578140Y190345D01*
X578084Y190300D01*
X573553Y185769D01*
X504677Y185769D01*
X497280Y193166D01*
X497206Y193219D01*
X497137Y193279D01*
X497106Y193291D01*
X497080Y193310D01*
X496993Y193337D01*
X496908Y193371D01*
X496868Y193375D01*
X496845Y193382D01*
X496813Y193381D01*
X496742Y193389D01*
X485226Y193389D01*
X485206Y193386D01*
X485187Y193388D01*
X485085Y193366D01*
X484983Y193350D01*
X484966Y193340D01*
X484946Y193336D01*
X484857Y193283D01*
X484766Y193234D01*
X484752Y193220D01*
X484735Y193210D01*
X484668Y193131D01*
X484596Y193056D01*
X484588Y193038D01*
X484575Y193023D01*
X484536Y192927D01*
X484493Y192833D01*
X484491Y192813D01*
X484483Y192795D01*
X484465Y192628D01*
X484465Y192508D01*
X483385Y191428D01*
X483373Y191412D01*
X483357Y191400D01*
X483301Y191312D01*
X483241Y191229D01*
X483235Y191210D01*
X483224Y191193D01*
X483199Y191092D01*
X483169Y190993D01*
X483169Y190974D01*
X483164Y190954D01*
X483172Y190851D01*
X483175Y190748D01*
X483182Y190729D01*
X483183Y190709D01*
X483224Y190614D01*
X483259Y190517D01*
X483272Y190501D01*
X483280Y190483D01*
X483385Y190352D01*
X484465Y189272D01*
X484465Y181508D01*
X483385Y180428D01*
X483373Y180412D01*
X483357Y180400D01*
X483301Y180312D01*
X483241Y180229D01*
X483235Y180210D01*
X483224Y180193D01*
X483199Y180092D01*
X483169Y179993D01*
X483169Y179974D01*
X483164Y179954D01*
X483172Y179851D01*
X483175Y179748D01*
X483182Y179729D01*
X483183Y179709D01*
X483224Y179614D01*
X483259Y179517D01*
X483272Y179501D01*
X483280Y179483D01*
X483385Y179352D01*
X484465Y178272D01*
X484465Y170508D01*
X483385Y169428D01*
X483373Y169412D01*
X483357Y169400D01*
X483301Y169312D01*
X483241Y169229D01*
X483235Y169210D01*
X483224Y169193D01*
X483199Y169092D01*
X483169Y168993D01*
X483169Y168974D01*
X483164Y168954D01*
X483172Y168851D01*
X483175Y168748D01*
X483182Y168729D01*
X483183Y168709D01*
X483224Y168614D01*
X483259Y168517D01*
X483272Y168501D01*
X483280Y168483D01*
X483385Y168352D01*
X484465Y167272D01*
X484465Y159508D01*
X483385Y158428D01*
X483373Y158412D01*
X483357Y158400D01*
X483301Y158312D01*
X483241Y158229D01*
X483235Y158210D01*
X483224Y158193D01*
X483199Y158092D01*
X483169Y157993D01*
X483169Y157974D01*
X483164Y157954D01*
X483172Y157851D01*
X483175Y157748D01*
X483182Y157729D01*
X483183Y157709D01*
X483224Y157614D01*
X483259Y157517D01*
X483272Y157501D01*
X483280Y157483D01*
X483385Y157352D01*
X484465Y156272D01*
X484465Y148508D01*
X483572Y147615D01*
X467308Y147615D01*
X466415Y148508D01*
X466415Y156272D01*
X467495Y157352D01*
X467507Y157368D01*
X467523Y157380D01*
X467579Y157468D01*
X467639Y157551D01*
X467645Y157570D01*
X467656Y157587D01*
X467681Y157688D01*
X467711Y157787D01*
X467711Y157806D01*
X467716Y157826D01*
X467708Y157929D01*
X467705Y158032D01*
X467698Y158051D01*
X467697Y158071D01*
X467656Y158166D01*
X467621Y158263D01*
X467608Y158279D01*
X467600Y158297D01*
X467495Y158428D01*
X466415Y159508D01*
X466415Y167272D01*
X467495Y168352D01*
X467507Y168368D01*
X467523Y168380D01*
X467579Y168468D01*
X467639Y168551D01*
X467645Y168570D01*
X467656Y168587D01*
X467681Y168688D01*
X467711Y168787D01*
X467711Y168806D01*
X467716Y168826D01*
X467708Y168929D01*
X467705Y169032D01*
X467698Y169051D01*
X467697Y169071D01*
X467656Y169166D01*
X467621Y169263D01*
X467608Y169279D01*
X467600Y169297D01*
X467495Y169428D01*
X466415Y170508D01*
X466415Y178272D01*
X467495Y179352D01*
X467507Y179368D01*
X467523Y179380D01*
X467579Y179468D01*
X467639Y179551D01*
X467645Y179570D01*
X467656Y179587D01*
X467681Y179688D01*
X467711Y179787D01*
X467711Y179806D01*
X467716Y179826D01*
X467708Y179929D01*
X467705Y180032D01*
X467698Y180051D01*
X467697Y180071D01*
X467656Y180166D01*
X467621Y180263D01*
X467608Y180279D01*
X467600Y180297D01*
X467495Y180428D01*
X466415Y181508D01*
X466415Y189272D01*
X467495Y190352D01*
X467507Y190368D01*
X467523Y190380D01*
X467579Y190468D01*
X467639Y190551D01*
X467645Y190570D01*
X467656Y190587D01*
X467681Y190688D01*
X467711Y190787D01*
X467711Y190806D01*
X467716Y190826D01*
X467708Y190929D01*
X467705Y191032D01*
X467698Y191051D01*
X467697Y191071D01*
X467656Y191166D01*
X467621Y191263D01*
X467608Y191279D01*
X467600Y191297D01*
X467495Y191428D01*
X466415Y192508D01*
X466415Y193966D01*
X466401Y194056D01*
X466393Y194147D01*
X466381Y194177D01*
X466376Y194209D01*
X466333Y194289D01*
X466297Y194373D01*
X466271Y194405D01*
X466260Y194426D01*
X466237Y194448D01*
X466192Y194504D01*
X465549Y195147D01*
X465549Y197633D01*
X466192Y198276D01*
X466245Y198350D01*
X466305Y198419D01*
X466317Y198449D01*
X466336Y198476D01*
X466363Y198563D01*
X466397Y198648D01*
X466401Y198688D01*
X466408Y198711D01*
X466407Y198743D01*
X466415Y198814D01*
X466415Y200272D01*
X467495Y201352D01*
X467507Y201368D01*
X467523Y201380D01*
X467579Y201468D01*
X467639Y201551D01*
X467645Y201570D01*
X467656Y201587D01*
X467681Y201688D01*
X467711Y201787D01*
X467711Y201806D01*
X467716Y201826D01*
X467708Y201929D01*
X467705Y202032D01*
X467698Y202051D01*
X467697Y202071D01*
X467656Y202166D01*
X467621Y202263D01*
X467608Y202279D01*
X467600Y202297D01*
X467495Y202428D01*
X466415Y203508D01*
X466415Y211272D01*
X467495Y212352D01*
X467507Y212368D01*
X467523Y212380D01*
X467553Y212428D01*
X467564Y212440D01*
X467574Y212460D01*
X467579Y212468D01*
X467639Y212551D01*
X467645Y212570D01*
X467656Y212587D01*
X467681Y212688D01*
X467711Y212787D01*
X467711Y212806D01*
X467716Y212826D01*
X467708Y212929D01*
X467705Y213032D01*
X467698Y213051D01*
X467697Y213071D01*
X467656Y213166D01*
X467621Y213263D01*
X467608Y213279D01*
X467600Y213297D01*
X467495Y213428D01*
X466415Y214508D01*
X466415Y222272D01*
X467495Y223352D01*
X467507Y223368D01*
X467523Y223380D01*
X467579Y223468D01*
X467639Y223551D01*
X467645Y223570D01*
X467656Y223587D01*
X467681Y223688D01*
X467711Y223787D01*
X467711Y223806D01*
X467716Y223826D01*
X467708Y223929D01*
X467705Y224032D01*
X467698Y224051D01*
X467697Y224071D01*
X467656Y224166D01*
X467621Y224263D01*
X467608Y224279D01*
X467600Y224297D01*
X467495Y224428D01*
X466415Y225508D01*
X466415Y233272D01*
X467308Y234165D01*
X483706Y234165D01*
X483713Y234162D01*
X483765Y234156D01*
X483814Y234141D01*
X483886Y234143D01*
X483957Y234135D01*
X484008Y234146D01*
X484060Y234147D01*
X484127Y234172D01*
X484198Y234187D01*
X484242Y234214D01*
X484291Y234231D01*
X484347Y234276D01*
X484409Y234313D01*
X484443Y234352D01*
X484483Y234385D01*
X484522Y234445D01*
X484569Y234500D01*
X484588Y234548D01*
X484616Y234592D01*
X484634Y234661D01*
X484661Y234728D01*
X484669Y234799D01*
X484677Y234830D01*
X484675Y234854D01*
X484679Y234895D01*
X484679Y235932D01*
X484665Y236022D01*
X484657Y236113D01*
X484645Y236143D01*
X484640Y236174D01*
X484597Y236255D01*
X484561Y236339D01*
X484535Y236371D01*
X484524Y236392D01*
X484501Y236414D01*
X484456Y236470D01*
X482850Y238076D01*
X482776Y238129D01*
X482707Y238189D01*
X482676Y238201D01*
X482650Y238220D01*
X482563Y238247D01*
X482478Y238281D01*
X482438Y238285D01*
X482415Y238292D01*
X482383Y238291D01*
X482312Y238299D01*
X461298Y238299D01*
X461208Y238285D01*
X461117Y238277D01*
X461087Y238265D01*
X461055Y238260D01*
X460975Y238217D01*
X460891Y238181D01*
X460859Y238155D01*
X460838Y238144D01*
X460836Y238143D01*
X460836Y238142D01*
X460815Y238121D01*
X460760Y238076D01*
X460758Y238074D01*
X460716Y238016D01*
X460667Y237964D01*
X460645Y237917D01*
X460614Y237875D01*
X460593Y237806D01*
X460563Y237741D01*
X460557Y237689D01*
X460542Y237639D01*
X460544Y237568D01*
X460536Y237497D01*
X460547Y237446D01*
X460548Y237394D01*
X460573Y237326D01*
X460588Y237256D01*
X460615Y237212D01*
X460633Y237163D01*
X460678Y237107D01*
X460714Y237045D01*
X460754Y237011D01*
X460787Y236971D01*
X460847Y236932D01*
X460901Y236885D01*
X460950Y236866D01*
X460993Y236838D01*
X461063Y236820D01*
X461129Y236793D01*
X461201Y236785D01*
X461232Y236777D01*
X461255Y236779D01*
X461296Y236775D01*
X462512Y236775D01*
X463405Y235882D01*
X463405Y224618D01*
X462512Y223725D01*
X452248Y223725D01*
X451355Y224618D01*
X451355Y226488D01*
X451352Y226508D01*
X451354Y226527D01*
X451332Y226629D01*
X451316Y226731D01*
X451306Y226748D01*
X451302Y226768D01*
X451249Y226857D01*
X451200Y226948D01*
X451186Y226962D01*
X451176Y226979D01*
X451097Y227046D01*
X451022Y227118D01*
X451004Y227126D01*
X450989Y227139D01*
X450893Y227178D01*
X450799Y227221D01*
X450779Y227223D01*
X450761Y227231D01*
X450594Y227249D01*
X423166Y227249D01*
X423146Y227246D01*
X423127Y227248D01*
X423025Y227226D01*
X422923Y227210D01*
X422906Y227200D01*
X422886Y227196D01*
X422797Y227143D01*
X422706Y227094D01*
X422692Y227080D01*
X422675Y227070D01*
X422608Y226991D01*
X422536Y226916D01*
X422528Y226898D01*
X422515Y226883D01*
X422476Y226787D01*
X422433Y226693D01*
X422431Y226673D01*
X422423Y226655D01*
X422405Y226488D01*
X422405Y224618D01*
X421512Y223725D01*
X411248Y223725D01*
X410355Y224618D01*
X410355Y235882D01*
X411248Y236775D01*
X421512Y236775D01*
X422405Y235882D01*
X422405Y234012D01*
X422408Y233992D01*
X422406Y233973D01*
X422428Y233871D01*
X422444Y233769D01*
X422454Y233752D01*
X422458Y233732D01*
X422511Y233643D01*
X422560Y233552D01*
X422574Y233538D01*
X422584Y233521D01*
X422663Y233454D01*
X422738Y233382D01*
X422756Y233374D01*
X422771Y233361D01*
X422867Y233322D01*
X422961Y233279D01*
X422981Y233277D01*
X422999Y233269D01*
X423166Y233251D01*
X450594Y233251D01*
X450614Y233254D01*
X450633Y233252D01*
X450735Y233274D01*
X450837Y233290D01*
X450854Y233300D01*
X450874Y233304D01*
X450963Y233357D01*
X451054Y233406D01*
X451068Y233420D01*
X451085Y233430D01*
X451152Y233509D01*
X451224Y233584D01*
X451232Y233602D01*
X451245Y233617D01*
X451284Y233713D01*
X451327Y233807D01*
X451329Y233827D01*
X451337Y233845D01*
X451355Y234012D01*
X451355Y235882D01*
X452248Y236775D01*
X453618Y236775D01*
X453638Y236778D01*
X453657Y236776D01*
X453759Y236798D01*
X453861Y236814D01*
X453878Y236824D01*
X453898Y236828D01*
X453987Y236881D01*
X454078Y236930D01*
X454092Y236944D01*
X454109Y236954D01*
X454176Y237033D01*
X454248Y237108D01*
X454256Y237126D01*
X454269Y237141D01*
X454308Y237237D01*
X454351Y237331D01*
X454353Y237351D01*
X454361Y237369D01*
X454379Y237536D01*
X454379Y240183D01*
X456516Y242320D01*
X458497Y244301D01*
X485113Y244301D01*
X490681Y238733D01*
X490681Y234545D01*
X490695Y234455D01*
X490703Y234364D01*
X490715Y234334D01*
X490720Y234302D01*
X490763Y234222D01*
X490799Y234138D01*
X490825Y234106D01*
X490836Y234085D01*
X490859Y234063D01*
X490904Y234007D01*
X492754Y232157D01*
X492812Y232115D01*
X492864Y232066D01*
X492911Y232044D01*
X492953Y232013D01*
X493022Y231992D01*
X493087Y231962D01*
X493139Y231956D01*
X493189Y231941D01*
X493260Y231943D01*
X493331Y231935D01*
X493382Y231946D01*
X493434Y231947D01*
X493502Y231972D01*
X493572Y231987D01*
X493617Y232014D01*
X493665Y232032D01*
X493721Y232077D01*
X493783Y232113D01*
X493817Y232153D01*
X493857Y232185D01*
X493896Y232246D01*
X493943Y232300D01*
X493962Y232349D01*
X493990Y232392D01*
X494008Y232462D01*
X494035Y232528D01*
X494043Y232600D01*
X494051Y232631D01*
X494049Y232654D01*
X494053Y232695D01*
X494053Y234505D01*
X495048Y235499D01*
X495060Y235515D01*
X495075Y235528D01*
X495131Y235615D01*
X495191Y235699D01*
X495197Y235718D01*
X495208Y235735D01*
X495233Y235835D01*
X495264Y235934D01*
X495263Y235954D01*
X495268Y235973D01*
X495260Y236076D01*
X495257Y236180D01*
X495251Y236199D01*
X495249Y236219D01*
X495209Y236313D01*
X495173Y236411D01*
X495161Y236427D01*
X495153Y236445D01*
X495048Y236576D01*
X494165Y237458D01*
X494165Y253722D01*
X495058Y254615D01*
X502822Y254615D01*
X503902Y253535D01*
X503918Y253523D01*
X503930Y253507D01*
X504018Y253451D01*
X504101Y253391D01*
X504120Y253385D01*
X504137Y253374D01*
X504238Y253349D01*
X504337Y253319D01*
X504356Y253319D01*
X504376Y253314D01*
X504479Y253322D01*
X504582Y253325D01*
X504601Y253332D01*
X504621Y253333D01*
X504716Y253374D01*
X504813Y253409D01*
X504829Y253422D01*
X504847Y253430D01*
X504978Y253535D01*
X506088Y254644D01*
X506151Y254654D01*
X506168Y254664D01*
X506188Y254668D01*
X506277Y254721D01*
X506368Y254770D01*
X506382Y254784D01*
X506399Y254794D01*
X506466Y254873D01*
X506538Y254948D01*
X506546Y254966D01*
X506559Y254981D01*
X506598Y255077D01*
X506641Y255171D01*
X506643Y255191D01*
X506651Y255209D01*
X506669Y255376D01*
X506669Y259090D01*
X506655Y259180D01*
X506647Y259271D01*
X506635Y259301D01*
X506630Y259333D01*
X506587Y259413D01*
X506551Y259497D01*
X506525Y259529D01*
X506514Y259550D01*
X506491Y259572D01*
X506446Y259628D01*
X503058Y263016D01*
X502984Y263069D01*
X502915Y263129D01*
X502885Y263141D01*
X502858Y263160D01*
X502771Y263187D01*
X502687Y263221D01*
X502646Y263225D01*
X502623Y263232D01*
X502591Y263231D01*
X502520Y263239D01*
X399061Y263239D01*
X398971Y263225D01*
X398880Y263217D01*
X398850Y263205D01*
X398818Y263200D01*
X398737Y263157D01*
X398653Y263121D01*
X398621Y263095D01*
X398601Y263084D01*
X398578Y263061D01*
X398522Y263016D01*
X384235Y248729D01*
X205115Y248729D01*
X195959Y257885D01*
X195959Y265034D01*
X195956Y265054D01*
X195958Y265073D01*
X195936Y265175D01*
X195920Y265277D01*
X195910Y265294D01*
X195906Y265314D01*
X195853Y265403D01*
X195804Y265494D01*
X195790Y265508D01*
X195780Y265525D01*
X195701Y265592D01*
X195626Y265664D01*
X195608Y265672D01*
X195593Y265685D01*
X195497Y265724D01*
X195403Y265767D01*
X195383Y265769D01*
X195365Y265777D01*
X195198Y265795D01*
X193098Y265795D01*
X192205Y266688D01*
X192205Y279400D01*
X192202Y279420D01*
X192204Y279439D01*
X192182Y279541D01*
X192166Y279643D01*
X192156Y279660D01*
X192152Y279680D01*
X192099Y279769D01*
X192050Y279860D01*
X192036Y279874D01*
X192026Y279891D01*
X191947Y279958D01*
X191872Y280030D01*
X191854Y280038D01*
X191839Y280051D01*
X191743Y280090D01*
X191649Y280133D01*
X191629Y280135D01*
X191611Y280143D01*
X191444Y280161D01*
X187016Y280161D01*
X186996Y280158D01*
X186977Y280160D01*
X186875Y280138D01*
X186773Y280122D01*
X186756Y280112D01*
X186736Y280108D01*
X186647Y280055D01*
X186556Y280006D01*
X186542Y279992D01*
X186525Y279982D01*
X186458Y279903D01*
X186386Y279828D01*
X186378Y279810D01*
X186365Y279795D01*
X186326Y279699D01*
X186283Y279605D01*
X186281Y279585D01*
X186273Y279567D01*
X186255Y279400D01*
X186255Y266688D01*
X185362Y265795D01*
X173098Y265795D01*
X172205Y266688D01*
X172205Y269896D01*
X172194Y269967D01*
X172192Y270039D01*
X172174Y270088D01*
X172166Y270139D01*
X172132Y270202D01*
X172107Y270270D01*
X172075Y270310D01*
X172050Y270356D01*
X171998Y270406D01*
X171954Y270462D01*
X171910Y270490D01*
X171872Y270526D01*
X171807Y270556D01*
X171747Y270595D01*
X171696Y270607D01*
X171649Y270629D01*
X171578Y270637D01*
X171508Y270655D01*
X171456Y270651D01*
X171405Y270656D01*
X171334Y270641D01*
X171263Y270636D01*
X171215Y270615D01*
X171164Y270604D01*
X171103Y270567D01*
X171037Y270539D01*
X170981Y270494D01*
X170953Y270478D01*
X170938Y270460D01*
X170906Y270434D01*
X169735Y269263D01*
X165545Y269263D01*
X162583Y272225D01*
X162583Y276415D01*
X165030Y278862D01*
X165072Y278920D01*
X165122Y278972D01*
X165144Y279019D01*
X165174Y279061D01*
X165195Y279130D01*
X165225Y279195D01*
X165231Y279247D01*
X165246Y279297D01*
X165244Y279368D01*
X165252Y279439D01*
X165241Y279490D01*
X165240Y279542D01*
X165215Y279610D01*
X165200Y279680D01*
X165173Y279724D01*
X165156Y279773D01*
X165111Y279829D01*
X165074Y279891D01*
X165034Y279925D01*
X165002Y279965D01*
X164942Y280004D01*
X164887Y280051D01*
X164839Y280070D01*
X164795Y280098D01*
X164725Y280116D01*
X164659Y280143D01*
X164588Y280151D01*
X164556Y280159D01*
X164533Y280157D01*
X164492Y280161D01*
X151130Y280161D01*
X151110Y280158D01*
X151091Y280160D01*
X150989Y280138D01*
X150887Y280122D01*
X150870Y280112D01*
X150850Y280108D01*
X150761Y280055D01*
X150670Y280006D01*
X150656Y279992D01*
X150639Y279982D01*
X150572Y279903D01*
X150501Y279828D01*
X150492Y279810D01*
X150479Y279795D01*
X150440Y279699D01*
X150397Y279605D01*
X150395Y279585D01*
X150387Y279567D01*
X150369Y279400D01*
X150369Y241300D01*
X150384Y241210D01*
X150391Y241119D01*
X150403Y241089D01*
X150409Y241057D01*
X150451Y240977D01*
X150487Y240893D01*
X150513Y240861D01*
X150524Y240840D01*
X150547Y240818D01*
X150592Y240762D01*
X156942Y234412D01*
X157016Y234359D01*
X157085Y234299D01*
X157115Y234287D01*
X157141Y234268D01*
X157228Y234241D01*
X157313Y234207D01*
X157354Y234203D01*
X157377Y234196D01*
X157409Y234197D01*
X157480Y234189D01*
X403099Y234189D01*
X403099Y182371D01*
X370840Y182371D01*
X370820Y182368D01*
X370801Y182370D01*
X370699Y182348D01*
X370597Y182332D01*
X370580Y182322D01*
X370560Y182318D01*
X370471Y182265D01*
X370380Y182216D01*
X370366Y182202D01*
X370349Y182192D01*
X370282Y182113D01*
X370211Y182038D01*
X370202Y182020D01*
X370189Y182005D01*
X370150Y181909D01*
X370107Y181815D01*
X370105Y181795D01*
X370097Y181777D01*
X370079Y181610D01*
X370079Y160020D01*
X370094Y159930D01*
X370101Y159839D01*
X370113Y159809D01*
X370119Y159777D01*
X370138Y159741D01*
X370140Y159733D01*
X370161Y159696D01*
X370197Y159613D01*
X370223Y159581D01*
X370234Y159560D01*
X370255Y159540D01*
X370266Y159522D01*
X370279Y159510D01*
X370302Y159482D01*
X377922Y151862D01*
X377996Y151809D01*
X378065Y151749D01*
X378095Y151737D01*
X378121Y151718D01*
X378208Y151691D01*
X378293Y151657D01*
X378334Y151653D01*
X378357Y151646D01*
X378389Y151647D01*
X378460Y151639D01*
X403099Y151639D01*
X403099Y135692D01*
X403102Y135672D01*
X403100Y135653D01*
X403122Y135551D01*
X403139Y135449D01*
X403148Y135432D01*
X403152Y135412D01*
X403205Y135323D01*
X403254Y135232D01*
X403268Y135218D01*
X403278Y135201D01*
X403357Y135134D01*
X403432Y135062D01*
X403450Y135054D01*
X403465Y135041D01*
X403561Y135002D01*
X403655Y134959D01*
X403675Y134957D01*
X403693Y134949D01*
X403860Y134931D01*
X466759Y134931D01*
X466849Y134945D01*
X466940Y134953D01*
X466970Y134965D01*
X467002Y134970D01*
X467082Y135013D01*
X467167Y135049D01*
X467199Y135075D01*
X467219Y135086D01*
X467241Y135109D01*
X467297Y135154D01*
X467308Y135165D01*
X483572Y135165D01*
X484599Y134138D01*
X484673Y134085D01*
X484742Y134025D01*
X484772Y134013D01*
X484798Y133994D01*
X484885Y133967D01*
X484970Y133933D01*
X485011Y133929D01*
X485033Y133922D01*
X485066Y133923D01*
X485137Y133915D01*
X489560Y133915D01*
X493745Y129730D01*
X493745Y91239D01*
X493756Y91168D01*
X493758Y91096D01*
X493776Y91047D01*
X493784Y90996D01*
X493818Y90933D01*
X493843Y90865D01*
X493875Y90825D01*
X493900Y90779D01*
X493951Y90729D01*
X493996Y90673D01*
X494040Y90645D01*
X494078Y90609D01*
X494143Y90579D01*
X494203Y90540D01*
X494254Y90528D01*
X494301Y90506D01*
X494372Y90498D01*
X494442Y90480D01*
X494494Y90484D01*
X494545Y90479D01*
X494616Y90494D01*
X494687Y90499D01*
X494735Y90520D01*
X494786Y90531D01*
X494847Y90568D01*
X494913Y90596D01*
X494969Y90641D01*
X494997Y90657D01*
X495012Y90675D01*
X495044Y90701D01*
X495058Y90715D01*
X502822Y90715D01*
X503902Y89635D01*
X503918Y89623D01*
X503930Y89607D01*
X504018Y89551D01*
X504101Y89491D01*
X504120Y89485D01*
X504137Y89474D01*
X504238Y89449D01*
X504337Y89419D01*
X504356Y89419D01*
X504376Y89414D01*
X504479Y89422D01*
X504582Y89425D01*
X504601Y89432D01*
X504621Y89433D01*
X504716Y89474D01*
X504813Y89509D01*
X504829Y89522D01*
X504847Y89530D01*
X504978Y89635D01*
X506058Y90715D01*
X513822Y90715D01*
X514902Y89635D01*
X514918Y89623D01*
X514930Y89607D01*
X515018Y89551D01*
X515101Y89491D01*
X515120Y89485D01*
X515137Y89474D01*
X515238Y89449D01*
X515337Y89419D01*
X515356Y89419D01*
X515376Y89414D01*
X515479Y89422D01*
X515582Y89425D01*
X515601Y89432D01*
X515621Y89433D01*
X515716Y89474D01*
X515813Y89509D01*
X515829Y89522D01*
X515847Y89530D01*
X515978Y89635D01*
X517058Y90715D01*
X524822Y90715D01*
X525902Y89635D01*
X525918Y89623D01*
X525930Y89607D01*
X526018Y89551D01*
X526101Y89491D01*
X526120Y89485D01*
X526137Y89474D01*
X526238Y89449D01*
X526337Y89419D01*
X526356Y89419D01*
X526376Y89414D01*
X526479Y89422D01*
X526582Y89425D01*
X526601Y89432D01*
X526621Y89433D01*
X526716Y89474D01*
X526813Y89509D01*
X526829Y89522D01*
X526847Y89530D01*
X526978Y89635D01*
X528058Y90715D01*
X535822Y90715D01*
X536902Y89635D01*
X536918Y89623D01*
X536930Y89607D01*
X537018Y89551D01*
X537101Y89491D01*
X537120Y89485D01*
X537137Y89474D01*
X537238Y89449D01*
X537337Y89419D01*
X537356Y89419D01*
X537376Y89414D01*
X537479Y89422D01*
X537582Y89425D01*
X537601Y89432D01*
X537621Y89433D01*
X537716Y89474D01*
X537813Y89509D01*
X537829Y89522D01*
X537847Y89530D01*
X537978Y89635D01*
X539058Y90715D01*
X546822Y90715D01*
X547902Y89635D01*
X547918Y89623D01*
X547930Y89607D01*
X548018Y89551D01*
X548101Y89491D01*
X548120Y89485D01*
X548137Y89474D01*
X548238Y89449D01*
X548337Y89419D01*
X548356Y89419D01*
X548376Y89414D01*
X548479Y89422D01*
X548582Y89425D01*
X548601Y89432D01*
X548621Y89433D01*
X548716Y89474D01*
X548813Y89509D01*
X548829Y89522D01*
X548847Y89530D01*
X548978Y89635D01*
X550058Y90715D01*
X557822Y90715D01*
X558902Y89635D01*
X558918Y89623D01*
X558930Y89607D01*
X559018Y89551D01*
X559101Y89491D01*
X559120Y89485D01*
X559137Y89474D01*
X559238Y89449D01*
X559337Y89419D01*
X559356Y89419D01*
X559376Y89414D01*
X559479Y89422D01*
X559582Y89425D01*
X559601Y89432D01*
X559621Y89433D01*
X559716Y89474D01*
X559813Y89509D01*
X559829Y89522D01*
X559847Y89530D01*
X559978Y89635D01*
X561058Y90715D01*
X568822Y90715D01*
X569902Y89635D01*
X569918Y89623D01*
X569930Y89607D01*
X570018Y89551D01*
X570101Y89491D01*
X570120Y89485D01*
X570137Y89474D01*
X570238Y89449D01*
X570337Y89419D01*
X570356Y89419D01*
X570376Y89414D01*
X570479Y89422D01*
X570582Y89425D01*
X570601Y89432D01*
X570621Y89433D01*
X570716Y89474D01*
X570813Y89509D01*
X570829Y89522D01*
X570847Y89530D01*
X570978Y89635D01*
X572058Y90715D01*
X579822Y90715D01*
X580902Y89635D01*
X580918Y89623D01*
X580930Y89607D01*
X581018Y89551D01*
X581101Y89491D01*
X581120Y89485D01*
X581137Y89474D01*
X581238Y89449D01*
X581337Y89419D01*
X581356Y89419D01*
X581376Y89414D01*
X581479Y89422D01*
X581582Y89425D01*
X581601Y89432D01*
X581621Y89433D01*
X581716Y89474D01*
X581813Y89509D01*
X581829Y89522D01*
X581847Y89530D01*
X581978Y89635D01*
X583058Y90715D01*
X590822Y90715D01*
X591902Y89635D01*
X591918Y89623D01*
X591930Y89607D01*
X592018Y89551D01*
X592101Y89491D01*
X592120Y89485D01*
X592137Y89474D01*
X592238Y89449D01*
X592337Y89419D01*
X592356Y89419D01*
X592376Y89414D01*
X592479Y89422D01*
X592582Y89425D01*
X592601Y89432D01*
X592621Y89433D01*
X592716Y89474D01*
X592813Y89509D01*
X592829Y89522D01*
X592847Y89530D01*
X592978Y89635D01*
X594058Y90715D01*
X601822Y90715D01*
X602902Y89635D01*
X602918Y89623D01*
X602930Y89607D01*
X603018Y89551D01*
X603101Y89491D01*
X603120Y89485D01*
X603137Y89474D01*
X603238Y89449D01*
X603337Y89419D01*
X603356Y89419D01*
X603376Y89414D01*
X603479Y89422D01*
X603582Y89425D01*
X603601Y89432D01*
X603621Y89433D01*
X603716Y89474D01*
X603813Y89509D01*
X603829Y89522D01*
X603847Y89530D01*
X603978Y89635D01*
X605058Y90715D01*
X612822Y90715D01*
X613902Y89635D01*
X613918Y89623D01*
X613930Y89607D01*
X614018Y89551D01*
X614101Y89491D01*
X614120Y89485D01*
X614137Y89474D01*
X614238Y89449D01*
X614337Y89419D01*
X614356Y89419D01*
X614376Y89414D01*
X614479Y89422D01*
X614582Y89425D01*
X614601Y89432D01*
X614621Y89433D01*
X614716Y89474D01*
X614813Y89509D01*
X614829Y89522D01*
X614847Y89530D01*
X614978Y89635D01*
X616058Y90715D01*
X623822Y90715D01*
X624715Y89822D01*
X624715Y73558D01*
X623822Y72665D01*
X616058Y72665D01*
X614978Y73745D01*
X614962Y73757D01*
X614950Y73773D01*
X614862Y73829D01*
X614779Y73889D01*
X614760Y73895D01*
X614743Y73906D01*
X614642Y73931D01*
X614543Y73961D01*
X614524Y73961D01*
X614504Y73966D01*
X614401Y73958D01*
X614298Y73955D01*
X614279Y73948D01*
X614259Y73947D01*
X614164Y73906D01*
X614067Y73871D01*
X614051Y73858D01*
X614033Y73850D01*
X613902Y73745D01*
X612822Y72665D01*
X605058Y72665D01*
X603978Y73745D01*
X603962Y73757D01*
X603950Y73773D01*
X603862Y73829D01*
X603779Y73889D01*
X603760Y73895D01*
X603743Y73906D01*
X603642Y73931D01*
X603543Y73961D01*
X603524Y73961D01*
X603504Y73966D01*
X603401Y73958D01*
X603298Y73955D01*
X603279Y73948D01*
X603259Y73947D01*
X603164Y73906D01*
X603067Y73871D01*
X603051Y73858D01*
X603033Y73850D01*
X602902Y73745D01*
X601822Y72665D01*
X601702Y72665D01*
X601682Y72662D01*
X601663Y72664D01*
X601561Y72642D01*
X601459Y72626D01*
X601442Y72616D01*
X601422Y72612D01*
X601333Y72559D01*
X601242Y72510D01*
X601228Y72496D01*
X601211Y72486D01*
X601144Y72407D01*
X601072Y72332D01*
X601064Y72314D01*
X601051Y72299D01*
X601012Y72203D01*
X600969Y72109D01*
X600967Y72089D01*
X600959Y72071D01*
X600941Y71904D01*
X600941Y70368D01*
X600955Y70278D01*
X600963Y70187D01*
X600975Y70157D01*
X600980Y70126D01*
X601023Y70045D01*
X601059Y69961D01*
X601085Y69929D01*
X601096Y69908D01*
X601119Y69886D01*
X601164Y69830D01*
X615633Y55361D01*
X615633Y49988D01*
X615644Y49917D01*
X615646Y49845D01*
X615664Y49796D01*
X615672Y49745D01*
X615706Y49682D01*
X615731Y49614D01*
X615763Y49574D01*
X615788Y49527D01*
X615840Y49478D01*
X615884Y49422D01*
X615928Y49394D01*
X615966Y49358D01*
X616031Y49328D01*
X616091Y49289D01*
X616142Y49276D01*
X616189Y49254D01*
X616260Y49247D01*
X616330Y49229D01*
X616382Y49233D01*
X616433Y49227D01*
X616504Y49243D01*
X616575Y49248D01*
X616623Y49269D01*
X616674Y49280D01*
X616735Y49316D01*
X616801Y49345D01*
X616857Y49389D01*
X616885Y49406D01*
X616900Y49424D01*
X616932Y49449D01*
X619923Y52440D01*
X623937Y54103D01*
X628283Y54103D01*
X632297Y52440D01*
X635370Y49367D01*
X637033Y45353D01*
X637033Y41007D01*
X635370Y36993D01*
X632297Y33920D01*
X628283Y32257D01*
X623937Y32257D01*
X619923Y33920D01*
X616932Y36911D01*
X616874Y36953D01*
X616822Y37002D01*
X616775Y37024D01*
X616733Y37054D01*
X616664Y37075D01*
X616599Y37106D01*
X616547Y37111D01*
X616497Y37127D01*
X616426Y37125D01*
X616355Y37133D01*
X616304Y37122D01*
X616252Y37120D01*
X616184Y37096D01*
X616114Y37080D01*
X616069Y37054D01*
X616021Y37036D01*
X615965Y36991D01*
X615903Y36954D01*
X615869Y36915D01*
X615829Y36882D01*
X615790Y36822D01*
X615743Y36767D01*
X615724Y36719D01*
X615696Y36675D01*
X615678Y36606D01*
X615651Y36539D01*
X615643Y36468D01*
X615635Y36437D01*
X615637Y36413D01*
X615633Y36372D01*
X615633Y28459D01*
X610673Y23499D01*
X610605Y23405D01*
X610535Y23310D01*
X610533Y23304D01*
X610529Y23299D01*
X610495Y23188D01*
X610458Y23076D01*
X610458Y23070D01*
X610457Y23064D01*
X610460Y22947D01*
X610461Y22830D01*
X610463Y22823D01*
X610463Y22818D01*
X610469Y22801D01*
X610507Y22669D01*
X611633Y19953D01*
X611633Y15607D01*
X609970Y11593D01*
X606897Y8520D01*
X602883Y6857D01*
X598537Y6857D01*
X594523Y8520D01*
X591450Y11593D01*
X589787Y15607D01*
X589787Y19953D01*
X591450Y23967D01*
X594523Y27040D01*
X598537Y28703D01*
X602883Y28703D01*
X605599Y27577D01*
X605713Y27551D01*
X605826Y27522D01*
X605833Y27523D01*
X605839Y27521D01*
X605955Y27532D01*
X606072Y27541D01*
X606077Y27544D01*
X606084Y27544D01*
X606191Y27592D01*
X606298Y27638D01*
X606304Y27642D01*
X606308Y27644D01*
X606322Y27657D01*
X606429Y27743D01*
X609408Y30722D01*
X609461Y30796D01*
X609521Y30865D01*
X609533Y30896D01*
X609552Y30922D01*
X609579Y31009D01*
X609613Y31094D01*
X609617Y31134D01*
X609624Y31157D01*
X609623Y31189D01*
X609631Y31260D01*
X609631Y34816D01*
X609620Y34887D01*
X609618Y34959D01*
X609600Y35008D01*
X609592Y35059D01*
X609558Y35122D01*
X609533Y35190D01*
X609501Y35230D01*
X609476Y35277D01*
X609424Y35326D01*
X609380Y35382D01*
X609336Y35410D01*
X609298Y35446D01*
X609233Y35476D01*
X609173Y35515D01*
X609122Y35528D01*
X609075Y35550D01*
X609004Y35557D01*
X608934Y35575D01*
X608882Y35571D01*
X608831Y35577D01*
X608760Y35561D01*
X608689Y35556D01*
X608641Y35535D01*
X608590Y35524D01*
X608529Y35488D01*
X608463Y35459D01*
X608407Y35415D01*
X608379Y35398D01*
X608364Y35380D01*
X608332Y35355D01*
X606897Y33920D01*
X602883Y32257D01*
X598537Y32257D01*
X594523Y33920D01*
X591450Y36993D01*
X589787Y41007D01*
X589787Y45353D01*
X591450Y49367D01*
X594523Y52440D01*
X598537Y54103D01*
X602883Y54103D01*
X606897Y52440D01*
X608332Y51005D01*
X608390Y50963D01*
X608442Y50914D01*
X608489Y50892D01*
X608531Y50862D01*
X608600Y50841D01*
X608665Y50810D01*
X608717Y50805D01*
X608767Y50789D01*
X608838Y50791D01*
X608909Y50783D01*
X608960Y50794D01*
X609012Y50796D01*
X609080Y50820D01*
X609150Y50836D01*
X609195Y50862D01*
X609243Y50880D01*
X609299Y50925D01*
X609361Y50962D01*
X609395Y51001D01*
X609435Y51034D01*
X609474Y51094D01*
X609521Y51149D01*
X609540Y51197D01*
X609568Y51241D01*
X609586Y51310D01*
X609613Y51377D01*
X609621Y51448D01*
X609629Y51479D01*
X609627Y51503D01*
X609631Y51544D01*
X609631Y52560D01*
X609617Y52650D01*
X609609Y52741D01*
X609597Y52771D01*
X609592Y52802D01*
X609549Y52883D01*
X609513Y52967D01*
X609487Y52999D01*
X609476Y53020D01*
X609453Y53042D01*
X609408Y53098D01*
X594939Y67567D01*
X594939Y71904D01*
X594936Y71924D01*
X594938Y71943D01*
X594916Y72045D01*
X594900Y72147D01*
X594890Y72164D01*
X594886Y72184D01*
X594833Y72273D01*
X594784Y72364D01*
X594770Y72378D01*
X594760Y72395D01*
X594681Y72462D01*
X594606Y72534D01*
X594588Y72542D01*
X594573Y72555D01*
X594477Y72594D01*
X594383Y72637D01*
X594363Y72639D01*
X594345Y72647D01*
X594178Y72665D01*
X594058Y72665D01*
X592978Y73745D01*
X592962Y73757D01*
X592950Y73773D01*
X592862Y73829D01*
X592779Y73889D01*
X592760Y73895D01*
X592743Y73906D01*
X592642Y73931D01*
X592543Y73961D01*
X592524Y73961D01*
X592504Y73966D01*
X592401Y73958D01*
X592298Y73955D01*
X592279Y73948D01*
X592259Y73947D01*
X592164Y73906D01*
X592067Y73871D01*
X592051Y73858D01*
X592033Y73850D01*
X591902Y73745D01*
X590822Y72665D01*
X583058Y72665D01*
X581978Y73745D01*
X581962Y73757D01*
X581950Y73773D01*
X581862Y73829D01*
X581779Y73889D01*
X581760Y73895D01*
X581743Y73906D01*
X581642Y73931D01*
X581543Y73961D01*
X581524Y73961D01*
X581504Y73966D01*
X581401Y73958D01*
X581298Y73955D01*
X581279Y73948D01*
X581259Y73947D01*
X581164Y73906D01*
X581067Y73871D01*
X581051Y73858D01*
X581033Y73850D01*
X580902Y73745D01*
X579822Y72665D01*
X572058Y72665D01*
X570978Y73745D01*
X570962Y73757D01*
X570950Y73773D01*
X570862Y73829D01*
X570779Y73889D01*
X570760Y73895D01*
X570743Y73906D01*
X570642Y73931D01*
X570543Y73961D01*
X570524Y73961D01*
X570504Y73966D01*
X570401Y73958D01*
X570298Y73955D01*
X570279Y73948D01*
X570259Y73947D01*
X570164Y73906D01*
X570067Y73871D01*
X570051Y73858D01*
X570033Y73850D01*
X569902Y73745D01*
X568822Y72665D01*
X561058Y72665D01*
X559978Y73745D01*
X559962Y73757D01*
X559950Y73773D01*
X559862Y73829D01*
X559779Y73889D01*
X559760Y73895D01*
X559743Y73906D01*
X559642Y73931D01*
X559543Y73961D01*
X559524Y73961D01*
X559504Y73966D01*
X559401Y73958D01*
X559298Y73955D01*
X559279Y73948D01*
X559259Y73947D01*
X559164Y73906D01*
X559067Y73871D01*
X559051Y73858D01*
X559033Y73850D01*
X558902Y73745D01*
X557822Y72665D01*
X550058Y72665D01*
X548978Y73745D01*
X548962Y73757D01*
X548950Y73773D01*
X548862Y73829D01*
X548779Y73889D01*
X548760Y73895D01*
X548743Y73906D01*
X548642Y73931D01*
X548543Y73961D01*
X548524Y73961D01*
X548504Y73966D01*
X548401Y73958D01*
X548298Y73955D01*
X548279Y73948D01*
X548259Y73947D01*
X548164Y73906D01*
X548067Y73871D01*
X548051Y73858D01*
X548033Y73850D01*
X547902Y73745D01*
X546822Y72665D01*
X539058Y72665D01*
X537978Y73745D01*
X537962Y73757D01*
X537950Y73773D01*
X537862Y73829D01*
X537779Y73889D01*
X537760Y73895D01*
X537743Y73906D01*
X537642Y73931D01*
X537543Y73961D01*
X537524Y73961D01*
X537504Y73966D01*
X537401Y73958D01*
X537298Y73955D01*
X537279Y73948D01*
X537259Y73947D01*
X537164Y73906D01*
X537067Y73871D01*
X537051Y73858D01*
X537033Y73850D01*
X536902Y73745D01*
X535822Y72665D01*
X528058Y72665D01*
X526978Y73745D01*
X526962Y73757D01*
X526950Y73773D01*
X526862Y73829D01*
X526779Y73889D01*
X526760Y73895D01*
X526743Y73906D01*
X526642Y73931D01*
X526543Y73961D01*
X526524Y73961D01*
X526504Y73966D01*
X526401Y73958D01*
X526298Y73955D01*
X526279Y73948D01*
X526259Y73947D01*
X526164Y73906D01*
X526067Y73871D01*
X526051Y73858D01*
X526033Y73850D01*
X525902Y73745D01*
X524822Y72665D01*
X517058Y72665D01*
X515978Y73745D01*
X515962Y73757D01*
X515950Y73773D01*
X515862Y73829D01*
X515779Y73889D01*
X515760Y73895D01*
X515743Y73906D01*
X515642Y73931D01*
X515543Y73961D01*
X515524Y73961D01*
X515504Y73966D01*
X515401Y73958D01*
X515298Y73955D01*
X515279Y73948D01*
X515259Y73947D01*
X515164Y73906D01*
X515067Y73871D01*
X515051Y73858D01*
X515033Y73850D01*
X514902Y73745D01*
X513822Y72665D01*
X506058Y72665D01*
X504978Y73745D01*
X504962Y73757D01*
X504950Y73773D01*
X504862Y73829D01*
X504779Y73889D01*
X504760Y73895D01*
X504743Y73906D01*
X504642Y73931D01*
X504543Y73961D01*
X504524Y73961D01*
X504504Y73966D01*
X504401Y73958D01*
X504298Y73955D01*
X504279Y73948D01*
X504259Y73947D01*
X504164Y73906D01*
X504067Y73871D01*
X504051Y73858D01*
X504033Y73850D01*
X503902Y73745D01*
X502822Y72665D01*
X495058Y72665D01*
X495044Y72679D01*
X494986Y72721D01*
X494934Y72771D01*
X494887Y72793D01*
X494845Y72823D01*
X494776Y72844D01*
X494711Y72874D01*
X494659Y72880D01*
X494609Y72895D01*
X494538Y72893D01*
X494467Y72901D01*
X494416Y72890D01*
X494364Y72889D01*
X494296Y72864D01*
X494226Y72849D01*
X494181Y72822D01*
X494133Y72805D01*
X494077Y72760D01*
X494015Y72723D01*
X493981Y72683D01*
X493941Y72651D01*
X493902Y72591D01*
X493855Y72536D01*
X493836Y72488D01*
X493808Y72444D01*
X493790Y72375D01*
X493763Y72308D01*
X493755Y72237D01*
X493747Y72205D01*
X493749Y72182D01*
X493745Y72141D01*
X493745Y71625D01*
X493759Y71535D01*
X493767Y71444D01*
X493779Y71415D01*
X493784Y71383D01*
X493827Y71302D01*
X493863Y71218D01*
X493889Y71186D01*
X493900Y71165D01*
X493923Y71143D01*
X493968Y71087D01*
X497807Y67248D01*
X497881Y67195D01*
X497950Y67135D01*
X497981Y67123D01*
X498007Y67104D01*
X498094Y67077D01*
X498179Y67043D01*
X498220Y67039D01*
X498242Y67032D01*
X498274Y67033D01*
X498345Y67025D01*
X531050Y67025D01*
X537177Y60898D01*
X539465Y58610D01*
X539465Y50020D01*
X539476Y49949D01*
X539478Y49877D01*
X539496Y49828D01*
X539504Y49777D01*
X539538Y49714D01*
X539563Y49646D01*
X539595Y49606D01*
X539620Y49559D01*
X539672Y49510D01*
X539716Y49454D01*
X539760Y49426D01*
X539798Y49390D01*
X539863Y49360D01*
X539923Y49321D01*
X539974Y49308D01*
X540021Y49286D01*
X540092Y49279D01*
X540162Y49261D01*
X540214Y49265D01*
X540265Y49259D01*
X540336Y49275D01*
X540407Y49280D01*
X540455Y49301D01*
X540506Y49312D01*
X540567Y49348D01*
X540633Y49377D01*
X540689Y49421D01*
X540717Y49438D01*
X540732Y49456D01*
X540764Y49481D01*
X543723Y52440D01*
X547737Y54103D01*
X552083Y54103D01*
X556097Y52440D01*
X559170Y49367D01*
X560833Y45353D01*
X560833Y41007D01*
X559170Y36993D01*
X556097Y33920D01*
X552083Y32257D01*
X547737Y32257D01*
X543723Y33920D01*
X540764Y36879D01*
X540706Y36921D01*
X540654Y36970D01*
X540607Y36992D01*
X540565Y37022D01*
X540496Y37043D01*
X540431Y37074D01*
X540379Y37079D01*
X540329Y37095D01*
X540258Y37093D01*
X540187Y37101D01*
X540136Y37090D01*
X540084Y37088D01*
X540016Y37064D01*
X539946Y37048D01*
X539901Y37022D01*
X539853Y37004D01*
X539797Y36959D01*
X539735Y36922D01*
X539701Y36883D01*
X539661Y36850D01*
X539622Y36790D01*
X539575Y36735D01*
X539556Y36687D01*
X539528Y36643D01*
X539510Y36574D01*
X539483Y36507D01*
X539475Y36436D01*
X539467Y36405D01*
X539469Y36381D01*
X539465Y36340D01*
X539465Y27175D01*
X539479Y27085D01*
X539487Y26994D01*
X539499Y26965D01*
X539504Y26933D01*
X539547Y26852D01*
X539583Y26768D01*
X539609Y26736D01*
X539620Y26715D01*
X539643Y26693D01*
X539688Y26637D01*
X540966Y25359D01*
X540982Y25348D01*
X540994Y25332D01*
X541081Y25276D01*
X541165Y25216D01*
X541184Y25210D01*
X541201Y25199D01*
X541302Y25174D01*
X541400Y25143D01*
X541420Y25144D01*
X541440Y25139D01*
X541543Y25147D01*
X541646Y25150D01*
X541665Y25157D01*
X541685Y25158D01*
X541780Y25198D01*
X541877Y25234D01*
X541893Y25247D01*
X541911Y25254D01*
X542042Y25359D01*
X543723Y27040D01*
X547737Y28703D01*
X552083Y28703D01*
X556097Y27040D01*
X559170Y23967D01*
X560833Y19953D01*
X560833Y15607D01*
X559170Y11593D01*
X556097Y8520D01*
X552083Y6857D01*
X547737Y6857D01*
X543723Y8520D01*
X540650Y11593D01*
X538987Y15607D01*
X538987Y17053D01*
X538973Y17143D01*
X538965Y17234D01*
X538953Y17263D01*
X538948Y17295D01*
X538905Y17376D01*
X538869Y17460D01*
X538843Y17492D01*
X538832Y17513D01*
X538809Y17535D01*
X538764Y17591D01*
X532415Y23940D01*
X532415Y55375D01*
X532401Y55465D01*
X532393Y55556D01*
X532381Y55585D01*
X532376Y55617D01*
X532333Y55698D01*
X532297Y55782D01*
X532271Y55814D01*
X532260Y55835D01*
X532237Y55857D01*
X532192Y55913D01*
X528353Y59752D01*
X528279Y59805D01*
X528210Y59865D01*
X528179Y59877D01*
X528153Y59896D01*
X528066Y59923D01*
X527981Y59957D01*
X527940Y59961D01*
X527918Y59968D01*
X527886Y59967D01*
X527815Y59975D01*
X495110Y59975D01*
X486695Y68390D01*
X486695Y76994D01*
X486692Y77014D01*
X486694Y77033D01*
X486672Y77135D01*
X486656Y77237D01*
X486646Y77254D01*
X486642Y77274D01*
X486589Y77363D01*
X486540Y77454D01*
X486526Y77468D01*
X486516Y77485D01*
X486437Y77552D01*
X486362Y77624D01*
X486344Y77632D01*
X486329Y77645D01*
X486233Y77684D01*
X486139Y77727D01*
X486119Y77729D01*
X486101Y77737D01*
X485934Y77755D01*
X455165Y77755D01*
X455075Y77741D01*
X454984Y77733D01*
X454955Y77721D01*
X454923Y77716D01*
X454842Y77673D01*
X454758Y77637D01*
X454726Y77611D01*
X454705Y77600D01*
X454683Y77577D01*
X454627Y77532D01*
X444438Y67343D01*
X444385Y67269D01*
X444325Y67200D01*
X444313Y67169D01*
X444294Y67143D01*
X444267Y67056D01*
X444233Y66971D01*
X444229Y66930D01*
X444222Y66908D01*
X444223Y66876D01*
X444215Y66805D01*
X444215Y50932D01*
X444229Y50842D01*
X444237Y50751D01*
X444249Y50721D01*
X444254Y50689D01*
X444297Y50608D01*
X444333Y50525D01*
X444359Y50492D01*
X444370Y50472D01*
X444393Y50450D01*
X444438Y50394D01*
X445747Y49085D01*
X445747Y44895D01*
X442785Y41933D01*
X438595Y41933D01*
X437286Y43242D01*
X437212Y43295D01*
X437143Y43355D01*
X437113Y43367D01*
X437087Y43386D01*
X437000Y43413D01*
X436915Y43447D01*
X436874Y43451D01*
X436852Y43458D01*
X436819Y43457D01*
X436748Y43465D01*
X389864Y43465D01*
X389790Y43448D01*
X389715Y43435D01*
X389705Y43428D01*
X389695Y43426D01*
X389667Y43402D01*
X389595Y43354D01*
X388175Y41933D01*
X383985Y41933D01*
X382565Y43354D01*
X382500Y43394D01*
X382438Y43438D01*
X382426Y43440D01*
X382418Y43445D01*
X382381Y43449D01*
X382296Y43465D01*
X332714Y43465D01*
X332640Y43448D01*
X332565Y43435D01*
X332555Y43428D01*
X332545Y43426D01*
X332517Y43402D01*
X332445Y43354D01*
X331025Y41933D01*
X326835Y41933D01*
X325415Y43354D01*
X325350Y43394D01*
X325288Y43438D01*
X325276Y43440D01*
X325268Y43445D01*
X325231Y43449D01*
X325146Y43465D01*
X273024Y43465D01*
X272950Y43448D01*
X272875Y43435D01*
X272865Y43428D01*
X272855Y43426D01*
X272827Y43402D01*
X272755Y43354D01*
X271335Y41933D01*
X267145Y41933D01*
X265725Y43354D01*
X265660Y43394D01*
X265598Y43438D01*
X265586Y43440D01*
X265578Y43445D01*
X265541Y43449D01*
X265456Y43465D01*
X210794Y43465D01*
X210720Y43448D01*
X210645Y43435D01*
X210635Y43428D01*
X210625Y43426D01*
X210597Y43402D01*
X210525Y43354D01*
X209105Y41933D01*
X204915Y41933D01*
X203495Y43354D01*
X203430Y43394D01*
X203368Y43438D01*
X203356Y43440D01*
X203348Y43445D01*
X203311Y43449D01*
X203226Y43465D01*
X201008Y43465D01*
X200934Y43448D01*
X200859Y43435D01*
X200849Y43428D01*
X200839Y43426D01*
X200810Y43402D01*
X200739Y43354D01*
X198929Y41544D01*
X198915Y41522D01*
X198895Y41506D01*
X198870Y41449D01*
X198837Y41397D01*
X198835Y41371D01*
X198824Y41347D01*
X198827Y41286D01*
X198821Y41224D01*
X198830Y41200D01*
X198831Y41174D01*
X198860Y41120D01*
X198882Y41062D01*
X198901Y41045D01*
X198914Y41022D01*
X198964Y40987D01*
X199009Y40945D01*
X199034Y40937D01*
X199055Y40922D01*
X199140Y40906D01*
X199176Y40895D01*
X199185Y40897D01*
X199197Y40895D01*
X200022Y40895D01*
X200915Y40002D01*
X200915Y23498D01*
X200022Y22605D01*
X183518Y22605D01*
X182625Y23498D01*
X182625Y40002D01*
X183518Y40895D01*
X188153Y40895D01*
X188227Y40912D01*
X188301Y40925D01*
X188311Y40932D01*
X188321Y40934D01*
X188350Y40958D01*
X188421Y41006D01*
X195754Y48339D01*
X197930Y50515D01*
X203226Y50515D01*
X203300Y50532D01*
X203375Y50545D01*
X203385Y50552D01*
X203395Y50554D01*
X203423Y50578D01*
X203495Y50626D01*
X204915Y52047D01*
X209105Y52047D01*
X210525Y50626D01*
X210590Y50586D01*
X210652Y50542D01*
X210664Y50540D01*
X210672Y50535D01*
X210709Y50531D01*
X210794Y50515D01*
X265456Y50515D01*
X265530Y50532D01*
X265605Y50545D01*
X265615Y50552D01*
X265625Y50554D01*
X265653Y50578D01*
X265725Y50626D01*
X267145Y52047D01*
X271335Y52047D01*
X272755Y50626D01*
X272820Y50586D01*
X272882Y50542D01*
X272894Y50540D01*
X272902Y50535D01*
X272939Y50531D01*
X273024Y50515D01*
X325146Y50515D01*
X325220Y50532D01*
X325295Y50545D01*
X325305Y50552D01*
X325315Y50554D01*
X325343Y50578D01*
X325415Y50626D01*
X326835Y52047D01*
X331025Y52047D01*
X332445Y50626D01*
X332510Y50586D01*
X332572Y50542D01*
X332584Y50540D01*
X332592Y50535D01*
X332629Y50531D01*
X332714Y50515D01*
X382296Y50515D01*
X382370Y50532D01*
X382445Y50545D01*
X382455Y50552D01*
X382465Y50554D01*
X382493Y50578D01*
X382565Y50626D01*
X383985Y52047D01*
X388175Y52047D01*
X389595Y50626D01*
X389660Y50586D01*
X389722Y50542D01*
X389734Y50540D01*
X389742Y50535D01*
X389779Y50531D01*
X389864Y50515D01*
X436404Y50515D01*
X436424Y50518D01*
X436443Y50516D01*
X436545Y50538D01*
X436647Y50554D01*
X436664Y50564D01*
X436684Y50568D01*
X436773Y50621D01*
X436864Y50670D01*
X436878Y50684D01*
X436895Y50694D01*
X436962Y50773D01*
X437034Y50848D01*
X437042Y50866D01*
X437055Y50881D01*
X437094Y50977D01*
X437137Y51071D01*
X437139Y51091D01*
X437147Y51109D01*
X437165Y51276D01*
X437165Y70040D01*
X437707Y70582D01*
X439958Y72833D01*
X451930Y84805D01*
X485934Y84805D01*
X485954Y84808D01*
X485973Y84806D01*
X486075Y84828D01*
X486177Y84844D01*
X486194Y84854D01*
X486214Y84858D01*
X486303Y84911D01*
X486394Y84960D01*
X486408Y84974D01*
X486425Y84984D01*
X486492Y85063D01*
X486564Y85138D01*
X486572Y85156D01*
X486585Y85171D01*
X486624Y85267D01*
X486667Y85361D01*
X486669Y85381D01*
X486677Y85399D01*
X486695Y85566D01*
X486695Y126104D01*
X486693Y126116D01*
X486694Y126125D01*
X486693Y126131D01*
X486694Y126143D01*
X486672Y126245D01*
X486656Y126347D01*
X486646Y126364D01*
X486642Y126384D01*
X486589Y126473D01*
X486540Y126564D01*
X486526Y126578D01*
X486516Y126595D01*
X486437Y126662D01*
X486362Y126734D01*
X486344Y126742D01*
X486329Y126755D01*
X486233Y126794D01*
X486139Y126837D01*
X486119Y126839D01*
X486101Y126847D01*
X485934Y126865D01*
X485137Y126865D01*
X485047Y126851D01*
X484956Y126843D01*
X484926Y126831D01*
X484894Y126826D01*
X484813Y126783D01*
X484730Y126747D01*
X484697Y126721D01*
X484677Y126710D01*
X484660Y126693D01*
X484658Y126692D01*
X484651Y126684D01*
X484599Y126642D01*
X483385Y125428D01*
X483373Y125412D01*
X483357Y125400D01*
X483301Y125312D01*
X483241Y125229D01*
X483235Y125210D01*
X483224Y125193D01*
X483199Y125092D01*
X483169Y124993D01*
X483169Y124974D01*
X483164Y124954D01*
X483172Y124851D01*
X483175Y124748D01*
X483182Y124729D01*
X483183Y124709D01*
X483224Y124614D01*
X483259Y124517D01*
X483272Y124501D01*
X483280Y124483D01*
X483385Y124352D01*
X484465Y123272D01*
X484465Y115508D01*
X483385Y114428D01*
X483373Y114412D01*
X483357Y114400D01*
X483328Y114353D01*
X483309Y114333D01*
X483294Y114303D01*
X483241Y114229D01*
X483235Y114210D01*
X483224Y114193D01*
X483199Y114092D01*
X483169Y113993D01*
X483169Y113974D01*
X483164Y113954D01*
X483172Y113851D01*
X483175Y113748D01*
X483182Y113729D01*
X483183Y113709D01*
X483224Y113614D01*
X483259Y113517D01*
X483272Y113501D01*
X483280Y113483D01*
X483385Y113352D01*
X484465Y112272D01*
X484465Y104508D01*
X483385Y103428D01*
X483373Y103412D01*
X483357Y103400D01*
X483301Y103312D01*
X483241Y103229D01*
X483235Y103210D01*
X483224Y103193D01*
X483199Y103092D01*
X483169Y102993D01*
X483169Y102974D01*
X483164Y102954D01*
X483172Y102851D01*
X483175Y102748D01*
X483182Y102729D01*
X483183Y102709D01*
X483224Y102614D01*
X483259Y102517D01*
X483272Y102501D01*
X483280Y102483D01*
X483385Y102352D01*
X484465Y101272D01*
X484465Y93508D01*
X483572Y92615D01*
X467308Y92615D01*
X466415Y93508D01*
X466415Y101272D01*
X467495Y102352D01*
X467507Y102368D01*
X467523Y102380D01*
X467579Y102468D01*
X467639Y102551D01*
X467645Y102570D01*
X467656Y102587D01*
X467681Y102688D01*
X467711Y102787D01*
X467711Y102806D01*
X467716Y102826D01*
X467708Y102929D01*
X467705Y103032D01*
X467698Y103051D01*
X467697Y103071D01*
X467656Y103166D01*
X467621Y103263D01*
X467608Y103279D01*
X467600Y103297D01*
X467495Y103428D01*
X466386Y104538D01*
X466376Y104601D01*
X466366Y104618D01*
X466362Y104638D01*
X466309Y104727D01*
X466260Y104818D01*
X466246Y104832D01*
X466236Y104849D01*
X466157Y104916D01*
X466082Y104988D01*
X466064Y104996D01*
X466049Y105009D01*
X465953Y105048D01*
X465859Y105091D01*
X465839Y105093D01*
X465821Y105101D01*
X465654Y105119D01*
X460485Y105119D01*
X460054Y105550D01*
X459996Y105592D01*
X459944Y105641D01*
X459897Y105663D01*
X459855Y105694D01*
X459786Y105715D01*
X459721Y105745D01*
X459669Y105751D01*
X459619Y105766D01*
X459548Y105764D01*
X459477Y105772D01*
X459426Y105761D01*
X459374Y105760D01*
X459306Y105735D01*
X459236Y105720D01*
X459191Y105693D01*
X459143Y105675D01*
X459087Y105630D01*
X459025Y105594D01*
X458991Y105554D01*
X458951Y105522D01*
X458912Y105461D01*
X458865Y105407D01*
X458846Y105358D01*
X458818Y105315D01*
X458800Y105245D01*
X458773Y105179D01*
X458765Y105107D01*
X458757Y105076D01*
X458759Y105053D01*
X458755Y105012D01*
X458755Y103588D01*
X457862Y102695D01*
X455762Y102695D01*
X455742Y102692D01*
X455723Y102694D01*
X455621Y102672D01*
X455519Y102656D01*
X455502Y102646D01*
X455482Y102642D01*
X455393Y102589D01*
X455302Y102540D01*
X455288Y102526D01*
X455271Y102516D01*
X455204Y102437D01*
X455132Y102362D01*
X455124Y102344D01*
X455111Y102329D01*
X455072Y102233D01*
X455029Y102139D01*
X455027Y102119D01*
X455019Y102101D01*
X455001Y101934D01*
X455001Y101266D01*
X455004Y101246D01*
X455002Y101227D01*
X455024Y101125D01*
X455040Y101023D01*
X455050Y101006D01*
X455054Y100986D01*
X455107Y100897D01*
X455156Y100806D01*
X455170Y100792D01*
X455180Y100775D01*
X455259Y100708D01*
X455334Y100636D01*
X455352Y100628D01*
X455367Y100615D01*
X455463Y100576D01*
X455557Y100533D01*
X455577Y100531D01*
X455595Y100523D01*
X455762Y100505D01*
X457862Y100505D01*
X458755Y99612D01*
X458755Y88348D01*
X457862Y87455D01*
X445598Y87455D01*
X444705Y88348D01*
X444705Y99612D01*
X445598Y100505D01*
X447698Y100505D01*
X447718Y100508D01*
X447737Y100506D01*
X447839Y100528D01*
X447941Y100544D01*
X447958Y100554D01*
X447978Y100558D01*
X448067Y100611D01*
X448158Y100660D01*
X448172Y100674D01*
X448189Y100684D01*
X448256Y100763D01*
X448328Y100838D01*
X448336Y100856D01*
X448349Y100871D01*
X448388Y100967D01*
X448431Y101061D01*
X448433Y101081D01*
X448441Y101099D01*
X448459Y101266D01*
X448459Y101934D01*
X448456Y101954D01*
X448458Y101973D01*
X448436Y102075D01*
X448420Y102177D01*
X448410Y102194D01*
X448406Y102214D01*
X448353Y102303D01*
X448304Y102394D01*
X448290Y102408D01*
X448280Y102425D01*
X448201Y102492D01*
X448126Y102564D01*
X448108Y102572D01*
X448093Y102585D01*
X447997Y102624D01*
X447903Y102667D01*
X447883Y102669D01*
X447865Y102677D01*
X447698Y102695D01*
X445598Y102695D01*
X444705Y103588D01*
X444705Y114852D01*
X445598Y115745D01*
X448358Y115745D01*
X448378Y115748D01*
X448397Y115746D01*
X448499Y115768D01*
X448601Y115784D01*
X448618Y115794D01*
X448638Y115798D01*
X448727Y115851D01*
X448818Y115900D01*
X448832Y115914D01*
X448849Y115924D01*
X448916Y116003D01*
X448988Y116078D01*
X448996Y116096D01*
X449009Y116111D01*
X449048Y116207D01*
X449091Y116301D01*
X449093Y116321D01*
X449101Y116339D01*
X449119Y116506D01*
X449119Y119353D01*
X451100Y121334D01*
X453190Y123424D01*
X453243Y123498D01*
X453303Y123567D01*
X453315Y123597D01*
X453334Y123624D01*
X453361Y123711D01*
X453395Y123796D01*
X453399Y123836D01*
X453406Y123859D01*
X453405Y123891D01*
X453413Y123962D01*
X453413Y124015D01*
X453948Y124550D01*
X453990Y124608D01*
X454040Y124660D01*
X454062Y124707D01*
X454092Y124749D01*
X454113Y124818D01*
X454143Y124883D01*
X454149Y124935D01*
X454164Y124985D01*
X454162Y125056D01*
X454170Y125127D01*
X454159Y125178D01*
X454158Y125230D01*
X454133Y125298D01*
X454118Y125368D01*
X454091Y125413D01*
X454074Y125461D01*
X454029Y125517D01*
X453992Y125579D01*
X453952Y125613D01*
X453920Y125653D01*
X453860Y125692D01*
X453805Y125739D01*
X453757Y125758D01*
X453713Y125786D01*
X453643Y125804D01*
X453577Y125831D01*
X453506Y125839D01*
X453474Y125847D01*
X453451Y125845D01*
X453410Y125849D01*
X440032Y125849D01*
X440012Y125846D01*
X439993Y125848D01*
X439891Y125826D01*
X439789Y125810D01*
X439772Y125800D01*
X439752Y125796D01*
X439663Y125743D01*
X439572Y125694D01*
X439558Y125680D01*
X439541Y125670D01*
X439474Y125591D01*
X439402Y125516D01*
X439394Y125498D01*
X439381Y125483D01*
X439342Y125387D01*
X439299Y125293D01*
X439297Y125273D01*
X439289Y125255D01*
X439271Y125088D01*
X439271Y116506D01*
X439274Y116486D01*
X439272Y116467D01*
X439294Y116365D01*
X439310Y116263D01*
X439320Y116246D01*
X439324Y116226D01*
X439377Y116137D01*
X439426Y116046D01*
X439440Y116032D01*
X439450Y116015D01*
X439529Y115948D01*
X439604Y115876D01*
X439622Y115868D01*
X439637Y115855D01*
X439733Y115816D01*
X439827Y115773D01*
X439847Y115771D01*
X439865Y115763D01*
X440032Y115745D01*
X440862Y115745D01*
X441755Y114852D01*
X441755Y103588D01*
X440862Y102695D01*
X428598Y102695D01*
X427705Y103588D01*
X427705Y114852D01*
X428598Y115745D01*
X429428Y115745D01*
X429448Y115748D01*
X429467Y115746D01*
X429569Y115768D01*
X429671Y115784D01*
X429688Y115794D01*
X429708Y115798D01*
X429797Y115851D01*
X429888Y115900D01*
X429902Y115914D01*
X429919Y115924D01*
X429986Y116003D01*
X430058Y116078D01*
X430066Y116096D01*
X430079Y116111D01*
X430118Y116207D01*
X430161Y116301D01*
X430163Y116321D01*
X430171Y116339D01*
X430189Y116506D01*
X430189Y125088D01*
X430186Y125108D01*
X430188Y125127D01*
X430166Y125229D01*
X430150Y125331D01*
X430140Y125348D01*
X430136Y125368D01*
X430083Y125457D01*
X430034Y125548D01*
X430020Y125562D01*
X430010Y125579D01*
X429931Y125646D01*
X429856Y125718D01*
X429838Y125726D01*
X429823Y125739D01*
X429727Y125778D01*
X429633Y125821D01*
X429613Y125823D01*
X429595Y125831D01*
X429428Y125849D01*
X421306Y125849D01*
X421286Y125846D01*
X421267Y125848D01*
X421165Y125826D01*
X421063Y125810D01*
X421046Y125800D01*
X421026Y125796D01*
X420937Y125743D01*
X420846Y125694D01*
X420832Y125680D01*
X420815Y125670D01*
X420748Y125591D01*
X420676Y125516D01*
X420668Y125498D01*
X420655Y125483D01*
X420616Y125387D01*
X420573Y125293D01*
X420571Y125273D01*
X420563Y125255D01*
X420545Y125088D01*
X420545Y116668D01*
X419652Y115775D01*
X408388Y115775D01*
X407495Y116668D01*
X407495Y125088D01*
X407492Y125108D01*
X407494Y125127D01*
X407472Y125229D01*
X407456Y125331D01*
X407446Y125348D01*
X407442Y125368D01*
X407389Y125457D01*
X407340Y125548D01*
X407326Y125562D01*
X407316Y125579D01*
X407237Y125646D01*
X407162Y125718D01*
X407144Y125726D01*
X407129Y125739D01*
X407033Y125778D01*
X406939Y125821D01*
X406919Y125823D01*
X406901Y125831D01*
X406734Y125849D01*
X403860Y125849D01*
X403840Y125846D01*
X403821Y125848D01*
X403719Y125826D01*
X403617Y125810D01*
X403600Y125800D01*
X403580Y125796D01*
X403491Y125743D01*
X403400Y125694D01*
X403386Y125680D01*
X403369Y125670D01*
X403302Y125591D01*
X403231Y125516D01*
X403222Y125498D01*
X403209Y125483D01*
X403170Y125387D01*
X403127Y125293D01*
X403125Y125273D01*
X403117Y125255D01*
X403099Y125088D01*
X403099Y101091D01*
X373695Y101091D01*
X370108Y104678D01*
X370034Y104731D01*
X369965Y104791D01*
X369935Y104803D01*
X369909Y104822D01*
X369822Y104849D01*
X369737Y104883D01*
X369696Y104887D01*
X369673Y104894D01*
X369641Y104893D01*
X369570Y104901D01*
X334010Y104901D01*
X333990Y104898D01*
X333971Y104900D01*
X333869Y104878D01*
X333767Y104862D01*
X333750Y104852D01*
X333730Y104848D01*
X333641Y104795D01*
X333550Y104746D01*
X333536Y104732D01*
X333519Y104722D01*
X333452Y104643D01*
X333381Y104568D01*
X333372Y104550D01*
X333359Y104535D01*
X333320Y104439D01*
X333277Y104345D01*
X333275Y104325D01*
X333267Y104307D01*
X333249Y104140D01*
X333249Y71120D01*
X333252Y71100D01*
X333250Y71081D01*
X333272Y70979D01*
X333289Y70877D01*
X333298Y70860D01*
X333302Y70840D01*
X333355Y70751D01*
X333404Y70660D01*
X333418Y70646D01*
X333428Y70629D01*
X333507Y70562D01*
X333582Y70491D01*
X333600Y70482D01*
X333615Y70469D01*
X333630Y70463D01*
X333630Y65150D01*
X96520Y65150D01*
X96470Y65139D01*
X96419Y65137D01*
X96387Y65119D01*
X96351Y65111D01*
X96312Y65078D01*
X96267Y65054D01*
X96246Y65024D01*
X96218Y65001D01*
X96197Y64954D01*
X96167Y64912D01*
X96159Y64870D01*
X96147Y64842D01*
X96148Y64818D01*
X96147Y64816D01*
X96147Y64808D01*
X96140Y64770D01*
X96140Y3143D01*
X96151Y3093D01*
X96153Y3042D01*
X96171Y3010D01*
X96179Y2974D01*
X96212Y2935D01*
X96236Y2890D01*
X96266Y2869D01*
X96289Y2841D01*
X96336Y2820D01*
X96378Y2790D01*
X96420Y2782D01*
X96448Y2770D01*
X96478Y2771D01*
X96520Y2763D01*
X665480Y2763D01*
X665500Y2766D01*
G37*
G36*
X115590Y262132D02*
X115590Y262132D01*
X115609Y262130D01*
X115711Y262152D01*
X115813Y262169D01*
X115830Y262178D01*
X115850Y262182D01*
X115939Y262235D01*
X116030Y262284D01*
X116044Y262298D01*
X116061Y262308D01*
X116128Y262387D01*
X116200Y262462D01*
X116208Y262480D01*
X116221Y262495D01*
X116260Y262591D01*
X116303Y262685D01*
X116305Y262705D01*
X116313Y262723D01*
X116331Y262890D01*
X116331Y287910D01*
X715010Y287910D01*
X715060Y287921D01*
X715111Y287923D01*
X715143Y287941D01*
X715179Y287949D01*
X715218Y287982D01*
X715263Y288006D01*
X715284Y288036D01*
X715312Y288059D01*
X715333Y288106D01*
X715363Y288148D01*
X715371Y288190D01*
X715383Y288218D01*
X715382Y288248D01*
X715390Y288290D01*
X715390Y367030D01*
X715379Y367080D01*
X715377Y367131D01*
X715359Y367163D01*
X715351Y367199D01*
X715318Y367238D01*
X715294Y367283D01*
X715264Y367304D01*
X715241Y367332D01*
X715194Y367353D01*
X715152Y367383D01*
X715110Y367391D01*
X715082Y367403D01*
X715052Y367402D01*
X715010Y367410D01*
X622300Y367410D01*
X622250Y367399D01*
X622199Y367397D01*
X622167Y367379D01*
X622131Y367371D01*
X622092Y367338D01*
X622047Y367314D01*
X622026Y367284D01*
X621998Y367261D01*
X621977Y367214D01*
X621947Y367172D01*
X621939Y367130D01*
X621927Y367102D01*
X621928Y367076D01*
X621927Y367074D01*
X621927Y367067D01*
X621920Y367030D01*
X621920Y351790D01*
X621931Y351740D01*
X621933Y351691D01*
X621945Y351669D01*
X621950Y351641D01*
X621957Y351631D01*
X621959Y351621D01*
X621983Y351592D01*
X622003Y351563D01*
X622016Y351539D01*
X622022Y351535D01*
X622031Y351521D01*
X637160Y336393D01*
X637160Y297560D01*
X583088Y297560D01*
X573150Y307498D01*
X573150Y367030D01*
X573139Y367080D01*
X573137Y367131D01*
X573119Y367163D01*
X573111Y367199D01*
X573078Y367238D01*
X573054Y367283D01*
X573024Y367304D01*
X573001Y367332D01*
X572954Y367353D01*
X572912Y367383D01*
X572870Y367391D01*
X572842Y367403D01*
X572812Y367402D01*
X572770Y367410D01*
X480060Y367410D01*
X480010Y367399D01*
X479959Y367397D01*
X479927Y367379D01*
X479891Y367371D01*
X479852Y367338D01*
X479807Y367314D01*
X479786Y367284D01*
X479758Y367261D01*
X479737Y367214D01*
X479707Y367172D01*
X479699Y367130D01*
X479687Y367102D01*
X479688Y367076D01*
X479687Y367074D01*
X479687Y367067D01*
X479680Y367030D01*
X479680Y353060D01*
X479697Y352986D01*
X479710Y352911D01*
X479717Y352901D01*
X479719Y352891D01*
X479743Y352862D01*
X479791Y352791D01*
X493650Y338933D01*
X493650Y297560D01*
X442118Y297560D01*
X433450Y306228D01*
X433450Y365760D01*
X433439Y365810D01*
X433437Y365861D01*
X433419Y365893D01*
X433411Y365929D01*
X433378Y365968D01*
X433354Y366013D01*
X433324Y366034D01*
X433301Y366062D01*
X433254Y366083D01*
X433212Y366113D01*
X433170Y366121D01*
X433142Y366133D01*
X433112Y366132D01*
X433070Y366140D01*
X339090Y366140D01*
X339040Y366129D01*
X338989Y366127D01*
X338957Y366109D01*
X338921Y366101D01*
X338882Y366068D01*
X338837Y366044D01*
X338816Y366014D01*
X338788Y365991D01*
X338767Y365944D01*
X338737Y365902D01*
X338729Y365860D01*
X338717Y365832D01*
X338718Y365802D01*
X338710Y365760D01*
X338710Y351790D01*
X338721Y351740D01*
X338723Y351691D01*
X338735Y351669D01*
X338740Y351641D01*
X338747Y351631D01*
X338749Y351621D01*
X338773Y351592D01*
X338793Y351563D01*
X338806Y351539D01*
X338812Y351535D01*
X338821Y351521D01*
X353950Y336393D01*
X353950Y297560D01*
X299878Y297560D01*
X292480Y304958D01*
X292480Y364490D01*
X292469Y364540D01*
X292467Y364591D01*
X292449Y364623D01*
X292441Y364659D01*
X292408Y364698D01*
X292384Y364743D01*
X292354Y364764D01*
X292331Y364792D01*
X292284Y364813D01*
X292242Y364843D01*
X292200Y364851D01*
X292172Y364863D01*
X292142Y364862D01*
X292100Y364870D01*
X200660Y364870D01*
X200610Y364859D01*
X200559Y364857D01*
X200527Y364839D01*
X200491Y364831D01*
X200452Y364798D01*
X200407Y364774D01*
X200386Y364744D01*
X200358Y364721D01*
X200337Y364674D01*
X200307Y364632D01*
X200299Y364590D01*
X200287Y364562D01*
X200288Y364532D01*
X200280Y364490D01*
X200280Y350520D01*
X200297Y350446D01*
X200310Y350371D01*
X200317Y350361D01*
X200319Y350351D01*
X200343Y350322D01*
X200391Y350251D01*
X214250Y336393D01*
X214250Y297560D01*
X162718Y297560D01*
X154050Y306228D01*
X154050Y364490D01*
X154039Y364540D01*
X154037Y364591D01*
X154019Y364623D01*
X154011Y364659D01*
X153978Y364698D01*
X153954Y364743D01*
X153924Y364764D01*
X153901Y364792D01*
X153854Y364813D01*
X153812Y364843D01*
X153770Y364851D01*
X153742Y364863D01*
X153712Y364862D01*
X153670Y364870D01*
X60960Y364870D01*
X60910Y364859D01*
X60859Y364857D01*
X60827Y364839D01*
X60791Y364831D01*
X60752Y364798D01*
X60707Y364774D01*
X60686Y364744D01*
X60658Y364721D01*
X60637Y364674D01*
X60607Y364632D01*
X60599Y364590D01*
X60587Y364562D01*
X60588Y364532D01*
X60580Y364490D01*
X60580Y349250D01*
X60597Y349176D01*
X60610Y349101D01*
X60617Y349091D01*
X60619Y349081D01*
X60643Y349052D01*
X60691Y348981D01*
X72010Y337663D01*
X72010Y288290D01*
X72021Y288240D01*
X72023Y288189D01*
X72041Y288157D01*
X72049Y288121D01*
X72082Y288082D01*
X72106Y288037D01*
X72136Y288016D01*
X72159Y287988D01*
X72206Y287967D01*
X72248Y287937D01*
X72290Y287929D01*
X72318Y287917D01*
X72348Y287918D01*
X72390Y287910D01*
X86869Y287910D01*
X86869Y262890D01*
X86872Y262870D01*
X86870Y262851D01*
X86892Y262749D01*
X86909Y262647D01*
X86918Y262630D01*
X86922Y262610D01*
X86975Y262521D01*
X87024Y262430D01*
X87038Y262416D01*
X87048Y262399D01*
X87127Y262332D01*
X87202Y262261D01*
X87220Y262252D01*
X87235Y262239D01*
X87331Y262200D01*
X87425Y262157D01*
X87445Y262155D01*
X87463Y262147D01*
X87630Y262129D01*
X115570Y262129D01*
X115590Y262132D01*
G37*
G36*
X189248Y361294D02*
X189248Y361294D01*
X189314Y361291D01*
X189359Y361306D01*
X189406Y361311D01*
X189465Y361340D01*
X189528Y361360D01*
X189572Y361393D01*
X189607Y361410D01*
X189634Y361439D01*
X189678Y361472D01*
X198286Y370079D01*
X319874Y370079D01*
X327212Y362742D01*
X327266Y362704D01*
X327313Y362659D01*
X327357Y362640D01*
X327396Y362613D01*
X327459Y362597D01*
X327520Y362571D01*
X327567Y362569D01*
X327613Y362558D01*
X327678Y362564D01*
X327744Y362561D01*
X327789Y362576D01*
X327836Y362581D01*
X327895Y362610D01*
X327958Y362630D01*
X328002Y362663D01*
X328037Y362680D01*
X328064Y362709D01*
X328108Y362742D01*
X335446Y370079D01*
X462114Y370079D01*
X468182Y364012D01*
X468236Y363974D01*
X468283Y363929D01*
X468327Y363910D01*
X468366Y363883D01*
X468429Y363867D01*
X468490Y363841D01*
X468537Y363839D01*
X468583Y363828D01*
X468648Y363834D01*
X468714Y363831D01*
X468759Y363846D01*
X468806Y363851D01*
X468865Y363880D01*
X468928Y363900D01*
X468972Y363933D01*
X469007Y363950D01*
X469034Y363979D01*
X469078Y364012D01*
X475146Y370079D01*
X505497Y370079D01*
X505587Y370094D01*
X505678Y370101D01*
X505708Y370113D01*
X505740Y370119D01*
X505821Y370161D01*
X505904Y370197D01*
X505937Y370223D01*
X505957Y370234D01*
X505958Y370235D01*
X522755Y370235D01*
X522808Y370189D01*
X522838Y370177D01*
X522864Y370158D01*
X522951Y370131D01*
X523036Y370097D01*
X523077Y370093D01*
X523099Y370086D01*
X523132Y370087D01*
X523203Y370079D01*
X604354Y370079D01*
X610422Y364012D01*
X610476Y363974D01*
X610523Y363929D01*
X610567Y363910D01*
X610606Y363883D01*
X610669Y363867D01*
X610730Y363841D01*
X610777Y363839D01*
X610823Y363828D01*
X610888Y363834D01*
X610954Y363831D01*
X610999Y363846D01*
X611046Y363851D01*
X611105Y363880D01*
X611168Y363900D01*
X611212Y363933D01*
X611247Y363950D01*
X611274Y363979D01*
X611318Y364012D01*
X617386Y370079D01*
X646467Y370079D01*
X646557Y370094D01*
X646648Y370101D01*
X646678Y370113D01*
X646710Y370119D01*
X646791Y370161D01*
X646874Y370197D01*
X646907Y370223D01*
X646927Y370234D01*
X646928Y370235D01*
X663725Y370235D01*
X663778Y370189D01*
X663808Y370177D01*
X663834Y370158D01*
X663921Y370131D01*
X664006Y370097D01*
X664047Y370093D01*
X664069Y370086D01*
X664102Y370087D01*
X664173Y370079D01*
X713740Y370079D01*
X713760Y370082D01*
X713779Y370080D01*
X713881Y370102D01*
X713983Y370119D01*
X714000Y370128D01*
X714020Y370132D01*
X714109Y370185D01*
X714200Y370234D01*
X714214Y370248D01*
X714231Y370258D01*
X714298Y370337D01*
X714370Y370412D01*
X714378Y370430D01*
X714391Y370445D01*
X714430Y370541D01*
X714473Y370635D01*
X714475Y370655D01*
X714483Y370673D01*
X714501Y370840D01*
X714501Y407670D01*
X714498Y407690D01*
X714500Y407709D01*
X714478Y407811D01*
X714462Y407913D01*
X714452Y407930D01*
X714448Y407950D01*
X714395Y408039D01*
X714346Y408130D01*
X714332Y408144D01*
X714322Y408161D01*
X714243Y408228D01*
X714168Y408300D01*
X714150Y408308D01*
X714135Y408321D01*
X714039Y408360D01*
X713945Y408403D01*
X713925Y408405D01*
X713907Y408413D01*
X713740Y408431D01*
X688340Y408431D01*
X688320Y408428D01*
X688301Y408430D01*
X688199Y408408D01*
X688097Y408392D01*
X688080Y408382D01*
X688060Y408378D01*
X687971Y408325D01*
X687880Y408276D01*
X687866Y408262D01*
X687849Y408252D01*
X687782Y408173D01*
X687711Y408098D01*
X687702Y408080D01*
X687689Y408065D01*
X687650Y407969D01*
X687607Y407875D01*
X687605Y407855D01*
X687597Y407837D01*
X687579Y407670D01*
X687579Y383031D01*
X621196Y383031D01*
X611318Y392908D01*
X611265Y392946D01*
X611217Y392991D01*
X611173Y393010D01*
X611134Y393037D01*
X611071Y393053D01*
X611010Y393079D01*
X610963Y393081D01*
X610917Y393093D01*
X610852Y393086D01*
X610786Y393089D01*
X610741Y393074D01*
X610694Y393069D01*
X610635Y393040D01*
X610572Y393020D01*
X610528Y392987D01*
X610493Y392970D01*
X610466Y392941D01*
X610422Y392908D01*
X600544Y383031D01*
X574801Y383031D01*
X574801Y407670D01*
X574798Y407690D01*
X574800Y407709D01*
X574778Y407811D01*
X574762Y407913D01*
X574752Y407930D01*
X574748Y407950D01*
X574695Y408039D01*
X574646Y408130D01*
X574632Y408144D01*
X574622Y408161D01*
X574543Y408228D01*
X574468Y408300D01*
X574450Y408308D01*
X574435Y408321D01*
X574339Y408360D01*
X574245Y408403D01*
X574225Y408405D01*
X574207Y408413D01*
X574040Y408431D01*
X546100Y408431D01*
X546080Y408428D01*
X546061Y408430D01*
X545959Y408408D01*
X545857Y408392D01*
X545840Y408382D01*
X545820Y408378D01*
X545731Y408325D01*
X545640Y408276D01*
X545626Y408262D01*
X545609Y408252D01*
X545542Y408173D01*
X545471Y408098D01*
X545462Y408080D01*
X545449Y408065D01*
X545410Y407969D01*
X545367Y407875D01*
X545365Y407855D01*
X545357Y407837D01*
X545339Y407670D01*
X545339Y383031D01*
X478956Y383031D01*
X469078Y392908D01*
X469025Y392946D01*
X468977Y392991D01*
X468933Y393010D01*
X468894Y393037D01*
X468831Y393053D01*
X468770Y393079D01*
X468723Y393081D01*
X468677Y393093D01*
X468612Y393086D01*
X468546Y393089D01*
X468501Y393074D01*
X468454Y393069D01*
X468395Y393040D01*
X468332Y393020D01*
X468288Y392987D01*
X468253Y392970D01*
X468226Y392941D01*
X468182Y392908D01*
X458304Y383031D01*
X433831Y383031D01*
X433831Y406400D01*
X433828Y406420D01*
X433830Y406439D01*
X433808Y406541D01*
X433792Y406643D01*
X433782Y406660D01*
X433778Y406680D01*
X433725Y406769D01*
X433676Y406860D01*
X433662Y406874D01*
X433652Y406891D01*
X433573Y406958D01*
X433498Y407030D01*
X433480Y407038D01*
X433465Y407051D01*
X433369Y407090D01*
X433275Y407133D01*
X433255Y407135D01*
X433237Y407143D01*
X433070Y407161D01*
X405130Y407161D01*
X405110Y407158D01*
X405091Y407160D01*
X404989Y407138D01*
X404887Y407122D01*
X404870Y407112D01*
X404850Y407108D01*
X404761Y407055D01*
X404670Y407006D01*
X404656Y406992D01*
X404639Y406982D01*
X404572Y406903D01*
X404501Y406828D01*
X404492Y406810D01*
X404479Y406795D01*
X404440Y406699D01*
X404397Y406605D01*
X404395Y406585D01*
X404387Y406567D01*
X404369Y406400D01*
X404369Y383031D01*
X336716Y383031D01*
X328108Y391638D01*
X328055Y391676D01*
X328007Y391721D01*
X327963Y391740D01*
X327924Y391767D01*
X327861Y391783D01*
X327800Y391809D01*
X327753Y391811D01*
X327707Y391823D01*
X327642Y391816D01*
X327576Y391819D01*
X327531Y391804D01*
X327484Y391799D01*
X327425Y391770D01*
X327362Y391750D01*
X327318Y391717D01*
X327283Y391700D01*
X327256Y391671D01*
X327212Y391638D01*
X318604Y383031D01*
X292861Y383031D01*
X292861Y406400D01*
X292858Y406420D01*
X292860Y406439D01*
X292838Y406541D01*
X292822Y406643D01*
X292812Y406660D01*
X292808Y406680D01*
X292755Y406769D01*
X292706Y406860D01*
X292692Y406874D01*
X292682Y406891D01*
X292603Y406958D01*
X292528Y407030D01*
X292510Y407038D01*
X292495Y407051D01*
X292399Y407090D01*
X292305Y407133D01*
X292285Y407135D01*
X292267Y407143D01*
X292100Y407161D01*
X264160Y407161D01*
X264140Y407158D01*
X264121Y407160D01*
X264019Y407138D01*
X263917Y407122D01*
X263900Y407112D01*
X263880Y407108D01*
X263791Y407055D01*
X263700Y407006D01*
X263686Y406992D01*
X263669Y406982D01*
X263602Y406903D01*
X263531Y406828D01*
X263522Y406810D01*
X263509Y406795D01*
X263470Y406699D01*
X263427Y406605D01*
X263425Y406585D01*
X263417Y406567D01*
X263399Y406400D01*
X263399Y383031D01*
X197016Y383031D01*
X189678Y390368D01*
X189625Y390406D01*
X189577Y390451D01*
X189533Y390470D01*
X189494Y390497D01*
X189431Y390513D01*
X189370Y390539D01*
X189323Y390541D01*
X189277Y390553D01*
X189212Y390546D01*
X189146Y390549D01*
X189101Y390534D01*
X189054Y390529D01*
X188995Y390500D01*
X188932Y390480D01*
X188888Y390447D01*
X188853Y390430D01*
X188826Y390401D01*
X188782Y390368D01*
X181444Y383031D01*
X154431Y383031D01*
X154431Y406400D01*
X154428Y406420D01*
X154430Y406439D01*
X154408Y406541D01*
X154392Y406643D01*
X154382Y406660D01*
X154378Y406680D01*
X154325Y406769D01*
X154276Y406860D01*
X154262Y406874D01*
X154252Y406891D01*
X154173Y406958D01*
X154098Y407030D01*
X154080Y407038D01*
X154065Y407051D01*
X153969Y407090D01*
X153875Y407133D01*
X153855Y407135D01*
X153837Y407143D01*
X153670Y407161D01*
X125730Y407161D01*
X125710Y407158D01*
X125691Y407160D01*
X125589Y407138D01*
X125487Y407122D01*
X125470Y407112D01*
X125450Y407108D01*
X125361Y407055D01*
X125270Y407006D01*
X125256Y406992D01*
X125239Y406982D01*
X125172Y406903D01*
X125101Y406828D01*
X125092Y406810D01*
X125079Y406795D01*
X125040Y406699D01*
X124997Y406605D01*
X124995Y406585D01*
X124987Y406567D01*
X124969Y406400D01*
X124969Y383031D01*
X57316Y383031D01*
X49978Y390368D01*
X49925Y390406D01*
X49877Y390451D01*
X49833Y390470D01*
X49794Y390497D01*
X49731Y390513D01*
X49670Y390539D01*
X49623Y390541D01*
X49577Y390553D01*
X49512Y390546D01*
X49446Y390549D01*
X49401Y390534D01*
X49354Y390529D01*
X49295Y390500D01*
X49232Y390480D01*
X49188Y390447D01*
X49153Y390430D01*
X49126Y390401D01*
X49082Y390368D01*
X41744Y383031D01*
X39370Y383031D01*
X39350Y383028D01*
X39331Y383030D01*
X39229Y383008D01*
X39127Y382992D01*
X39110Y382982D01*
X39090Y382978D01*
X39001Y382925D01*
X38910Y382876D01*
X38896Y382862D01*
X38879Y382852D01*
X38812Y382773D01*
X38741Y382698D01*
X38732Y382680D01*
X38719Y382665D01*
X38680Y382569D01*
X38637Y382475D01*
X38635Y382455D01*
X38627Y382437D01*
X38609Y382270D01*
X38609Y370840D01*
X38612Y370820D01*
X38610Y370801D01*
X38632Y370699D01*
X38649Y370597D01*
X38658Y370580D01*
X38662Y370560D01*
X38715Y370471D01*
X38764Y370380D01*
X38778Y370366D01*
X38788Y370349D01*
X38867Y370282D01*
X38942Y370211D01*
X38960Y370202D01*
X38975Y370189D01*
X39071Y370150D01*
X39165Y370107D01*
X39185Y370105D01*
X39203Y370097D01*
X39370Y370079D01*
X40474Y370079D01*
X49082Y361472D01*
X49136Y361434D01*
X49183Y361389D01*
X49227Y361370D01*
X49266Y361343D01*
X49329Y361327D01*
X49390Y361301D01*
X49437Y361299D01*
X49483Y361288D01*
X49548Y361294D01*
X49614Y361291D01*
X49659Y361306D01*
X49706Y361311D01*
X49765Y361340D01*
X49828Y361360D01*
X49872Y361393D01*
X49907Y361410D01*
X49934Y361439D01*
X49978Y361472D01*
X58586Y370079D01*
X180174Y370079D01*
X188782Y361472D01*
X188836Y361434D01*
X188883Y361389D01*
X188927Y361370D01*
X188966Y361343D01*
X189029Y361327D01*
X189090Y361301D01*
X189137Y361299D01*
X189183Y361288D01*
X189248Y361294D01*
G37*
G36*
X156230Y84332D02*
X156230Y84332D01*
X156249Y84330D01*
X156351Y84352D01*
X156453Y84369D01*
X156470Y84378D01*
X156490Y84382D01*
X156579Y84435D01*
X156670Y84484D01*
X156684Y84498D01*
X156701Y84508D01*
X156768Y84587D01*
X156840Y84662D01*
X156848Y84680D01*
X156861Y84695D01*
X156900Y84791D01*
X156943Y84885D01*
X156945Y84905D01*
X156953Y84923D01*
X156971Y85090D01*
X156971Y106680D01*
X156968Y106700D01*
X156970Y106719D01*
X156948Y106821D01*
X156932Y106923D01*
X156922Y106940D01*
X156918Y106960D01*
X156865Y107049D01*
X156816Y107140D01*
X156802Y107154D01*
X156792Y107171D01*
X156713Y107238D01*
X156638Y107310D01*
X156620Y107318D01*
X156605Y107331D01*
X156509Y107370D01*
X156415Y107413D01*
X156395Y107415D01*
X156377Y107423D01*
X156210Y107441D01*
X47751Y107441D01*
X47751Y221489D01*
X115570Y221489D01*
X115590Y221492D01*
X115609Y221490D01*
X115711Y221512D01*
X115813Y221529D01*
X115830Y221538D01*
X115850Y221542D01*
X115939Y221595D01*
X116030Y221644D01*
X116044Y221658D01*
X116061Y221668D01*
X116128Y221747D01*
X116200Y221822D01*
X116208Y221840D01*
X116221Y221855D01*
X116260Y221951D01*
X116303Y222045D01*
X116305Y222065D01*
X116313Y222083D01*
X116331Y222250D01*
X116331Y248920D01*
X116328Y248940D01*
X116330Y248959D01*
X116308Y249061D01*
X116292Y249163D01*
X116282Y249180D01*
X116278Y249200D01*
X116225Y249289D01*
X116176Y249380D01*
X116162Y249394D01*
X116152Y249411D01*
X116073Y249478D01*
X115998Y249550D01*
X115980Y249558D01*
X115965Y249571D01*
X115869Y249610D01*
X115775Y249653D01*
X115755Y249655D01*
X115737Y249663D01*
X115570Y249681D01*
X7620Y249681D01*
X7600Y249678D01*
X7581Y249680D01*
X7479Y249658D01*
X7377Y249642D01*
X7360Y249632D01*
X7340Y249628D01*
X7251Y249575D01*
X7160Y249526D01*
X7146Y249512D01*
X7129Y249502D01*
X7062Y249423D01*
X6991Y249348D01*
X6982Y249330D01*
X6969Y249315D01*
X6930Y249219D01*
X6887Y249125D01*
X6885Y249105D01*
X6877Y249087D01*
X6859Y248920D01*
X6859Y85090D01*
X6862Y85070D01*
X6860Y85051D01*
X6882Y84949D01*
X6899Y84847D01*
X6908Y84830D01*
X6912Y84810D01*
X6965Y84721D01*
X7014Y84630D01*
X7028Y84616D01*
X7038Y84599D01*
X7117Y84532D01*
X7192Y84461D01*
X7210Y84452D01*
X7225Y84439D01*
X7321Y84400D01*
X7415Y84357D01*
X7435Y84355D01*
X7453Y84347D01*
X7620Y84329D01*
X156210Y84329D01*
X156230Y84332D01*
G37*
G36*
X156230Y116082D02*
X156230Y116082D01*
X156249Y116080D01*
X156351Y116102D01*
X156453Y116119D01*
X156470Y116128D01*
X156490Y116132D01*
X156579Y116185D01*
X156670Y116234D01*
X156684Y116248D01*
X156701Y116258D01*
X156768Y116337D01*
X156840Y116412D01*
X156848Y116430D01*
X156861Y116445D01*
X156900Y116541D01*
X156943Y116635D01*
X156945Y116655D01*
X156953Y116673D01*
X156971Y116840D01*
X156971Y213360D01*
X156968Y213380D01*
X156970Y213399D01*
X156948Y213501D01*
X156932Y213603D01*
X156922Y213620D01*
X156918Y213640D01*
X156865Y213729D01*
X156816Y213820D01*
X156802Y213834D01*
X156792Y213851D01*
X156713Y213918D01*
X156638Y213990D01*
X156620Y213998D01*
X156605Y214011D01*
X156509Y214050D01*
X156415Y214093D01*
X156395Y214095D01*
X156377Y214103D01*
X156210Y214121D01*
X55880Y214121D01*
X55860Y214118D01*
X55841Y214120D01*
X55739Y214098D01*
X55637Y214082D01*
X55620Y214072D01*
X55600Y214068D01*
X55511Y214015D01*
X55420Y213966D01*
X55406Y213952D01*
X55389Y213942D01*
X55322Y213863D01*
X55251Y213788D01*
X55242Y213770D01*
X55229Y213755D01*
X55190Y213659D01*
X55147Y213565D01*
X55145Y213545D01*
X55137Y213527D01*
X55119Y213360D01*
X55119Y116840D01*
X55122Y116820D01*
X55120Y116801D01*
X55142Y116699D01*
X55159Y116597D01*
X55168Y116580D01*
X55172Y116560D01*
X55225Y116471D01*
X55274Y116380D01*
X55288Y116366D01*
X55298Y116349D01*
X55377Y116282D01*
X55452Y116211D01*
X55470Y116202D01*
X55485Y116189D01*
X55581Y116150D01*
X55675Y116107D01*
X55695Y116105D01*
X55713Y116097D01*
X55880Y116079D01*
X156210Y116079D01*
X156230Y116082D01*
G37*
G36*
X64844Y453027D02*
X64844Y453027D01*
X64919Y453040D01*
X64929Y453047D01*
X64939Y453049D01*
X64968Y453073D01*
X65039Y453121D01*
X165258Y553340D01*
X232410Y553340D01*
X232460Y553351D01*
X232511Y553353D01*
X232543Y553371D01*
X232579Y553379D01*
X232618Y553412D01*
X232663Y553436D01*
X232684Y553466D01*
X232712Y553489D01*
X232733Y553536D01*
X232763Y553578D01*
X232771Y553620D01*
X232783Y553648D01*
X232782Y553678D01*
X232790Y553720D01*
X232790Y579120D01*
X232779Y579170D01*
X232777Y579221D01*
X232759Y579253D01*
X232751Y579289D01*
X232718Y579328D01*
X232694Y579373D01*
X232664Y579394D01*
X232641Y579422D01*
X232594Y579443D01*
X232552Y579473D01*
X232510Y579481D01*
X232482Y579493D01*
X232452Y579492D01*
X232410Y579500D01*
X125730Y579500D01*
X125656Y579483D01*
X125581Y579470D01*
X125571Y579463D01*
X125561Y579461D01*
X125532Y579437D01*
X125461Y579389D01*
X31481Y485409D01*
X31441Y485344D01*
X31397Y485282D01*
X31395Y485270D01*
X31390Y485262D01*
X31386Y485225D01*
X31370Y485140D01*
X31370Y453390D01*
X31381Y453340D01*
X31383Y453289D01*
X31401Y453257D01*
X31409Y453221D01*
X31442Y453182D01*
X31466Y453137D01*
X31496Y453116D01*
X31519Y453088D01*
X31566Y453067D01*
X31608Y453037D01*
X31650Y453029D01*
X31678Y453017D01*
X31708Y453018D01*
X31750Y453010D01*
X64770Y453010D01*
X64844Y453027D01*
G37*
G36*
X323870Y75442D02*
X323870Y75442D01*
X323889Y75440D01*
X323991Y75462D01*
X324093Y75479D01*
X324110Y75488D01*
X324130Y75492D01*
X324219Y75545D01*
X324310Y75594D01*
X324324Y75608D01*
X324341Y75618D01*
X324408Y75697D01*
X324480Y75772D01*
X324488Y75790D01*
X324501Y75805D01*
X324540Y75901D01*
X324583Y75995D01*
X324585Y76015D01*
X324593Y76033D01*
X324611Y76200D01*
X324611Y112269D01*
X386080Y112269D01*
X386100Y112272D01*
X386119Y112270D01*
X386221Y112292D01*
X386323Y112309D01*
X386340Y112318D01*
X386360Y112322D01*
X386449Y112375D01*
X386540Y112424D01*
X386554Y112438D01*
X386571Y112448D01*
X386638Y112527D01*
X386710Y112602D01*
X386718Y112620D01*
X386731Y112635D01*
X386770Y112731D01*
X386813Y112825D01*
X386815Y112845D01*
X386823Y112863D01*
X386841Y113030D01*
X386841Y133350D01*
X386827Y133440D01*
X386819Y133531D01*
X386807Y133561D01*
X386802Y133593D01*
X386759Y133673D01*
X386723Y133757D01*
X386697Y133789D01*
X386686Y133810D01*
X386663Y133832D01*
X386618Y133888D01*
X365251Y155255D01*
X365251Y181610D01*
X365248Y181630D01*
X365250Y181649D01*
X365228Y181751D01*
X365212Y181853D01*
X365202Y181870D01*
X365198Y181890D01*
X365145Y181979D01*
X365096Y182070D01*
X365082Y182084D01*
X365072Y182101D01*
X364993Y182168D01*
X364918Y182240D01*
X364900Y182248D01*
X364885Y182261D01*
X364789Y182300D01*
X364695Y182343D01*
X364675Y182345D01*
X364657Y182353D01*
X364490Y182371D01*
X285750Y182371D01*
X285730Y182368D01*
X285711Y182370D01*
X285609Y182348D01*
X285507Y182332D01*
X285490Y182322D01*
X285470Y182318D01*
X285381Y182265D01*
X285290Y182216D01*
X285276Y182202D01*
X285259Y182192D01*
X285192Y182113D01*
X285121Y182038D01*
X285112Y182020D01*
X285099Y182005D01*
X285060Y181909D01*
X285017Y181815D01*
X285015Y181795D01*
X285007Y181777D01*
X284989Y181610D01*
X284989Y76200D01*
X284992Y76180D01*
X284990Y76161D01*
X285012Y76059D01*
X285029Y75957D01*
X285038Y75940D01*
X285042Y75920D01*
X285095Y75831D01*
X285144Y75740D01*
X285158Y75726D01*
X285168Y75709D01*
X285247Y75642D01*
X285322Y75571D01*
X285340Y75562D01*
X285355Y75549D01*
X285451Y75510D01*
X285545Y75467D01*
X285565Y75465D01*
X285583Y75457D01*
X285750Y75439D01*
X323850Y75439D01*
X323870Y75442D01*
G37*
G36*
X240050Y75442D02*
X240050Y75442D01*
X240069Y75440D01*
X240171Y75462D01*
X240273Y75479D01*
X240290Y75488D01*
X240310Y75492D01*
X240399Y75545D01*
X240490Y75594D01*
X240504Y75608D01*
X240521Y75618D01*
X240588Y75697D01*
X240660Y75772D01*
X240668Y75790D01*
X240681Y75805D01*
X240720Y75901D01*
X240763Y75995D01*
X240765Y76015D01*
X240773Y76033D01*
X240791Y76200D01*
X240791Y213360D01*
X240788Y213380D01*
X240790Y213399D01*
X240768Y213501D01*
X240752Y213603D01*
X240742Y213620D01*
X240738Y213640D01*
X240685Y213729D01*
X240636Y213820D01*
X240622Y213834D01*
X240612Y213851D01*
X240533Y213918D01*
X240458Y213990D01*
X240440Y213998D01*
X240425Y214011D01*
X240329Y214050D01*
X240235Y214093D01*
X240215Y214095D01*
X240197Y214103D01*
X240030Y214121D01*
X175260Y214121D01*
X175240Y214118D01*
X175221Y214120D01*
X175119Y214098D01*
X175017Y214082D01*
X175000Y214072D01*
X174980Y214068D01*
X174891Y214015D01*
X174800Y213966D01*
X174786Y213952D01*
X174769Y213942D01*
X174702Y213863D01*
X174631Y213788D01*
X174622Y213770D01*
X174609Y213755D01*
X174570Y213659D01*
X174527Y213565D01*
X174525Y213545D01*
X174517Y213527D01*
X174499Y213360D01*
X174499Y189230D01*
X174502Y189210D01*
X174500Y189191D01*
X174522Y189089D01*
X174539Y188987D01*
X174548Y188970D01*
X174552Y188950D01*
X174605Y188861D01*
X174654Y188770D01*
X174668Y188756D01*
X174678Y188739D01*
X174757Y188672D01*
X174832Y188601D01*
X174850Y188592D01*
X174865Y188579D01*
X174961Y188540D01*
X175055Y188497D01*
X175075Y188495D01*
X175093Y188487D01*
X175260Y188469D01*
X203709Y188469D01*
X203709Y125221D01*
X172720Y125221D01*
X172700Y125218D01*
X172681Y125220D01*
X172579Y125198D01*
X172477Y125182D01*
X172460Y125172D01*
X172440Y125168D01*
X172351Y125115D01*
X172260Y125066D01*
X172246Y125052D01*
X172229Y125042D01*
X172162Y124963D01*
X172091Y124888D01*
X172082Y124870D01*
X172069Y124855D01*
X172030Y124759D01*
X171987Y124665D01*
X171985Y124645D01*
X171977Y124627D01*
X171959Y124460D01*
X171959Y76200D01*
X171962Y76180D01*
X171960Y76161D01*
X171982Y76059D01*
X171999Y75957D01*
X172008Y75940D01*
X172012Y75920D01*
X172065Y75831D01*
X172114Y75740D01*
X172128Y75726D01*
X172138Y75709D01*
X172217Y75642D01*
X172292Y75571D01*
X172310Y75562D01*
X172325Y75549D01*
X172421Y75510D01*
X172515Y75467D01*
X172535Y75465D01*
X172553Y75457D01*
X172720Y75439D01*
X240030Y75439D01*
X240050Y75442D01*
G37*
G36*
X209624Y454297D02*
X209624Y454297D01*
X209699Y454310D01*
X209709Y454317D01*
X209719Y454319D01*
X209748Y454343D01*
X209819Y454391D01*
X292369Y536941D01*
X292409Y537006D01*
X292453Y537068D01*
X292455Y537080D01*
X292460Y537088D01*
X292464Y537125D01*
X292480Y537210D01*
X292480Y579120D01*
X292469Y579170D01*
X292467Y579221D01*
X292449Y579253D01*
X292441Y579289D01*
X292408Y579328D01*
X292384Y579373D01*
X292354Y579394D01*
X292331Y579422D01*
X292284Y579443D01*
X292242Y579473D01*
X292200Y579481D01*
X292172Y579493D01*
X292142Y579492D01*
X292100Y579500D01*
X270510Y579500D01*
X270460Y579489D01*
X270409Y579487D01*
X270377Y579469D01*
X270341Y579461D01*
X270302Y579428D01*
X270257Y579404D01*
X270236Y579374D01*
X270208Y579351D01*
X270187Y579304D01*
X270157Y579262D01*
X270149Y579220D01*
X270137Y579192D01*
X270138Y579162D01*
X270130Y579120D01*
X270130Y542670D01*
X228600Y542670D01*
X228526Y542653D01*
X228451Y542640D01*
X228441Y542633D01*
X228431Y542631D01*
X228402Y542607D01*
X228331Y542559D01*
X171181Y485409D01*
X171141Y485344D01*
X171097Y485282D01*
X171095Y485270D01*
X171090Y485262D01*
X171086Y485225D01*
X171070Y485140D01*
X171070Y454660D01*
X171081Y454610D01*
X171083Y454559D01*
X171101Y454527D01*
X171109Y454491D01*
X171142Y454452D01*
X171166Y454407D01*
X171196Y454386D01*
X171219Y454358D01*
X171266Y454337D01*
X171308Y454307D01*
X171350Y454299D01*
X171378Y454287D01*
X171408Y454288D01*
X171450Y454280D01*
X209550Y454280D01*
X209624Y454297D01*
G37*
G36*
X624890Y454291D02*
X624890Y454291D01*
X624941Y454293D01*
X624973Y454311D01*
X625009Y454319D01*
X625048Y454352D01*
X625093Y454376D01*
X625114Y454406D01*
X625142Y454429D01*
X625163Y454476D01*
X625193Y454518D01*
X625201Y454560D01*
X625213Y454588D01*
X625212Y454618D01*
X625220Y454660D01*
X625220Y502920D01*
X625203Y502994D01*
X625190Y503069D01*
X625183Y503079D01*
X625181Y503089D01*
X625157Y503118D01*
X625109Y503189D01*
X575579Y552719D01*
X575514Y552759D01*
X575452Y552803D01*
X575440Y552805D01*
X575432Y552810D01*
X575395Y552814D01*
X575310Y552830D01*
X485298Y552830D01*
X475360Y562768D01*
X475360Y579120D01*
X475349Y579170D01*
X475347Y579221D01*
X475329Y579253D01*
X475321Y579289D01*
X475288Y579328D01*
X475264Y579373D01*
X475234Y579394D01*
X475211Y579422D01*
X475164Y579443D01*
X475122Y579473D01*
X475080Y579481D01*
X475052Y579493D01*
X475022Y579492D01*
X474980Y579500D01*
X454660Y579500D01*
X454610Y579489D01*
X454559Y579487D01*
X454527Y579469D01*
X454491Y579461D01*
X454452Y579428D01*
X454407Y579404D01*
X454386Y579374D01*
X454358Y579351D01*
X454337Y579304D01*
X454307Y579262D01*
X454299Y579220D01*
X454287Y579192D01*
X454288Y579162D01*
X454280Y579120D01*
X454280Y534670D01*
X454291Y534620D01*
X454293Y534569D01*
X454311Y534537D01*
X454319Y534501D01*
X454352Y534462D01*
X454376Y534417D01*
X454406Y534396D01*
X454429Y534368D01*
X454476Y534347D01*
X454518Y534317D01*
X454560Y534309D01*
X454588Y534297D01*
X454618Y534298D01*
X454660Y534290D01*
X545943Y534290D01*
X586360Y493873D01*
X586360Y454660D01*
X586371Y454610D01*
X586373Y454559D01*
X586391Y454527D01*
X586399Y454491D01*
X586432Y454452D01*
X586456Y454407D01*
X586486Y454386D01*
X586509Y454358D01*
X586556Y454337D01*
X586598Y454307D01*
X586640Y454299D01*
X586668Y454287D01*
X586698Y454288D01*
X586740Y454280D01*
X624840Y454280D01*
X624890Y454291D01*
G37*
G36*
X351840Y454291D02*
X351840Y454291D01*
X351891Y454293D01*
X351923Y454311D01*
X351959Y454319D01*
X351998Y454352D01*
X352043Y454376D01*
X352064Y454406D01*
X352092Y454429D01*
X352113Y454476D01*
X352143Y454518D01*
X352151Y454560D01*
X352163Y454588D01*
X352162Y454618D01*
X352170Y454660D01*
X352170Y579120D01*
X352159Y579170D01*
X352157Y579221D01*
X352139Y579253D01*
X352131Y579289D01*
X352098Y579328D01*
X352074Y579373D01*
X352044Y579394D01*
X352021Y579422D01*
X351974Y579443D01*
X351932Y579473D01*
X351890Y579481D01*
X351862Y579493D01*
X351832Y579492D01*
X351790Y579500D01*
X328930Y579500D01*
X328880Y579489D01*
X328829Y579487D01*
X328797Y579469D01*
X328761Y579461D01*
X328722Y579428D01*
X328677Y579404D01*
X328656Y579374D01*
X328628Y579351D01*
X328607Y579304D01*
X328577Y579262D01*
X328569Y579220D01*
X328557Y579192D01*
X328558Y579162D01*
X328550Y579120D01*
X328550Y557688D01*
X312151Y541289D01*
X312111Y541224D01*
X312067Y541162D01*
X312065Y541150D01*
X312060Y541142D01*
X312056Y541105D01*
X312040Y541020D01*
X312040Y454660D01*
X312051Y454610D01*
X312053Y454559D01*
X312071Y454527D01*
X312079Y454491D01*
X312112Y454452D01*
X312136Y454407D01*
X312166Y454386D01*
X312189Y454358D01*
X312236Y454337D01*
X312278Y454307D01*
X312320Y454299D01*
X312348Y454287D01*
X312378Y454288D01*
X312420Y454280D01*
X351790Y454280D01*
X351840Y454291D01*
G37*
G36*
X486460Y454291D02*
X486460Y454291D01*
X486511Y454293D01*
X486543Y454311D01*
X486579Y454319D01*
X486618Y454352D01*
X486663Y454376D01*
X486684Y454406D01*
X486712Y454429D01*
X486733Y454476D01*
X486763Y454518D01*
X486771Y454560D01*
X486783Y454588D01*
X486782Y454618D01*
X486790Y454660D01*
X486790Y483870D01*
X486773Y483944D01*
X486760Y484019D01*
X486753Y484029D01*
X486751Y484039D01*
X486727Y484068D01*
X486679Y484139D01*
X415670Y555148D01*
X415670Y579120D01*
X415659Y579170D01*
X415657Y579221D01*
X415639Y579253D01*
X415631Y579289D01*
X415598Y579328D01*
X415574Y579373D01*
X415544Y579394D01*
X415521Y579422D01*
X415474Y579443D01*
X415432Y579473D01*
X415390Y579481D01*
X415362Y579493D01*
X415332Y579492D01*
X415290Y579500D01*
X392430Y579500D01*
X392380Y579489D01*
X392329Y579487D01*
X392297Y579469D01*
X392261Y579461D01*
X392222Y579428D01*
X392177Y579404D01*
X392156Y579374D01*
X392128Y579351D01*
X392107Y579304D01*
X392077Y579262D01*
X392069Y579220D01*
X392057Y579192D01*
X392058Y579162D01*
X392050Y579120D01*
X392050Y537210D01*
X392067Y537136D01*
X392080Y537061D01*
X392087Y537051D01*
X392089Y537041D01*
X392113Y537012D01*
X392161Y536941D01*
X451740Y477363D01*
X451740Y454660D01*
X451751Y454610D01*
X451753Y454559D01*
X451771Y454527D01*
X451779Y454491D01*
X451812Y454452D01*
X451836Y454407D01*
X451866Y454386D01*
X451889Y454358D01*
X451936Y454337D01*
X451978Y454307D01*
X452020Y454299D01*
X452048Y454287D01*
X452078Y454288D01*
X452120Y454280D01*
X486410Y454280D01*
X486460Y454291D01*
G37*
G36*
X240080Y385711D02*
X240080Y385711D01*
X240131Y385713D01*
X240163Y385731D01*
X240199Y385739D01*
X240238Y385772D01*
X240283Y385796D01*
X240304Y385826D01*
X240332Y385849D01*
X240353Y385896D01*
X240383Y385938D01*
X240391Y385980D01*
X240403Y386008D01*
X240402Y386038D01*
X240410Y386080D01*
X240410Y408783D01*
X286019Y454391D01*
X286059Y454456D01*
X286103Y454518D01*
X286105Y454530D01*
X286110Y454538D01*
X286114Y454575D01*
X286130Y454660D01*
X286130Y485140D01*
X286119Y485190D01*
X286117Y485241D01*
X286099Y485273D01*
X286091Y485309D01*
X286058Y485348D01*
X286034Y485393D01*
X286004Y485414D01*
X285981Y485442D01*
X285934Y485463D01*
X285892Y485493D01*
X285850Y485501D01*
X285822Y485513D01*
X285792Y485512D01*
X285750Y485520D01*
X264160Y485520D01*
X264086Y485503D01*
X264011Y485490D01*
X264001Y485483D01*
X263991Y485481D01*
X263962Y485457D01*
X263891Y485409D01*
X200391Y421909D01*
X200351Y421844D01*
X200307Y421782D01*
X200305Y421770D01*
X200300Y421762D01*
X200296Y421725D01*
X200280Y421640D01*
X200280Y386080D01*
X200291Y386030D01*
X200293Y385979D01*
X200311Y385947D01*
X200319Y385911D01*
X200352Y385872D01*
X200376Y385827D01*
X200406Y385806D01*
X200429Y385778D01*
X200476Y385757D01*
X200518Y385727D01*
X200560Y385719D01*
X200588Y385707D01*
X200618Y385708D01*
X200660Y385700D01*
X240030Y385700D01*
X240080Y385711D01*
G37*
G36*
X381050Y386981D02*
X381050Y386981D01*
X381101Y386983D01*
X381133Y387001D01*
X381169Y387009D01*
X381208Y387042D01*
X381253Y387066D01*
X381274Y387096D01*
X381302Y387119D01*
X381323Y387166D01*
X381353Y387208D01*
X381361Y387250D01*
X381373Y387278D01*
X381372Y387308D01*
X381380Y387350D01*
X381380Y410053D01*
X426989Y455661D01*
X427029Y455726D01*
X427073Y455788D01*
X427075Y455800D01*
X427080Y455808D01*
X427084Y455845D01*
X427100Y455930D01*
X427100Y485140D01*
X427089Y485190D01*
X427087Y485241D01*
X427069Y485273D01*
X427061Y485309D01*
X427028Y485348D01*
X427004Y485393D01*
X426974Y485414D01*
X426951Y485442D01*
X426904Y485463D01*
X426862Y485493D01*
X426820Y485501D01*
X426792Y485513D01*
X426762Y485512D01*
X426720Y485520D01*
X405130Y485520D01*
X405056Y485503D01*
X404981Y485490D01*
X404971Y485483D01*
X404961Y485481D01*
X404932Y485457D01*
X404861Y485409D01*
X338821Y419369D01*
X338781Y419304D01*
X338737Y419242D01*
X338735Y419230D01*
X338730Y419222D01*
X338726Y419185D01*
X338710Y419100D01*
X338710Y387350D01*
X338721Y387300D01*
X338723Y387249D01*
X338741Y387217D01*
X338749Y387181D01*
X338782Y387142D01*
X338806Y387097D01*
X338836Y387076D01*
X338859Y387048D01*
X338906Y387027D01*
X338948Y386997D01*
X338990Y386989D01*
X339018Y386977D01*
X339048Y386978D01*
X339090Y386970D01*
X381000Y386970D01*
X381050Y386981D01*
G37*
G36*
X100380Y385711D02*
X100380Y385711D01*
X100431Y385713D01*
X100463Y385731D01*
X100499Y385739D01*
X100538Y385772D01*
X100583Y385796D01*
X100604Y385826D01*
X100632Y385849D01*
X100653Y385896D01*
X100683Y385938D01*
X100691Y385980D01*
X100703Y386008D01*
X100702Y386038D01*
X100710Y386080D01*
X100710Y408783D01*
X146319Y454391D01*
X146359Y454456D01*
X146403Y454518D01*
X146405Y454530D01*
X146410Y454538D01*
X146414Y454575D01*
X146430Y454660D01*
X146430Y485140D01*
X146419Y485190D01*
X146417Y485241D01*
X146399Y485273D01*
X146391Y485309D01*
X146358Y485348D01*
X146334Y485393D01*
X146304Y485414D01*
X146281Y485442D01*
X146234Y485463D01*
X146192Y485493D01*
X146150Y485501D01*
X146122Y485513D01*
X146092Y485512D01*
X146050Y485520D01*
X125730Y485520D01*
X125656Y485503D01*
X125581Y485490D01*
X125571Y485483D01*
X125561Y485481D01*
X125532Y485457D01*
X125461Y485409D01*
X60691Y420639D01*
X60651Y420574D01*
X60607Y420512D01*
X60605Y420500D01*
X60600Y420492D01*
X60596Y420455D01*
X60580Y420370D01*
X60580Y386080D01*
X60591Y386030D01*
X60593Y385979D01*
X60611Y385947D01*
X60619Y385911D01*
X60652Y385872D01*
X60676Y385827D01*
X60706Y385806D01*
X60729Y385778D01*
X60776Y385757D01*
X60818Y385727D01*
X60860Y385719D01*
X60888Y385707D01*
X60918Y385708D01*
X60960Y385700D01*
X100330Y385700D01*
X100380Y385711D01*
G37*
G36*
X522020Y388251D02*
X522020Y388251D01*
X522071Y388253D01*
X522103Y388271D01*
X522139Y388279D01*
X522178Y388312D01*
X522223Y388336D01*
X522244Y388366D01*
X522272Y388389D01*
X522293Y388436D01*
X522323Y388478D01*
X522331Y388520D01*
X522343Y388548D01*
X522342Y388578D01*
X522350Y388620D01*
X522350Y411323D01*
X566689Y455661D01*
X566701Y455681D01*
X566717Y455694D01*
X566735Y455734D01*
X566773Y455788D01*
X566775Y455800D01*
X566780Y455808D01*
X566784Y455843D01*
X566788Y455852D01*
X566787Y455862D01*
X566800Y455930D01*
X566800Y485140D01*
X566789Y485190D01*
X566787Y485241D01*
X566769Y485273D01*
X566761Y485309D01*
X566728Y485348D01*
X566704Y485393D01*
X566674Y485414D01*
X566651Y485442D01*
X566604Y485463D01*
X566562Y485493D01*
X566520Y485501D01*
X566492Y485513D01*
X566462Y485512D01*
X566420Y485520D01*
X544830Y485520D01*
X544756Y485503D01*
X544681Y485490D01*
X544671Y485483D01*
X544661Y485481D01*
X544632Y485457D01*
X544561Y485409D01*
X479791Y420639D01*
X479751Y420574D01*
X479707Y420512D01*
X479705Y420500D01*
X479700Y420492D01*
X479696Y420455D01*
X479680Y420370D01*
X479680Y388620D01*
X479691Y388570D01*
X479693Y388519D01*
X479711Y388487D01*
X479719Y388451D01*
X479752Y388412D01*
X479776Y388367D01*
X479806Y388346D01*
X479829Y388318D01*
X479876Y388297D01*
X479918Y388267D01*
X479960Y388259D01*
X479988Y388247D01*
X480018Y388248D01*
X480060Y388240D01*
X521970Y388240D01*
X522020Y388251D01*
G37*
G36*
X662990Y388251D02*
X662990Y388251D01*
X663041Y388253D01*
X663073Y388271D01*
X663109Y388279D01*
X663148Y388312D01*
X663193Y388336D01*
X663214Y388366D01*
X663242Y388389D01*
X663263Y388436D01*
X663293Y388478D01*
X663301Y388520D01*
X663313Y388548D01*
X663312Y388578D01*
X663320Y388620D01*
X663320Y411323D01*
X710199Y458201D01*
X710239Y458266D01*
X710283Y458328D01*
X710285Y458340D01*
X710290Y458348D01*
X710294Y458385D01*
X710310Y458470D01*
X710310Y485140D01*
X710299Y485190D01*
X710297Y485241D01*
X710279Y485273D01*
X710271Y485309D01*
X710238Y485348D01*
X710214Y485393D01*
X710184Y485414D01*
X710161Y485442D01*
X710114Y485463D01*
X710072Y485493D01*
X710030Y485501D01*
X710002Y485513D01*
X709972Y485512D01*
X709930Y485520D01*
X688340Y485520D01*
X688266Y485503D01*
X688191Y485490D01*
X688181Y485483D01*
X688171Y485481D01*
X688142Y485457D01*
X688071Y485409D01*
X622031Y419369D01*
X621991Y419304D01*
X621947Y419242D01*
X621945Y419230D01*
X621940Y419222D01*
X621936Y419185D01*
X621920Y419100D01*
X621920Y388620D01*
X621931Y388570D01*
X621933Y388519D01*
X621951Y388487D01*
X621959Y388451D01*
X621992Y388412D01*
X622016Y388367D01*
X622046Y388346D01*
X622069Y388318D01*
X622116Y388297D01*
X622158Y388267D01*
X622200Y388259D01*
X622228Y388247D01*
X622258Y388248D01*
X622300Y388240D01*
X662940Y388240D01*
X662990Y388251D01*
G37*
G36*
X378150Y259825D02*
X378150Y259825D01*
X378241Y259833D01*
X378271Y259845D01*
X378303Y259850D01*
X378383Y259893D01*
X378467Y259929D01*
X378499Y259955D01*
X378520Y259966D01*
X378542Y259989D01*
X378598Y260034D01*
X389584Y271020D01*
X389626Y271078D01*
X389675Y271130D01*
X389697Y271177D01*
X389728Y271219D01*
X389749Y271288D01*
X389779Y271353D01*
X389785Y271405D01*
X389800Y271455D01*
X389798Y271526D01*
X389806Y271597D01*
X389795Y271648D01*
X389794Y271700D01*
X389769Y271768D01*
X389754Y271838D01*
X389727Y271883D01*
X389709Y271931D01*
X389664Y271987D01*
X389628Y272049D01*
X389588Y272083D01*
X389556Y272123D01*
X389495Y272162D01*
X389441Y272209D01*
X389392Y272228D01*
X389349Y272256D01*
X389279Y272274D01*
X389213Y272301D01*
X389141Y272309D01*
X389110Y272317D01*
X389087Y272315D01*
X389046Y272319D01*
X384816Y272319D01*
X384796Y272316D01*
X384777Y272318D01*
X384675Y272296D01*
X384573Y272280D01*
X384556Y272270D01*
X384536Y272266D01*
X384447Y272213D01*
X384356Y272164D01*
X384342Y272150D01*
X384325Y272140D01*
X384258Y272061D01*
X384186Y271986D01*
X384178Y271968D01*
X384165Y271953D01*
X384126Y271857D01*
X384083Y271763D01*
X384081Y271743D01*
X384073Y271725D01*
X384055Y271558D01*
X384055Y267958D01*
X383162Y267065D01*
X370898Y267065D01*
X370005Y267958D01*
X370005Y279400D01*
X370002Y279420D01*
X370004Y279439D01*
X369982Y279541D01*
X369966Y279643D01*
X369956Y279660D01*
X369952Y279680D01*
X369899Y279769D01*
X369850Y279860D01*
X369836Y279874D01*
X369826Y279891D01*
X369747Y279958D01*
X369672Y280030D01*
X369654Y280038D01*
X369639Y280051D01*
X369543Y280090D01*
X369449Y280133D01*
X369429Y280135D01*
X369411Y280143D01*
X369244Y280161D01*
X364816Y280161D01*
X364796Y280158D01*
X364777Y280160D01*
X364675Y280138D01*
X364573Y280122D01*
X364556Y280112D01*
X364536Y280108D01*
X364447Y280055D01*
X364356Y280006D01*
X364342Y279992D01*
X364325Y279982D01*
X364258Y279903D01*
X364186Y279828D01*
X364178Y279810D01*
X364165Y279795D01*
X364126Y279699D01*
X364083Y279605D01*
X364081Y279585D01*
X364073Y279567D01*
X364055Y279400D01*
X364055Y267958D01*
X363162Y267065D01*
X350898Y267065D01*
X350005Y267958D01*
X350005Y271166D01*
X349994Y271237D01*
X349992Y271309D01*
X349974Y271358D01*
X349966Y271409D01*
X349932Y271472D01*
X349907Y271540D01*
X349875Y271580D01*
X349850Y271626D01*
X349798Y271676D01*
X349754Y271732D01*
X349710Y271760D01*
X349672Y271796D01*
X349607Y271826D01*
X349547Y271865D01*
X349496Y271877D01*
X349449Y271899D01*
X349378Y271907D01*
X349308Y271925D01*
X349256Y271921D01*
X349205Y271926D01*
X349134Y271911D01*
X349063Y271906D01*
X349015Y271885D01*
X348964Y271874D01*
X348903Y271837D01*
X348837Y271809D01*
X348781Y271764D01*
X348753Y271748D01*
X348738Y271730D01*
X348706Y271704D01*
X347535Y270533D01*
X343345Y270533D01*
X340383Y273495D01*
X340383Y277685D01*
X341560Y278862D01*
X341602Y278920D01*
X341652Y278972D01*
X341674Y279019D01*
X341704Y279061D01*
X341725Y279130D01*
X341755Y279195D01*
X341761Y279247D01*
X341776Y279297D01*
X341774Y279368D01*
X341782Y279439D01*
X341771Y279490D01*
X341770Y279542D01*
X341745Y279610D01*
X341730Y279680D01*
X341703Y279724D01*
X341686Y279773D01*
X341641Y279829D01*
X341604Y279891D01*
X341564Y279925D01*
X341532Y279965D01*
X341472Y280004D01*
X341417Y280051D01*
X341369Y280070D01*
X341325Y280098D01*
X341255Y280116D01*
X341189Y280143D01*
X341118Y280151D01*
X341086Y280159D01*
X341063Y280157D01*
X341022Y280161D01*
X252736Y280161D01*
X252716Y280158D01*
X252697Y280160D01*
X252595Y280138D01*
X252493Y280122D01*
X252476Y280112D01*
X252456Y280108D01*
X252367Y280055D01*
X252276Y280006D01*
X252262Y279992D01*
X252245Y279982D01*
X252178Y279903D01*
X252106Y279828D01*
X252098Y279810D01*
X252085Y279795D01*
X252046Y279699D01*
X252003Y279605D01*
X252001Y279585D01*
X251993Y279567D01*
X251975Y279400D01*
X251975Y266688D01*
X251082Y265795D01*
X248982Y265795D01*
X248962Y265792D01*
X248943Y265794D01*
X248841Y265772D01*
X248739Y265756D01*
X248722Y265746D01*
X248702Y265742D01*
X248613Y265689D01*
X248522Y265640D01*
X248508Y265626D01*
X248491Y265616D01*
X248424Y265537D01*
X248352Y265462D01*
X248344Y265444D01*
X248331Y265429D01*
X248292Y265333D01*
X248249Y265239D01*
X248247Y265219D01*
X248239Y265201D01*
X248221Y265034D01*
X248221Y264720D01*
X248235Y264630D01*
X248243Y264539D01*
X248255Y264509D01*
X248260Y264477D01*
X248303Y264397D01*
X248339Y264313D01*
X248365Y264281D01*
X248376Y264260D01*
X248399Y264238D01*
X248444Y264182D01*
X252592Y260034D01*
X252666Y259981D01*
X252735Y259921D01*
X252765Y259909D01*
X252792Y259890D01*
X252879Y259863D01*
X252963Y259829D01*
X253004Y259825D01*
X253027Y259818D01*
X253059Y259819D01*
X253130Y259811D01*
X378060Y259811D01*
X378150Y259825D01*
G37*
G36*
X610920Y304431D02*
X610920Y304431D01*
X610971Y304433D01*
X611003Y304451D01*
X611039Y304459D01*
X611078Y304492D01*
X611123Y304516D01*
X611144Y304546D01*
X611172Y304569D01*
X611193Y304616D01*
X611223Y304658D01*
X611231Y304700D01*
X611243Y304728D01*
X611242Y304758D01*
X611250Y304800D01*
X611250Y334010D01*
X611233Y334084D01*
X611220Y334159D01*
X611213Y334169D01*
X611211Y334179D01*
X611187Y334208D01*
X611139Y334279D01*
X599820Y345598D01*
X599820Y367030D01*
X599809Y367080D01*
X599807Y367131D01*
X599789Y367163D01*
X599781Y367199D01*
X599748Y367238D01*
X599724Y367283D01*
X599694Y367304D01*
X599671Y367332D01*
X599624Y367353D01*
X599582Y367383D01*
X599540Y367391D01*
X599512Y367403D01*
X599482Y367402D01*
X599440Y367410D01*
X580390Y367410D01*
X580340Y367399D01*
X580289Y367397D01*
X580257Y367379D01*
X580221Y367371D01*
X580182Y367338D01*
X580137Y367314D01*
X580116Y367284D01*
X580088Y367261D01*
X580067Y367214D01*
X580037Y367172D01*
X580029Y367130D01*
X580017Y367102D01*
X580018Y367072D01*
X580010Y367030D01*
X580010Y304800D01*
X580021Y304750D01*
X580023Y304699D01*
X580041Y304667D01*
X580049Y304631D01*
X580082Y304592D01*
X580106Y304547D01*
X580136Y304526D01*
X580159Y304498D01*
X580206Y304477D01*
X580248Y304447D01*
X580290Y304439D01*
X580318Y304427D01*
X580348Y304428D01*
X580390Y304420D01*
X610870Y304420D01*
X610920Y304431D01*
G37*
G36*
X468680Y304431D02*
X468680Y304431D01*
X468731Y304433D01*
X468763Y304451D01*
X468799Y304459D01*
X468838Y304492D01*
X468883Y304516D01*
X468904Y304546D01*
X468932Y304569D01*
X468953Y304616D01*
X468983Y304658D01*
X468991Y304700D01*
X469003Y304728D01*
X469002Y304758D01*
X469010Y304800D01*
X469010Y334010D01*
X468993Y334084D01*
X468980Y334159D01*
X468973Y334169D01*
X468971Y334179D01*
X468947Y334208D01*
X468899Y334279D01*
X457580Y345598D01*
X457580Y367030D01*
X457569Y367080D01*
X457567Y367131D01*
X457549Y367163D01*
X457541Y367199D01*
X457508Y367238D01*
X457484Y367283D01*
X457454Y367304D01*
X457431Y367332D01*
X457384Y367353D01*
X457342Y367383D01*
X457300Y367391D01*
X457272Y367403D01*
X457242Y367402D01*
X457200Y367410D01*
X439420Y367410D01*
X439370Y367399D01*
X439319Y367397D01*
X439287Y367379D01*
X439251Y367371D01*
X439212Y367338D01*
X439167Y367314D01*
X439146Y367284D01*
X439118Y367261D01*
X439097Y367214D01*
X439067Y367172D01*
X439059Y367130D01*
X439047Y367102D01*
X439048Y367072D01*
X439040Y367030D01*
X439040Y304800D01*
X439051Y304750D01*
X439053Y304699D01*
X439071Y304667D01*
X439079Y304631D01*
X439112Y304592D01*
X439136Y304547D01*
X439166Y304526D01*
X439189Y304498D01*
X439236Y304477D01*
X439278Y304447D01*
X439320Y304439D01*
X439348Y304427D01*
X439378Y304428D01*
X439420Y304420D01*
X468630Y304420D01*
X468680Y304431D01*
G37*
G36*
X327710Y304431D02*
X327710Y304431D01*
X327761Y304433D01*
X327793Y304451D01*
X327829Y304459D01*
X327868Y304492D01*
X327913Y304516D01*
X327934Y304546D01*
X327962Y304569D01*
X327983Y304616D01*
X328013Y304658D01*
X328021Y304700D01*
X328033Y304728D01*
X328032Y304758D01*
X328040Y304800D01*
X328040Y334010D01*
X328023Y334084D01*
X328010Y334159D01*
X328003Y334169D01*
X328001Y334179D01*
X327977Y334208D01*
X327929Y334279D01*
X316610Y345598D01*
X316610Y365760D01*
X316599Y365810D01*
X316597Y365861D01*
X316579Y365893D01*
X316571Y365929D01*
X316538Y365968D01*
X316514Y366013D01*
X316484Y366034D01*
X316461Y366062D01*
X316414Y366083D01*
X316372Y366113D01*
X316330Y366121D01*
X316302Y366133D01*
X316272Y366132D01*
X316230Y366140D01*
X298450Y366140D01*
X298400Y366129D01*
X298349Y366127D01*
X298317Y366109D01*
X298281Y366101D01*
X298242Y366068D01*
X298197Y366044D01*
X298176Y366014D01*
X298148Y365991D01*
X298127Y365944D01*
X298097Y365902D01*
X298089Y365860D01*
X298077Y365832D01*
X298078Y365802D01*
X298070Y365760D01*
X298070Y304800D01*
X298081Y304750D01*
X298083Y304699D01*
X298101Y304667D01*
X298109Y304631D01*
X298142Y304592D01*
X298166Y304547D01*
X298196Y304526D01*
X298219Y304498D01*
X298266Y304477D01*
X298308Y304447D01*
X298350Y304439D01*
X298378Y304427D01*
X298408Y304428D01*
X298450Y304420D01*
X327660Y304420D01*
X327710Y304431D01*
G37*
G36*
X189280Y304431D02*
X189280Y304431D01*
X189331Y304433D01*
X189363Y304451D01*
X189399Y304459D01*
X189438Y304492D01*
X189483Y304516D01*
X189504Y304546D01*
X189532Y304569D01*
X189553Y304616D01*
X189583Y304658D01*
X189591Y304700D01*
X189603Y304728D01*
X189602Y304758D01*
X189610Y304800D01*
X189610Y334010D01*
X189593Y334084D01*
X189580Y334159D01*
X189573Y334169D01*
X189571Y334179D01*
X189547Y334208D01*
X189499Y334279D01*
X178180Y345598D01*
X178180Y364490D01*
X178169Y364540D01*
X178167Y364591D01*
X178149Y364623D01*
X178141Y364659D01*
X178108Y364698D01*
X178084Y364743D01*
X178054Y364764D01*
X178031Y364792D01*
X177984Y364813D01*
X177942Y364843D01*
X177900Y364851D01*
X177872Y364863D01*
X177842Y364862D01*
X177800Y364870D01*
X160020Y364870D01*
X159970Y364859D01*
X159919Y364857D01*
X159887Y364839D01*
X159851Y364831D01*
X159812Y364798D01*
X159767Y364774D01*
X159746Y364744D01*
X159718Y364721D01*
X159697Y364674D01*
X159667Y364632D01*
X159659Y364590D01*
X159647Y364562D01*
X159648Y364532D01*
X159640Y364490D01*
X159640Y304800D01*
X159651Y304750D01*
X159653Y304699D01*
X159671Y304667D01*
X159679Y304631D01*
X159712Y304592D01*
X159736Y304547D01*
X159766Y304526D01*
X159789Y304498D01*
X159836Y304477D01*
X159878Y304447D01*
X159920Y304439D01*
X159948Y304427D01*
X159978Y304428D01*
X160020Y304420D01*
X189230Y304420D01*
X189280Y304431D01*
G37*
G36*
X38150Y306971D02*
X38150Y306971D01*
X38201Y306973D01*
X38233Y306991D01*
X38269Y306999D01*
X38308Y307032D01*
X38353Y307056D01*
X38374Y307086D01*
X38402Y307109D01*
X38423Y307156D01*
X38453Y307198D01*
X38461Y307240D01*
X38473Y307268D01*
X38472Y307298D01*
X38480Y307340D01*
X38480Y365760D01*
X38469Y365810D01*
X38467Y365861D01*
X38449Y365893D01*
X38441Y365929D01*
X38408Y365968D01*
X38384Y366013D01*
X38354Y366034D01*
X38331Y366062D01*
X38284Y366083D01*
X38242Y366113D01*
X38200Y366121D01*
X38172Y366133D01*
X38142Y366132D01*
X38100Y366140D01*
X17780Y366140D01*
X17730Y366129D01*
X17679Y366127D01*
X17647Y366109D01*
X17611Y366101D01*
X17572Y366068D01*
X17527Y366044D01*
X17506Y366014D01*
X17478Y365991D01*
X17457Y365944D01*
X17427Y365902D01*
X17419Y365860D01*
X17407Y365832D01*
X17408Y365802D01*
X17400Y365760D01*
X17400Y307340D01*
X17411Y307290D01*
X17413Y307239D01*
X17431Y307207D01*
X17439Y307171D01*
X17472Y307132D01*
X17496Y307087D01*
X17526Y307066D01*
X17549Y307038D01*
X17596Y307017D01*
X17638Y306987D01*
X17680Y306979D01*
X17708Y306967D01*
X17738Y306968D01*
X17780Y306960D01*
X38100Y306960D01*
X38150Y306971D01*
G37*
%LPC*%
G36*
X455105Y151153D02*
X455105Y151153D01*
X452143Y154115D01*
X452143Y158305D01*
X453274Y159436D01*
X453316Y159494D01*
X453366Y159546D01*
X453388Y159593D01*
X453418Y159635D01*
X453439Y159704D01*
X453469Y159769D01*
X453475Y159821D01*
X453490Y159871D01*
X453488Y159942D01*
X453496Y160013D01*
X453485Y160064D01*
X453484Y160116D01*
X453459Y160184D01*
X453444Y160254D01*
X453417Y160299D01*
X453400Y160347D01*
X453355Y160403D01*
X453318Y160465D01*
X453278Y160499D01*
X453246Y160539D01*
X453186Y160578D01*
X453131Y160625D01*
X453083Y160644D01*
X453039Y160672D01*
X452969Y160690D01*
X452903Y160717D01*
X452832Y160725D01*
X452800Y160733D01*
X452777Y160731D01*
X452736Y160735D01*
X452248Y160735D01*
X451355Y161628D01*
X451355Y163498D01*
X451352Y163518D01*
X451354Y163537D01*
X451332Y163639D01*
X451316Y163741D01*
X451306Y163758D01*
X451302Y163778D01*
X451249Y163867D01*
X451200Y163958D01*
X451186Y163972D01*
X451176Y163989D01*
X451097Y164056D01*
X451022Y164128D01*
X451004Y164136D01*
X450989Y164149D01*
X450893Y164188D01*
X450799Y164231D01*
X450779Y164233D01*
X450761Y164241D01*
X450594Y164259D01*
X423166Y164259D01*
X423146Y164256D01*
X423127Y164258D01*
X423025Y164236D01*
X422923Y164220D01*
X422906Y164210D01*
X422886Y164206D01*
X422797Y164153D01*
X422706Y164104D01*
X422692Y164090D01*
X422675Y164080D01*
X422608Y164001D01*
X422536Y163926D01*
X422528Y163908D01*
X422515Y163893D01*
X422476Y163797D01*
X422433Y163703D01*
X422431Y163683D01*
X422423Y163665D01*
X422405Y163498D01*
X422405Y161628D01*
X421512Y160735D01*
X411248Y160735D01*
X410355Y161628D01*
X410355Y172892D01*
X411248Y173785D01*
X421512Y173785D01*
X422405Y172892D01*
X422405Y171022D01*
X422408Y171002D01*
X422406Y170983D01*
X422428Y170881D01*
X422444Y170779D01*
X422454Y170762D01*
X422458Y170742D01*
X422511Y170653D01*
X422560Y170562D01*
X422574Y170548D01*
X422584Y170531D01*
X422663Y170464D01*
X422738Y170392D01*
X422756Y170384D01*
X422771Y170371D01*
X422867Y170332D01*
X422961Y170289D01*
X422981Y170287D01*
X422999Y170279D01*
X423166Y170261D01*
X450594Y170261D01*
X450614Y170264D01*
X450633Y170262D01*
X450735Y170284D01*
X450837Y170300D01*
X450854Y170310D01*
X450874Y170314D01*
X450963Y170367D01*
X451054Y170416D01*
X451068Y170430D01*
X451085Y170440D01*
X451152Y170519D01*
X451224Y170594D01*
X451232Y170612D01*
X451245Y170627D01*
X451284Y170723D01*
X451327Y170817D01*
X451329Y170837D01*
X451337Y170855D01*
X451355Y171022D01*
X451355Y172892D01*
X452248Y173785D01*
X462512Y173785D01*
X463405Y172892D01*
X463405Y161628D01*
X462512Y160735D01*
X461664Y160735D01*
X461593Y160724D01*
X461521Y160722D01*
X461472Y160704D01*
X461421Y160696D01*
X461358Y160662D01*
X461290Y160637D01*
X461250Y160605D01*
X461204Y160580D01*
X461154Y160528D01*
X461098Y160484D01*
X461070Y160440D01*
X461034Y160402D01*
X461004Y160337D01*
X460965Y160277D01*
X460953Y160226D01*
X460931Y160179D01*
X460923Y160108D01*
X460905Y160038D01*
X460909Y159986D01*
X460904Y159935D01*
X460919Y159864D01*
X460924Y159793D01*
X460945Y159745D01*
X460956Y159694D01*
X460993Y159633D01*
X461021Y159567D01*
X461066Y159511D01*
X461082Y159483D01*
X461100Y159468D01*
X461126Y159436D01*
X462257Y158305D01*
X462257Y154115D01*
X459295Y151153D01*
X455105Y151153D01*
G37*
%LPD*%
G36*
X559479Y253322D02*
X559479Y253322D01*
X559582Y253325D01*
X559601Y253332D01*
X559621Y253333D01*
X559716Y253374D01*
X559813Y253409D01*
X559829Y253422D01*
X559847Y253430D01*
X559978Y253535D01*
X560581Y254137D01*
X560592Y254153D01*
X560608Y254166D01*
X560664Y254253D01*
X560724Y254337D01*
X560730Y254356D01*
X560741Y254373D01*
X560766Y254473D01*
X560797Y254572D01*
X560796Y254592D01*
X560801Y254611D01*
X560793Y254714D01*
X560790Y254818D01*
X560783Y254837D01*
X560782Y254856D01*
X560742Y254951D01*
X560706Y255049D01*
X560693Y255064D01*
X560686Y255083D01*
X560581Y255214D01*
X555529Y260265D01*
X555529Y263764D01*
X555526Y263784D01*
X555528Y263803D01*
X555506Y263905D01*
X555490Y264007D01*
X555480Y264024D01*
X555476Y264044D01*
X555423Y264133D01*
X555374Y264224D01*
X555360Y264238D01*
X555350Y264255D01*
X555271Y264322D01*
X555196Y264394D01*
X555178Y264402D01*
X555163Y264415D01*
X555067Y264454D01*
X554973Y264497D01*
X554953Y264499D01*
X554935Y264507D01*
X554768Y264525D01*
X552508Y264525D01*
X551615Y265418D01*
X551615Y279400D01*
X551612Y279420D01*
X551614Y279439D01*
X551592Y279541D01*
X551576Y279643D01*
X551566Y279660D01*
X551562Y279680D01*
X551509Y279769D01*
X551460Y279860D01*
X551446Y279874D01*
X551436Y279891D01*
X551357Y279958D01*
X551282Y280030D01*
X551264Y280038D01*
X551249Y280051D01*
X551153Y280090D01*
X551059Y280133D01*
X551039Y280135D01*
X551021Y280143D01*
X550854Y280161D01*
X546426Y280161D01*
X546406Y280158D01*
X546387Y280160D01*
X546285Y280138D01*
X546183Y280122D01*
X546166Y280112D01*
X546146Y280108D01*
X546057Y280055D01*
X545966Y280006D01*
X545952Y279992D01*
X545935Y279982D01*
X545868Y279903D01*
X545796Y279828D01*
X545788Y279810D01*
X545775Y279795D01*
X545736Y279699D01*
X545693Y279605D01*
X545691Y279585D01*
X545683Y279567D01*
X545665Y279400D01*
X545665Y265418D01*
X544772Y264525D01*
X532508Y264525D01*
X531615Y265418D01*
X531615Y269018D01*
X531612Y269038D01*
X531614Y269057D01*
X531592Y269159D01*
X531576Y269261D01*
X531566Y269278D01*
X531562Y269298D01*
X531509Y269387D01*
X531460Y269478D01*
X531446Y269492D01*
X531436Y269509D01*
X531357Y269576D01*
X531282Y269648D01*
X531264Y269656D01*
X531249Y269669D01*
X531153Y269708D01*
X531059Y269751D01*
X531039Y269753D01*
X531021Y269761D01*
X530854Y269779D01*
X526965Y269779D01*
X522624Y274120D01*
X522550Y274173D01*
X522481Y274233D01*
X522451Y274245D01*
X522424Y274264D01*
X522337Y274291D01*
X522253Y274325D01*
X522212Y274329D01*
X522189Y274336D01*
X522157Y274335D01*
X522086Y274343D01*
X519875Y274343D01*
X516913Y277305D01*
X516913Y279400D01*
X516910Y279420D01*
X516912Y279439D01*
X516890Y279541D01*
X516874Y279643D01*
X516864Y279660D01*
X516860Y279680D01*
X516807Y279769D01*
X516758Y279860D01*
X516744Y279874D01*
X516734Y279891D01*
X516655Y279958D01*
X516580Y280030D01*
X516562Y280038D01*
X516547Y280051D01*
X516451Y280090D01*
X516357Y280133D01*
X516337Y280135D01*
X516319Y280143D01*
X516152Y280161D01*
X513702Y280161D01*
X513631Y280150D01*
X513560Y280148D01*
X513511Y280130D01*
X513459Y280122D01*
X513396Y280088D01*
X513329Y280063D01*
X513288Y280031D01*
X513242Y280006D01*
X513193Y279955D01*
X513137Y279910D01*
X513108Y279866D01*
X513073Y279828D01*
X513042Y279763D01*
X513004Y279703D01*
X512991Y279652D01*
X512969Y279605D01*
X512961Y279534D01*
X512944Y279464D01*
X512948Y279412D01*
X512942Y279361D01*
X512957Y279290D01*
X512963Y279219D01*
X512983Y279171D01*
X512994Y279120D01*
X513031Y279059D01*
X513059Y278993D01*
X513104Y278937D01*
X513120Y278909D01*
X513138Y278894D01*
X513164Y278862D01*
X515304Y276722D01*
X533072Y258954D01*
X535211Y256815D01*
X535211Y255376D01*
X535214Y255356D01*
X535212Y255337D01*
X535234Y255235D01*
X535250Y255133D01*
X535260Y255116D01*
X535264Y255096D01*
X535317Y255007D01*
X535366Y254916D01*
X535380Y254902D01*
X535390Y254885D01*
X535469Y254818D01*
X535544Y254746D01*
X535562Y254738D01*
X535577Y254725D01*
X535673Y254686D01*
X535767Y254643D01*
X535787Y254641D01*
X535802Y254635D01*
X536902Y253535D01*
X536918Y253523D01*
X536930Y253507D01*
X537018Y253451D01*
X537101Y253391D01*
X537120Y253385D01*
X537137Y253374D01*
X537238Y253349D01*
X537337Y253319D01*
X537356Y253319D01*
X537376Y253314D01*
X537479Y253322D01*
X537582Y253325D01*
X537601Y253332D01*
X537621Y253333D01*
X537716Y253374D01*
X537813Y253409D01*
X537829Y253422D01*
X537847Y253430D01*
X537978Y253535D01*
X539058Y254615D01*
X546822Y254615D01*
X547902Y253535D01*
X547918Y253523D01*
X547930Y253507D01*
X548018Y253451D01*
X548101Y253391D01*
X548120Y253385D01*
X548137Y253374D01*
X548238Y253349D01*
X548337Y253319D01*
X548356Y253319D01*
X548376Y253314D01*
X548479Y253322D01*
X548582Y253325D01*
X548601Y253332D01*
X548621Y253333D01*
X548716Y253374D01*
X548813Y253409D01*
X548829Y253422D01*
X548847Y253430D01*
X548978Y253535D01*
X550058Y254615D01*
X557822Y254615D01*
X558902Y253535D01*
X558918Y253523D01*
X558930Y253507D01*
X559018Y253451D01*
X559101Y253391D01*
X559120Y253385D01*
X559137Y253374D01*
X559238Y253349D01*
X559337Y253319D01*
X559356Y253319D01*
X559376Y253314D01*
X559479Y253322D01*
G37*
%LPC*%
G36*
X573137Y32257D02*
X573137Y32257D01*
X569123Y33920D01*
X566050Y36993D01*
X564387Y41007D01*
X564387Y45353D01*
X566050Y49367D01*
X569123Y52440D01*
X573137Y54103D01*
X577483Y54103D01*
X581497Y52440D01*
X584570Y49367D01*
X586233Y45353D01*
X586233Y41007D01*
X584570Y36993D01*
X581497Y33920D01*
X577483Y32257D01*
X573137Y32257D01*
G37*
%LPD*%
%LPC*%
G36*
X475618Y22605D02*
X475618Y22605D01*
X474725Y23498D01*
X474725Y40002D01*
X475618Y40895D01*
X492122Y40895D01*
X493015Y40002D01*
X493015Y23498D01*
X492122Y22605D01*
X475618Y22605D01*
G37*
%LPD*%
%LPC*%
G36*
X417198Y22605D02*
X417198Y22605D01*
X416305Y23498D01*
X416305Y40002D01*
X417198Y40895D01*
X433702Y40895D01*
X434595Y40002D01*
X434595Y23498D01*
X433702Y22605D01*
X417198Y22605D01*
G37*
%LPD*%
%LPC*%
G36*
X358778Y22605D02*
X358778Y22605D01*
X357885Y23498D01*
X357885Y40002D01*
X358778Y40895D01*
X375282Y40895D01*
X376175Y40002D01*
X376175Y23498D01*
X375282Y22605D01*
X358778Y22605D01*
G37*
%LPD*%
%LPC*%
G36*
X300358Y22605D02*
X300358Y22605D01*
X299465Y23498D01*
X299465Y40002D01*
X300358Y40895D01*
X316862Y40895D01*
X317755Y40002D01*
X317755Y23498D01*
X316862Y22605D01*
X300358Y22605D01*
G37*
%LPD*%
%LPC*%
G36*
X241938Y22605D02*
X241938Y22605D01*
X241045Y23498D01*
X241045Y40002D01*
X241938Y40895D01*
X258442Y40895D01*
X259335Y40002D01*
X259335Y23498D01*
X258442Y22605D01*
X241938Y22605D01*
G37*
%LPD*%
G36*
X570479Y253322D02*
X570479Y253322D01*
X570582Y253325D01*
X570601Y253332D01*
X570621Y253333D01*
X570716Y253374D01*
X570813Y253409D01*
X570829Y253422D01*
X570847Y253430D01*
X570978Y253535D01*
X572088Y254644D01*
X572151Y254654D01*
X572168Y254664D01*
X572188Y254668D01*
X572277Y254721D01*
X572368Y254770D01*
X572382Y254784D01*
X572399Y254794D01*
X572466Y254873D01*
X572538Y254948D01*
X572546Y254966D01*
X572559Y254981D01*
X572598Y255077D01*
X572641Y255171D01*
X572643Y255191D01*
X572651Y255209D01*
X572669Y255376D01*
X572669Y257255D01*
X578640Y263226D01*
X578682Y263284D01*
X578731Y263336D01*
X578753Y263383D01*
X578784Y263425D01*
X578805Y263494D01*
X578835Y263559D01*
X578841Y263611D01*
X578856Y263661D01*
X578854Y263732D01*
X578862Y263803D01*
X578851Y263854D01*
X578850Y263906D01*
X578825Y263974D01*
X578810Y264044D01*
X578783Y264089D01*
X578765Y264137D01*
X578720Y264193D01*
X578684Y264255D01*
X578644Y264289D01*
X578612Y264329D01*
X578551Y264368D01*
X578497Y264415D01*
X578448Y264434D01*
X578405Y264462D01*
X578335Y264480D01*
X578269Y264507D01*
X578197Y264515D01*
X578166Y264523D01*
X578143Y264521D01*
X578102Y264525D01*
X576958Y264525D01*
X576065Y265418D01*
X576065Y279400D01*
X576062Y279420D01*
X576064Y279439D01*
X576042Y279541D01*
X576026Y279643D01*
X576016Y279660D01*
X576012Y279680D01*
X575959Y279769D01*
X575910Y279860D01*
X575896Y279874D01*
X575886Y279891D01*
X575807Y279958D01*
X575732Y280030D01*
X575714Y280038D01*
X575699Y280051D01*
X575603Y280090D01*
X575509Y280133D01*
X575489Y280135D01*
X575471Y280143D01*
X575304Y280161D01*
X566426Y280161D01*
X566406Y280158D01*
X566387Y280160D01*
X566285Y280138D01*
X566183Y280122D01*
X566166Y280112D01*
X566146Y280108D01*
X566057Y280055D01*
X565966Y280006D01*
X565952Y279992D01*
X565935Y279982D01*
X565868Y279903D01*
X565796Y279828D01*
X565788Y279810D01*
X565775Y279795D01*
X565736Y279699D01*
X565693Y279605D01*
X565691Y279585D01*
X565683Y279567D01*
X565665Y279400D01*
X565665Y265418D01*
X564772Y264525D01*
X562832Y264525D01*
X562812Y264522D01*
X562793Y264524D01*
X562691Y264502D01*
X562589Y264486D01*
X562572Y264476D01*
X562552Y264472D01*
X562463Y264419D01*
X562372Y264370D01*
X562358Y264356D01*
X562341Y264346D01*
X562274Y264267D01*
X562202Y264192D01*
X562194Y264174D01*
X562181Y264159D01*
X562142Y264063D01*
X562099Y263969D01*
X562097Y263949D01*
X562089Y263931D01*
X562071Y263764D01*
X562071Y263290D01*
X562085Y263200D01*
X562093Y263109D01*
X562105Y263079D01*
X562110Y263047D01*
X562153Y262967D01*
X562189Y262883D01*
X562215Y262851D01*
X562226Y262830D01*
X562249Y262808D01*
X562294Y262752D01*
X568211Y256835D01*
X568211Y255376D01*
X568214Y255356D01*
X568212Y255337D01*
X568234Y255235D01*
X568250Y255133D01*
X568260Y255116D01*
X568264Y255096D01*
X568317Y255007D01*
X568366Y254916D01*
X568380Y254902D01*
X568390Y254885D01*
X568469Y254818D01*
X568544Y254746D01*
X568562Y254738D01*
X568577Y254725D01*
X568673Y254686D01*
X568767Y254643D01*
X568787Y254641D01*
X568802Y254635D01*
X569902Y253535D01*
X569918Y253523D01*
X569930Y253507D01*
X570018Y253451D01*
X570101Y253391D01*
X570120Y253385D01*
X570137Y253374D01*
X570238Y253349D01*
X570337Y253319D01*
X570356Y253319D01*
X570376Y253314D01*
X570479Y253322D01*
G37*
G36*
X536721Y229072D02*
X536721Y229072D01*
X536793Y229074D01*
X536842Y229092D01*
X536893Y229100D01*
X536956Y229134D01*
X537024Y229159D01*
X537064Y229191D01*
X537110Y229216D01*
X537160Y229268D01*
X537216Y229312D01*
X537244Y229356D01*
X537280Y229394D01*
X537310Y229459D01*
X537349Y229519D01*
X537361Y229570D01*
X537383Y229617D01*
X537391Y229688D01*
X537409Y229758D01*
X537405Y229810D01*
X537410Y229861D01*
X537395Y229932D01*
X537390Y230003D01*
X537369Y230051D01*
X537358Y230102D01*
X537321Y230163D01*
X537293Y230229D01*
X537248Y230285D01*
X537233Y230311D01*
X537233Y234505D01*
X538638Y235909D01*
X538650Y235925D01*
X538665Y235938D01*
X538721Y236025D01*
X538781Y236109D01*
X538787Y236128D01*
X538798Y236145D01*
X538823Y236245D01*
X538854Y236344D01*
X538853Y236364D01*
X538858Y236383D01*
X538850Y236486D01*
X538847Y236590D01*
X538841Y236609D01*
X538839Y236629D01*
X538799Y236723D01*
X538763Y236821D01*
X538750Y236837D01*
X538743Y236855D01*
X538668Y236948D01*
X538662Y236957D01*
X538657Y236962D01*
X538638Y236986D01*
X537978Y237645D01*
X537962Y237657D01*
X537950Y237673D01*
X537862Y237729D01*
X537779Y237789D01*
X537760Y237795D01*
X537743Y237806D01*
X537642Y237831D01*
X537543Y237861D01*
X537524Y237861D01*
X537504Y237866D01*
X537401Y237858D01*
X537298Y237855D01*
X537279Y237848D01*
X537259Y237847D01*
X537164Y237806D01*
X537067Y237771D01*
X537051Y237758D01*
X537033Y237750D01*
X536902Y237645D01*
X535822Y236565D01*
X528058Y236565D01*
X526978Y237645D01*
X526962Y237657D01*
X526950Y237673D01*
X526862Y237729D01*
X526779Y237789D01*
X526760Y237795D01*
X526743Y237806D01*
X526642Y237831D01*
X526543Y237861D01*
X526524Y237861D01*
X526504Y237866D01*
X526401Y237858D01*
X526298Y237855D01*
X526279Y237848D01*
X526259Y237847D01*
X526164Y237806D01*
X526067Y237771D01*
X526051Y237758D01*
X526033Y237750D01*
X525902Y237645D01*
X524822Y236565D01*
X517058Y236565D01*
X515978Y237645D01*
X515962Y237657D01*
X515950Y237673D01*
X515862Y237729D01*
X515779Y237789D01*
X515760Y237795D01*
X515743Y237806D01*
X515642Y237831D01*
X515543Y237861D01*
X515524Y237861D01*
X515504Y237866D01*
X515401Y237858D01*
X515298Y237855D01*
X515279Y237848D01*
X515259Y237847D01*
X515164Y237806D01*
X515067Y237771D01*
X515051Y237758D01*
X515033Y237750D01*
X514902Y237645D01*
X513822Y236565D01*
X506058Y236565D01*
X504978Y237645D01*
X504962Y237657D01*
X504950Y237673D01*
X504862Y237729D01*
X504779Y237789D01*
X504760Y237795D01*
X504743Y237806D01*
X504642Y237831D01*
X504543Y237861D01*
X504524Y237861D01*
X504504Y237866D01*
X504401Y237858D01*
X504298Y237855D01*
X504279Y237848D01*
X504259Y237847D01*
X504164Y237806D01*
X504067Y237771D01*
X504051Y237758D01*
X504033Y237750D01*
X503902Y237645D01*
X503002Y236746D01*
X502990Y236730D01*
X502975Y236717D01*
X502919Y236630D01*
X502859Y236546D01*
X502853Y236527D01*
X502842Y236510D01*
X502817Y236410D01*
X502786Y236311D01*
X502787Y236291D01*
X502782Y236272D01*
X502790Y236169D01*
X502793Y236065D01*
X502799Y236046D01*
X502801Y236027D01*
X502841Y235932D01*
X502877Y235834D01*
X502890Y235818D01*
X502897Y235800D01*
X503002Y235669D01*
X504167Y234505D01*
X504167Y230299D01*
X504120Y230250D01*
X504098Y230203D01*
X504068Y230161D01*
X504047Y230092D01*
X504017Y230027D01*
X504011Y229975D01*
X503996Y229926D01*
X503998Y229854D01*
X503990Y229783D01*
X504001Y229732D01*
X504002Y229680D01*
X504027Y229612D01*
X504042Y229542D01*
X504069Y229497D01*
X504086Y229449D01*
X504131Y229393D01*
X504168Y229331D01*
X504208Y229297D01*
X504240Y229257D01*
X504301Y229218D01*
X504355Y229171D01*
X504403Y229152D01*
X504447Y229124D01*
X504517Y229106D01*
X504583Y229079D01*
X504654Y229071D01*
X504686Y229063D01*
X504709Y229065D01*
X504750Y229061D01*
X536650Y229061D01*
X536721Y229072D01*
G37*
D10*
X64530Y394420D03*
X34530Y394420D03*
X64530Y357420D03*
X34530Y357420D03*
D11*
X49530Y375920D03*
D12*
X42400Y469900D03*
X135400Y469900D03*
D13*
X92710Y354420D03*
X92710Y397420D03*
D14*
X81690Y321310D03*
X37690Y321310D03*
D15*
X139700Y393650D03*
X139700Y330250D03*
D16*
X224790Y571500D03*
X250190Y571500D03*
D10*
X342660Y395690D03*
X312660Y395690D03*
X342660Y358690D03*
X312660Y358690D03*
D11*
X327660Y377190D03*
D12*
X323070Y469900D03*
X416070Y469900D03*
D13*
X373380Y355690D03*
X373380Y398690D03*
D14*
X362360Y320040D03*
X318360Y320040D03*
D15*
X419100Y393650D03*
X419100Y330250D03*
D16*
X344170Y571500D03*
X369570Y571500D03*
D10*
X204230Y394420D03*
X174230Y394420D03*
X204230Y357420D03*
X174230Y357420D03*
D11*
X189230Y375920D03*
D12*
X182100Y469900D03*
X275100Y469900D03*
D13*
X232410Y355690D03*
X232410Y398690D03*
D14*
X223930Y320040D03*
X179930Y320040D03*
D15*
X278130Y393650D03*
X278130Y330250D03*
D16*
X284480Y571500D03*
X309880Y571500D03*
D10*
X483630Y396960D03*
X453630Y396960D03*
X483630Y359960D03*
X453630Y359960D03*
D11*
X468630Y378460D03*
D12*
X462770Y469900D03*
X555770Y469900D03*
D13*
X514350Y356960D03*
X514350Y399960D03*
D14*
X503330Y320040D03*
X459330Y320040D03*
D15*
X560070Y394920D03*
X560070Y331520D03*
D16*
X403860Y571500D03*
X429260Y571500D03*
D10*
X625870Y396960D03*
X595870Y396960D03*
X625870Y359960D03*
X595870Y359960D03*
D11*
X610870Y378460D03*
D12*
X606280Y469900D03*
X699280Y469900D03*
D13*
X655320Y356960D03*
X655320Y399960D03*
D14*
X645570Y320040D03*
X601570Y320040D03*
D15*
X701040Y394920D03*
X701040Y331520D03*
D16*
X463550Y571500D03*
X488950Y571500D03*
D17*
X619940Y245590D03*
X608940Y245590D03*
X597940Y245590D03*
X586940Y245590D03*
X575940Y245590D03*
X564940Y245590D03*
X553940Y245590D03*
X542940Y245590D03*
X531940Y245590D03*
X520940Y245590D03*
X509940Y245590D03*
X498940Y245590D03*
D18*
X475440Y229390D03*
X475440Y218390D03*
X475440Y207390D03*
X475440Y196390D03*
X475440Y185390D03*
X475440Y174390D03*
X475440Y163390D03*
D17*
X630940Y245590D03*
X619940Y81690D03*
X608940Y81690D03*
X597940Y81690D03*
X586940Y81690D03*
X575940Y81690D03*
X564940Y81690D03*
X553940Y81690D03*
X542940Y81690D03*
X531940Y81690D03*
X520940Y81690D03*
X509940Y81690D03*
X498940Y81690D03*
X630940Y81690D03*
D18*
X475440Y152390D03*
X475440Y141390D03*
X475440Y130390D03*
X475440Y119390D03*
X475440Y108390D03*
X475440Y97390D03*
D19*
X179230Y274320D03*
X199230Y274320D03*
X357030Y275590D03*
X377030Y275590D03*
X224950Y274320D03*
X244950Y274320D03*
X538640Y273050D03*
X558640Y273050D03*
X603090Y273050D03*
X583090Y273050D03*
D20*
X451730Y109220D03*
X434730Y109220D03*
X451730Y93980D03*
X434730Y93980D03*
D21*
X143510Y96520D03*
D22*
X183510Y113520D03*
X143510Y130520D03*
X183510Y147520D03*
X143510Y164520D03*
D12*
X216390Y128270D03*
X309390Y128270D03*
D23*
X363220Y134490D03*
X363220Y86490D03*
D24*
X186600Y205740D03*
X143600Y205740D03*
D25*
X22990Y124460D03*
X70990Y124460D03*
D26*
X341630Y192880D03*
X341630Y172880D03*
X377190Y172880D03*
X377190Y192880D03*
D27*
X359410Y192650D03*
X359410Y175650D03*
D28*
X101600Y274460D03*
X101600Y233540D03*
D27*
X414020Y122800D03*
X414020Y105800D03*
D29*
X678370Y269550D02*
X678370Y276550D01*
X685370Y276550D01*
X685370Y269550D01*
X678370Y269550D01*
X678370Y272400D02*
X685370Y272400D01*
X685370Y275250D02*
X678370Y275250D01*
X660830Y276550D02*
X660830Y269550D01*
X660830Y276550D02*
X667830Y276550D01*
X667830Y269550D01*
X660830Y269550D01*
X660830Y272400D02*
X667830Y272400D01*
X667830Y275250D02*
X660830Y275250D01*
D20*
X648580Y273050D03*
X631580Y273050D03*
D30*
X457380Y183260D03*
X457380Y167260D03*
X416380Y167260D03*
X416380Y183260D03*
X457380Y230250D03*
X457380Y214250D03*
X416380Y214250D03*
X416380Y230250D03*
D31*
X549910Y17780D03*
X549910Y43180D03*
X575310Y17780D03*
X575310Y43180D03*
X600710Y17780D03*
X600710Y43180D03*
X626110Y17780D03*
X626110Y43180D03*
D32*
X34290Y265430D03*
D33*
X34290Y215430D03*
D16*
X483870Y31750D03*
X458470Y31750D03*
X425450Y31750D03*
X400050Y31750D03*
X367030Y31750D03*
X341630Y31750D03*
X308610Y31750D03*
X283210Y31750D03*
X250190Y31750D03*
X224790Y31750D03*
X191770Y31750D03*
X166370Y31750D03*
D34*
X22860Y124460D03*
D35*
X101600Y274460D02*
X101600Y293370D01*
D36*
X21590Y312420D03*
X21590Y322580D03*
X21590Y332740D03*
X21590Y342900D03*
X21590Y354330D03*
X30480Y342900D03*
X49530Y375920D03*
X92710Y375920D03*
X189230Y377190D03*
X233680Y377190D03*
X327660Y377190D03*
X373380Y377190D03*
X514350Y378460D03*
X610870Y378460D03*
X655320Y378460D03*
X468630Y378460D03*
X105410Y375920D03*
X118110Y375920D03*
X80010Y375920D03*
X67310Y375920D03*
X207010Y377190D03*
X220980Y377190D03*
X246380Y377190D03*
X259080Y377190D03*
X344170Y377190D03*
X358140Y377190D03*
X386080Y377190D03*
X400050Y377190D03*
X485140Y378460D03*
X499110Y378460D03*
X527050Y378460D03*
X542290Y378460D03*
X627380Y378460D03*
X641350Y378460D03*
X669290Y378460D03*
X683260Y378460D03*
X49530Y386080D03*
X49530Y397510D03*
X189230Y387350D03*
X189230Y397510D03*
X327660Y387350D03*
X327660Y398780D03*
X468630Y388620D03*
X468630Y400050D03*
X610870Y388620D03*
X610870Y400050D03*
D34*
X363220Y87630D03*
X71120Y124460D03*
D37*
X62230Y207010D03*
X72390Y207010D03*
X82550Y207010D03*
X92710Y207010D03*
X104140Y207010D03*
X115570Y207010D03*
X62230Y195580D03*
X62230Y184150D03*
X62230Y172720D03*
X62230Y161290D03*
X401320Y95250D03*
X401320Y85090D03*
X411480Y85090D03*
X411480Y95250D03*
X391160Y176530D03*
X391160Y166370D03*
X391160Y156210D03*
X72390Y161290D03*
X72390Y172720D03*
X72390Y184150D03*
X72390Y195580D03*
X82550Y195580D03*
X92710Y195580D03*
X104140Y195580D03*
X115570Y195580D03*
X82550Y184150D03*
X92710Y184150D03*
X104140Y184150D03*
X115570Y184150D03*
X82550Y172720D03*
X92710Y172720D03*
X104140Y172720D03*
X115570Y172720D03*
X82550Y161290D03*
X92710Y161290D03*
X104140Y161290D03*
X115570Y161290D03*
D38*
X414020Y105800D02*
X414020Y97790D01*
X411480Y95250D01*
D39*
X681870Y262770D02*
X681870Y273050D01*
X676910Y257810D02*
X657860Y257810D01*
X676910Y257810D02*
X681870Y262770D01*
D37*
X657860Y257810D03*
X650240Y226060D03*
X650240Y194310D03*
X650240Y163830D03*
X650240Y133350D03*
X400050Y176530D03*
X400050Y166370D03*
X400050Y156210D03*
X276860Y267970D03*
X325120Y267970D03*
X165100Y248920D03*
X193040Y248920D03*
X250190Y243840D03*
X356870Y242570D03*
X626110Y64770D03*
D36*
X49530Y365760D03*
X189230Y367030D03*
X327660Y367030D03*
X468630Y368300D03*
X610870Y368300D03*
D37*
X612140Y133350D03*
X574040Y133350D03*
X612140Y163830D03*
X574040Y163830D03*
X520700Y232410D03*
X535940Y133350D03*
X497840Y133350D03*
X535940Y163830D03*
X535940Y95250D03*
X574040Y95250D03*
X612140Y95250D03*
X523240Y31750D03*
X421640Y85090D03*
X421640Y95250D03*
X565150Y232410D03*
X581660Y232410D03*
X591820Y95250D03*
X516890Y95250D03*
X516890Y133350D03*
X515620Y163830D03*
X591820Y133350D03*
X591820Y163830D03*
X612140Y194310D03*
X104140Y57150D03*
X104140Y10160D03*
X104140Y33020D03*
X523240Y54610D03*
X523240Y11430D03*
X508000Y54610D03*
X509270Y31750D03*
X509270Y11430D03*
X513080Y217170D03*
X138430Y57150D03*
X138430Y33020D03*
X138430Y11430D03*
X427990Y142240D03*
X450850Y142240D03*
X436880Y175260D03*
X436880Y222250D03*
X411480Y256540D03*
X444500Y256540D03*
X482600Y256540D03*
X548640Y259080D03*
X570230Y261620D03*
X642620Y259080D03*
D36*
X302260Y308610D03*
X302260Y332740D03*
X302260Y321310D03*
X302260Y344170D03*
X302260Y355600D03*
X311150Y344170D03*
X163830Y308610D03*
X163830Y332740D03*
X163830Y321310D03*
X163830Y344170D03*
X163830Y355600D03*
X172720Y344170D03*
X443230Y308610D03*
X443230Y332740D03*
X443230Y321310D03*
X443230Y344170D03*
X443230Y355600D03*
X452120Y344170D03*
X585470Y308610D03*
X585470Y332740D03*
X585470Y321310D03*
X585470Y344170D03*
X585470Y355600D03*
X594360Y344170D03*
D39*
X475440Y108390D02*
X461840Y108390D01*
X461010Y109220D01*
X451730Y109220D01*
X451730Y93980D01*
D35*
X451730Y109220D02*
X452120Y109610D01*
X455930Y121920D02*
X458470Y121920D01*
X455930Y121920D02*
X452120Y118110D01*
X452120Y109610D01*
D37*
X458470Y121920D03*
D35*
X457380Y167260D02*
X416380Y167260D01*
X457380Y167260D02*
X457380Y156390D01*
X457200Y156210D01*
D37*
X457200Y156210D03*
D35*
X468550Y196390D02*
X475440Y196390D01*
X505920Y188770D02*
X572310Y188770D01*
X505920Y188770D02*
X498300Y196390D01*
X475440Y196390D01*
X572310Y188770D02*
X579120Y195580D01*
D37*
X579120Y195580D03*
X568960Y195580D03*
D35*
X566800Y193420D02*
X507190Y193420D01*
X493220Y207390D01*
X475440Y207390D01*
X566800Y193420D02*
X568960Y195580D01*
X482650Y218390D02*
X475440Y218390D01*
X560640Y197420D02*
X567690Y204470D01*
D37*
X567690Y204470D03*
D35*
X489000Y218390D02*
X475440Y218390D01*
X489000Y218390D02*
X509970Y197420D01*
X560640Y197420D01*
X484350Y229390D02*
X475440Y229390D01*
X512320Y201420D02*
X555750Y201420D01*
X558800Y204470D01*
D37*
X558800Y204470D03*
D35*
X512320Y201420D02*
X484350Y229390D01*
X553940Y231360D02*
X553940Y245590D01*
X553940Y231360D02*
X548640Y226060D01*
X494607Y226060D02*
X487680Y232987D01*
X494607Y226060D02*
X548640Y226060D01*
X457380Y230250D02*
X416380Y230250D01*
X457380Y230250D02*
X457380Y238940D01*
X459740Y241300D01*
X483870Y241300D01*
X487680Y237490D02*
X487680Y232987D01*
X487680Y237490D02*
X483870Y241300D01*
D40*
X586940Y245590D02*
X586940Y256740D01*
X590550Y260350D01*
X631580Y264550D02*
X631580Y273050D01*
X627380Y260350D02*
X590550Y260350D01*
X627380Y260350D02*
X631580Y264550D01*
D35*
X597940Y245590D02*
X597940Y232180D01*
X596900Y231140D01*
D37*
X596900Y231140D03*
D35*
X608940Y231800D02*
X608940Y245590D01*
X608940Y231800D02*
X609600Y231140D01*
D37*
X609600Y231140D03*
D35*
X619940Y231320D02*
X619940Y245590D01*
X619940Y231320D02*
X619760Y231140D01*
D37*
X619760Y231140D03*
D35*
X630940Y245590D02*
X630940Y117090D01*
X643890Y104140D01*
X643890Y35560D01*
X626110Y17780D01*
X597940Y68810D02*
X597940Y81690D01*
X612632Y54118D02*
X612632Y29702D01*
X600710Y17780D01*
X612632Y54118D02*
X597940Y68810D01*
D39*
X575940Y245590D02*
X575940Y255900D01*
X583090Y263050D02*
X583090Y273050D01*
X583090Y263050D02*
X575940Y255900D01*
X558800Y272890D02*
X558640Y273050D01*
X558800Y272890D02*
X558800Y261620D01*
X564940Y255480D01*
X564940Y245590D01*
X511810Y275590D02*
X377030Y275590D01*
X531940Y255460D02*
X531940Y245590D01*
X531940Y255460D02*
X511810Y275590D01*
X520940Y258110D02*
X520940Y245590D01*
X520940Y258110D02*
X508000Y271050D01*
X394240Y271050D01*
X379730Y256540D01*
X251460Y256540D01*
X244950Y263050D02*
X244950Y274320D01*
X244950Y263050D02*
X251460Y256540D01*
X509940Y260760D02*
X509940Y245590D01*
X509940Y260760D02*
X504190Y266510D01*
X397391Y266510D01*
X382881Y252000D01*
X199230Y259240D02*
X199230Y274320D01*
X206470Y252000D02*
X382881Y252000D01*
X206470Y252000D02*
X199230Y259240D01*
X179230Y274320D02*
X167640Y274320D01*
D37*
X167640Y274320D03*
D39*
X34530Y394420D02*
X34530Y408700D01*
X34290Y408940D01*
D37*
X34290Y408940D03*
D39*
X345440Y275590D02*
X357030Y275590D01*
D37*
X345440Y275590D03*
D39*
X312660Y395690D02*
X312660Y408700D01*
X312420Y408940D01*
D37*
X312420Y408940D03*
D39*
X224950Y274320D02*
X213360Y274320D01*
D37*
X213360Y274320D03*
D39*
X174230Y394420D02*
X174230Y407430D01*
X173990Y407670D01*
D37*
X173990Y407670D03*
D39*
X528320Y273050D02*
X538640Y273050D01*
X528320Y273050D02*
X521970Y279400D01*
D37*
X521970Y279400D03*
D39*
X453630Y396960D02*
X453630Y407910D01*
X455930Y410210D01*
D37*
X455930Y410210D03*
D39*
X603090Y273050D02*
X614680Y273050D01*
D37*
X614680Y273050D03*
D39*
X595870Y396960D02*
X595870Y409970D01*
X595630Y410210D01*
D37*
X595630Y410210D03*
D34*
X363220Y133350D03*
D41*
X435610Y130390D02*
X475440Y130390D01*
X435610Y130390D02*
X414020Y130390D01*
X366180Y130390D01*
X363220Y133350D01*
X434730Y129510D02*
X434730Y109220D01*
X434730Y129510D02*
X435610Y130390D01*
D38*
X414020Y130390D02*
X414020Y122800D01*
D37*
X207010Y46990D03*
X269240Y46990D03*
X328930Y46990D03*
X386080Y46990D03*
X440690Y46990D03*
D42*
X191770Y39370D02*
X191770Y31750D01*
X191770Y39370D02*
X199390Y46990D01*
X207010Y46990D01*
X269240Y46990D01*
X328930Y46990D01*
X386080Y46990D01*
X440690Y46990D01*
X440690Y68580D01*
X453390Y81280D01*
X490220Y81280D01*
X488100Y130390D02*
X475440Y130390D01*
X488100Y130390D02*
X490220Y128270D01*
X490220Y81280D01*
X490220Y69850D01*
X496570Y63500D01*
X535940Y57150D02*
X535940Y25400D01*
X543560Y17780D01*
X549910Y17780D01*
X529590Y63500D02*
X496570Y63500D01*
X529590Y63500D02*
X535940Y57150D01*
D38*
X183510Y147520D02*
X165100Y165930D01*
X165100Y219710D01*
X170180Y224790D01*
X336550Y224790D01*
X341630Y219710D02*
X341630Y192880D01*
X341630Y219710D02*
X336550Y224790D01*
X341630Y192880D02*
X359180Y192880D01*
X359410Y192650D01*
X359640Y192880D01*
X377190Y192880D01*
D39*
X648580Y273050D02*
X650120Y274590D01*
X648580Y273050D02*
X664330Y273050D01*
D35*
X542940Y245590D02*
X542940Y233060D01*
X542290Y232410D01*
D37*
X542290Y232410D03*
D35*
X498940Y232580D02*
X498940Y245590D01*
X498940Y232580D02*
X499110Y232410D01*
D37*
X499110Y232410D03*
M02*
