M48
;GenerationSoftware,Autodesk,EAGLE,9.6.2*%
;CreationDate,2021-11-24T20:32:40Z*%
FMAT,2
ICI,OFF
METRIC,TZ,000.000
T7C0.300
T6C0.350
T5C0.850
T4C1.016
T3C1.300
T2C1.350
T1C3.000
%
G90
M71
T1
X4191Y56769
X69342Y4064
X4318Y4191
X69469Y56642
T2
X14351Y16452
X18351Y14752
X14351Y13052
X18351Y11352
X14351Y9652
T3
X3429Y26543
X3429Y21543
T4
X36957Y57150
X34417Y57150
X25019Y57150
X22479Y57150
X57531Y4318
X62611Y4318
X62611Y1778
X60071Y4318
X60071Y1778
X57531Y1778
X54991Y4318
X54991Y1778
X48895Y57150
X46355Y57150
X42926Y57150
X40386Y57150
X30988Y57150
X28448Y57150
T5
X36322Y13335
X36322Y8763
X2286Y12446
X7112Y12446
T6
X2159Y31242
X2159Y32258
X2159Y33274
X2159Y34290
X2159Y35433
X3048Y34290
X4953Y37592
X9271Y37592
X18923Y37719
X23368Y37719
X32766Y37719
X37338Y37719
X51435Y37846
X61087Y37846
X65532Y37846
X46863Y37846
X10541Y37592
X11811Y37592
X8001Y37592
X6731Y37592
X20701Y37719
X22098Y37719
X24638Y37719
X25908Y37719
X35814Y37719
X38608Y37719
X40005Y37719
X48514Y37846
X49911Y37846
X52705Y37846
X54229Y37846
X62738Y37846
X64135Y37846
X66929Y37846
X68326Y37846
X4953Y38608
X4953Y39751
X18923Y38735
X18923Y39751
X32766Y38735
X32766Y39878
X46863Y38862
X46863Y40005
X61087Y38862
X61087Y40005
X30226Y32131
X30226Y34417
X30226Y35560
X31115Y34417
X16383Y30861
X16383Y33274
X16383Y32131
X16383Y34417
X16383Y35560
X17272Y34417
X44323Y30861
X44323Y33274
X44323Y32131
X44323Y34417
X44323Y35560
X45212Y34417
X58547Y30861
X58547Y33274
X58547Y32131
X58547Y35560
X59436Y34417
X58547Y34417
X4953Y36576
X34417Y37719
X18923Y36703
X32766Y36703
X46863Y36830
X61087Y36830
X30226Y30861
X30226Y33274
T7
X6223Y20701
X7239Y20701
X8255Y20701
X9271Y20701
X10414Y20701
X11557Y20701
X6223Y19558
X6223Y18415
X6223Y17272
X6223Y16129
X40132Y9525
X40132Y8509
X40132Y7493
X41148Y7493
X41148Y8509
X41148Y9525
X39116Y17653
X39116Y16637
X39116Y15621
X7239Y16129
X7239Y17272
X7239Y18415
X65024Y19431
X65024Y16383
X65024Y13335
X47244Y8001
X49276Y3175
X32639Y3048
X41148Y25146
X45847Y25146
X45847Y21209
X45847Y16891
X40005Y17653
X40005Y16637
X40005Y15621
X27686Y26797
X32512Y26797
X16510Y24892
X19304Y24892
X25019Y24384
X35687Y24257
X41021Y2667
X62611Y6477
X57785Y16383
X49403Y13208
X57785Y13335
X57785Y9906
X56515Y19431
X56134Y20701
X55880Y21844
X56642Y22860
X52578Y22606
X44069Y6096
X53975Y22606
X52197Y5969
X16764Y27432
X3429Y40894
X34544Y27559
X31242Y40894
X21336Y27432
X17399Y40767
X52197Y27940
X45593Y41021
X61468Y27305
X59563Y41021
X49530Y16383
X49784Y18923
X52070Y10287
X52070Y13208
X8255Y18415
X52070Y16383
X52070Y18923
X60960Y9906
X60960Y13335
X60960Y16383
X60960Y19558
X60960Y22606
X65786Y25781
X11557Y16129
X10414Y16129
X9271Y16129
X8255Y16129
X11557Y17272
X10414Y17272
X9271Y17272
X8255Y17272
X11557Y18415
X10414Y18415
X9271Y18415
X11557Y19558
X10414Y19558
X9271Y19558
X8255Y19558
X7239Y19558
X65024Y22606
M30