M48
;GenerationSoftware,Autodesk,EAGLE,9.6.2*%
;CreationDate,2021-11-23T19:10:19Z*%
FMAT,2
ICI,OFF
METRIC,TZ,000.000
T6C0.300
T5C0.350
T4C0.850
T3C1.016
T2C1.350
T1C3.175
%
G90
M71
T1
X3302Y57150
X73152Y3048
X3302Y3048
X73152Y57150
T2
X14351Y16452
X18351Y14752
X14351Y13052
X18351Y11352
X14351Y9652
T3
X25019Y57150
X22479Y57150
X3429Y24130
X3429Y26670
X48895Y57150
X46355Y57150
X42926Y57150
X34417Y57150
X40386Y57150
X30988Y57150
X28448Y57150
X36957Y57150
T4
X5334Y8636
X36322Y13335
X36322Y8763
X5334Y13208
T5
X2159Y31242
X2159Y32258
X2159Y33274
X2159Y34290
X2159Y35433
X4953Y37592
X9271Y37592
X18923Y37719
X23368Y37719
X32766Y37719
X37338Y37719
X51435Y37846
X61087Y37846
X65532Y37846
X46863Y37846
X10541Y37592
X11811Y37592
X6731Y37592
X20701Y37719
X22098Y37719
X24638Y37719
X25908Y37719
X34417Y37719
X35814Y37719
X38608Y37719
X40005Y37719
X48514Y37846
X49911Y37846
X52705Y37846
X54229Y37846
X62738Y37846
X64135Y37846
X66929Y37846
X68326Y37846
X4953Y38608
X4953Y39751
X18923Y38735
X18923Y39751
X32766Y38735
X32766Y39878
X46863Y38862
X46863Y40005
X61087Y38862
X61087Y40005
X58547Y34417
X58547Y35560
X58547Y32131
X42164Y25781
X8001Y37592
X30226Y30861
X30226Y33274
X30226Y32131
X30226Y34417
X30226Y35560
X16383Y30861
X16383Y33274
X16383Y32131
X16383Y34417
X16383Y35560
X44323Y30861
X44323Y33274
X44323Y32131
X44323Y34417
X44323Y35560
X58547Y30861
X58547Y33274
T6
X5207Y20701
X6223Y20701
X7239Y20701
X8255Y18415
X9398Y18415
X10541Y18415
X7239Y17272
X8255Y17272
X9398Y17272
X10541Y17272
X7239Y16129
X8255Y16129
X9398Y16129
X10541Y16129
X63119Y9525
X49149Y14224
X65532Y27559
X41910Y16764
X8255Y19558
X9398Y19558
X10541Y19558
X42037Y15240
X58674Y23241
X16764Y27432
X3175Y37846
X34544Y27559
X31242Y40894
X21336Y27432
X17399Y40767
X52197Y27940
X45593Y41021
X61468Y27305
X59563Y41021
X7239Y19558
X6223Y19558
X6223Y18415
X5207Y18415
X6223Y17272
X6223Y16129
X39116Y15621
X39116Y16637
X39116Y17653
X41148Y9525
X41148Y8509
X41148Y7493
X40132Y7493
X40132Y8509
X40132Y9525
X5207Y16129
X5207Y17272
X5207Y19558
X10541Y20701
X9398Y20701
X8255Y20701
X7239Y18415
M30